<svg xmlns="http://www.w3.org/2000/svg" width="1366" height="700" viewBox="0 0 1366 700"><linearGradient id="a" gradientUnits="userSpaceOnUse" x1="1129.916" y1="199.525" x2="1205.057" y2="199.525" gradientTransform="matrix(1 0 0 -1 287 243)"><stop offset="0" stop-color="#FFF"/><stop offset=".058" stop-color="#f0f7fc"/><stop offset=".168" stop-color="#cae4f3"/><stop offset=".319" stop-color="#8bc4e4"/><stop offset=".504" stop-color="#3698d0"/><stop offset=".571" stop-color="#1688c9"/><stop offset=".847" stop-color="#1688c9"/></linearGradient><path opacity=".2" fill="url(#a)" d="M1472.188 61.846s19.868 1.208 19.868-15.248c0-5.812-7.26-11.847-14.646-11.847 0 0-5.095.44-5.222.44-.128 0-1.528-10.106-14.647-10.106-10.57 0-12.987 9.886-12.987 9.886s-7.77-1.646-12.61 2.193c-4.838 3.84-4.457 9.104-4.457 9.104s-10.57-.658-10.57 8.008c0 5.375 6.24 7.465 12.23 7.465 1.784.002 43.042.106 43.042.106z"/><linearGradient id="b" gradientUnits="userSpaceOnUse" x1="1328.71" y1="202.481" x2="1436.609" y2="202.481" gradientTransform="rotate(180 1328.915 121.5)"><stop offset="0" stop-color="#FFF"/><stop offset=".127" stop-color="#fcfefe"/><stop offset=".208" stop-color="#f4f9fc"/><stop offset=".276" stop-color="#e5f2f9"/><stop offset=".338" stop-color="#d0e7f4"/><stop offset=".395" stop-color="#b5d9ee"/><stop offset=".448" stop-color="#93c8e6"/><stop offset=".498" stop-color="#6cb4dd"/><stop offset=".545" stop-color="#3f9dd3"/><stop offset=".583" stop-color="#1688c9"/><stop offset=".804" stop-color="#1688c9"/></linearGradient><path opacity=".2" fill="url(#b)" d="M1249.752 62.02s-28.53 1.413-28.53-17.847c0-6.805 10.42-13.864 21.024-13.864 0 0 7.318.512 7.506.512.183 0 2.195-11.827 21.025-11.827 15.184 0 18.653 11.57 18.653 11.57s11.15-1.927 18.107 2.566c6.95 4.496 6.4 10.658 6.4 10.658s15.182-.77 15.182 9.373c0 6.292-8.963 8.737-17.56 8.737-2.557.002-61.808.124-61.808.124z"/><linearGradient id="c" gradientUnits="userSpaceOnUse" x1="2677.143" y1="202.481" x2="2785.042" y2="202.481" gradientTransform="rotate(180 1328.915 121.5)"><stop offset="0" stop-color="#FFF"/><stop offset=".127" stop-color="#fcfefe"/><stop offset=".208" stop-color="#f4f9fc"/><stop offset=".276" stop-color="#e5f2f9"/><stop offset=".338" stop-color="#d0e7f4"/><stop offset=".395" stop-color="#b5d9ee"/><stop offset=".448" stop-color="#93c8e6"/><stop offset=".498" stop-color="#6cb4dd"/><stop offset=".545" stop-color="#3f9dd3"/><stop offset=".583" stop-color="#1688c9"/><stop offset=".804" stop-color="#1688c9"/></linearGradient><path opacity=".2" fill="url(#c)" d="M-98.68 62.02s-28.532 1.413-28.532-17.847c0-6.805 10.422-13.864 21.025-13.864 0 0 7.318.512 7.506.512.182 0 2.194-11.827 21.024-11.827 15.184 0 18.653 11.57 18.653 11.57s11.15-1.927 18.107 2.566c6.95 4.496 6.4 10.658 6.4 10.658s15.182-.77 15.182 9.373c0 6.292-8.962 8.737-17.56 8.737-2.556.002-61.807.124-61.807.124z"/><linearGradient id="d" gradientUnits="userSpaceOnUse" x1="1513.969" y1="213.392" x2="1582.426" y2="213.392" gradientTransform="rotate(180 1328.915 121.5)"><stop offset="0" stop-color="#FFF"/><stop offset=".804" stop-color="#1688c9"/></linearGradient><path opacity=".2" fill="url(#d)" d="M1093.503 49.03s-18.1 1.275-18.1-16.12c0-6.148 6.612-12.526 13.35-12.526 0 0 4.636.465 4.75.465.113 0 1.396-10.684 13.346-10.684 9.632 0 11.837 10.45 11.837 10.45s7.076-1.738 11.48 2.318c4.407 4.06 4.06 9.627 4.06 9.627s9.635-.694 9.635 8.468c0 5.683-5.685 7.893-11.136 7.893-1.63 0-39.223.11-39.223.11z"/><linearGradient id="e" gradientUnits="userSpaceOnUse" x1="718.202" y1="227.355" x2="820.25" y2="227.355" gradientTransform="matrix(1 0 0 -1 287 243)"><stop offset="0" stop-color="#FFF"/><stop offset=".075" stop-color="#fafcfe"/><stop offset=".17" stop-color="#eaf4fa"/><stop offset=".275" stop-color="#d0e7f4"/><stop offset=".389" stop-color="#acd4ec"/><stop offset=".508" stop-color="#7dbde1"/><stop offset=".632" stop-color="#45a0d4"/><stop offset=".724" stop-color="#1688c9"/></linearGradient><linearGradient id="f" gradientUnits="userSpaceOnUse" x1="1616.815" y1="224.709" x2="1719.89" y2="224.709" gradientTransform="rotate(180 1328.915 121.5)"><stop offset="0" stop-color="#FFF"/><stop offset=".001" stop-color="#FFF"/><stop offset=".123" stop-color="#fcfdfe"/><stop offset=".23" stop-color="#f1f8fc"/><stop offset=".332" stop-color="#dfeff8"/><stop offset=".43" stop-color="#c5e2f2"/><stop offset=".526" stop-color="#a5d1ea"/><stop offset=".62" stop-color="#7cbce1"/><stop offset=".712" stop-color="#4da4d6"/><stop offset=".801" stop-color="#1789c9"/><stop offset=".804" stop-color="#1688c9"/></linearGradient><linearGradient id="g" gradientUnits="userSpaceOnUse" x1="362.714" y1="202.34" x2="491.945" y2="202.34" gradientTransform="matrix(1 0 0 -1 344.698 243)"><stop offset="0" stop-color="#FFF"/><stop offset=".043" stop-color="#FFF"/><stop offset=".307" stop-color="#FFF"/><stop offset=".358" stop-color="#fbfdfe"/><stop offset=".411" stop-color="#eef7fb"/><stop offset=".465" stop-color="#daecf6"/><stop offset=".519" stop-color="#bdddf0"/><stop offset=".574" stop-color="#97cae7"/><stop offset=".629" stop-color="#6ab3dc"/><stop offset=".683" stop-color="#3598d0"/><stop offset=".712" stop-color="#1688c9"/></linearGradient><path opacity=".2" fill="url(#g)" d="M802.473 62.11s34.17 1.41 34.17-17.804c0-6.79-12.483-13.834-25.19-13.834 0 0-8.762.513-8.98.513-.218 0-2.63-11.8-25.187-11.8-18.184 0-22.34 11.543-22.34 11.543s-13.36-1.92-21.685 2.562c-8.323 4.482-7.664 10.632-7.664 10.632s-18.184-.77-18.184 9.35c0 6.276 10.73 8.717 21.032 8.717 3.07 0 74.03.12 74.03.12z"/><linearGradient id="h" gradientUnits="userSpaceOnUse" x1="1912.49" y1="203.976" x2="1988.863" y2="203.976" gradientTransform="rotate(180 1328.915 121.5)"><stop offset="0" stop-color="#FFF"/><stop offset=".081" stop-color="#f9fcfe"/><stop offset=".186" stop-color="#e9f4fa"/><stop offset=".306" stop-color="#cde6f3"/><stop offset=".437" stop-color="#a7d2eb"/><stop offset=".576" stop-color="#76b9df"/><stop offset=".72" stop-color="#3c9bd2"/><stop offset=".804" stop-color="#1688c9"/></linearGradient><path opacity=".2" fill="url(#h)" d="M689.165 55.95s-20.198 1.11-20.198-14.05c0-5.353 7.38-10.914 14.89-10.914 0 0 5.18.405 5.31.405.125 0 1.557-9.31 14.884-9.31 10.75 0 13.207 9.107 13.207 9.107s7.896-1.516 12.814 2.02c4.913 3.54 4.522 8.39 4.522 8.39s10.75-.606 10.75 7.377c0 4.95-6.348 6.876-12.433 6.876l-43.745.1z"/><linearGradient id="i" gradientUnits="userSpaceOnUse" x1="349.523" y1="186.03" x2="425.256" y2="186.03" gradientTransform="matrix(1 0 0 -1 287 243)"><stop offset=".356" stop-color="#FFF"/><stop offset=".423" stop-color="#fbfdfe"/><stop offset=".489" stop-color="#eff7fb"/><stop offset=".555" stop-color="#dbedf7"/><stop offset=".621" stop-color="#c0dff0"/><stop offset=".686" stop-color="#9ccce8"/><stop offset=".751" stop-color="#70b6de"/><stop offset=".815" stop-color="#3d9cd2"/><stop offset=".859" stop-color="#1688c9"/></linearGradient><path opacity=".2" fill="url(#i)" d="M692.232 71.645s20.023.964 20.023-12.18c0-4.647-7.324-9.464-14.766-9.464 0 0-5.126.353-5.266.353-.124 0-1.54-8.072-14.762-8.072-10.646 0-13.09 7.897-13.09 7.897s-7.827-1.313-12.705 1.752c-4.875 3.067-4.495 7.27-4.495 7.27s-10.65-.524-10.65 6.397c0 4.293 6.293 5.963 12.326 5.963 1.804 0 43.384.085 43.384.085z"/><linearGradient id="j" gradientUnits="userSpaceOnUse" x1="200.183" y1="226.77" x2="290.304" y2="226.77" gradientTransform="matrix(1 0 0 -1 287 243)"><stop offset="0" stop-color="#FFF"/><stop offset=".107" stop-color="#fbfdfe"/><stop offset=".213" stop-color="#eff7fb"/><stop offset=".318" stop-color="#dbedf7"/><stop offset=".423" stop-color="#bfdff0"/><stop offset=".528" stop-color="#9ccce8"/><stop offset=".632" stop-color="#70b6de"/><stop offset=".735" stop-color="#3c9cd2"/><stop offset=".804" stop-color="#1688c9"/></linearGradient><path opacity=".2" fill="url(#j)" d="M553.47 32.408s23.834 1.4 23.834-17.692c0-6.747-8.707-13.748-17.565-13.748 0 0-6.11.51-6.264.51-.034 0-.436-1.45-.436-1.45h-32.308l-.402 1.194s-9.312-1.91-15.122 2.545c-5.804 4.455-5.347 10.565-5.347 10.565s-12.678-.765-12.678 9.292c0 6.236 7.49 8.663 14.667 8.663 2.14 0 51.62.12 51.62.12z"/><linearGradient id="k" gradientUnits="userSpaceOnUse" x1="2233.328" y1="191.665" x2="2314.707" y2="191.665" gradientTransform="rotate(180 1328.915 121.5)"><stop offset="0" stop-color="#FFF"/><stop offset=".14" stop-color="#fcfdfe"/><stop offset=".244" stop-color="#f3f9fc"/><stop offset=".337" stop-color="#e2f0f8"/><stop offset=".423" stop-color="#cce5f3"/><stop offset=".504" stop-color="#aed6ec"/><stop offset=".582" stop-color="#8ac3e4"/><stop offset=".657" stop-color="#60aeda"/><stop offset=".728" stop-color="#2f95cf"/><stop offset=".761" stop-color="#1688c9"/><stop offset=".896" stop-color="#1688c9"/></linearGradient><path opacity=".15" fill="url(#k)" d="M364.642 66.762s-21.52 1.013-21.52-12.804c0-4.88 7.863-9.948 15.864-9.948 0 0 5.52.37 5.655.37.14 0 1.657-8.487 15.86-8.487 11.45 0 14.068 8.3 14.068 8.3s8.414-1.38 13.655 1.843c5.24 3.225 4.826 7.646 4.826 7.646s11.45-.553 11.45 6.725c0 4.514-6.758 6.27-13.245 6.27-1.93-.002-46.613.085-46.613.085z"/><linearGradient id="l" gradientUnits="userSpaceOnUse" x1="-4.83" y1="212.512" x2="78.221" y2="212.512" gradientTransform="matrix(1 0 0 -1 287 243)"><stop offset="0" stop-color="#FFF"/><stop offset=".65" stop-color="#1688c9"/><stop offset=".896" stop-color="#1688c9"/></linearGradient><path opacity=".15" fill="url(#l)" d="M343.263 51.312s21.958 1.368 21.958-17.284c0-6.59-8.022-13.43-16.187-13.43 0 0-5.632.498-5.77.498-.144 0-1.69-11.455-16.19-11.455-11.683 0-14.356 11.208-14.356 11.208s-8.586-1.866-13.937 2.486c-5.35 4.352-4.926 10.32-4.926 10.32s-11.684-.747-11.684 9.08c0 6.094 6.896 8.46 13.52 8.46 1.968 0 47.573.118 47.573.118z"/><linearGradient id="m" gradientUnits="userSpaceOnUse" x1="2334.138" y1="205.578" x2="2437.211" y2="205.578" gradientTransform="rotate(180 1328.915 121.5)"><stop offset="0" stop-color="#FFF"/><stop offset="0" stop-color="#FFF"/><stop offset=".001" stop-color="#FFF"/><stop offset=".209" stop-color="#fdfeff"/><stop offset=".303" stop-color="#f6fafd"/><stop offset=".374" stop-color="#e9f4fa"/><stop offset=".433" stop-color="#d7eaf6"/><stop offset=".485" stop-color="#bfdef0"/><stop offset=".532" stop-color="#a2d0e9"/><stop offset=".576" stop-color="#80bee1"/><stop offset=".616" stop-color="#58a9d8"/><stop offset=".653" stop-color="#2c93ce"/><stop offset=".669" stop-color="#1688c9"/><stop offset=".837" stop-color="#1688c9"/><stop offset=".865" stop-color="#1688c9"/></linearGradient><path opacity=".15" fill="url(#m)" d="M247.874 56.024s-27.255 1.223-27.255-15.44c0-5.888 9.957-11.997 20.092-11.997 0 0 6.988.444 7.162.444s2.097-10.23 20.09-10.23c14.502 0 17.82 10.01 17.82 10.01s10.655-1.666 17.295 2.222c6.638 3.887 6.11 9.22 6.11 9.22s14.502-.668 14.502 8.105c0 5.444-8.56 7.562-16.774 7.562-2.445 0-59.044.104-59.044.104z"/><linearGradient id="n" gradientUnits="userSpaceOnUse" x1="-253.741" y1="199.525" x2="-178.6" y2="199.525" gradientTransform="matrix(1 0 0 -1 287 243)"><stop offset="0" stop-color="#FFF"/><stop offset=".058" stop-color="#f0f7fc"/><stop offset=".168" stop-color="#cae4f3"/><stop offset=".319" stop-color="#8bc4e4"/><stop offset=".504" stop-color="#3698d0"/><stop offset=".571" stop-color="#1688c9"/><stop offset=".847" stop-color="#1688c9"/></linearGradient><path opacity=".2" fill="url(#n)" d="M88.532 61.846S108.4 63.054 108.4 46.598c0-5.812-7.26-11.847-14.646-11.847 0 0-5.095.44-5.222.44-.128 0-1.528-10.106-14.647-10.106-10.57 0-12.99 9.886-12.99 9.886s-7.768-1.646-12.608 2.193c-4.84 3.84-4.458 9.104-4.458 9.104s-10.57-.658-10.57 8.008c0 5.375 6.24 7.465 12.23 7.465 1.783.002 43.042.106 43.042.106z"/></svg>