<svg xmlns="http://www.w3.org/2000/svg" width="2732" height="700" viewBox="-533.504 666.643 2732 700"><linearGradient id="a" gradientUnits="userSpaceOnUse" x1="194.885" y1="1214.634" x2="275.215" y2="1214.634" gradientTransform="matrix(-1 0 0 1 2369.83 -502)"><stop offset="0" stop-color="#FFF"/><stop offset=".397" stop-color="#9FA9D2"/><stop offset=".673" stop-color="#6373B5"/><stop offset=".804" stop-color="#4C5EAA"/></linearGradient><path opacity=".2" fill="url(#a)" d="M2115.856 728.64s-21.24 1.052-21.24-13.286c0-5.066 7.758-10.322 15.652-10.322 0 0 5.45.382 5.588.382.136 0 1.635-8.806 15.653-8.806 11.303 0 13.887 8.614 13.887 8.614s8.3-1.434 13.48 1.912c5.175 3.346 4.765 7.934 4.765 7.934s11.303-.574 11.303 6.978c0 4.684-6.672 6.505-13.07 6.505-1.907 0-46.02.09-46.02.09z"/><linearGradient id="b" gradientUnits="userSpaceOnUse" x1="384.229" y1="1194.222" x2="438.602" y2="1194.222" gradientTransform="matrix(-1 0 0 1 2369.83 -502)"><stop offset="0" stop-color="#FFF"/><stop offset=".397" stop-color="#9FA9D2"/><stop offset=".673" stop-color="#6373B5"/><stop offset=".804" stop-color="#4C5EAA"/></linearGradient><path opacity=".2" fill="url(#b)" d="M1945.604 707.647s-14.375 1.013-14.375-12.804c0-4.882 5.25-9.948 10.6-9.948 0 0 3.684.37 3.774.37.09 0 1.108-8.486 10.6-8.486 7.65 0 9.403 8.3 9.403 8.3s5.62-1.38 9.118 1.84c3.5 3.226 3.225 7.647 3.225 7.647s7.65-.553 7.65 6.725c0 4.513-4.513 6.268-8.843 6.268-1.295 0-31.153.087-31.153.087z"/><linearGradient id="c" gradientUnits="userSpaceOnUse" x1="1870.025" y1="1181.352" x2="1953.074" y2="1181.352" gradientTransform="translate(0 -502)"><stop offset="0" stop-color="#FFF"/><stop offset=".397" stop-color="#9FA9D2"/><stop offset=".673" stop-color="#6373B5"/><stop offset=".804" stop-color="#4C5EAA"/></linearGradient><path opacity=".1" fill="url(#c)" d="M1931.115 692.037s21.96 1.41 21.96-17.812c0-2.64-3.07-7.583-3.07-7.583l-66.34.026-1.952 7.174s-11.688-.77-11.688 9.354c0 6.28 6.896 8.722 13.517 8.722 1.972-.002 47.573.12 47.573.12z"/><linearGradient id="d" gradientUnits="userSpaceOnUse" x1="457.99" y1="1186.904" x2="561.065" y2="1186.904" gradientTransform="matrix(-1 0 0 1 2369.83 -502)"><stop offset="0" stop-color="#FFF"/><stop offset=".001" stop-color="#FFF"/><stop offset=".154" stop-color="#C9CEE5"/><stop offset=".304" stop-color="#9CA6D0"/><stop offset=".447" stop-color="#7987BF"/><stop offset=".581" stop-color="#6070B4"/><stop offset=".704" stop-color="#5163AC"/><stop offset=".804" stop-color="#4C5EAA"/></linearGradient><path opacity=".1" fill="url(#d)" d="M1836.018 703.14s-27.253 1.537-27.253-19.4c0-7.397 9.956-15.073 20.09-15.073 0 0 6.99.56 7.163.56.052 0 .776-2.584.776-2.584l36.232.012.896 2.292s10.656-2.095 17.298 2.79c6.64 4.886 6.112 11.585 6.112 11.585s14.507-.838 14.507 10.19c0 6.837-8.566 9.497-16.782 9.497-2.442-.002-59.04.13-59.04.13z"/><linearGradient id="e" gradientUnits="userSpaceOnUse" x1="1490.871" y1="1209.273" x2="1620.102" y2="1209.273" gradientTransform="translate(57.698 -502)"><stop offset="0" stop-color="#FFF"/><stop offset=".001" stop-color="#FFF"/><stop offset=".154" stop-color="#C9CEE5"/><stop offset=".304" stop-color="#9CA6D0"/><stop offset=".447" stop-color="#7987BF"/><stop offset=".581" stop-color="#6070B4"/><stop offset=".704" stop-color="#5163AC"/><stop offset=".804" stop-color="#4C5EAA"/></linearGradient><path opacity=".1" fill="url(#e)" d="M1643.63 728.724s34.17 1.41 34.17-17.804c0-6.79-12.484-13.834-25.19-13.834 0 0-8.762.513-8.98.513-.22 0-2.63-11.8-25.188-11.8-18.183 0-22.34 11.542-22.34 11.542s-13.36-1.92-21.684 2.56c-8.324 4.484-7.665 10.633-7.665 10.633s-18.184-.77-18.184 9.35c0 6.276 10.728 8.717 21.032 8.717 3.07.002 74.028.122 74.028.122z"/><linearGradient id="f" gradientUnits="userSpaceOnUse" x1="778.666" y1="1209.14" x2="833.039" y2="1209.14" gradientTransform="matrix(-1 0 0 1 2369.83 -502)"><stop offset="0" stop-color="#FFF"/><stop offset=".397" stop-color="#9FA9D2"/><stop offset=".673" stop-color="#6373B5"/><stop offset=".804" stop-color="#4C5EAA"/></linearGradient><path opacity=".2" fill="url(#f)" d="M1551.17 722.565s-14.38 1.014-14.38-12.804c0-4.88 5.255-9.947 10.6-9.947 0 0 3.69.37 3.78.37.09 0 1.11-8.486 10.598-8.486 7.652 0 9.4 8.3 9.4 8.3s5.623-1.38 9.124 1.843c3.498 3.225 3.22 7.646 3.22 7.646s7.652-.552 7.652 6.725c0 4.514-4.52 6.27-8.85 6.27-1.287-.002-31.143.085-31.143.085z"/><linearGradient id="g" gradientUnits="userSpaceOnUse" x1="1506.349" y1="1224.583" x2="1558.08" y2="1224.583" gradientTransform="translate(0 -502)"><stop offset="0" stop-color="#FFF"/><stop offset=".397" stop-color="#9FA9D2"/><stop offset=".673" stop-color="#6373B5"/><stop offset=".804" stop-color="#4C5EAA"/></linearGradient><path opacity=".2" fill="url(#g)" d="M1544.402 737.257s13.678.964 13.678-12.18c0-4.646-5.003-9.464-10.086-9.464 0 0-3.5.352-3.596.352-.085 0-1.053-8.072-10.084-8.072-7.27 0-8.94 7.896-8.94 7.896s-5.348-1.314-8.68 1.75c-3.33 3.07-3.07 7.273-3.07 7.273s-7.275-.525-7.275 6.397c0 4.293 4.298 5.963 8.42 5.963 1.23 0 29.632.084 29.632.084z"/><linearGradient id="h" gradientUnits="userSpaceOnUse" x1="1333.008" y1="1184.843" x2="1408.151" y2="1184.843" gradientTransform="translate(0 -502)"><stop offset="0" stop-color="#FFF"/><stop offset=".397" stop-color="#9FA9D2"/><stop offset=".673" stop-color="#6373B5"/><stop offset=".804" stop-color="#4C5EAA"/></linearGradient><path opacity=".2" fill="url(#h)" d="M1388.278 699.02s19.873 1.4 19.873-17.69c0-6.748-7.26-13.75-14.645-13.75 0 0-5.096.51-5.222.51-.028 0-.363-1.448-.363-1.448h-26.938l-.337 1.193s-7.763-1.91-12.608 2.545c-4.84 4.455-4.458 10.565-4.458 10.565s-10.572-.764-10.572 9.292c0 6.237 6.245 8.663 12.23 8.663 1.783 0 43.04.12 43.04.12z"/><linearGradient id="i" gradientUnits="userSpaceOnUse" x1="1126.504" y1="1219.948" x2="1180.883" y2="1219.948" gradientTransform="matrix(-1 0 0 1 2369.83 -502)"><stop offset="0" stop-color="#FFF"/><stop offset=".397" stop-color="#9FA9D2"/><stop offset=".673" stop-color="#6373B5"/><stop offset=".804" stop-color="#4C5EAA"/></linearGradient><path opacity=".2" fill="url(#i)" d="M1203.326 733.375s-14.38 1.013-14.38-12.804c0-4.88 5.255-9.947 10.6-9.947 0 0 3.69.37 3.78.37s1.106-8.487 10.598-8.487c7.65 0 9.4 8.3 9.4 8.3s5.623-1.38 9.125 1.842c3.5 3.225 3.224 7.646 3.224 7.646s7.652-.553 7.652 6.725c0 4.512-4.516 6.267-8.85 6.267-1.29 0-31.15.088-31.15.088z"/><linearGradient id="j" gradientUnits="userSpaceOnUse" x1="1127.996" y1="1199.102" x2="1211.045" y2="1199.102" gradientTransform="translate(0 -502)"><stop offset="0" stop-color="#FFF"/><stop offset=".397" stop-color="#9FA9D2"/><stop offset=".673" stop-color="#6373B5"/><stop offset=".804" stop-color="#4C5EAA"/></linearGradient><path opacity=".1" fill="url(#j)" d="M1189.087 717.926s21.958 1.368 21.958-17.284c0-6.59-8.023-13.43-16.188-13.43 0 0-5.63.498-5.77.498-.144 0-1.69-11.455-16.19-11.455-11.683 0-14.356 11.207-14.356 11.207s-8.585-1.866-13.935 2.486-4.926 10.32-4.926 10.32-11.685-.746-11.685 9.08c0 6.094 6.896 8.46 13.518 8.46 1.97 0 47.574.118 47.574.118z"/><linearGradient id="k" gradientUnits="userSpaceOnUse" x1="1200.312" y1="1206.035" x2="1303.387" y2="1206.035" gradientTransform="matrix(-1 0 0 1 2369.83 -502)"><stop offset="0" stop-color="#FFF"/><stop offset=".001" stop-color="#FFF"/><stop offset=".154" stop-color="#C9CEE5"/><stop offset=".304" stop-color="#9CA6D0"/><stop offset=".447" stop-color="#7987BF"/><stop offset=".581" stop-color="#6070B4"/><stop offset=".704" stop-color="#5163AC"/><stop offset=".804" stop-color="#4C5EAA"/></linearGradient><path opacity=".1" fill="url(#k)" d="M1093.698 722.638s-27.255 1.222-27.255-15.44c0-5.888 9.957-11.998 20.093-11.998 0 0 6.988.445 7.162.445s2.097-10.233 20.09-10.233c14.503 0 17.82 10.012 17.82 10.012s10.656-1.667 17.296 2.22c6.64 3.887 6.112 9.22 6.112 9.22s14.502-.668 14.502 8.106c0 5.444-8.56 7.56-16.774 7.56-2.447.003-59.046.108-59.046.108z"/><linearGradient id="l" gradientUnits="userSpaceOnUse" x1="879.082" y1="1212.087" x2="954.225" y2="1212.087" gradientTransform="translate(0 -502)"><stop offset="0" stop-color="#FFF"/><stop offset=".397" stop-color="#9FA9D2"/><stop offset=".673" stop-color="#6373B5"/><stop offset=".804" stop-color="#4C5EAA"/></linearGradient><path opacity=".2" fill="url(#l)" d="M934.356 728.46s19.868 1.207 19.868-15.25c0-5.812-7.26-11.846-14.646-11.846 0 0-5.095.438-5.222.438-.128 0-1.528-10.106-14.647-10.106-10.57 0-12.99 9.886-12.99 9.886s-7.77-1.646-12.608 2.193c-4.84 3.84-4.46 9.104-4.46 9.104s-10.57-.66-10.57 8.007c0 5.375 6.24 7.465 12.23 7.465 1.786.003 43.044.107 43.044.107z"/><linearGradient id="m" gradientUnits="userSpaceOnUse" x1="1566.82" y1="1214.634" x2="1647.15" y2="1214.634" gradientTransform="matrix(-1 0 0 1 2369.83 -502)"><stop offset="0" stop-color="#FFF"/><stop offset=".397" stop-color="#9FA9D2"/><stop offset=".673" stop-color="#6373B5"/><stop offset=".804" stop-color="#4C5EAA"/></linearGradient><path opacity=".2" fill="url(#m)" d="M743.92 728.64s-21.24 1.052-21.24-13.286c0-5.066 7.76-10.322 15.653-10.322 0 0 5.45.382 5.588.382.137 0 1.636-8.806 15.654-8.806 11.304 0 13.888 8.614 13.888 8.614s8.3-1.434 13.48 1.912c5.175 3.346 4.765 7.934 4.765 7.934s11.303-.574 11.303 6.978c0 4.684-6.672 6.505-13.07 6.505-1.908 0-46.02.09-46.02.09z"/><linearGradient id="n" gradientUnits="userSpaceOnUse" x1="1756.165" y1="1194.222" x2="1810.537" y2="1194.222" gradientTransform="matrix(-1 0 0 1 2369.83 -502)"><stop offset="0" stop-color="#FFF"/><stop offset=".397" stop-color="#9FA9D2"/><stop offset=".673" stop-color="#6373B5"/><stop offset=".804" stop-color="#4C5EAA"/></linearGradient><path opacity=".2" fill="url(#n)" d="M573.668 707.647s-14.375 1.013-14.375-12.804c0-4.882 5.252-9.948 10.602-9.948 0 0 3.683.37 3.773.37.09 0 1.108-8.486 10.6-8.486 7.65 0 9.403 8.3 9.403 8.3s5.62-1.38 9.12 1.84c3.5 3.226 3.224 7.647 3.224 7.647s7.65-.553 7.65 6.725c0 4.513-4.513 6.268-8.843 6.268-1.294 0-31.152.087-31.152.087z"/><linearGradient id="o" gradientUnits="userSpaceOnUse" x1="498.09" y1="1181.352" x2="581.139" y2="1181.352" gradientTransform="translate(0 -502)"><stop offset="0" stop-color="#FFF"/><stop offset=".397" stop-color="#9FA9D2"/><stop offset=".673" stop-color="#6373B5"/><stop offset=".804" stop-color="#4C5EAA"/></linearGradient><path opacity=".1" fill="url(#o)" d="M559.18 692.037s21.96 1.41 21.96-17.812c0-2.64-3.07-7.583-3.07-7.583l-66.34.026-1.952 7.174s-11.688-.77-11.688 9.354c0 6.28 6.896 8.722 13.517 8.722 1.97-.002 47.573.12 47.573.12z"/><linearGradient id="p" gradientUnits="userSpaceOnUse" x1="1829.926" y1="1186.904" x2="1933.001" y2="1186.904" gradientTransform="matrix(-1 0 0 1 2369.83 -502)"><stop offset="0" stop-color="#FFF"/><stop offset=".001" stop-color="#FFF"/><stop offset=".154" stop-color="#C9CEE5"/><stop offset=".304" stop-color="#9CA6D0"/><stop offset=".447" stop-color="#7987BF"/><stop offset=".581" stop-color="#6070B4"/><stop offset=".704" stop-color="#5163AC"/><stop offset=".804" stop-color="#4C5EAA"/></linearGradient><path opacity=".1" fill="url(#p)" d="M464.082 703.14s-27.253 1.537-27.253-19.4c0-7.397 9.955-15.073 20.09-15.073 0 0 6.99.56 7.162.56.052 0 .776-2.584.776-2.584l36.232.012.896 2.292s10.656-2.095 17.298 2.79c6.64 4.886 6.112 11.585 6.112 11.585s14.507-.838 14.507 10.19c0 6.837-8.565 9.497-16.78 9.497-2.442-.002-59.04.13-59.04.13z"/><linearGradient id="q" gradientUnits="userSpaceOnUse" x1="118.936" y1="1209.273" x2="248.167" y2="1209.273" gradientTransform="translate(57.698 -502)"><stop offset="0" stop-color="#FFF"/><stop offset=".001" stop-color="#FFF"/><stop offset=".154" stop-color="#C9CEE5"/><stop offset=".304" stop-color="#9CA6D0"/><stop offset=".447" stop-color="#7987BF"/><stop offset=".581" stop-color="#6070B4"/><stop offset=".704" stop-color="#5163AC"/><stop offset=".804" stop-color="#4C5EAA"/></linearGradient><path opacity=".1" fill="url(#q)" d="M271.694 728.724s34.17 1.41 34.17-17.804c0-6.79-12.484-13.834-25.19-13.834 0 0-8.762.513-8.98.513-.22 0-2.63-11.8-25.188-11.8-18.183 0-22.34 11.542-22.34 11.542s-13.36-1.92-21.684 2.56c-8.324 4.484-7.665 10.633-7.665 10.633s-18.184-.77-18.184 9.35c0 6.276 10.73 8.717 21.033 8.717 3.07.002 74.028.122 74.028.122z"/><linearGradient id="r" gradientUnits="userSpaceOnUse" x1="2150.602" y1="1209.14" x2="2204.975" y2="1209.14" gradientTransform="matrix(-1 0 0 1 2369.83 -502)"><stop offset="0" stop-color="#FFF"/><stop offset=".397" stop-color="#9FA9D2"/><stop offset=".673" stop-color="#6373B5"/><stop offset=".804" stop-color="#4C5EAA"/></linearGradient><path opacity=".2" fill="url(#r)" d="M179.235 722.565s-14.38 1.014-14.38-12.804c0-4.88 5.254-9.947 10.6-9.947 0 0 3.688.37 3.78.37.09 0 1.108-8.486 10.597-8.486 7.652 0 9.4 8.3 9.4 8.3s5.623-1.38 9.124 1.843c3.498 3.225 3.22 7.646 3.22 7.646s7.652-.552 7.652 6.725c0 4.514-4.52 6.27-8.85 6.27-1.286-.002-31.143.085-31.143.085z"/><linearGradient id="s" gradientUnits="userSpaceOnUse" x1="134.413" y1="1224.583" x2="186.144" y2="1224.583" gradientTransform="translate(0 -502)"><stop offset="0" stop-color="#FFF"/><stop offset=".397" stop-color="#9FA9D2"/><stop offset=".673" stop-color="#6373B5"/><stop offset=".804" stop-color="#4C5EAA"/></linearGradient><path opacity=".2" fill="url(#s)" d="M172.467 737.257s13.678.964 13.678-12.18c0-4.646-5.003-9.464-10.086-9.464 0 0-3.502.352-3.597.352-.085 0-1.053-8.072-10.084-8.072-7.272 0-8.94 7.896-8.94 7.896s-5.35-1.314-8.68 1.75c-3.33 3.07-3.07 7.273-3.07 7.273s-7.276-.525-7.276 6.397c0 4.293 4.3 5.963 8.42 5.963 1.23 0 29.633.084 29.633.084z"/><linearGradient id="t" gradientUnits="userSpaceOnUse" x1="-38.928" y1="1184.843" x2="36.216" y2="1184.843" gradientTransform="translate(0 -502)"><stop offset="0" stop-color="#FFF"/><stop offset=".397" stop-color="#9FA9D2"/><stop offset=".673" stop-color="#6373B5"/><stop offset=".804" stop-color="#4C5EAA"/></linearGradient><path opacity=".2" fill="url(#t)" d="M16.343 699.02s19.873 1.4 19.873-17.69c0-6.748-7.26-13.75-14.646-13.75 0 0-5.096.51-5.222.51-.028 0-.363-1.448-.363-1.448h-26.938l-.337 1.193s-7.763-1.91-12.608 2.545c-4.84 4.455-4.458 10.565-4.458 10.565s-10.57-.764-10.57 9.292c0 6.237 6.244 8.663 12.228 8.663 1.784 0 43.04.12 43.04.12z"/><linearGradient id="u" gradientUnits="userSpaceOnUse" x1="2498.439" y1="1219.948" x2="2552.819" y2="1219.948" gradientTransform="matrix(-1 0 0 1 2369.83 -502)"><stop offset="0" stop-color="#FFF"/><stop offset=".397" stop-color="#9FA9D2"/><stop offset=".673" stop-color="#6373B5"/><stop offset=".804" stop-color="#4C5EAA"/></linearGradient><path opacity=".2" fill="url(#u)" d="M-168.61 733.375s-14.378 1.013-14.378-12.804c0-4.88 5.254-9.947 10.6-9.947 0 0 3.688.37 3.78.37.092 0 1.106-8.487 10.598-8.487 7.65 0 9.4 8.3 9.4 8.3s5.623-1.38 9.126 1.842c3.5 3.225 3.225 7.646 3.225 7.646s7.653-.553 7.653 6.725c0 4.512-4.516 6.267-8.85 6.267-1.294 0-31.152.088-31.152.088z"/><linearGradient id="v" gradientUnits="userSpaceOnUse" x1="-243.94" y1="1199.102" x2="-160.89" y2="1199.102" gradientTransform="translate(0 -502)"><stop offset="0" stop-color="#FFF"/><stop offset=".397" stop-color="#9FA9D2"/><stop offset=".673" stop-color="#6373B5"/><stop offset=".804" stop-color="#4C5EAA"/></linearGradient><path opacity=".1" fill="url(#v)" d="M-182.85 717.926s21.96 1.368 21.96-17.284c0-6.59-8.025-13.43-16.19-13.43 0 0-5.63.498-5.77.498-.143 0-1.69-11.455-16.19-11.455-11.682 0-14.356 11.207-14.356 11.207s-8.586-1.866-13.936 2.486-4.926 10.32-4.926 10.32-11.684-.746-11.684 9.08c0 6.094 6.897 8.46 13.52 8.46 1.97 0 47.573.118 47.573.118z"/><linearGradient id="w" gradientUnits="userSpaceOnUse" x1="2572.247" y1="1206.035" x2="2675.322" y2="1206.035" gradientTransform="matrix(-1 0 0 1 2369.83 -502)"><stop offset="0" stop-color="#FFF"/><stop offset=".001" stop-color="#FFF"/><stop offset=".154" stop-color="#C9CEE5"/><stop offset=".304" stop-color="#9CA6D0"/><stop offset=".447" stop-color="#7987BF"/><stop offset=".581" stop-color="#6070B4"/><stop offset=".704" stop-color="#5163AC"/><stop offset=".804" stop-color="#4C5EAA"/></linearGradient><path opacity=".1" fill="url(#w)" d="M-278.237 722.638s-27.255 1.222-27.255-15.44c0-5.888 9.958-11.998 20.093-11.998 0 0 6.99.445 7.163.445s2.097-10.233 20.09-10.233c14.502 0 17.82 10.012 17.82 10.012s10.656-1.667 17.295 2.22c6.64 3.887 6.112 9.22 6.112 9.22s14.502-.668 14.502 8.106c0 5.444-8.56 7.56-16.775 7.56-2.446.003-59.044.108-59.044.108z"/><linearGradient id="x" gradientUnits="userSpaceOnUse" x1="-492.853" y1="1212.087" x2="-417.711" y2="1212.087" gradientTransform="translate(0 -502)"><stop offset="0" stop-color="#FFF"/><stop offset=".397" stop-color="#9FA9D2"/><stop offset=".673" stop-color="#6373B5"/><stop offset=".804" stop-color="#4C5EAA"/></linearGradient><path opacity=".2" fill="url(#x)" d="M-437.58 728.46s19.87 1.207 19.87-15.25c0-5.812-7.26-11.846-14.647-11.846 0 0-5.095.438-5.222.438-.127 0-1.527-10.106-14.646-10.106-10.57 0-12.99 9.886-12.99 9.886s-7.768-1.646-12.608 2.193c-4.84 3.84-4.458 9.104-4.458 9.104s-10.57-.66-10.57 8.007c0 5.375 6.24 7.465 12.23 7.465 1.784.003 43.043.107 43.043.107z"/></svg>