<?xml version="1.0" encoding="utf-8"?>
<!-- Generator: Adobe Illustrator 16.0.4, SVG Export Plug-In . SVG Version: 6.00 Build 0)  -->
<!DOCTYPE svg PUBLIC "-//W3C//DTD SVG 1.1//EN" "http://www.w3.org/Graphics/SVG/1.1/DTD/svg11.dtd">
<svg version="1.1" id="Clouds_1_" xmlns="http://www.w3.org/2000/svg" xmlns:xlink="http://www.w3.org/1999/xlink" x="0px" y="0px"
	 width="1366px" height="700px" viewBox="149.496 666.643 1366 700" enable-background="new 149.496 666.643 1366 700"
	 xml:space="preserve">
<linearGradient id="Cloud_12_2_" gradientUnits="userSpaceOnUse" x1="890.8438" y1="1209.1338" x2="998.7441" y2="1209.1338" gradientTransform="matrix(-1 0 0 1 2369.8301 -502)">
	<stop  offset="0" style="stop-color:#FFFFFF"/>
	<stop  offset="0.1266" style="stop-color:#FCFEFE"/>
	<stop  offset="0.2079" style="stop-color:#F4F9FC"/>
	<stop  offset="0.2764" style="stop-color:#E5F2F9"/>
	<stop  offset="0.3378" style="stop-color:#D0E7F4"/>
	<stop  offset="0.3945" style="stop-color:#B5D9EE"/>
	<stop  offset="0.4478" style="stop-color:#93C8E6"/>
	<stop  offset="0.4983" style="stop-color:#6CB4DD"/>
	<stop  offset="0.5455" style="stop-color:#3F9DD3"/>
	<stop  offset="0.5828" style="stop-color:#1688C9"/>
	<stop  offset="0.8037" style="stop-color:#1688C9"/>
</linearGradient>
<path id="Cloud_12_1_" opacity="0.2" fill="url(#Cloud_12_2_)" enable-background="new    " d="M1399.617,728.635
	c0,0-28.531,1.412-28.531-17.848c0-6.805,10.422-13.864,21.025-13.864c0,0,7.319,0.513,7.506,0.513
	c0.183,0,2.196-11.828,21.026-11.828c15.183,0,18.653,11.57,18.653,11.57s11.15-1.926,18.107,2.567
	c6.951,4.495,6.4,10.657,6.4,10.657s15.182-0.771,15.182,9.373c0,6.291-8.962,8.737-17.558,8.737
	C1458.868,728.513,1399.617,728.635,1399.617,728.635z"/>
<linearGradient id="Cloud_11_2_" gradientUnits="userSpaceOnUse" x1="1076.1045" y1="1198.2207" x2="1144.5605" y2="1198.2207" gradientTransform="matrix(-1 0 0 1 2369.8301 -502)">
	<stop  offset="0" style="stop-color:#FFFFFF"/>
	<stop  offset="0.8037" style="stop-color:#1688C9"/>
</linearGradient>
<path id="Cloud_11_1_" opacity="0.2" fill="url(#Cloud_11_2_)" enable-background="new    " d="M1243.368,715.643
	c0,0-18.099,1.276-18.099-16.121c0-6.147,6.612-12.525,13.348-12.525c0,0,4.637,0.465,4.751,0.465
	c0.113,0,1.396-10.683,13.346-10.683c9.633,0,11.838,10.451,11.838,10.451s7.076-1.739,11.48,2.318
	c4.408,4.06,4.06,9.627,4.06,9.627s9.634-0.696,9.634,8.467c0,5.682-5.684,7.892-11.135,7.892
	C1280.96,715.533,1243.368,715.643,1243.368,715.643z"/>
<linearGradient id="Cloud_10_2_" gradientUnits="userSpaceOnUse" x1="1155.0664" y1="1184.2588" x2="1257.1152" y2="1184.2588" gradientTransform="matrix(1 0 0 1 0 -502)">
	<stop  offset="0" style="stop-color:#FFFFFF"/>
	<stop  offset="0.0748" style="stop-color:#FAFCFE"/>
	<stop  offset="0.1696" style="stop-color:#EAF4FA"/>
	<stop  offset="0.2752" style="stop-color:#D0E7F4"/>
	<stop  offset="0.3887" style="stop-color:#ACD4EC"/>
	<stop  offset="0.5085" style="stop-color:#7DBDE1"/>
	<stop  offset="0.6316" style="stop-color:#45A0D4"/>
	<stop  offset="0.7239" style="stop-color:#1688C9"/>
</linearGradient>
<path id="Cloud_10_1_" opacity="0.2" fill="url(#Cloud_10_2_)" enable-background="new    " d="M1230.133,697.847
	c0,0,26.982,1.733,26.982-21.887c0-3.243-3.772-9.317-3.772-9.317l-81.516,0.032l-2.399,8.815c0,0-14.361-0.946-14.361,11.493
	c0,7.715,8.473,10.717,16.608,10.717C1174.098,697.697,1230.133,697.847,1230.133,697.847z"/>
<linearGradient id="Cloud_9_2_" gradientUnits="userSpaceOnUse" x1="1178.9492" y1="1186.9043" x2="1282.0244" y2="1186.9043" gradientTransform="matrix(-1 0 0 1 2369.8301 -502)">
	<stop  offset="0" style="stop-color:#FFFFFF"/>
	<stop  offset="0.0011" style="stop-color:#FFFFFF"/>
	<stop  offset="0.123" style="stop-color:#FCFDFE"/>
	<stop  offset="0.2302" style="stop-color:#F1F8FC"/>
	<stop  offset="0.3319" style="stop-color:#DFEFF8"/>
	<stop  offset="0.4303" style="stop-color:#C5E2F2"/>
	<stop  offset="0.5262" style="stop-color:#A5D1EA"/>
	<stop  offset="0.6204" style="stop-color:#7CBCE1"/>
	<stop  offset="0.712" style="stop-color:#4DA4D6"/>
	<stop  offset="0.8014" style="stop-color:#1789C9"/>
	<stop  offset="0.8037" style="stop-color:#1688C9"/>
</linearGradient>
<path id="Cloud_9_1_" opacity="0.2" fill="url(#Cloud_9_2_)" enable-background="new    " d="M1115.059,703.141
	c0,0-27.253,1.536-27.253-19.4c0-7.398,9.956-15.074,20.091-15.074c0,0,6.989,0.559,7.162,0.559c0.052,0,0.776-2.583,0.776-2.583
	l36.232,0.012l0.896,2.292c0,0,10.656-2.095,17.298,2.79c6.639,4.886,6.112,11.585,6.112,11.585s14.507-0.838,14.507,10.189
	c0,6.838-8.565,9.498-16.781,9.498C1171.657,703.008,1115.059,703.141,1115.059,703.141z"/>
<linearGradient id="Cloud_8_2_" gradientUnits="userSpaceOnUse" x1="794.9121" y1="1209.2725" x2="924.1436" y2="1209.2725" gradientTransform="matrix(1 0 0 1 57.6982 -502)">
	<stop  offset="0" style="stop-color:#FFFFFF"/>
	<stop  offset="0.0434" style="stop-color:#FFFFFF"/>
	<stop  offset="0.3067" style="stop-color:#FFFFFF"/>
	<stop  offset="0.3581" style="stop-color:#FBFDFE"/>
	<stop  offset="0.4111" style="stop-color:#EEF7FB"/>
	<stop  offset="0.4649" style="stop-color:#DAECF6"/>
	<stop  offset="0.5192" style="stop-color:#BDDDF0"/>
	<stop  offset="0.5739" style="stop-color:#97CAE7"/>
	<stop  offset="0.629" style="stop-color:#6AB3DC"/>
	<stop  offset="0.6834" style="stop-color:#3598D0"/>
	<stop  offset="0.7117" style="stop-color:#1688C9"/>
</linearGradient>
<path id="Cloud_8_1_" opacity="0.2" fill="url(#Cloud_8_2_)" enable-background="new    " d="M947.671,728.724
	c0,0,34.171,1.41,34.171-17.804c0-6.789-12.485-13.834-25.192-13.834c0,0-8.761,0.513-8.979,0.513c-0.219,0-2.63-11.8-25.188-11.8
	c-18.183,0-22.34,11.543-22.34,11.543s-13.361-1.92-21.684,2.561c-8.324,4.483-7.665,10.632-7.665,10.632s-18.184-0.769-18.184,9.35
	c0,6.276,10.729,8.717,21.033,8.717C876.713,728.604,947.671,728.724,947.671,728.724z"/>
<linearGradient id="Cloud_7_2_" gradientUnits="userSpaceOnUse" x1="1474.625" y1="1207.6396" x2="1550.998" y2="1207.6396" gradientTransform="matrix(-1 0 0 1 2369.8301 -502)">
	<stop  offset="0" style="stop-color:#FFFFFF"/>
	<stop  offset="0.0805" style="stop-color:#F9FCFE"/>
	<stop  offset="0.1864" style="stop-color:#E9F4FA"/>
	<stop  offset="0.3065" style="stop-color:#CDE6F3"/>
	<stop  offset="0.4372" style="stop-color:#A7D2EB"/>
	<stop  offset="0.5763" style="stop-color:#76B9DF"/>
	<stop  offset="0.7203" style="stop-color:#3C9BD2"/>
	<stop  offset="0.8037" style="stop-color:#1688C9"/>
</linearGradient>
<path id="Cloud_7_1_" opacity="0.2" fill="url(#Cloud_7_2_)" enable-background="new    " d="M839.03,722.563
	c0,0-20.198,1.112-20.198-14.048c0-5.355,7.38-10.915,14.889-10.915c0,0,5.179,0.405,5.31,0.405c0.125,0,1.557-9.31,14.884-9.31
	c10.749,0,13.206,9.107,13.206,9.107s7.896-1.516,12.814,2.021c4.913,3.538,4.521,8.388,4.521,8.388s10.749-0.606,10.749,7.378
	c0,4.951-6.347,6.876-12.432,6.876C880.967,722.468,839.03,722.563,839.03,722.563z"/>
<linearGradient id="Cloud_6_2_" gradientUnits="userSpaceOnUse" x1="786.3896" y1="1225.583" x2="862.1211" y2="1225.583" gradientTransform="matrix(1 0 0 1 0 -502)">
	<stop  offset="0.3558" style="stop-color:#FFFFFF"/>
	<stop  offset="0.4232" style="stop-color:#FBFDFE"/>
	<stop  offset="0.4893" style="stop-color:#EFF7FB"/>
	<stop  offset="0.5551" style="stop-color:#DBEDF7"/>
	<stop  offset="0.6206" style="stop-color:#C0DFF0"/>
	<stop  offset="0.686" style="stop-color:#9CCCE8"/>
	<stop  offset="0.7513" style="stop-color:#70B6DE"/>
	<stop  offset="0.8153" style="stop-color:#3D9CD2"/>
	<stop  offset="0.8589" style="stop-color:#1688C9"/>
</linearGradient>
<path id="Cloud_6_1_" opacity="0.2" fill="url(#Cloud_6_2_)" enable-background="new    " d="M842.098,738.258
	c0,0,20.023,0.964,20.023-12.181c0-4.645-7.324-9.463-14.765-9.463c0,0-5.126,0.352-5.265,0.352c-0.124,0-1.541-8.072-14.762-8.072
	c-10.646,0-13.089,7.896-13.089,7.896s-7.828-1.313-12.706,1.752c-4.875,3.068-4.495,7.272-4.495,7.272s-10.65-0.525-10.65,6.397
	c0,4.293,6.293,5.963,12.326,5.963C800.518,738.174,842.098,738.258,842.098,738.258z"/>
<linearGradient id="Cloud_5_2_" gradientUnits="userSpaceOnUse" x1="637.0488" y1="1184.8428" x2="727.1689" y2="1184.8428" gradientTransform="matrix(1 0 0 1 0 -502)">
	<stop  offset="0" style="stop-color:#FFFFFF"/>
	<stop  offset="0.107" style="stop-color:#FBFDFE"/>
	<stop  offset="0.2127" style="stop-color:#EFF7FB"/>
	<stop  offset="0.3179" style="stop-color:#DBEDF7"/>
	<stop  offset="0.4229" style="stop-color:#BFDFF0"/>
	<stop  offset="0.5277" style="stop-color:#9CCCE8"/>
	<stop  offset="0.6325" style="stop-color:#70B6DE"/>
	<stop  offset="0.7352" style="stop-color:#3C9CD2"/>
	<stop  offset="0.8037" style="stop-color:#1688C9"/>
</linearGradient>
<path id="Cloud_5_1_" opacity="0.2" fill="url(#Cloud_5_2_)" enable-background="new    " d="M703.335,699.021
	c0,0,23.834,1.4,23.834-17.692c0-6.747-8.707-13.748-17.565-13.748c0,0-6.111,0.51-6.263,0.51c-0.034,0-0.436-1.449-0.436-1.449
	h-32.307l-0.403,1.193c0,0-9.311-1.909-15.122,2.545c-5.803,4.455-5.346,10.565-5.346,10.565s-12.679-0.764-12.679,9.292
	c0,6.237,7.49,8.663,14.667,8.663C653.855,698.901,703.335,699.021,703.335,699.021z"/>
<linearGradient id="Cloud_4_2_" gradientUnits="userSpaceOnUse" x1="1795.4629" y1="1219.9482" x2="1876.8428" y2="1219.9482" gradientTransform="matrix(-1 0 0 1 2369.8301 -502)">
	<stop  offset="0" style="stop-color:#FFFFFF"/>
	<stop  offset="0.1402" style="stop-color:#FCFDFE"/>
	<stop  offset="0.2444" style="stop-color:#F3F9FC"/>
	<stop  offset="0.337" style="stop-color:#E2F0F8"/>
	<stop  offset="0.4228" style="stop-color:#CCE5F3"/>
	<stop  offset="0.5041" style="stop-color:#AED6EC"/>
	<stop  offset="0.5818" style="stop-color:#8AC3E4"/>
	<stop  offset="0.6567" style="stop-color:#60AEDA"/>
	<stop  offset="0.7277" style="stop-color:#2F95CF"/>
	<stop  offset="0.7607" style="stop-color:#1688C9"/>
	<stop  offset="0.8957" style="stop-color:#1688C9"/>
</linearGradient>
<path id="Cloud_4_1_" opacity="0.15" fill="url(#Cloud_4_2_)" enable-background="new    " d="M514.507,733.375
	c0,0-21.519,1.013-21.519-12.804c0-4.881,7.863-9.948,15.864-9.948c0,0,5.518,0.369,5.655,0.369c0.138,0,1.656-8.486,15.86-8.486
	c11.448,0,14.068,8.301,14.068,8.301s8.414-1.382,13.655,1.841c5.239,3.225,4.826,7.646,4.826,7.646s11.451-0.553,11.451,6.725
	c0,4.513-6.758,6.268-13.245,6.268C559.19,733.288,514.507,733.375,514.507,733.375z"/>
<linearGradient id="Cloud_3_2_" gradientUnits="userSpaceOnUse" x1="432.0366" y1="1199.1025" x2="515.0864" y2="1199.1025" gradientTransform="matrix(1 0 0 1 0 -502)">
	<stop  offset="0" style="stop-color:#FFFFFF"/>
	<stop  offset="0.6503" style="stop-color:#1688C9"/>
	<stop  offset="0.8957" style="stop-color:#1688C9"/>
</linearGradient>
<path id="Cloud_3_1_" opacity="0.15" fill="url(#Cloud_3_2_)" enable-background="new    " d="M493.128,717.926
	c0,0,21.958,1.368,21.958-17.284c0-6.591-8.024-13.43-16.188-13.43c0,0-5.631,0.498-5.771,0.498
	c-0.143,0-1.689-11.455-16.189-11.455c-11.683,0-14.357,11.207-14.357,11.207s-8.586-1.866-13.936,2.486
	c-5.349,4.352-4.926,10.321-4.926,10.321s-11.684-0.747-11.684,9.079c0,6.094,6.897,8.461,13.519,8.461
	C447.523,717.808,493.128,717.926,493.128,717.926z"/>
<linearGradient id="Cloud_2_2_" gradientUnits="userSpaceOnUse" x1="1896.2705" y1="1206.0352" x2="1999.3457" y2="1206.0352" gradientTransform="matrix(-1 0 0 1 2369.8301 -502)">
	<stop  offset="0" style="stop-color:#FFFFFF"/>
	<stop  offset="1.554740e-04" style="stop-color:#FFFFFF"/>
	<stop  offset="0.0011" style="stop-color:#FFFFFF"/>
	<stop  offset="0.209" style="stop-color:#FDFEFF"/>
	<stop  offset="0.3028" style="stop-color:#F6FAFD"/>
	<stop  offset="0.3737" style="stop-color:#E9F4FA"/>
	<stop  offset="0.4331" style="stop-color:#D7EAF6"/>
	<stop  offset="0.4854" style="stop-color:#BFDEF0"/>
	<stop  offset="0.5325" style="stop-color:#A2D0E9"/>
	<stop  offset="0.5758" style="stop-color:#80BEE1"/>
	<stop  offset="0.6162" style="stop-color:#58A9D8"/>
	<stop  offset="0.6528" style="stop-color:#2C93CE"/>
	<stop  offset="0.6687" style="stop-color:#1688C9"/>
	<stop  offset="0.8373" style="stop-color:#1688C9"/>
	<stop  offset="0.865" style="stop-color:#1688C9"/>
</linearGradient>
<path id="Cloud_2_1_" opacity="0.15" fill="url(#Cloud_2_2_)" enable-background="new    " d="M397.739,722.638
	c0,0-27.255,1.222-27.255-15.44c0-5.888,9.958-11.998,20.093-11.998c0,0,6.988,0.445,7.162,0.445s2.097-10.233,20.09-10.233
	c14.502,0,17.819,10.012,17.819,10.012s10.657-1.667,17.296,2.22c6.639,3.887,6.112,9.219,6.112,9.219s14.502-0.667,14.502,8.107
	c0,5.444-8.56,7.561-16.775,7.561C454.338,722.533,397.739,722.638,397.739,722.638z"/>
<linearGradient id="Cloud_1_2_" gradientUnits="userSpaceOnUse" x1="183.123" y1="1212.0869" x2="258.2656" y2="1212.0869" gradientTransform="matrix(1 0 0 1 0 -502)">
	<stop  offset="0" style="stop-color:#FFFFFF"/>
	<stop  offset="0.0575" style="stop-color:#F0F7FC"/>
	<stop  offset="0.1678" style="stop-color:#CAE4F3"/>
	<stop  offset="0.3193" style="stop-color:#8BC4E4"/>
	<stop  offset="0.5045" style="stop-color:#3698D0"/>
	<stop  offset="0.5706" style="stop-color:#1688C9"/>
	<stop  offset="0.8466" style="stop-color:#1688C9"/>
</linearGradient>
<path id="Cloud_1_1_" opacity="0.2" fill="url(#Cloud_1_2_)" enable-background="new    " d="M238.397,728.459
	c0,0,19.868,1.208,19.868-15.248c0-5.813-7.26-11.847-14.646-11.847c0,0-5.095,0.438-5.222,0.438
	c-0.128,0-1.528-10.106-14.647-10.106c-10.571,0-12.989,9.886-12.989,9.886s-7.769-1.646-12.609,2.193
	c-4.839,3.839-4.458,9.104-4.458,9.104s-10.57-0.658-10.57,8.008c0,5.375,6.241,7.465,12.23,7.465
	C197.138,728.355,238.397,728.459,238.397,728.459z"/>
</svg>
