<svg xmlns="http://www.w3.org/2000/svg" width="1366" height="700" viewBox="149.496 666.643 1366 700"><path fill="#231F20" d="M953.688 1037.28h-.265c-.318-.138-.404-.388-.404-.734.01-2.284.005-4.567.005-6.85v-.187c-.174.866-.316 1.735-.46 2.606-.05.278-.32.43-.554.283-.08-.048-.13-.153-.19-.23v-.242c.01-.036.027-.074.033-.116.078-.5.148-1.006.236-1.506.077-.46.144-.926.266-1.372.172-.645.553-.913 1.197-.913.54 0 1.078.003 1.62.005.67.002 1.016.272 1.155.95.117.596.203 1.198.307 1.795.062.387.133.77.204 1.155v.24c-.037.055-.066.115-.105.16-.097.13-.236.147-.377.11-.138-.033-.228-.128-.252-.27-.095-.54-.18-1.084-.27-1.624-.06-.33-.115-.664-.175-.995-.025.066-.025.13-.025.192 0 2.275-.008 4.554.006 6.825.003.345-.097.583-.41.71h-.266c-.303-.123-.41-.352-.41-.688.016-1.315.008-2.627.008-3.94v-.21h-.453v.218c0 1.313-.007 2.63.003 3.938-.002.347-.115.573-.425.69"/><path fill="#FFF" d="M956.835 1031.927c-.07-.387-.14-.77-.204-1.156-.103-.596-.187-1.198-.304-1.79-.142-.68-.486-.952-1.157-.952-.54-.002-1.082-.006-1.623-.004-.64 0-1.02.27-1.195.91-.12.45-.188.916-.267 1.375-.086.497-.158 1.002-.236 1.505-.005.04-.024.078-.035.114v-5.94h2.308c-.06.027-.118.058-.18.08-.622.256-.77 1.066-.27 1.51.353.312.86.336 1.236.058.507-.374.5-1.102-.016-1.46-.112-.078-.244-.126-.368-.187h2.31v5.937M955.228 1037.28c.312-.13.412-.367.41-.71-.012-2.273-.006-4.554-.006-6.827.002-.065 0-.128.026-.194.062.332.118.664.174.995.092.542.178 1.085.27 1.626.026.14.115.24.253.272.143.037.282.016.38-.112.037-.046.064-.106.1-.158v5.108h-1.607M951.816 1032.17c.064.077.112.183.192.23.232.146.505-.005.55-.283.146-.87.29-1.74.464-2.607v.188c0 2.28.006 4.564-.006 6.85-.002.346.088.596.402.732h-1.604l.002-5.11"/><path fill="#231F20" d="M954.526 1025.988c.124.06.256.106.368.187.52.356.522 1.085.015 1.46-.376.278-.885.252-1.237-.06-.498-.443-.353-1.254.27-1.51.062-.022.12-.053.18-.077h.403"/><path fill="#FFF" d="M953.688 1037.28c.31-.117.422-.344.422-.686-.012-1.31-.004-2.624-.004-3.936v-.222h.45v.212c0 1.313.01 2.627-.005 3.94 0 .34.106.57.41.69h-1.272"/><path fill="#B98D2D" d="M953.022 1026.503h2.453s-.962-2.02-2.453 0"/><path fill="#FFF" d="M954.673 1026.39c0 .2-.163.366-.365.366-.204 0-.368-.166-.368-.365 0-.203.164-.367.368-.367.202 0 .365.164.365.368"/><path fill="#231F20" d="M948.182 1037.828h-.268c-.316-.133-.405-.39-.403-.73.012-2.285.01-4.568.01-6.852v-.188c-.177.87-.32 1.74-.467 2.61-.042.28-.318.43-.55.285-.08-.05-.13-.153-.19-.23v-.243c.01-.038.025-.076.03-.114.08-.503.15-1.006.237-1.51.08-.46.146-.92.27-1.372.173-.64.55-.91 1.192-.913.54 0 1.08.007 1.622.007.67.004 1.018.272 1.155.953.117.597.203 1.193.306 1.792.063.387.134.77.202 1.157v.238c-.032.056-.06.11-.098.162-.103.126-.24.146-.38.11-.14-.034-.23-.13-.255-.272-.093-.54-.18-1.082-.27-1.624l-.172-.996c-.027.066-.025.13-.027.192 0 2.275-.006 4.554.004 6.827.002.343-.097.58-.407.71h-.268c-.305-.125-.41-.354-.407-.69.013-1.315.004-2.627.004-3.94v-.21h-.452v.218c0 1.313-.004 2.627.004 3.938 0 .34-.114.57-.422.685"/><path fill="#FFF" d="M951.326 1032.48c-.066-.388-.14-.772-.202-1.157-.104-.597-.187-1.2-.307-1.792-.14-.68-.486-.95-1.155-.95-.54 0-1.082-.008-1.622-.008-.64 0-1.02.272-1.195.913-.12.45-.188.913-.267 1.374-.086.5-.156 1.004-.236 1.507-.004.036-.022.074-.034.114v-5.937h2.31c-.06.024-.12.05-.18.076-.622.252-.77 1.066-.27 1.51.35.312.86.336 1.237.06.505-.375.503-1.104-.016-1.46-.115-.08-.247-.124-.37-.187h2.308l-.002 5.936M949.722 1037.828c.31-.128.41-.366.407-.71-.01-2.274-.005-4.55-.005-6.826 0-.062 0-.126.027-.194.06.335.114.665.17.998.093.542.18 1.083.272 1.624.024.142.114.24.253.27.14.037.278.018.38-.108.038-.05.064-.106.1-.16v5.106h-1.605M946.308 1032.722c.064.078.114.182.194.23.23.146.505-.005.55-.283.145-.874.29-1.74.466-2.612v.187c0 2.285.002 4.568-.01 6.853 0 .343.09.6.404.73h-1.606l.002-5.106"/><path fill="#231F20" d="M949.018 1026.54c.124.06.258.105.37.186.52.358.522 1.085.016 1.46-.378.278-.89.254-1.237-.06-.497-.443-.354-1.256.27-1.51l.18-.08.4.003"/><path fill="#FFF" d="M948.182 1037.828c.31-.114.42-.345.42-.683-.01-1.31-.005-2.624-.005-3.938v-.22h.454v.214c0 1.31.007 2.626-.005 3.94-.004.338.103.564.407.687h-1.27"/><path fill="#B98D2D" d="M947.514 1027.054h2.457s-.965-2.02-2.456 0"/><path fill="#FFF" d="M949.167 1026.94c0 .202-.166.366-.37.366-.202 0-.368-.165-.368-.367 0-.205.165-.37.367-.37.204 0 .37.165.37.37"/><path fill="#C9A432" d="M958.942 1038.253h-13.588v-17.43h13.588v17.43m-.092-.09v-.09.09m-3.525-.095l.064.064.062-.064.064.064.062-.064h1.394l.065.064.062-.064.063.064.065-.064h1.52v-1.52l.065-.066-.064-.064.063-.063-.064-.064v-1.39l.063-.063-.064-.064.063-.065-.064-.064v-1.392l.063-.064-.064-.063.063-.064-.064-.064v-1.393l.063-.063-.064-.064.063-.062-.064-.065v-1.396l.063-.06-.064-.066.063-.063-.064-.064v-1.3l.063-.064-.064-.064v-7.24h-13.212v7.24l-.064.064.064.063v1.3l-.064.065.064.063-.064.066.064.06v1.395l-.064.064.064.062-.064.064.064.063v1.393l-.064.065.064.065-.064.063.064.064v1.392l-.064.064.064.065-.064.064.064.062v1.39l-.064.065.064.063-.064.064.064.066v1.21l-.158.15.13.135.028-.03v.057h1.52l.064.062.067-.062.06.062.063-.062h1.394l.063.062.064-.062.062.062.065-.062h1.394l.063.062.066-.062.063.062.064-.062h1.394l.062.062.063-.062.063.062.064-.062h1.394l.063.062.067-.062.062.062.064-.062 1.42-.002"/><path fill="#C9A432" d="M958.76 1028.155h-1.523l-.062-.064-.066.065-.064-.064-.064.065h-.14v-.183h1.924v.183m-2.958 0c-.168-.088-.38-.13-.64-.13-.483-.002-.97-.006-1.455-.006h-.166c-.192 0-.366.026-.513.077.146-.05.316-.076.513-.078h.148c.492 0 .985.003 1.474.005.258 0 .47.042.638.13m-3.992 0h-.49v-.183h.49v.183m-5.508 0h-.767v-.183h.768v.183m6.726-.057"/><path fill="#94722B" d="M955.808 1028.155h-.224l-.062-.064-.064.065-.065-.064-.064.065h-1.393l-.064-.064-.063.065-.062-.064-.065.065h-.768c.04-.02.084-.04.128-.058.148-.05.322-.076.517-.078h.165c.484 0 .973.003 1.457.005.246 0 .458.042.626.13"/><path fill="#C9A432" d="M956.835 1028.155h-1.03c-.167-.088-.38-.13-.636-.13-.493-.002-.982-.006-1.475-.006h-.148c-.194 0-.366.026-.515.077h-.002c-.042.016-.09.036-.126.058h-.627l-.062-.064-.067.065-.062-.064-.063.065h-.203v-.183h5.02l-.005.183M951.326 1028.155h-.7l-.066-.064-.06.065-.067-.064-.062.065h-.927c.07-.056.125-.118.17-.183h1.717v.183m-3.128 0h-.88l-.063-.064-.063.065-.065-.064-.062.065h-.755v-.183h1.72c.037.055.085.106.137.152.006.012.016.022.03.03"/><path fill="#94722B" d="M949.44 1028.155h-.466l-.065-.064-.063.065-.065-.064-.062.065h-.515c-.014-.01-.022-.02-.036-.03-.057-.046-.103-.098-.14-.152h1.585c-.048.064-.103.127-.174.182"/><path fill="#C9A432" d="M947.127 1038.133l-.305-.305h.26l.114.112-.067.063.066.064-.07.066m-.818-.818l-.026-.026.026-.028v.053M947.08 1037.828h-.258l-.514-.515v-.05l.104-.104.67.668M946.15 1037.157l-.673-.677.064-.064.064.064.067-.064.613.613-.132.127M948.78 1038.133l-.305-.305h.26l.11.112-.064.064.065.064-.064.065"/><path fill="#94722B" d="M948.37 1037.726l-.35-.353.13-.13.346.35c-.033.05-.072.095-.126.133"/><path fill="#C9A432" d="M948.734 1037.828h-.262l-.104-.103c.054-.036.092-.082.126-.134l.24.238M947.513 1036.865v-.26.26"/><path fill="#94722B" d="M947.89 1037.243l-.377-.378v-.26l.507.508-.13.13"/><path fill="#C9A432" d="M947.51 1036.865l-.394-.396.13-.128.27.267c-.003.082-.003.17-.005.255m-.524-.525l-.62-.62.13-.127.62.62-.13.127M946.237 1035.593l-.76-.763.064-.064.064.064.067-.064.638.637v.118l-.07.073"/><path fill="#C9A432" d="M946.308 1035.52v-.117l.06.058-.06.06M950.43 1038.133l-.303-.305h.258l.112.112-.066.064.067.064-.066.065"/><path fill="#94722B" d="M949.963 1037.666l-.287-.29.128-.13.26.26c-.024.06-.06.112-.1.16"/><path fill="#C9A432" d="M950.385 1037.828h-.26l-.162-.162c.04-.048.075-.1.102-.16l.32.322"/><path fill="#94722B" d="M949.544 1037.247l-.493-.496v-.258l.626.625-.132.13"/><path fill="#C9A432" d="M949.05 1036.75l-.205-.202.13-.134.076.078v.26"/><path fill="#94722B" d="M948.597 1036.3l-.646-.648.133-.13.517.52c-.003.084-.003.172-.003.258"/><path fill="#C9A432" d="M948.715 1036.416l-.118-.114v-.262l.248.246-.13.13M947.516 1035.22c.002-.09.002-.174.002-.26 0 .087 0 .17-.002.26"/><path fill="#94722B" d="M947.82 1035.52l-.303-.302v-.26l.435.436-.133.127"/><path fill="#C9A432" d="M947.516 1035.22l-.32-.323.128-.13.192.193c.002.087 0 .17 0 .26m-.455-.454l-.694-.698.127-.13.7.696-.132.132M946.237 1033.938l-.76-.76.064-.066.064.066.067-.066.638.637v.117l-.07.07"/><path fill="#C9A432" d="M946.308 1033.867v-.118l.06.06-.06.057M952.085 1038.133l-.76-.756v-.006l.13-.127.696.697-.065.064.066.064-.065.065"/><path fill="#C9A432" d="M951.326 1037.377l-.002-.004.002-.002v.007m-.134-.134l-.69-.688.133-.13.69.69-.133.128"/><path fill="#94722B" d="M950.125 1036.176l-.453-.456.132-.127.32.322v.26"/><path fill="#C9A432" d="M950.375 1036.426l-.25-.25v-.26l.382.38-.132.13"/><path fill="#94722B" d="M949.542 1035.593l-.49-.492v-.258l.62.62-.13.13"/><path fill="#C9A432" d="M949.053 1035.1l-.27-.266.134-.13.136.138v.26"/><path fill="#94722B" d="M948.597 1034.647l-.577-.58.13-.13.447.448v.262"/><path fill="#C9A432" d="M948.654 1034.704l-.058-.057v-.262l.188.188-.13.13M947.518 1033.566v-.26.26"/><path fill="#94722B" d="M947.89 1033.938l-.37-.372v-.26l.5.504-.13.128"/><path fill="#C9A432" d="M947.518 1033.566l-.323-.324.13-.13.193.195v.26M946.908 1032.926c.042-.034.076-.076.103-.126-.026.05-.06.092-.102.126"/><path fill="#94722B" d="M946.893 1032.943l-.525-.526.13-.13.514.513c-.024.054-.06.096-.1.13-.008.002-.014.006-.02.013"/><path fill="#C9A432" d="M947.06 1033.112l-.167-.17c.006-.007.012-.01.016-.013.04-.035.075-.077.102-.13l.184.185-.135.127M946.237 1032.285l-.76-.758.064-.067.064.067.067-.067.638.64v.115l-.07.07"/><path fill="#C9A432" d="M946.308 1032.215v-.116l.06.056-.06.06M953.737 1038.133l-.76-.76.093-.094h.073l.657.66-.063.064.063.064-.063.065"/><path fill="#C9A432" d="M953.14 1037.28h-.07l.037-.037.034.036m-.294-.037l-.698-.695.132-.134.697.7-.13.13M951.816 1036.214l-.482-.483.13-.126.352.35v.26M952.02 1036.416l-.204-.202v-.26l.33.332-.126.13M951.326 1035.482v-.017l.01.01-.01.007"/><path fill="#C9A432" d="M951.204 1035.604l-.707-.71.13-.128.7.7v.016l-.123.122M950.123 1034.52v-.263.264"/><path fill="#94722B" d="M950.123 1034.52l-.51-.506.135-.128.375.37v.265"/><path fill="#C9A432" d="M950.367 1034.766l-.244-.244v-.26l.374.372-.13.132"/><path fill="#94722B" d="M949.487 1033.885l-.437-.437v-.263l.567.57-.13.13"/><path fill="#C9A432" d="M949.05 1033.448l-.205-.206.13-.13.076.077v.258"/><path fill="#94722B" d="M948.6 1032.994l-.58-.58.13-.13.695.7-.008.005h-.238v.004"/><path fill="#C9A432" d="M948.715 1033.112l-.116-.118v-.005h.237l-.122.122M947.518 1031.916v-.26.26"/><path fill="#94722B" d="M947.89 1032.285l-.37-.37v-.26l.5.5-.13.13m-.663-.66l-.032-.037.05-.05-.018.088"/><path fill="#C9A432" d="M947.518 1031.916l-.29-.29c.003-.028.01-.06.014-.088l.078-.08.196.194c.002.088.002.176.002.264M946.562 1030.957c.003-.032.01-.064.015-.1.008-.038.014-.083.02-.12-.01.04-.014.082-.02.12-.007.034-.013.068-.015.1"/><path fill="#94722B" d="M947.06 1031.46l-.498-.503c.003-.032.01-.064.015-.1.008-.038.014-.08.02-.12l.597.595-.133.128"/><path fill="#C9A432" d="M946.562 1030.957l-.194-.192.13-.13.1.104c-.007.035-.013.08-.02.117-.008.034-.014.068-.016.1M946.237 1030.633l-.76-.76.064-.065.064.066.067-.066.638.636v.118l-.07.07"/><path fill="#C9A432" d="M946.308 1030.562v-.118l.06.06-.06.058M955.39 1038.133l-.764-.756.097-.098h.06l.672.66-.065.064.065.064-.065.065"/><path fill="#C9A432" d="M954.784 1037.28h-.06l.03-.033.03.032"/><path fill="#94722B" d="M954.084 1036.843l-.29-.288.13-.13.186.184c0 .082-.006.162-.026.233"/><path fill="#C9A432" d="M954.496 1037.247l-.412-.404c.02-.068.025-.15.025-.234l.516.508-.13.13M953.02 1035.79c0-.04.003-.077.003-.115 0 .038 0 .078-.002.114"/><path fill="#94722B" d="M953.665 1036.426l-.645-.637v-.115l.072-.075.7.696-.127.13"/><path fill="#C9A432" d="M953.02 1035.79l-.054-.06.057-.056c0 .04 0 .08-.002.115m-.186-.186l-.687-.678.134-.128.686.677-.132.13M951.816 1034.594l-.49-.485v-.045l.11-.108.38.378v.26M952.02 1034.796l-.204-.202v-.26l.33.332-.126.13M951.326 1034.11l-.022-.022.022-.023v.044m-.152-.153l-.747-.74.13-.13.747.738-.13.132M950.123 1032.918v-.26.26"/><path fill="#94722B" d="M950.123 1032.918l-.48-.477.132-.128.35.345c-.002.09-.002.174-.002.26"/><path fill="#C9A432" d="M950.297 1033.09l-.174-.17v-.26l.304.3-.13.13"/><path fill="#94722B" d="M949.516 1032.314l-.7-.696.13-.13.698.694-.128.132m-.83-.824l-.7-.69.127-.133.704.696-.132.127"/><path fill="#C9A432" d="M947.518 1030.334v-.256.256"/><path fill="#94722B" d="M947.854 1030.667l-.336-.333v-.256l.466.463-.13.127m-.38-.377l-.32-.314.132-.13.23.23c-.015.07-.03.142-.043.214"/><path fill="#C9A432" d="M947.518 1030.334l-.045-.044c.01-.072.028-.145.04-.216l.005.004v.256M946.81 1029.633c.01-.048.024-.098.035-.147.008-.02.014-.038.018-.057-.006.016-.014.037-.018.056-.01.05-.025.1-.036.147"/><path fill="#94722B" d="M947.024 1029.848l-.214-.217c.012-.047.023-.097.034-.146.008-.017.016-.038.018-.057l.292.287-.13.134"/><path fill="#C9A432" d="M946.81 1029.633l-.486-.48.13-.13.41.405c-.007.017-.015.038-.02.057-.01.05-.026.1-.035.148M946.193 1029.022l-.716-.71.127-.132.704.7v.03l-.115.112M946.308 1028.91v-.03l.015.013-.015.017M957.042 1038.133l-.762-.76.095-.094h.07l.66.66-.063.064.063.064-.063.065"/><path fill="#C9A432" d="M956.445 1037.28h-.07l.036-.037.035.036"/><path fill="#94722B" d="M955.628 1036.723l-.173-.172.13-.134.053.053v.113c0 .046-.004.094-.01.14"/><path fill="#C9A432" d="M956.15 1037.243l-.522-.52c.006-.045.01-.095.01-.142v-.003-.008-.103l.646.646-.134.13"/><path fill="#94722B" d="M955.325 1036.416l-.698-.696.13-.127.698.693-.13.13m-.764-.887v-.136l.067.066-.066.07m-.455-.334l-.306-.302.13-.13.175.172v.26"/><path fill="#C9A432" d="M954.5 1035.593l-.395-.396v-.26l.455.458v.135l-.06.063M953.022 1034.117v-.06.06"/><path fill="#94722B" d="M953.673 1034.766l-.648-.646v-.062l.103-.098.673.675-.127.13"/><path fill="#C9A432" d="M953.022 1034.117l-.026-.03.026-.03v.06m-.156-.16l-.715-.717.13-.13.716.717-.13.13M951.816 1032.907l-.49-.488v-.083l.088-.09.4.4.002.26m-.504-.5c-.002-.015-.006-.032-.007-.05.002.018.006.034.007.05M952.02 1033.112l-.204-.205v-.258l.33.333-.126.13"/><path fill="#94722B" d="M951.312 1032.407l-.028-.028.02-.023c.003.018.007.034.008.05"/><path fill="#C9A432" d="M951.326 1032.42l-.014-.015c-.002-.015-.006-.032-.007-.05l.02-.017v.08"/><path fill="#94722B" d="M951.154 1032.247l-.657-.657.13-.13.63.63.01.05-.113.107"/><path fill="#C9A432" d="M951.268 1032.14l-.01-.05.026.028-.016.02M950.125 1031.218v-.263.262"/><path fill="#94722B" d="M950.383 1031.445c-.016-.092-.03-.188-.046-.274l.164.16-.117.115m-.258-.227l-.453-.455.132-.13.32.324v.26"/><path fill="#C9A432" d="M950.367 1031.46l-.242-.24v-.26l.212.21c.016.09.03.186.046.275l-.016.015"/><path fill="#94722B" d="M949.542 1030.633l-.697-.697.13-.128.697.694-.13.13m-.827-.824l-.697-.695.13-.134.7.698-.133.13"/><path fill="#C9A432" d="M947.55 1028.642c.063-.02.136-.036.208-.05-.072.013-.143.03-.21.05"/><path fill="#94722B" d="M947.89 1028.982l-.34-.34c.063-.02.136-.037.208-.05l.262.26-.13.13"/><path fill="#C9A432" d="M947.55 1028.642l-.355-.354.062-.065-.062-.064.062-.064.5.5c-.07.01-.142.026-.208.046M958.602 1038.044l-.67-.67.13-.13.67.668-.13.132m-.797-.8l-.7-.696.13-.134.698.7-.128.13m-.827-.828l-.14-.14v-.26l.268.27-.128.13M956.835 1036.274l-.555-.554.13-.127.425.423v.258"/><path fill="#94722B" d="M955.632 1035.074l-.177-.18.13-.13.047.048v.262"/><path fill="#C9A432" d="M956.15 1035.593l-.52-.52c0-.09-.003-.173-.003-.263l.652.648-.13.135"/><path fill="#94722B" d="M955.325 1034.766l-.698-.7.13-.128.698.696-.13.132M954.56 1033.877v-.135l.067.068-.066.067m-.455-.332l-.28-.28.13-.127.15.148v.26"/><path fill="#C9A432" d="M954.5 1033.938l-.395-.394v-.26l.455.455v.136l-.06.062M953.024 1032.467v-.1.1"/><path fill="#94722B" d="M953.693 1033.136l-.67-.67v-.1l.083-.08.72.72-.133.13"/><path fill="#C9A432" d="M953.024 1032.467l-.048-.052.048-.048v.1M952.576 1032.02c.014-.075.025-.15.038-.224-.012.074-.024.148-.038.223"/><path fill="#94722B" d="M952.576 1032.02l-.457-.46.13-.13.364.366-.038.223"/><path fill="#C9A432" d="M952.846 1032.285l-.27-.267c.014-.074.027-.148.038-.223l.362.362-.13.128M951.92 1031.36l.033-.225c-.012.076-.022.15-.032.224m-.104-.104l-.49-.49v-.003l.13-.13.36.364v.26"/><path fill="#94722B" d="M951.987 1031.43l-.066-.07.033-.224.168.164-.133.13"/><path fill="#C9A432" d="M951.92 1031.36l-.103-.105v-.26l.137.14c-.013.076-.023.15-.033.224M951.326 1030.767l-.002-.004h.002v.004M950.976 1030.416c-.016-.104-.036-.208-.052-.31.017.102.036.206.052.31"/><path fill="#94722B" d="M950.976 1030.416l-.48-.48.13-.13.298.3c.017.102.036.206.052.31"/><path fill="#C9A432" d="M951.192 1030.633l-.215-.217c-.018-.104-.036-.208-.052-.31l.4.395-.133.133"/><path fill="#94722B" d="M950.367 1029.808l-.695-.696.13-.13.695.696-.13.13"/><path fill="#C9A432" d="M949.394 1028.576c-.086 0-.174-.004-.26-.004.086.004.174.004.26.004"/><path fill="#94722B" d="M949.542 1028.982l-.41-.408c.09.002.176.002.262.002l.278.276-.13.13"/><path fill="#C9A432" d="M949.394 1028.576c-.088 0-.174-.004-.26-.004l-.203-.204c.07-.007.142-.022.214-.045l.25.253"/><path fill="#94722B" d="M948.93 1028.372l-.085-.085.062-.065-.062-.064.062-.063.236.233c-.07.02-.14.033-.212.044"/><path fill="#C9A432" d="M957.172 1038.133l-.13-.13 1.588-1.587.063.064.067-.064.064.064-1.652 1.653M955.52 1038.133l-.13-.13.725-.724h.26l-.855.853m1.315-1.315v-.26l.97-.966.128.13-1.098 1.096"/><path fill="#C9A432" d="M956.375 1037.28h-.26l.72-.72v.258l-.424.425-.035.036M958.062 1035.593l-.13-.132.698-.694.063.064.067-.064.062.064-.76.763M953.867 1038.133l-.13-.13.725-.724h.26l-.855.853m2.968-2.966v-.26l.14-.142.13.13-.27.272"/><path fill="#94722B" d="M954.807 1037.195c-.052-.036-.098-.082-.134-.13l.96-.958v.26l-.826.828"/><path fill="#C9A432" d="M955.636 1036.366v-.26l1.2-1.198v.26l-1.2 1.198M954.723 1037.28h-.26l.214-.215c.036.048.078.092.132.13l-.087.084M957.236 1034.766l-.13-.132.698-.695.13.128-.698.698m.826-.828l-.13-.128.697-.7.062.065.064-.064.064.065-.758.763M952.215 1038.133l-.13-.13.726-.724h.26l-.855.853"/><path fill="#94722B" d="M953.21 1037.14c-.044-.045-.083-.095-.11-.152l1.004-1.002.004.26-.9.895m1.35-1.35c0-.09.003-.173.003-.26l1.07-1.075v.26l-1.07 1.076"/><path fill="#C9A432" d="M955.63 1034.716v-.26l.522-.518.132.13-.654.648M953.07 1037.28h-.26l.288-.293c.03.058.067.107.112.153l-.14.14M954.107 1036.242v-.26l.453-.453-.002.26-.45.452M956.835 1033.515v-.26l.143-.143.127.13-.27.273M956.41 1033.938l-.13-.127.555-.554v.26l-.424.422M957.236 1033.112l-.13-.13.698-.697.13.13-.698.697m.826-.827l-.13-.13.697-.697.062.065.064-.065.064.065-.758.762M950.56 1038.133l-.13-.13.176-.175h.264l-.31.305m.766-.762v-.26l.49-.49v.26l-.49.49m1.696-1.693v-.262.262"/><path fill="#94722B" d="M953.022 1035.675v-.26l1.083-1.082v.263l-1.083 1.08m1.54-1.54v-.26l.764-.765.13.13-.895.895"/><path fill="#C9A432" d="M951.816 1036.88v-.26l1.204-1.205v.26l-1.204 1.206M954.105 1034.594v-.263l.455-.455v.26l-.455.46M950.87 1037.828h-.263l.717-.715.002-.002v.26l-.002.003-.455.455M955.63 1033.065v-.262.262"/><path fill="#94722B" d="M955.584 1033.112l-.13-.13.176-.18v.263l-.046.047m.692-.7c-.056-.027-.1-.07-.132-.123l.006-.005.126.126"/><path fill="#C9A432" d="M955.63 1033.065v-.262l.52-.515c.03.054.073.096.13.122l.005.004-.655.65M956.825 1031.872c-.008-.042-.016-.086-.022-.13.005.044.014.086.022.13m.01-.01v-.26l.14-.143.13.13-.27.272"/><path fill="#94722B" d="M956.41 1032.285l-.13-.13.503-.503c.006.03.014.06.016.088.008.046.018.09.02.132l-.41.413"/><path fill="#C9A432" d="M956.825 1031.872c-.008-.042-.016-.086-.022-.13-.006-.03-.014-.06-.018-.088l.052-.05v.26l-.012.008M957.236 1031.46l-.13-.13.698-.697.13.13-.698.697m.826-.827l-.13-.13.697-.695.062.062.064-.062.064.062-.758.763M948.91 1038.133l-.13-.13.18-.175h.26l-.31.305m2.416-2.392v-.258l.01-.012.48-.475v.26l-.482.474-.008.01m1.696-1.68v-.26.26"/><path fill="#94722B" d="M953.022 1034.06v-.26l1.083-1.07v.258l-1.083 1.07m1.537-1.52v-.1h-.16l.125-.126.13.13-.096.095"/><path fill="#C9A432" d="M951.816 1035.255v-.26l1.206-1.198v.26l-1.206 1.198M954.107 1032.987v-.258l.29-.293h.16v.1l-.45.45"/><path fill="#94722B" d="M949.3 1037.748c-.053-.038-.095-.078-.13-.13l.955-.95c0 .087 0 .173.002.26l-.827.82"/><path fill="#C9A432" d="M950.13 1036.93c0-.09 0-.175-.003-.262l1.2-1.186v.26l-1.198 1.187M949.218 1037.828h-.263l.216-.21c.035.052.077.09.13.13l-.082.08"/><path fill="#94722B" d="M954.784 1032.314l-.128-.13.7-.694.13.13-.702.694"/><path fill="#C9A432" d="M955.632 1031.474v-.258.258"/><path fill="#94722B" d="M955.615 1031.49l-.128-.127.143-.146v.258l-.015.015m.322-.316l-.038-.223.285-.283.13.132-.378.374"/><path fill="#C9A432" d="M955.632 1031.474v-.258l.267-.265c.015.073.026.147.037.22l-.305.304M956.59 1030.526l-.037-.222c.012.072.024.148.038.222m.245-.244v-.255l.18-.182.13.13-.31.307"/><path fill="#94722B" d="M956.445 1030.667l-.13-.13.24-.233c.012.07.023.145.037.22l-.147.143"/><path fill="#C9A432" d="M956.59 1030.526l-.037-.222.282-.277v.26l-.244.24M957.277 1029.848l-.132-.136.697-.69.134.13-.7.696m.83-.826l-.13-.13.717-.713.13.13-.718.712M947.26 1038.133l-.133-.13.178-.175h.26l-.306.305m4.066-4.068v-.26l.49-.49v.26l-.49.49m1.698-1.698v-.26.26"/><path fill="#94722B" d="M953.024 1032.367v-.26l.646-.647.13.13-.776.777"/><path fill="#C9A432" d="M951.816 1033.576v-.262l1.208-1.206v.26l-1.208 1.208"/><path fill="#94722B" d="M947.7 1037.69c-.045-.043-.08-.095-.108-.15l1.005-1.006c0 .088 0 .172.002.257l-.9.9m1.35-1.348v-.262l1.073-1.07v.257l-1.072 1.075"/><path fill="#C9A432" d="M950.123 1035.267v-.258l1.183-1.183.02-.02v.26l-1.203 1.2M947.563 1037.828h-.26l.29-.288c.03.056.063.107.11.15l-.14.138M948.6 1036.79v-.256l.45-.454v.262l-.45.45"/><path fill="#94722B" d="M953.932 1031.46l-.132-.13.702-.697.127.13-.698.697m.825-.827l-.13-.173.698-.698.13.174-.698.697"/><path fill="#C9A432" d="M955.632 1029.76v-.017c.002-.065 0-.126.026-.194-.026.067-.024.13-.026.193v.017"/><path fill="#94722B" d="M955.584 1029.808l-.13-.13.698-.7.132.135-.597.593c-.01-.052-.018-.105-.03-.158v.002-.002c-.025.07-.025.13-.025.192v.017l-.048.05"/><path fill="#C9A432" d="M955.632 1029.76v-.017c.002-.065 0-.126.026-.194.014.052.02.105.03.157l-.056.053M956.3 1028.872c-.005-.01-.01-.02-.01-.03.005.01.01.02.01.03m.535-.314v-.26l.207-.21.063.065-.063.062.063.067-.27.276"/><path fill="#94722B" d="M956.3 1028.872l-.02-.02.01-.01c.005.01.01.02.01.03"/><path fill="#C9A432" d="M956.41 1028.982l-.11-.11c-.005-.01-.007-.02-.01-.03l.545-.544v.26l-.424.424M945.513 1038.044l-.13-.134.925-.903v.255l-.795.782m2.003-1.966v-.26.26m2.607-2.56v-.258.257m1.183-1.16c-.006-.04-.016-.08-.02-.12.004.04.014.08.02.12m.02-.02v-.255l.49-.482v.257l-.49.48m.523-.513v-.012c.016-.095.033-.194.045-.29l-.044.29v.012"/><path fill="#94722B" d="M951.85 1031.822v-.01c.016-.095.033-.194.045-.29l.92-.902c-.015.103-.036.207-.053.31l-.913.892"/><path fill="#C9A432" d="M951.816 1031.856v-.257l.078-.08-.044.29c0 .004 0 .008-.002.012l-.032.034M952.762 1030.93c.017-.106.038-.21.053-.313l.008-.006.132.13-.193.19"/><path fill="#94722B" d="M947.516 1036.078v-.26l1.08-1.06v.258l-1.08 1.062m1.537-1.51c0-.087 0-.17-.002-.257l1.073-1.05v.254l-1.07 1.053m1.667-1.635c-.05-.036-.09-.09-.112-.15l.658-.643c.005.03.013.06.015.1.01.037.017.08.024.115l-.584.577"/><path fill="#C9A432" d="M951.306 1032.356c-.006-.038-.016-.078-.02-.118-.007-.035-.013-.063-.018-.098l.06-.06v.258l-.022.018M950.123 1033.517v-.257l.488-.48c.022.063.063.115.11.15l-.597.587M946.308 1037.262v-.255l1.208-1.188c-.003.087-.003.173-.003.258l-1.205 1.184M948.597 1035.017v-.257l.454-.448c.003.09.003.172.003.258l-.456.447M953.022 1030.555v-.143.143"/><path fill="#94722B" d="M953.082 1030.612l-.06-.062v-.14l.63-.62.133.133-.703.69"/><path fill="#C9A432" d="M953.022 1030.555l-.068-.072.068-.07v.142"/><path fill="#94722B" d="M953.918 1029.792l-.13-.127.7-.692.13.13-.7.69m.83-.818l-.128-.13.77-.754.064.065-.063.062.064.065-.705.693"/><path fill="#C9A432" d="M945.604 1036.48l-.128-.13.83-.83v.26l-.702.7m1.914-1.91v-.26.26m2.607-2.606v-.26.26m.947-.948c-.013-.074-.024-.15-.04-.223h.002c.014.072.026.148.038.223m.254-.253v-.263l.49-.49v.26l-.49.493"/><path fill="#94722B" d="M952.146 1029.94v-.004.002"/><path fill="#C9A432" d="M951.816 1030.27v-.258l.204-.204.127.128v.003l-.33.33"/><path fill="#94722B" d="M947.518 1034.57v-.26l1.08-1.082v.26l-1.08 1.083m1.533-1.532v-.05h-.213l1.286-1.282c-.002.084-.002.172-.002.26l-1.07 1.072m1.37-1.37c-.015-.072-.025-.148-.04-.223l.654-.652c.014.074.025.15.038.223l-.653.652"/><path fill="#C9A432" d="M951.072 1031.016c-.013-.074-.024-.15-.04-.223l.292-.29.002-.003v.263h-.002l-.252.253M950.125 1031.964v-.26l.258-.26c.012.073.022.15.036.222l-.295.298M946.308 1035.78v-.26l1.21-1.21v.26l-1.21 1.21M948.6 1033.488v-.26l.24-.24h.21v.048l-.45.452"/><path fill="#94722B" d="M952.28 1029.808l-.095-.096c.006-.028.014-.057.018-.085l.645-.645.13.13-.7.696"/><path fill="#C9A432" d="M952.186 1029.712l-.038-.034.056-.05c-.007.027-.013.056-.018.084"/><path fill="#94722B" d="M953.106 1028.982l-.13-.13.76-.76.064.063-.063.065.063.067-.694.695"/><path fill="#C9A432" d="M945.604 1034.83l-.128-.13.83-.833v.26l-.702.703m1.914-1.912v-.263.263m2.607-2.61v-.016c0-.062 0-.126.027-.194-.027.068-.027.133-.027.194v.017m.706-.706l-.01-.072c-.015-.05-.024-.097-.037-.14h.002c.01.043.02.088.034.14l.01.072"/><path fill="#94722B" d="M947.518 1032.918v-.263l.368-.37 2.61-2.607.287-.287c.012.043.022.088.034.14.006.023.01.048.014.074l-.65.652c-.01-.052-.018-.107-.03-.162-.026.07-.024.135-.026.196v.015l-2.606 2.613"/><path fill="#C9A432" d="M950.83 1029.604l-.01-.074c-.015-.048-.024-.095-.037-.14l.41-.407.133.13-.495.49M950.125 1030.31v-.018c0-.062 0-.126.027-.194.01.055.02.108.028.16l-.055.05M946.308 1034.127v-.26l1.21-1.21v.263l-1.21 1.207M951.456 1028.982l-.13-.13v-.003l.49-.493v.26l-.36.365"/><path fill="#C9A432" d="M951.816 1028.618v-.26l.27-.267.06.065-.06.065.06.067-.33.33M951.326 1028.853h-.002l.002-.004v.003M945.604 1033.178l-.128-.13.83-.833v.26l-.702.703m.71-.72c.013-.03.023-.06.027-.093.015-.072.024-.146.037-.217-.013.07-.022.145-.036.217-.002.03-.015.062-.025.094m1.203-1.196v-.257.257m2.625-2.622c-.064-.02-.138-.036-.214-.048.075.01.148.028.213.048"/><path fill="#94722B" d="M946.312 1032.473l.004-.014c.012-.033.022-.063.026-.095.014-.07.023-.146.036-.217l.92-.923-.053.314-.933.933m1.206-1.21v-.256l.336-.34 1.816-1.814.26-.26c.075.013.146.03.213.05l-2.625 2.62"/><path fill="#C9A432" d="M946.308 1032.475v-.26l.06-.06.01-.01c-.012.07-.02.144-.035.218-.004.03-.015.062-.026.092l-.004.016-.005.005m3.835-3.833c-.064-.02-.138-.036-.214-.048l.5-.503.067.065-.066.062.067.065-.354.36M947.243 1031.54c.016-.104.036-.21.054-.314l.22-.22v.258l-.274.276M945.604 1031.527l-.128-.13.83-.835v.26l-.702.705m2.955-2.955h-.262v-.002c.087.002.173.002.26.002"/><path fill="#94722B" d="M946.64 1030.49c.017-.104.034-.21.053-.314l1.605-1.607h.263l-1.92 1.92"/><path fill="#C9A432" d="M946.308 1030.82v-.258l.385-.387c-.02.104-.036.21-.053.314l-.332.33m2.25-2.248l-.26-.002.238-.236c.07.023.143.036.217.04l-.194.198"/><path fill="#94722B" d="M948.755 1028.374c-.072-.006-.146-.017-.217-.04l.243-.243.13.132-.155.152"/><path fill="#C9A432" d="M945.604 1029.874l-.127-.13.83-.834v.26l-.703.704M946.308 1029.17v-.26l.82-.82.066.065.065.065-.952.95M958.693 1036.48l-1.858-1.858v-.26l1.987 1.99-.13.128m-3.062-3.06v-.26.26m-2.608-2.606v-.264.264m-1.206-1.21l-.49-.487v-.264l.49.49v.26"/><path fill="#94722B" d="M955.63 1033.42l-.175-.178c-.595-.595-1.19-1.186-1.784-1.782l-.645-.646v-.262l.062.06c.834.833 1.663 1.666 2.498 2.5l.046.048v.26m-2.814-2.814l-.67-.67c.013-.075.024-.147.04-.225l.672.676-.042.22"/><path fill="#C9A432" d="M952.147 1029.936l-.33-.332v-.26l.366.368-.036.224M956.835 1034.622l-1.207-1.204v-.26l1.205 1.203.002.262M953.022 1030.814l-.208-.21c.016-.072.03-.146.04-.22l.168.166v.264M951.326 1029.112h-.002l-.893-.892.13-.13.766.763v.26M958.693 1034.83l-1.858-1.86v-.263l1.987 1.993-.13.13m-2.215-2.373c.032 0 .062-.004.09-.012-.03.008-.06.012-.09.012m-.845-.688v-.262.26m-3.156-3.16c.028-.06.06-.112.097-.163-.037.053-.07.105-.097.163"/><path fill="#94722B" d="M956.477 1032.457c-.038 0-.08-.006-.12-.016-.027-.006-.054-.014-.078-.03l-.145-.136c-.01-.033-.024-.063-.032-.104-.01-.078-.026-.152-.038-.23l.505.505c-.03.008-.063.012-.093.012m-.845-.69l-.145-.146-2.64-2.637-.37-.372c.028-.056.06-.11.095-.16l.404.403 2.64 2.638.016.02v.258"/><path fill="#C9A432" d="M952.476 1028.608l-.39-.39.13-.13.356.356c-.036.054-.068.106-.096.164M956.835 1032.97l-.56-.56c.025.015.053.024.08.027.04.014.083.018.12.018.03 0 .06-.004.09-.014l.268.267v.263m-.698-.698l-.503-.505v-.26l.433.43c.012.077.023.155.036.23.008.038.02.073.035.105M956.675 1031.02c-.01-.05-.018-.1-.025-.148.005.05.015.1.025.148"/><path fill="#94722B" d="M956.7 1031.188l-.916-.92c-.015-.104-.036-.21-.053-.315l.92.92c.007.05.015.1.024.147.01.055.017.11.027.168"/><path fill="#C9A432" d="M956.835 1031.317l-.134-.132c-.01-.057-.017-.112-.027-.166-.008-.05-.018-.1-.025-.15l.188.186v.26M955.632 1030.116v-.26.26"/><path fill="#94722B" d="M955.632 1030.116l-1.893-1.896.13-.13 1.762 1.768v.258"/><path fill="#C9A432" d="M955.784 1030.267l-.152-.15v-.26l.1.098c.016.103.036.21.052.312M958.693 1033.178l-1.858-1.86v-.262l1.987 1.992-.13.13M956.367 1029.2c-.013-.075-.028-.147-.04-.222-.01-.036-.017-.07-.024-.106l.023.106c.013.075.028.147.04.22"/><path fill="#94722B" d="M956.367 1029.2l-.978-.98.13-.13.78.78c.01.037.016.07.025.107.012.076.03.148.042.222"/><path fill="#C9A432" d="M956.835 1029.665l-.47-.466c-.01-.075-.028-.147-.04-.222-.01-.036-.015-.07-.024-.106l.533.533.002.26"/><path fill="#C9A432" d="M958.693 1031.527l-1.858-1.862v-.26l1.987 1.992-.13.13M958.693 1029.874l-1.65-1.654.13-.13 1.65 1.653-.13.13"/><g><path fill="#C9A432" d="M959.014 1055.64h-13.59v-17.432h13.59v17.432m-.094-.09v-.093.092m-3.526-.095l.066.063.062-.063.066.063.063-.063h1.392l.067.063.06-.063.066.063.065-.063h1.52v-1.52l.067-.066-.067-.065.067-.064-.067-.062v-1.394l.067-.062-.067-.064.067-.065-.067-.064v-1.393l.067-.064-.067-.063.067-.064-.067-.064v-1.394l.067-.063-.067-.062.067-.064-.067-.066v-1.393l.067-.06-.067-.067.067-.063-.067-.062v-1.304l.067-.062-.067-.065v-7.24h-13.21v7.24l-.065.065.065.062v1.304l-.065.062.065.063-.065.066.065.06v1.394l-.065.065.065.063-.065.062.065.063v1.394l-.065.064.065.064-.065.063.065.064v1.392l-.065.063.065.065-.065.064.065.062v1.394l-.065.063.065.065-.065.064.065.064v1.21l-.156.15.13.134.026-.027v.055h1.52l.066.063.064-.063.062.063.065-.063h1.393l.063.063.062-.063.065.063.064-.063h1.394l.062.063.065-.063.062.063.066-.063h1.392l.062.063.065-.063.062.063.066-.063h1.394l.063.063.064-.063.063.063.065-.063h1.416"/><path fill="#C9A432" d="M958.828 1045.542h-1.522l-.063-.066-.064.066-.065-.066-.063.066h-.14v-.185h1.922v.185m-2.956 0c-.168-.09-.38-.13-.64-.13-.483-.002-.97-.006-1.455-.006h-.166c-.194.002-.368.025-.515.076.146-.05.318-.074.515-.076h.148c.492 0 .983.004 1.472.006.26 0 .473.04.64.13m-3.992 0h-.49v-.185h.49v.185m-5.51 0h-.765v-.185h.766v.185m6.727-.06"/><path fill="#94722B" d="M955.876 1045.542h-.222l-.062-.066-.066.066-.063-.066-.066.066h-1.392l-.062-.066-.064.066-.064-.066-.062.066h-.77c.04-.022.085-.042.13-.06.147-.05.32-.074.514-.076h.168c.483 0 .97.004 1.454.006.248 0 .46.04.626.13"/><path fill="#C9A432" d="M956.903 1045.542h-1.027c-.168-.09-.38-.13-.64-.13-.488-.002-.978-.006-1.47-.006h-.15c-.195.002-.367.025-.516.076h-.002c-.042.016-.088.037-.126.06h-.625l-.064-.066-.064.066-.064-.066-.064.066h-.204v-.185h5.02l-.005.185M951.395 1045.542h-.7l-.063-.066-.062.066-.066-.066-.063.066h-.925c.068-.058.124-.118.172-.185h1.713v.185m-3.13 0h-.875l-.067-.066-.06.066-.068-.066-.062.066h-.755v-.185h1.722c.036.055.085.106.137.152.006.01.018.02.03.032"/><path fill="#94722B" d="M949.512 1045.542h-.47l-.062-.066-.062.066-.064-.066-.063.066h-.514c-.015-.012-.022-.02-.038-.032-.053-.046-.1-.098-.137-.152h1.587c-.05.066-.107.126-.175.184"/><path fill="#C9A432" d="M947.197 1055.52l-.307-.307h.26l.114.112-.065.063.064.064-.067.067m-.82-.82l-.027-.026.026-.026v.052"/><path fill="#C9A432" d="M947.15 1055.213h-.26l-.514-.515v-.05l.107-.104.667.67M946.22 1054.542l-.675-.677.065-.062.065.062.064-.062.612.613-.132.126M948.85 1055.52l-.305-.307h.258l.112.112-.064.064.065.065-.064.064"/><path fill="#94722B" d="M948.44 1055.11l-.353-.35.132-.133.346.35c-.032.05-.072.097-.126.133"/><path fill="#C9A432" d="M948.803 1055.213h-.26l-.106-.103c.054-.036.094-.082.128-.134l.238.237M947.58 1054.25v-.257.258"/><path fill="#94722B" d="M947.96 1054.628l-.38-.377v-.257l.508.505-.128.13"/><path fill="#C9A432" d="M947.58 1054.25l-.394-.395.13-.128.27.27c-.005.08-.005.168-.005.254m-.523-.525l-.62-.617.128-.13.624.62-.133.127M946.306 1052.978l-.76-.763.064-.063.065.063.064-.063.636.637v.117l-.07.07M946.376 1052.907v-.118l.062.058-.062.06M950.5 1055.52l-.304-.307h.26l.11.112-.065.064.067.065-.066.064"/><path fill="#94722B" d="M950.034 1055.05l-.29-.288.13-.13.26.26c-.024.06-.058.114-.1.16"/><path fill="#C9A432" d="M950.455 1055.213h-.26l-.163-.162c.042-.044.076-.098.1-.16l.323.323"/><path fill="#94722B" d="M949.614 1054.632l-.493-.495v-.26l.624.625-.13.13"/><path fill="#C9A432" d="M949.12 1054.137l-.205-.204.128-.132.078.077v.26"/><path fill="#94722B" d="M948.667 1053.687l-.646-.648.132-.13.515.518v.26"/><path fill="#C9A432" d="M948.785 1053.803l-.118-.114v-.263l.248.246-.13.13M947.587 1052.604c.002-.086.002-.173.002-.26 0 .09 0 .174-.003.26"/><path fill="#94722B" d="M947.89 1052.907l-.3-.304v-.26l.434.436-.134.127"/><path fill="#C9A432" d="M947.587 1052.604l-.322-.322.128-.13.194.193c.002.088 0 .173 0 .26m-.456-.453l-.696-.7.13-.13.7.696-.133.134M946.306 1051.323l-.76-.76.064-.065.065.066.064-.066.636.638v.116l-.07.07M946.376 1051.252v-.116l.062.06-.062.056M952.153 1055.52l-.757-.758v-.004l.128-.13.698.697-.07.064.07.065-.07.064M951.395 1054.762l-.002-.002.002-.002v.004m-.13-.134l-.69-.688.13-.13.69.69-.13.128"/><path fill="#94722B" d="M950.196 1053.56l-.456-.452.132-.13.322.322.002.26"/><path fill="#C9A432" d="M950.445 1053.81l-.25-.25v-.26l.38.38-.13.13"/><path fill="#94722B" d="M949.61 1052.978l-.487-.49v-.26l.617.62-.13.13"/><path fill="#C9A432" d="M949.123 1052.487l-.27-.27.132-.127.138.136v.26"/><path fill="#94722B" d="M948.667 1052.032l-.58-.58.133-.13.447.448v.262"/><path fill="#C9A432" d="M948.725 1052.09l-.06-.058c.002-.088.002-.174.002-.262l.188.19-.13.13M947.59 1050.953v-.26.26"/><path fill="#94722B" d="M947.96 1051.323l-.37-.37v-.26l.498.502-.128.128"/><path fill="#C9A432" d="M947.59 1050.953l-.325-.326.128-.13.196.195v.26M946.98 1050.31c.04-.03.075-.075.102-.125-.027.05-.06.093-.103.126"/><path fill="#94722B" d="M946.96 1050.328l-.522-.524.127-.132.517.515c-.024.052-.06.096-.1.128-.01 0-.015.005-.02.013"/><path fill="#C9A432" d="M947.13 1050.498l-.17-.172c.007-.006.013-.01.02-.012.04-.032.075-.076.102-.128l.184.184-.135.128M946.306 1049.67l-.76-.758.064-.065.065.065.064-.065.636.636v.117l-.07.07M946.376 1049.6v-.117l.062.058-.062.06M953.806 1055.52l-.76-.76.095-.096h.07l.66.66-.064.065.065.065-.064.064M953.21 1054.664h-.07l.037-.036.034.036m-.296-.036l-.695-.695.128-.132.698.698-.132.13M951.885 1053.6l-.48-.482.13-.13.35.352v.26M952.09 1053.803l-.205-.204v-.26l.334.333-.13.13M951.395 1052.867v-.015l.01.007-.01.007"/><path fill="#C9A432" d="M951.274 1052.99l-.707-.71.128-.128.7.7v.015l-.12.122M950.192 1051.906v-.26.26"/><path fill="#94722B" d="M950.192 1051.906l-.507-.507.133-.13.374.375v.26"/><path fill="#C9A432" d="M950.438 1052.152l-.245-.244v-.262l.375.372-.13.134"/><path fill="#94722B" d="M949.556 1051.27l-.435-.437v-.261l.57.57-.134.13"/><path fill="#C9A432" d="M949.12 1050.833l-.205-.206.128-.13.078.077v.258"/><path fill="#94722B" d="M948.667 1050.38l-.58-.578.133-.132.695.7-.008.006h-.24v.005"/><path fill="#C9A432" d="M948.785 1050.498l-.118-.117v-.004h.24l-.122.122M947.59 1049.3v-.26.26"/><path fill="#94722B" d="M947.96 1049.67l-.37-.37v-.26l.498.5-.128.13m-.663-.66l-.032-.037.048-.05c-.004.03-.012.06-.016.088"/><path fill="#C9A432" d="M947.59 1049.3l-.295-.29c.006-.027.012-.058.016-.087l.08-.078.195.194c.004.087.004.175.004.26M946.63 1048.342c.004-.03.012-.064.017-.1.008-.037.014-.08.02-.12-.01.04-.014.083-.02.12-.005.035-.013.07-.017.1"/><path fill="#94722B" d="M947.13 1048.847l-.5-.505c.004-.03.012-.064.017-.1.008-.037.014-.08.02-.12l.597.596-.133.13"/><path fill="#C9A432" d="M946.63 1048.342l-.192-.192.127-.13.104.104c-.01.038-.015.082-.02.12-.008.033-.016.068-.02.098M946.306 1048.018l-.76-.758.064-.068.065.068.064-.068.636.64v.117l-.07.068M946.376 1047.95v-.12l.062.06-.062.06M955.46 1055.52l-.764-.758.095-.098h.064l.67.66-.064.065.065.065-.065.064M954.854 1054.664h-.063l.036-.032.028.032"/><path fill="#94722B" d="M954.154 1054.228l-.29-.288.13-.13.186.186c-.002.08-.008.16-.026.232"/><path fill="#C9A432" d="M954.566 1054.632l-.412-.404c.018-.068.023-.15.025-.232l.516.507-.13.13M953.09 1053.174c0-.038.003-.074.003-.114 0 .04 0 .078-.002.114"/><path fill="#94722B" d="M953.735 1053.81l-.646-.636v-.114l.072-.074.7.695-.127.13"/><path fill="#C9A432" d="M953.09 1053.174l-.056-.06.06-.055c0 .04 0 .078-.003.114m-.186-.185l-.686-.678.13-.13.686.677-.13.13M951.885 1051.98l-.49-.484v-.046l.11-.106.38.378v.257M952.09 1052.18l-.205-.2v-.258l.334.33-.13.13M951.395 1051.496l-.02-.022.02-.02v.042m-.15-.152l-.748-.74.13-.13.747.737-.13.134M950.192 1050.303v-.26.26"/><path fill="#94722B" d="M950.192 1050.303l-.48-.475.13-.13.35.344v.26"/><path fill="#C9A432" d="M950.367 1050.475l-.175-.17v-.26l.305.302-.13.128"/><path fill="#94722B" d="M949.586 1049.7l-.7-.697.13-.13.698.696-.128.13m-.83-.822l-.702-.694.13-.13.7.694-.13.13"/><path fill="#C9A432" d="M947.59 1047.72v-.257.258"/><path fill="#94722B" d="M947.924 1048.054l-.335-.333v-.257l.462.464-.128.127m-.38-.377l-.32-.316.13-.13.23.23c-.013.072-.03.143-.04.217"/><path fill="#C9A432" d="M947.59 1047.72l-.047-.043c.01-.074.028-.145.038-.218l.01.003v.256M946.88 1047.018c.01-.048.022-.098.036-.147.006-.018.01-.037.015-.056-.003.017-.01.038-.014.057-.014.05-.027.1-.036.148"/><path fill="#94722B" d="M947.093 1047.232l-.213-.217c.01-.048.022-.096.036-.147.006-.017.013-.038.015-.057l.295.29-.132.132"/><path fill="#C9A432" d="M946.88 1047.018l-.486-.48.13-.13.407.405c-.003.017-.01.038-.014.057-.014.05-.027.1-.036.148M946.264 1046.41l-.72-.714.13-.13.702.7v.03l-.112.113M946.376 1046.295v-.03l.018.014-.018.015M957.11 1055.52l-.76-.76.095-.096h.07l.66.66-.064.065.066.065-.065.064M956.515 1054.664h-.07l.035-.036.035.036"/><path fill="#94722B" d="M955.698 1054.107l-.173-.17.13-.135.053.052v.113c0 .048-.004.095-.01.14"/><path fill="#C9A432" d="M956.22 1054.628l-.52-.52c.005-.043.01-.092.01-.142v-.004-.008-.1l.644.645-.133.128"/><path fill="#94722B" d="M955.394 1053.803l-.695-.695.127-.13.7.695-.133.13m-.765-.887v-.137l.068.067-.07.07m-.454-.336l-.303-.3.13-.128.174.17v.26"/><path fill="#C9A432" d="M954.57 1052.978l-.396-.396v-.258l.455.456v.137l-.06.06M953.093 1051.504v-.062.062"/><path fill="#94722B" d="M953.743 1052.152l-.648-.648v-.062l.104-.098.672.675-.13.132"/><path fill="#C9A432" d="M953.093 1051.504l-.028-.032.028-.03v.062m-.158-.16l-.713-.72.126-.128.72.716-.133.132M951.885 1050.294l-.49-.49v-.082l.09-.088.4.398v.262m-.503-.502c-.002-.015-.004-.032-.008-.05.004.018.006.035.008.05M952.09 1050.498l-.205-.204v-.26l.334.336-.13.128"/><path fill="#94722B" d="M951.382 1049.792l-.027-.028.02-.022.007.05"/><path fill="#C9A432" d="M951.395 1049.804l-.013-.012c-.002-.015-.004-.034-.008-.05l.02-.02v.082"/><path fill="#94722B" d="M951.226 1049.634l-.658-.66.128-.127.63.63c.005.017.01.032.013.047l-.114.11"/><path fill="#C9A432" d="M951.338 1049.523l-.012-.048.028.03-.016.018M950.194 1048.604v-.262.262"/><path fill="#94722B" d="M950.453 1048.832l-.046-.276.162.16-.117.116m-.26-.228l-.453-.454.132-.132.322.324v.262"/><path fill="#C9A432" d="M950.438 1048.847l-.243-.242v-.26l.213.21c.014.092.03.188.046.277l-.016.015"/><path fill="#94722B" d="M949.61 1048.018l-.695-.695.128-.13.697.696-.13.128m-.825-.826l-.7-.695.133-.132.7.697-.133.13"/><path fill="#C9A432" d="M947.62 1046.026c.06-.02.134-.036.21-.048-.076.012-.146.03-.21.048"/><path fill="#94722B" d="M947.96 1046.367l-.34-.34c.06-.02.134-.037.21-.05l.258.26-.128.13"/><path fill="#C9A432" d="M947.62 1046.026l-.355-.354.062-.063-.062-.065.062-.064.5.5c-.073.01-.143.027-.208.046M958.672 1055.43l-.67-.67.13-.132.67.67-.13.13m-.8-.8l-.698-.695.132-.132.697.698-.13.13m-.827-.825l-.14-.14v-.26l.27.27-.13.13M956.903 1053.662l-.552-.555.13-.13.423.423v.262"/><path fill="#94722B" d="M955.702 1052.46l-.177-.18.13-.128.047.046v.263"/><path fill="#C9A432" d="M956.22 1052.978l-.52-.52-.002-.262.65.65-.127.132"/><path fill="#94722B" d="M955.394 1052.152l-.696-.7.128-.13.7.697-.132.132M954.63 1051.264v-.137l.068.068-.07.07m-.454-.334l-.28-.28.132-.127.148.148v.26"/><path fill="#C9A432" d="M954.57 1051.323l-.396-.393v-.26l.455.454v.137l-.06.063M953.095 1049.852v-.1.1"/><path fill="#94722B" d="M953.764 1050.52l-.67-.668v-.1l.083-.082.717.723-.13.128"/><path fill="#C9A432" d="M953.095 1049.852l-.05-.05.05-.05v.1M952.646 1049.403c.013-.074.024-.148.038-.223-.014.075-.026.15-.038.223"/><path fill="#94722B" d="M952.646 1049.403l-.458-.46.132-.127.366.364c-.016.075-.028.147-.04.223"/><path fill="#C9A432" d="M952.914 1049.67l-.267-.267c.01-.074.024-.148.038-.223l.36.362-.13.128M951.99 1048.744l.033-.223-.032.224m-.105-.102l-.49-.488v-.006l.13-.13.36.364v.26"/><path fill="#94722B" d="M952.06 1048.814l-.068-.07c.01-.074.02-.148.032-.223l.168.164-.133.13"/><path fill="#C9A432" d="M951.99 1048.744l-.105-.103v-.26l.14.14c-.012.076-.024.15-.034.224M951.395 1048.153l-.002-.004.002-.003v.006M951.046 1047.8c-.017-.103-.038-.207-.054-.31l.054.31"/><path fill="#94722B" d="M951.046 1047.8l-.48-.478.13-.13.296.298.054.31"/><path fill="#C9A432" d="M951.264 1048.018l-.216-.217c-.017-.103-.038-.207-.054-.31l.4.398-.13.13"/><path fill="#94722B" d="M950.438 1047.192l-.698-.695.132-.13.695.695-.13.13"/><path fill="#C9A432" d="M949.464 1045.96c-.088 0-.175 0-.26-.003h-.003c.09.004.178.004.264.004"/><path fill="#94722B" d="M949.61 1046.367l-.407-.408c.088.003.175.003.26.003l.277.274-.13.13"/><path fill="#C9A432" d="M949.464 1045.96c-.09 0-.175 0-.263-.003l-.2-.2c.07-.01.142-.026.213-.05l.25.254"/><path fill="#94722B" d="M949 1045.758l-.085-.086.062-.063-.062-.065.062-.064.235.235c-.068.02-.14.033-.21.043"/><path fill="#C9A432" d="M957.242 1055.52l-.13-.13 1.587-1.587.064.062.064-.062.066.062-1.652 1.654M955.588 1055.52l-.128-.13.723-.726h.263l-.858.855m1.315-1.315v-.262l.97-.966.13.13-1.1 1.098"/><path fill="#C9A432" d="M956.445 1054.664h-.26l.718-.72v.26l-.423.424-.035.036M958.133 1052.978l-.13-.13.696-.696.064.063.064-.063.064.063-.76.763M953.936 1055.52l-.13-.13.727-.726h.257l-.854.855m2.967-2.967v-.26l.14-.14.13.128-.27.273"/><path fill="#94722B" d="M954.877 1054.582c-.053-.038-.097-.084-.133-.13l.96-.96v.26l-.827.83"/><path fill="#C9A432" d="M955.706 1053.75v-.258l1.2-1.2v.26l-1.2 1.2M954.79 1054.664h-.256l.214-.213c.034.048.078.092.13.132l-.087.082M957.306 1052.152l-.13-.134.7-.695.13.13-.7.7m.827-.83l-.13-.128.696-.7.063.067.062-.066.065.066-.757.76M952.283 1055.52l-.13-.13.727-.726h.26l-.857.855"/><path fill="#94722B" d="M953.278 1054.525c-.044-.046-.08-.094-.11-.15l1.006-1.005c0 .088 0 .17.002.26l-.898.895m1.35-1.35v-.26l1.072-1.075v.26l-1.07 1.076"/><path fill="#C9A432" d="M955.7 1052.103v-.26l.522-.52.13.13-.652.65M953.14 1054.664h-.26l.29-.29c.03.058.064.105.112.15l-.14.14M954.178 1053.63c0-.092 0-.176-.002-.264l.453-.45v.26l-.452.453M956.903 1050.9v-.26l.143-.142.13.13-.273.27M956.48 1051.323l-.13-.128.553-.554v.26l-.423.423M957.306 1050.498l-.13-.128.7-.7.13.132-.7.696m.827-.828l-.13-.13.696-.695.063.063.062-.063.065.063-.757.762M950.63 1055.52l-.13-.13.176-.177h.262l-.307.306m.766-.762v-.262l.488-.49v.26l-.488.492m1.697-1.696v-.262.262"/><path fill="#94722B" d="M953.093 1053.062v-.262l1.08-1.082v.263l-1.08 1.082m1.536-1.54v-.263l.764-.765.132.13-.897.896"/><path fill="#C9A432" d="M951.885 1054.266v-.26l1.206-1.206v.262l-1.205 1.204M954.174 1051.98v-.262l.455-.458v.262l-.456.457M950.938 1055.213h-.26l.715-.715.002-.002v.262l-.002.002-.455.453M955.7 1050.45v-.26.26"/><path fill="#94722B" d="M955.654 1050.498l-.13-.128.176-.18v.26l-.046.048m.69-.7c-.055-.028-.096-.07-.13-.124l.007-.004.125.128"/><path fill="#C9A432" d="M955.7 1050.45v-.26l.52-.517c.03.054.07.096.127.124l.006.004-.653.65M956.894 1049.26c-.006-.043-.013-.09-.022-.133.005.044.016.088.022.132m.01-.01v-.264l.14-.14.13.128-.27.275"/><path fill="#94722B" d="M956.48 1049.67l-.13-.13.503-.5c.006.026.012.057.016.087.007.044.016.088.02.13l-.41.413"/><path fill="#C9A432" d="M956.894 1049.26c-.006-.043-.013-.09-.022-.133l-.016-.086.05-.052v.263l-.012.01M957.306 1048.847l-.13-.13.7-.7.13.133-.7.697m.827-.83l-.13-.128.696-.697.063.065.062-.065.065.065-.757.76M948.98 1055.52l-.13-.13.177-.177h.262l-.31.306m2.415-2.394v-.26l.01-.01.48-.476v.26l-.48.474-.01.012m1.698-1.683v-.258.258"/><path fill="#94722B" d="M953.093 1051.443v-.258l1.08-1.07v.26l-1.08 1.068m1.536-1.52v-.1h-.162l.127-.126.13.13-.096.095"/><path fill="#C9A432" d="M951.885 1052.64v-.26l1.208-1.196v.258l-1.208 1.198M954.176 1050.374v-.26l.29-.29h.163v.098l-.454.452"/><path fill="#94722B" d="M949.37 1055.133c-.053-.038-.097-.078-.13-.127l.954-.95c.002.084.002.17.002.258l-.825.82"/><path fill="#C9A432" d="M950.2 1054.313l-.004-.26 1.2-1.187v.26l-1.196 1.187M949.287 1055.213h-.262l.214-.207c.033.05.077.087.13.127l-.083.08"/><path fill="#94722B" d="M954.854 1049.7l-.127-.13.7-.694.13.13-.703.693"/><path fill="#C9A432" d="M955.702 1048.86v-.26.26"/><path fill="#94722B" d="M955.686 1048.878l-.13-.13.145-.145v.26l-.014.015m.32-.318c-.014-.075-.025-.147-.036-.224l.283-.282.132.13-.38.376"/><path fill="#C9A432" d="M955.702 1048.86v-.26l.268-.265c.013.072.024.148.036.22l-.304.305M956.66 1047.91c-.015-.073-.023-.15-.037-.22.014.07.023.147.038.22m.243-.24v-.258l.18-.182.133.13-.313.31"/><path fill="#94722B" d="M956.515 1048.054l-.13-.13.242-.233c.012.07.022.146.034.222l-.145.142"/><path fill="#C9A432" d="M956.66 1047.91c-.015-.073-.023-.145-.037-.22l.28-.278v.26l-.242.24M957.346 1047.232l-.13-.133.697-.693.132.13-.7.695m.832-.823l-.132-.13.72-.714.127.13-.715.713M947.327 1055.52l-.13-.13.176-.177h.26l-.306.306m4.07-4.07v-.257l.487-.494v.26l-.488.49m1.7-1.698v-.26.26"/><path fill="#94722B" d="M953.095 1049.752v-.26l.646-.647.13.13-.775.777"/><path fill="#C9A432" d="M951.885 1050.963v-.264l1.208-1.207v.26l-1.208 1.21"/><path fill="#94722B" d="M947.77 1055.078c-.045-.046-.08-.098-.107-.152l1.004-1.007v.258l-.896.9m1.35-1.35v-.263l1.072-1.07v.26l-1.07 1.072"/><path fill="#C9A432" d="M950.192 1052.653v-.26l1.182-1.182.022-.018v.26l-1.204 1.2M947.634 1055.213h-.26l.29-.287c.027.055.063.106.11.152l-.14.135M948.67 1054.178c-.003-.085-.003-.17-.003-.26l.454-.453v.262l-.45.45"/><path fill="#94722B" d="M954 1048.847l-.13-.13.7-.7.128.133-.698.697m.826-.83l-.128-.172.695-.696.132.173-.7.695"/><path fill="#C9A432" d="M955.702 1047.145v-.017c.002-.063 0-.126.027-.194-.028.068-.026.133-.028.194v.017"/><path fill="#94722B" d="M955.654 1047.192l-.13-.13.698-.697.13.132-.597.595c-.01-.054-.018-.105-.026-.158-.028.068-.028.13-.028.192v.015l-.048.052"/><path fill="#C9A432" d="M955.702 1047.145v-.017c.002-.063 0-.126.027-.194.01.053.016.106.025.16l-.053.05M956.37 1046.257l-.012-.03c.006.008.01.02.01.03m.535-.313v-.262l.208-.21.063.067-.062.06.063.067-.27.277"/><path fill="#94722B" d="M956.37 1046.257l-.02-.02.01-.01c.004.008.007.02.01.03"/><path fill="#C9A432" d="M956.48 1046.367l-.11-.11-.012-.03.545-.544v.262l-.423.422M945.583 1055.43l-.13-.135.923-.903v.258l-.793.78m2.002-1.965v-.26h.002l-.002.26m2.607-2.564v-.256.257m1.182-1.16c-.006-.035-.016-.077-.02-.115.004.038.014.08.02.116m.02-.018v-.255l.49-.482v.257l-.49.48m.525-.51v-.013c.017-.098.03-.197.043-.292-.012.095-.026.194-.044.29v.013"/><path fill="#94722B" d="M951.92 1049.21v-.01c.017-.098.03-.197.043-.292l.923-.903c-.018.103-.038.207-.054.31l-.913.894"/><path fill="#C9A432" d="M951.885 1049.24v-.256l.078-.08c-.014.097-.026.196-.044.293v.012l-.035.03M952.832 1048.313c.016-.104.036-.206.054-.312l.007-.005.132.13-.193.188"/><path fill="#94722B" d="M947.585 1053.465c0-.087 0-.173.002-.26l1.08-1.06c-.002.085-.002.17-.002.256l-1.08 1.065m1.538-1.51c0-.09 0-.173-.002-.26l1.072-1.05v.254l-1.07 1.054m1.667-1.638c-.053-.034-.09-.088-.112-.15l.656-.643c.006.032.015.065.017.1.01.038.015.082.022.116l-.583.576"/><path fill="#C9A432" d="M951.374 1049.74c-.006-.035-.016-.077-.02-.115-.005-.036-.012-.065-.016-.1l.06-.06v.258l-.024.018M950.192 1050.9v-.256l.49-.48c.02.063.06.117.108.15l-.598.587M946.376 1054.647v-.256l1.21-1.187c-.005.088-.005.174-.005.26l-1.204 1.184M948.665 1052.4v-.256l.456-.448c.003.09.003.172.003.26l-.458.445M953.093 1047.94v-.144.143"/><path fill="#94722B" d="M953.152 1047.997l-.06-.062v-.14l.63-.62.13.133-.7.69"/><path fill="#C9A432" d="M953.093 1047.94l-.068-.07.068-.073v.142"/><path fill="#94722B" d="M953.99 1047.18l-.13-.13.696-.69.132.128-.7.692m.83-.82l-.128-.13.77-.755.064.066-.063.063.064.063-.706.693"/><path fill="#C9A432" d="M945.675 1053.865l-.13-.13.83-.828v.257l-.7.7m1.914-1.908v-.26.26m2.604-2.607v-.26.26m.948-.95c-.012-.074-.023-.148-.038-.223.014.075.026.15.038.224m.253-.253v-.26l.49-.493v.26l-.49.493"/><path fill="#94722B" d="M952.217 1047.326l.002-.004-.003.004"/><path fill="#C9A432" d="M951.885 1047.657v-.26l.204-.205.13.13-.003.004-.332.33"/><path fill="#94722B" d="M947.59 1051.956v-.26l1.075-1.082v.26l-1.076 1.082m1.53-1.533v-.047h-.213l1.285-1.285v.26l-1.07 1.073m1.367-1.368c-.014-.074-.025-.15-.04-.223l.653-.654c.015.076.024.15.038.224l-.65.653"/><path fill="#C9A432" d="M951.142 1048.4c-.012-.074-.023-.148-.038-.223l.29-.29v.262l-.252.25M950.194 1049.35v-.26l.26-.258c.01.07.022.146.035.22l-.296.297M946.376 1053.164v-.257l1.213-1.21v.26l-1.214 1.207M948.667 1050.875v-.26l.24-.24h.214v.047l-.453.453"/><path fill="#94722B" d="M952.348 1047.192l-.093-.093c.007-.03.013-.06.017-.09l.645-.644.13.13-.7.696"/><path fill="#C9A432" d="M952.255 1047.1l-.036-.037.052-.05-.017.087"/><path fill="#94722B" d="M953.177 1046.367l-.13-.13.76-.76.064.065-.064.062.065.068-.693.695"/><path fill="#C9A432" d="M945.675 1052.215l-.13-.13.83-.833v.262l-.7.7m1.914-1.91v-.264.263m2.606-2.61v-.015c0-.063 0-.128.024-.196-.024.068-.024.133-.024.196v.015m.705-.705c-.003-.024-.01-.047-.01-.072-.015-.05-.023-.097-.037-.14h.002c.012.043.02.09.034.14.002.025.007.048.01.072"/><path fill="#94722B" d="M947.59 1050.303v-.263l.366-.37 2.61-2.607.287-.287c.012.042.022.088.034.14.004.024.01.05.012.073l-.65.65c-.012-.05-.02-.104-.03-.16-.027.07-.025.135-.027.197v.016l-2.604 2.61"/><path fill="#C9A432" d="M950.9 1046.988c-.003-.024-.01-.047-.01-.072-.015-.05-.023-.097-.037-.14l.41-.41.13.13-.492.492M950.196 1047.693v-.015c0-.063 0-.128.024-.196.012.055.02.108.028.162l-.052.05M946.376 1051.514v-.262l1.213-1.21v.263l-1.214 1.21M951.524 1046.367l-.13-.13v-.004l.49-.49v.262l-.36.362"/><path fill="#C9A432" d="M951.885 1046.005v-.26l.268-.27.066.067-.067.062.066.068-.335.333M951.395 1046.237h-.002l.002-.004v.004M945.675 1050.564l-.13-.132.83-.833v.26l-.7.704m.71-.72c.013-.032.023-.062.027-.094.014-.072.02-.145.036-.217-.015.072-.022.145-.036.217-.004.03-.018.063-.028.094m1.205-1.194v-.26.26m2.62-2.624c-.063-.02-.134-.036-.212-.048.078.012.148.03.213.048"/><path fill="#94722B" d="M946.38 1049.857c.002-.002.002-.01.004-.014.014-.03.024-.062.028-.094.014-.07.02-.146.036-.218l.92-.92-.054.313-.934.932m1.21-1.207v-.26l.334-.337c.606-.604 1.21-1.212 1.816-1.816l.258-.26c.078.015.146.03.213.05l-2.62 2.623"/><path fill="#C9A432" d="M946.376 1049.86v-.26l.062-.06.01-.01c-.014.072-.02.143-.035.218-.004.032-.015.062-.028.09-.002.007-.002.015-.004.017l-.004.004m3.835-3.834c-.063-.02-.134-.036-.212-.048l.503-.503.065.066-.064.063.065.063-.354.36M947.312 1048.925c.015-.103.036-.21.053-.314l.224-.218v.26l-.278.273M945.675 1048.912l-.13-.13.83-.833v.257l-.7.705m2.952-2.955h-.26v-.002c.087.002.174.002.26.002"/><path fill="#94722B" d="M946.708 1047.877c.02-.104.034-.21.054-.316l1.606-1.604h.263l-1.922 1.92"/><path fill="#C9A432" d="M946.376 1048.207v-.258l.386-.39c-.02.106-.035.212-.054.316l-.332.33m2.253-2.25h-.264l.238-.237c.07.022.145.036.217.04l-.19.197"/><path fill="#94722B" d="M948.825 1045.76c-.074-.004-.148-.018-.22-.04l.245-.244.13.133-.155.15"/><path fill="#C9A432" d="M945.675 1047.26l-.13-.13.83-.835v.26l-.7.705M946.376 1046.556v-.26l.82-.82.07.066.06.062-.95.952M958.764 1053.865l-1.86-1.858v-.26l1.988 1.99-.128.128m-3.064-3.06v-.26.26m-2.607-2.606v-.265.264m-1.208-1.212l-.49-.487v-.263l.49.492v.258"/><path fill="#94722B" d="M955.7 1050.805l-.175-.178-1.784-1.78-.647-.647v-.262l.062.06c.835.833 1.664 1.666 2.5 2.5l.046.048v.26m-2.814-2.815l-.667-.668c.01-.076.02-.148.035-.223l.673.672-.042.22"/><path fill="#C9A432" d="M952.22 1047.322l-.335-.334v-.26l.37.37c-.014.076-.026.148-.036.224M956.903 1052.007l-1.205-1.202v-.262l1.205 1.205v.26M953.093 1048.2l-.207-.21c.015-.07.026-.146.04-.218l.167.163v.264M951.395 1046.5l-.002-.003-.892-.893.13-.128.765.76v.263M958.764 1052.215l-1.86-1.86v-.26l1.988 1.99-.128.13m-2.217-2.373c.03 0 .062-.004.092-.012v.002c-.033.006-.063.01-.093.01m-.845-.688v-.262.262m-3.158-3.16c.028-.058.063-.113.098-.162-.035.05-.07.105-.098.163"/><path fill="#94722B" d="M956.547 1049.842c-.038 0-.082-.006-.12-.015-.028-.008-.056-.016-.08-.03l-.14-.138c-.015-.03-.026-.064-.034-.105l-.04-.23.508.506c-.03.008-.063.012-.093.012m-.845-.69l-.146-.146-2.64-2.64-.37-.37c.03-.06.062-.114.098-.163l.403.403 2.64 2.64.016.016v.26"/><path fill="#C9A432" d="M952.544 1045.995l-.39-.39.13-.132.357.358c-.033.053-.068.107-.096.165M956.903 1050.354l-.56-.557c.025.014.053.02.08.027.04.01.083.015.12.015.033 0 .063-.005.093-.014l.267.267v.26m-.7-.696l-.5-.505v-.26l.43.43.037.23c.007.04.018.075.034.105M956.743 1048.405l-.024-.15c.004.053.015.1.023.15"/><path fill="#94722B" d="M956.77 1048.572l-.915-.918c-.015-.105-.038-.212-.055-.315l.92.916.023.15c.01.054.02.11.027.166"/><path fill="#C9A432" d="M956.903 1048.702l-.134-.132c-.01-.057-.018-.11-.03-.165-.005-.05-.017-.098-.023-.15l.187.19v.257M955.702 1047.503v-.26.26"/><path fill="#94722B" d="M955.702 1047.503l-1.895-1.898.132-.13 1.762 1.768v.26"/><path fill="#C9A432" d="M955.854 1047.654l-.152-.15v-.262l.098.1c.016.1.038.207.054.312M958.764 1050.564l-1.86-1.862v-.26l1.988 1.99-.128.132M956.438 1046.585c-.014-.073-.03-.147-.042-.222-.01-.036-.016-.068-.025-.106l.026.106c.013.075.03.15.042.222"/><path fill="#94722B" d="M956.438 1046.585l-.98-.977.13-.133.78.78.025.107c.013.076.032.15.045.223"/><path fill="#C9A432" d="M956.903 1047.05l-.467-.465c-.012-.073-.03-.147-.044-.222l-.023-.106.533.533v.26M958.764 1048.912l-1.86-1.862v-.26l1.988 1.992-.128.13M958.764 1047.26l-1.653-1.656.132-.128 1.65 1.654-.128.13"/></g><path fill="#94722B" d="M945.448 1038.316h13.4v17.118h-13.4z"/><g fill="#231F20"><path d="M951.696 1021.024v-.543l.757-.753v.592M951.717 1018.673v-.542l.757-.755v.595M951.696 1019.87v-.544l.757-.755v.594M951.717 1017.497v-.542l.757-.755v.593M951.696 1016.382v-.542l.757-.754v.593M951.696 1015.207v-.54l.757-.758v.594M951.717 1013.99v-.54l.757-.757v.595M951.717 1012.815v-.54l.757-.757v.594M951.696 1011.7v-.54l.757-.756v.593M951.696 1010.524v-.54l.757-.755v.593M951.73 1008.147v-.54l.755-.757v.592M951.71 1009.343v-.54l.756-.756v.593M951.73 1006.972v-.54l.755-.756v.593M951.71 1005.856v-.54l.756-.755v.593M951.71 1004.683v-.542l.756-.755v.594M951.73 1003.467v-.542l.755-.757v.595M951.73 1002.29v-.54l.755-.756v.593M951.71 1001.176v-.54l.756-.757v.592M951.71 1000v-.54l.756-.757v.595M951.738 997.636v-.54l.754-.758v.595M951.717 998.833v-.542l.757-.755v.593M951.738 996.46v-.54l.754-.756v.593M951.717 995.347v-.54l.757-.758v.594M951.717 994.17v-.54l.757-.757v.595M951.738 992.955v-.542l.754-.755v.593M951.738 991.778v-.54l.754-.756v.595M951.717 990.665v-.54l.757-.758v.595M951.717 989.49v-.542l.757-.757v.596M951.738 987.118v-.54l.754-.756v.593M951.717 988.315v-.543l.757-.754v.592M951.738 985.942v-.54l.754-.756v.595M951.717 984.83v-.542l.757-.757v.596M951.717 983.653v-.54l.757-.758v.595M951.738 982.438v-.542l.754-.757v.593M951.738 981.26v-.54l.754-.757v.595M951.717 980.146v-.542l.757-.754v.594M951.717 978.972v-.54l.757-.758v.595M951.717 976.622v-.543l.757-.756v.593M951.696 977.817v-.544l.757-.754v.59M951.717 975.446v-.542l.757-.757v.595M951.696 974.33v-.54l.757-.757v.595M951.696 973.155v-.542l.757-.755v.593M951.717 971.938v-.54l.757-.755v.592M951.717 970.763v-.54l.757-.756v.595M951.696 969.65v-.542l.757-.756v.594M951.696 968.474v-.54l.757-.756v.593M951.717 966.083v-.543l.757-.755v.593M951.696 967.278v-.543l.757-.755v.595M951.717 964.907v-.54l.757-.758v.594M951.696 963.792v-.54l.757-.758v.595M951.696 962.616v-.54l.757-.756v.593M951.717 961.4v-.54l.757-.756v.593M951.717 960.227v-.542l.757-.757v.594M951.696 959.11v-.54l.757-.757v.595M951.696 957.936v-.542l.757-.755v.59M951.738 955.564v-.542l.754-.754v.592M951.717 956.76v-.54l.757-.757v.593M951.738 954.388v-.54l.754-.756v.593M951.717 953.273v-.54l.757-.756v.594M951.717 952.1v-.542l.757-.757v.596M951.738 950.883v-.54l.754-.758v.595M951.738 949.707v-.54l.754-.756v.594M951.717 948.594v-.54l.757-.758v.595M951.717 947.418v-.542l.757-.756v.595M951.738 945.025v-.54l.754-.756v.592M951.717 946.223v-.54l.757-.758v.593M951.738 943.85v-.54l.754-.756v.594M951.717 942.736v-.54l.757-.758v.595M951.717 941.56v-.54l.757-.755v.592M951.738 940.345v-.542l.754-.754v.59M951.738 939.168v-.54l.754-.756v.593M951.717 938.056v-.542l.757-.757v.595M951.717 936.88v-.542l.757-.757v.596M951.717 934.53v-.542l.757-.757v.594M951.696 935.725v-.542l.757-.755v.593M951.717 933.354v-.542l.757-.757v.594M951.696 932.238v-.54l.757-.756v.593M951.696 931.064v-.542l.757-.756v.594M951.717 929.846v-.54l.757-.756v.595M951.717 928.672v-.54l.757-.758v.595M951.696 927.557v-.54l.757-.756v.594M951.696 926.38v-.54l.757-.755v.595M951.738 924.012v-.544l.754-.754v.593M951.717 925.207v-.543l.757-.755v.59M951.738 922.835v-.54l.754-.757v.594M951.717 921.72v-.54l.757-.756v.593M951.717 920.544v-.54l.757-.756v.594M951.738 919.33v-.542l.754-.756v.594M951.738 918.153v-.54l.754-.756v.594M951.717 917.04v-.542l.757-.756v.594M951.717 915.863v-.54l.757-.756v.594M951.717 913.534v-.542l.757-.756v.594M951.696 914.73v-.542l.757-.756v.593M951.717 912.358v-.542l.757-.756v.595M951.696 911.243v-.54l.757-.757v.594M951.696 910.068v-.542l.757-.755v.595M951.717 908.852v-.54l.757-.757v.594M951.717 907.676v-.54l.757-.757v.593M951.696 906.562v-.54l.757-.757v.594M951.696 905.386v-.54l.757-.757v.593M951.738 903.016v-.542l.754-.756v.594M951.717 904.21v-.54l.757-.755v.592M951.738 901.84v-.54l.754-.757v.594M951.717 900.725v-.54l.757-.757v.594M951.717 899.55v-.54l.757-.758v.594M951.738 898.333v-.54l.754-.756v.594M951.738 897.16v-.543l.754-.756v.595M951.717 896.043v-.54l.757-.756v.594M951.717 894.87v-.543l.757-.756v.595M951.738 892.518v-.542l.754-.756v.593M951.717 893.714v-.542l.757-.755v.592M951.738 891.342v-.54l.754-.757v.594M951.717 890.228v-.54l.757-.758v.594M951.717 889.052v-.54l.757-.757v.594M951.738 887.836v-.54l.754-.757v.593M951.738 886.66v-.54l.754-.756v.594M951.717 885.546v-.54l.757-.757v.593M951.717 884.37v-.54l.757-.756v.593"/></g></svg>