<svg xmlns="http://www.w3.org/2000/svg" width="1366" height="700" viewBox="149.496 666.643 1366 700"><path fill="#231F20" d="M957.03 1223.947h-.25c-.297-.128-.378-.362-.378-.687.01-2.14.006-4.277.006-6.414v-.176c-.163.812-.297 1.626-.432 2.44-.045.262-.3.402-.518.266l-.18-.214v-.227l.03-.108c.074-.468.14-.942.223-1.41.074-.43.136-.867.25-1.285.16-.604.518-.855 1.12-.855.506 0 1.01.002 1.52.004.627.003.95.256 1.08.892.11.558.19 1.12.288 1.68.06.362.124.72.19 1.082v.227l-.097.15c-.09.12-.22.137-.352.104a.3.3 0 0 1-.236-.253c-.09-.506-.17-1.015-.253-1.52-.055-.31-.108-.622-.164-.933l-.024.18c0 2.132-.008 4.265.005 6.392.002.322-.09.545-.386.665h-.246c-.284-.116-.385-.33-.385-.646.014-1.232.007-2.46.007-3.69v-.198h-.425v.205c0 1.23-.005 2.462.004 3.688 0 .32-.107.533-.397.642"/><path fill="#FFF" d="M959.977 1218.935c-.065-.362-.13-.723-.19-1.083-.098-.56-.178-1.122-.286-1.678-.132-.636-.455-.89-1.083-.89-.506-.003-1.012-.007-1.52-.005-.6 0-.956.25-1.118.853-.114.42-.178.856-.25 1.287-.08.466-.15.938-.223 1.41l-.032.106v-5.56h2.16l-.166.073c-.585.238-.723.997-.254 1.412a.913.913 0 0 0 1.157.054.828.828 0 0 0-.014-1.366c-.106-.073-.23-.118-.346-.175h2.162v5.56"/><path fill="#FFF" d="M958.47 1223.947c.294-.12.388-.343.386-.664-.012-2.13-.006-4.265-.006-6.394l.024-.183c.058.312.11.623.163.933.086.508.166 1.017.252 1.522.024.13.107.224.236.254.134.034.265.015.356-.105l.092-.147v4.784h-1.503M955.276 1219.163l.18.214c.22.137.474-.004.517-.265.136-.815.27-1.63.434-2.44v.175c0 2.137.005 4.274-.006 6.414 0 .325.084.56.378.688h-1.503v-4.785"/><path fill="#231F20" d="M957.814 1213.374c.116.055.24.1.345.175a.83.83 0 0 1 .013 1.366.914.914 0 0 1-1.157-.056.844.844 0 0 1 .253-1.413l.166-.073h.378"/><path fill="#FFF" d="M957.03 1223.947c.29-.11.394-.32.394-.642-.01-1.226-.004-2.457-.004-3.685v-.208h.423v.198c0 1.23.01 2.46-.006 3.69 0 .317.1.533.383.647h-1.19"/><path fill="#B98D2D" d="M956.406 1213.855h2.297s-.9-1.89-2.297 0"/><path fill="#FFF" d="M957.952 1213.75a.343.343 0 1 1-.687-.002.343.343 0 0 1 .687.003"/><path fill="#231F20" d="M951.873 1224.46h-.25c-.297-.123-.38-.363-.378-.684.01-2.14.008-4.277.008-6.415v-.176c-.165.815-.3 1.63-.438 2.445-.04.26-.298.4-.514.265l-.18-.216v-.23l.03-.105c.074-.472.14-.942.222-1.413.075-.43.138-.862.252-1.286.162-.6.516-.853 1.117-.854.508-.002 1.014.005 1.52.005.63.004.953.256 1.082.893.11.56.19 1.118.287 1.68.06.36.125.72.188 1.082v.225l-.092.15c-.096.12-.226.138-.356.104a.3.3 0 0 1-.237-.253c-.087-.507-.168-1.014-.254-1.52-.052-.31-.107-.62-.16-.934l-.026.18c0 2.132-.005 4.265.004 6.394.002.32-.09.545-.38.664h-.252c-.285-.115-.385-.33-.382-.645.013-1.23.004-2.46.004-3.69v-.197h-.423v.205c0 1.23-.004 2.46.003 3.688 0 .32-.106.534-.395.64"/><path fill="#FFF" d="M954.817 1219.452c-.062-.362-.13-.722-.19-1.082-.097-.56-.173-1.123-.286-1.68-.13-.637-.454-.89-1.08-.89-.507 0-1.014-.007-1.52-.007-.6 0-.954.255-1.12.854-.11.422-.176.855-.25 1.287-.08.468-.145.94-.22 1.412l-.032.106v-5.56h2.162l-.17.07c-.58.236-.72 1-.25 1.415a.92.92 0 0 0 1.158.056c.473-.352.472-1.034-.015-1.367-.106-.075-.23-.116-.347-.175h2.162v5.562"/><path fill="#FFF" d="M953.315 1224.46c.29-.118.385-.342.38-.663-.007-2.13-.003-4.262-.003-6.393l.026-.183c.055.314.106.624.16.936.086.508.166 1.015.254 1.52a.296.296 0 0 0 .236.255c.13.035.26.017.356-.102l.092-.15v4.782h-1.5M950.118 1219.68l.182.216c.216.136.473-.005.516-.266.135-.817.27-1.63.436-2.445v.175c0 2.14.002 4.277-.008 6.417-.002.32.083.56.377.685h-1.503v-4.782"/><path fill="#231F20" d="M952.656 1213.89c.116.06.24.1.346.175.488.335.49 1.016.015 1.367a.913.913 0 0 1-1.158-.055.847.847 0 0 1 .25-1.416l.17-.072.376.002"/><path fill="#FFF" d="M951.873 1224.46c.29-.105.395-.32.393-.638-.008-1.226-.004-2.458-.004-3.688v-.205h.425v.198c0 1.227.006 2.458-.005 3.688-.004.317.096.53.38.644h-1.19"/><path fill="#B98D2D" d="M951.247 1214.37h2.3s-.903-1.89-2.3 0"/><path fill="#FFF" d="M952.796 1214.265a.345.345 0 1 1-.69-.003.345.345 0 0 1 .69.003"/><path fill="#C9A432" d="M961.95 1224.86h-12.725v-16.324h12.725v16.323m-.087-.087v-.084.083m-3.3-.086l.06.06.06-.06.06.06.06-.06h1.305l.06.06.06-.06.06.06.063-.06h1.425v-1.424l.06-.062-.06-.06.06-.06-.06-.06v-1.304l.06-.06-.06-.06.06-.062-.06-.06v-1.304l.06-.06-.06-.06.06-.06-.06-.063v-1.304l.06-.06-.06-.06.06-.06-.06-.062v-1.305l.06-.056-.06-.063.06-.06-.06-.06v-1.22l.06-.06-.06-.06v-6.78H949.4v6.78l-.06.06.06.06v1.22l-.06.06.06.06-.06.062.06.055v1.306l-.06.063.06.06-.06.06.06.06v1.304l-.06.062.06.06-.06.06.06.06v1.304l-.06.06.06.062-.06.06.06.06v1.303l-.06.06.06.06-.06.06.06.063v1.133l-.148.143.122.124.026-.027v.052h1.423l.06.058.063-.06.06.06.058-.06h1.305l.06.06.06-.06.06.06.06-.06h1.305l.06.06.062-.06.06.06.06-.06h1.306l.06.06.06-.06.06.06.06-.06h1.305l.06.06.062-.06.06.06.06-.06h1.312"/><path fill="#C9A432" d="M961.778 1215.403h-1.426l-.06-.06-.06.06-.06-.06-.062.06h-.13v-.17h1.8v.17m-2.765 0c-.157-.083-.356-.122-.6-.122-.452 0-.908-.004-1.362-.004h-.155.14c.46 0 .922.003 1.38.005.24 0 .44.04.597.123m-3.74 0h-.458v-.17h.46v.17m-5.16 0h-.717v-.17h.718v.17m6.3-.054"/><path fill="#94722B" d="M959.015 1215.403h-.21l-.06-.06-.06.06-.06-.06-.062.06h-1.304l-.06-.06-.06.06-.06-.06-.062.06h-.72l.12-.055c.14-.047.303-.07.484-.072h.154c.454 0 .91.003 1.365.005.238 0 .437.04.595.123"/><path fill="#C9A432" d="M959.977 1215.403h-.964c-.157-.083-.355-.122-.597-.122-.46 0-.92-.004-1.38-.004h-.14c-.182 0-.342.025-.48.072h-.003l-.117.055h-.588l-.06-.06-.06.06-.06-.06-.06.06h-.19v-.17h4.7v.17M954.817 1215.403h-.654l-.063-.06-.055.06-.064-.06-.057.06h-.868l.16-.17h1.606v.17m-2.927 0h-.823l-.06-.06-.06.06-.062-.06-.06.06h-.705v-.17h1.61l.128.142.033.028"/><path fill="#94722B" d="M953.053 1215.403h-.438l-.06-.06-.06.06-.06-.06-.06.06h-.48l-.035-.028-.13-.143h1.485l-.162.17"/><path fill="#C9A432" d="M950.886 1224.746l-.286-.285h.243l.107.106-.062.06.062.06-.064.06m-.768-.765l-.024-.024.024-.025v.05"/><path fill="#C9A432" d="M950.843 1224.46h-.243l-.482-.48v-.05l.098-.095.627.626M949.972 1223.833l-.632-.634.06-.06.06.06.06-.06.575.573-.123.12M952.435 1224.746l-.288-.285h.244l.104.106-.06.06.06.06-.06.06"/><path fill="#94722B" d="M952.05 1224.365l-.328-.33.122-.122.323.327-.117.125"/><path fill="#C9A432" d="M952.39 1224.46h-.244l-.098-.095.118-.125.225.22M951.247 1223.56v-.243.243"/><path fill="#94722B" d="M951.6 1223.913l-.353-.353v-.243l.475.475-.122.12"/><path fill="#C9A432" d="M951.245 1223.56l-.37-.37.123-.12.25.25-.003.24m-.49-.493l-.583-.58.123-.12.58.58-.12.12M950.052 1222.368l-.712-.715.06-.06.06.06.06-.06.598.597v.11l-.066.068M950.118 1222.3v-.11l.056.054-.056.056M953.98 1224.746l-.286-.285h.243l.104.106-.06.06.06.06-.06.06"/><path fill="#94722B" d="M953.54 1224.31l-.268-.27.12-.125.244.244-.095.15"/><path fill="#C9A432" d="M953.937 1224.46h-.245l-.15-.15.094-.15.3.3"/><path fill="#94722B" d="M953.148 1223.917l-.46-.465v-.242l.584.585-.124.122"/><path fill="#C9A432" d="M952.685 1223.452l-.19-.19.12-.125.072.073-.002.242"/><path fill="#94722B" d="M952.262 1223.03l-.606-.607.123-.122.484.487-.002.243"/><path fill="#C9A432" d="M952.372 1223.14l-.11-.11v-.243l.232.23-.122.122M951.25 1222.018v-.243.243"/><path fill="#94722B" d="M951.534 1222.3l-.283-.282v-.243l.408.408-.124.118"/><path fill="#C9A432" d="M951.25 1222.018l-.302-.302.12-.122.18.182v.242m-.425-.424l-.65-.654.118-.12.656.65-.123.124M950.052 1220.818l-.712-.712.06-.06.06.06.06-.06.598.596v.11l-.066.066M950.118 1220.752v-.11l.056.057-.056.052M955.528 1224.746l-.71-.707v-.007l.12-.12.653.653-.062.06.063.06-.062.06M954.817 1224.04l-.002-.005.002-.002v.006m-.125-.127l-.646-.645.123-.12.646.644-.124.12"/><path fill="#94722B" d="M953.692 1222.914l-.423-.428.122-.118.3.302v.244"/><path fill="#C9A432" d="M953.927 1223.147l-.235-.233v-.244l.36.356-.125.12"/><path fill="#94722B" d="M953.146 1222.368l-.458-.46v-.243l.58.58-.122.123"/><path fill="#C9A432" d="M952.688 1221.907l-.25-.25.124-.122.126.13v.242"/><path fill="#94722B" d="M952.262 1221.482l-.54-.543.122-.122.418.42v.244"/><path fill="#C9A432" d="M952.315 1221.535l-.053-.053v-.245l.176.177-.123.12M951.25 1220.47v-.242.243"/><path fill="#94722B" d="M951.6 1220.818l-.347-.347v-.242l.47.47-.123.12"/><path fill="#C9A432" d="M951.25 1220.47l-.302-.303.12-.122.183.183v.243M950.68 1219.87l.096-.118-.095.118"/><path fill="#94722B" d="M950.666 1219.887l-.492-.493.12-.122.482.48-.09.122-.02.013"/><path fill="#C9A432" d="M950.823 1220.045l-.157-.16.015-.01.096-.123.172.174-.125.12M950.052 1219.27l-.712-.71.06-.062.06.063.06-.062.598.598v.11l-.066.065M950.118 1219.205v-.11l.056.054-.056.055M957.075 1224.746l-.712-.71.088-.09h.07l.614.62-.06.06.06.06-.06.06"/><path fill="#C9A432" d="M956.517 1223.947h-.065l.033-.034.032.034m-.277-.034l-.653-.65.123-.126.653.655-.123.12M955.276 1222.95l-.45-.452.12-.12.33.33v.24M955.467 1223.14l-.19-.19v-.243l.31.31-.12.122M954.817 1222.265v-.017l.01.01-.01.007"/><path fill="#C9A432" d="M954.703 1222.378l-.662-.664.123-.12.654.654v.017l-.114.113M953.69 1221.364v-.246.246"/><path fill="#94722B" d="M953.69 1221.364l-.475-.474.125-.12.35.348v.246"/><path fill="#C9A432" d="M953.92 1221.594l-.23-.23v-.243l.35.35-.12.124"/><path fill="#94722B" d="M953.096 1220.77l-.41-.41V1220.112l.532.533-.122.123"/><path fill="#C9A432" d="M952.687 1220.36l-.193-.193.12-.122.073.072V1220.36"/><path fill="#94722B" d="M952.264 1219.935l-.542-.543.122-.12.65.652-.008.006h-.222v.005"/><path fill="#C9A432" d="M952.372 1220.045l-.108-.11v-.005h.222l-.114.115M951.25 1218.925v-.243.243"/><path fill="#94722B" d="M951.6 1219.27l-.347-.345v-.243l.47.468-.123.12m-.62-.617l-.03-.036.045-.046-.016.083"/><path fill="#C9A432" d="M951.25 1218.925l-.27-.272.012-.082.073-.074.184.182v.247M950.355 1218.026l.014-.093.018-.11-.02.11-.013.093"/><path fill="#94722B" d="M950.823 1218.498l-.468-.472.014-.093.018-.11.558.555-.123.12"/><path fill="#C9A432" d="M950.355 1218.026l-.18-.18.12-.12.095.096-.02.11-.015.094M950.052 1217.723l-.712-.71.06-.063.06.063.06-.063.598.597v.11l-.066.066M950.118 1217.657v-.11l.056.055-.056.055M958.623 1224.746l-.716-.707.09-.093h.06l.628.62-.062.06.062.06-.062.06"/><path fill="#C9A432" d="M958.056 1223.947h-.058l.03-.03.028.03"/><path fill="#94722B" d="M957.4 1223.538l-.27-.27.12-.12.174.17-.024.22"/><path fill="#C9A432" d="M957.786 1223.917l-.386-.38.024-.218.483.475-.12.122M956.404 1222.552l.002-.108-.002.108"/><path fill="#94722B" d="M957.008 1223.147l-.604-.595v-.108l.068-.07.656.652-.12.12"/><path fill="#C9A432" d="M956.404 1222.552l-.05-.056.052-.052-.002.108m-.175-.174l-.644-.635.125-.12.643.634-.124.12M955.276 1221.433l-.46-.454v-.042l.103-.102.356.354v.243M955.467 1221.622l-.19-.19v-.242l.31.31-.12.122"/><path fill="#C9A432" d="M954.817 1220.98l-.02-.02.02-.022v.04m-.142-.142l-.7-.692.122-.12.7.69-.122.122M953.69 1219.863v-.242.243"/><path fill="#94722B" d="M953.69 1219.863l-.448-.446.122-.12.327.322v.243"/><path fill="#C9A432" d="M953.854 1220.024l-.163-.16v-.242l.286.28-.122.122"/><path fill="#94722B" d="M953.122 1219.298l-.654-.652.12-.12.654.65-.12.122m-.778-.772l-.654-.647.118-.125.66.652-.124.12"/><path fill="#C9A432" d="M951.25 1217.443v-.24.24"/><path fill="#94722B" d="M951.565 1217.755l-.314-.312v-.24l.438.433-.123.118m-.356-.353l-.3-.295.123-.12.216.213-.04.202"/><path fill="#C9A432" d="M951.25 1217.443l-.04-.04.037-.203.004.004v.238M950.587 1216.787l.034-.14.018-.05-.017.05-.033.14"/><path fill="#94722B" d="M950.79 1216.988l-.2-.203.03-.14.018-.05.273.267-.12.126"/><path fill="#C9A432" d="M950.587 1216.787l-.454-.448.122-.125.383.38-.017.053-.033.14M950.01 1216.215l-.67-.665.12-.124.658.656v.028l-.107.105M950.118 1216.11v-.028l.015.012-.015.016M960.17 1224.746l-.713-.71.09-.09h.064l.62.62-.06.06.06.06-.06.06"/><path fill="#C9A432" d="M959.61 1223.947h-.064l.033-.034.03.034"/><path fill="#94722B" d="M958.846 1223.426l-.16-.16.12-.127.05.048V1223.295l-.01.132"/><path fill="#C9A432" d="M959.335 1223.913l-.49-.487.01-.132v-.105l.606.606-.125.12"/><path fill="#94722B" d="M958.562 1223.14l-.654-.653.122-.118.654.648-.122.12m-.715-.83v-.125l.062.062-.063.064m-.427-.314l-.286-.282.124-.12.162.16v.242"/><path fill="#C9A432" d="M957.79 1222.368l-.37-.372v-.243l.427.43v.126l-.057.058M956.406 1220.986v-.056.056"/><path fill="#94722B" d="M957.016 1221.594l-.608-.606v-.058l.096-.092.63.632-.118.124"/><path fill="#C9A432" d="M956.406 1220.986l-.024-.028.024-.028v.056m-.146-.15l-.67-.67.12-.122.672.67-.122.122M955.276 1219.853l-.46-.457v-.076l.084-.085.374.375.002.243m-.47-.468l-.007-.048.005.048M955.467 1220.045l-.19-.192v-.242l.31.314-.12.12"/><path fill="#94722B" d="M954.805 1219.385l-.027-.027.02-.02.007.047"/><path fill="#C9A432" d="M954.817 1219.396l-.012-.013-.006-.046.017-.017v.076"/><path fill="#94722B" d="M954.657 1219.234l-.616-.615.123-.122.59.59.01.045-.106.1"/><path fill="#C9A432" d="M954.763 1219.133l-.01-.044.025.024-.015.02M953.692 1218.27v-.245.246"/><path fill="#94722B" d="M953.935 1218.484l-.043-.258.153.15-.11.108m-.243-.213l-.424-.425.123-.122.302.304v.244"/><path fill="#C9A432" d="M953.92 1218.498l-.228-.226v-.244l.2.2.043.256-.015.014"/><path fill="#94722B" d="M953.146 1217.723l-.652-.652.12-.12.654.65-.122.123m-.774-.773l-.652-.65.122-.126.654.655-.124.12"/><path fill="#C9A432" d="M951.28 1215.858l.197-.046-.197.046"/><path fill="#94722B" d="M951.6 1216.178l-.32-.32.197-.046.245.244-.122.122"/><path fill="#C9A432" d="M951.28 1215.858l-.332-.332.06-.06-.06-.06.06-.06.467.467-.195.045M961.63 1224.663l-.626-.628.122-.122.626.627-.12.123m-.747-.75l-.655-.65.122-.126.652.655-.12.12m-.774-.773l-.132-.132v-.242l.25.252-.118.12M959.977 1223.006l-.52-.52.122-.118.397.396v.242"/><path fill="#94722B" d="M958.85 1221.882l-.165-.168.12-.12.045.043v.245"/><path fill="#C9A432" d="M959.335 1222.368l-.487-.487-.002-.244.61.606-.12.126"/><path fill="#94722B" d="M958.562 1221.594l-.654-.655.122-.122.655.652-.123.124M957.847 1220.76v-.125l.062.064-.063.06m-.427-.31l-.262-.262.12-.12.142.14v.242"/><path fill="#C9A432" d="M957.79 1220.818l-.37-.368v-.244l.427.427v.128l-.057.058M956.408 1219.44v-.092.092"/><path fill="#94722B" d="M957.034 1220.067l-.626-.627v-.092l.076-.077.674.675-.124.122"/><path fill="#C9A432" d="M956.408 1219.44l-.045-.048.045-.044v.092M955.988 1219.02l.035-.208-.035.21"/><path fill="#94722B" d="M955.988 1219.02l-.427-.43.122-.12.34.342-.034.21"/><path fill="#C9A432" d="M956.24 1219.27l-.252-.25.035-.208.34.34-.123.12M955.375 1218.403l.03-.21-.03.21m-.1-.096l-.458-.458v-.005l.122-.122.336.342v.242"/><path fill="#94722B" d="M955.437 1218.47l-.062-.067.03-.21.157.155-.125.122"/><path fill="#C9A432" d="M955.375 1218.403l-.1-.096v-.243l.13.13-.03.21M954.817 1217.85l-.002-.005h.002v.004M954.49 1217.52c-.016-.097-.035-.194-.05-.29.017.095.035.193.05.29"/><path fill="#94722B" d="M954.49 1217.52l-.45-.447.123-.122.277.28c.017.095.035.193.05.29"/><path fill="#C9A432" d="M954.692 1217.723l-.2-.202c-.018-.097-.035-.194-.05-.29l.375.37-.125.123"/><path fill="#94722B" d="M953.92 1216.95l-.65-.65.12-.122.65.65-.12.122"/><path fill="#C9A432" d="M953.008 1215.797l-.244-.003.244.003"/><path fill="#94722B" d="M953.146 1216.178l-.382-.383.244.002.26.26-.122.12"/><path fill="#C9A432" d="M953.008 1215.797l-.244-.003-.19-.19.2-.043.234.237"/><path fill="#94722B" d="M952.574 1215.606l-.08-.08.06-.06-.06-.06.06-.06.22.218-.2.042"/><path fill="#C9A432" d="M960.292 1224.746l-.122-.12 1.487-1.487.06.06.06-.06.062.06-1.548 1.546M958.744 1224.746l-.12-.12.678-.68h.244l-.802.8m1.233-1.23v-.243l.908-.904.12.12-1.028 1.026"/><path fill="#C9A432" d="M959.546 1223.947h-.242l.673-.675v.244l-.398.397-.034.034M961.126 1222.368l-.122-.124.653-.65.06.06.06-.06.06.06-.71.714M957.197 1224.746l-.122-.12.68-.68h.24l-.798.8m2.78-2.777v-.243l.13-.133.123.122-.253.253"/><path fill="#94722B" d="M958.077 1223.868l-.125-.12.9-.898v.242l-.775.776"/><path fill="#C9A432" d="M958.854 1223.092v-.242l1.125-1.123v.242l-1.126 1.122M957.998 1223.947h-.242l.2-.2.123.12-.082.08M960.353 1221.594l-.123-.124.655-.65.12.12-.652.654m.773-.776l-.122-.12.653-.654.06.06.06-.06.06.06-.71.714M955.65 1224.746l-.122-.12.68-.68h.243l-.8.8"/><path fill="#94722B" d="M956.58 1223.817l-.103-.144.94-.938.004.242-.84.84m1.265-1.263l.002-.245 1-1.007v.244l-1.002 1.007"/><path fill="#C9A432" d="M958.848 1221.547v-.243l.49-.486.123.12-.612.61M956.45 1223.947h-.242l.27-.273.105.143-.132.13M957.422 1222.976v-.245l.425-.42-.002.244-.423.422M959.977 1220.422v-.242l.133-.135.12.122-.253.255M959.58 1220.818l-.123-.12.52-.518v.242l-.398.396M960.353 1220.045l-.123-.12.655-.654.12.122-.652.653m.773-.774l-.122-.12.653-.653.06.06.06-.06.06.06-.71.714M954.1 1224.746l-.12-.12.163-.165h.247l-.29.286m.717-.713v-.243l.46-.46v.244l-.46.46m1.59-1.588v-.245.246"/><path fill="#94722B" d="M956.406 1222.444v-.243l1.014-1.012v.246l-1.014 1.01m1.44-1.44v-.245l.717-.716.122.12-.838.84"/><path fill="#C9A432" d="M955.276 1223.574v-.244l1.128-1.13v.244l-1.128 1.13M957.42 1221.433v-.246l.427-.428v.243l-.427.43M954.39 1224.46h-.245l.67-.668.002-.002v.243l-.002.002-.425.426M958.848 1220v-.244.245"/><path fill="#94722B" d="M958.805 1220.045l-.12-.12.163-.17v.246l-.043.045m.648-.656l-.123-.115.005-.004.118.12"/><path fill="#C9A432" d="M958.848 1220v-.244l.485-.482.122.115.006.002-.612.61M959.967 1218.884l-.02-.122.02.122m.01-.01v-.244l.13-.132.123.12-.253.256"/><path fill="#94722B" d="M959.58 1219.27l-.123-.12.47-.472.015.082.022.124-.385.387"/><path fill="#C9A432" d="M959.967 1218.884l-.02-.122-.017-.082.05-.048v.244l-.013.008M960.353 1218.498l-.123-.12.655-.655.12.122-.652.653m.773-.775l-.122-.122.653-.65.06.06.06-.06.06.06-.71.713M952.555 1224.746l-.12-.12.166-.165h.245l-.29.286m2.262-2.24v-.24l.01-.012.45-.445v.242l-.452.444-.008.01m1.59-1.574v-.244.244"/><path fill="#94722B" d="M956.406 1220.932v-.244l1.014-1v.24l-1.014 1.004m1.44-1.425v-.094h-.15l.117-.117.122.12-.09.09"/><path fill="#C9A432" d="M955.276 1222.052v-.243l1.13-1.123v.243l-1.13 1.122M957.422 1219.928v-.24l.27-.275h.153v.094l-.423.42"/><path fill="#94722B" d="M952.92 1224.386l-.12-.12.892-.89.002.243-.774.766"/><path fill="#C9A432" d="M953.696 1223.62l-.002-.245 1.125-1.11v.242l-1.124 1.112M952.843 1224.46h-.245l.202-.195.12.12-.077.076"/><path fill="#94722B" d="M958.056 1219.298l-.12-.123.655-.65.124.122-.658.65"/><path fill="#C9A432" d="M958.85 1218.51v-.24.24"/><path fill="#94722B" d="M958.834 1218.526l-.12-.12.134-.136v.242l-.014.014m.3-.297l-.034-.21.268-.266.122.124-.355.35"/><path fill="#C9A432" d="M958.85 1218.51v-.24l.25-.25.035.207-.285.284M959.748 1217.623l-.036-.207.036.207m.23-.228v-.238l.168-.17.122.12-.29.288"/><path fill="#94722B" d="M959.61 1217.755l-.12-.12.226-.22.033.207-.14.133"/><path fill="#C9A432" d="M959.748 1217.623l-.036-.207.265-.26v.242l-.23.225M960.39 1216.988l-.122-.128.652-.646.125.122-.654.652m.776-.773l-.12-.12.67-.67.12.125-.67.665M951.01 1224.746l-.124-.12.166-.165h.242l-.285.286m3.807-3.808v-.242l.46-.46v.242l-.46.46m1.59-1.59v-.243.243"/><path fill="#94722B" d="M956.408 1219.348v-.244l.606-.606.12.12-.726.73"/><path fill="#C9A432" d="M955.276 1220.48v-.246l1.132-1.13v.244l-1.132 1.13"/><path fill="#94722B" d="M951.423 1224.333l-.103-.142.94-.94.003.24-.84.843m1.264-1.264v-.246l1.005-1.003v.242l-1.005 1.007"/><path fill="#C9A432" d="M953.69 1222.062v-.24l1.11-1.107.017-.018v.242l-1.126 1.122M951.294 1224.46h-.242l.27-.27.103.143-.13.128M952.266 1223.49l-.002-.24.423-.426v.245l-.42.42"/><path fill="#94722B" d="M957.258 1218.498l-.124-.12.658-.655.118.122-.652.653m.772-.775l-.122-.16.654-.655.122.163-.654.653"/><path fill="#C9A432" d="M958.85 1216.905v-.015l.024-.182-.024.182v.015"/><path fill="#94722B" d="M958.805 1216.95l-.12-.12.652-.656.124.125-.56.554-.026-.148v.002-.002l-.024.18v.016l-.045.048"/><path fill="#C9A432" d="M958.85 1216.905v-.015l.024-.182.027.148-.05.05M959.476 1216.074l-.01-.028.01.028m.5-.294v-.244l.194-.195.06.062-.06.06.06.06-.253.258"/><path fill="#94722B" d="M959.476 1216.074l-.02-.018.01-.01.01.028"/><path fill="#C9A432" d="M959.58 1216.178l-.104-.104-.01-.028.51-.51v.244l-.397.398M949.374 1224.663l-.122-.125.866-.846v.238l-.744.733m1.875-1.84v-.243.242m2.44-2.398v-.24.24m1.11-1.087l-.022-.11.02.11m.02-.018v-.24l.458-.45v.24l-.46.45m.49-.48l.003-.012.04-.27-.04.27-.003.01"/><path fill="#94722B" d="M955.307 1218.837l.002-.01.04-.27.86-.846c-.013.098-.032.195-.048.292l-.855.835"/><path fill="#C9A432" d="M955.276 1218.87v-.24l.074-.076-.04.272-.003.01-.03.033M956.162 1218c.016-.1.035-.194.05-.292l.007-.006.122.12-.18.178"/><path fill="#94722B" d="M951.25 1222.822v-.242l1.012-.992v.24l-1.013.994m1.438-1.415l-.002-.24 1.005-.983v.238l-1.002.985m1.562-1.53l-.105-.142.616-.603.015.094.022.108-.547.542"/><path fill="#C9A432" d="M954.8 1219.337l-.022-.11-.015-.092.056-.055v.24l-.02.017M953.69 1220.424v-.24l.458-.45.104.142-.56.548M950.118 1223.93v-.238l1.13-1.112v.242l-1.13 1.11M952.262 1221.828v-.24l.425-.42v.24l-.425.42M956.406 1217.65v-.133.133"/><path fill="#94722B" d="M956.462 1217.704l-.056-.058v-.13l.59-.58.124.124-.658.644"/><path fill="#C9A432" d="M956.406 1217.65l-.064-.068.064-.065v.133"/><path fill="#94722B" d="M957.245 1216.936l-.12-.12.653-.646.122.12-.655.646m.777-.766l-.12-.12.723-.707.06.06-.06.06.06.06-.663.647"/><path fill="#C9A432" d="M949.46 1223.2l-.12-.122.778-.778v.243l-.658.656m1.79-1.79v-.244.245m2.442-2.44v-.243.243m.888-.888l-.037-.21.037.21m.237-.237v-.246l.46-.46v.242l-.46.463"/><path fill="#94722B" d="M955.585 1217.074l.002-.004v.002l-.002.002"/><path fill="#C9A432" d="M955.276 1217.384v-.242l.19-.192.12.12v.004l-.31.31"/><path fill="#94722B" d="M951.25 1221.41v-.244l1.012-1.012v.243l-1.01 1.014m1.435-1.434v-.046h-.2l1.205-1.2-.002.24-1.003 1.006m1.28-1.284l-.034-.208.61-.61.037.208-.612.61"/><path fill="#C9A432" d="M954.58 1218.082l-.037-.21.272-.27.002-.003v.245h-.002l-.235.237M953.692 1218.97v-.243l.243-.243.033.206-.276.28M950.118 1222.543v-.243l1.133-1.132v.243l-1.132 1.133M952.264 1220.397v-.243l.224-.224h.2v.044l-.424.423"/><path fill="#94722B" d="M955.71 1216.95l-.088-.09.017-.08.602-.602.12.12-.652.652"/><path fill="#C9A432" d="M955.622 1216.86l-.035-.03.052-.05-.018.08"/><path fill="#94722B" d="M956.484 1216.178l-.12-.122.71-.713.06.06-.06.06.06.063-.65.652"/><path fill="#C9A432" d="M949.46 1221.653l-.12-.12.778-.78v.242l-.658.658m1.79-1.79v-.246.246m2.442-2.443v-.016l.026-.183-.026.184v.016m.662-.66l-.012-.068-.033-.132.032.132.012.067"/><path fill="#94722B" d="M951.25 1219.863v-.246l.346-.347c.814-.815 1.63-1.628 2.445-2.44l.27-.27.03.13.015.068-.61.61-.027-.15-.025.184v.014l-2.442 2.447"/><path fill="#C9A432" d="M954.354 1216.76l-.01-.07-.034-.13.382-.382.125.12-.463.46M953.692 1217.42v-.016l.027-.182.025.15-.053.048M950.118 1220.995v-.243l1.133-1.133v.245l-1.132 1.13M954.94 1216.178l-.123-.122v-.003l.46-.46v.244l-.338.34"/><path fill="#C9A432" d="M955.276 1215.837v-.244l.252-.25.06.06-.06.06.06.063-.312.31M954.817 1216.056h-.002l.002-.003v.003M949.46 1220.106l-.12-.122.778-.78v.244l-.658.658m.665-.672l.025-.088.033-.203-.033.203-.025.088m1.126-1.12v-.24.24m2.46-2.456l-.2-.045.2.045"/><path fill="#94722B" d="M950.122 1219.446l.003-.013.025-.088.033-.203.862-.864-.05.294-.873.874m1.13-1.133v-.24l.313-.318c.568-.564 1.134-1.133 1.7-1.7l.243-.24.2.044-2.457 2.453"/><path fill="#C9A432" d="M950.118 1219.448v-.243l.056-.056.01-.01-.033.203-.024.086-.003.014-.005.004m3.59-3.59l-.2-.045.472-.47.062.06-.062.06.062.06-.333.335M950.994 1218.572c.015-.098.034-.195.05-.294l.207-.205v.24l-.256.26M949.46 1218.56l-.12-.12.778-.782v.242l-.658.66m2.766-2.766h-.244v-.002l.244.002"/><path fill="#94722B" d="M950.43 1217.59c.015-.098.03-.197.05-.295l1.502-1.505h.246l-1.8 1.8"/><path fill="#C9A432" d="M950.118 1217.9v-.243l.36-.362c-.018.098-.034.197-.05.295l-.31.31m2.108-2.106l-.244-.002.224-.222.203.037-.184.187"/><path fill="#94722B" d="M952.41 1215.607l-.203-.037.228-.227.12.122-.145.142"/><path fill="#C9A432" d="M949.46 1217.013l-.12-.123.778-.78v.244l-.658.66M950.118 1216.354v-.244l.768-.767.062.06.06.06-.89.89M961.717 1223.2l-1.74-1.74v-.245l1.86 1.863-.12.12m-2.87-2.865v-.243.243m-2.44-2.44v-.246.247m-1.13-1.135l-.46-.457v-.247l.46.46v.243"/><path fill="#94722B" d="M958.848 1220.333l-.163-.166c-.558-.558-1.114-1.11-1.67-1.67l-.606-.603v-.245l.057.055c.78.78 1.557 1.56 2.34 2.34l.042.046v.243m-2.637-2.635l-.626-.626v-.002l.035-.21.63.632-.04.206"/><path fill="#C9A432" d="M955.587 1217.07l-.31-.31v-.245l.343.345-.033.21M959.977 1221.46l-1.13-1.13v-.242l1.128 1.127.002.244M956.406 1217.894l-.195-.198.04-.205.156.156v.248M954.817 1216.3h-.002l-.836-.836.12-.12.717.712v.243M961.717 1221.653l-1.74-1.742v-.245l1.86 1.867-.12.12m-2.076-2.22l.086-.012-.085.012m-.79-.645v-.244.244m-2.956-2.96l.09-.152-.09.152"/><path fill="#94722B" d="M959.64 1219.432l-.11-.015-.074-.028-.135-.13-.03-.097-.034-.216.473.473-.09.012m-.79-.646l-.136-.14-2.472-2.47-.347-.348.09-.15.378.377 2.473 2.47.014.018v.243"/><path fill="#C9A432" d="M955.894 1215.827l-.366-.365.12-.12.336.333-.09.152M959.977 1219.91l-.523-.52.073.023.112.017.084-.013.25.248v.246m-.654-.65l-.47-.474v-.243l.404.402.034.215.032.1M959.826 1218.085l-.023-.14.023.14"/><path fill="#94722B" d="M959.85 1218.242l-.857-.862c-.014-.096-.034-.195-.05-.294l.86.86.023.14.025.156"/><path fill="#C9A432" d="M959.977 1218.364l-.126-.124-.026-.155-.023-.14.177.174v.244M958.85 1217.24v-.243.242"/><path fill="#94722B" d="M958.85 1217.24l-1.773-1.776.122-.12 1.65 1.653v.242"/><path fill="#C9A432" d="M958.992 1217.38l-.143-.14v-.243l.093.09c.015.098.034.197.05.293M961.717 1220.106l-1.74-1.742v-.245l1.86 1.864-.12.122M959.538 1216.38l-.038-.206-.022-.1.022.1.038.207"/><path fill="#94722B" d="M959.538 1216.38l-.915-.915.123-.122.73.73.024.1.038.208"/><path fill="#C9A432" d="M959.977 1216.816l-.44-.435-.04-.206-.02-.1.498.5.002.242M961.717 1218.56l-1.74-1.744v-.243l1.86 1.866-.12.12M961.717 1217.013l-1.547-1.55.122-.12 1.545 1.547-.12.123M962.017 1241.14H949.29v-16.323h12.727v16.324m-.088-.084v-.086.086m-3.303-.088l.062.06.057-.06.062.06.06-.06h1.3l.064.06.057-.06.063.06.06-.06h1.424v-1.424l.062-.062-.063-.06.062-.06-.063-.06v-1.307l.062-.06-.063-.06.062-.06-.063-.062v-1.303l.062-.06-.063-.06.062-.062-.063-.06v-1.306l.062-.06-.063-.06.062-.06-.063-.06v-1.306l.062-.058-.063-.062.062-.06-.063-.06v-1.22l.062-.06-.063-.06v-6.782h-12.37v6.78l-.062.063.06.06v1.22l-.06.06.06.06-.06.06.06.06v1.304l-.06.062.06.06-.06.06.06.06v1.305l-.06.06.06.062-.06.06.06.06v1.303l-.06.06.06.063-.06.06.06.06v1.305l-.06.06.06.06-.06.062.06.062v1.133l-.145.14.12.127.025-.026v.05h1.424l.06.06.062-.06.06.06.06-.06h1.305l.06.06.06-.06.06.06.06-.06h1.307l.06.06.06-.06.06.06.06-.06h1.304l.06.06.06-.06.06.06.062-.06h1.305l.06.06.06-.06.06.06.06-.06h1.312"/><path fill="#C9A432" d="M961.843 1231.685h-1.426l-.06-.062-.06.062-.06-.062-.06.062h-.133v-.173h1.8v.173m-2.764 0c-.157-.084-.355-.12-.598-.12-.454-.003-.908-.007-1.364-.007h-.155.14c.46 0 .92.004 1.378.006.245 0 .443.037.6.12m-3.74 0h-.458v-.172h.46v.173m-5.16 0h-.717v-.173h.718v.173m6.298-.056"/><path fill="#94722B" d="M959.078 1231.685h-.207l-.058-.062-.062.062-.06-.062-.062.062h-1.303l-.06-.062-.06.062-.06-.062-.058.062h-.72l.12-.056c.14-.05.3-.07.48-.072h.158c.452 0 .908.004 1.36.006.24 0 .438.037.593.12"/><path fill="#C9A432" d="M960.04 1231.685h-.962c-.157-.084-.355-.12-.598-.12-.458-.003-.917-.007-1.378-.007h-.14a1.526 1.526 0 0 0-.483.07h-.003l-.118.057h-.586l-.06-.062-.062.062-.06-.062-.06.062h-.19v-.173h4.698v.173M954.882 1231.685h-.655l-.06-.062-.058.062-.063-.062-.06.062h-.867l.16-.173h1.605v.173m-2.93 0h-.82l-.06-.062-.058.062-.063-.062-.06.062h-.706v-.173h1.612l.128.143.028.03"/><path fill="#94722B" d="M953.118 1231.685h-.438l-.06-.063-.058.063-.06-.063-.06.063h-.482l-.036-.03-.128-.143h1.485l-.162.173"/><path fill="#C9A432" d="M950.95 1241.027l-.286-.286h.243l.107.105-.062.06.062.06-.063.062m-.767-.766l-.025-.023.025-.025v.05"/><path fill="#C9A432" d="M950.907 1240.74h-.243l-.48-.48v-.05l.098-.096.625.627M950.036 1240.112l-.632-.633.06-.06.06.06.062-.06.573.575-.124.117M952.5 1241.027l-.287-.286h.242l.105.106-.06.06.06.062-.06.06"/><path fill="#94722B" d="M952.115 1240.645l-.33-.33.124-.122.323.327-.118.125"/><path fill="#C9A432" d="M952.455 1240.74h-.244l-.1-.095.12-.125.225.22M951.31 1239.84v-.24.24"/><path fill="#94722B" d="M951.665 1240.193l-.354-.353v-.24l.475.47-.12.123"/><path fill="#C9A432" d="M951.31 1239.84l-.368-.37.12-.12.253.25-.004.24m-.49-.492l-.582-.578.12-.122.585.58-.124.12M950.116 1238.647l-.712-.713.06-.06.06.06.062-.06.597.597v.112l-.067.065"/><path fill="#C9A432" d="M950.183 1238.582v-.11l.056.054-.057.056M954.045 1241.027l-.285-.286h.242l.105.106-.062.06.062.062-.062.06"/><path fill="#94722B" d="M953.607 1240.59l-.27-.272.12-.12.243.24-.093.15"/><path fill="#C9A432" d="M954.002 1240.74h-.244l-.152-.15.094-.15.302.3"/><path fill="#94722B" d="M953.215 1240.197l-.462-.464v-.243l.583.585-.12.122"/><path fill="#C9A432" d="M952.75 1239.733l-.19-.19.12-.124.073.07-.002.243"/><path fill="#94722B" d="M952.327 1239.312l-.604-.608.123-.12.48.484v.244"/><path fill="#C9A432" d="M952.438 1239.42l-.11-.107v-.245l.232.23-.122.122M951.316 1238.298l.002-.243-.002.243"/><path fill="#94722B" d="M951.6 1238.582l-.282-.284v-.243l.407.407-.125.12"/><path fill="#C9A432" d="M951.316 1238.298l-.302-.302.12-.12.182.18v.242m-.427-.423l-.653-.656.12-.12.656.65-.124.125M950.116 1237.1l-.712-.712.06-.062.06.062.062-.062.597.597v.108l-.067.07"/><path fill="#C9A432" d="M950.183 1237.03v-.107l.056.056-.057.05M955.592 1241.027l-.708-.71v-.003l.12-.12.652.652-.064.06.064.062-.064.06M954.882 1240.318l-.002-.002.002-.002v.004m-.123-.125l-.647-.645.124-.12.646.643-.124.123"/><path fill="#94722B" d="M953.76 1239.193l-.427-.423.123-.123.302.302.002.243"/><path fill="#C9A432" d="M953.993 1239.428l-.233-.235-.002-.244.356.356-.12.122"/><path fill="#94722B" d="M953.21 1238.647l-.455-.46v-.243l.578.582-.122.12"/><path fill="#C9A432" d="M952.755 1238.188l-.254-.25.126-.12.13.126v.244"/><path fill="#94722B" d="M952.327 1237.763l-.542-.544.124-.12.417.418v.245"/><path fill="#C9A432" d="M952.382 1237.815l-.057-.052.002-.245.176.176-.12.12M951.318 1236.752v-.244.244"/><path fill="#94722B" d="M951.665 1237.1l-.347-.348v-.244l.467.47-.12.12"/><path fill="#C9A432" d="M951.318 1236.752l-.303-.306.12-.12.183.182v.244M950.746 1236.15l.097-.118-.097.118"/><path fill="#94722B" d="M950.73 1236.167l-.49-.49.118-.125.485.482-.093.12-.02.013"/><path fill="#C9A432" d="M950.89 1236.326l-.16-.16.016-.012.097-.12.172.172-.126.12M950.116 1235.55l-.712-.71.06-.06.06.06.062-.06.597.596v.108l-.067.066"/><path fill="#C9A432" d="M950.183 1235.484v-.108l.056.054-.057.054M957.14 1241.027l-.712-.71.09-.09h.065l.618.62-.06.058.06.063-.06.06M956.583 1240.227h-.066l.034-.033.033.033m-.278-.034l-.65-.65.12-.124.653.65-.123.123M955.34 1239.23l-.45-.45.123-.122.328.33v.24M955.532 1239.42l-.19-.19v-.243l.31.312-.12.12M954.882 1238.544v-.015l.01.007-.01.007M954.77 1238.658l-.663-.662.12-.12.655.653v.014l-.112.114M953.756 1237.645v-.245.245"/><path fill="#94722B" d="M953.756 1237.645l-.475-.475.125-.12.35.35v.245"/><path fill="#C9A432" d="M953.985 1237.875l-.23-.23v-.244l.352.35-.122.125"/><path fill="#94722B" d="M953.16 1237.05l-.407-.41V1236.397l.532.532-.126.12"/><path fill="#C9A432" d="M952.753 1236.64l-.193-.194.12-.12.073.07v.245"/><path fill="#94722B" d="M952.327 1236.216l-.542-.542.124-.124.65.656-.007.005h-.226v.006"/><path fill="#C9A432" d="M952.438 1236.326l-.11-.11v-.005h.225l-.115.116M951.318 1235.204v-.243.244"/><path fill="#94722B" d="M951.665 1235.55l-.347-.346v-.243l.467.47-.12.12m-.62-.617l-.03-.035.045-.047-.015.083"/><path fill="#C9A432" d="M951.318 1235.204l-.275-.27.015-.083.074-.073.182.182.004.244M950.42 1234.307l.016-.093.018-.112-.018.112-.016.093"/><path fill="#94722B" d="M950.89 1234.78l-.47-.473.016-.093.018-.112.56.556-.125.12"/><path fill="#C9A432" d="M950.42 1234.307l-.18-.18.118-.122.098.097-.018.112-.018.093M950.116 1234.003l-.712-.71.06-.063.06.063.062-.063.597.598v.11l-.067.065"/><path fill="#C9A432" d="M950.183 1233.938v-.11l.056.056-.057.054M958.688 1241.027l-.714-.71.088-.09h.06l.626.62-.06.058.062.063-.062.06M958.122 1240.227h-.06l.033-.03.027.03"/><path fill="#94722B" d="M957.466 1239.818l-.273-.27.123-.12.174.173-.024.218"/><path fill="#C9A432" d="M957.852 1240.197l-.386-.38.024-.216.484.475-.122.122M956.47 1238.83l.002-.105-.002.106"/><path fill="#94722B" d="M957.073 1239.428l-.604-.597v-.105l.067-.07.654.65-.117.123"/><path fill="#C9A432" d="M956.47 1238.83l-.053-.055.055-.05-.002.106m-.174-.172l-.643-.634.123-.12.64.633-.12.12M955.34 1237.712l-.458-.45v-.044l.102-.1.357.354v.24M955.532 1237.9l-.19-.188v-.24l.31.307-.12.12M954.882 1237.26l-.02-.02.02-.02v.04m-.14-.143l-.7-.69.12-.125.7.69-.12.125M953.756 1236.143v-.243.243"/><path fill="#94722B" d="M953.756 1236.143l-.448-.445.122-.122.326.322v.245"/><path fill="#C9A432" d="M953.92 1236.304l-.164-.16v-.242l.285.282-.12.12"/><path fill="#94722B" d="M953.188 1235.578l-.657-.652.124-.12.653.65-.12.122m-.777-.77l-.657-.65.122-.12.656.65-.12.12"/><path fill="#C9A432" d="M951.318 1233.725v-.243.243"/><path fill="#94722B" d="M951.632 1234.037l-.313-.312v-.242l.432.435-.12.117m-.358-.353l-.298-.296.122-.122.216.214-.04.204"/><path fill="#C9A432" d="M951.318 1233.725l-.044-.04.037-.206.008.003v.241M950.654 1233.066l.034-.137.013-.055-.012.054-.034.136"/><path fill="#94722B" d="M950.854 1233.268l-.2-.204.034-.137.013-.054.277.273-.123.122"/><path fill="#C9A432" d="M950.654 1233.066l-.456-.448.122-.12.38.377-.012.054-.034.136M950.077 1232.497l-.673-.668.12-.122.66.653v.03l-.107.107"/><path fill="#C9A432" d="M950.183 1232.39v-.03l.015.015-.015.015M960.235 1241.027l-.713-.71.09-.09h.065l.62.62-.062.058.06.063-.06.06M959.677 1240.227h-.066l.035-.034.032.034"/><path fill="#94722B" d="M958.912 1239.706l-.162-.16.12-.126.05.05V1239.573l-.008.132"/><path fill="#C9A432" d="M959.4 1240.193l-.488-.487.01-.132v-.105l.602.603-.123.12"/><path fill="#94722B" d="M958.627 1239.42l-.65-.65.118-.122.655.65-.123.122m-.717-.83v-.128l.065.064-.065.064m-.426-.314l-.283-.28.12-.12.164.16v.24"/><path fill="#C9A432" d="M957.855 1238.647l-.37-.37v-.242l.425.427v.128l-.055.057M956.472 1237.268v-.06.06"/><path fill="#94722B" d="M957.08 1237.875l-.606-.607v-.06l.096-.09.63.632-.12.125"/><path fill="#C9A432" d="M956.472 1237.268l-.026-.03.026-.028v.058m-.148-.15l-.668-.674.118-.12.673.67-.123.123M955.34 1236.135l-.458-.46v-.076l.084-.083.375.373v.245m-.47-.47l-.008-.048.008.047M955.532 1236.326l-.19-.19v-.244l.31.314-.12.12"/><path fill="#94722B" d="M954.87 1235.664l-.026-.026.018-.02.008.046"/><path fill="#C9A432" d="M954.882 1235.676l-.012-.012-.008-.047.02-.016v.076"/><path fill="#94722B" d="M954.724 1235.517l-.617-.618.12-.12.59.588.012.045-.106.104"/><path fill="#C9A432" d="M954.83 1235.413l-.013-.045.027.028-.015.017M953.758 1234.552v-.245.245"/><path fill="#94722B" d="M954 1234.766l-.043-.26.152.15-.11.11m-.242-.214l-.425-.426.123-.123.302.304v.245"/><path fill="#C9A432" d="M953.985 1234.78l-.227-.227v-.244l.2.197.042.26-.015.012"/><path fill="#94722B" d="M953.21 1234.003l-.65-.65.12-.122.653.652-.122.12m-.772-.772l-.655-.65.124-.124.654.652-.122.122"/><path fill="#C9A432" d="M951.347 1232.14l.196-.046-.196.045"/><path fill="#94722B" d="M951.665 1232.457l-.318-.318.196-.046.242.242-.12.12"/><path fill="#C9A432" d="M951.347 1232.14l-.332-.333.058-.06-.058-.06.058-.06.468.467-.193.045M961.696 1240.943l-.626-.627.12-.123.628.626-.122.123m-.748-.75l-.654-.65.123-.124.653.65-.122.123m-.774-.773l-.132-.13v-.244l.254.253-.122.12M960.04 1239.29l-.518-.52.123-.123.395.397v.245"/><path fill="#94722B" d="M958.915 1238.164l-.165-.168.12-.12.045.042v.246"/><path fill="#C9A432" d="M959.4 1238.647l-.486-.485-.002-.246.61.608-.12.123"/><path fill="#94722B" d="M958.627 1237.875l-.65-.656.118-.12.655.65-.123.125M957.91 1237.043v-.128l.065.063-.065.065m-.426-.313l-.263-.262.125-.12.14.14v.242"/><path fill="#C9A432" d="M957.855 1237.1l-.37-.37v-.243l.425.426v.128l-.055.06M956.474 1235.72v-.093.094"/><path fill="#94722B" d="M957.1 1236.347l-.626-.626v-.093l.077-.077.672.677-.12.12"/><path fill="#C9A432" d="M956.474 1235.72l-.046-.046.046-.047v.094M956.053 1235.3l.036-.208-.037.21"/><path fill="#94722B" d="M956.053 1235.3l-.43-.43.125-.12.343.342-.037.21"/><path fill="#C9A432" d="M956.305 1235.55l-.25-.25.036-.208.34.34-.125.118M955.44 1234.684l.03-.21-.03.21m-.1-.097l-.458-.457v-.005l.12-.122.34.34v.244"/><path fill="#94722B" d="M955.504 1234.75l-.064-.066.03-.21.158.154-.124.12"/><path fill="#C9A432" d="M955.44 1234.684l-.1-.097v-.243l.13.13-.03.21M954.882 1234.13l-.002-.004h.002v.004M954.556 1233.8c-.016-.097-.036-.194-.05-.29.015.095.034.193.05.29"/><path fill="#94722B" d="M954.556 1233.8l-.448-.448.12-.12.277.277c.016.095.035.193.05.29"/><path fill="#C9A432" d="M954.76 1234.003l-.203-.203c-.015-.097-.035-.194-.05-.29l.375.372-.123.12"/><path fill="#94722B" d="M953.985 1233.23l-.652-.65.123-.123.65.65-.12.123"/><path fill="#C9A432" d="M953.073 1232.077l-.244-.004h-.002l.245.004"/><path fill="#94722B" d="M953.21 1232.457l-.38-.382.243.004.26.256-.122.12"/><path fill="#C9A432" d="M953.073 1232.077l-.245-.004-.19-.188.2-.045.235.237"/><path fill="#94722B" d="M952.64 1231.887l-.08-.08.058-.06-.058-.06.058-.06.22.22-.197.04"/><path fill="#C9A432" d="M960.357 1241.027l-.122-.122 1.487-1.485.06.06.06-.06.062.06-1.547 1.547M958.81 1241.027l-.12-.122.676-.68h.246l-.803.802m1.23-1.23v-.245l.908-.904.122.122-1.03 1.027"/><path fill="#C9A432" d="M959.61 1240.227h-.243l.673-.675v.245l-.395.396-.034.034M961.19 1238.647l-.12-.12.652-.652.06.06.06-.06.06.06-.71.712M957.26 1241.027l-.12-.122.68-.68h.24l-.8.802m2.78-2.777v-.243l.132-.132.122.12-.254.255"/><path fill="#94722B" d="M958.143 1240.15l-.124-.123.897-.897v.242l-.774.778"/><path fill="#C9A432" d="M958.92 1239.372v-.242l1.122-1.123v.243l-1.123 1.122M958.062 1240.227h-.24l.2-.2.123.123-.083.077M960.417 1237.875l-.12-.125.653-.65.122.12-.655.655m.774-.776l-.12-.12.65-.655.062.062.06-.062.06.062-.71.712M955.714 1241.027l-.122-.122.68-.678h.245l-.803.8"/><path fill="#94722B" d="M956.646 1240.097l-.103-.142.94-.94.003.243-.84.84m1.264-1.265v-.243l1.004-1.008v.244l-1.004 1.007"/><path fill="#C9A432" d="M958.914 1237.828v-.244l.49-.485.12.12-.61.608M956.517 1240.227h-.245l.27-.272.107.142-.133.13M957.488 1239.258l-.002-.246.424-.422v.243l-.422.425M960.04 1236.7v-.24l.134-.134.122.12-.256.255"/><path fill="#C9A432" d="M959.645 1237.1l-.123-.12.518-.52v.24l-.395.4M960.417 1236.326l-.12-.12.653-.656.122.124-.655.652m.774-.776l-.12-.12.65-.652.062.06.06-.06.06.06-.71.712M954.167 1241.027l-.122-.122.164-.164h.244l-.287.287m.717-.713v-.245l.457-.46v.243l-.456.46m1.588-1.586v-.245.245"/><path fill="#94722B" d="M956.472 1238.727v-.245l1.013-1.014v.246l-1.013 1.013m1.438-1.443v-.245l.717-.716.123.12-.84.84"/><path fill="#C9A432" d="M955.34 1239.854v-.243l1.13-1.13v.247l-1.13 1.127M957.484 1237.712v-.244l.426-.43v.246l-.426.428M954.454 1240.74h-.244l.67-.67h.002v.244l-.002.002-.426.425M958.914 1236.28v-.242.243"/><path fill="#94722B" d="M958.87 1236.326l-.12-.12.164-.168v.243l-.043.046m.648-.656l-.124-.116.008-.004.116.12"/><path fill="#C9A432" d="M958.914 1236.28v-.242l.485-.484.12.116.004.004-.61.607M960.03 1235.165l-.02-.123.02.123m.01-.01v-.245l.132-.13.122.12-.254.256"/><path fill="#94722B" d="M959.645 1235.55l-.123-.12.472-.47.015.082.02.12-.385.388"/><path fill="#C9A432" d="M960.03 1235.165l-.02-.123-.015-.08.047-.05v.246l-.01.007M960.417 1234.78l-.12-.123.653-.654.122.123-.655.653m.774-.777l-.12-.12.65-.652.062.062.06-.06.06.06-.71.71M952.62 1241.027l-.12-.122.165-.164h.245l-.29.287m2.262-2.24v-.243l.01-.01.45-.445v.24l-.45.445-.01.012m1.59-1.576v-.24.24"/><path fill="#94722B" d="M956.472 1237.21v-.24l1.013-1.003v.243l-1.013 1m1.438-1.424v-.093h-.15l.12-.117.12.122-.09.088"/><path fill="#C9A432" d="M955.34 1238.33v-.24l1.132-1.122v.24l-1.13 1.123M957.486 1236.21v-.243l.272-.274h.152v.093l-.424.424"/><path fill="#94722B" d="M952.987 1240.666l-.124-.12.895-.89.002.242-.773.768"/><path fill="#C9A432" d="M953.764 1239.898l-.004-.242 1.124-1.112v.243l-1.12 1.11M952.908 1240.74h-.245l.2-.193.124.12-.08.074"/><path fill="#94722B" d="M958.122 1235.578l-.12-.122.655-.65.12.124-.655.648"/><path fill="#C9A432" d="M958.915 1234.792v-.242.242"/><path fill="#94722B" d="M958.9 1234.81l-.122-.123.136-.135v.242l-.014.015m.3-.3l-.034-.21.266-.263.123.12-.355.354"/><path fill="#C9A432" d="M958.915 1234.792v-.242l.25-.25.035.207-.285.285M959.813 1233.903l-.035-.207.035.207m.227-.226v-.24l.17-.17.123.12-.293.29"/><path fill="#94722B" d="M959.677 1234.037l-.122-.12.226-.22.033.206-.136.134"/><path fill="#C9A432" d="M959.813 1233.903l-.035-.207.262-.26v.243l-.227.223M960.454 1233.268l-.12-.124.652-.648.123.12-.656.652m.778-.77l-.123-.123.672-.667.12.12-.67.67M951.073 1241.027l-.122-.122.166-.164h.244l-.287.287m3.81-3.81v-.24l.458-.463v.245l-.456.458m1.59-1.59v-.243.242"/><path fill="#94722B" d="M956.474 1235.627v-.242l.605-.608.12.122-.726.727"/><path fill="#C9A432" d="M955.34 1236.76v-.246l1.132-1.13v.243l-1.13 1.134"/><path fill="#94722B" d="M951.49 1240.614l-.103-.143.94-.94v.24l-.838.844m1.263-1.265v-.246l1.003-1.002v.242l-1.003 1.005"/><path fill="#C9A432" d="M953.756 1238.344v-.242l1.106-1.108.022-.017v.242l-1.128 1.124M951.36 1240.74h-.244l.272-.268.103.142-.13.127M952.33 1239.77l-.003-.24.426-.426v.245l-.424.42"/><path fill="#94722B" d="M957.32 1234.78l-.12-.123.655-.654.12.123-.654.653m.775-.777l-.12-.162.652-.65.123.162-.655.65"/><path fill="#C9A432" d="M958.915 1233.186v-.016l.026-.182-.025.182v.016"/><path fill="#94722B" d="M958.87 1233.23l-.12-.122.653-.652.12.123-.557.556-.025-.148-.025.18v.014l-.044.048"/><path fill="#C9A432" d="M958.915 1233.186v-.016l.026-.182.026.15-.05.048M959.54 1232.354l-.01-.028.01.028m.5-.292v-.245l.195-.195.06.062-.06.057.06.064-.255.258"/><path fill="#94722B" d="M959.54 1232.354l-.018-.018.01-.01.008.028"/><path fill="#C9A432" d="M959.645 1232.457l-.105-.103-.01-.028.51-.51v.246l-.395.395M949.44 1240.943l-.12-.126.862-.846v.242l-.743.73m1.874-1.838v-.244h.002l-.002.244m2.442-2.4v-.24.24m1.106-1.087l-.02-.11.02.11m.02-.018v-.24l.46-.45v.24l-.46.45m.49-.48v-.01.01"/><path fill="#94722B" d="M955.373 1235.118v-.01c.017-.09.03-.183.04-.27l.865-.847c-.017.097-.036.194-.05.292l-.855.836"/><path fill="#C9A432" d="M955.34 1235.148v-.24l.074-.075c-.013.09-.024.185-.04.274v.01l-.033.03M956.228 1234.28c.015-.098.034-.193.05-.293l.007-.006.124.123-.182.177"/><path fill="#94722B" d="M951.314 1239.104l.002-.244 1.01-.992v.24l-1.012.996m1.44-1.415v-.242l1.002-.985v.238l-1 .99m1.558-1.535l-.104-.14.615-.603.016.093.02.11-.546.54"/><path fill="#C9A432" d="M954.862 1235.617l-.02-.11-.013-.092.054-.055v.24l-.022.017M953.756 1236.703v-.24l.458-.448.102.14-.56.548M950.183 1240.21v-.238l1.133-1.113-.005.244-1.127 1.107M952.325 1238.108v-.24l.428-.42.002.243-.43.418M956.472 1233.93v-.134.134"/><path fill="#94722B" d="M956.527 1233.983l-.055-.057v-.13l.59-.58.123.123-.658.643"/><path fill="#C9A432" d="M956.472 1233.93l-.064-.066.064-.068v.134"/><path fill="#94722B" d="M957.312 1233.22l-.122-.123.653-.646.123.12-.654.65m.776-.77l-.12-.12.723-.708.06.062-.06.06.06.06-.662.646"/><path fill="#C9A432" d="M949.525 1239.48l-.12-.12.777-.777v.24l-.657.656m1.793-1.79v-.242.243m2.44-2.44v-.244.243m.887-.888l-.035-.21.035.21m.237-.237v-.244l.46-.46v.244l-.46.46"/><path fill="#94722B" d="M955.65 1233.355l.003-.003-.002.003"/><path fill="#C9A432" d="M955.34 1233.665v-.244l.192-.19.12.122v.003l-.31.31"/><path fill="#94722B" d="M951.318 1237.69v-.242l1.007-1.014v.244l-1.007 1.013m1.435-1.435v-.044h-.2l1.203-1.202v.243l-1.003 1.005m1.28-1.28l-.035-.21.61-.61.036.208-.61.612"/><path fill="#C9A432" d="M954.645 1234.362l-.036-.21.27-.27h.002v.243h-.002l-.235.237M953.758 1235.25v-.244l.242-.24.034.207-.276.276M950.183 1238.822v-.24l1.135-1.134v.245l-1.135 1.13M952.327 1236.68v-.245l.226-.225h.2v.044l-.426.425"/><path fill="#94722B" d="M955.774 1233.23l-.086-.086.015-.083.604-.603.122.122-.656.65"/><path fill="#C9A432" d="M955.688 1233.144l-.035-.036.05-.047-.015.084"/><path fill="#94722B" d="M956.55 1232.457l-.122-.12.712-.715.06.063-.06.058.06.064-.65.65"/><path fill="#C9A432" d="M949.525 1237.934l-.12-.122.777-.78v.245l-.657.657m1.793-1.79v-.247.246m2.442-2.444v-.015l.022-.184-.022.185v.014m.66-.66l-.01-.068-.035-.132h.002l.032.132.01.067"/><path fill="#94722B" d="M951.318 1236.143v-.246l.344-.347 2.443-2.44.27-.27.032.132.01.067-.608.61-.03-.15-.023.184v.015l-2.44 2.443"/><path fill="#C9A432" d="M954.42 1233.04l-.01-.068-.035-.132.384-.383.122.122-.462.46M953.76 1233.7v-.014l.022-.184.027.15-.05.047M950.183 1237.276v-.245l1.135-1.132v.247l-1.135 1.13M955.003 1232.457l-.12-.12v-.005l.458-.458v.244l-.337.34"/><path fill="#C9A432" d="M955.34 1232.118v-.244l.252-.252.06.063-.06.058.06.064-.31.31M954.882 1232.336h-.002l.002-.004v.004M949.525 1236.388l-.12-.123.777-.78v.243l-.657.66m.664-.675l.025-.088.034-.203-.035.203-.026.088m1.128-1.117v-.242.242m2.455-2.457l-.2-.046.2.045"/><path fill="#94722B" d="M950.186 1235.726l.004-.013.026-.088.034-.203.86-.862-.05.295-.874.87m1.132-1.13v-.24l.313-.317c.568-.565 1.135-1.135 1.702-1.7l.24-.243.2.045-2.454 2.456"/><path fill="#C9A432" d="M950.183 1235.728v-.243l.057-.055.01-.01-.033.204-.026.085-.003.014-.004.004m3.59-3.59l-.2-.044.472-.472.06.062-.06.06.06.06-.332.335M951.06 1234.853c.014-.096.033-.195.05-.295l.21-.204v.242l-.26.257M949.525 1234.84l-.12-.12.777-.78v.24l-.657.66m2.765-2.767h-.244v-.002l.244.003"/><path fill="#94722B" d="M950.493 1233.87c.018-.097.032-.195.05-.295l1.505-1.504h.246l-1.8 1.8"/><path fill="#C9A432" d="M950.183 1234.18v-.24l.36-.364c-.018.1-.032.198-.05.296l-.31.31m2.11-2.11h-.247l.223-.222.202.037-.18.186"/><path fill="#94722B" d="M952.476 1231.888l-.205-.037.23-.228.12.125-.144.14"/><path fill="#C9A432" d="M949.525 1233.293l-.12-.12.778-.783v.244l-.658.66M950.183 1232.634v-.244l.768-.768.065.063.058.058-.89.89M961.782 1239.48l-1.742-1.74v-.243l1.862 1.862-.12.12m-2.868-2.867v-.244.243m-2.442-2.44v-.247.247m-1.13-1.134l-.46-.457v-.247l.46.46v.243"/><path fill="#94722B" d="M958.914 1236.613l-.164-.167c-.557-.557-1.114-1.11-1.67-1.667l-.608-.607v-.245l.058.056c.782.78 1.56 1.56 2.342 2.343l.043.043v.243m-2.637-2.634l-.625-.628.034-.208.63.63-.04.205"/><path fill="#C9A432" d="M955.653 1233.352l-.312-.313v-.243l.348.345-.035.21M960.04 1237.738l-1.128-1.125v-.245l1.128 1.128v.242M956.472 1234.173l-.194-.196.037-.204.157.153v.247M954.882 1232.58h-.002l-.835-.837.122-.12.715.713v.245M961.782 1237.934l-1.742-1.742v-.244l1.862 1.864-.12.122m-2.076-2.223l.087-.01v.002l-.087.01m-.79-.645v-.245.245m-2.958-2.958l.092-.154-.092.153"/><path fill="#94722B" d="M959.706 1235.71l-.112-.013-.074-.027-.132-.13-.03-.097-.04-.214.477.472-.09.01m-.79-.647l-.137-.136c-.823-.825-1.646-1.65-2.472-2.474l-.347-.346.09-.153.378.378c.825.823 1.648 1.647 2.473 2.473l.015.014v.243"/><path fill="#C9A432" d="M955.958 1232.11l-.366-.367.122-.122.336.336-.092.153M960.04 1236.19l-.522-.52.074.025.11.014.09-.013.248.25v.244m-.654-.652l-.47-.473v-.243l.402.403.035.214.033.098M959.89 1234.366l-.023-.14.024.14"/><path fill="#94722B" d="M959.915 1234.522l-.856-.86c-.016-.098-.037-.198-.053-.295l.86.86.023.14.025.155"/><path fill="#C9A432" d="M960.04 1234.644l-.125-.123-.026-.154-.025-.14.175.175v.244M958.915 1233.52v-.244.245"/><path fill="#94722B" d="M958.915 1233.52l-1.773-1.777.123-.12 1.65 1.653v.245"/><path fill="#C9A432" d="M959.06 1233.663l-.145-.142v-.244l.092.093c.015.094.036.194.052.293M961.782 1236.388l-1.742-1.744v-.243l1.862 1.865-.12.123M959.605 1232.66l-.04-.206-.023-.1.023.1.04.207"/><path fill="#94722B" d="M959.605 1232.66l-.917-.913.123-.125.73.732.023.1.042.207"/><path fill="#C9A432" d="M960.04 1233.097l-.436-.436-.042-.206-.022-.1.5.5v.243M961.782 1234.84l-1.742-1.743v-.243l1.862 1.865-.12.12M961.782 1233.293l-1.547-1.55.122-.12 1.545 1.55-.12.12"/><path fill="#94722B" d="M949.313 1224.918h12.55v16.03h-12.55z"/><g><g fill="#231F20"><path d="M955.345 1032.478v-.594l.757-.824v.648zM955.366 1029.91v-.59l.756-.83v.652zM955.345 1031.216v-.594l.757-.822v.646zM955.366 1028.624v-.59l.756-.824v.646zM955.345 1027.41v-.59l.757-.827v.65zM955.345 1026.126v-.59l.757-.826v.65zM955.366 1024.8v-.59l.756-.826v.648zM955.366 1023.515v-.59l.756-.824v.65zM955.345 1022.3v-.59l.757-.826v.646zM955.345 1021.017v-.592l.757-.822v.646zM955.38 1018.42v-.59l.754-.825v.648zM955.358 1019.728v-.592l.757-.826v.648zM955.38 1017.138v-.592l.754-.824v.648zM955.358 1015.92v-.59l.757-.825v.648zM955.358 1014.64v-.592l.757-.824v.646zM955.38 1013.31v-.588l.754-.826v.646zM955.38 1012.028v-.59l.754-.826v.65zM955.358 1010.812v-.59l.757-.826v.648zM955.358 1009.528v-.59l.757-.826v.65zM955.385 1006.948v-.592l.757-.824v.65zM955.366 1008.253v-.59l.756-.826v.648zM955.385 1005.665v-.59l.757-.826v.647zM955.366 1004.45v-.592l.756-.826v.65zM955.366 1003.165v-.59l.756-.824v.647zM955.385 1001.84v-.593l.757-.826v.65zM955.385 1000.556v-.59l.757-.826v.65zM955.366 999.34v-.59l.756-.827v.648zM955.366 998.056v-.59l.756-.826v.648zM955.385 995.468v-.59l.757-.826v.648zM955.366 996.774v-.59l.756-.826v.645zM955.385 994.185v-.59l.757-.826v.647zM955.366 992.968v-.592l.756-.822v.646zM955.366 991.687v-.592l.756-.826v.65zM955.385 990.358v-.59l.757-.826v.65zM955.385 989.075v-.59l.757-.826v.648zM955.366 987.858v-.59l.756-.826v.65zM955.366 986.575v-.59l.756-.824v.648zM955.366 984.01v-.59l.756-.825v.646zM955.345 985.317v-.593l.757-.823v.646zM955.366 982.726v-.588l.756-.826v.648zM955.345 981.51v-.59l.757-.825v.648zM955.345 980.228v-.592l.757-.824v.648zM955.366 978.9v-.59l.756-.825v.647zM955.366 977.616v-.59l.756-.824v.65zM955.345 976.4v-.59l.757-.827v.65zM955.345 975.118v-.592l.757-.824v.647zM955.366 972.51v-.593l.756-.824v.646zM955.345 973.813v-.59l.757-.826v.647zM955.366 971.226v-.592l.756-.824v.648zM955.345 970.007v-.59l.757-.826v.65zM955.345 968.726v-.592l.757-.826v.648zM955.366 967.397v-.59l.756-.826v.65zM955.366 966.116v-.592l.756-.826v.65zM955.345 964.897v-.59l.757-.824v.65zM955.345 963.614v-.588l.757-.828v.65zM955.385 961.028v-.593l.757-.823v.647zM955.366 962.333v-.592l.756-.823v.646zM955.385 959.743v-.59l.757-.824v.646zM955.366 958.528v-.59l.756-.826v.65zM955.366 957.245v-.592l.756-.824v.646zM955.385 955.92v-.593l.757-.826v.65zM955.385 954.636v-.592l.757-.826v.648zM955.366 953.42v-.593l.756-.824v.648zM955.366 952.134v-.588l.756-.828v.65zM955.385 949.524v-.59l.757-.826v.65zM955.366 950.83v-.593l.756-.822v.648zM955.385 948.243v-.594l.757-.823v.647zM955.366 947.024v-.59l.756-.824v.65zM955.366 945.743v-.592l.756-.823v.65zM955.385 944.415v-.588l.757-.828v.647zM955.385 943.132v-.59l.757-.824v.646zM955.366 941.917v-.592l.756-.824v.647zM955.366 940.634v-.592l.756-.824v.648zM955.366 938.067v-.59l.756-.826v.648zM955.345 939.372v-.592l.757-.824v.648zM955.366 936.784v-.592l.756-.824v.647zM955.345 935.567v-.59l.757-.826v.65zM955.345 934.285v-.59l.757-.826v.646zM955.366 932.958v-.59l.756-.826v.648zM955.366 931.673v-.59l.756-.824v.645zM955.345 930.458v-.59l.757-.825v.648zM955.345 929.174v-.59l.757-.826v.65zM955.385 926.588v-.592l.757-.826v.648zM955.366 927.892v-.59l.756-.827v.65zM955.385 925.303v-.59l.757-.826v.648zM955.366 924.087v-.59l.756-.826v.65zM955.366 922.803v-.59l.756-.825v.65zM955.385 921.478v-.593l.757-.823v.648zM955.385 920.193v-.59l.757-.825v.648zM955.366 918.978v-.59l.756-.826v.648zM955.366 917.694v-.59l.756-.825v.647zM955.366 915.15v-.59l.756-.825v.648zM955.345 916.456v-.592l.757-.823v.648zM955.366 913.867v-.59l.756-.825v.648zM955.345 912.652v-.59l.757-.827v.65zM955.345 911.368v-.59l.757-.826v.65zM955.366 910.042v-.59l.756-.827v.65zM955.366 908.758v-.59l.756-.826v.65zM955.345 907.542v-.59l.757-.827v.65zM955.345 906.26v-.592l.757-.825v.648zM955.385 903.67v-.59l.757-.825v.647zM955.366 904.976v-.592l.756-.823v.648zM955.385 902.387v-.59l.757-.826v.65zM955.366 901.17v-.59l.756-.825v.65zM955.366 899.888v-.59l.756-.826v.65zM955.385 898.56v-.59l.757-.825v.65zM955.385 897.278v-.59l.757-.826v.648zM955.366 896.06v-.59l.756-.825v.648zM955.366 894.778v-.59l.756-.825v.648zM955.385 892.213v-.59l.757-.826v.647zM955.366 893.518v-.592l.756-.824v.648zM955.385 890.93v-.59l.757-.827v.65zM955.366 889.712v-.59l.756-.825v.648zM955.366 888.43v-.59l.756-.826v.65zM955.385 887.103v-.59l.757-.826v.648zM955.385 885.82v-.59l.757-.826v.648zM956.122 883.836l-.756.767v-.59l.756-.825M955.305 1182.937v-.592l.757-.824v.647zM955.326 1180.37v-.592l.756-.826v.65zM955.305 1181.673v-.588l.757-.826v.645zM955.326 1179.085v-.588l.756-.828v.65zM955.305 1177.868v-.588l.757-.828v.65zM955.305 1176.585v-.588l.757-.824v.648zM955.326 1175.26v-.59l.756-.825v.646zM955.326 1173.976v-.59l.756-.824v.648zM955.305 1172.76v-.59l.757-.825v.648zM955.305 1171.476v-.588l.757-.826v.648zM955.337 1168.882v-.59l.757-.826v.648zM955.318 1170.188v-.593l.757-.824v.65zM955.337 1167.6v-.593l.757-.824v.646zM955.318 1166.382v-.59l.757-.824v.646zM955.318 1165.1v-.59l.757-.825v.646zM955.337 1163.772v-.59l.757-.826v.65zM955.337 1162.49v-.59l.757-.827v.65zM955.318 1161.272v-.59l.757-.826v.65zM955.318 1159.99v-.59l.757-.825v.647zM955.345 1157.41v-.59l.757-.827v.65zM955.326 1158.716v-.594l.756-.822v.646zM955.345 1156.126v-.59l.757-.826v.648zM955.326 1154.91v-.59l.756-.825v.647zM955.326 1153.624v-.588l.756-.826v.648zM955.345 1152.298v-.588l.757-.826v.648zM955.345 1151.015v-.588l.757-.826v.65zM955.326 1149.8v-.59l.756-.824v.646zM955.326 1148.517v-.592l.756-.822v.646zM955.345 1145.93v-.593l.757-.824v.646zM955.326 1147.233v-.59l.756-.824v.646zM955.345 1144.646v-.59l.757-.827v.65zM955.326 1143.427v-.588l.756-.827v.648zM955.326 1142.146v-.59l.756-.827v.648zM955.345 1140.82v-.59l.757-.83v.652zM955.345 1139.536v-.59l.757-.826v.65zM955.326 1138.32v-.59l.756-.827v.65zM955.326 1137.036v-.588l.756-.828v.65zM955.326 1134.472v-.592l.756-.824v.646zM955.305 1135.778v-.59l.757-.828v.65zM955.326 1133.188v-.59l.756-.824v.65zM955.305 1131.97v-.588l.757-.828v.65zM955.305 1130.688v-.59l.757-.827v.65zM955.326 1129.358v-.586l.756-.828v.65zM955.326 1128.077v-.59l.756-.826v.652zM955.305 1126.86v-.59l.757-.824v.65zM955.305 1125.58v-.593l.757-.826v.652zM955.326 1122.968v-.588l.756-.826v.648zM955.305 1124.276v-.593l.757-.825v.647zM955.326 1121.683v-.588l.756-.826v.647zM955.305 1120.47v-.592l.757-.824v.646zM955.305 1119.185v-.59l.757-.824v.65zM955.326 1117.858v-.59l.756-.824v.647zM955.326 1116.575v-.59l.756-.826v.65zM955.305 1115.358v-.59l.757-.826v.65zM955.305 1114.077v-.592l.757-.824v.648zM955.345 1111.49v-.593l.757-.826v.65zM955.326 1112.794v-.592l.756-.824v.648zM955.345 1110.206v-.592l.757-.824v.647zM955.326 1108.987v-.59l.756-.824v.65zM955.326 1107.704v-.588l.756-.826v.648zM955.345 1106.38v-.592l.757-.826v.65zM955.345 1105.095v-.588l.757-.828v.647zM955.326 1103.88v-.592l.756-.824v.648zM955.326 1102.595v-.59l.756-.824v.65zM955.345 1099.987v-.59l.757-.826v.65zM955.326 1101.292v-.592l.756-.824v.646zM955.345 1098.702v-.588l.757-.828v.65zM955.326 1097.487v-.59l.756-.828v.648zM955.326 1096.204v-.59l.756-.826v.65zM955.345 1094.878v-.592l.757-.826v.648zM955.345 1093.595V1093l.757-.82v.645zM955.326 1092.376v-.59l.756-.826v.65zM955.326 1091.093v-.59l.756-.824v.647zM955.326 1088.528v-.59l.756-.826v.65zM955.305 1089.833v-.59l.757-.826v.648zM955.326 1087.243v-.588l.756-.826v.648zM955.305 1086.026v-.588l.757-.828v.65zM955.305 1084.745v-.59l.757-.826v.646zM955.326 1083.417v-.588l.756-.827v.648zM955.326 1082.134v-.59l.756-.824v.646zM955.305 1080.92v-.593l.757-.824v.648zM955.305 1079.634v-.588l.757-.828v.65zM955.345 1077.048v-.59l.757-.826v.648zM955.326 1078.354v-.59l.756-.827v.648zM955.345 1075.765v-.59l.757-.826v.647zM955.326 1074.548v-.59l.756-.824v.646zM955.326 1073.265v-.59l.756-.824v.65zM955.345 1071.938v-.59l.757-.826v.647zM955.345 1070.655v-.592l.757-.824v.648zM955.326 1069.437v-.588l.756-.828v.65zM955.326 1068.155v-.59l.756-.826v.648zM955.326 1065.614v-.593l.756-.824v.647zM955.305 1066.917v-.592l.757-.824v.647zM955.326 1064.33v-.593l.756-.824v.65zM955.305 1063.11v-.588l.757-.826v.647zM955.305 1061.83v-.593l.757-.824v.647zM955.326 1060.5v-.587l.756-.828v.648zM955.326 1059.218v-.59l.756-.824v.646zM955.305 1058v-.587l.757-.826v.648zM955.305 1056.718v-.59l.757-.824v.646zM955.345 1054.132v-.592l.757-.826v.65zM955.326 1055.437v-.592l.756-.823v.645zM955.345 1052.85v-.59l.757-.827v.648zM955.326 1051.632v-.59l.756-.826v.648zM955.326 1050.35v-.59l.756-.825v.648zM955.345 1049.022v-.59l.757-.826v.647zM955.345 1047.737v-.59l.757-.824v.65zM955.326 1046.52v-.587l.756-.827v.65zM955.326 1045.24v-.59l.756-.827v.65zM955.345 1042.675v-.594l.757-.82v.647zM955.326 1043.98v-.592l.756-.825v.65zM955.345 1041.39v-.59l.757-.824v.648zM955.326 1040.175v-.592l.756-.824v.645zM955.326 1038.892v-.594l.756-.822v.648zM955.345 1037.563v-.59l.757-.826v.647zM955.345 1036.28v-.59l.757-.824v.65zM955.326 1035.062v-.588l.756-.827v.65zM955.326 1033.78v-.59l.756-.828v.65zM955.305 1208.595V1208l.757-.82v.647zM955.305 1207.312v-.59l.757-.826v.648zM955.345 1204.726v-.594l.757-.824v.648zM955.326 1206.028v-.59l.756-.826v.65zM955.345 1203.44v-.59l.757-.826v.65zM955.326 1202.222v-.588l.756-.826v.648zM955.326 1200.94v-.59l.756-.824v.647zM955.345 1199.612v-.588l.757-.828v.65zM955.345 1198.33v-.59l.757-.825v.647zM955.326 1197.114v-.59l.756-.826v.65zM955.326 1195.83v-.59l.756-.825v.648zM955.345 1193.267v-.592l.757-.824v.65zM955.326 1194.57v-.59l.756-.825v.65zM955.345 1191.983v-.59l.757-.828v.65zM955.326 1190.765v-.59l.756-.826v.647zM955.326 1189.483v-.59l.756-.826v.647zM955.345 1188.153v-.588l.757-.826v.648zM955.345 1186.872v-.59l.757-.824v.646zM955.326 1185.655v-.588l.756-.828v.648zM955.326 1184.372v-.59l.756-.826v.65z"/></g></g></svg>