<?xml version="1.0" encoding="iso-8859-1"?>
<!-- Generator: Adobe Illustrator 16.0.4, SVG Export Plug-In . SVG Version: 6.00 Build 0)  -->
<!DOCTYPE svg PUBLIC "-//W3C//DTD SVG 1.1//EN" "http://www.w3.org/Graphics/SVG/1.1/DTD/svg11.dtd">
<svg version="1.1" xmlns="http://www.w3.org/2000/svg" xmlns:xlink="http://www.w3.org/1999/xlink" x="0px" y="0px" width="1366px"
	 height="700px" viewBox="0 0 1366 700" style="enable-background:new 0 0 1366 700;" xml:space="preserve">
<g id="Foreground">
	<path id="Large_Remote_Mucking_Pile__x28_Timmins_x29_" style="fill:#231F20;" d="M1053.125,533.521l-21.516-0.083
		c0,0-0.912-0.332-0.725-0.561c0.188-0.229,0.792-0.334,0.792-0.438c0-0.104-0.084-0.5-0.042-0.583s0.438-0.396,0.479-0.521
		s0.166-0.125,0.041-0.312c-0.125-0.187-0.416-0.521-0.25-0.771c0.168-0.25,0.375-0.521,0.375-0.625
		c0-0.104-0.207-0.271-0.146-0.458c0.062-0.188,0.375-0.375,0.479-0.438c0.104-0.062-0.271-0.5-0.209-0.625
		c0.062-0.125,0.584-0.501,0.729-0.542s0.625-0.229,0.625-0.312s-0.188-0.041-0.188-0.291s-0.084-0.541,0.146-0.688
		c0.229-0.146,0.459-0.293,0.521-0.459c0.062-0.166-0.084-0.082-0.084-0.416s-0.146-0.438,0.043-0.584
		c0.188-0.146,0.812-0.438,0.938-0.625c0.126-0.187,0.541-0.188,0.458-0.375c-0.083-0.187-0.104-0.229-0.354-0.271
		s-0.688-0.188-0.521-0.396s0.75-0.833,0.812-0.938c0.062-0.105,0.084-0.104,0.416-0.333c0.334-0.229,0.48-0.501,0.48-0.709
		s-0.043-0.146-0.043-0.541c0-0.396,0.062-0.562,0.23-0.667c0.166-0.104,0.521-0.208,0.5-0.5c-0.021-0.292-0.418-0.563,0-0.792
		c0.416-0.229,0.854-0.499,0.854-0.604c0-0.104-0.229-0.396-0.188-0.646s0.312-0.458,0.25-0.583
		c-0.062-0.125-0.229-0.208-0.125-0.438c0.104-0.229,0.625-0.5,0.729-0.625c0.105-0.125,0.146-0.229,0.125-0.5
		c-0.02-0.271,0.376-0.749,0.543-0.896c0.166-0.146,0.75-0.416,0.791-0.688c0.041-0.271-0.062-0.354,0.104-0.542
		c0.168-0.188,0.625-0.126,0.75-0.354c0.125-0.229,0.043-0.625,0.25-0.688c0.209-0.062,0.543-0.457,0.771-0.354
		c0.229,0.103,1.354,0.562,1.438,0.708c0.084,0.146,0.75,0.436,0.834,0.54c0.082,0.104,0.271,0.729,0.375,0.896
		c0.104,0.167,0.354,0.333,0.354,0.708s0.396,0.958,0.584,1.188c0.188,0.229,1.188,0.978,1.146,1.332
		c-0.041,0.354,0.25,1.563,0.396,1.896s0.916,0.707,0.938,0.979c0.022,0.271,0.084,0.96,0.188,1.146
		c0.104,0.188,0.166,0.479,0.291,0.917c0.125,0.438,1.021,1.02,1.146,1.312s-0.229,0.834-0.188,1.104
		c0.041,0.271,0.458,0.666,0.604,0.875c0.146,0.209,0.709,1.165,0.793,1.271c0.082,0.104,0.125,0.771,0.166,1.021
		s0.688,1.021,0.834,1.271c0.146,0.25,0.271,0.729,0.5,0.875c0.229,0.146,0.541,0.834,0.541,1.084s-0.146,0.688-0.041,0.917
		c0.104,0.229,0.416,0.332,0.625,0.582c0.207,0.25,0,0.521-0.021,0.71C1053.447,533.27,1053.125,533.521,1053.125,533.521z"/>
	<path id="Small_Remote_Mucking_Pile__x28_Timmins_x29_" style="fill:#231F20;" d="M1025.504,533.438
		c-0.304-0.124-0.298-0.336-0.238-0.647c0.037-0.189,0.305-0.352,0.438-0.5c0.087-0.096-0.144-0.248-0.167-0.396
		c-0.061-0.374-0.125-0.374-0.125-0.688c0-0.195,0.27-0.235,0.438-0.438c0.099-0.118,0.223-0.598,0.312-0.667
		c0.243-0.188,0.621-0.219,0.621-0.594c0-0.149-0.063-0.438-0.017-0.635c0.07-0.297,0.625-0.354,0.625-0.354s0.207-0.485,0.458-0.5
		c0.354-0.021,0.457,0.255,0.625,0.208s0.438-0.264,0.438-0.375c0-0.229,0.34-0.354,0.583-0.416
		c0.146-0.037,0.709,0.083,0.834,0.229c0.171,0.199,0.592-0.136,0.812-0.104c0.292,0.042,0.817,0.39,0.817,0.7
		c0,0.312,0.243,0.686,0.426,0.624c0.182-0.062,0.549,0,0.486,0.374c-0.061,0.374,0.426,0.935,0.426,0.935s0.914,0.188,0.671,0.437
		c-0.244,0.25-0.061,0.499,0.121,0.561c0.183,0.063,0.426,0.438,0.426,0.626c0,0.186-0.243-0.25,0,0.186
		c0.243,0.437,0.366,0.499,0.366,0.687c0,0.187,0.104,0.783,0.104,0.783L1025.504,533.438z"/>
	<path id="Large_Mucking_with_Scooptram_Pile__x28_Timmins_x29_" style="fill:#231F20;" d="M1089.908,595.087l-17.658-0.149
		c0,0-0.01-0.1,0.095-0.184s0.375-0.188,0.25-0.209c-0.125-0.021-0.396-0.208-0.354-0.333s0.043-0.063,0.188-0.167
		c0.146-0.104,0.271-0.083,0.291-0.333s-0.229-0.146,0.021-0.25c0.25-0.104,0.438,0.084,0.459-0.083
		c0.02-0.167,0.021-0.229,0.125-0.292c0.104-0.063,0.312,0.021,0.312-0.125c0-0.146-0.125-0.25-0.062-0.312
		c0.062-0.062,0.062,0.042,0.25-0.188c0.188-0.23,0.375-0.291,0.291-0.458s-0.146-0.146-0.062-0.417
		c0.084-0.271-0.063-0.292,0.166-0.312c0.229-0.02,0.293-0.124,0.334-0.271c0.041-0.147,0.021-0.459,0.271-0.521
		c0.25-0.062,0.604-0.042,0.625-0.125c0.021-0.083-0.125-0.416,0.084-0.604c0.209-0.188,0.666-0.166,0.75-0.312
		c0.084-0.146-0.188-0.458-0.021-0.562c0.167-0.104,0.375-0.062,0.5-0.167c0.125-0.105,0.292-0.021,0.292-0.333
		c0-0.312,0.041-0.501,0.229-0.521c0.188-0.02,0.229,0.104,0.459,0.104c0.229,0,0.332,0,0.416-0.125s0.125-0.334,0.271-0.354
		c0.146-0.02,0.354,0.063,0.5,0.084c0.146,0.021,0.459,0.125,0.562,0c0.104-0.125,0.062-0.396,0.312-0.417
		c0.25-0.021,0.354-0.083,0.375,0.042s0.125,0.229,0.312,0.146c0.187-0.083,0.229-0.166,0.229-0.271c0-0.104,0.084-0.479,0.229-0.5
		c0.146-0.021,0.5,0.041,0.5,0.146c0,0.104,0.062,0.271,0.125,0.375c0.063,0.104,0.166,0.167,0.271,0.125s0.229-0.146,0.417-0.125
		c0.188,0.021,0.396,0.188,0.521,0.354s0.146,0.229,0.271,0.146s0.229-0.271,0.458-0.125c0.229,0.146,0.125,0.042,0.25,0.292
		s0.229-0.001,0.438,0.104c0.209,0.105,0.354,0.104,0.291,0.292c-0.062,0.188-0.207,0.438-0.062,0.5
		c0.146,0.062,0.229-0.104,0.333-0.104s0.188,0.126,0.271,0.271c0.084,0.146,0.25,0.271,0.291,0.166
		c0.043-0.104,0.271-0.104,0.396-0.104s0.271,0.062,0.271,0.229s-0.127,0.396,0.041,0.438c0.166,0.042,0.188-0.104,0.459-0.104
		c0.271,0,0.332,0.041,0.396,0.271c0.063,0.229-0.229,0.124-0.083,0.458s0.021,0.292,0.271,0.417s0.521,0.083,0.5,0.271
		c-0.021,0.188-0.125-0.042-0.125,0.375s0.082,0.501,0.25,0.521c0.166,0.02,0.291,0.208,0.291,0.333s-0.084,0.229-0.104,0.354
		s0.021,0.25,0.125,0.312c0.104,0.062,0.249-0.021,0.333,0.104s0.042-0.062-0.021,0.292c-0.063,0.354-0.271,0.354,0,0.521
		c0.271,0.167,0.416,0.084,0.541,0.146c0.125,0.062,0.271,0.146,0.271,0.291c0,0.146,0.042,0.25,0.167,0.25s0.042-0.124,0.25,0.021
		c0.208,0.145,0.312,0.167,0.291,0.312C1089.826,594.838,1089.908,595.087,1089.908,595.087z"/>
	<path id="Small_Mucking_with_Scooptram_Pile__x28_Timmins_x29_" style="fill:#231F20;" d="M1068.905,594.918
		c-0.304-0.124-0.298-0.336-0.238-0.647c0.037-0.189,0.305-0.352,0.438-0.5c0.087-0.096-0.144-0.248-0.167-0.396
		c-0.061-0.374-0.125-0.374-0.125-0.688c0-0.195,0.27-0.235,0.438-0.438c0.099-0.118,0.223-0.598,0.312-0.667
		c0.243-0.188,0.621-0.219,0.621-0.594c0-0.149-0.063-0.438-0.017-0.635c0.07-0.297,0.625-0.354,0.625-0.354s0.207-0.485,0.458-0.5
		c0.354-0.021,0.457,0.255,0.625,0.208s0.438-0.264,0.438-0.375c0-0.229,0.34-0.354,0.583-0.416
		c0.146-0.037,0.709,0.083,0.834,0.229c0.171,0.199,0.592-0.136,0.812-0.104c0.292,0.042,0.817,0.39,0.817,0.7
		c0,0.312,0.243,0.686,0.426,0.624c0.182-0.062,0.549,0,0.486,0.374c-0.061,0.374,0.426,0.935,0.426,0.935s0.914,0.188,0.671,0.437
		c-0.244,0.25-0.061,0.499,0.121,0.561c0.183,0.063,0.426,0.438,0.426,0.626c0,0.186-0.243-0.25,0,0.186
		c0.243,0.437,0.366,0.499,0.366,0.687c0,0.187,0.104,0.783,0.104,0.783L1068.905,594.918z"/>
	<path id="Large_Remote_Mucking_Pile__x28_Thunder_Creek_x29_" style="fill:#231F20;" d="M351.759,552.191l-19.665,0.062
		c0,0-0.75-0.479-0.562-0.708c0.188-0.229,0.793-0.334,0.793-0.438c0-0.104-0.084-0.5-0.043-0.583s0.438-0.396,0.479-0.521
		s0.167-0.125,0.042-0.312c-0.125-0.187-0.417-0.521-0.25-0.771s0.375-0.521,0.375-0.625c0-0.104-0.208-0.271-0.146-0.458
		c0.062-0.188,0.375-0.375,0.479-0.438c0.104-0.062-0.271-0.5-0.208-0.625s0.584-0.501,0.729-0.542
		c0.146-0.041,0.625-0.229,0.625-0.312s-0.188-0.041-0.188-0.291s-0.084-0.541,0.146-0.688c0.229-0.146,0.457-0.293,0.521-0.459
		s-0.083-0.082-0.083-0.416s-0.146-0.438,0.042-0.584c0.188-0.146,0.812-0.438,0.938-0.625c0.125-0.187,0.541-0.188,0.457-0.375
		c-0.082-0.187-0.104-0.229-0.354-0.271s-0.688-0.188-0.521-0.396c0.168-0.209,0.75-0.833,0.812-0.938
		c0.062-0.105,0.083-0.104,0.417-0.333c0.334-0.229,0.479-0.501,0.479-0.709s-0.043-0.146-0.043-0.541
		c0-0.396,0.063-0.562,0.229-0.667c0.166-0.105,0.521-0.208,0.5-0.5s-0.417-0.563,0-0.792c0.417-0.229,0.854-0.499,0.854-0.604
		c0-0.104-0.229-0.396-0.188-0.646s0.312-0.458,0.25-0.583s-0.229-0.208-0.125-0.438c0.104-0.229,0.625-0.5,0.729-0.625
		c0.104-0.125,0.146-0.229,0.125-0.5c-0.021-0.271,0.375-0.749,0.541-0.896c0.168-0.147,0.75-0.416,0.793-0.688
		c0.041-0.271-0.063-0.354,0.104-0.542c0.167-0.188,0.625-0.126,0.75-0.354c0.125-0.229,0.042-0.625,0.25-0.688
		c0.208-0.062,0.542-0.457,0.771-0.354c0.229,0.103,1.354,0.562,1.438,0.708c0.084,0.146,0.75,0.436,0.833,0.54
		c0.083,0.104,0.271,0.729,0.375,0.896s0.354,0.333,0.354,0.708s0.396,0.958,0.582,1.188c0.188,0.229,1.188,0.978,1.146,1.332
		c-0.042,0.354,0.25,1.563,0.396,1.896c0.146,0.333,0.916,0.707,0.938,0.979c0.021,0.271,0.083,0.96,0.188,1.146
		c0.105,0.188,0.168,0.479,0.293,0.917c0.125,0.438,0.02,1.02,0.145,1.312s-0.229,0.834-0.188,1.104
		c0.041,0.271,0.457,0.666,0.604,0.875s0.709,1.165,0.792,1.271c0.083,0.104,0.125,0.771,0.167,1.021s-0.312,1.021-0.167,1.271
		s0.271,0.729,0.5,0.875c0.229,0.146,0.542,0.834,0.542,1.084s-0.146,0.688-0.042,0.917c0.104,0.229,0.417,0.332,0.625,0.582
		s0,0.521-0.021,0.71C352.094,551.938,351.759,552.191,351.759,552.191z"/>
	<path id="Small_Remote_Mucking_Pile__x28_Thunder_Creek_x29_" style="fill:#231F20;" d="M323.284,552.194
		c-0.312-0.128-0.312-0.256-0.25-0.576s0.562-0.448,0.5-0.832s-0.25-0.576-0.25-0.896s0.375-0.768,0.625-0.96
		s0.688-0.384,0.688-0.769c0-0.384,0.25-1.151,0.25-1.151s0.625-0.129,0.875-0.192c0.25-0.064,0.75-0.128,0.875-0.32
		s0.438-0.384,0.688-0.448c0.25-0.063,1.125,0.128,1.688,0.256c0.562,0.129,0.938,0.257,0.938,0.576c0,0.32,0.25,0.704,0.438,0.641
		c0.188-0.064,0.562,0,0.5,0.384c-0.062,0.385,0.438,0.96,0.438,0.96s0.938,0.192,0.688,0.448s-0.062,0.513,0.125,0.576
		c0.188,0.064,0.438,0.448,0.438,0.641c0,0.191-0.25-0.256,0,0.191c0.25,0.448,0.375,0.513,0.375,0.704
		c0,0.192,0.107,0.805,0.107,0.805L323.284,552.194z"/>
	<path id="Small_Remote_Mucking_Pile__x28_Timmins_x29__1_" style="fill:#231F20;" d="M759.509,558.547
		c-0.146-0.046-0.142-0.126-0.112-0.243c0.017-0.07,0.145-0.132,0.208-0.188c0.041-0.036-0.069-0.093-0.079-0.148
		c-0.03-0.141-0.06-0.141-0.06-0.258c0-0.073,0.128-0.089,0.209-0.165c0.047-0.044,0.105-0.224,0.149-0.25
		c0.115-0.071,0.297-0.082,0.297-0.223c0-0.057-0.031-0.165-0.009-0.238c0.033-0.112,0.3-0.134,0.3-0.134s0.098-0.182,0.219-0.188
		c0.169-0.008,0.219,0.096,0.299,0.078s0.208-0.1,0.208-0.141c0-0.086,0.163-0.133,0.28-0.156c0.069-0.015,0.338,0.031,0.397,0.086
		c0.082,0.074,0.284-0.052,0.39-0.039c0.14,0.016,0.391,0.146,0.391,0.263c0,0.117,0.117,0.258,0.204,0.234s0.262,0,0.232,0.141
		s0.204,0.351,0.204,0.351s0.436,0.07,0.32,0.164c-0.117,0.094-0.029,0.188,0.058,0.211s0.204,0.164,0.204,0.234
		s-0.117-0.094,0,0.07c0.116,0.164,0.175,0.188,0.175,0.258s0.05,0.294,0.05,0.294L759.509,558.547z"/>
</g>
<g id="Layer_1">
</g>
</svg>
