<svg xmlns="http://www.w3.org/2000/svg" width="1366" height="700" viewBox="0 0 1366 700"><g fill="#231f20"><path d="M1053.125 533.52l-21.516-.082s-.913-.332-.726-.56c.188-.23.792-.335.792-.44 0-.103-.084-.5-.042-.582s.438-.396.48-.52.165-.126.04-.313-.416-.52-.25-.77c.168-.25.375-.522.375-.626 0-.104-.208-.27-.147-.458.062-.19.375-.376.48-.44.103-.06-.272-.5-.21-.624.062-.125.584-.5.73-.542s.624-.23.624-.312-.188-.04-.188-.29-.085-.542.145-.69c.23-.145.46-.292.52-.458.063-.166-.083-.082-.083-.416s-.146-.438.043-.584c.188-.146.812-.438.938-.625.126-.188.54-.19.458-.376-.082-.187-.103-.23-.353-.27s-.688-.19-.52-.397.75-.833.81-.938c.063-.106.085-.105.417-.334.334-.23.48-.5.48-.71s-.043-.145-.043-.54c0-.396.063-.562.23-.667.167-.105.522-.21.5-.5-.02-.293-.417-.564 0-.793.417-.23.855-.5.855-.604 0-.104-.23-.396-.188-.646s.312-.458.25-.583c-.062-.125-.23-.208-.125-.438.104-.23.625-.5.73-.625.104-.124.145-.228.124-.5-.02-.27.376-.748.543-.895.165-.146.75-.416.79-.688.04-.27-.062-.354.104-.542.168-.188.625-.126.75-.354.125-.228.043-.624.25-.687.21-.062.543-.457.77-.354.23.102 1.355.56 1.44.707.083.146.75.436.833.54.082.104.27.73.375.896.104.167.354.333.354.708s.396.96.584 1.19c.188.228 1.188.977 1.146 1.33-.04.355.25 1.564.396 1.897s.916.707.938.98c.022.27.084.96.188 1.145.104.188.166.48.29.917.126.437 1.022 1.02 1.147 1.31s-.23.835-.188 1.105c.04.27.458.666.604.875.147.21.71 1.165.794 1.27.082.105.125.772.166 1.022s.688 1.02.834 1.27c.146.25.27.73.5.876.23.146.54.834.54 1.084s-.145.688-.04.917c.104.228.416.33.625.58.206.25 0 .522-.022.71-.02.19-.343.44-.343.44z"/><path d="M1025.504 533.438c-.304-.124-.298-.336-.238-.647.037-.188.305-.35.438-.5.087-.095-.144-.247-.167-.395-.06-.374-.125-.374-.125-.688 0-.195.27-.235.438-.438.1-.12.223-.6.312-.668.243-.188.62-.22.62-.594 0-.15-.062-.438-.016-.635.07-.297.625-.354.625-.354s.208-.486.46-.5c.353-.022.456.254.624.207s.438-.264.438-.375c0-.23.34-.354.583-.416.146-.037.71.083.834.23.17.198.59-.137.81-.105.293.043.818.39.818.7 0 .313.243.687.426.625.182-.062.55 0 .486.374-.06.373.426.934.426.934s.914.188.67.437c-.243.25-.06.5.122.562.183.063.426.438.426.626 0 .186-.243-.25 0 .186.243.437.366.5.366.687 0 .188.104.784.104.784l-9.48-.036zM1089.908 595.087l-17.658-.15s-.01-.1.095-.183.375-.188.25-.21c-.125-.02-.396-.207-.354-.332s.044-.063.19-.167c.145-.104.27-.083.29-.333s-.23-.146.02-.25c.25-.104.44.084.46-.083.02-.168.02-.23.125-.293.104-.063.312.02.312-.125 0-.146-.125-.25-.062-.312.062-.062.062.042.25-.188s.375-.29.29-.458-.145-.146-.06-.417c.083-.27-.064-.292.165-.312.23-.02.293-.124.334-.27.04-.148.02-.46.27-.522s.605-.042.626-.125c.02-.083-.125-.416.084-.604.21-.188.666-.166.75-.312.084-.146-.188-.458-.02-.562.166-.104.374-.062.5-.167.124-.105.29-.02.29-.333 0-.312.042-.5.23-.52.188-.02.23.103.46.103.228 0 .33 0 .415-.125s.124-.334.27-.354c.146-.02.354.063.5.084.146.02.46.125.562 0 .104-.125.062-.396.312-.417.25-.02.354-.082.375.043s.124.23.31.146c.188-.084.23-.167.23-.272 0-.104.084-.48.23-.5.145-.02.5.04.5.146 0 .104.06.27.124.375.063.103.166.166.27.124s.23-.146.418-.125c.188.02.396.187.52.353s.147.23.272.146.23-.272.458-.126c.23.146.125.042.25.292s.23 0 .438.104c.21.105.354.104.29.292-.06.188-.206.438-.06.5.145.062.228-.104.332-.104s.188.126.27.27c.085.147.25.272.292.167.043-.104.27-.104.396-.104s.27.063.27.23-.126.396.042.438c.166.042.188-.104.46-.104.27 0 .33.04.395.27.063.23-.23.125-.083.46s.02.29.27.416.522.083.5.27c-.02.19-.124-.04-.124.376s.082.5.25.52c.166.02.29.21.29.334s-.083.23-.103.354.02.25.125.312c.104.062.25-.02.333.104s.042-.062-.02.292c-.064.354-.272.354 0 .52.27.168.415.085.54.147.125.06.27.145.27.29 0 .146.043.25.168.25s.042-.124.25.02c.208.146.312.168.29.313-.017.145.065.394.065.394z"/><path d="M1068.905 594.918c-.304-.124-.298-.336-.238-.647.037-.188.305-.35.438-.5.087-.095-.144-.247-.167-.395-.06-.374-.125-.374-.125-.688 0-.195.27-.235.438-.438.1-.12.224-.6.313-.668.243-.188.62-.22.62-.594 0-.15-.062-.438-.016-.635.07-.297.625-.354.625-.354s.207-.486.458-.5c.354-.022.457.254.625.207s.438-.264.438-.375c0-.23.34-.354.583-.416.146-.037.71.083.834.23.17.198.592-.137.812-.105.292.043.817.39.817.7 0 .313.242.687.425.625.182-.062.55 0 .486.374-.06.373.427.934.427.934s.914.188.67.437c-.243.25-.06.5.122.562.182.063.425.438.425.626 0 .186-.243-.25 0 .186.243.437.366.5.366.687 0 .188.105.784.105.784l-9.48-.036zM351.76 552.19l-19.666.063s-.75-.48-.562-.708c.188-.23.793-.334.793-.438 0-.104-.084-.5-.043-.583s.438-.396.48-.52.166-.126.04-.313c-.124-.186-.416-.52-.25-.77s.376-.52.376-.625c0-.104-.208-.27-.146-.458s.375-.375.48-.438c.103-.063-.272-.5-.21-.626s.585-.5.73-.542c.146-.04.625-.23.625-.312s-.188-.04-.188-.29-.085-.542.145-.69c.23-.145.457-.292.52-.458s-.082-.082-.082-.416-.146-.438.042-.584c.188-.146.812-.438.938-.625.125-.187.54-.188.457-.375-.082-.187-.104-.23-.354-.27s-.688-.19-.52-.397c.167-.21.75-.833.81-.938.063-.105.084-.104.418-.333.334-.23.48-.5.48-.71s-.044-.145-.044-.54c0-.396.063-.562.23-.667.165-.105.52-.208.5-.5s-.418-.563 0-.792c.416-.23.853-.5.853-.604 0-.103-.23-.395-.188-.645s.312-.458.25-.583-.23-.208-.125-.438c.104-.23.625-.5.73-.625.103-.126.145-.23.124-.5-.02-.272.375-.75.54-.897.17-.147.75-.416.794-.688.04-.27-.063-.354.104-.542.167-.188.625-.126.75-.354.125-.23.042-.626.25-.69.208-.06.542-.456.77-.353.23.103 1.355.562 1.44.708.083.146.75.436.832.54.083.104.27.73.375.896s.353.334.353.71.396.957.582 1.187c.188.23 1.188.978 1.146 1.332-.04.353.25 1.562.397 1.895.146.333.916.707.938.98.02.27.083.96.188 1.145.105.188.168.48.293.917.125.438.02 1.02.145 1.312s-.228.833-.187 1.103c.04.27.457.666.604.875s.71 1.165.792 1.27c.082.105.124.772.166 1.022s-.312 1.02-.167 1.27.27.73.5.876c.228.146.54.834.54 1.084s-.145.688-.04.917c.103.23.416.332.624.582s0 .52-.02.71c-.02.188-.355.44-.355.44z"/><path d="M323.284 552.194c-.312-.128-.312-.256-.25-.576s.562-.448.5-.832-.25-.576-.25-.896.375-.768.625-.96.687-.384.687-.77c0-.383.25-1.15.25-1.15s.625-.13.875-.192c.25-.064.75-.128.875-.32s.438-.384.688-.448c.25-.063 1.125.128 1.688.256.562.13.938.257.938.576 0 .32.25.704.44.64.187-.063.56 0 .5.385-.063.385.437.96.437.96s.938.192.688.448-.062.513.125.576c.188.065.438.45.438.642 0 .19-.25-.256 0 .19.25.45.375.514.375.705 0 .192.107.805.107.805l-9.736-.038zM759.51 558.547c-.147-.046-.143-.126-.113-.243.017-.07.145-.132.208-.188.04-.036-.07-.093-.08-.148-.03-.14-.06-.14-.06-.258 0-.073.13-.09.21-.165.047-.044.105-.224.15-.25.114-.07.296-.082.296-.223 0-.057-.03-.165-.008-.238.033-.112.3-.134.3-.134s.098-.182.22-.188c.168-.008.218.096.298.078s.208-.1.208-.14c0-.087.163-.134.28-.157.07-.015.338.03.397.086.082.073.284-.053.39-.04.14.016.39.146.39.263 0 .117.118.258.205.234s.262 0 .232.14.204.352.204.352.436.07.32.163c-.117.094-.03.188.058.21s.204.165.204.235-.117-.094 0 .07c.116.164.175.188.175.258s.05.294.05.294l-4.534-.013z"/></g></svg>