<?xml version="1.0" encoding="utf-8"?>
<!-- Generator: Adobe Illustrator 16.0.4, SVG Export Plug-In . SVG Version: 6.00 Build 0)  -->
<!DOCTYPE svg PUBLIC "-//W3C//DTD SVG 1.1//EN" "http://www.w3.org/Graphics/SVG/1.1/DTD/svg11.dtd">
<svg version="1.1" id="Equipment" xmlns="http://www.w3.org/2000/svg" xmlns:xlink="http://www.w3.org/1999/xlink" x="0px" y="0px"
	 width="1366px" height="700px" viewBox="149.496 666.643 1366 700" enable-background="new 149.496 666.643 1366 700"
	 xml:space="preserve">
<g id="Ground_Support">
	<g id="GS_Bit_11">
		<path d="M1243.64,1281.421l0.092-0.499c0,0,0.092-0.12,0.33-0.283c0.236-0.164,0.459-0.315,0.486-0.457
			c0.026-0.143-0.095,0.444-0.105,0.499c-0.01,0.055-0.238,0.23-0.432,0.351C1243.816,1281.149,1243.64,1281.421,1243.64,1281.421z"
			/>
		<path d="M1243.805,1280.536l0.093-0.497c0,0,0.091-0.12,0.328-0.285c0.236-0.164,0.459-0.312,0.486-0.457
			c0.026-0.143-0.094,0.445-0.104,0.5c-0.012,0.055-0.239,0.231-0.434,0.35C1243.981,1280.267,1243.805,1280.536,1243.805,1280.536z
			"/>
		<path d="M1243.989,1279.633l0.094-0.498c0,0,0.091-0.121,0.328-0.284c0.236-0.165,0.459-0.313,0.486-0.457
			c0.027-0.143-0.095,0.445-0.104,0.5c-0.01,0.054-0.238,0.23-0.433,0.351C1244.167,1279.362,1243.989,1279.633,1243.989,1279.633z"
			/>
		<path d="M1244.144,1278.805l0.094-0.498c0,0,0.092-0.12,0.328-0.285c0.236-0.164,0.459-0.313,0.486-0.456
			c0.027-0.144-0.094,0.444-0.104,0.499c-0.012,0.056-0.239,0.23-0.434,0.35C1244.321,1278.533,1244.144,1278.805,1244.144,1278.805
			z"/>
		<path d="M1244.298,1277.914l0.094-0.496c0,0,0.205-0.23,0.305-0.318c0.15-0.132,0.43-0.085,0.43-0.085l-0.024,0.161
			c-0.011,0.055-0.238,0.23-0.433,0.349C1244.475,1277.644,1244.298,1277.914,1244.298,1277.914z"/>
		<polygon points="1245.118,1276.993 1244.964,1276.986 1244.835,1277.003 1244.856,1276.916 1244.835,1276.815 		"/>
		<polygon points="1244.53,1277.196 1244.484,1277.009 1244.503,1276.878 1244.796,1276.817 1244.821,1276.925 1244.665,1277.08 		
			"/>
		<path d="M1242.97,1284.924l0.094-0.498c0,0,0.09-0.121,0.327-0.285c0.237-0.165,0.46-0.312,0.486-0.456
			c0.027-0.144-0.095,0.445-0.104,0.499c-0.01,0.055-0.238,0.231-0.432,0.352C1243.146,1284.652,1242.97,1284.924,1242.97,1284.924z
			"/>
		<path d="M1243.124,1284.095l0.093-0.497c0,0,0.091-0.121,0.329-0.285c0.236-0.164,0.459-0.313,0.486-0.457
			c0.026-0.144-0.095,0.445-0.104,0.499c-0.011,0.056-0.239,0.232-0.433,0.351
			C1243.301,1283.824,1243.124,1284.095,1243.124,1284.095z"/>
		<path d="M1243.32,1283.137l0.093-0.498c0,0,0.09-0.121,0.328-0.285c0.237-0.164,0.461-0.313,0.486-0.456
			c0.027-0.144-0.094,0.444-0.104,0.5c-0.011,0.055-0.237,0.229-0.433,0.349C1243.497,1282.865,1243.32,1283.137,1243.32,1283.137z"
			/>
		<path d="M1243.475,1282.308l0.093-0.498c0,0,0.09-0.121,0.328-0.285c0.236-0.164,0.46-0.312,0.486-0.456
			c0.027-0.144-0.094,0.445-0.104,0.499c-0.01,0.055-0.238,0.23-0.433,0.35C1243.651,1282.036,1243.475,1282.308,1243.475,1282.308z
			"/>
		<path d="M1242.62,1286.798l0.094-0.498c0,0,0.092-0.12,0.328-0.284s0.46-0.313,0.486-0.456c0.027-0.144-0.094,0.444-0.104,0.498
			c-0.011,0.055-0.238,0.231-0.433,0.351C1242.798,1286.527,1242.62,1286.798,1242.62,1286.798z"/>
		<path d="M1242.816,1285.84l0.093-0.498c0,0,0.091-0.121,0.328-0.285c0.237-0.165,0.46-0.312,0.486-0.456
			c0.027-0.144-0.094,0.445-0.104,0.499c-0.012,0.055-0.238,0.23-0.434,0.349C1242.993,1285.569,1242.816,1285.84,1242.816,1285.84z
			"/>
		<rect x="1242.416" y="1286.752" width="1.202" height="0.321"/>
	</g>
	<g id="GS_Bit_10">
		<rect x="1237.719" y="1286.745" width="1.202" height="0.321"/>
		<path d="M1238.987,1281.473l0.094-0.497c0,0,0.091-0.121,0.328-0.286c0.236-0.163,0.461-0.312,0.486-0.456
			c0.026-0.144-0.094,0.445-0.104,0.499c-0.011,0.056-0.238,0.231-0.434,0.351
			C1239.165,1281.202,1238.987,1281.473,1238.987,1281.473z"/>
		<path d="M1239.153,1280.589l0.092-0.498c0,0,0.092-0.12,0.328-0.284c0.238-0.164,0.46-0.313,0.487-0.456
			c0.026-0.144-0.095,0.444-0.104,0.499c-0.01,0.054-0.238,0.23-0.433,0.35S1239.153,1280.589,1239.153,1280.589z"/>
		<path d="M1239.338,1279.686l0.093-0.499c0,0,0.092-0.12,0.328-0.284c0.237-0.163,0.461-0.312,0.486-0.456
			c0.027-0.143-0.094,0.444-0.104,0.499s-0.238,0.23-0.433,0.351C1239.515,1279.414,1239.338,1279.686,1239.338,1279.686z"/>
		<path d="M1239.493,1278.856l0.092-0.499c0,0,0.092-0.12,0.328-0.283c0.238-0.164,0.461-0.313,0.487-0.457s-0.095,0.444-0.104,0.5
			c-0.011,0.054-0.238,0.23-0.433,0.351C1239.669,1278.586,1239.493,1278.856,1239.493,1278.856z"/>
		<path d="M1239.646,1277.967l0.093-0.498c0,0,0.206-0.229,0.307-0.316c0.15-0.133,0.429-0.085,0.429-0.085l-0.024,0.16
			c-0.011,0.054-0.238,0.231-0.433,0.35C1239.823,1277.697,1239.646,1277.967,1239.646,1277.967z"/>
		<polygon points="1240.466,1277.047 1240.312,1277.039 1240.185,1277.056 1240.206,1276.969 1240.185,1276.869 		"/>
		<polygon points="1239.878,1277.248 1239.833,1277.062 1239.852,1276.93 1240.144,1276.869 1240.17,1276.977 1240.015,1277.133 		
			"/>
		<path d="M1238.318,1284.976l0.093-0.497c0,0,0.092-0.121,0.328-0.286c0.236-0.164,0.459-0.312,0.486-0.455
			c0.027-0.144-0.094,0.444-0.104,0.499s-0.239,0.23-0.434,0.35C1238.495,1284.705,1238.318,1284.976,1238.318,1284.976z"/>
		<path d="M1238.472,1284.146l0.093-0.498c0,0,0.093-0.119,0.329-0.283s0.46-0.313,0.486-0.458c0.027-0.143-0.094,0.445-0.104,0.501
			c-0.011,0.053-0.238,0.23-0.433,0.349C1238.648,1283.877,1238.472,1284.146,1238.472,1284.146z"/>
		<path d="M1238.669,1283.188l0.092-0.498c0,0,0.092-0.121,0.329-0.285c0.237-0.163,0.46-0.312,0.487-0.456
			c0.025-0.144-0.096,0.445-0.105,0.5s-0.238,0.23-0.433,0.351C1238.845,1282.918,1238.669,1283.188,1238.669,1283.188z"/>
		<path d="M1238.822,1282.359l0.093-0.497c0,0,0.092-0.121,0.328-0.285c0.237-0.164,0.461-0.313,0.487-0.457
			c0.027-0.143-0.095,0.445-0.104,0.5s-0.238,0.231-0.433,0.35C1238.999,1282.089,1238.822,1282.359,1238.822,1282.359z"/>
		<path d="M1237.969,1286.851l0.093-0.497c0,0,0.092-0.122,0.328-0.286c0.238-0.163,0.461-0.312,0.486-0.456
			c0.027-0.143-0.094,0.445-0.104,0.499c-0.01,0.056-0.238,0.231-0.432,0.351
			C1238.146,1286.579,1237.969,1286.851,1237.969,1286.851z"/>
		<path d="M1238.165,1285.893l0.093-0.499c0,0,0.091-0.12,0.328-0.285c0.237-0.163,0.46-0.312,0.487-0.456
			c0.026-0.142-0.096,0.444-0.105,0.5c-0.01,0.055-0.238,0.23-0.432,0.35C1238.342,1285.621,1238.165,1285.893,1238.165,1285.893z"
			/>
	</g>
	<g id="GS_Bit_9">
		<rect x="1233.315" y="1286.745" width="1.201" height="0.321"/>
		<path d="M1234.575,1281.456l0.094-0.499c0,0,0.092-0.12,0.328-0.283c0.237-0.165,0.46-0.313,0.487-0.457
			c0.026-0.144-0.095,0.444-0.104,0.5c-0.01,0.054-0.238,0.23-0.433,0.349C1234.753,1281.186,1234.575,1281.456,1234.575,1281.456z"
			/>
		<path d="M1234.741,1280.572l0.093-0.498c0,0,0.091-0.12,0.328-0.285c0.237-0.164,0.46-0.312,0.487-0.455
			c0.025-0.145-0.096,0.444-0.105,0.498c-0.01,0.056-0.238,0.231-0.433,0.35C1234.917,1280.301,1234.741,1280.572,1234.741,1280.572
			z"/>
		<path d="M1234.926,1279.668l0.093-0.497c0,0,0.092-0.121,0.329-0.285c0.236-0.165,0.46-0.313,0.486-0.457
			c0.027-0.143-0.094,0.444-0.104,0.5c-0.01,0.055-0.238,0.23-0.432,0.35C1235.103,1279.397,1234.926,1279.668,1234.926,1279.668z"
			/>
		<path d="M1235.081,1278.839l0.092-0.498c0,0,0.092-0.12,0.329-0.284s0.46-0.312,0.487-0.456c0.025-0.143-0.095,0.445-0.105,0.499
			c-0.01,0.054-0.238,0.231-0.432,0.351C1235.257,1278.568,1235.081,1278.839,1235.081,1278.839z"/>
		<path d="M1235.235,1277.95l0.092-0.498c0,0,0.207-0.229,0.307-0.316c0.15-0.133,0.429-0.086,0.429-0.086l-0.024,0.161
			c-0.01,0.054-0.238,0.23-0.432,0.35C1235.411,1277.68,1235.235,1277.95,1235.235,1277.95z"/>
		<polygon points="1236.055,1277.028 1235.901,1277.022 1235.772,1277.038 1235.793,1276.952 1235.772,1276.851 		"/>
		<polygon points="1235.466,1277.232 1235.421,1277.044 1235.439,1276.912 1235.731,1276.854 1235.759,1276.96 1235.603,1277.116 		
			"/>
		<path d="M1233.906,1284.959l0.093-0.497c0,0,0.092-0.121,0.328-0.285c0.236-0.165,0.461-0.313,0.487-0.457s-0.095,0.444-0.104,0.5
			c-0.01,0.055-0.238,0.23-0.433,0.349C1234.083,1284.689,1233.906,1284.959,1233.906,1284.959z"/>
		<path d="M1234.061,1284.13l0.093-0.498c0,0,0.092-0.12,0.328-0.284c0.238-0.164,0.461-0.313,0.487-0.456
			c0.026-0.144-0.095,0.444-0.104,0.498c-0.01,0.055-0.238,0.232-0.433,0.351C1234.237,1283.859,1234.061,1284.13,1234.061,1284.13z
			"/>
		<path d="M1234.257,1283.171l0.092-0.497c0,0,0.092-0.121,0.329-0.285s0.46-0.312,0.487-0.456c0.025-0.144-0.095,0.445-0.104,0.499
			c-0.011,0.055-0.239,0.23-0.433,0.35C1234.434,1282.9,1234.257,1283.171,1234.257,1283.171z"/>
		<path d="M1234.411,1282.342l0.093-0.498c0,0,0.092-0.119,0.328-0.283c0.237-0.164,0.46-0.313,0.486-0.458
			c0.027-0.143-0.094,0.445-0.104,0.501c-0.01,0.053-0.238,0.23-0.432,0.35C1234.587,1282.072,1234.411,1282.342,1234.411,1282.342z
			"/>
		<path d="M1233.557,1286.833l0.094-0.497c0,0,0.091-0.12,0.328-0.285c0.236-0.164,0.46-0.312,0.485-0.457
			c0.028-0.143-0.093,0.445-0.104,0.5c-0.01,0.055-0.238,0.231-0.432,0.351C1233.733,1286.563,1233.557,1286.833,1233.557,1286.833z
			"/>
		<path d="M1233.753,1285.875l0.094-0.498c0,0,0.09-0.12,0.328-0.284c0.236-0.165,0.459-0.313,0.486-0.457
			c0.026-0.144-0.095,0.444-0.105,0.499c-0.01,0.055-0.238,0.231-0.432,0.351C1233.93,1285.604,1233.753,1285.875,1233.753,1285.875
			z"/>
	</g>
	<g id="GS_Bit_8">
		<path d="M1229.417,1281.547l0.094-0.498c0,0,0.091-0.119,0.328-0.283c0.236-0.164,0.461-0.314,0.487-0.458
			c0.026-0.143-0.095,0.445-0.104,0.5c-0.011,0.055-0.238,0.231-0.433,0.351C1229.595,1281.276,1229.417,1281.547,1229.417,1281.547
			z"/>
		<path d="M1229.582,1280.664l0.093-0.499c0,0,0.092-0.121,0.328-0.285c0.238-0.163,0.461-0.312,0.488-0.455
			c0.025-0.143-0.096,0.444-0.105,0.499s-0.238,0.232-0.433,0.351S1229.582,1280.664,1229.582,1280.664z"/>
		<path d="M1229.768,1279.76l0.093-0.498c0,0,0.092-0.12,0.328-0.284c0.238-0.164,0.461-0.313,0.487-0.456
			c0.026-0.144-0.095,0.443-0.104,0.498c-0.01,0.056-0.238,0.231-0.432,0.35C1229.944,1279.489,1229.768,1279.76,1229.768,1279.76z"
			/>
		<path d="M1229.923,1278.932l0.092-0.499c0,0,0.091-0.121,0.328-0.284c0.237-0.164,0.461-0.313,0.487-0.457
			c0.026-0.143-0.095,0.445-0.104,0.5s-0.238,0.231-0.432,0.351C1230.099,1278.66,1229.923,1278.932,1229.923,1278.932z"/>
		<path d="M1230.077,1278.041l0.092-0.498c0,0,0.205-0.228,0.307-0.315c0.15-0.134,0.428-0.087,0.428-0.087l-0.023,0.162
			c-0.01,0.054-0.238,0.23-0.433,0.35S1230.077,1278.041,1230.077,1278.041z"/>
		<polygon points="1230.896,1277.121 1230.742,1277.113 1230.613,1277.13 1230.636,1277.044 1230.614,1276.943 		"/>
		<polygon points="1230.308,1277.324 1230.263,1277.136 1230.281,1277.003 1230.573,1276.944 1230.6,1277.051 1230.444,1277.207 		
			"/>
		<path d="M1228.748,1285.05l0.093-0.497c0,0,0.091-0.121,0.328-0.286c0.237-0.163,0.461-0.312,0.487-0.455
			s-0.095,0.444-0.105,0.499c-0.009,0.056-0.237,0.23-0.432,0.351C1228.925,1284.78,1228.748,1285.05,1228.748,1285.05z"/>
		<path d="M1228.901,1284.221l0.094-0.497c0,0,0.092-0.12,0.328-0.285c0.237-0.164,0.461-0.312,0.486-0.456
			c0.027-0.143-0.094,0.445-0.104,0.5c-0.01,0.054-0.238,0.231-0.432,0.35C1229.079,1283.951,1228.901,1284.221,1228.901,1284.221z"
			/>
		<path d="M1229.099,1283.264l0.093-0.499c0,0,0.091-0.121,0.328-0.285c0.237-0.163,0.46-0.312,0.486-0.455
			c0.026-0.144-0.095,0.444-0.104,0.498c-0.01,0.056-0.238,0.231-0.433,0.351
			C1229.274,1282.991,1229.099,1283.264,1229.099,1283.264z"/>
		<path d="M1229.253,1282.434l0.092-0.497c0,0,0.092-0.12,0.328-0.285c0.238-0.164,0.461-0.313,0.487-0.456
			c0.026-0.145-0.094,0.444-0.104,0.5c-0.01,0.055-0.238,0.229-0.432,0.35C1229.429,1282.164,1229.253,1282.434,1229.253,1282.434z"
			/>
		<path d="M1228.399,1286.925l0.092-0.497c0,0,0.092-0.121,0.328-0.285c0.238-0.164,0.461-0.313,0.487-0.456
			c0.026-0.145-0.095,0.444-0.104,0.499s-0.238,0.23-0.432,0.35C1228.575,1286.655,1228.399,1286.925,1228.399,1286.925z"/>
		<path d="M1228.595,1285.966l0.094-0.497c0,0,0.09-0.121,0.328-0.285c0.236-0.164,0.459-0.313,0.486-0.457
			c0.026-0.143-0.095,0.445-0.104,0.5c-0.011,0.056-0.239,0.231-0.433,0.35C1228.771,1285.695,1228.595,1285.966,1228.595,1285.966z
			"/>
		<rect x="1228.187" y="1286.727" width="1.203" height="0.32"/>
	</g>
	<g id="GS_Bit_7">
		<path d="M1225.521,1281.424l0.093-0.497c0,0,0.091-0.12,0.327-0.284c0.238-0.165,0.461-0.313,0.488-0.458
			c0.026-0.143-0.094,0.445-0.104,0.5c-0.012,0.055-0.239,0.231-0.434,0.35C1225.697,1281.154,1225.521,1281.424,1225.521,1281.424z
			"/>
		<path d="M1225.685,1280.54l0.094-0.498c0,0,0.091-0.12,0.328-0.284c0.236-0.164,0.459-0.313,0.486-0.456
			c0.026-0.144-0.094,0.444-0.104,0.499c-0.011,0.055-0.239,0.231-0.434,0.351C1225.861,1280.27,1225.685,1280.54,1225.685,1280.54z
			"/>
		<path d="M1225.87,1279.637l0.094-0.498c0,0,0.092-0.12,0.328-0.285c0.236-0.164,0.459-0.312,0.486-0.456
			c0.027-0.143-0.094,0.445-0.104,0.499c-0.011,0.055-0.238,0.232-0.434,0.35C1226.048,1279.366,1225.87,1279.637,1225.87,1279.637z
			"/>
		<path d="M1226.024,1278.808l0.094-0.497c0,0,0.092-0.121,0.328-0.285c0.237-0.164,0.46-0.313,0.486-0.457
			c0.027-0.143-0.094,0.444-0.104,0.5c-0.011,0.055-0.238,0.23-0.433,0.351C1226.202,1278.537,1226.024,1278.808,1226.024,1278.808z
			"/>
		<path d="M1226.18,1277.919l0.092-0.498c0,0,0.206-0.229,0.306-0.317c0.152-0.132,0.43-0.085,0.43-0.085l-0.024,0.16
			c-0.011,0.056-0.237,0.231-0.433,0.351C1226.356,1277.648,1226.18,1277.919,1226.18,1277.919z"/>
		<polygon points="1226.999,1276.998 1226.846,1276.99 1226.717,1277.006 1226.738,1276.921 1226.717,1276.819 		"/>
		<polygon points="1226.411,1277.2 1226.365,1277.012 1226.384,1276.881 1226.677,1276.822 1226.702,1276.929 1226.548,1277.084 		
			"/>
		<path d="M1224.851,1284.928l0.094-0.498c0,0,0.09-0.12,0.328-0.285c0.236-0.163,0.459-0.312,0.486-0.456
			c0.026-0.143-0.095,0.444-0.104,0.499c-0.012,0.055-0.24,0.23-0.434,0.351C1225.027,1284.656,1224.851,1284.928,1224.851,1284.928
			z"/>
		<path d="M1225.005,1284.099l0.093-0.498c0,0,0.091-0.12,0.329-0.284c0.236-0.165,0.459-0.313,0.486-0.457
			c0.026-0.144-0.094,0.445-0.104,0.5c-0.011,0.054-0.237,0.23-0.433,0.35S1225.005,1284.099,1225.005,1284.099z"/>
		<path d="M1225.2,1283.14l0.094-0.499c0,0,0.092-0.119,0.328-0.283c0.237-0.163,0.46-0.313,0.487-0.457
			c0.026-0.143-0.095,0.444-0.104,0.5c-0.01,0.054-0.238,0.23-0.433,0.351C1225.378,1282.869,1225.2,1283.14,1225.2,1283.14z"/>
		<path d="M1225.355,1282.312l0.093-0.498c0,0,0.092-0.121,0.328-0.286c0.237-0.163,0.461-0.312,0.486-0.455
			c0.027-0.143-0.094,0.444-0.104,0.499s-0.238,0.23-0.433,0.351C1225.532,1282.04,1225.355,1282.312,1225.355,1282.312z"/>
		<path d="M1224.501,1286.803l0.094-0.498c0,0,0.092-0.121,0.328-0.286c0.236-0.163,0.46-0.312,0.486-0.455
			c0.027-0.144-0.094,0.445-0.104,0.499c-0.011,0.055-0.239,0.23-0.433,0.35C1224.679,1286.531,1224.501,1286.803,1224.501,1286.803
			z"/>
		<path d="M1224.698,1285.844l0.092-0.498c0,0,0.092-0.121,0.328-0.286c0.237-0.163,0.461-0.313,0.486-0.455
			c0.027-0.143-0.094,0.444-0.104,0.498c-0.01,0.056-0.238,0.231-0.433,0.351S1224.698,1285.844,1224.698,1285.844z"/>
		<rect x="1224.254" y="1286.745" width="1.202" height="0.321"/>
	</g>
	<g id="GS_Bit_6">
		<path d="M1220.798,1281.382l0.093-0.497c0,0,0.091-0.12,0.327-0.285c0.238-0.163,0.461-0.313,0.487-0.457
			c0.026-0.143-0.094,0.444-0.104,0.5c-0.01,0.055-0.238,0.229-0.432,0.351C1220.975,1281.111,1220.798,1281.382,1220.798,1281.382z
			"/>
		<path d="M1220.962,1280.498l0.093-0.498c0,0,0.092-0.121,0.329-0.285c0.236-0.164,0.459-0.312,0.486-0.455
			c0.026-0.145-0.095,0.444-0.105,0.499c-0.01,0.055-0.236,0.231-0.432,0.35C1221.139,1280.229,1220.962,1280.498,1220.962,1280.498
			z"/>
		<path d="M1221.147,1279.595l0.093-0.499c0,0,0.091-0.12,0.329-0.284c0.236-0.164,0.459-0.313,0.486-0.456
			c0.025-0.143-0.094,0.445-0.105,0.499c-0.01,0.055-0.237,0.23-0.432,0.351C1221.324,1279.323,1221.147,1279.595,1221.147,1279.595
			z"/>
		<path d="M1221.302,1278.766l0.094-0.498c0,0,0.091-0.121,0.328-0.285c0.236-0.164,0.46-0.312,0.486-0.456
			c0.027-0.143-0.095,0.445-0.105,0.5c-0.01,0.054-0.236,0.23-0.432,0.35C1221.479,1278.496,1221.302,1278.766,1221.302,1278.766z"
			/>
		<path d="M1221.456,1277.876l0.093-0.497c0,0,0.206-0.229,0.306-0.317c0.152-0.132,0.43-0.085,0.43-0.085l-0.024,0.16
			c-0.011,0.055-0.239,0.231-0.433,0.351C1221.633,1277.606,1221.456,1277.876,1221.456,1277.876z"/>
		<polygon points="1222.276,1276.955 1222.122,1276.949 1221.993,1276.964 1222.015,1276.878 1221.993,1276.777 		"/>
		<polygon points="1221.688,1277.158 1221.642,1276.97 1221.661,1276.838 1221.952,1276.779 1221.979,1276.886 1221.824,1277.042 		
			"/>
		<path d="M1220.128,1284.886l0.092-0.498c0,0,0.092-0.121,0.329-0.285s0.46-0.313,0.487-0.457c0.025-0.143-0.095,0.445-0.104,0.5
			c-0.011,0.055-0.239,0.23-0.433,0.351C1220.304,1284.614,1220.128,1284.886,1220.128,1284.886z"/>
		<path d="M1220.282,1284.056l0.093-0.497c0,0,0.091-0.121,0.328-0.286c0.237-0.163,0.46-0.312,0.486-0.455
			c0.027-0.144-0.094,0.445-0.104,0.499c-0.01,0.055-0.238,0.231-0.432,0.351
			C1220.458,1283.785,1220.282,1284.056,1220.282,1284.056z"/>
		<path d="M1220.478,1283.098l0.093-0.498c0,0,0.092-0.121,0.329-0.285s0.46-0.312,0.486-0.456s-0.094,0.445-0.104,0.5
			c-0.011,0.054-0.24,0.23-0.433,0.35C1220.654,1282.827,1220.478,1283.098,1220.478,1283.098z"/>
		<path d="M1220.632,1282.269l0.093-0.497c0,0,0.091-0.12,0.329-0.285c0.237-0.164,0.461-0.313,0.486-0.457
			c0.027-0.144-0.094,0.445-0.104,0.5s-0.238,0.23-0.433,0.35C1220.81,1281.998,1220.632,1282.269,1220.632,1282.269z"/>
		<path d="M1219.778,1286.759l0.093-0.497c0,0,0.091-0.12,0.329-0.284c0.237-0.164,0.459-0.313,0.486-0.458
			c0.026-0.143-0.094,0.445-0.104,0.501c-0.011,0.054-0.239,0.229-0.433,0.35
			C1219.955,1286.489,1219.778,1286.759,1219.778,1286.759z"/>
		<path d="M1219.975,1285.801l0.092-0.497c0,0,0.093-0.121,0.329-0.285c0.236-0.165,0.46-0.313,0.486-0.457
			c0.027-0.144-0.094,0.445-0.104,0.5c-0.011,0.055-0.239,0.23-0.434,0.35S1219.975,1285.801,1219.975,1285.801z"/>
		<rect x="1219.544" y="1286.745" width="1.201" height="0.321"/>
	</g>
	<g id="GS_Bit_5">
		<rect x="1214.245" y="1286.752" width="1.201" height="0.321"/>
		<path d="M1215.471,1281.553l0.093-0.499c0,0,0.092-0.121,0.328-0.284c0.237-0.164,0.461-0.313,0.486-0.456
			c0.027-0.144-0.093,0.444-0.104,0.499c-0.01,0.055-0.238,0.231-0.432,0.351
			C1215.647,1281.281,1215.471,1281.553,1215.471,1281.553z"/>
		<path d="M1215.636,1280.669l0.093-0.498c0,0,0.091-0.121,0.328-0.285s0.46-0.312,0.487-0.456c0.025-0.144-0.096,0.445-0.105,0.499
			c-0.011,0.055-0.238,0.23-0.432,0.35C1215.812,1280.397,1215.636,1280.669,1215.636,1280.669z"/>
		<path d="M1215.82,1279.765l0.093-0.498c0,0,0.092-0.121,0.328-0.284c0.238-0.164,0.461-0.313,0.488-0.457
			c0.026-0.143-0.096,0.444-0.105,0.499s-0.238,0.23-0.432,0.351C1215.997,1279.494,1215.82,1279.765,1215.82,1279.765z"/>
		<path d="M1215.976,1278.937l0.092-0.499c0,0,0.092-0.12,0.329-0.285c0.237-0.163,0.46-0.312,0.487-0.455
			c0.025-0.144-0.096,0.444-0.105,0.498c-0.01,0.056-0.238,0.232-0.432,0.351
			C1216.151,1278.665,1215.976,1278.937,1215.976,1278.937z"/>
		<path d="M1216.13,1278.046l0.092-0.497c0,0,0.206-0.229,0.307-0.316c0.15-0.134,0.429-0.087,0.429-0.087l-0.024,0.161
			c-0.01,0.055-0.237,0.231-0.432,0.35C1216.306,1277.776,1216.13,1278.046,1216.13,1278.046z"/>
		<polygon points="1216.948,1277.126 1216.796,1277.118 1216.667,1277.135 1216.688,1277.048 1216.667,1276.948 		"/>
		<polygon points="1216.36,1277.328 1216.315,1277.141 1216.334,1277.009 1216.627,1276.949 1216.652,1277.056 1216.497,1277.212 		
			"/>
		<path d="M1214.801,1285.055l0.093-0.497c0,0,0.092-0.121,0.328-0.285c0.237-0.164,0.461-0.312,0.487-0.456
			c0.026-0.145-0.095,0.444-0.104,0.5c-0.01,0.055-0.238,0.23-0.433,0.35S1214.801,1285.055,1214.801,1285.055z"/>
		<path d="M1214.956,1284.227l0.092-0.498c0,0,0.092-0.12,0.328-0.285c0.238-0.164,0.461-0.312,0.487-0.456
			s-0.095,0.446-0.104,0.499c-0.01,0.055-0.238,0.231-0.432,0.35C1215.132,1283.956,1214.956,1284.227,1214.956,1284.227z"/>
		<path d="M1215.151,1283.269l0.093-0.499c0,0,0.091-0.12,0.328-0.285c0.237-0.163,0.46-0.312,0.487-0.455
			c0.025-0.144-0.096,0.444-0.105,0.499s-0.238,0.23-0.432,0.35C1215.328,1282.997,1215.151,1283.269,1215.151,1283.269z"/>
		<path d="M1215.306,1282.438l0.093-0.497c0,0,0.091-0.121,0.328-0.285s0.46-0.313,0.487-0.456c0.026-0.144-0.094,0.444-0.105,0.499
			c-0.01,0.055-0.237,0.231-0.432,0.351C1215.481,1282.168,1215.306,1282.438,1215.306,1282.438z"/>
		<path d="M1214.451,1286.93l0.094-0.498c0,0,0.091-0.12,0.328-0.284s0.46-0.313,0.486-0.457s-0.095,0.445-0.104,0.5
			c-0.01,0.054-0.238,0.23-0.432,0.351C1214.628,1286.659,1214.451,1286.93,1214.451,1286.93z"/>
		<path d="M1214.647,1285.971l0.093-0.498c0,0,0.091-0.119,0.329-0.284c0.236-0.164,0.459-0.312,0.486-0.457
			c0.026-0.143-0.094,0.445-0.104,0.501c-0.011,0.054-0.238,0.23-0.433,0.35S1214.647,1285.971,1214.647,1285.971z"/>
	</g>
	<g id="GS_Bit_4">
		<rect x="1208.535" y="1286.745" width="1.202" height="0.321"/>
		<path d="M1209.767,1281.539l0.092-0.497c0,0,0.092-0.12,0.329-0.285c0.236-0.164,0.46-0.312,0.486-0.456s-0.094,0.445-0.104,0.499
			c-0.01,0.055-0.238,0.231-0.432,0.351C1209.943,1281.27,1209.767,1281.539,1209.767,1281.539z"/>
		<path d="M1209.931,1280.656l0.094-0.498c0,0,0.09-0.12,0.327-0.284s0.46-0.313,0.487-0.457c0.025-0.144-0.094,0.445-0.105,0.499
			c-0.01,0.056-0.237,0.231-0.432,0.351S1209.931,1280.656,1209.931,1280.656z"/>
		<path d="M1210.116,1279.752l0.094-0.497c0,0,0.09-0.121,0.326-0.285c0.238-0.165,0.461-0.312,0.488-0.456
			s-0.094,0.445-0.105,0.499c-0.01,0.055-0.236,0.231-0.432,0.351C1210.293,1279.481,1210.116,1279.752,1210.116,1279.752z"/>
		<path d="M1210.271,1278.923l0.093-0.497c0,0,0.091-0.121,0.328-0.285c0.237-0.163,0.46-0.312,0.487-0.456
			c0.026-0.144-0.095,0.445-0.104,0.5c-0.011,0.054-0.238,0.231-0.433,0.349C1210.448,1278.653,1210.271,1278.923,1210.271,1278.923
			z"/>
		<path d="M1210.425,1278.034l0.094-0.498c0,0,0.205-0.229,0.305-0.316c0.15-0.133,0.43-0.085,0.43-0.085l-0.025,0.16
			c-0.01,0.055-0.236,0.23-0.432,0.351C1210.602,1277.764,1210.425,1278.034,1210.425,1278.034z"/>
		<polygon points="1211.245,1277.113 1211.091,1277.105 1210.962,1277.121 1210.983,1277.037 1210.962,1276.935 		"/>
		<polygon points="1210.656,1277.315 1210.61,1277.127 1210.63,1276.996 1210.922,1276.938 1210.948,1277.044 1210.792,1277.199 		
			"/>
		<path d="M1209.097,1285.043l0.092-0.499c0,0,0.092-0.12,0.328-0.284c0.238-0.164,0.461-0.312,0.488-0.456
			c0.026-0.143-0.094,0.444-0.105,0.499c-0.01,0.055-0.237,0.232-0.432,0.351
			C1209.272,1284.772,1209.097,1285.043,1209.097,1285.043z"/>
		<path d="M1209.251,1284.215l0.092-0.5c0,0,0.092-0.119,0.33-0.283c0.236-0.163,0.459-0.313,0.485-0.456
			c0.026-0.144-0.094,0.444-0.104,0.499c-0.01,0.055-0.236,0.23-0.432,0.351C1209.428,1283.943,1209.251,1284.215,1209.251,1284.215
			z"/>
		<path d="M1209.446,1283.255l0.093-0.498c0,0,0.092-0.12,0.329-0.284c0.236-0.163,0.46-0.313,0.486-0.456
			c0.027-0.144-0.094,0.444-0.104,0.499c-0.011,0.054-0.238,0.231-0.433,0.351
			C1209.623,1282.984,1209.446,1283.255,1209.446,1283.255z"/>
		<path d="M1209.601,1282.428l0.094-0.499c0,0,0.09-0.121,0.328-0.284c0.237-0.165,0.46-0.313,0.486-0.457
			c0.027-0.143-0.095,0.445-0.104,0.499c-0.011,0.056-0.237,0.231-0.433,0.35
			C1209.778,1282.155,1209.601,1282.428,1209.601,1282.428z"/>
		<path d="M1208.747,1286.918l0.093-0.499c0,0,0.091-0.12,0.328-0.285c0.237-0.163,0.461-0.312,0.487-0.454
			c0.027-0.144-0.095,0.444-0.105,0.498c-0.01,0.055-0.237,0.231-0.432,0.35C1208.924,1286.646,1208.747,1286.918,1208.747,1286.918
			z"/>
		<path d="M1208.943,1285.959l0.093-0.498c0,0,0.091-0.12,0.328-0.284c0.236-0.164,0.459-0.314,0.487-0.457
			c0.026-0.143-0.095,0.445-0.104,0.499c-0.012,0.055-0.238,0.231-0.433,0.351
			C1209.12,1285.688,1208.943,1285.959,1208.943,1285.959z"/>
	</g>
	<g id="GS_Bit_3">
		<rect x="1202.571" y="1286.752" width="1.201" height="0.321"/>
		<path d="M1203.808,1281.439l0.094-0.499c0,0,0.091-0.12,0.329-0.284c0.236-0.164,0.46-0.312,0.485-0.457
			c0.027-0.143-0.094,0.446-0.104,0.5c-0.011,0.055-0.239,0.231-0.433,0.35C1203.985,1281.168,1203.808,1281.439,1203.808,1281.439z
			"/>
		<path d="M1203.974,1280.556l0.092-0.498c0,0,0.091-0.121,0.329-0.285c0.237-0.164,0.46-0.313,0.487-0.456
			c0.025-0.144-0.096,0.445-0.105,0.499s-0.238,0.231-0.432,0.35C1204.149,1280.284,1203.974,1280.556,1203.974,1280.556z"/>
		<path d="M1204.159,1279.651l0.092-0.498c0,0,0.092-0.12,0.329-0.284s0.46-0.313,0.487-0.457c0.025-0.144-0.095,0.445-0.105,0.5
			c-0.01,0.054-0.238,0.23-0.433,0.35S1204.159,1279.651,1204.159,1279.651z"/>
		<path d="M1204.313,1278.823l0.092-0.498c0,0,0.092-0.121,0.329-0.285c0.237-0.165,0.46-0.313,0.487-0.456
			c0.025-0.144-0.096,0.444-0.105,0.499s-0.236,0.23-0.432,0.35S1204.313,1278.823,1204.313,1278.823z"/>
		<path d="M1204.468,1277.934l0.093-0.498c0,0,0.204-0.229,0.306-0.317c0.15-0.132,0.428-0.085,0.428-0.085l-0.023,0.16
			c-0.01,0.055-0.238,0.23-0.433,0.35C1204.646,1277.662,1204.468,1277.934,1204.468,1277.934z"/>
		<polygon points="1205.287,1277.012 1205.134,1277.005 1205.004,1277.021 1205.025,1276.935 1205.005,1276.834 		"/>
		<polygon points="1204.699,1277.215 1204.653,1277.026 1204.672,1276.896 1204.964,1276.836 1204.989,1276.943 1204.835,1277.099 
					"/>
		<path d="M1203.139,1284.941l0.093-0.497c0,0,0.092-0.12,0.328-0.284c0.237-0.164,0.46-0.314,0.487-0.457
			c0.026-0.144-0.094,0.444-0.104,0.5c-0.011,0.054-0.238,0.23-0.433,0.35S1203.139,1284.941,1203.139,1284.941z"/>
		<path d="M1203.293,1284.113l0.092-0.498c0,0,0.092-0.121,0.329-0.285s0.461-0.312,0.487-0.456
			c0.026-0.143-0.095,0.445-0.104,0.499c-0.011,0.055-0.238,0.231-0.433,0.351
			C1203.47,1283.842,1203.293,1284.113,1203.293,1284.113z"/>
		<path d="M1203.488,1283.154l0.094-0.498c0,0,0.091-0.12,0.327-0.284c0.238-0.164,0.461-0.313,0.488-0.457
			c0.025-0.143-0.096,0.444-0.105,0.5c-0.01,0.055-0.237,0.23-0.433,0.35C1203.665,1282.884,1203.488,1283.154,1203.488,1283.154z"
			/>
		<path d="M1203.643,1282.326l0.093-0.498c0,0,0.092-0.121,0.329-0.285s0.46-0.313,0.487-0.456c0.025-0.144-0.094,0.444-0.105,0.499
			c-0.01,0.054-0.238,0.23-0.432,0.351C1203.819,1282.055,1203.643,1282.326,1203.643,1282.326z"/>
		<path d="M1202.79,1286.817l0.092-0.499c0,0,0.092-0.121,0.328-0.284c0.237-0.164,0.461-0.313,0.488-0.457
			c0.025-0.143-0.095,0.444-0.105,0.5c-0.01,0.054-0.237,0.23-0.432,0.351C1202.966,1286.546,1202.79,1286.817,1202.79,1286.817z"/>
		<path d="M1202.985,1285.857l0.094-0.498c0,0,0.091-0.121,0.328-0.284c0.236-0.165,0.459-0.312,0.486-0.456
			c0.025-0.144-0.095,0.445-0.104,0.5c-0.011,0.053-0.239,0.23-0.433,0.35C1203.161,1285.588,1202.985,1285.857,1202.985,1285.857z"
			/>
	</g>
	<g id="GS_Bit_2">
		<path d="M1197.605,1281.406l0.093-0.497c0,0,0.091-0.12,0.327-0.284c0.238-0.165,0.461-0.313,0.488-0.458
			c0.026-0.143-0.094,0.445-0.104,0.5c-0.012,0.055-0.239,0.231-0.434,0.35C1197.782,1281.137,1197.605,1281.406,1197.605,1281.406z
			"/>
		<path d="M1197.77,1280.522l0.094-0.498c0,0,0.091-0.12,0.328-0.284c0.236-0.164,0.459-0.313,0.486-0.456
			c0.026-0.144-0.094,0.444-0.104,0.499c-0.011,0.055-0.239,0.231-0.434,0.351C1197.946,1280.252,1197.77,1280.522,1197.77,1280.522
			z"/>
		<path d="M1197.955,1279.619l0.094-0.498c0,0,0.092-0.12,0.328-0.285c0.236-0.164,0.459-0.312,0.486-0.456
			c0.027-0.143-0.094,0.445-0.104,0.499c-0.011,0.055-0.238,0.232-0.434,0.35
			C1198.133,1279.349,1197.955,1279.619,1197.955,1279.619z"/>
		<path d="M1198.109,1278.79l0.094-0.497c0,0,0.092-0.121,0.328-0.285c0.237-0.164,0.46-0.313,0.486-0.457
			c0.027-0.143-0.094,0.444-0.104,0.5c-0.011,0.055-0.238,0.23-0.433,0.351C1198.287,1278.52,1198.109,1278.79,1198.109,1278.79z"/>
		<path d="M1198.265,1277.901l0.092-0.498c0,0,0.206-0.229,0.306-0.317c0.152-0.132,0.43-0.085,0.43-0.085l-0.024,0.16
			c-0.011,0.056-0.237,0.231-0.433,0.351C1198.441,1277.631,1198.265,1277.901,1198.265,1277.901z"/>
		<polygon points="1199.084,1276.98 1198.931,1276.973 1198.802,1276.988 1198.823,1276.903 1198.802,1276.802 		"/>
		<polygon points="1198.496,1277.183 1198.45,1276.994 1198.469,1276.863 1198.762,1276.805 1198.787,1276.911 1198.633,1277.066 		
			"/>
		<path d="M1196.936,1284.91l0.094-0.498c0,0,0.09-0.12,0.328-0.285c0.236-0.163,0.459-0.312,0.486-0.456
			c0.026-0.143-0.095,0.444-0.104,0.499c-0.012,0.055-0.24,0.23-0.434,0.351C1197.112,1284.639,1196.936,1284.91,1196.936,1284.91z"
			/>
		<path d="M1197.09,1284.081l0.093-0.498c0,0,0.091-0.12,0.329-0.284c0.236-0.165,0.459-0.313,0.486-0.457
			c0.026-0.144-0.094,0.445-0.104,0.5c-0.011,0.054-0.237,0.23-0.433,0.35S1197.09,1284.081,1197.09,1284.081z"/>
		<path d="M1197.285,1283.122l0.094-0.499c0,0,0.092-0.119,0.328-0.283c0.237-0.163,0.46-0.313,0.487-0.457
			c0.026-0.143-0.095,0.444-0.104,0.5c-0.01,0.054-0.238,0.23-0.433,0.351C1197.463,1282.852,1197.285,1283.122,1197.285,1283.122z"
			/>
		<path d="M1197.44,1282.294l0.093-0.498c0,0,0.092-0.121,0.328-0.286c0.237-0.163,0.461-0.312,0.486-0.455
			c0.027-0.143-0.094,0.444-0.104,0.499s-0.238,0.23-0.433,0.351C1197.617,1282.022,1197.44,1282.294,1197.44,1282.294z"/>
		<path d="M1196.586,1286.785l0.094-0.498c0,0,0.092-0.121,0.328-0.286c0.236-0.163,0.46-0.312,0.486-0.455
			c0.027-0.144-0.094,0.445-0.104,0.499c-0.011,0.055-0.239,0.23-0.433,0.35C1196.764,1286.514,1196.586,1286.785,1196.586,1286.785
			z"/>
		<path d="M1196.783,1285.826l0.092-0.498c0,0,0.092-0.121,0.328-0.286c0.237-0.163,0.461-0.313,0.486-0.455
			c0.027-0.143-0.094,0.444-0.104,0.498c-0.01,0.056-0.238,0.231-0.433,0.351S1196.783,1285.826,1196.783,1285.826z"/>
		<rect x="1196.339" y="1286.728" width="1.202" height="0.321"/>
	</g>
	<g id="GS_Bit_1">
		<path d="M1192.883,1281.364l0.093-0.497c0,0,0.091-0.12,0.327-0.285c0.238-0.163,0.461-0.313,0.487-0.457
			c0.026-0.143-0.094,0.444-0.104,0.5c-0.01,0.055-0.238,0.229-0.432,0.351C1193.06,1281.094,1192.883,1281.364,1192.883,1281.364z"
			/>
		<path d="M1193.047,1280.48l0.093-0.498c0,0,0.092-0.121,0.329-0.285c0.236-0.164,0.459-0.312,0.486-0.455
			c0.026-0.145-0.095,0.444-0.105,0.499c-0.01,0.055-0.236,0.231-0.432,0.35C1193.224,1280.211,1193.047,1280.48,1193.047,1280.48z"
			/>
		<path d="M1193.232,1279.577l0.093-0.499c0,0,0.091-0.12,0.329-0.284c0.236-0.164,0.459-0.313,0.486-0.456
			c0.025-0.143-0.094,0.445-0.105,0.499c-0.01,0.055-0.237,0.23-0.432,0.351C1193.409,1279.306,1193.232,1279.577,1193.232,1279.577
			z"/>
		<path d="M1193.387,1278.748l0.094-0.498c0,0,0.091-0.121,0.328-0.285c0.236-0.164,0.46-0.312,0.486-0.456
			c0.027-0.143-0.095,0.445-0.105,0.5c-0.01,0.054-0.236,0.23-0.432,0.35C1193.563,1278.479,1193.387,1278.748,1193.387,1278.748z"
			/>
		<path d="M1193.541,1277.858l0.093-0.497c0,0,0.206-0.229,0.306-0.317c0.152-0.132,0.43-0.085,0.43-0.085l-0.024,0.16
			c-0.011,0.055-0.239,0.231-0.433,0.351C1193.718,1277.589,1193.541,1277.858,1193.541,1277.858z"/>
		<polygon points="1194.361,1276.938 1194.207,1276.932 1194.078,1276.946 1194.1,1276.86 1194.078,1276.76 		"/>
		<polygon points="1193.773,1277.141 1193.727,1276.952 1193.746,1276.82 1194.037,1276.762 1194.064,1276.868 1193.909,1277.024 		
			"/>
		<path d="M1192.213,1284.868l0.092-0.498c0,0,0.092-0.121,0.329-0.285s0.46-0.313,0.487-0.457c0.025-0.143-0.095,0.445-0.104,0.5
			c-0.011,0.055-0.239,0.23-0.433,0.351C1192.389,1284.597,1192.213,1284.868,1192.213,1284.868z"/>
		<path d="M1192.367,1284.038l0.093-0.497c0,0,0.091-0.121,0.328-0.286c0.237-0.163,0.46-0.312,0.486-0.455
			c0.027-0.144-0.094,0.445-0.104,0.499c-0.01,0.055-0.238,0.231-0.432,0.351
			C1192.543,1283.768,1192.367,1284.038,1192.367,1284.038z"/>
		<path d="M1192.562,1283.08l0.093-0.498c0,0,0.092-0.121,0.329-0.285s0.46-0.312,0.486-0.456s-0.094,0.445-0.104,0.5
			c-0.011,0.054-0.24,0.23-0.433,0.35C1192.739,1282.81,1192.562,1283.08,1192.562,1283.08z"/>
		<path d="M1192.717,1282.251l0.093-0.497c0,0,0.091-0.12,0.329-0.285c0.237-0.164,0.461-0.313,0.486-0.457
			c0.027-0.144-0.094,0.445-0.104,0.5s-0.238,0.23-0.433,0.35C1192.895,1281.98,1192.717,1282.251,1192.717,1282.251z"/>
		<path d="M1191.863,1286.741l0.093-0.497c0,0,0.091-0.12,0.329-0.284c0.237-0.164,0.459-0.313,0.486-0.458
			c0.026-0.143-0.094,0.445-0.104,0.501c-0.011,0.054-0.239,0.229-0.433,0.35C1192.04,1286.472,1191.863,1286.741,1191.863,1286.741
			z"/>
		<path d="M1192.06,1285.783l0.092-0.497c0,0,0.093-0.121,0.329-0.285c0.236-0.165,0.46-0.313,0.486-0.457
			c0.027-0.144-0.094,0.445-0.104,0.5c-0.011,0.055-0.239,0.23-0.434,0.35S1192.06,1285.783,1192.06,1285.783z"/>
		<rect x="1191.629" y="1286.728" width="1.201" height="0.321"/>
	</g>
	<g id="GS_Bit_Stationary">
		<polygon points="1149.83,1286.81 1151.076,1286.828 1152.321,1286.755 1153.389,1286.864 1154.852,1286.846 1155.673,1286.755 
			1156.672,1286.81 1158.422,1286.736 1160.272,1286.755 1161.318,1286.818 1163.145,1286.755 1165.209,1286.828 1167.085,1286.791 
			1168.058,1286.773 1170.37,1286.736 1171.822,1286.818 1172.903,1286.791 1174.859,1286.81 1176.413,1286.846 1177.636,1286.791 
			1179.702,1286.791 1182.158,1286.828 1184.163,1286.81 1185.97,1286.736 1187.518,1286.836 1190.361,1286.773 1192.872,1286.836 
			1196.041,1286.81 1197.75,1286.773 1199.638,1286.828 1201.228,1286.81 1202.348,1286.81 1203.005,1286.81 1205.02,1286.791 
			1206.598,1286.828 1208.823,1286.81 1210.847,1286.828 1213.53,1286.81 1216.061,1286.81 1217.539,1286.846 1218.592,1286.755 
			1221.268,1286.836 1223.217,1286.81 1225.296,1286.818 1228.019,1286.791 1229.744,1286.855 1230.963,1286.828 1231.918,1286.81 
			1233.541,1286.818 1234.738,1286.755 1235.766,1286.81 1237.681,1286.773 1239.433,1286.828 1241.622,1286.755 1244.086,1286.828 
			1244.105,1287.028 1241.562,1286.945 1239.412,1286.991 1237.661,1286.981 1235.718,1287.028 1234.704,1286.964 
			1233.591,1287.037 1231.918,1287 1230.963,1286.991 1229.689,1287.028 1227.984,1286.991 1225.262,1287.01 1223.203,1286.973 
			1221.255,1287.01 1218.599,1286.927 1217.539,1287 1216.055,1286.981 1213.5,1287 1210.867,1287 1208.761,1286.973 1206.592,1287 
			1204.922,1286.981 1203.005,1287 1202.336,1287.01 1201.213,1286.991 1199.646,1287 1197.737,1286.973 1196.035,1287 
			1192.812,1287.063 1190.361,1286.981 1187.483,1287.072 1185.948,1286.927 1184.149,1287.01 1182.136,1287.028 1179.695,1286.991 
			1177.597,1286.973 1176.391,1287.019 1174.853,1287.01 1172.907,1286.973 1171.786,1287.01 1170.379,1286.964 1168.058,1286.964 
			1166.895,1286.973 1165.209,1287 1163.15,1286.909 1161.31,1286.964 1160.229,1286.954 1158.418,1286.882 1156.699,1286.981 
			1155.687,1286.909 1154.798,1287.01 1153.374,1287.046 1152.281,1286.927 1151.036,1286.981 1149.761,1286.938 		"/>
		<path d="M1175.893,1281.422l0.094-0.499c0,0,0.091-0.12,0.329-0.284c0.236-0.164,0.46-0.312,0.485-0.457
			c0.027-0.143-0.094,0.446-0.104,0.5c-0.011,0.055-0.239,0.231-0.433,0.35C1176.07,1281.15,1175.893,1281.422,1175.893,1281.422z"
			/>
		<path d="M1176.059,1280.538l0.092-0.498c0,0,0.091-0.121,0.329-0.285c0.237-0.164,0.46-0.313,0.487-0.456
			c0.025-0.144-0.096,0.445-0.105,0.499s-0.238,0.231-0.432,0.35C1176.234,1280.267,1176.059,1280.538,1176.059,1280.538z"/>
		<path d="M1176.244,1279.634l0.092-0.498c0,0,0.092-0.12,0.329-0.284s0.46-0.313,0.487-0.457c0.025-0.144-0.095,0.445-0.105,0.5
			c-0.01,0.054-0.238,0.23-0.433,0.35S1176.244,1279.634,1176.244,1279.634z"/>
		<path d="M1176.398,1278.806l0.092-0.498c0,0,0.092-0.121,0.329-0.285c0.237-0.165,0.46-0.313,0.487-0.456
			c0.025-0.144-0.096,0.444-0.105,0.499s-0.236,0.23-0.432,0.35S1176.398,1278.806,1176.398,1278.806z"/>
		<path d="M1176.553,1277.916l0.093-0.498c0,0,0.204-0.229,0.306-0.317c0.15-0.132,0.428-0.085,0.428-0.085l-0.023,0.16
			c-0.01,0.055-0.238,0.23-0.433,0.35C1176.73,1277.645,1176.553,1277.916,1176.553,1277.916z"/>
		<polygon points="1177.372,1276.994 1177.219,1276.987 1177.089,1277.004 1177.11,1276.917 1177.09,1276.816 		"/>
		<polygon points="1176.784,1277.197 1176.738,1277.009 1176.757,1276.878 1177.049,1276.818 1177.074,1276.926 1176.92,1277.081 		
			"/>
		<path d="M1175.224,1284.924l0.093-0.497c0,0,0.092-0.12,0.328-0.284c0.237-0.164,0.46-0.314,0.487-0.457
			c0.026-0.144-0.094,0.444-0.104,0.5c-0.011,0.054-0.238,0.23-0.433,0.35S1175.224,1284.924,1175.224,1284.924z"/>
		<path d="M1175.378,1284.096l0.092-0.498c0,0,0.092-0.121,0.329-0.285s0.461-0.312,0.487-0.456
			c0.026-0.143-0.095,0.445-0.104,0.499c-0.011,0.055-0.238,0.231-0.433,0.351
			C1175.555,1283.824,1175.378,1284.096,1175.378,1284.096z"/>
		<path d="M1175.573,1283.137l0.094-0.498c0,0,0.091-0.12,0.327-0.284c0.238-0.164,0.461-0.313,0.488-0.457
			c0.025-0.143-0.096,0.444-0.105,0.5c-0.01,0.055-0.237,0.23-0.433,0.35C1175.75,1282.866,1175.573,1283.137,1175.573,1283.137z"/>
		<path d="M1175.728,1282.309l0.093-0.498c0,0,0.092-0.121,0.329-0.285s0.46-0.313,0.487-0.456c0.025-0.144-0.094,0.444-0.105,0.499
			c-0.01,0.054-0.238,0.23-0.432,0.351C1175.904,1282.037,1175.728,1282.309,1175.728,1282.309z"/>
		<path d="M1174.875,1286.8l0.092-0.499c0,0,0.092-0.121,0.328-0.284c0.237-0.164,0.461-0.313,0.488-0.457
			c0.025-0.143-0.095,0.444-0.105,0.5c-0.01,0.054-0.237,0.23-0.432,0.351C1175.051,1286.528,1174.875,1286.8,1174.875,1286.8z"/>
		<path d="M1175.07,1285.84l0.094-0.498c0,0,0.091-0.121,0.328-0.284c0.236-0.165,0.459-0.312,0.486-0.456
			c0.025-0.144-0.095,0.445-0.104,0.5c-0.011,0.053-0.239,0.23-0.433,0.35C1175.246,1285.57,1175.07,1285.84,1175.07,1285.84z"/>
		<path d="M1181.852,1281.521l0.092-0.497c0,0,0.092-0.12,0.329-0.285c0.236-0.164,0.46-0.312,0.486-0.456s-0.094,0.445-0.104,0.499
			c-0.01,0.055-0.238,0.231-0.432,0.351C1182.028,1281.252,1181.852,1281.521,1181.852,1281.521z"/>
		<path d="M1182.016,1280.639l0.094-0.498c0,0,0.09-0.12,0.327-0.284s0.46-0.313,0.487-0.457c0.025-0.144-0.094,0.445-0.105,0.499
			c-0.01,0.056-0.237,0.231-0.432,0.351S1182.016,1280.639,1182.016,1280.639z"/>
		<path d="M1182.201,1279.734l0.094-0.497c0,0,0.09-0.121,0.326-0.285c0.238-0.165,0.461-0.312,0.488-0.456
			s-0.094,0.445-0.105,0.499c-0.01,0.055-0.236,0.231-0.432,0.351C1182.378,1279.464,1182.201,1279.734,1182.201,1279.734z"/>
		<path d="M1182.355,1278.905l0.093-0.497c0,0,0.091-0.121,0.328-0.285c0.237-0.163,0.46-0.312,0.487-0.456
			c0.026-0.144-0.095,0.445-0.104,0.5c-0.011,0.054-0.238,0.231-0.433,0.349C1182.533,1278.636,1182.355,1278.905,1182.355,1278.905
			z"/>
		<path d="M1182.51,1278.017l0.094-0.498c0,0,0.205-0.229,0.305-0.316c0.15-0.133,0.43-0.085,0.43-0.085l-0.025,0.16
			c-0.01,0.055-0.236,0.23-0.432,0.351C1182.687,1277.746,1182.51,1278.017,1182.51,1278.017z"/>
		<polygon points="1183.33,1277.096 1183.176,1277.088 1183.047,1277.104 1183.068,1277.02 1183.047,1276.917 		"/>
		<polygon points="1182.741,1277.298 1182.695,1277.109 1182.715,1276.979 1183.007,1276.92 1183.033,1277.026 1182.877,1277.182 		
			"/>
		<path d="M1181.182,1285.025l0.092-0.499c0,0,0.092-0.12,0.328-0.284c0.238-0.164,0.461-0.312,0.488-0.456
			c0.026-0.143-0.094,0.444-0.105,0.499c-0.01,0.055-0.237,0.232-0.432,0.351
			C1181.357,1284.755,1181.182,1285.025,1181.182,1285.025z"/>
		<path d="M1181.336,1284.197l0.092-0.5c0,0,0.092-0.119,0.33-0.283c0.236-0.163,0.459-0.313,0.485-0.456
			c0.026-0.144-0.094,0.444-0.104,0.499c-0.01,0.055-0.236,0.23-0.432,0.351C1181.513,1283.926,1181.336,1284.197,1181.336,1284.197
			z"/>
		<path d="M1181.531,1283.237l0.093-0.498c0,0,0.092-0.12,0.329-0.284c0.236-0.163,0.46-0.313,0.486-0.456
			c0.027-0.144-0.094,0.444-0.104,0.499c-0.011,0.054-0.238,0.231-0.433,0.351
			C1181.708,1282.967,1181.531,1283.237,1181.531,1283.237z"/>
		<path d="M1181.686,1282.41l0.094-0.499c0,0,0.09-0.121,0.328-0.284c0.237-0.165,0.46-0.313,0.486-0.457
			c0.027-0.143-0.095,0.445-0.104,0.499c-0.011,0.056-0.237,0.231-0.433,0.35C1181.863,1282.138,1181.686,1282.41,1181.686,1282.41z
			"/>
		<path d="M1180.832,1286.9l0.093-0.499c0,0,0.091-0.12,0.328-0.285c0.237-0.163,0.461-0.312,0.487-0.454
			c0.027-0.144-0.095,0.444-0.105,0.498c-0.01,0.055-0.237,0.231-0.432,0.35C1181.009,1286.629,1180.832,1286.9,1180.832,1286.9z"/>
		<path d="M1181.028,1285.941l0.093-0.498c0,0,0.091-0.12,0.328-0.284c0.236-0.164,0.459-0.314,0.487-0.457
			c0.026-0.143-0.095,0.445-0.104,0.499c-0.012,0.055-0.238,0.231-0.433,0.351
			C1181.205,1285.67,1181.028,1285.941,1181.028,1285.941z"/>
		<path d="M1187.556,1281.535l0.093-0.499c0,0,0.092-0.121,0.328-0.284c0.237-0.164,0.461-0.313,0.486-0.456
			c0.027-0.144-0.093,0.444-0.104,0.499c-0.01,0.055-0.238,0.231-0.432,0.351
			C1187.732,1281.264,1187.556,1281.535,1187.556,1281.535z"/>
		<path d="M1187.721,1280.651l0.093-0.498c0,0,0.091-0.121,0.328-0.285s0.46-0.312,0.487-0.456c0.025-0.144-0.096,0.445-0.105,0.499
			c-0.011,0.055-0.238,0.23-0.432,0.35C1187.897,1280.38,1187.721,1280.651,1187.721,1280.651z"/>
		<path d="M1187.905,1279.747l0.093-0.498c0,0,0.092-0.121,0.328-0.284c0.238-0.164,0.461-0.313,0.488-0.457
			c0.026-0.143-0.096,0.444-0.105,0.499s-0.238,0.23-0.432,0.351C1188.082,1279.477,1187.905,1279.747,1187.905,1279.747z"/>
		<path d="M1188.061,1278.919l0.092-0.499c0,0,0.092-0.12,0.329-0.285c0.237-0.163,0.46-0.312,0.487-0.455
			c0.025-0.144-0.096,0.444-0.105,0.498c-0.01,0.056-0.238,0.232-0.432,0.351
			C1188.236,1278.647,1188.061,1278.919,1188.061,1278.919z"/>
		<path d="M1188.215,1278.028l0.092-0.497c0,0,0.206-0.229,0.307-0.316c0.15-0.134,0.429-0.087,0.429-0.087l-0.024,0.161
			c-0.01,0.055-0.237,0.231-0.432,0.35C1188.391,1277.759,1188.215,1278.028,1188.215,1278.028z"/>
		<polygon points="1189.033,1277.108 1188.881,1277.101 1188.752,1277.117 1188.773,1277.03 1188.752,1276.931 		"/>
		<polygon points="1188.445,1277.311 1188.4,1277.123 1188.419,1276.991 1188.712,1276.932 1188.737,1277.038 1188.582,1277.194 		
			"/>
		<path d="M1186.886,1285.037l0.093-0.497c0,0,0.092-0.121,0.328-0.285c0.237-0.164,0.461-0.312,0.487-0.456
			c0.026-0.145-0.095,0.444-0.104,0.5c-0.01,0.055-0.238,0.23-0.433,0.35S1186.886,1285.037,1186.886,1285.037z"/>
		<path d="M1187.041,1284.209l0.092-0.498c0,0,0.092-0.12,0.328-0.285c0.238-0.164,0.461-0.312,0.487-0.456
			s-0.095,0.446-0.104,0.499c-0.01,0.055-0.238,0.231-0.432,0.35C1187.217,1283.938,1187.041,1284.209,1187.041,1284.209z"/>
		<path d="M1187.236,1283.251l0.093-0.499c0,0,0.091-0.12,0.328-0.285c0.237-0.163,0.46-0.312,0.487-0.455
			c0.025-0.144-0.096,0.444-0.105,0.499s-0.238,0.23-0.432,0.35C1187.413,1282.979,1187.236,1283.251,1187.236,1283.251z"/>
		<path d="M1187.391,1282.421l0.093-0.497c0,0,0.091-0.121,0.328-0.285s0.46-0.313,0.487-0.456c0.026-0.144-0.094,0.444-0.105,0.499
			c-0.01,0.055-0.237,0.231-0.432,0.351C1187.566,1282.15,1187.391,1282.421,1187.391,1282.421z"/>
		<path d="M1186.536,1286.912l0.094-0.498c0,0,0.091-0.12,0.328-0.284s0.46-0.313,0.486-0.457s-0.095,0.445-0.104,0.5
			c-0.01,0.054-0.238,0.23-0.432,0.351C1186.713,1286.642,1186.536,1286.912,1186.536,1286.912z"/>
		<path d="M1186.732,1285.953l0.093-0.498c0,0,0.091-0.119,0.329-0.284c0.236-0.164,0.459-0.312,0.486-0.457
			c0.026-0.143-0.094,0.445-0.104,0.501c-0.011,0.054-0.238,0.23-0.433,0.35S1186.732,1285.953,1186.732,1285.953z"/>
		<path d="M1152.149,1281.447l0.094-0.499c0,0,0.091-0.12,0.329-0.284c0.236-0.164,0.46-0.312,0.485-0.457
			c0.027-0.143-0.094,0.446-0.104,0.5c-0.011,0.055-0.239,0.231-0.433,0.35C1152.327,1281.176,1152.149,1281.447,1152.149,1281.447z
			"/>
		<path d="M1152.315,1280.563l0.092-0.498c0,0,0.091-0.121,0.329-0.285c0.237-0.164,0.46-0.313,0.487-0.456
			c0.025-0.144-0.096,0.445-0.105,0.499s-0.238,0.231-0.432,0.35C1152.491,1280.292,1152.315,1280.563,1152.315,1280.563z"/>
		<path d="M1152.501,1279.659l0.092-0.498c0,0,0.092-0.12,0.329-0.284s0.46-0.313,0.487-0.457c0.025-0.144-0.095,0.445-0.105,0.5
			c-0.01,0.054-0.238,0.23-0.433,0.35S1152.501,1279.659,1152.501,1279.659z"/>
		<path d="M1152.655,1278.831l0.092-0.498c0,0,0.092-0.121,0.329-0.285c0.237-0.165,0.46-0.313,0.487-0.456
			c0.025-0.144-0.096,0.444-0.105,0.499s-0.236,0.23-0.432,0.35S1152.655,1278.831,1152.655,1278.831z"/>
		<path d="M1152.81,1277.941l0.093-0.498c0,0,0.204-0.229,0.306-0.317c0.15-0.132,0.428-0.085,0.428-0.085l-0.023,0.16
			c-0.01,0.055-0.238,0.23-0.433,0.35C1152.987,1277.67,1152.81,1277.941,1152.81,1277.941z"/>
		<polygon points="1153.629,1277.02 1153.476,1277.013 1153.346,1277.029 1153.367,1276.942 1153.347,1276.842 		"/>
		<polygon points="1153.041,1277.223 1152.995,1277.034 1153.014,1276.903 1153.306,1276.844 1153.331,1276.951 1153.177,1277.106 
					"/>
		<path d="M1151.48,1284.949l0.093-0.497c0,0,0.092-0.12,0.328-0.284c0.237-0.164,0.46-0.314,0.487-0.457
			c0.026-0.144-0.094,0.444-0.104,0.5c-0.011,0.054-0.238,0.23-0.433,0.35S1151.48,1284.949,1151.48,1284.949z"/>
		<path d="M1151.635,1284.121l0.092-0.498c0,0,0.092-0.121,0.329-0.285s0.461-0.312,0.487-0.456
			c0.026-0.143-0.095,0.445-0.104,0.499c-0.011,0.055-0.238,0.231-0.433,0.351
			C1151.812,1283.85,1151.635,1284.121,1151.635,1284.121z"/>
		<path d="M1151.83,1283.162l0.094-0.498c0,0,0.091-0.12,0.327-0.284c0.238-0.164,0.461-0.313,0.488-0.457
			c0.025-0.143-0.096,0.444-0.105,0.5c-0.01,0.055-0.237,0.23-0.433,0.35C1152.007,1282.892,1151.83,1283.162,1151.83,1283.162z"/>
		<path d="M1151.984,1282.334l0.093-0.498c0,0,0.092-0.121,0.329-0.285s0.46-0.313,0.487-0.456c0.025-0.144-0.094,0.444-0.105,0.499
			c-0.01,0.054-0.238,0.23-0.432,0.351C1152.161,1282.062,1151.984,1282.334,1151.984,1282.334z"/>
		<path d="M1151.132,1286.825l0.092-0.499c0,0,0.092-0.121,0.328-0.284c0.237-0.164,0.461-0.313,0.488-0.457
			c0.025-0.143-0.095,0.444-0.105,0.5c-0.01,0.054-0.237,0.23-0.432,0.351C1151.308,1286.554,1151.132,1286.825,1151.132,1286.825z"
			/>
		<path d="M1151.327,1285.865l0.094-0.498c0,0,0.091-0.121,0.328-0.284c0.236-0.165,0.459-0.312,0.486-0.456
			c0.025-0.144-0.095,0.445-0.104,0.5c-0.011,0.053-0.239,0.23-0.433,0.35C1151.503,1285.596,1151.327,1285.865,1151.327,1285.865z"
			/>
		<path d="M1158.108,1281.547l0.092-0.497c0,0,0.092-0.12,0.329-0.285c0.236-0.164,0.46-0.312,0.486-0.456s-0.094,0.445-0.104,0.499
			c-0.01,0.055-0.238,0.231-0.432,0.351C1158.285,1281.277,1158.108,1281.547,1158.108,1281.547z"/>
		<path d="M1158.272,1280.664l0.094-0.498c0,0,0.09-0.12,0.327-0.284s0.46-0.313,0.487-0.457c0.025-0.144-0.094,0.445-0.105,0.499
			c-0.01,0.056-0.237,0.231-0.432,0.351S1158.272,1280.664,1158.272,1280.664z"/>
		<path d="M1158.458,1279.76l0.094-0.497c0,0,0.09-0.121,0.326-0.285c0.238-0.165,0.461-0.312,0.488-0.456s-0.094,0.445-0.105,0.499
			c-0.01,0.055-0.236,0.231-0.432,0.351C1158.635,1279.489,1158.458,1279.76,1158.458,1279.76z"/>
		<path d="M1158.612,1278.931l0.093-0.497c0,0,0.091-0.121,0.328-0.285c0.237-0.163,0.46-0.312,0.487-0.456
			c0.026-0.144-0.095,0.445-0.104,0.5c-0.011,0.054-0.238,0.231-0.433,0.349C1158.79,1278.661,1158.612,1278.931,1158.612,1278.931z
			"/>
		<path d="M1158.767,1278.042l0.094-0.498c0,0,0.205-0.229,0.305-0.316c0.15-0.133,0.43-0.085,0.43-0.085l-0.025,0.16
			c-0.01,0.055-0.236,0.23-0.432,0.351C1158.943,1277.771,1158.767,1278.042,1158.767,1278.042z"/>
		<polygon points="1159.587,1277.121 1159.433,1277.113 1159.304,1277.129 1159.325,1277.045 1159.304,1276.942 		"/>
		<polygon points="1158.998,1277.323 1158.952,1277.135 1158.972,1277.004 1159.264,1276.945 1159.29,1277.052 1159.134,1277.207 		
			"/>
		<path d="M1157.438,1285.051l0.092-0.499c0,0,0.092-0.12,0.328-0.284c0.238-0.164,0.461-0.312,0.488-0.456
			c0.026-0.143-0.094,0.444-0.105,0.499c-0.01,0.055-0.237,0.232-0.432,0.351C1157.614,1284.78,1157.438,1285.051,1157.438,1285.051
			z"/>
		<path d="M1157.593,1284.223l0.092-0.5c0,0,0.092-0.119,0.33-0.283c0.236-0.163,0.459-0.313,0.485-0.456
			c0.026-0.144-0.094,0.444-0.104,0.499c-0.01,0.055-0.236,0.23-0.432,0.351C1157.77,1283.951,1157.593,1284.223,1157.593,1284.223z
			"/>
		<path d="M1157.788,1283.263l0.093-0.498c0,0,0.092-0.12,0.329-0.284c0.236-0.163,0.46-0.313,0.486-0.456
			c0.027-0.144-0.094,0.444-0.104,0.499c-0.011,0.054-0.238,0.231-0.433,0.351
			C1157.965,1282.992,1157.788,1283.263,1157.788,1283.263z"/>
		<path d="M1157.942,1282.436l0.094-0.499c0,0,0.09-0.121,0.328-0.284c0.237-0.165,0.46-0.313,0.486-0.457
			c0.027-0.143-0.095,0.445-0.104,0.499c-0.011,0.056-0.237,0.231-0.433,0.35C1158.12,1282.163,1157.942,1282.436,1157.942,1282.436
			z"/>
		<path d="M1157.089,1286.926l0.093-0.499c0,0,0.091-0.12,0.328-0.285c0.237-0.163,0.461-0.312,0.487-0.454
			c0.027-0.144-0.095,0.444-0.105,0.498c-0.01,0.055-0.237,0.231-0.432,0.35C1157.266,1286.654,1157.089,1286.926,1157.089,1286.926
			z"/>
		<path d="M1157.285,1285.967l0.093-0.498c0,0,0.091-0.12,0.328-0.284c0.236-0.164,0.459-0.314,0.487-0.457
			c0.026-0.143-0.095,0.445-0.104,0.499c-0.012,0.055-0.238,0.231-0.433,0.351
			C1157.462,1285.695,1157.285,1285.967,1157.285,1285.967z"/>
		<path d="M1163.812,1281.561l0.093-0.499c0,0,0.092-0.121,0.328-0.284c0.237-0.164,0.461-0.313,0.486-0.456
			c0.027-0.144-0.093,0.444-0.104,0.499c-0.01,0.055-0.238,0.231-0.432,0.351
			C1163.989,1281.289,1163.812,1281.561,1163.812,1281.561z"/>
		<path d="M1163.978,1280.677l0.093-0.498c0,0,0.091-0.121,0.328-0.285s0.46-0.312,0.487-0.456c0.025-0.144-0.096,0.445-0.105,0.499
			c-0.011,0.055-0.238,0.23-0.432,0.35C1164.154,1280.405,1163.978,1280.677,1163.978,1280.677z"/>
		<path d="M1164.162,1279.772l0.093-0.498c0,0,0.092-0.121,0.328-0.284c0.238-0.164,0.461-0.313,0.488-0.457
			c0.026-0.143-0.096,0.444-0.105,0.499s-0.238,0.23-0.432,0.351C1164.339,1279.502,1164.162,1279.772,1164.162,1279.772z"/>
		<path d="M1164.317,1278.944l0.092-0.499c0,0,0.092-0.12,0.329-0.285c0.237-0.163,0.46-0.312,0.487-0.455
			c0.025-0.144-0.096,0.444-0.105,0.498c-0.01,0.056-0.238,0.232-0.432,0.351
			C1164.493,1278.673,1164.317,1278.944,1164.317,1278.944z"/>
		<path d="M1164.472,1278.054l0.092-0.497c0,0,0.206-0.229,0.307-0.316c0.15-0.134,0.429-0.087,0.429-0.087l-0.024,0.161
			c-0.01,0.055-0.237,0.231-0.432,0.35C1164.647,1277.784,1164.472,1278.054,1164.472,1278.054z"/>
		<polygon points="1165.29,1277.134 1165.138,1277.126 1165.009,1277.143 1165.03,1277.056 1165.009,1276.956 		"/>
		<polygon points="1164.702,1277.336 1164.657,1277.148 1164.676,1277.017 1164.969,1276.957 1164.994,1277.063 1164.839,1277.22 		
			"/>
		<path d="M1163.143,1285.062l0.093-0.497c0,0,0.092-0.121,0.328-0.285c0.237-0.164,0.461-0.312,0.487-0.456
			c0.026-0.145-0.095,0.444-0.104,0.5c-0.01,0.055-0.238,0.23-0.433,0.35S1163.143,1285.062,1163.143,1285.062z"/>
		<path d="M1163.298,1284.234l0.092-0.498c0,0,0.092-0.12,0.328-0.285c0.238-0.164,0.461-0.312,0.487-0.456
			s-0.095,0.446-0.104,0.499c-0.01,0.055-0.238,0.231-0.432,0.35C1163.474,1283.964,1163.298,1284.234,1163.298,1284.234z"/>
		<path d="M1163.493,1283.276l0.093-0.499c0,0,0.091-0.12,0.328-0.285c0.237-0.163,0.46-0.312,0.487-0.455
			c0.025-0.144-0.096,0.444-0.105,0.499s-0.238,0.23-0.432,0.35C1163.67,1283.005,1163.493,1283.276,1163.493,1283.276z"/>
		<path d="M1163.647,1282.446l0.093-0.497c0,0,0.091-0.121,0.328-0.285s0.46-0.313,0.487-0.456c0.026-0.144-0.094,0.444-0.105,0.499
			c-0.01,0.055-0.237,0.231-0.432,0.351C1163.823,1282.176,1163.647,1282.446,1163.647,1282.446z"/>
		<path d="M1162.793,1286.938l0.094-0.498c0,0,0.091-0.12,0.328-0.284s0.46-0.313,0.486-0.457s-0.095,0.445-0.104,0.5
			c-0.01,0.054-0.238,0.23-0.432,0.351C1162.97,1286.667,1162.793,1286.938,1162.793,1286.938z"/>
		<path d="M1162.989,1285.979l0.093-0.498c0,0,0.091-0.119,0.329-0.284c0.236-0.164,0.459-0.312,0.486-0.457
			c0.026-0.143-0.094,0.445-0.104,0.501c-0.011,0.054-0.238,0.23-0.433,0.35S1162.989,1285.979,1162.989,1285.979z"/>
		<path d="M1169.14,1281.39l0.093-0.497c0,0,0.091-0.12,0.327-0.285c0.238-0.163,0.461-0.313,0.487-0.457
			c0.026-0.143-0.094,0.444-0.104,0.5c-0.01,0.055-0.238,0.229-0.432,0.351C1169.316,1281.119,1169.14,1281.39,1169.14,1281.39z"/>
		<path d="M1169.304,1280.506l0.093-0.498c0,0,0.092-0.121,0.329-0.285c0.236-0.164,0.459-0.312,0.486-0.455
			c0.026-0.145-0.095,0.444-0.105,0.499c-0.01,0.055-0.236,0.231-0.432,0.35C1169.48,1280.236,1169.304,1280.506,1169.304,1280.506z
			"/>
		<path d="M1169.489,1279.603l0.093-0.499c0,0,0.091-0.12,0.329-0.284c0.236-0.164,0.459-0.313,0.486-0.456
			c0.025-0.143-0.094,0.445-0.105,0.499c-0.01,0.055-0.237,0.23-0.432,0.351C1169.666,1279.331,1169.489,1279.603,1169.489,1279.603
			z"/>
		<path d="M1169.644,1278.773l0.094-0.498c0,0,0.091-0.121,0.328-0.285c0.236-0.164,0.46-0.312,0.486-0.456
			c0.027-0.143-0.095,0.445-0.105,0.5c-0.01,0.054-0.236,0.23-0.432,0.35C1169.82,1278.504,1169.644,1278.773,1169.644,1278.773z"/>
		<path d="M1169.798,1277.884l0.093-0.497c0,0,0.206-0.229,0.306-0.317c0.152-0.132,0.43-0.085,0.43-0.085l-0.024,0.16
			c-0.011,0.055-0.239,0.231-0.433,0.351C1169.975,1277.614,1169.798,1277.884,1169.798,1277.884z"/>
		<polygon points="1170.618,1276.963 1170.464,1276.957 1170.335,1276.972 1170.356,1276.886 1170.335,1276.785 		"/>
		<polygon points="1170.03,1277.166 1169.983,1276.978 1170.003,1276.846 1170.294,1276.787 1170.321,1276.894 1170.166,1277.05 		
			"/>
		<path d="M1168.47,1284.894l0.092-0.498c0,0,0.092-0.121,0.329-0.285s0.46-0.313,0.487-0.457c0.025-0.143-0.095,0.445-0.104,0.5
			c-0.011,0.055-0.239,0.23-0.433,0.351C1168.646,1284.622,1168.47,1284.894,1168.47,1284.894z"/>
		<path d="M1168.624,1284.063l0.093-0.497c0,0,0.091-0.121,0.328-0.286c0.237-0.163,0.46-0.312,0.486-0.455
			c0.027-0.144-0.094,0.445-0.104,0.499c-0.01,0.055-0.238,0.231-0.432,0.351C1168.8,1283.793,1168.624,1284.063,1168.624,1284.063z
			"/>
		<path d="M1168.819,1283.105l0.093-0.498c0,0,0.092-0.121,0.329-0.285s0.46-0.312,0.486-0.456s-0.094,0.445-0.104,0.5
			c-0.011,0.054-0.24,0.23-0.433,0.35C1168.996,1282.835,1168.819,1283.105,1168.819,1283.105z"/>
		<path d="M1168.974,1282.276l0.093-0.497c0,0,0.091-0.12,0.329-0.285c0.237-0.164,0.461-0.313,0.486-0.457
			c0.027-0.144-0.094,0.445-0.104,0.5s-0.238,0.23-0.433,0.35C1169.151,1282.006,1168.974,1282.276,1168.974,1282.276z"/>
		<path d="M1168.12,1286.767l0.093-0.497c0,0,0.091-0.12,0.329-0.284c0.237-0.164,0.459-0.313,0.486-0.458
			c0.026-0.143-0.094,0.445-0.104,0.501c-0.011,0.054-0.239,0.229-0.433,0.35C1168.297,1286.497,1168.12,1286.767,1168.12,1286.767z
			"/>
		<path d="M1168.316,1285.809l0.092-0.497c0,0,0.093-0.121,0.329-0.285c0.236-0.165,0.46-0.313,0.486-0.457
			c0.027-0.144-0.094,0.445-0.104,0.5c-0.011,0.055-0.239,0.23-0.434,0.35S1168.316,1285.809,1168.316,1285.809z"/>
		<rect x="1150.913" y="1286.76" width="1.201" height="0.321"/>
		<rect x="1156.877" y="1286.753" width="1.202" height="0.321"/>
		<rect x="1162.587" y="1286.76" width="1.201" height="0.321"/>
		<rect x="1167.886" y="1286.753" width="1.201" height="0.321"/>
		<rect x="1174.656" y="1286.734" width="1.201" height="0.321"/>
		<rect x="1180.62" y="1286.728" width="1.202" height="0.321"/>
		<rect x="1186.33" y="1286.734" width="1.201" height="0.321"/>
	</g>
	<g id="GS_Truck">
		<g id="GS_Truck_Jacks">
			<polygon points="1209.08,1296.609 1209.08,1298.507 1208.918,1298.507 1208.918,1298.754 1209.055,1298.754 1209.055,1298.845 
				1208.573,1298.845 1208.573,1298.734 1208.721,1298.734 1208.721,1298.507 1208.565,1298.507 1208.565,1296.604 			"/>
			<polygon points="1225.102,1297.536 1225.102,1298.507 1224.938,1298.507 1224.938,1298.754 1225.077,1298.754 1225.077,1298.845 
				1224.595,1298.845 1224.595,1298.734 1224.741,1298.734 1224.741,1298.507 1224.587,1298.507 1224.587,1297.538 			"/>
		</g>
		<g id="GS_Truck_Hole">
			
				<rect x="1222.397" y="1282.82" transform="matrix(-0.9908 -0.1353 0.1353 -0.9908 2260.4009 2723.2256)" fill="#FFFFFF" width="0.621" height="4.017"/>
			
				<rect x="1222.935" y="1278.898" transform="matrix(-0.9904 -0.1379 0.1379 -0.9904 2258.1541 2718.272)" fill="#FFFFFF" width="0.623" height="4.017"/>
		</g>
		<g id="GS_Truck_Body">
			<polygon points="1220.075,1290.127 1219.943,1290.255 1219.811,1290.127 1219.811,1289.34 1219.943,1289.212 1220.075,1289.34 
							"/>
			<circle cx="1220.496" cy="1288.433" r="0.291"/>
			<path d="M1219.947,1288.89c0.11-0.101,0.288-0.086,0.288-0.086l0.552,0.006c0,0,0.199-0.003,0.304,0.118
				c0.104,0.123,0.097,0.282,0.097,0.282v0.858c0,0,0.007,0.176-0.112,0.176c-0.136,0-0.143-0.176-0.143-0.176v-0.794h-0.058v2.276
				c0,0,0.028,0.219-0.165,0.219c-0.194,0-0.178-0.23-0.178-0.23v-1.309h-0.06v1.313c0,0,0.021,0.226-0.178,0.226
				c-0.194,0-0.169-0.226-0.169-0.226v-2.273h-0.053v0.117l-0.263,0.001v-0.179
				C1219.811,1289.21,1219.823,1289.002,1219.947,1288.89z"/>
			<path d="M1220.845,1288.403h-0.682c0-0.189,0.152-0.341,0.342-0.341C1220.692,1288.062,1220.845,1288.215,1220.845,1288.403z"/>
			
				<rect x="1220.448" y="1288.073" transform="matrix(0.6901 -0.7237 0.7237 0.6901 -554.0044 1282.5498)" fill="#FFFFFF" width="0.116" height="0.117"/>
			<polyline points="1220.507,1288.052 1220.587,1288.132 1220.507,1288.216 1220.425,1288.132 1220.507,1288.052 			"/>
			<path fill="#BA8E2D" d="M1217.171,1297.561l-2.535,0.008c0,0-0.218,0.374-1.036,0.374s-0.89-0.396-0.89-0.396l-0.634-0.018
				c0,0-0.026-0.389-0.18-0.913c-0.159-0.544-0.892-0.834-1.35-0.834c-0.535,0-1.101,0.236-1.304,0.651
				c-0.113,0.235-0.155,0.786-0.155,0.786l-0.54-0.609l-0.686-0.017h-0.85v-0.307h-0.394v-0.128h0.405v-2.156h0.434h0.097v-0.075
				h0.275v1.286l0.191-0.435l-0.01-0.66c0,0-0.032-0.256,0.129-0.352c0.157-0.095,0.509-0.062,0.509-0.062l0.806-0.042
				c0,0,0.597-0.043,0.766-0.043c0.17,0,0.298,0.021,0.383,0.085l0.105,0.212l4.612-0.054v0.054l0.329,0.021h0.267v0.659h0.51v0.743
				h0.225v0.217h0.523L1217.171,1297.561z"/>
			<polygon fill="#BA8E2D" points="1211.826,1294.064 1211.826,1293.077 1211.666,1292.811 1210.997,1292.758 1210.997,1292.524 
				1213.239,1292.407 1214.972,1292.449 1215.885,1292.535 1216.279,1292.683 1216.279,1292.865 1215.907,1292.906 
				1215.907,1294.691 1215.609,1294.691 1215.609,1292.896 1215.077,1292.896 1215.077,1294.002 1214.78,1294.002 1214.78,1292.929 
				1213.749,1292.98 1213.569,1293.151 1213.569,1293.968 1213.303,1293.968 1213.303,1293.14 1213.127,1292.966 1212.22,1292.966 
				1212.104,1293.079 1212.104,1294.064 			"/>
			<path d="M1223.823,1288.438c0,0.159-0.13,0.29-0.292,0.29c-0.159,0-0.292-0.131-0.292-0.29c0-0.163,0.133-0.293,0.292-0.293
				C1223.693,1288.145,1223.823,1288.274,1223.823,1288.438z"/>
			<path d="M1223.183,1288.831l0.076-0.02l0.564,0.002c0,0,0.196-0.004,0.301,0.118c0.105,0.122,0.099,0.283,0.099,0.283v0.857
				c0,0,0.007,0.176-0.112,0.176c-0.137,0-0.143-0.176-0.143-0.176v-0.794h-0.059v2.276c0,0,0.028,0.219-0.164,0.219
				c-0.196,0-0.177-0.229-0.177-0.229v-1.311h-0.062v1.314c0,0,0.022,0.226-0.176,0.226c-0.196,0-0.169-0.226-0.169-0.226
				l-0.003-2.645L1223.183,1288.831z"/>
			<polyline fill="#929497" points="1221.812,1291.831 1222.157,1289.369 1221.999,1289.348 1221.653,1291.81 			"/>
			<path d="M1221.905,1289.3c-0.012,0.109,0.059,0.199,0.163,0.2c0.104,0.001,0.196-0.088,0.209-0.197l0.169-1.479
				c0.014-0.109-0.059-0.197-0.163-0.198c-0.103-0.001-0.194,0.086-0.207,0.195L1221.905,1289.3z"/>
			<path d="M1222.105,1287.565c-0.007,0.061,0.069,0.107,0.174,0.108c0.103,0,0.19-0.046,0.198-0.105l0.064-0.555
				c0.008-0.061-0.031-0.098-0.175-0.108s-0.191,0.045-0.197,0.104L1222.105,1287.565z"/>
			<polygon points="1223.026,1287.867 1223.137,1287.769 1223.049,1287.669 1222.296,1287.663 1222.183,1287.762 1222.272,1287.86 
							"/>
			<polygon points="1222.888,1288.2 1222.977,1288.261 1223.076,1288.201 1223.128,1287.744 1223.043,1287.681 1222.942,1287.742 
							"/>
			<polygon points="1223.088,1289.624 1222.954,1289.753 1222.824,1289.624 1222.824,1288.441 1222.954,1288.312 1223.088,1288.441 
							"/>
			<rect x="1216.707" y="1291.78" fill="#BA8E2D" width="8.761" height="0.309"/>
			<rect x="1216.707" y="1289.624" fill="#BA8E2D" width="0.241" height="2.344"/>
			<rect x="1225.204" y="1289.624" fill="#BA8E2D" width="0.264" height="2.324"/>
			<rect x="1219.395" y="1289.684" fill="#BA8E2D" width="0.218" height="2.346"/>
			<rect x="1222.455" y="1289.684" fill="#BA8E2D" width="0.241" height="2.346"/>
			<rect x="1216.784" y="1289.619" fill="#BA8E2D" width="8.584" height="0.195"/>
			<rect x="1216.797" y="1290.653" fill="#BA8E2D" width="8.585" height="0.229"/>
			<rect x="1217.128" y="1296.008" fill="#BA8E2D" width="7.98" height="1.551"/>
			<polygon fill="#BA8E2D" points="1217.255,1292.205 1224.07,1295.919 1224.853,1295.919 1218.049,1292.225 			"/>
			<polygon fill="#BA8E2D" points="1224.858,1292.219 1218.228,1295.906 1217.354,1295.924 1224.206,1292.2 			"/>
			<circle cx="1221.104" cy="1294.088" r="0.325"/>
			<ellipse fill="#FFFFFF" cx="1220.69" cy="1297.165" rx="1.623" ry="1.601"/>
			<polyline points="1222.438,1286.933 1222.798,1284.358 1222.638,1284.335 1222.277,1286.909 			"/>
			<path d="M1223.872,1288.416h-0.684c0-0.189,0.153-0.341,0.343-0.341C1223.719,1288.075,1223.869,1288.227,1223.872,1288.416z"/>
			
				<rect x="1223.475" y="1288.089" transform="matrix(0.7071 -0.7071 0.7071 0.7071 -552.4928 1242.4573)" fill="#FFFFFF" width="0.115" height="0.116"/>
			<polyline points="1223.533,1288.066 1223.614,1288.146 1223.533,1288.228 1223.45,1288.146 1223.533,1288.066 			"/>
		</g>
		<g id="GS_Truck_Tires">
			<path d="M1221.787,1297.157h-0.324c0,0.213-0.087,0.403-0.226,0.542c-0.14,0.141-0.33,0.227-0.543,0.227
				s-0.405-0.086-0.545-0.227c-0.14-0.139-0.226-0.329-0.226-0.542s0.086-0.404,0.226-0.546c0.14-0.139,0.332-0.225,0.545-0.225
				s0.403,0.086,0.543,0.225c0.139,0.141,0.226,0.333,0.226,0.546h0.648c0-0.393-0.159-0.748-0.416-1.005
				c-0.255-0.256-0.611-0.415-1.001-0.415c-0.393,0-0.749,0.159-1.003,0.415c-0.257,0.257-0.417,0.612-0.417,1.005
				c0,0.388,0.16,0.746,0.417,1.002c0.254,0.255,0.61,0.415,1.003,0.415c0.39,0,0.746-0.16,1.001-0.415
				c0.257-0.256,0.416-0.614,0.416-1.002H1221.787"/>
			<polygon fill="#BA8E2D" points="1221.308,1297.32 1221.322,1297.269 1221.322,1297.247 1221.327,1297.215 1221.327,1297.123 
				1221.46,1297.116 1221.414,1296.892 1221.288,1296.938 1221.234,1296.825 1221.202,1296.771 1221.163,1296.727 
				1221.261,1296.634 1221.083,1296.488 1221.017,1296.6 1220.958,1296.573 1220.896,1296.554 1220.839,1296.534 1220.772,1296.52 
				1220.784,1296.39 1220.554,1296.396 1220.573,1296.527 1220.402,1296.586 1220.341,1296.619 1220.27,1296.507 1220.097,1296.659 
				1220.195,1296.746 1220.077,1296.971 1219.951,1296.925 1219.92,1297.156 1220.052,1297.156 1220.058,1297.222 
				1220.084,1297.348 1220.104,1297.407 1219.984,1297.46 1220.104,1297.658 1220.203,1297.573 1220.25,1297.618 1220.295,1297.658 
				1220.402,1297.724 1220.341,1297.843 1220.56,1297.916 1220.579,1297.783 1220.634,1297.791 1220.694,1297.791 
				1220.766,1297.783 1220.772,1297.783 1220.839,1297.771 1220.865,1297.903 1221.077,1297.817 1221.01,1297.704 
				1221.063,1297.672 1221.109,1297.633 1221.155,1297.586 1221.196,1297.538 1221.302,1297.618 1221.414,1297.414 
				1221.294,1297.374 			"/>
			<path d="M1211.553,1297.302h-0.298c0,0.195-0.079,0.371-0.206,0.499c-0.131,0.129-0.304,0.208-0.501,0.208
				c-0.195,0-0.371-0.079-0.499-0.208c-0.129-0.128-0.208-0.304-0.208-0.499c0-0.197,0.079-0.37,0.208-0.5
				c0.128-0.128,0.304-0.207,0.499-0.207c0.197,0,0.37,0.079,0.501,0.207c0.128,0.13,0.206,0.303,0.206,0.5h0.594
				c0.002-0.357-0.145-0.687-0.381-0.921c-0.232-0.236-0.561-0.381-0.92-0.381s-0.686,0.145-0.92,0.381
				c-0.234,0.234-0.381,0.563-0.381,0.921c0,0.358,0.146,0.687,0.381,0.921s0.561,0.382,0.92,0.382s0.688-0.147,0.92-0.382
				c0.236-0.234,0.383-0.562,0.381-0.921H1211.553"/>
			<polygon fill="#BA8E2D" points="1211.112,1297.453 1211.125,1297.405 1211.125,1297.388 1211.13,1297.355 1211.13,1297.271 
				1211.253,1297.265 1211.209,1297.058 1211.093,1297.102 1211.046,1296.997 1211.017,1296.949 1210.979,1296.908 
				1211.069,1296.821 1210.907,1296.689 1210.845,1296.791 1210.792,1296.766 1210.736,1296.749 1210.681,1296.73 
				1210.619,1296.719 1210.631,1296.597 1210.419,1296.603 1210.438,1296.725 1210.28,1296.778 1210.226,1296.81 1210.159,1296.707 
				1210.001,1296.846 1210.093,1296.925 1209.982,1297.132 1209.868,1297.09 1209.837,1297.301 1209.958,1297.301 
				1209.964,1297.362 1209.987,1297.477 1210.007,1297.532 1209.897,1297.581 1210.007,1297.762 1210.098,1297.685 
				1210.14,1297.726 1210.183,1297.762 1210.28,1297.824 1210.226,1297.934 1210.426,1297.999 1210.443,1297.878 1210.494,1297.885 
				1210.548,1297.885 1210.614,1297.878 1210.619,1297.878 1210.681,1297.868 1210.705,1297.986 1210.899,1297.908 
				1210.838,1297.806 1210.888,1297.774 1210.93,1297.739 1210.973,1297.695 1211.01,1297.653 1211.106,1297.726 1211.209,1297.538 
				1211.1,1297.501 			"/>
		</g>
	</g>
</g>
</svg>
