<svg xmlns="http://www.w3.org/2000/svg" width="1366" height="700" viewBox="0 0 1366 700"><path d="M1054.18 612.053l.07-.502s.086-.124.313-.3c.23-.174.445-.332.466-.477.02-.146-.074.447-.085.503-.006.056-.226.24-.414.367-.188.13-.35.41-.35.41zM1054.294 611.156l.07-.5s.192-.237.292-.33c.144-.14.423-.104.423-.104l-.02.16c-.007.056-.227.242-.416.37-.185.127-.35.404-.35.404z"/><path d="M1055.072 610.2h-.154l-.13.023.02-.09-.027-.1zM1054.494 610.43l-.055-.188.012-.132.288-.072.03.107-.147.162z"/><g><path d="M1053.788 614.688l.07-.502s.087-.125.315-.3c.23-.174.446-.332.466-.478.02-.145-.074.45-.082.504-.01.056-.23.24-.417.37-.186.126-.352.406-.352.406zM1053.915 613.798l.07-.5s.085-.126.314-.302c.23-.174.444-.333.467-.48.02-.143-.076.45-.084.505-.01.058-.23.243-.416.37-.19.13-.352.408-.352.408zM1054.06 612.887l.07-.502s.087-.124.315-.3c.23-.172.445-.332.47-.478.018-.145-.076.45-.084.505-.008.056-.228.24-.417.368-.188.128-.352.407-.352.407z"/></g><g><path d="M1053.393 617.382l.07-.5s.086-.126.314-.3c.23-.176.446-.333.468-.48.02-.143-.074.45-.08.505-.01.057-.23.24-.42.368-.188.13-.352.407-.352.407zM1053.546 616.416l.07-.503s.087-.123.313-.298c.23-.175.445-.334.468-.48.02-.143-.076.45-.083.506-.01.06-.23.242-.417.37-.188.128-.352.406-.352.406zM1053.663 615.582l.07-.502s.086-.125.314-.3c.23-.176.446-.334.467-.48.02-.145-.073.448-.082.503-.01.056-.23.24-.417.37-.19.13-.352.41-.352.41z"/></g><g><path d="M1053.275 618.217l.07-.5s.085-.125.315-.3c.23-.175.444-.335.466-.478.02-.147-.074.446-.083.503-.01.056-.23.24-.416.37-.188.126-.352.404-.352.404zM1053.01 620.106l.07-.503s.086-.125.313-.3c.23-.174.445-.333.468-.48.02-.144-.073.45-.08.506-.012.053-.23.24-.42.37-.186.128-.35.406-.35.406zM1053.162 619.14l.07-.503s.088-.125.315-.298c.23-.177.443-.334.466-.48.02-.146-.074.447-.083.505-.008.053-.23.238-.417.367-.187.13-.35.407-.35.407z"/></g></svg>