<?xml version="1.0" encoding="iso-8859-1"?>
<!-- Generator: Adobe Illustrator 16.0.4, SVG Export Plug-In . SVG Version: 6.00 Build 0)  -->
<!DOCTYPE svg PUBLIC "-//W3C//DTD SVG 1.1//EN" "http://www.w3.org/Graphics/SVG/1.1/DTD/svg11.dtd">
<svg version="1.1" xmlns="http://www.w3.org/2000/svg" xmlns:xlink="http://www.w3.org/1999/xlink" x="0px" y="0px" width="1366px"
	 height="700px" viewBox="0 0 1366 700" style="enable-background:new 0 0 1366 700;" xml:space="preserve">
<g id="GS_Bit_14">
	<g id="GS_bit_14_Q4">
		<path d="M1075.901,612.061l0.077-0.5c0,0,0.088-0.124,0.318-0.296s0.449-0.329,0.471-0.473c0.022-0.146-0.078,0.445-0.087,0.503
			c-0.009,0.055-0.229,0.238-0.421,0.363S1075.901,612.061,1075.901,612.061z"/>
		<path d="M1076.027,611.167l0.074-0.501c0,0,0.198-0.235,0.295-0.327c0.148-0.137,0.428-0.101,0.428-0.101l-0.02,0.161
			c-0.009,0.057-0.229,0.238-0.421,0.363C1076.195,610.891,1076.027,611.167,1076.027,611.167z"/>
		<polygon points="1076.816,610.22 1076.662,610.217 1076.534,610.236 1076.553,610.15 1076.529,610.05 		"/>
		<polygon points="1076.235,610.44 1076.183,610.254 1076.197,610.122 1076.488,610.055 1076.517,610.16 1076.368,610.32 		"/>
	</g>
	<g id="GS_bit_14_Q3">
		<path d="M1075.484,614.691l0.076-0.5c0,0,0.087-0.123,0.316-0.295c0.233-0.174,0.45-0.328,0.475-0.475
			c0.021-0.145-0.079,0.448-0.089,0.503c-0.01,0.057-0.229,0.239-0.422,0.364C1075.652,614.416,1075.484,614.691,1075.484,614.691z"
			/>
		<path d="M1075.619,613.803l0.076-0.501c0,0,0.088-0.123,0.317-0.295c0.231-0.172,0.448-0.328,0.474-0.472
			c0.021-0.146-0.079,0.446-0.088,0.502c-0.01,0.056-0.23,0.238-0.422,0.364C1075.787,613.526,1075.619,613.803,1075.619,613.803z"
			/>
		<path d="M1075.774,612.894l0.077-0.501c0,0,0.088-0.123,0.318-0.296c0.229-0.171,0.448-0.327,0.471-0.472
			c0.023-0.145-0.078,0.447-0.087,0.503c-0.009,0.055-0.229,0.239-0.422,0.362C1075.943,612.617,1075.774,612.894,1075.774,612.894z
			"/>
	</g>
	<g id="GS_bit_14_Q2">
		<path d="M1075.058,617.382l0.076-0.501c0,0,0.087-0.123,0.319-0.295c0.229-0.173,0.447-0.328,0.471-0.474
			c0.021-0.146-0.079,0.448-0.088,0.503c-0.01,0.056-0.229,0.238-0.421,0.364C1075.225,617.105,1075.058,617.382,1075.058,617.382z"
			/>
		<path d="M1075.221,616.417l0.077-0.502c0,0,0.088-0.122,0.319-0.294c0.229-0.171,0.447-0.328,0.472-0.475
			c0.021-0.144-0.08,0.447-0.088,0.504c-0.009,0.055-0.229,0.237-0.421,0.364C1075.39,616.141,1075.221,616.417,1075.221,616.417z"
			/>
		<path d="M1075.349,615.584l0.076-0.501c0,0,0.088-0.124,0.318-0.297c0.23-0.171,0.449-0.327,0.472-0.472
			c0.021-0.145-0.079,0.446-0.087,0.502c-0.009,0.057-0.23,0.237-0.421,0.364C1075.517,615.307,1075.349,615.584,1075.349,615.584z"
			/>
	</g>
	<g id="GS_bit_14_Q1">
		<path d="M1074.931,618.216l0.077-0.501c0,0,0.086-0.123,0.318-0.296c0.229-0.171,0.447-0.327,0.471-0.473
			c0.021-0.145-0.08,0.446-0.087,0.502c-0.011,0.056-0.232,0.237-0.422,0.364C1075.098,617.938,1074.931,618.216,1074.931,618.216z"
			/>
		<path d="M1074.643,620.101l0.078-0.5c0,0,0.087-0.124,0.318-0.297c0.229-0.171,0.449-0.328,0.471-0.471
			c0.021-0.146-0.079,0.446-0.087,0.502c-0.009,0.055-0.231,0.237-0.421,0.362C1074.812,619.824,1074.643,620.101,1074.643,620.101z
			"/>
		<path d="M1074.809,619.136l0.075-0.5c0,0,0.088-0.124,0.317-0.297c0.23-0.171,0.449-0.329,0.473-0.471
			c0.021-0.146-0.08,0.444-0.088,0.501c-0.008,0.056-0.23,0.238-0.421,0.363C1074.976,618.859,1074.809,619.136,1074.809,619.136z"
			/>
	</g>
</g>
<g id="Layer_1">
</g>
</svg>
