<svg xmlns="http://www.w3.org/2000/svg" width="1366" height="700" viewBox="0 0 1366 700"><path d="M1065.847 612.02l.07-.503s.086-.122.315-.298c.23-.175.445-.333.47-.477.02-.146-.078.446-.085.502-.01.057-.23.24-.417.368-.19.127-.353.407-.353.407zM1065.963 611.123l.07-.5s.194-.238.293-.33c.146-.14.426-.103.426-.103l-.02.16c-.01.058-.23.242-.416.37-.19.127-.353.403-.353.403z"/><path d="M1066.74 610.17h-.15l-.128.02.017-.086-.027-.1zM1066.163 610.396l-.053-.185.013-.132.29-.072.03.105-.148.164z"/><g><path d="M1065.452 614.654l.07-.502s.087-.125.314-.3c.23-.173.447-.33.468-.475.02-.146-.074.447-.083.503-.007.055-.228.24-.416.368-.19.128-.352.406-.352.406zM1065.58 613.765l.07-.502s.086-.124.314-.298c.23-.174.447-.332.468-.477.02-.146-.077.447-.084.504-.008.055-.23.238-.416.365-.188.13-.353.408-.353.408zM1065.727 612.854l.07-.5s.087-.127.316-.3.447-.332.47-.477c.02-.146-.077.447-.085.503-.008.055-.23.24-.417.37-.188.124-.353.404-.353.404z"/></g><g><path d="M1065.05 617.35l.07-.504s.087-.123.315-.298c.23-.174.446-.332.47-.478.02-.146-.076.45-.085.504-.008.056-.23.24-.416.366-.19.13-.354.41-.354.41zM1065.205 616.383l.07-.503s.086-.124.314-.3c.228-.172.446-.33.467-.475.02-.146-.076.446-.084.503-.008.056-.23.24-.416.366-.187.13-.352.41-.352.41zM1065.324 615.546l.07-.5s.086-.124.315-.3c.228-.173.445-.33.467-.477.022-.146-.074.447-.085.503-.008.057-.227.24-.417.367-.187.13-.35.406-.35.406z"/></g><g><path d="M1064.93 618.182l.07-.5s.09-.126.316-.3c.23-.173.446-.33.47-.476.02-.146-.077.447-.085.504-.007.056-.228.24-.416.367-.19.127-.354.405-.354.405zM1064.66 620.07l.07-.502s.086-.124.315-.3c.23-.173.446-.33.468-.476.02-.146-.076.448-.084.503-.01.055-.23.24-.417.37-.19.127-.354.404-.354.404zM1064.814 619.104l.07-.502s.087-.12.317-.298c.23-.174.444-.33.47-.478.02-.145-.077.45-.085.505-.01.057-.23.24-.418.37-.188.126-.353.404-.353.404z"/></g></svg>