<svg xmlns="http://www.w3.org/2000/svg" width="1366" height="700" viewBox="0 0 1366 700"><path d="M1089.303 612.02l.067-.503s.085-.124.312-.298c.23-.177.445-.337.465-.48.02-.146-.072.448-.08.505-.008.054-.228.24-.414.37-.188.127-.35.406-.35.406zM1089.412 611.125l.066-.502s.195-.237.29-.33c.147-.142.426-.105.426-.105l-.017.16c-.01.056-.228.243-.415.37-.188.13-.35.407-.35.407z"/><path d="M1090.186 610.167h-.155l-.124.022.017-.088-.027-.098zM1089.608 610.396l-.053-.184.01-.132.29-.075.032.106-.147.165z"/><g><path d="M1088.924 614.658l.068-.5s.086-.127.313-.303c.23-.175.444-.334.463-.48.02-.145-.07.45-.08.504-.007.056-.227.242-.415.37-.185.13-.35.408-.35.408zM1089.047 613.77l.066-.503s.087-.124.312-.3c.23-.176.444-.336.465-.48.02-.145-.072.448-.08.504-.007.056-.227.242-.414.37-.186.13-.35.41-.35.41zM1089.188 612.857l.068-.504s.086-.125.312-.3c.23-.175.445-.335.465-.48.02-.144-.07.45-.08.506-.006.054-.228.24-.414.37-.19.126-.352.407-.352.407z"/></g><g><path d="M1088.54 617.354l.065-.5s.088-.125.314-.3.443-.337.462-.48c.02-.145-.072.45-.08.506-.007.053-.225.24-.414.37-.186.126-.35.404-.35.404zM1088.69 616.39l.065-.503s.086-.125.315-.302c.23-.174.44-.334.464-.48.02-.144-.074.45-.08.507-.01.056-.23.24-.416.37-.186.128-.35.407-.35.407zM1088.802 615.553l.068-.5s.087-.126.312-.302c.23-.174.444-.334.464-.478.02-.145-.07.448-.08.506-.006.056-.226.24-.412.37-.19.126-.352.405-.352.405z"/></g><g><path d="M1088.425 618.19l.07-.5s.085-.127.31-.304c.23-.175.445-.334.465-.478.02-.146-.07.447-.078.503-.01.056-.23.242-.416.37-.187.13-.35.41-.35.41zM1088.167 620.08l.067-.5s.088-.127.313-.304c.23-.175.445-.334.464-.48l-.078.505c-.008.058-.228.243-.413.37-.19.13-.353.41-.353.41zM1088.316 619.113l.067-.503s.085-.124.314-.3c.23-.176.44-.336.464-.48.022-.144-.072.448-.08.505-.008.055-.228.24-.414.37s-.35.408-.35.408z"/></g></svg>