<svg xmlns="http://www.w3.org/2000/svg" width="1366" height="700" viewBox="0 0 1366 700"><path d="M1047.96 612.082l.073-.5s.087-.126.314-.3c.23-.175.446-.333.467-.48.02-.144-.074.45-.082.505-.01.056-.23.24-.418.368s-.354.407-.354.407zM1048.078 611.188l.07-.502s.196-.235.29-.33c.148-.138.43-.103.43-.103l-.02.16c-.01.057-.228.24-.418.368-.186.128-.352.408-.352.408z"/><path d="M1048.86 610.233l-.154-.002-.13.022.02-.085-.026-.102zM1048.28 610.46l-.054-.19.012-.13.293-.068.03.104-.148.162z"/><g><path d="M1047.564 614.716l.07-.5s.087-.124.316-.298c.23-.176.447-.332.47-.48.02-.145-.075.448-.083.504-.01.058-.23.24-.42.367-.187.13-.353.406-.353.406zM1047.692 613.826l.072-.502s.087-.123.315-.298.444-.332.467-.478c.02-.146-.075.448-.083.503-.01.058-.23.242-.418.37-.188.13-.354.406-.354.406zM1047.84 612.916l.074-.502s.086-.124.313-.298c.23-.175.445-.332.468-.48.02-.143-.074.45-.082.505-.01.058-.23.242-.42.368-.186.13-.353.408-.353.408z"/></g><g><path d="M1047.16 617.41l.072-.502s.086-.125.315-.3c.23-.175.445-.33.468-.477.02-.145-.074.45-.084.505-.008.056-.227.24-.417.368-.19.13-.352.407-.352.407zM1047.316 616.443l.072-.502s.086-.122.315-.297c.23-.173.446-.33.47-.477.02-.146-.078.447-.085.504-.007.055-.23.24-.418.368-.188.128-.354.405-.354.405zM1047.438 615.61l.07-.502s.088-.125.317-.3c.23-.173.447-.332.467-.476.02-.145-.075.447-.082.502-.008.058-.23.24-.418.37-.188.127-.354.405-.354.405z"/></g><g><path d="M1047.04 618.245l.073-.502s.086-.124.315-.3c.23-.174.445-.33.466-.477.02-.144-.075.448-.082.503-.01.056-.23.24-.418.367-.187.13-.353.408-.353.408zM1046.77 620.133l.072-.5s.087-.126.316-.3c.23-.175.446-.333.468-.477.02-.146-.076.446-.083.502-.01.057-.23.24-.418.366-.19.13-.355.41-.355.41zM1046.927 619.166l.07-.5s.088-.126.315-.3c.23-.175.446-.333.467-.478.02-.144-.074.447-.083.502-.008.057-.23.24-.418.368-.188.13-.353.408-.353.408z"/></g></svg>