<svg xmlns="http://www.w3.org/2000/svg" width="1366" height="700" viewBox="0 0 1366 700"><path d="M1071.148 612.026l.076-.5s.088-.124.32-.296c.228-.173.448-.327.47-.473.023-.145-.08.448-.09.503-.007.056-.228.238-.42.363-.188.13-.356.403-.356.403zM1071.274 611.133l.075-.5s.197-.236.295-.327c.147-.137.428-.1.428-.1l-.02.16c-.01.057-.23.238-.423.364-.19.127-.356.403-.356.403z"/><path d="M1072.062 610.186h-.153l-.13.018.02-.087-.025-.1zM1071.483 610.408l-.053-.187.015-.13.29-.07.03.106-.152.16z"/><g><path d="M1070.78 614.668l.078-.5s.087-.123.316-.295c.233-.172.45-.33.474-.474.02-.146-.078.444-.088.502-.01.056-.23.236-.42.363-.19.127-.36.403-.36.403zM1070.918 613.78l.077-.502s.088-.124.317-.295c.23-.173.448-.328.474-.472.02-.145-.08.448-.09.503-.01.056-.23.24-.42.363-.19.128-.358.403-.358.403zM1071.074 612.87l.074-.5s.088-.124.32-.296c.23-.173.448-.328.47-.474.022-.144-.077.448-.088.503-.008.055-.23.237-.42.363-.188.128-.356.404-.356.404z"/></g><g><path d="M1070.354 617.357l.076-.5s.088-.124.318-.298c.23-.172.45-.326.472-.472.022-.146-.08.448-.088.503s-.23.24-.42.365c-.19.126-.358.402-.358.402zM1070.52 616.394l.075-.5s.09-.125.32-.297.448-.327.47-.472c.022-.145-.078.447-.086.503-.01.055-.233.237-.422.364-.19.125-.358.402-.358.402zM1070.646 615.56l.075-.5s.088-.122.32-.295c.23-.172.45-.33.472-.473.022-.146-.08.446-.088.503-.01.055-.23.238-.42.363-.19.125-.358.402-.358.402z"/></g><g><path d="M1070.227 618.19l.076-.5s.088-.123.32-.296c.228-.172.447-.327.472-.473.02-.144-.08.45-.09.504-.008.055-.228.238-.42.364-.19.127-.358.403-.358.403zM1069.938 620.074l.076-.5s.088-.123.32-.295c.23-.172.448-.33.47-.475.022-.145-.077.447-.087.504-.01.054-.23.236-.422.362-.19.127-.357.402-.357.402zM1070.104 619.11l.075-.5s.088-.123.318-.295c.23-.173.45-.328.472-.473.022-.146-.08.447-.087.503-.01.056-.232.238-.423.363-.19.127-.356.403-.356.403z"/></g></svg>