<svg xmlns="http://www.w3.org/2000/svg" width="1366" height="700" viewBox="0 0 1366 700"><path d="M1037.9 611.98l.068-.502s.086-.125.315-.3c.23-.175.443-.334.467-.48.02-.145-.076.45-.083.503-.007.058-.23.244-.415.37-.19.13-.352.41-.352.41zM1038.015 611.084l.068-.5s.196-.24.292-.33c.145-.14.425-.105.425-.105l-.018.16c-.007.057-.23.242-.415.368-.19.13-.352.406-.352.406z"/><path d="M1038.79 610.128h-.152l-.128.02.017-.086-.026-.1zM1038.212 610.356l-.054-.184.013-.133.29-.074.03.106-.146.162z"/><g><path d="M1037.515 614.617l.07-.504s.086-.125.313-.298c.23-.176.445-.335.466-.48.02-.145-.07.45-.08.505-.01.055-.23.242-.416.37-.188.128-.353.407-.353.407zM1037.64 613.727l.07-.5s.085-.126.313-.3.444-.334.466-.48c.02-.146-.075.45-.083.504-.01.056-.23.24-.416.37s-.35.407-.35.407zM1037.783 612.815l.068-.503s.087-.125.315-.3c.23-.174.445-.333.467-.478.02-.146-.075.447-.082.503-.008.056-.23.24-.416.37-.187.13-.35.408-.35.408z"/></g><g><path d="M1037.122 617.312l.067-.502s.087-.125.313-.3c.23-.175.446-.333.467-.48.02-.145-.074.45-.082.506s-.228.24-.416.368c-.187.13-.35.408-.35.408zM1037.273 616.346l.07-.503s.084-.124.313-.3c.23-.174.443-.332.467-.478.02-.146-.076.447-.083.504-.007.055-.23.24-.415.367-.187.13-.352.41-.352.41zM1037.39 615.51l.07-.5s.086-.126.313-.3c.23-.177.445-.335.467-.48.02-.146-.072.447-.083.503-.007.057-.228.24-.415.37-.188.128-.35.407-.35.407z"/></g><g><path d="M1037.005 618.146l.07-.502s.086-.125.312-.3c.23-.175.446-.333.466-.48.02-.145-.073.45-.082.506-.006.056-.226.24-.415.368-.186.13-.35.408-.35.408zM1036.74 620.035l.07-.502s.084-.125.314-.3c.23-.176.443-.334.465-.48.02-.145-.076.45-.083.505-.008.055-.23.24-.415.37-.188.13-.352.407-.352.407zM1036.893 619.068l.07-.502s.086-.123.316-.3c.228-.175.44-.333.464-.48.02-.145-.073.45-.082.506-.01.055-.23.24-.416.37-.188.13-.353.406-.353.406z"/></g></svg>