<?xml version="1.0" encoding="iso-8859-1"?>
<!-- Generator: Adobe Illustrator 16.0.4, SVG Export Plug-In . SVG Version: 6.00 Build 0)  -->
<!DOCTYPE svg PUBLIC "-//W3C//DTD SVG 1.1//EN" "http://www.w3.org/Graphics/SVG/1.1/DTD/svg11.dtd">
<svg version="1.1" xmlns="http://www.w3.org/2000/svg" xmlns:xlink="http://www.w3.org/1999/xlink" x="0px" y="0px" width="1366px"
	 height="700px" viewBox="0 0 1366 700" style="enable-background:new 0 0 1366 700;" xml:space="preserve">
<g id="GS_Bit_8">
	<g id="GS_bit_8_Q4">
		<path d="M1043.214,612.039l0.072-0.502c0,0,0.085-0.125,0.313-0.299c0.229-0.176,0.446-0.332,0.467-0.479
			c0.021-0.144-0.074,0.449-0.084,0.505c-0.008,0.055-0.227,0.24-0.416,0.368C1043.379,611.762,1043.214,612.039,1043.214,612.039z"
			/>
		<path d="M1043.33,611.144l0.068-0.5c0,0,0.196-0.238,0.293-0.331c0.146-0.138,0.428-0.103,0.428-0.103l-0.02,0.161
			c-0.009,0.055-0.229,0.24-0.418,0.368C1043.494,610.865,1043.33,611.144,1043.33,611.144z"/>
		<polygon points="1044.109,610.188 1043.955,610.189 1043.827,610.209 1043.846,610.122 1043.82,610.021 		"/>
		<polygon points="1043.531,610.417 1043.477,610.23 1043.49,610.098 1043.779,610.027 1043.811,610.132 1043.661,610.295 		"/>
	</g>
	<g id="GS_bit_8_Q3">
		<path d="M1042.822,614.674l0.07-0.5c0,0,0.087-0.124,0.315-0.299c0.229-0.173,0.445-0.333,0.466-0.479
			c0.021-0.145-0.074,0.446-0.082,0.504c-0.008,0.057-0.229,0.238-0.416,0.369C1042.988,614.396,1042.822,614.674,1042.822,614.674z
			"/>
		<path d="M1042.947,613.783l0.072-0.502c0,0,0.084-0.123,0.315-0.298c0.229-0.175,0.443-0.332,0.466-0.478
			c0.021-0.146-0.074,0.448-0.084,0.504c-0.007,0.056-0.228,0.241-0.417,0.367C1043.113,613.508,1042.947,613.783,1042.947,613.783z
			"/>
		<path d="M1043.096,612.874l0.071-0.503c0,0,0.085-0.124,0.315-0.299c0.229-0.174,0.443-0.332,0.468-0.478
			c0.018-0.145-0.075,0.449-0.085,0.504c-0.007,0.056-0.229,0.24-0.416,0.368C1043.261,612.595,1043.096,612.874,1043.096,612.874z"
			/>
	</g>
	<g id="GS_bit_8_Q2">
		<path d="M1042.422,617.367l0.071-0.5c0,0,0.086-0.125,0.313-0.301c0.23-0.175,0.446-0.331,0.468-0.477
			c0.021-0.146-0.074,0.449-0.083,0.503c-0.009,0.056-0.229,0.241-0.416,0.369C1042.586,617.09,1042.422,617.367,1042.422,617.367z"
			/>
		<path d="M1042.576,616.402l0.07-0.501c0,0,0.086-0.125,0.315-0.301c0.229-0.174,0.446-0.331,0.467-0.476
			c0.021-0.146-0.073,0.448-0.083,0.504c-0.008,0.054-0.229,0.24-0.417,0.367C1042.74,616.125,1042.576,616.402,1042.576,616.402z"
			/>
		<path d="M1042.695,615.567l0.069-0.5c0,0,0.086-0.124,0.317-0.301c0.229-0.174,0.447-0.333,0.466-0.477
			c0.021-0.146-0.075,0.447-0.083,0.504c-0.009,0.055-0.229,0.24-0.417,0.367C1042.86,615.29,1042.695,615.567,1042.695,615.567z"/>
	</g>
	<g id="GS_bit_8_Q1">
		<path d="M1042.304,618.204l0.069-0.502c0,0,0.087-0.125,0.316-0.298c0.229-0.178,0.445-0.334,0.467-0.479
			c0.021-0.144-0.074,0.449-0.082,0.504c-0.01,0.057-0.229,0.24-0.418,0.369C1042.467,617.925,1042.304,618.204,1042.304,618.204z"
			/>
		<path d="M1042.034,620.09l0.071-0.5c0,0,0.085-0.124,0.314-0.298c0.229-0.175,0.444-0.333,0.467-0.479
			c0.021-0.145-0.073,0.447-0.083,0.505c-0.008,0.056-0.229,0.237-0.417,0.367C1042.199,619.814,1042.034,620.09,1042.034,620.09z"
			/>
		<path d="M1042.189,619.125l0.069-0.501c0,0,0.087-0.124,0.317-0.3c0.229-0.176,0.443-0.332,0.465-0.479
			c0.021-0.146-0.074,0.449-0.081,0.504c-0.01,0.057-0.229,0.24-0.419,0.368C1042.354,618.847,1042.189,619.125,1042.189,619.125z"
			/>
	</g>
</g>
<g id="Layer_1">
</g>
</svg>
