<?xml version="1.0" encoding="iso-8859-1"?>
<!-- Generator: Adobe Illustrator 16.0.4, SVG Export Plug-In . SVG Version: 6.00 Build 0)  -->
<!DOCTYPE svg PUBLIC "-//W3C//DTD SVG 1.1//EN" "http://www.w3.org/Graphics/SVG/1.1/DTD/svg11.dtd">
<svg version="1.1" xmlns="http://www.w3.org/2000/svg" xmlns:xlink="http://www.w3.org/1999/xlink" x="0px" y="0px" width="1366px"
	 height="700px" viewBox="0 0 1366 700" style="enable-background:new 0 0 1366 700;" xml:space="preserve">
<g id="GS_Bit_6">
	<g id="GS_bit_6_Q4">
		<path d="M1032.274,612.072l0.069-0.502c0,0,0.085-0.125,0.313-0.302c0.229-0.174,0.443-0.333,0.466-0.479
			c0.02-0.146-0.073,0.449-0.081,0.504c-0.009,0.055-0.229,0.242-0.416,0.37C1032.439,611.794,1032.274,612.072,1032.274,612.072z"
			/>
		<path d="M1032.388,611.176l0.07-0.501c0,0,0.192-0.239,0.29-0.332c0.144-0.14,0.424-0.104,0.424-0.104l-0.018,0.161
			c-0.009,0.057-0.228,0.242-0.413,0.37C1032.551,610.896,1032.388,611.176,1032.388,611.176z"/>
		<polygon points="1033.163,610.218 1033.009,610.218 1032.881,610.238 1032.899,610.154 1032.873,610.052 		"/>
		<polygon points="1032.585,610.447 1032.529,610.261 1032.544,610.13 1032.833,610.058 1032.863,610.163 1032.716,610.324 		"/>
	</g>
	<g id="GS_bit_6_Q3">
		<path d="M1031.892,614.646l0.067-0.503c0,0,0.087-0.122,0.316-0.299c0.229-0.176,0.442-0.334,0.465-0.479
			c0.02-0.146-0.073,0.448-0.082,0.504c-0.008,0.056-0.229,0.241-0.413,0.371C1032.055,614.367,1031.892,614.646,1031.892,614.646z"
			/>
		<path d="M1032.013,613.755l0.072-0.501c0,0,0.084-0.124,0.312-0.3c0.23-0.175,0.445-0.334,0.466-0.479
			c0.021-0.145-0.071,0.449-0.08,0.504c-0.009,0.057-0.228,0.242-0.416,0.369C1032.179,613.477,1032.013,613.755,1032.013,613.755z"
			/>
		<path d="M1032.158,612.844l0.067-0.5c0,0,0.084-0.126,0.312-0.301c0.229-0.178,0.444-0.335,0.467-0.479
			c0.021-0.146-0.074,0.449-0.083,0.505c-0.007,0.056-0.226,0.24-0.413,0.37C1032.32,612.565,1032.158,612.844,1032.158,612.844z"/>
	</g>
	<g id="GS_bit_6_Q2">
		<path d="M1031.502,617.343l0.067-0.505c0,0,0.087-0.123,0.315-0.298c0.229-0.174,0.444-0.335,0.464-0.479
			c0.021-0.144-0.071,0.45-0.081,0.507c-0.007,0.056-0.227,0.238-0.415,0.37C1031.667,617.062,1031.502,617.343,1031.502,617.343z"
			/>
		<path d="M1031.654,616.374l0.065-0.502c0,0,0.089-0.125,0.316-0.3c0.228-0.174,0.443-0.334,0.465-0.479
			c0.021-0.145-0.073,0.447-0.082,0.503c-0.007,0.057-0.229,0.242-0.414,0.37C1031.816,616.095,1031.654,616.374,1031.654,616.374z"
			/>
		<path d="M1031.768,615.541l0.07-0.502c0,0,0.085-0.126,0.312-0.301c0.229-0.178,0.444-0.336,0.467-0.479
			c0.02-0.144-0.074,0.449-0.082,0.503c-0.01,0.058-0.229,0.242-0.416,0.369C1031.934,615.261,1031.768,615.541,1031.768,615.541z"
			/>
	</g>
	<g id="GS_bit_6_Q1">
		<path d="M1031.388,618.177l0.066-0.502c0,0,0.088-0.125,0.313-0.3c0.23-0.176,0.445-0.335,0.467-0.479
			c0.021-0.144-0.07,0.447-0.08,0.503c-0.009,0.057-0.228,0.243-0.416,0.369C1031.55,617.898,1031.388,618.177,1031.388,618.177z"/>
		<path d="M1031.126,620.065l0.067-0.503c0,0,0.086-0.123,0.315-0.301c0.229-0.175,0.444-0.332,0.464-0.478
			c0.021-0.146-0.072,0.449-0.081,0.504c-0.008,0.055-0.227,0.24-0.416,0.368C1031.289,619.787,1031.126,620.065,1031.126,620.065z"
			/>
		<path d="M1031.276,619.1l0.069-0.503c0,0,0.085-0.125,0.313-0.299c0.228-0.174,0.442-0.335,0.466-0.479
			c0.019-0.145-0.074,0.447-0.082,0.504c-0.01,0.056-0.229,0.241-0.416,0.37C1031.441,618.818,1031.276,619.1,1031.276,619.1z"/>
	</g>
</g>
<g id="Layer_1">
</g>
</svg>
