<svg xmlns="http://www.w3.org/2000/svg" width="1366" height="700" viewBox="0 0 1366 700"><path d="M1032.274 612.072l.07-.502s.084-.125.312-.302c.23-.174.443-.333.466-.48.02-.145-.073.45-.08.505-.01.055-.23.242-.417.37-.186.13-.35.41-.35.41zM1032.388 611.176l.07-.5s.192-.24.29-.333c.144-.14.424-.104.424-.104l-.018.16c-.01.057-.228.242-.413.37-.19.126-.352.406-.352.406z"/><path d="M1033.163 610.218h-.154l-.13.02.02-.084-.027-.102zM1032.585 610.447l-.056-.186.014-.13.29-.072.03.105-.148.16z"/><g><path d="M1031.892 614.646l.067-.503s.086-.122.315-.3c.23-.175.442-.333.465-.478.02-.146-.073.448-.082.504-.008.055-.23.24-.413.37-.19.127-.353.406-.353.406zM1032.013 613.755l.072-.5s.084-.125.312-.3c.23-.176.445-.335.466-.48.02-.145-.07.45-.08.504-.01.056-.228.24-.416.368-.188.13-.354.407-.354.407zM1032.158 612.844l.067-.5s.084-.126.312-.3c.23-.18.444-.336.467-.48.02-.146-.074.45-.083.505-.006.055-.225.24-.412.37-.188.125-.35.404-.35.404z"/></g><g><path d="M1031.502 617.343l.067-.505s.086-.123.314-.298c.23-.174.444-.335.464-.48.02-.143-.07.45-.08.508-.008.056-.228.238-.416.37-.185.124-.35.405-.35.405zM1031.654 616.374l.065-.502s.088-.125.315-.3c.228-.174.443-.334.465-.48.02-.144-.073.448-.082.504-.007.057-.23.242-.414.37-.188.13-.35.408-.35.408zM1031.768 615.54l.07-.5s.085-.127.312-.302c.23-.178.444-.336.467-.48.02-.143-.074.45-.082.504-.01.058-.23.242-.416.37-.186.13-.352.41-.352.41z"/></g><g><path d="M1031.388 618.177l.066-.502s.088-.125.313-.3c.23-.176.445-.335.467-.48.02-.143-.07.448-.08.504-.01.056-.228.242-.416.368-.188.13-.35.41-.35.41zM1031.126 620.065l.067-.503s.086-.123.315-.3c.23-.176.444-.333.464-.48.02-.145-.072.45-.08.505-.01.055-.228.24-.417.368-.186.132-.35.41-.35.41zM1031.276 619.1l.07-.503s.084-.125.312-.3c.228-.173.442-.334.466-.478.02-.146-.074.446-.082.503-.01.056-.23.24-.416.37-.185.125-.35.407-.35.407z"/></g></svg>