<?xml version="1.0" encoding="iso-8859-1"?>
<!-- Generator: Adobe Illustrator 16.0.4, SVG Export Plug-In . SVG Version: 6.00 Build 0)  -->
<!DOCTYPE svg PUBLIC "-//W3C//DTD SVG 1.1//EN" "http://www.w3.org/Graphics/SVG/1.1/DTD/svg11.dtd">
<svg version="1.1" xmlns="http://www.w3.org/2000/svg" xmlns:xlink="http://www.w3.org/1999/xlink" x="0px" y="0px" width="1366px"
	 height="700px" viewBox="0 0 1366 700" style="enable-background:new 0 0 1366 700;" xml:space="preserve">
<g id="GS_Bit_9">
	<g id="GS_bit_9_Q4">
		<path d="M1047.96,612.082l0.073-0.501c0,0,0.087-0.125,0.314-0.3c0.229-0.174,0.446-0.332,0.467-0.478
			c0.021-0.145-0.074,0.448-0.082,0.504c-0.009,0.056-0.229,0.24-0.418,0.368S1047.96,612.082,1047.96,612.082z"/>
		<path d="M1048.078,611.188l0.07-0.502c0,0,0.196-0.235,0.291-0.33c0.147-0.138,0.428-0.103,0.428-0.103l-0.019,0.161
			c-0.009,0.056-0.228,0.24-0.418,0.367C1048.244,610.908,1048.078,611.188,1048.078,611.188z"/>
		<polygon points="1048.859,610.233 1048.706,610.231 1048.577,610.252 1048.595,610.167 1048.57,610.065 		"/>
		<polygon points="1048.281,610.459 1048.226,610.271 1048.238,610.141 1048.531,610.072 1048.559,610.176 1048.412,610.338 		"/>
	</g>
	<g id="GS_bit_9_Q3">
		<path d="M1047.564,614.716l0.071-0.501c0,0,0.086-0.123,0.315-0.297c0.229-0.176,0.447-0.332,0.47-0.479
			c0.021-0.146-0.075,0.447-0.083,0.503c-0.01,0.058-0.23,0.24-0.419,0.367C1047.73,614.439,1047.564,614.716,1047.564,614.716z"/>
		<path d="M1047.692,613.826l0.072-0.502c0,0,0.087-0.123,0.315-0.298s0.445-0.332,0.468-0.478c0.021-0.146-0.075,0.448-0.083,0.503
			c-0.009,0.057-0.229,0.241-0.418,0.369C1047.858,613.549,1047.692,613.826,1047.692,613.826z"/>
		<path d="M1047.84,612.916l0.074-0.502c0,0,0.086-0.124,0.313-0.298c0.229-0.175,0.445-0.332,0.468-0.479
			c0.021-0.144-0.074,0.449-0.082,0.504c-0.01,0.057-0.229,0.241-0.419,0.367C1048.007,612.639,1047.84,612.916,1047.84,612.916z"/>
	</g>
	<g id="GS_bit_9_Q2">
		<path d="M1047.161,617.41l0.071-0.502c0,0,0.086-0.125,0.315-0.299c0.229-0.176,0.445-0.332,0.468-0.478
			c0.021-0.146-0.074,0.449-0.084,0.504c-0.009,0.056-0.228,0.24-0.418,0.368C1047.324,617.132,1047.161,617.41,1047.161,617.41z"/>
		<path d="M1047.316,616.443l0.072-0.502c0,0,0.086-0.123,0.315-0.298c0.229-0.173,0.446-0.331,0.469-0.477
			c0.021-0.146-0.077,0.447-0.084,0.504c-0.007,0.055-0.229,0.24-0.418,0.368C1047.482,616.166,1047.316,616.443,1047.316,616.443z"
			/>
		<path d="M1047.438,615.609l0.071-0.501c0,0,0.087-0.125,0.316-0.301c0.229-0.172,0.447-0.331,0.467-0.475
			c0.021-0.145-0.075,0.447-0.082,0.502c-0.008,0.058-0.229,0.24-0.418,0.369C1047.604,615.331,1047.438,615.609,1047.438,615.609z"
			/>
	</g>
	<g id="GS_bit_9_Q1">
		<path d="M1047.041,618.245l0.072-0.502c0,0,0.086-0.124,0.315-0.3c0.229-0.174,0.445-0.329,0.466-0.477
			c0.021-0.144-0.075,0.448-0.082,0.503c-0.01,0.057-0.229,0.24-0.418,0.368C1047.207,617.966,1047.041,618.245,1047.041,618.245z"
			/>
		<path d="M1046.77,620.133l0.072-0.501c0,0,0.087-0.125,0.316-0.3c0.229-0.174,0.446-0.332,0.468-0.476
			c0.021-0.146-0.076,0.446-0.083,0.502c-0.009,0.057-0.229,0.239-0.418,0.366C1046.936,619.854,1046.77,620.133,1046.77,620.133z"
			/>
		<path d="M1046.927,619.166l0.071-0.501c0,0,0.087-0.125,0.314-0.3c0.23-0.174,0.446-0.332,0.467-0.477
			c0.021-0.144-0.073,0.447-0.082,0.502c-0.008,0.057-0.229,0.241-0.418,0.368C1047.092,618.888,1046.927,619.166,1046.927,619.166z
			"/>
	</g>
</g>
<g id="Layer_1">
</g>
</svg>
