<svg xmlns="http://www.w3.org/2000/svg" width="1366" height="700" viewBox="0 0 1366 700"><path d="M1075.9 612.06l.078-.5s.088-.123.318-.295.45-.33.47-.473c.023-.146-.077.445-.086.503-.01.055-.23.238-.42.363s-.36.403-.36.403zM1076.027 611.167l.074-.5s.2-.236.296-.328c.148-.138.428-.102.428-.102l-.02.16c-.01.058-.23.24-.42.364-.19.13-.357.405-.357.405z"/><path d="M1076.816 610.22l-.154-.003-.128.02.02-.087-.025-.1zM1076.235 610.44l-.052-.186.014-.132.29-.067.03.105-.15.16z"/><g><path d="M1075.484 614.69l.076-.5s.087-.122.316-.294c.233-.174.45-.328.475-.475.022-.144-.078.45-.088.504-.01.057-.23.24-.422.364-.188.128-.356.403-.356.403zM1075.62 613.803l.075-.5s.088-.124.317-.296c.23-.172.448-.328.474-.472.02-.146-.08.446-.088.502-.01.056-.23.238-.422.364-.19.126-.357.403-.357.403zM1075.774 612.894l.077-.5s.09-.124.32-.297c.228-.17.447-.327.47-.472.023-.145-.078.447-.087.503-.01.055-.23.24-.422.362-.187.127-.356.404-.356.404z"/></g><g><path d="M1075.058 617.382l.076-.5s.087-.124.32-.296c.228-.173.446-.328.47-.474.02-.146-.08.448-.088.503-.01.056-.23.238-.42.364-.19.125-.358.402-.358.402zM1075.22 616.417l.078-.502s.088-.122.32-.294c.228-.17.446-.327.47-.474.022-.144-.08.447-.087.504-.008.055-.228.237-.42.364-.19.127-.36.403-.36.403zM1075.35 615.584l.075-.5s.088-.125.318-.298c.23-.17.45-.327.472-.472.02-.145-.08.446-.087.502-.01.057-.23.237-.42.364-.19.127-.36.404-.36.404z"/></g><g><path d="M1074.93 618.216l.078-.5s.086-.124.318-.297c.23-.172.447-.328.47-.474.022-.145-.08.446-.086.502-.01.056-.232.237-.422.364-.19.126-.357.404-.357.404zM1074.643 620.1l.078-.5s.088-.123.32-.296c.228-.17.448-.328.47-.47a13.3 13.3 0 0 0-.087.5c-.01.056-.23.238-.42.363-.19.127-.36.404-.36.404zM1074.81 619.136l.074-.5s.088-.124.317-.297c.23-.172.45-.33.474-.472.02-.146-.08.444-.088.5-.008.057-.23.24-.42.364-.19.127-.357.404-.357.404z"/></g></svg>