<svg xmlns="http://www.w3.org/2000/svg" width="1366" height="700" viewBox="0 0 1366 700"><path d="M1060.117 612.07l.068-.502s.086-.124.315-.3c.23-.174.444-.333.468-.477.02-.145-.076.45-.083.505-.01.054-.23.242-.417.367-.185.13-.35.407-.35.407zM1060.232 611.175l.07-.502s.195-.237.29-.33c.147-.14.427-.103.427-.103l-.02.16c-.008.056-.227.24-.416.368-.188.128-.352.407-.352.407z"/><path d="M1061.012 610.22l-.157-.002-.126.022.017-.086-.026-.1zM1060.432 610.447l-.055-.186.016-.13.288-.073.032.105-.15.162z"/><g><path d="M1059.727 614.705l.07-.5s.086-.124.316-.3.443-.333.466-.48c.02-.146-.075.45-.084.504-.01.056-.23.24-.416.367-.188.132-.353.408-.353.408zM1059.852 613.815l.072-.503s.085-.122.314-.298c.23-.174.444-.333.467-.478.02-.146-.073.448-.083.503-.007.056-.23.24-.416.368-.19.13-.354.407-.354.407zM1059.998 612.904l.072-.5s.084-.125.312-.3c.23-.176.446-.332.468-.478.022-.146-.072.448-.082.503-.008.055-.228.24-.416.368s-.354.406-.354.406z"/></g><g><path d="M1059.328 617.4l.068-.504s.087-.122.316-.298c.23-.174.444-.333.465-.477.02-.145-.074.448-.082.504-.008.055-.228.24-.416.37-.188.128-.352.406-.352.406zM1059.48 616.434l.07-.503s.087-.122.315-.296.446-.334.468-.48c.02-.145-.075.45-.083.504-.01.056-.23.242-.417.37-.187.128-.353.406-.353.406zM1059.6 615.6l.07-.503s.086-.124.316-.298c.23-.176.444-.334.467-.48.02-.145-.075.448-.083.504-.01.057-.23.24-.417.367-.187.13-.353.41-.353.41z"/></g><g><path d="M1059.21 618.234l.068-.502s.087-.124.314-.3c.23-.174.447-.332.468-.477.02-.146-.073.447-.084.503-.007.055-.227.243-.415.37-.187.13-.35.406-.35.406zM1058.94 620.123l.07-.502s.086-.124.316-.3c.23-.175.444-.33.467-.477.02-.146-.075.448-.084.503-.01.056-.23.24-.416.367-.19.13-.353.41-.353.41zM1059.097 619.156l.07-.502s.086-.123.313-.298c.23-.175.445-.334.47-.48.02-.144-.076.45-.083.504-.012.055-.23.242-.418.37-.19.127-.353.406-.353.406z"/></g></svg>