<?xml version="1.0" encoding="iso-8859-1"?>
<!-- Generator: Adobe Illustrator 16.0.4, SVG Export Plug-In . SVG Version: 6.00 Build 0)  -->
<!DOCTYPE svg PUBLIC "-//W3C//DTD SVG 1.1//EN" "http://www.w3.org/Graphics/SVG/1.1/DTD/svg11.dtd">
<svg version="1.1" xmlns="http://www.w3.org/2000/svg" xmlns:xlink="http://www.w3.org/1999/xlink" x="0px" y="0px" width="1366px"
	 height="700px" viewBox="0 0 1366 700" style="enable-background:new 0 0 1366 700;" xml:space="preserve">
<g id="GS_Bit_18">
	<g id="GS_bit_18_Q4">
		<path d="M1094.008,612.053l0.071-0.501c0,0,0.087-0.125,0.313-0.299c0.229-0.174,0.443-0.334,0.466-0.478
			c0.021-0.146-0.072,0.446-0.081,0.504c-0.009,0.056-0.229,0.237-0.417,0.365C1094.173,611.773,1094.008,612.053,1094.008,612.053z
			"/>
		<path d="M1094.122,611.158l0.071-0.5c0,0,0.193-0.239,0.291-0.332c0.145-0.139,0.427-0.104,0.427-0.104l-0.021,0.162
			c-0.008,0.056-0.227,0.241-0.416,0.367C1094.287,610.88,1094.122,611.158,1094.122,611.158z"/>
		<polygon points="1094.901,610.199 1094.746,610.199 1094.617,610.223 1094.636,610.134 1094.61,610.035 		"/>
		<polygon points="1094.322,610.43 1094.27,610.244 1094.281,610.112 1094.572,610.039 1094.601,610.146 1094.453,610.308 		"/>
	</g>
	<g id="GS_bit_18_Q3">
		<path d="M1093.619,614.689l0.068-0.504c0,0,0.087-0.123,0.316-0.298c0.229-0.174,0.444-0.335,0.467-0.479
			c0.021-0.145-0.073,0.448-0.084,0.503c-0.007,0.057-0.228,0.241-0.415,0.37C1093.785,614.41,1093.619,614.689,1093.619,614.689z"
			/>
		<path d="M1093.746,613.799l0.068-0.501c0,0,0.087-0.124,0.315-0.3c0.229-0.176,0.442-0.333,0.465-0.479
			c0.021-0.145-0.073,0.449-0.081,0.505c-0.008,0.057-0.229,0.241-0.417,0.367C1093.91,613.521,1093.746,613.799,1093.746,613.799z"
			/>
		<path d="M1093.89,612.888l0.071-0.501c0,0,0.086-0.126,0.314-0.3c0.229-0.175,0.444-0.334,0.467-0.479
			c0.021-0.144-0.074,0.449-0.082,0.505c-0.009,0.056-0.229,0.241-0.418,0.369C1094.057,612.61,1093.89,612.888,1093.89,612.888z"/>
	</g>
	<g id="GS_bit_18_Q2">
		<path d="M1093.223,617.383l0.071-0.5c0,0,0.086-0.125,0.315-0.3c0.229-0.175,0.443-0.332,0.466-0.479
			c0.02-0.145-0.074,0.448-0.081,0.503c-0.012,0.058-0.229,0.242-0.418,0.369C1093.388,617.105,1093.223,617.383,1093.223,617.383z"
			/>
		<path d="M1093.377,616.418l0.069-0.503c0,0,0.085-0.124,0.314-0.3c0.229-0.175,0.446-0.332,0.465-0.479
			c0.021-0.146-0.073,0.448-0.082,0.505c-0.007,0.058-0.227,0.24-0.416,0.368C1093.541,616.139,1093.377,616.418,1093.377,616.418z"
			/>
		<path d="M1093.493,615.583l0.069-0.502c0,0,0.086-0.125,0.314-0.3s0.447-0.334,0.467-0.479c0.021-0.146-0.074,0.449-0.082,0.503
			c-0.008,0.056-0.228,0.24-0.417,0.368C1093.659,615.304,1093.493,615.583,1093.493,615.583z"/>
	</g>
	<g id="GS_bit_18_Q1">
		<path d="M1093.105,618.219l0.071-0.502c0,0,0.084-0.124,0.312-0.299c0.229-0.176,0.446-0.333,0.467-0.479
			s-0.074,0.448-0.082,0.504s-0.229,0.24-0.416,0.369C1093.271,617.94,1093.105,618.219,1093.105,618.219z"/>
		<path d="M1092.84,620.106l0.071-0.503c0,0,0.086-0.122,0.313-0.299c0.229-0.174,0.446-0.334,0.467-0.477
			c0.021-0.146-0.074,0.447-0.084,0.502c-0.008,0.055-0.229,0.241-0.416,0.368C1093.004,619.829,1092.84,620.106,1092.84,620.106z"
			/>
		<path d="M1092.993,619.14l0.069-0.501c0,0,0.086-0.125,0.314-0.299c0.229-0.176,0.444-0.333,0.466-0.479s-0.075,0.447-0.081,0.504
			c-0.01,0.055-0.229,0.239-0.418,0.367C1093.158,618.862,1092.993,619.14,1092.993,619.14z"/>
	</g>
</g>
<g id="Layer_1">
</g>
</svg>
