<svg xmlns="http://www.w3.org/2000/svg" width="1366" height="700" viewBox="0 0 1366 700"><path d="M1094.008 612.053l.07-.5s.088-.126.314-.3c.23-.174.443-.334.466-.478.02-.146-.072.446-.08.504-.01.055-.23.236-.418.364-.187.13-.352.41-.352.41zM1094.122 611.158l.07-.5s.194-.24.292-.332c.145-.14.427-.104.427-.104l-.02.162c-.008.056-.227.24-.416.367-.187.13-.352.408-.352.408z"/><path d="M1094.9 610.2h-.154l-.13.023.02-.09-.026-.098zM1094.322 610.43l-.052-.186.01-.132.292-.073.03.106-.15.162z"/><g><path d="M1093.62 614.69l.067-.505s.087-.123.316-.298c.23-.174.444-.335.467-.48.02-.144-.073.45-.084.504-.007.058-.228.242-.415.37-.185.13-.35.41-.35.41zM1093.746 613.8l.068-.502s.087-.124.315-.3.44-.333.464-.48c.02-.144-.073.45-.08.506-.01.057-.23.24-.418.367-.186.13-.35.41-.35.41zM1093.89 612.888l.07-.5s.087-.127.315-.3c.23-.176.444-.335.467-.48.02-.144-.074.45-.082.505-.01.056-.23.24-.418.37-.185.127-.352.405-.352.405z"/></g><g><path d="M1093.223 617.383l.07-.5s.087-.125.316-.3c.228-.175.442-.332.465-.48.02-.144-.074.45-.08.504-.013.058-.23.242-.42.37-.187.128-.352.406-.352.406zM1093.377 616.418l.07-.503s.084-.124.313-.3c.23-.175.446-.332.465-.48.02-.145-.073.45-.082.506-.007.06-.227.24-.416.37-.186.13-.35.408-.35.408zM1093.493 615.583l.07-.502s.085-.124.313-.3.447-.333.467-.478c.02-.146-.074.45-.082.503-.007.056-.227.24-.416.368-.185.13-.35.41-.35.41z"/></g><g><path d="M1093.105 618.22l.07-.503s.085-.124.313-.3c.23-.175.446-.332.467-.478s-.074.447-.082.503-.23.24-.416.37c-.186.127-.352.406-.352.406zM1092.84 620.106l.07-.503s.087-.122.314-.3c.23-.173.446-.333.467-.476.022-.146-.073.447-.083.502-.008.054-.23.24-.416.367-.186.132-.35.41-.35.41zM1092.993 619.14l.07-.5s.085-.126.313-.3c.23-.176.444-.333.466-.48s-.075.448-.08.505c-.01.055-.23.24-.42.367-.184.13-.35.408-.35.408z"/></g></svg>