<?xml version="1.0" encoding="iso-8859-1"?>
<!-- Generator: Adobe Illustrator 16.0.4, SVG Export Plug-In . SVG Version: 6.00 Build 0)  -->
<!DOCTYPE svg PUBLIC "-//W3C//DTD SVG 1.1//EN" "http://www.w3.org/Graphics/SVG/1.1/DTD/svg11.dtd">
<svg version="1.1" xmlns="http://www.w3.org/2000/svg" xmlns:xlink="http://www.w3.org/1999/xlink" x="0px" y="0px" width="1366px"
	 height="700px" viewBox="0 0 1366 700" style="enable-background:new 0 0 1366 700;" xml:space="preserve">
<g id="GS_Bit_16">
	<g id="GS_bit_16_Q4">
		<path d="M1084.871,612.025l0.066-0.502c0,0,0.087-0.124,0.314-0.301c0.229-0.175,0.443-0.334,0.465-0.479
			c0.02-0.146-0.073,0.448-0.081,0.504c-0.008,0.054-0.228,0.241-0.414,0.37C1085.034,611.747,1084.871,612.025,1084.871,612.025z"
			/>
		<path d="M1084.982,611.131l0.067-0.502c0,0,0.195-0.238,0.291-0.331c0.146-0.14,0.424-0.105,0.424-0.105l-0.017,0.161
			c-0.007,0.057-0.229,0.242-0.414,0.37C1085.146,610.852,1084.982,611.131,1084.982,611.131z"/>
		<polygon points="1085.757,610.17 1085.604,610.172 1085.476,610.193 1085.492,610.106 1085.467,610.007 		"/>
		<polygon points="1085.179,610.402 1085.124,610.217 1085.137,610.084 1085.426,610.012 1085.458,610.115 1085.311,610.281 		"/>
	</g>
	<g id="GS_bit_16_Q3">
		<path d="M1084.49,614.664l0.069-0.504c0,0,0.087-0.123,0.313-0.299c0.229-0.177,0.443-0.335,0.465-0.479
			c0.02-0.146-0.073,0.448-0.08,0.504s-0.228,0.242-0.415,0.369C1084.656,614.385,1084.49,614.664,1084.49,614.664z"/>
		<path d="M1084.615,613.773l0.066-0.502c0,0,0.085-0.125,0.314-0.302c0.229-0.175,0.443-0.334,0.465-0.479
			c0.02-0.146-0.074,0.448-0.082,0.502c-0.007,0.058-0.229,0.243-0.415,0.37C1084.777,613.494,1084.615,613.773,1084.615,613.773z"
			/>
		<path d="M1084.756,612.861l0.068-0.501c0,0,0.087-0.126,0.313-0.302c0.229-0.176,0.444-0.335,0.464-0.479
			c0.021-0.146-0.071,0.447-0.08,0.504c-0.007,0.056-0.228,0.241-0.414,0.37C1084.919,612.582,1084.756,612.861,1084.756,612.861z"
			/>
	</g>
	<g id="GS_bit_16_Q2">
		<path d="M1084.105,617.359l0.068-0.502c0,0,0.086-0.124,0.312-0.301c0.229-0.175,0.445-0.335,0.466-0.479
			c0.02-0.146-0.073,0.447-0.08,0.503c-0.008,0.055-0.229,0.243-0.416,0.37C1084.27,617.081,1084.105,617.359,1084.105,617.359z"/>
		<path d="M1084.256,616.393l0.066-0.501c0,0,0.087-0.126,0.314-0.301c0.229-0.176,0.444-0.334,0.465-0.479
			c0.021-0.146-0.072,0.45-0.08,0.504c-0.009,0.056-0.229,0.241-0.416,0.37C1084.419,616.113,1084.256,616.393,1084.256,616.393z"/>
		<path d="M1084.37,615.557l0.067-0.502c0,0,0.086-0.123,0.313-0.299c0.229-0.175,0.443-0.335,0.464-0.479
			c0.021-0.145-0.072,0.448-0.08,0.506c-0.008,0.054-0.228,0.241-0.415,0.369C1084.533,615.279,1084.37,615.557,1084.37,615.557z"/>
	</g>
	<g id="GS_bit_16_Q1">
		<path d="M1083.99,618.195l0.068-0.501c0,0,0.086-0.126,0.313-0.302c0.229-0.177,0.444-0.335,0.465-0.479
			c0.021-0.146-0.073,0.447-0.08,0.504c-0.007,0.055-0.228,0.241-0.415,0.369C1084.156,617.917,1083.99,618.195,1083.99,618.195z"/>
		<path d="M1083.732,620.084l0.068-0.501c0,0,0.085-0.125,0.313-0.302c0.229-0.176,0.443-0.334,0.464-0.479
			c0.021-0.145-0.071,0.449-0.08,0.504c-0.007,0.056-0.229,0.242-0.414,0.371C1083.896,619.806,1083.732,620.084,1083.732,620.084z"
			/>
		<path d="M1083.882,619.117l0.069-0.502c0,0,0.084-0.125,0.313-0.301c0.229-0.177,0.443-0.336,0.463-0.479
			c0.021-0.146-0.072,0.447-0.081,0.504c-0.007,0.055-0.227,0.242-0.414,0.37C1084.046,618.839,1083.882,619.117,1083.882,619.117z"
			/>
	</g>
</g>
<g id="Layer_1">
</g>
</svg>
