<?xml version="1.0" encoding="iso-8859-1"?>
<!-- Generator: Adobe Illustrator 16.0.4, SVG Export Plug-In . SVG Version: 6.00 Build 0)  -->
<!DOCTYPE svg PUBLIC "-//W3C//DTD SVG 1.1//EN" "http://www.w3.org/Graphics/SVG/1.1/DTD/svg11.dtd">
<svg version="1.1" xmlns="http://www.w3.org/2000/svg" xmlns:xlink="http://www.w3.org/1999/xlink" x="0px" y="0px" width="1366px"
	 height="700px" viewBox="0 0 1366 700" style="enable-background:new 0 0 1366 700;" xml:space="preserve">
<g id="GS_Bit_10">
	<g id="GS_bit_10_Q4">
		<path d="M1054.179,612.053l0.07-0.502c0,0,0.087-0.125,0.314-0.3c0.229-0.175,0.445-0.333,0.466-0.478
			c0.021-0.146-0.073,0.447-0.084,0.503c-0.006,0.056-0.226,0.239-0.414,0.367C1054.342,611.773,1054.179,612.053,1054.179,612.053z
			"/>
		<path d="M1054.294,611.156l0.069-0.5c0,0,0.193-0.237,0.293-0.33c0.144-0.139,0.423-0.104,0.423-0.104l-0.019,0.161
			c-0.007,0.055-0.227,0.241-0.416,0.369C1054.459,610.879,1054.294,611.156,1054.294,611.156z"/>
		<polygon points="1055.072,610.199 1054.918,610.199 1054.788,610.223 1054.807,610.134 1054.781,610.033 		"/>
		<polygon points="1054.494,610.43 1054.439,610.242 1054.452,610.11 1054.74,610.038 1054.771,610.145 1054.623,610.307 		"/>
	</g>
	<g id="GS_bit_10_Q3">
		<path d="M1053.788,614.688l0.069-0.502c0,0,0.088-0.125,0.316-0.299c0.229-0.175,0.446-0.333,0.466-0.479
			c0.021-0.145-0.073,0.449-0.081,0.504c-0.009,0.056-0.229,0.241-0.417,0.369C1053.954,614.408,1053.788,614.688,1053.788,614.688z
			"/>
		<path d="M1053.915,613.798l0.069-0.501c0,0,0.086-0.125,0.315-0.301c0.23-0.174,0.445-0.333,0.468-0.479
			c0.02-0.144-0.076,0.45-0.084,0.504c-0.009,0.057-0.229,0.242-0.416,0.368C1054.078,613.52,1053.915,613.798,1053.915,613.798z"/>
		<path d="M1054.061,612.887l0.07-0.502c0,0,0.086-0.124,0.314-0.299c0.229-0.173,0.445-0.333,0.469-0.479
			c0.019-0.145-0.075,0.449-0.083,0.505c-0.009,0.056-0.229,0.239-0.418,0.368C1054.225,612.608,1054.061,612.887,1054.061,612.887z
			"/>
	</g>
	<g id="GS_bit_10_Q2">
		<path d="M1053.393,617.382l0.069-0.501c0,0,0.087-0.125,0.315-0.3c0.229-0.175,0.446-0.332,0.468-0.479
			c0.021-0.143-0.074,0.45-0.081,0.505c-0.01,0.057-0.229,0.24-0.418,0.368C1053.557,617.104,1053.393,617.382,1053.393,617.382z"/>
		<path d="M1053.546,616.416l0.071-0.503c0,0,0.086-0.123,0.312-0.298c0.231-0.175,0.446-0.334,0.469-0.479
			c0.02-0.144-0.076,0.449-0.083,0.505c-0.01,0.058-0.229,0.241-0.417,0.368C1053.71,616.138,1053.546,616.416,1053.546,616.416z"/>
		<path d="M1053.663,615.582l0.069-0.502c0,0,0.087-0.125,0.315-0.301c0.229-0.175,0.446-0.333,0.467-0.478
			c0.021-0.146-0.073,0.447-0.082,0.502c-0.009,0.056-0.229,0.241-0.417,0.37C1053.826,615.303,1053.663,615.582,1053.663,615.582z"
			/>
	</g>
	<g id="GS_bit_10_Q1">
		<path d="M1053.275,618.217l0.07-0.501c0,0,0.085-0.124,0.315-0.298c0.229-0.176,0.444-0.336,0.466-0.479
			c0.02-0.146-0.074,0.447-0.083,0.504c-0.01,0.056-0.229,0.24-0.416,0.369C1053.439,617.939,1053.275,618.217,1053.275,618.217z"/>
		<path d="M1053.01,620.106l0.069-0.503c0,0,0.087-0.125,0.314-0.3c0.229-0.174,0.445-0.333,0.468-0.479
			c0.02-0.145-0.074,0.448-0.082,0.505c-0.011,0.054-0.229,0.24-0.418,0.37C1053.174,619.828,1053.01,620.106,1053.01,620.106z"/>
		<path d="M1053.162,619.139l0.071-0.502c0,0,0.087-0.125,0.314-0.298c0.229-0.176,0.443-0.333,0.466-0.479
			c0.02-0.146-0.074,0.447-0.083,0.505c-0.008,0.053-0.229,0.238-0.417,0.367C1053.326,618.861,1053.162,619.139,1053.162,619.139z"
			/>
	</g>
</g>
<g id="Layer_1">
</g>
</svg>
