<?xml version="1.0" encoding="iso-8859-1"?>
<!-- Generator: Adobe Illustrator 16.0.4, SVG Export Plug-In . SVG Version: 6.00 Build 0)  -->
<!DOCTYPE svg PUBLIC "-//W3C//DTD SVG 1.1//EN" "http://www.w3.org/Graphics/SVG/1.1/DTD/svg11.dtd">
<svg version="1.1" xmlns="http://www.w3.org/2000/svg" xmlns:xlink="http://www.w3.org/1999/xlink" x="0px" y="0px" width="1366px"
	 height="700px" viewBox="0 0 1366 700" style="enable-background:new 0 0 1366 700;" xml:space="preserve">
<g id="GS_Bit_7">
	<g id="GS_bit_7_Q4">
		<path d="M1037.9,611.981l0.068-0.503c0,0,0.086-0.125,0.315-0.301c0.229-0.174,0.443-0.333,0.467-0.478
			c0.019-0.146-0.076,0.448-0.083,0.502c-0.007,0.057-0.229,0.243-0.415,0.37C1038.062,611.701,1037.9,611.981,1037.9,611.981z"/>
		<path d="M1038.015,611.084l0.068-0.5c0,0,0.196-0.239,0.292-0.33c0.145-0.141,0.425-0.105,0.425-0.105l-0.018,0.161
			c-0.007,0.057-0.229,0.242-0.415,0.368C1038.178,610.807,1038.015,611.084,1038.015,611.084z"/>
		<polygon points="1038.79,610.128 1038.638,610.127 1038.51,610.149 1038.527,610.062 1038.501,609.963 		"/>
		<polygon points="1038.212,610.356 1038.158,610.172 1038.171,610.039 1038.461,609.966 1038.49,610.072 1038.344,610.234 		"/>
	</g>
	<g id="GS_bit_7_Q3">
		<path d="M1037.515,614.617l0.07-0.504c0,0,0.086-0.125,0.313-0.298c0.229-0.176,0.445-0.335,0.466-0.479
			c0.021-0.146-0.071,0.448-0.081,0.504c-0.008,0.055-0.229,0.242-0.415,0.369C1037.68,614.338,1037.515,614.617,1037.515,614.617z"
			/>
		<path d="M1037.64,613.727l0.07-0.501c0,0,0.085-0.125,0.313-0.3s0.444-0.333,0.466-0.479c0.021-0.146-0.074,0.449-0.082,0.504
			c-0.01,0.055-0.229,0.24-0.416,0.368S1037.64,613.727,1037.64,613.727z"/>
		<path d="M1037.783,612.815l0.068-0.503c0,0,0.086-0.125,0.314-0.299c0.229-0.175,0.445-0.334,0.467-0.479
			c0.021-0.146-0.075,0.447-0.082,0.503c-0.008,0.056-0.229,0.24-0.416,0.37C1037.947,612.537,1037.783,612.815,1037.783,612.815z"
			/>
	</g>
	<g id="GS_bit_7_Q2">
		<path d="M1037.122,617.312l0.067-0.502c0,0,0.088-0.125,0.314-0.3c0.229-0.175,0.446-0.333,0.467-0.479
			c0.021-0.146-0.074,0.45-0.082,0.505s-0.228,0.241-0.416,0.368C1037.285,617.033,1037.122,617.312,1037.122,617.312z"/>
		<path d="M1037.273,616.346l0.069-0.503c0,0,0.085-0.124,0.314-0.3c0.229-0.174,0.443-0.332,0.467-0.478
			c0.019-0.146-0.076,0.447-0.083,0.504c-0.007,0.056-0.229,0.241-0.415,0.368C1037.438,616.066,1037.273,616.346,1037.273,616.346z
			"/>
		<path d="M1037.391,615.51l0.069-0.501c0,0,0.086-0.125,0.313-0.3c0.229-0.176,0.445-0.334,0.467-0.479
			c0.021-0.146-0.072,0.447-0.083,0.503c-0.007,0.057-0.228,0.241-0.415,0.37C1037.554,615.231,1037.391,615.51,1037.391,615.51z"/>
	</g>
	<g id="GS_bit_7_Q1">
		<path d="M1037.005,618.146l0.069-0.502c0,0,0.087-0.125,0.313-0.3c0.229-0.175,0.446-0.333,0.466-0.479
			c0.021-0.146-0.073,0.448-0.082,0.505c-0.007,0.056-0.227,0.24-0.416,0.368C1037.169,617.869,1037.005,618.146,1037.005,618.146z"
			/>
		<path d="M1036.74,620.035l0.069-0.502c0,0,0.085-0.125,0.315-0.3c0.229-0.176,0.443-0.334,0.465-0.479
			c0.02-0.146-0.075,0.449-0.082,0.504c-0.008,0.055-0.229,0.241-0.415,0.37C1036.904,619.757,1036.74,620.035,1036.74,620.035z"/>
		<path d="M1036.893,619.068l0.07-0.502c0,0,0.086-0.123,0.316-0.3c0.229-0.175,0.442-0.333,0.465-0.479
			c0.02-0.146-0.073,0.449-0.082,0.505c-0.01,0.055-0.229,0.241-0.416,0.369C1037.058,618.791,1036.893,619.068,1036.893,619.068z"
			/>
	</g>
</g>
<g id="Layer_1">
</g>
</svg>
