<?xml version="1.0" encoding="iso-8859-1"?>
<!-- Generator: Adobe Illustrator 16.0.4, SVG Export Plug-In . SVG Version: 6.00 Build 0)  -->
<!DOCTYPE svg PUBLIC "-//W3C//DTD SVG 1.1//EN" "http://www.w3.org/Graphics/SVG/1.1/DTD/svg11.dtd">
<svg version="1.1" xmlns="http://www.w3.org/2000/svg" xmlns:xlink="http://www.w3.org/1999/xlink" x="0px" y="0px" width="1366px"
	 height="700px" viewBox="0 0 1366 700" style="enable-background:new 0 0 1366 700;" xml:space="preserve">
<g id="GS_Bit_17">
	<g id="GS_bit_17_Q4">
		<path d="M1089.303,612.021l0.067-0.504c0,0,0.085-0.124,0.312-0.298c0.229-0.176,0.445-0.336,0.465-0.479
			c0.021-0.146-0.072,0.448-0.079,0.505c-0.009,0.054-0.229,0.241-0.415,0.37C1089.465,611.742,1089.303,612.021,1089.303,612.021z"
			/>
		<path d="M1089.412,611.125l0.066-0.502c0,0,0.195-0.237,0.291-0.331c0.146-0.141,0.425-0.104,0.425-0.104l-0.017,0.161
			c-0.009,0.055-0.228,0.242-0.415,0.369C1089.574,610.848,1089.412,611.125,1089.412,611.125z"/>
		<polygon points="1090.186,610.167 1090.031,610.167 1089.906,610.189 1089.923,610.102 1089.896,610.004 		"/>
		<polygon points="1089.608,610.396 1089.555,610.212 1089.566,610.08 1089.855,610.005 1089.887,610.111 1089.74,610.275 		"/>
	</g>
	<g id="GS_bit_17_Q3">
		<path d="M1088.924,614.658l0.068-0.5c0,0,0.086-0.127,0.313-0.303c0.229-0.175,0.444-0.334,0.463-0.479
			c0.021-0.146-0.071,0.449-0.079,0.503c-0.008,0.057-0.228,0.243-0.416,0.372C1089.088,614.38,1088.924,614.658,1088.924,614.658z"
			/>
		<path d="M1089.047,613.769l0.066-0.502c0,0,0.087-0.124,0.312-0.3c0.229-0.176,0.444-0.336,0.465-0.479
			c0.021-0.146-0.072,0.447-0.08,0.503c-0.007,0.055-0.227,0.241-0.414,0.37C1089.21,613.49,1089.047,613.769,1089.047,613.769z"/>
		<path d="M1089.188,612.857l0.068-0.504c0,0,0.086-0.125,0.312-0.3c0.229-0.175,0.445-0.335,0.465-0.479
			c0.02-0.145-0.071,0.449-0.079,0.505c-0.007,0.055-0.229,0.24-0.415,0.37C1089.351,612.576,1089.188,612.857,1089.188,612.857z"/>
	</g>
	<g id="GS_bit_17_Q2">
		<path d="M1088.539,617.354l0.066-0.5c0,0,0.088-0.125,0.314-0.3s0.444-0.337,0.463-0.479c0.021-0.146-0.072,0.448-0.079,0.505
			c-0.008,0.053-0.226,0.241-0.415,0.369C1088.702,617.076,1088.539,617.354,1088.539,617.354z"/>
		<path d="M1088.689,616.389l0.066-0.502c0,0,0.086-0.125,0.315-0.302c0.229-0.174,0.441-0.334,0.464-0.479
			c0.019-0.145-0.074,0.449-0.081,0.506c-0.009,0.056-0.229,0.24-0.415,0.371C1088.852,616.11,1088.689,616.389,1088.689,616.389z"
			/>
		<path d="M1088.802,615.553l0.068-0.501c0,0,0.087-0.125,0.312-0.301c0.229-0.175,0.444-0.335,0.464-0.479
			c0.021-0.145-0.07,0.448-0.079,0.506c-0.007,0.056-0.227,0.241-0.413,0.369C1088.965,615.274,1088.802,615.553,1088.802,615.553z"
			/>
	</g>
	<g id="GS_bit_17_Q1">
		<path d="M1088.425,618.19l0.069-0.501c0,0,0.086-0.126,0.312-0.303c0.229-0.175,0.444-0.334,0.464-0.478
			c0.021-0.146-0.07,0.447-0.078,0.503c-0.009,0.055-0.229,0.241-0.416,0.37C1088.589,617.911,1088.425,618.19,1088.425,618.19z"/>
		<path d="M1088.167,620.08l0.067-0.501c0,0,0.088-0.126,0.313-0.303c0.229-0.175,0.445-0.334,0.464-0.479
			c0.021-0.146-0.072,0.449-0.079,0.504c-0.008,0.057-0.228,0.242-0.413,0.37C1088.33,619.801,1088.167,620.08,1088.167,620.08z"/>
		<path d="M1088.316,619.113l0.067-0.503c0,0,0.085-0.124,0.314-0.301c0.229-0.175,0.441-0.335,0.464-0.479
			c0.021-0.144-0.073,0.448-0.081,0.505c-0.008,0.055-0.228,0.241-0.414,0.369S1088.316,619.113,1088.316,619.113z"/>
	</g>
</g>
<g id="Layer_1">
</g>
</svg>
