<svg xmlns="http://www.w3.org/2000/svg" width="1366" height="700" viewBox="0 0 1366 700"><path d="M1079.802 612.016l.072-.503s.086-.124.315-.297.446-.33.47-.476c.02-.146-.078.447-.085.504-.01.055-.23.24-.418.365-.19.127-.355.406-.355.406zM1079.92 611.12l.072-.502s.196-.236.295-.328c.146-.14.423-.104.423-.104l-.017.162c-.008.057-.23.24-.418.366-.19.13-.354.405-.354.405z"/><path d="M1080.702 610.168l-.154-.002-.127.022.02-.087-.026-.1zM1080.123 610.394l-.053-.186.013-.134.29-.07.03.105-.148.16z"/><g><path d="M1079.4 614.646l.07-.5s.088-.122.318-.297c.23-.174.446-.333.47-.478.02-.146-.078.447-.086.503s-.23.242-.418.368c-.19.128-.355.403-.355.403zM1079.53 613.76l.07-.503s.09-.124.317-.297c.23-.173.448-.33.47-.476.02-.145-.077.446-.085.504-.008.055-.23.24-.42.366-.187.127-.353.406-.353.406zM1079.68 612.85l.072-.502s.087-.124.316-.298c.23-.173.446-.33.47-.475.02-.146-.077.446-.085.502-.01.056-.23.24-.418.366-.19.13-.356.406-.356.406z"/></g><g><path d="M1078.988 617.34l.074-.5s.087-.123.315-.298c.23-.173.448-.33.468-.476.02-.145-.076.447-.083.504-.008.055-.23.24-.418.365-.188.13-.356.406-.356.406zM1079.15 616.377l.07-.503s.086-.125.317-.298c.23-.173.445-.33.467-.475a20.95 20.95 0 0 0-.084.503c-.008.057-.23.24-.42.365-.188.127-.35.41-.35.41zM1079.27 615.54l.07-.5s.088-.123.318-.298c.23-.174.446-.332.47-.477.02-.146-.077.448-.086.504-.008.057-.23.238-.418.365-.188.13-.353.405-.353.405z"/></g><g><path d="M1078.87 618.175l.07-.5s.087-.125.316-.3c.23-.172.447-.33.47-.475.02-.145-.077.447-.087.503-.008.057-.23.238-.42.368-.186.128-.35.405-.35.405zM1078.594 620.062l.072-.5s.087-.125.314-.3c.232-.172.448-.33.47-.474.022-.146-.075.447-.083.502-.01.056-.23.24-.418.367-.19.13-.356.405-.356.405zM1078.752 619.096l.072-.5s.086-.124.316-.298.445-.33.468-.476c.02-.146-.075.447-.084.503-.01.057-.23.24-.42.366-.187.13-.352.406-.352.406z"/></g></svg>