<?xml version="1.0" encoding="iso-8859-1"?>
<!-- Generator: Adobe Illustrator 16.0.4, SVG Export Plug-In . SVG Version: 6.00 Build 0)  -->
<!DOCTYPE svg PUBLIC "-//W3C//DTD SVG 1.1//EN" "http://www.w3.org/Graphics/SVG/1.1/DTD/svg11.dtd">
<svg version="1.1" xmlns="http://www.w3.org/2000/svg" xmlns:xlink="http://www.w3.org/1999/xlink" x="0px" y="0px" width="1366px"
	 height="700px" viewBox="0 0 1366 700" style="enable-background:new 0 0 1366 700;" xml:space="preserve">
<g id="GS_Bit_12">
	<g id="GS_bit_12_Q4">
		<path d="M1065.847,612.02l0.07-0.503c0,0,0.086-0.122,0.315-0.298c0.229-0.174,0.445-0.332,0.47-0.476
			c0.019-0.146-0.078,0.446-0.085,0.502c-0.01,0.057-0.229,0.241-0.417,0.368C1066.011,611.74,1065.847,612.02,1065.847,612.02z"/>
		<path d="M1065.963,611.123l0.07-0.5c0,0,0.194-0.238,0.293-0.329c0.146-0.142,0.426-0.104,0.426-0.104l-0.02,0.161
			c-0.009,0.057-0.229,0.241-0.416,0.368C1066.127,610.847,1065.963,611.123,1065.963,611.123z"/>
		<polygon points="1066.74,610.17 1066.589,610.169 1066.462,610.19 1066.479,610.104 1066.453,610.004 		"/>
		<polygon points="1066.163,610.396 1066.11,610.211 1066.123,610.078 1066.414,610.006 1066.443,610.111 1066.295,610.274 		"/>
	</g>
	<g id="GS_bit_12_Q3">
		<path d="M1065.452,614.654l0.069-0.502c0,0,0.088-0.125,0.315-0.299c0.229-0.174,0.447-0.331,0.468-0.476
			c0.021-0.146-0.074,0.447-0.083,0.503c-0.008,0.055-0.229,0.241-0.417,0.368C1065.615,614.376,1065.452,614.654,1065.452,614.654z
			"/>
		<path d="M1065.579,613.765l0.071-0.502c0,0,0.086-0.124,0.314-0.298c0.23-0.174,0.447-0.332,0.468-0.477
			c0.021-0.146-0.077,0.447-0.084,0.504c-0.008,0.055-0.229,0.238-0.416,0.365C1065.744,613.486,1065.579,613.765,1065.579,613.765z
			"/>
		<path d="M1065.727,612.854l0.071-0.5c0,0,0.086-0.127,0.315-0.3s0.447-0.332,0.469-0.477c0.021-0.146-0.076,0.447-0.084,0.503
			c-0.008,0.055-0.229,0.24-0.417,0.369C1065.892,612.574,1065.727,612.854,1065.727,612.854z"/>
	</g>
	<g id="GS_bit_12_Q2">
		<path d="M1065.05,617.349l0.071-0.503c0,0,0.086-0.123,0.314-0.298c0.23-0.174,0.446-0.332,0.469-0.478
			c0.02-0.146-0.075,0.449-0.084,0.504c-0.008,0.056-0.229,0.24-0.416,0.366C1065.215,617.07,1065.05,617.349,1065.05,617.349z"/>
		<path d="M1065.205,616.383l0.07-0.503c0,0,0.086-0.124,0.314-0.299c0.229-0.173,0.447-0.331,0.468-0.476
			c0.021-0.146-0.076,0.446-0.084,0.503c-0.008,0.056-0.229,0.239-0.416,0.366C1065.37,616.104,1065.205,616.383,1065.205,616.383z"
			/>
		<path d="M1065.324,615.546l0.069-0.5c0,0,0.087-0.124,0.316-0.299c0.229-0.174,0.446-0.332,0.468-0.478
			c0.022-0.145-0.074,0.448-0.085,0.504c-0.008,0.057-0.227,0.239-0.417,0.367C1065.488,615.27,1065.324,615.546,1065.324,615.546z"
			/>
	</g>
	<g id="GS_bit_12_Q1">
		<path d="M1064.93,618.182l0.071-0.5c0,0,0.088-0.126,0.315-0.3c0.229-0.173,0.446-0.331,0.469-0.476
			c0.021-0.146-0.076,0.447-0.084,0.504c-0.008,0.056-0.229,0.239-0.417,0.367C1065.095,617.904,1064.93,618.182,1064.93,618.182z"
			/>
		<path d="M1064.659,620.069l0.071-0.501c0,0,0.086-0.124,0.315-0.299c0.229-0.174,0.446-0.331,0.468-0.477
			c0.021-0.146-0.076,0.448-0.084,0.503c-0.009,0.055-0.229,0.241-0.416,0.369C1064.824,619.792,1064.659,620.069,1064.659,620.069z
			"/>
		<path d="M1064.814,619.104l0.07-0.502c0,0,0.087-0.121,0.317-0.298c0.229-0.174,0.443-0.331,0.468-0.478
			c0.02-0.145-0.076,0.449-0.084,0.505c-0.009,0.056-0.229,0.24-0.418,0.368C1064.979,618.826,1064.814,619.104,1064.814,619.104z"
			/>
	</g>
</g>
<g id="Layer_1">
</g>
</svg>
