<?xml version="1.0" encoding="iso-8859-1"?>
<!-- Generator: Adobe Illustrator 16.0.4, SVG Export Plug-In . SVG Version: 6.00 Build 0)  -->
<!DOCTYPE svg PUBLIC "-//W3C//DTD SVG 1.1//EN" "http://www.w3.org/Graphics/SVG/1.1/DTD/svg11.dtd">
<svg version="1.1" xmlns="http://www.w3.org/2000/svg" xmlns:xlink="http://www.w3.org/1999/xlink" x="0px" y="0px" width="1366px"
	 height="700px" viewBox="0 0 1366 700" style="enable-background:new 0 0 1366 700;" xml:space="preserve">
<g id="GS_Bit_15">
	<g id="GS_bit_15_Q4">
		<path d="M1079.802,612.016l0.072-0.503c0,0,0.086-0.124,0.315-0.297s0.447-0.331,0.47-0.476c0.021-0.146-0.077,0.447-0.084,0.504
			c-0.009,0.055-0.229,0.239-0.418,0.365C1079.966,611.737,1079.802,612.016,1079.802,612.016z"/>
		<path d="M1079.921,611.119l0.071-0.501c0,0,0.196-0.236,0.295-0.328c0.146-0.141,0.423-0.104,0.423-0.104l-0.017,0.162
			c-0.008,0.057-0.229,0.24-0.418,0.366C1080.085,610.843,1079.921,611.119,1079.921,611.119z"/>
		<polygon points="1080.702,610.168 1080.548,610.166 1080.421,610.188 1080.439,610.101 1080.414,610.001 		"/>
		<polygon points="1080.123,610.394 1080.07,610.208 1080.083,610.074 1080.373,610.004 1080.404,610.109 1080.255,610.271 		"/>
	</g>
	<g id="GS_bit_15_Q3">
		<path d="M1079.399,614.646l0.072-0.5c0,0,0.087-0.122,0.317-0.297c0.229-0.173,0.446-0.332,0.469-0.477
			c0.021-0.146-0.077,0.447-0.085,0.503s-0.229,0.242-0.418,0.368C1079.564,614.371,1079.399,614.646,1079.399,614.646z"/>
		<path d="M1079.529,613.76l0.072-0.503c0,0,0.088-0.124,0.316-0.297c0.231-0.173,0.448-0.33,0.47-0.476
			c0.021-0.145-0.077,0.446-0.085,0.504c-0.008,0.055-0.229,0.24-0.419,0.366C1079.695,613.481,1079.529,613.76,1079.529,613.76z"/>
		<path d="M1079.679,612.849l0.073-0.501c0,0,0.087-0.124,0.316-0.298c0.229-0.173,0.446-0.331,0.47-0.475
			c0.021-0.146-0.077,0.446-0.085,0.502c-0.009,0.056-0.229,0.239-0.418,0.366C1079.845,612.572,1079.679,612.849,1079.679,612.849z
			"/>
	</g>
	<g id="GS_bit_15_Q2">
		<path d="M1078.988,617.341l0.074-0.501c0,0,0.087-0.123,0.315-0.298c0.229-0.173,0.448-0.329,0.468-0.476
			c0.021-0.145-0.076,0.447-0.083,0.504c-0.008,0.055-0.229,0.24-0.418,0.365C1079.156,617.064,1078.988,617.341,1078.988,617.341z"
			/>
		<path d="M1079.149,616.377l0.071-0.503c0,0,0.086-0.125,0.317-0.298c0.229-0.173,0.445-0.33,0.467-0.475
			c0.022-0.146-0.076,0.446-0.084,0.502c-0.008,0.057-0.229,0.239-0.419,0.365C1079.312,616.095,1079.149,616.377,1079.149,616.377z
			"/>
		<path d="M1079.271,615.54l0.07-0.5c0,0,0.087-0.123,0.317-0.298c0.229-0.174,0.446-0.332,0.469-0.477
			c0.021-0.146-0.076,0.448-0.085,0.504c-0.008,0.058-0.229,0.239-0.418,0.366C1079.436,615.265,1079.271,615.54,1079.271,615.54z"
			/>
	</g>
	<g id="GS_bit_15_Q1">
		<path d="M1078.869,618.175l0.071-0.5c0,0,0.087-0.125,0.316-0.3c0.23-0.172,0.447-0.33,0.47-0.475
			c0.021-0.145-0.077,0.447-0.087,0.503c-0.007,0.057-0.229,0.238-0.418,0.368C1079.034,617.898,1078.869,618.175,1078.869,618.175z
			"/>
		<path d="M1078.594,620.062l0.072-0.5c0,0,0.087-0.125,0.314-0.299c0.232-0.173,0.448-0.331,0.471-0.475
			c0.021-0.146-0.076,0.447-0.084,0.502c-0.01,0.056-0.229,0.24-0.418,0.367C1078.759,619.786,1078.594,620.062,1078.594,620.062z"
			/>
		<path d="M1078.752,619.096l0.072-0.5c0,0,0.086-0.124,0.316-0.298c0.229-0.174,0.445-0.331,0.468-0.476
			c0.021-0.146-0.075,0.447-0.084,0.503c-0.01,0.057-0.229,0.24-0.419,0.366C1078.917,618.819,1078.752,619.096,1078.752,619.096z"
			/>
	</g>
</g>
<g id="Layer_1">
</g>
</svg>
