<svg xmlns="http://www.w3.org/2000/svg" width="1366" height="700" viewBox="0 0 1366 700"><path d="M1084.87 612.025l.067-.502s.087-.124.314-.3c.23-.176.444-.335.466-.48.02-.146-.073.448-.08.504-.01.054-.23.24-.415.37-.186.13-.35.408-.35.408zM1084.982 611.13l.067-.5s.194-.24.29-.332c.146-.14.424-.105.424-.105l-.017.16c-.007.058-.23.243-.414.37-.187.13-.35.408-.35.408z"/><path d="M1085.757 610.17l-.153.002-.128.02.016-.086-.025-.1zM1085.18 610.402l-.056-.185.013-.133.29-.072.03.103-.146.166z"/><g><path d="M1084.49 614.664l.07-.504s.086-.123.312-.3c.23-.176.443-.334.465-.478.02-.146-.073.448-.08.504s-.228.242-.415.37c-.186.13-.352.408-.352.408zM1084.615 613.773l.066-.502s.086-.124.315-.3c.23-.176.443-.335.465-.48.02-.146-.074.448-.082.502-.007.058-.23.243-.415.37-.186.132-.348.41-.348.41zM1084.756 612.86l.068-.5s.087-.126.313-.302c.23-.176.444-.335.464-.48l-.08.505c-.006.056-.227.24-.413.37-.188.13-.35.408-.35.408z"/></g><g><path d="M1084.105 617.36l.068-.503s.086-.124.312-.3c.23-.176.445-.336.466-.48.02-.146-.072.447-.08.503-.007.055-.228.243-.415.37-.185.13-.35.41-.35.41zM1084.256 616.393l.066-.5s.087-.127.314-.302c.23-.175.444-.333.465-.478.022-.146-.07.45-.08.504-.008.056-.228.24-.415.37-.186.127-.35.407-.35.407zM1084.37 615.557l.067-.502s.086-.123.313-.3c.23-.174.443-.334.464-.478.02-.145-.072.448-.08.506-.008.054-.228.24-.415.37-.187.126-.35.404-.35.404z"/></g><g><path d="M1083.99 618.195l.068-.5s.086-.127.313-.303c.23-.177.445-.335.466-.48.02-.145-.073.448-.08.505-.007.055-.228.24-.415.37-.184.13-.35.408-.35.408zM1083.732 620.084l.068-.5s.085-.126.313-.303c.23-.175.443-.333.464-.478.02-.145-.07.45-.08.504-.007.056-.23.242-.414.37-.187.13-.35.408-.35.408zM1083.882 619.117l.07-.502s.083-.125.312-.3c.23-.178.443-.337.463-.48.02-.146-.072.447-.08.504-.008.054-.228.24-.415.37-.186.13-.35.407-.35.407z"/></g></svg>