<svg xmlns="http://www.w3.org/2000/svg" width="1366" height="700" viewBox="0 0 1366 700"><path d="M1043.214 612.04l.072-.503s.085-.125.313-.3c.228-.175.445-.33.466-.478.02-.145-.074.448-.084.504-.008.055-.227.24-.416.368-.187.13-.352.407-.352.407zM1043.33 611.144l.068-.5s.196-.238.293-.33c.147-.14.43-.104.43-.104l-.02.16c-.01.056-.23.24-.42.37-.186.125-.35.404-.35.404z"/><path d="M1044.11 610.188h-.155l-.128.02.02-.086-.027-.1zM1043.53 610.417l-.053-.187.013-.132.29-.07.03.104-.15.163z"/><g><path d="M1042.822 614.674l.07-.5s.087-.124.315-.3c.23-.172.445-.332.466-.478.02-.145-.074.446-.082.504-.007.057-.228.238-.415.37-.187.126-.353.404-.353.404zM1042.947 613.783l.072-.502s.083-.122.314-.297c.23-.175.443-.332.466-.478.02-.146-.074.448-.084.504-.007.055-.228.24-.417.366-.187.132-.353.407-.353.407zM1043.096 612.874l.07-.503s.086-.123.316-.298c.23-.174.443-.332.468-.478.018-.145-.075.45-.085.504-.007.056-.23.24-.416.368-.19.13-.354.408-.354.408z"/></g><g><path d="M1042.422 617.367l.07-.5s.087-.125.314-.3c.23-.176.446-.332.468-.478.02-.147-.074.448-.083.502-.008.056-.228.24-.415.37-.19.128-.353.405-.353.405zM1042.576 616.402l.07-.5s.086-.126.315-.302c.23-.174.447-.33.468-.476.02-.146-.073.448-.083.504-.008.054-.23.24-.417.367-.188.13-.352.407-.352.407zM1042.695 615.567l.07-.5s.085-.124.316-.3c.23-.175.448-.334.467-.478.02-.147-.075.446-.083.503-.01.055-.23.24-.417.367-.187.13-.352.407-.352.407z"/></g><g><path d="M1042.304 618.204l.07-.502s.086-.125.315-.298c.228-.178.444-.334.466-.48.02-.143-.074.45-.082.505-.01.056-.23.24-.418.368-.19.127-.352.406-.352.406zM1042.034 620.09l.07-.5s.086-.124.315-.298c.228-.175.443-.333.466-.48.02-.144-.073.448-.083.506-.008.056-.23.237-.417.367-.187.13-.352.405-.352.405zM1042.19 619.125l.068-.5s.087-.125.317-.3c.23-.177.443-.333.465-.48.02-.146-.074.45-.08.504-.01.056-.23.24-.42.367-.186.13-.35.408-.35.408z"/></g></svg>