<?xml version="1.0" encoding="iso-8859-1"?>
<!-- Generator: Adobe Illustrator 16.0.4, SVG Export Plug-In . SVG Version: 6.00 Build 0)  -->
<!DOCTYPE svg PUBLIC "-//W3C//DTD SVG 1.1//EN" "http://www.w3.org/Graphics/SVG/1.1/DTD/svg11.dtd">
<svg version="1.1" xmlns="http://www.w3.org/2000/svg" xmlns:xlink="http://www.w3.org/1999/xlink" x="0px" y="0px" width="1366px"
	 height="700px" viewBox="0 0 1366 700" style="enable-background:new 0 0 1366 700;" xml:space="preserve">
<g id="GS_Drill">
	<polyline points="1031.416,620.37 1031.776,617.796 1031.616,617.771 1031.256,620.347 	"/>
	<path d="M1031.084,621.002c-0.008,0.062,0.068,0.107,0.174,0.108c0.104,0,0.189-0.046,0.197-0.104l0.063-0.556
		c0.009-0.062-0.03-0.099-0.175-0.107c-0.145-0.011-0.191,0.045-0.197,0.104L1031.084,621.002z"/>
	<path d="M1030.884,622.737c-0.013,0.108,0.06,0.198,0.163,0.2c0.104,0,0.195-0.089,0.209-0.197l0.169-1.479
		c0.015-0.108-0.06-0.196-0.163-0.198c-0.103,0-0.193,0.087-0.207,0.195L1030.884,622.737z"/>
	<polygon points="1032.005,621.305 1032.115,621.207 1032.027,621.106 1031.274,621.101 1031.161,621.199 1031.25,621.298 	"/>
	<polygon points="1031.866,621.638 1031.955,621.698 1032.055,621.639 1032.105,621.182 1032.021,621.118 1031.921,621.18 	"/>
</g>
<g id="Layer_1">
</g>
</svg>
