<svg xmlns="http://www.w3.org/2000/svg" width="1366" height="700" viewBox="0 0 1366 700"><path d="M1031.416 620.37l.36-2.574-.16-.025-.36 2.577"/><path d="M1031.084 621.002c-.008.062.068.107.174.108.104 0 .19-.046.197-.104l.063-.556c.01-.062-.03-.1-.175-.107-.145-.01-.19.045-.197.104l-.062.555z"/><path d="M1030.884 622.737c-.013.108.06.198.163.2.104 0 .195-.09.21-.197l.168-1.48a.168.168 0 0 0-.163-.197c-.103 0-.193.087-.207.195l-.17 1.48z"/><path d="M1032.005 621.305l.11-.098-.088-.1-.753-.006-.113.1.09.098z"/><path d="M1031.866 621.638l.09.06.1-.06.05-.456-.085-.064-.1.062z"/></svg>