<svg xmlns="http://www.w3.org/2000/svg" width="1366" height="700" viewBox="0 0 1366 700"><path d="M1029.054 623.564l-.132.128-.133-.128v-.787l.132-.128.132.127z"/><circle cx="1029.475" cy="621.87" r=".291"/><path d="M1028.926 622.327c.11-.102.288-.086.288-.086l.552.007s.2-.003.305.118c.105.123.098.28.098.28v.86s.008.175-.11.175c-.138 0-.145-.176-.145-.176v-.794h-.06v2.275s.03.22-.163.22c-.194 0-.18-.23-.18-.23v-1.31h-.06v1.313s.02.228-.18.228c-.192 0-.167-.228-.167-.228v-2.27h-.054v.115h-.265v-.18c.004.003.017-.204.14-.316zM1029.823 621.84h-.683c0-.187.15-.34.343-.34a.34.34 0 0 1 .34.34z"/><path fill="#FFF" d="M1029.385 621.65l.08-.085.085.08-.08.085z"/><path d="M1029.485 621.49l.08.08-.08.083-.082-.084.082-.08"/><path d="M1026.15 630.998l-2.536.01s-.218.373-1.036.373c-.817 0-.89-.395-.89-.395l-.635-.02s-.025-.388-.18-.912c-.16-.544-.894-.834-1.35-.834-.536 0-1.103.235-1.306.65-.112.234-.154.785-.154.785l-.54-.608-.687-.017h-.85v-.31h-.396v-.127h.41v-2.155h.533v-.074h.274v1.285l.19-.437-.01-.66s-.032-.256.13-.353c.156-.095.508-.062.508-.062l.807-.042s.598-.043.767-.043c.17 0 .297.02.382.085l.104.212 4.612-.054v.054l.33.02h.266v.66h.51v.74h.227v.22h.523l-.004 2.008z" fill="#ba8e2d"/><path fill="#ba8e2d" d="M1020.805 627.502v-.987l-.16-.267-.668-.053v-.233l2.24-.117 1.733.042.913.086.395.147v.183l-.372.04v1.786h-.298v-1.796h-.532v1.105h-.297v-1.074l-1.03.052-.182.17v.817h-.267v-.828l-.175-.174h-.907l-.116.114v.985z"/><path d="M1032.802 621.875a.292.292 0 1 1-.584-.002.292.292 0 0 1 .584.002zM1032.16 622.27l.077-.022.563.002s.196-.004.3.118c.106.122.1.283.1.283v.857s.01.176-.11.176c-.138 0-.144-.176-.144-.176v-.794h-.06v2.275s.028.22-.164.22c-.195 0-.177-.23-.177-.23v-1.31h-.062v1.312s.02.226-.176.226c-.196 0-.17-.226-.17-.226l-.003-2.646.027-.065zM1032.066 623.062l-.133.128-.13-.128v-1.183l.13-.13.133.13z"/><path fill="#ba8e2d" d="M1025.686 625.218h8.762v.31h-8.762z"/><path fill="#ba8e2d" d="M1025.686 623.062h.24v2.344h-.24zM1034.183 623.062h.265v2.323h-.265zM1028.373 623.12h.22v2.348h-.22zM1031.434 623.12h.24v2.348h-.24z"/><path fill="#ba8e2d" d="M1025.763 623.057h8.584v.195h-8.584zM1025.775 624.09h8.585v.23h-8.585zM1026.105 629.445h7.98v1.55h-7.98zM1026.233 625.643l6.816 3.713h.782l-6.805-3.694z"/><path fill="#ba8e2d" d="M1033.837 625.656l-6.63 3.688-.875.017 6.854-3.722z"/><circle cx="1030.082" cy="627.525" r=".325"/><ellipse cx="1029.668" cy="630.603" rx="1.623" ry="1.601" fill="#FFF"/><path d="M1032.85 621.854h-.684a.343.343 0 0 1 .685 0z"/><path fill="#FFF" d="M1032.405 621.645l.08-.082.083.082-.08.082z"/><path d="M1032.512 621.504l.08.08-.08.082-.083-.082.082-.08"/><path fill="#929497" d="M1030.79 625.27l.346-2.463-.157-.022-.348 2.463"/></svg>