<?xml version="1.0" encoding="iso-8859-1"?>
<!-- Generator: Adobe Illustrator 16.0.4, SVG Export Plug-In . SVG Version: 6.00 Build 0)  -->
<!DOCTYPE svg PUBLIC "-//W3C//DTD SVG 1.1//EN" "http://www.w3.org/Graphics/SVG/1.1/DTD/svg11.dtd">
<svg version="1.1" xmlns="http://www.w3.org/2000/svg" xmlns:xlink="http://www.w3.org/1999/xlink" x="0px" y="0px" width="1366px"
	 height="700px" viewBox="0 0 1366 700" style="enable-background:new 0 0 1366 700;" xml:space="preserve">
<g id="GS_Truck_Tire_1">
	<path d="M1020.531,630.739h-0.298c0,0.194-0.079,0.371-0.206,0.499c-0.131,0.129-0.305,0.208-0.501,0.208
		c-0.194,0-0.371-0.079-0.499-0.208c-0.129-0.128-0.208-0.305-0.208-0.499c0-0.196,0.079-0.37,0.208-0.5
		c0.128-0.128,0.304-0.207,0.499-0.207c0.196,0,0.37,0.079,0.501,0.207c0.128,0.13,0.206,0.304,0.206,0.5h0.594
		c0.002-0.356-0.146-0.688-0.381-0.921c-0.231-0.236-0.562-0.381-0.92-0.381s-0.687,0.145-0.92,0.381
		c-0.234,0.233-0.382,0.562-0.382,0.921c0,0.357,0.146,0.688,0.382,0.921c0.234,0.234,0.562,0.383,0.92,0.383
		s0.688-0.146,0.92-0.383c0.235-0.233,0.384-0.562,0.381-0.921H1020.531"/>
	<polygon style="fill:#BA8E2D;" points="1020.091,630.891 1020.104,630.843 1020.104,630.825 1020.107,630.793 1020.107,630.709 
		1020.23,630.702 1020.188,630.495 1020.071,630.539 1020.023,630.435 1019.995,630.387 1019.957,630.346 1020.048,630.259 
		1019.886,630.127 1019.823,630.229 1019.771,630.203 1019.715,630.188 1019.659,630.168 1019.598,630.156 1019.609,630.034 
		1019.396,630.041 1019.416,630.162 1019.259,630.216 1019.204,630.248 1019.138,630.145 1018.979,630.283 1019.071,630.362 
		1018.961,630.569 1018.847,630.527 1018.814,630.738 1018.938,630.738 1018.942,630.8 1018.966,630.914 1018.985,630.97 
		1018.875,631.019 1018.985,631.199 1019.076,631.123 1019.118,631.163 1019.161,631.199 1019.259,631.262 1019.204,631.371 
		1019.404,631.438 1019.422,631.315 1019.473,631.322 1019.526,631.322 1019.593,631.315 1019.598,631.315 1019.659,631.306 
		1019.684,631.424 1019.878,631.346 1019.816,631.243 1019.866,631.212 1019.908,631.177 1019.951,631.133 1019.988,631.091 
		1020.084,631.163 1020.188,630.976 1020.078,630.938 	"/>
</g>
<g id="Layer_1">
</g>
</svg>
