<svg xmlns="http://www.w3.org/2000/svg" width="1366" height="700" viewBox="0 0 1366 700"><path d="M1020.53 630.74h-.297a.708.708 0 0 1-.707.706.7.7 0 0 1-.5-.208.7.7 0 0 1 0-1 .71.71 0 0 1 1 0c.13.13.207.305.207.5h.594a1.294 1.294 0 0 0-.38-.92c-.232-.236-.563-.38-.92-.38s-.688.144-.92.38a1.302 1.302 0 1 0 2.22.92h-.296"/><path fill="#ba8e2d" d="M1020.09 630.89l.014-.047v-.018l.003-.032v-.084l.123-.008-.042-.207-.117.044-.047-.105-.028-.048-.038-.04.09-.088-.16-.133-.064.102-.052-.027-.055-.015-.056-.02-.062-.012.01-.122-.212.007.02.122-.157.054-.056.032-.066-.103-.16.138.093.08-.11.206-.113-.043-.033.21h.124l.004.063.024.114.02.056-.11.05.11.18.09-.077.042.04.043.036.1.062-.056.11.2.066.018-.123.05.007h.054l.067-.007h.005l.06-.01.026.12.194-.08-.062-.102.05-.03.042-.036.043-.044.038-.042.096.073.104-.187-.11-.038z"/></svg>