<?xml version="1.0" encoding="iso-8859-1"?>
<!-- Generator: Adobe Illustrator 16.0.4, SVG Export Plug-In . SVG Version: 6.00 Build 0)  -->
<!DOCTYPE svg PUBLIC "-//W3C//DTD SVG 1.1//EN" "http://www.w3.org/Graphics/SVG/1.1/DTD/svg11.dtd">
<svg version="1.1" xmlns="http://www.w3.org/2000/svg" xmlns:xlink="http://www.w3.org/1999/xlink" x="0px" y="0px" width="1366px"
	 height="700px" viewBox="0 0 1366 700" style="enable-background:new 0 0 1366 700;" xml:space="preserve">
<g id="GS_Truck_Tire_2">
	<path d="M1030.766,630.595h-0.323c0,0.213-0.087,0.402-0.227,0.542c-0.141,0.142-0.33,0.228-0.543,0.228s-0.405-0.086-0.545-0.228
		c-0.141-0.14-0.227-0.329-0.227-0.542s0.086-0.403,0.227-0.546c0.14-0.14,0.332-0.226,0.545-0.226s0.402,0.086,0.543,0.226
		c0.14,0.141,0.227,0.333,0.227,0.546h0.647c0-0.394-0.159-0.748-0.416-1.005c-0.256-0.256-0.611-0.415-1.001-0.415
		c-0.394,0-0.749,0.159-1.003,0.415c-0.258,0.257-0.418,0.611-0.418,1.005c0,0.389,0.16,0.746,0.418,1.002
		c0.254,0.255,0.609,0.415,1.003,0.415c0.39,0,0.745-0.16,1.001-0.415c0.257-0.256,0.416-0.613,0.416-1.002H1030.766"/>
	<polygon style="fill:#BA8E2D;" points="1030.286,630.758 1030.301,630.707 1030.301,630.685 1030.306,630.652 1030.306,630.561 
		1030.438,630.554 1030.393,630.329 1030.267,630.375 1030.213,630.263 1030.181,630.209 1030.142,630.164 1030.239,630.071 
		1030.062,629.926 1029.995,630.037 1029.938,630.011 1029.875,629.991 1029.817,629.972 1029.75,629.957 1029.763,629.827 
		1029.532,629.834 1029.552,629.965 1029.381,630.023 1029.319,630.057 1029.248,629.944 1029.075,630.097 1029.174,630.184 
		1029.056,630.408 1028.93,630.362 1028.898,630.594 1029.03,630.594 1029.036,630.659 1029.062,630.785 1029.082,630.845 
		1028.963,630.896 1029.082,631.096 1029.182,631.011 1029.229,631.056 1029.273,631.096 1029.381,631.161 1029.319,631.28 
		1029.539,631.354 1029.558,631.221 1029.612,631.229 1029.673,631.229 1029.744,631.221 1029.75,631.221 1029.817,631.209 
		1029.844,631.341 1030.056,631.255 1029.988,631.142 1030.041,631.109 1030.088,631.07 1030.134,631.023 1030.175,630.976 
		1030.28,631.056 1030.393,630.852 1030.271,630.812 	"/>
</g>
<g id="Layer_1">
</g>
</svg>
