<?xml version="1.0" encoding="iso-8859-1"?>
<!-- Generator: Adobe Illustrator 16.0.4, SVG Export Plug-In . SVG Version: 6.00 Build 0)  -->
<!DOCTYPE svg PUBLIC "-//W3C//DTD SVG 1.1//EN" "http://www.w3.org/Graphics/SVG/1.1/DTD/svg11.dtd">
<svg version="1.1" xmlns="http://www.w3.org/2000/svg" xmlns:xlink="http://www.w3.org/1999/xlink" x="0px" y="0px" width="1366px"
	 height="700px" viewBox="0 0 1366 700" style="enable-background:new 0 0 1366 700;" xml:space="preserve">
<g id="GS_Truck_Body">
	<polygon points="1029.054,623.564 1028.922,623.692 1028.789,623.564 1028.789,622.777 1028.922,622.649 1029.054,622.777 	"/>
	<circle cx="1029.475" cy="621.87" r="0.291"/>
	<path d="M1028.926,622.327c0.109-0.102,0.288-0.086,0.288-0.086l0.552,0.006c0,0,0.199-0.003,0.305,0.118
		c0.104,0.123,0.097,0.281,0.097,0.281v0.858c0,0,0.008,0.176-0.111,0.176c-0.137,0-0.144-0.176-0.144-0.176v-0.794h-0.059v2.275
		c0,0,0.028,0.22-0.164,0.22c-0.194,0-0.179-0.23-0.179-0.23v-1.309h-0.061v1.312c0,0,0.021,0.228-0.179,0.228
		c-0.193,0-0.168-0.228-0.168-0.228v-2.271h-0.054v0.116l-0.264,0.001v-0.18C1028.789,622.646,1028.802,622.439,1028.926,622.327z"
		/>
	<path d="M1029.823,621.841h-0.683c0-0.188,0.151-0.341,0.343-0.341C1029.671,621.5,1029.823,621.652,1029.823,621.841z"/>
	
		<rect x="1029.407" y="621.535" transform="matrix(0.6901 -0.7237 0.7237 0.6901 -130.8138 937.7095)" style="fill:#FFFFFF;" width="0.116" height="0.117"/>
	<polyline points="1029.485,621.489 1029.564,621.569 1029.485,621.653 1029.403,621.569 1029.485,621.489 	"/>
	<path style="fill:#BA8E2D;" d="M1026.149,630.998l-2.535,0.009c0,0-0.218,0.374-1.036,0.374c-0.817,0-0.891-0.396-0.891-0.396
		l-0.634-0.019c0,0-0.025-0.389-0.181-0.913c-0.159-0.544-0.893-0.834-1.35-0.834c-0.535,0-1.102,0.236-1.305,0.651
		c-0.112,0.234-0.154,0.785-0.154,0.785l-0.54-0.608l-0.687-0.017h-0.851v-0.309h-0.395v-0.128H1016v-2.155h0.436h0.097v-0.074
		h0.274v1.285l0.19-0.436l-0.01-0.66c0,0-0.032-0.256,0.129-0.353c0.157-0.095,0.509-0.062,0.509-0.062l0.807-0.042
		c0,0,0.598-0.043,0.767-0.043c0.17,0,0.298,0.021,0.383,0.085l0.104,0.212l4.612-0.054v0.054l0.329,0.021h0.267v0.658h0.511v0.742
		h0.226v0.219h0.522L1026.149,630.998z"/>
	<polygon style="fill:#BA8E2D;" points="1020.805,627.502 1020.805,626.515 1020.645,626.248 1019.977,626.195 1019.977,625.962 
		1022.218,625.845 1023.95,625.887 1024.863,625.973 1025.258,626.12 1025.258,626.303 1024.886,626.344 1024.886,628.129 
		1024.588,628.129 1024.588,626.334 1024.056,626.334 1024.056,627.439 1023.759,627.439 1023.759,626.366 1022.729,626.418 
		1022.548,626.589 1022.548,627.405 1022.281,627.405 1022.281,626.577 1022.105,626.403 1021.198,626.403 1021.082,626.517 
		1021.082,627.502 	"/>
	<path d="M1032.802,621.875c0,0.159-0.13,0.291-0.292,0.291c-0.159,0-0.292-0.132-0.292-0.291c0-0.162,0.134-0.293,0.292-0.293
		C1032.672,621.582,1032.802,621.712,1032.802,621.875z"/>
	<path d="M1032.161,622.269l0.076-0.021l0.563,0.002c0,0,0.196-0.004,0.301,0.118c0.105,0.122,0.1,0.283,0.1,0.283v0.856
		c0,0,0.008,0.176-0.111,0.176c-0.138,0-0.144-0.176-0.144-0.176v-0.794h-0.06v2.275c0,0,0.028,0.22-0.164,0.22
		c-0.195,0-0.177-0.229-0.177-0.229v-1.312h-0.062v1.313c0,0,0.021,0.226-0.176,0.226c-0.196,0-0.17-0.226-0.17-0.226l-0.003-2.646
		L1032.161,622.269z"/>
	<polygon points="1032.066,623.062 1031.933,623.19 1031.803,623.062 1031.803,621.879 1031.933,621.75 1032.066,621.879 	"/>
	<rect x="1025.686" y="625.218" style="fill:#BA8E2D;" width="8.762" height="0.31"/>
	<rect x="1025.686" y="623.062" style="fill:#BA8E2D;" width="0.241" height="2.344"/>
	<rect x="1034.183" y="623.062" style="fill:#BA8E2D;" width="0.265" height="2.323"/>
	<rect x="1028.373" y="623.121" style="fill:#BA8E2D;" width="0.219" height="2.347"/>
	<rect x="1031.434" y="623.121" style="fill:#BA8E2D;" width="0.241" height="2.347"/>
	<rect x="1025.763" y="623.057" style="fill:#BA8E2D;" width="8.584" height="0.195"/>
	<rect x="1025.775" y="624.091" style="fill:#BA8E2D;" width="8.585" height="0.229"/>
	<rect x="1026.105" y="629.445" style="fill:#BA8E2D;" width="7.98" height="1.551"/>
	<polygon style="fill:#BA8E2D;" points="1026.233,625.643 1033.049,629.356 1033.832,629.356 1027.027,625.662 	"/>
	<polygon style="fill:#BA8E2D;" points="1033.837,625.656 1027.207,629.344 1026.332,629.361 1033.186,625.638 	"/>
	<circle cx="1030.082" cy="627.525" r="0.325"/>
	<ellipse style="fill:#FFFFFF;" cx="1029.668" cy="630.603" rx="1.623" ry="1.601"/>
	<path d="M1032.851,621.854h-0.685c0-0.188,0.152-0.341,0.344-0.341C1032.697,621.513,1032.848,621.664,1032.851,621.854z"/>
	
		<rect x="1032.44" y="621.584" transform="matrix(0.7071 -0.7071 0.7071 0.7071 -137.1558 912.1608)" style="fill:#FFFFFF;" width="0.115" height="0.116"/>
	<polyline points="1032.512,621.504 1032.593,621.584 1032.512,621.666 1032.429,621.584 1032.512,621.504 	"/>
	<polyline style="fill:#929497;" points="1030.791,625.269 1031.136,622.807 1030.979,622.785 1030.632,625.248 	"/>
</g>
<g id="Layer_1">
</g>
</svg>
