<svg xmlns="http://www.w3.org/2000/svg" width="1366" height="700" viewBox="0 0 1366 700"><path d="M1030.766 630.595h-.323a.76.76 0 0 1-.227.542.76.76 0 0 1-1.088 0c-.14-.14-.227-.33-.227-.542a.773.773 0 0 1 .773-.772.772.772 0 0 1 .77.772h.647a1.414 1.414 0 0 0-1.417-1.42c-.394 0-.75.158-1.003.414a1.412 1.412 0 0 0 0 2.007 1.418 1.418 0 0 0 2.42-1.002h-.324"/><path fill="#ba8e2d" d="M1030.286 630.758l.015-.05v-.023l.006-.033v-.09l.132-.008-.045-.225-.126.045-.054-.112-.032-.054-.038-.046.097-.093-.178-.144-.067.11-.057-.025-.063-.02-.058-.018-.067-.015.013-.13-.23.007.02.13-.172.06-.06.033-.072-.113-.173.153.1.087-.12.224-.125-.046-.032.232h.132l.006.065.026.125.02.06-.12.05.12.2.1-.084.047.046.043.04.108.065-.06.12.22.074.018-.133.054.01h.06l.072-.01h.006l.067-.01.027.13.212-.085-.068-.113.053-.033.048-.04.046-.047.04-.047.106.08.113-.204-.122-.04z"/></svg>