<?xml version="1.0" encoding="utf-8"?>
<!-- Generator: Adobe Illustrator 16.0.4, SVG Export Plug-In . SVG Version: 6.00 Build 0)  -->
<!DOCTYPE svg PUBLIC "-//W3C//DTD SVG 1.1//EN" "http://www.w3.org/Graphics/SVG/1.1/DTD/svg11.dtd">
<svg version="1.1" id="Haulage_Dump_Truck_2" xmlns="http://www.w3.org/2000/svg" xmlns:xlink="http://www.w3.org/1999/xlink"
	 x="0px" y="0px" width="1366px" height="700px" viewBox="0 0 1366 700" enable-background="new 0 0 1366 700" xml:space="preserve"
	>
<path d="M254.601,579.197c0.046,0.229,0.063,0.271,0.076,0.443c0.011,0.156,0.013,0.236,0.003,0.438l3.979-0.135
	c-0.013-0.089-0.021-0.181-0.023-0.271c-0.006-0.209,0.013-0.413,0.053-0.61L254.601,579.197z"/>
<path fill="#BA8E2D" d="M259.111,574.585l0.113,3.376c0.447-0.54,1.117-0.893,1.872-0.919c1.155-0.039,2.159,0.704,2.503,1.752
	l0.869-0.029l-0.082-2.439l-1.871-0.6l-0.644-1.231L259.111,574.585z"/>
<path id="Small_Remote_Mucking_Pile__x28_Timmins_x29__3_" fill="#231F20" d="M258.021,575.043c0.227-0.071,0.221-0.195,0.176-0.378
	c-0.026-0.108-0.225-0.204-0.324-0.291c-0.063-0.056,0.108-0.144,0.123-0.23c0.047-0.219,0.093-0.219,0.093-0.4
	c0-0.114-0.198-0.138-0.325-0.257c-0.072-0.067-0.163-0.347-0.231-0.388c-0.179-0.111-0.461-0.128-0.461-0.346
	c0-0.088,0.048-0.257,0.013-0.37c-0.051-0.175-0.465-0.208-0.465-0.208s-0.152-0.282-0.34-0.291
	c-0.263-0.013-0.34,0.148-0.465,0.121c-0.124-0.027-0.322-0.155-0.322-0.219c0-0.134-0.254-0.206-0.436-0.242
	c-0.107-0.023-0.525,0.048-0.617,0.133c-0.128,0.115-0.441-0.08-0.605-0.061c-0.217,0.024-0.607,0.228-0.607,0.408
	c0,0.182-0.182,0.4-0.316,0.364s-0.406,0-0.361,0.219c0.046,0.218-0.316,0.544-0.316,0.544s-0.677,0.109-0.498,0.255
	c0.182,0.146,0.045,0.291-0.09,0.328c-0.135,0.036-0.316,0.255-0.316,0.363c0,0.109,0.182-0.146,0,0.109
	c-0.181,0.255-0.271,0.292-0.271,0.4c0,0.109-0.078,0.457-0.078,0.457L258.021,575.043z"/>
<path fill="#BA8E2D" d="M248.027,577.009l0.069,2.04l1.274-0.043c0.016-0.134,0-0.006,0.038-0.137
	c0.485-1.246,1.574-1.704,2.513-1.734c1.242-0.042,2.288,1.035,2.56,1.706l4.4-0.156l-0.152-4.449l1.562-0.051l-0.026-0.883
	l-9.211,0.309L248.027,577.009z"/>
<path d="M250.21,579.955l0.512-0.017c0.011,0.336,0.154,0.632,0.383,0.846c0.228,0.214,0.533,0.337,0.869,0.327
	c0.336-0.014,0.631-0.157,0.845-0.387c0.212-0.228,0.338-0.531,0.325-0.868c-0.01-0.336-0.155-0.632-0.383-0.846
	c-0.229-0.213-0.532-0.337-0.869-0.324c-0.337,0.011-0.632,0.154-0.847,0.382c-0.212,0.229-0.336,0.534-0.324,0.87l-1.022,0.034
	c-0.021-0.613,0.211-1.188,0.603-1.602c0.388-0.417,0.94-0.688,1.556-0.707c0.617-0.021,1.186,0.211,1.602,0.6
	c0.416,0.392,0.687,0.943,0.708,1.56c0.021,0.613-0.212,1.184-0.602,1.6c-0.39,0.418-0.943,0.689-1.558,0.708
	c-0.615,0.021-1.187-0.211-1.603-0.601c-0.415-0.391-0.685-0.942-0.707-1.558L250.21,579.955"/>
<path fill="#BA8E2D" d="M250.969,580.2l-0.025-0.082v-0.032l-0.013-0.05l-0.004-0.147l-0.208-0.003
	c0.005-0.126,0.021-0.242,0.06-0.357l0.202,0.065l0.078-0.178l0.048-0.087l0.062-0.074l-0.161-0.141
	c0.08-0.097,0.171-0.173,0.273-0.239l0.112,0.175l0.09-0.046l0.093-0.033l0.093-0.036l0.104-0.022l-0.028-0.208
	c0.115-0.023,0.239-0.019,0.365-0.001l-0.024,0.21c0.095,0.006,0.188,0.035,0.274,0.084l0.095,0.049l0.109-0.182
	c0.105,0.06,0.203,0.141,0.278,0.231l-0.151,0.139c0.087,0.103,0.164,0.214,0.199,0.351l0.195-0.081
	c0.034,0.126,0.06,0.239,0.063,0.364l-0.208,0.005l-0.008,0.104l-0.034,0.2l-0.029,0.095l0.191,0.076
	c-0.047,0.117-0.108,0.223-0.178,0.32l-0.16-0.131l-0.069,0.075l-0.071,0.065l-0.164,0.107l0.101,0.184
	c-0.104,0.056-0.227,0.102-0.339,0.127l-0.039-0.206l-0.083,0.012l-0.095,0.005l-0.114-0.007h-0.011l-0.104-0.018l-0.036,0.211
	c-0.116-0.027-0.229-0.065-0.339-0.127l0.1-0.181l-0.086-0.05l-0.075-0.06l-0.075-0.07l-0.064-0.071l-0.163,0.132
	c-0.075-0.093-0.144-0.203-0.188-0.315l0.187-0.07L250.969,580.2z"/>
<path d="M259.475,579.631l0.512-0.017c0.01,0.337,0.156,0.633,0.384,0.845c0.228,0.216,0.532,0.339,0.869,0.327
	c0.336-0.012,0.631-0.155,0.844-0.383c0.215-0.229,0.34-0.534,0.328-0.87c-0.013-0.339-0.158-0.632-0.385-0.847
	c-0.229-0.213-0.532-0.337-0.869-0.326c-0.336,0.012-0.631,0.157-0.846,0.386c-0.213,0.228-0.336,0.53-0.325,0.868l-1.021,0.032
	c-0.021-0.612,0.21-1.183,0.6-1.599c0.39-0.419,0.943-0.688,1.558-0.709c0.615-0.02,1.188,0.213,1.602,0.604
	c0.418,0.389,0.688,0.94,0.708,1.557c0.021,0.614-0.21,1.185-0.603,1.602c-0.388,0.418-0.941,0.688-1.557,0.706
	c-0.615,0.022-1.186-0.211-1.603-0.601c-0.417-0.389-0.685-0.941-0.705-1.559L259.475,579.631"/>
<path fill="#BA8E2D" d="M260.234,579.876l-0.024-0.082v-0.031l-0.014-0.052l-0.006-0.146l-0.207-0.005
	c0.005-0.125,0.021-0.24,0.061-0.354l0.199,0.063l0.08-0.178l0.049-0.086l0.061-0.074l-0.161-0.141
	c0.079-0.098,0.171-0.174,0.273-0.239l0.109,0.174l0.092-0.045l0.094-0.034l0.091-0.034l0.104-0.024l-0.028-0.207
	c0.114-0.024,0.24-0.019,0.366-0.002l-0.024,0.209c0.093,0.009,0.188,0.035,0.272,0.085l0.095,0.049l0.108-0.181
	c0.106,0.06,0.205,0.14,0.28,0.23l-0.152,0.141c0.088,0.102,0.164,0.213,0.201,0.348l0.194-0.077
	c0.034,0.123,0.061,0.234,0.064,0.358l-0.208,0.01l-0.007,0.104l-0.035,0.198l-0.028,0.096l0.191,0.076
	c-0.049,0.117-0.109,0.225-0.178,0.32l-0.161-0.132l-0.071,0.074l-0.07,0.067l-0.161,0.108l0.099,0.185
	c-0.102,0.056-0.225,0.103-0.34,0.126l-0.037-0.208l-0.083,0.016l-0.093,0.002l-0.116-0.008l-0.01,0.001l-0.104-0.017l-0.035,0.209
	c-0.115-0.027-0.23-0.065-0.338-0.125l0.1-0.182l-0.086-0.047l-0.074-0.061l-0.076-0.071l-0.064-0.07l-0.162,0.129
	c-0.076-0.091-0.144-0.203-0.188-0.314l0.186-0.069L260.234,579.876z"/>
</svg>
