<svg xmlns="http://www.w3.org/2000/svg" width="1366" height="700" viewBox="0 0 1366 700"><path d="M656.28 556.16c-.226-.07-.22-.194-.174-.377.025-.108.225-.204.322-.29.064-.058-.107-.146-.123-.23-.047-.22-.093-.22-.093-.4 0-.114.2-.14.325-.257.073-.067.164-.348.23-.39.18-.11.463-.127.463-.345 0-.087-.05-.256-.014-.37.052-.174.465-.207.465-.207s.153-.282.342-.29c.263-.014.34.147.464.12s.323-.155.323-.22c0-.134.252-.205.434-.24.108-.024.525.047.618.132.127.115.44-.08.604-.06.217.022.607.227.607.406 0 .184.182.4.316.365.135-.036.406 0 .36.22s.317.543.317.543.676.11.498.256c-.183.146-.045.29.09.327.134.037.315.257.315.364 0 .11-.182-.146 0 .11s.272.29.272.398c0 .11.077.457.077.457l-7.04-.02z" fill="#231f20"/></svg>