<svg xmlns="http://www.w3.org/2000/svg" width="1366" height="700" viewBox="0 0 1366 700"><path d="M254.6 579.197c.047.23.064.27.077.443.01.156.013.236.003.438l3.98-.135c-.014-.09-.022-.18-.024-.27-.006-.21.013-.414.053-.61l-4.09.134z"/><path fill="#BA8E2D" d="M259.11 574.585l.114 3.376a2.54 2.54 0 0 1 1.872-.918 2.55 2.55 0 0 1 2.503 1.752l.868-.03-.082-2.438-1.87-.6-.645-1.23-2.76.09z"/><path fill="#231F20" d="M258.02 575.043c.228-.07.222-.195.177-.378-.026-.108-.225-.204-.324-.29-.063-.057.108-.145.123-.23.047-.22.093-.22.093-.4 0-.115-.2-.14-.326-.258-.072-.067-.163-.347-.23-.388-.18-.112-.462-.13-.462-.347 0-.088.048-.257.013-.37-.05-.175-.465-.208-.465-.208s-.152-.282-.34-.29c-.263-.014-.34.147-.465.12-.124-.027-.322-.155-.322-.22 0-.133-.254-.205-.436-.24-.107-.024-.525.047-.617.132-.128.115-.44-.08-.605-.06-.217.023-.607.227-.607.407 0 .182-.182.4-.316.364s-.406 0-.36.22c.045.217-.317.543-.317.543s-.677.11-.498.256c.182.146.045.29-.09.328-.135.036-.316.255-.316.363 0 .11.183-.146 0 .11-.18.254-.27.29-.27.4 0 .108-.078.456-.078.456l7.04-.02z"/><path fill="#BA8E2D" d="M248.027 577.01l.07 2.04 1.273-.044c.016-.134 0-.006.038-.137.485-1.247 1.574-1.705 2.513-1.735 1.243-.042 2.29 1.035 2.56 1.706l4.4-.155-.15-4.45 1.56-.05-.025-.883-9.21.31-3.028 3.397z"/><path d="M250.21 579.955l.512-.017a1.2 1.2 0 0 0 .383.846 1.206 1.206 0 0 0 1.714-.06c.21-.228.337-.53.324-.868a1.2 1.2 0 0 0-.383-.846 1.196 1.196 0 0 0-.868-.324 1.207 1.207 0 0 0-1.17 1.252l-1.023.034c-.022-.613.21-1.188.602-1.602.388-.417.94-.688 1.556-.707a2.23 2.23 0 0 1 2.31 2.16 2.23 2.23 0 0 1-.602 1.6 2.233 2.233 0 0 1-3.868-1.45l.512-.017"/><path fill="#BA8E2D" d="M250.97 580.2l-.026-.082v-.032l-.013-.05-.003-.147-.208-.004c.004-.126.02-.242.06-.357l.2.064.08-.178.047-.087.062-.075-.162-.14c.08-.098.17-.174.273-.24l.113.175.09-.046.093-.033.093-.035.103-.022-.028-.208c.115-.023.24-.02.365 0l-.024.21a.634.634 0 0 1 .274.083l.095.05.11-.183c.104.06.202.14.277.23l-.15.14a.887.887 0 0 1 .198.35l.195-.08c.034.126.06.24.063.364l-.208.004-.008.104-.034.2-.03.095.192.076a1.504 1.504 0 0 1-.178.32l-.16-.132-.07.075-.07.065-.164.107.1.184a1.378 1.378 0 0 1-.338.126l-.04-.206-.082.012-.095.005-.114-.007h-.012l-.104-.018-.036.21a1.26 1.26 0 0 1-.34-.126l.1-.18-.085-.05-.075-.06-.075-.07-.064-.072-.164.132a1.24 1.24 0 0 1-.188-.315l.187-.07-.026-.08z"/><path d="M259.475 579.63l.512-.016c.01.337.156.633.384.845.23.215.533.338.87.326.336-.012.63-.155.844-.383a1.2 1.2 0 0 0 .328-.87 1.218 1.218 0 0 0-1.254-1.173 1.21 1.21 0 0 0-.846.386 1.2 1.2 0 0 0-.325.868l-1.02.032c-.022-.612.21-1.183.6-1.6a2.23 2.23 0 0 1 3.16-.104c.417.39.687.94.707 1.557.02.613-.21 1.184-.603 1.6a2.21 2.21 0 0 1-1.556.707 2.23 2.23 0 0 1-2.308-2.16l.51-.016"/><path fill="#BA8E2D" d="M260.234 579.876l-.024-.082v-.03l-.014-.053-.006-.145-.207-.005c.005-.125.02-.24.06-.354l.2.063.08-.18.05-.085.06-.074-.16-.14c.078-.098.17-.174.272-.24l.11.175.09-.045.095-.034.09-.034.105-.024-.028-.207c.114-.023.24-.018.366 0l-.024.208c.092.01.187.035.27.085l.096.05.108-.182c.106.06.205.14.28.23l-.152.142a.9.9 0 0 1 .2.348l.195-.077c.034.123.06.234.064.358l-.207.01-.007.105-.035.198-.027.096.19.075a1.59 1.59 0 0 1-.177.32l-.16-.132-.072.074-.07.067-.16.108.098.185a1.243 1.243 0 0 1-.34.126l-.037-.208-.083.016-.093.003-.117-.008h-.01l-.104-.016-.036.208a1.303 1.303 0 0 1-.338-.125l.1-.182-.086-.046-.074-.06-.076-.072-.064-.07-.162.13a1.19 1.19 0 0 1-.188-.315l.186-.07-.028-.08z"/></svg>