<?xml version="1.0" encoding="iso-8859-1"?>
<!-- Generator: Adobe Illustrator 16.0.4, SVG Export Plug-In . SVG Version: 6.00 Build 0)  -->
<!DOCTYPE svg PUBLIC "-//W3C//DTD SVG 1.1//EN" "http://www.w3.org/Graphics/SVG/1.1/DTD/svg11.dtd">
<svg version="1.1" xmlns="http://www.w3.org/2000/svg" xmlns:xlink="http://www.w3.org/1999/xlink" x="0px" y="0px" width="1366px"
	 height="700px" viewBox="0 0 1366 700" style="enable-background:new 0 0 1366 700;" xml:space="preserve">
<g id="Haulage_Dump_Truck_1_Pile">
	<g>
		<path id="Small_Remote_Mucking_Pile__x28_Timmins_x29__2_" style="fill:#231F20;" d="M656.281,556.161
			c-0.227-0.071-0.221-0.195-0.175-0.378c0.025-0.108,0.225-0.204,0.322-0.291c0.064-0.057-0.107-0.145-0.123-0.23
			c-0.047-0.219-0.093-0.219-0.093-0.399c0-0.114,0.199-0.139,0.325-0.257c0.073-0.067,0.164-0.348,0.231-0.389
			c0.18-0.111,0.462-0.128,0.462-0.346c0-0.088-0.049-0.257-0.014-0.37c0.052-0.175,0.465-0.208,0.465-0.208
			s0.152-0.282,0.341-0.291c0.263-0.013,0.34,0.148,0.464,0.121s0.323-0.155,0.323-0.219c0-0.135,0.253-0.206,0.435-0.242
			c0.108-0.023,0.525,0.048,0.618,0.133c0.127,0.115,0.44-0.08,0.604-0.061c0.217,0.023,0.607,0.228,0.607,0.407
			c0,0.183,0.182,0.4,0.316,0.364c0.136-0.036,0.407,0,0.361,0.219s0.317,0.544,0.317,0.544s0.676,0.109,0.498,0.256
			c-0.183,0.146-0.045,0.291,0.089,0.327c0.135,0.036,0.316,0.256,0.316,0.363c0,0.109-0.182-0.146,0,0.109s0.272,0.292,0.272,0.399
			c0,0.109,0.077,0.457,0.077,0.457L656.281,556.161z"/>
	</g>
</g>
<g id="Layer_1">
</g>
</svg>
