<?xml version="1.0" encoding="iso-8859-1"?>
<!-- Generator: Adobe Illustrator 16.0.4, SVG Export Plug-In . SVG Version: 6.00 Build 0)  -->
<!DOCTYPE svg PUBLIC "-//W3C//DTD SVG 1.1//EN" "http://www.w3.org/Graphics/SVG/1.1/DTD/svg11.dtd">
<svg version="1.1" xmlns="http://www.w3.org/2000/svg" xmlns:xlink="http://www.w3.org/1999/xlink" x="0px" y="0px" width="1366px"
	 height="700px" viewBox="0 0 1366 700" style="enable-background:new 0 0 1366 700;" xml:space="preserve">
<g id="Haulage_Dump_Truck_1_Body">
	<g>
		<path d="M660.223,560.267c-0.026,0.231-0.043,0.274-0.041,0.448c0.002,0.156,0.006,0.236,0.03,0.438l-3.979,0.175
			c0.006-0.09,0.007-0.182,0.003-0.274c-0.012-0.208-0.045-0.409-0.101-0.604L660.223,560.267z"/>
		<path style="fill:#BA8E2D;" d="M655.37,556.017l0.147,3.375c-0.487-0.504-1.184-0.804-1.938-0.771
			c-1.154,0.051-2.099,0.869-2.359,1.938l-0.867,0.039l-0.107-2.438l1.819-0.741l0.546-1.278L655.37,556.017z"/>
		<path d="M664.66,560.682l-0.511,0.023c0.015,0.335-0.105,0.642-0.317,0.872c-0.211,0.229-0.505,0.378-0.841,0.394
			s-0.643-0.106-0.872-0.316c-0.229-0.211-0.378-0.506-0.393-0.842c-0.017-0.337,0.104-0.644,0.315-0.873s0.505-0.379,0.841-0.393
			c0.337-0.015,0.645,0.106,0.873,0.315c0.229,0.211,0.377,0.507,0.393,0.843l1.021-0.045c-0.026-0.614-0.303-1.168-0.725-1.55
			c-0.419-0.388-0.991-0.611-1.605-0.586c-0.615,0.025-1.166,0.304-1.551,0.724c-0.385,0.421-0.611,0.993-0.585,1.608
			c0.026,0.612,0.303,1.163,0.724,1.549c0.422,0.386,0.993,0.611,1.607,0.585c0.613-0.026,1.166-0.305,1.551-0.726
			c0.385-0.42,0.61-0.99,0.584-1.604L664.66,560.682"/>
		<path style="fill:#BA8E2D;" d="M663.923,560.984l0.021-0.084l-0.002-0.032l0.009-0.051l-0.007-0.147l0.207-0.019
			c-0.017-0.125-0.041-0.239-0.088-0.353l-0.195,0.08l-0.091-0.172l-0.056-0.082l-0.066-0.068l0.148-0.151
			c-0.087-0.09-0.184-0.158-0.291-0.219l-0.098,0.184l-0.094-0.039l-0.097-0.026l-0.096-0.025l-0.104-0.018l0.013-0.21
			c-0.117-0.015-0.24,0.001-0.364,0.027l0.04,0.207c-0.093,0.014-0.187,0.05-0.267,0.104l-0.092,0.058l-0.123-0.172
			c-0.103,0.064-0.191,0.153-0.26,0.252l0.16,0.127c-0.078,0.105-0.146,0.225-0.172,0.362l-0.201-0.064
			c-0.023,0.128-0.039,0.243-0.035,0.368l0.209-0.011l0.017,0.104l0.05,0.196l0.036,0.092l-0.187,0.092
			c0.059,0.112,0.125,0.215,0.201,0.306l0.15-0.144l0.074,0.07l0.076,0.061l0.172,0.096l-0.086,0.189
			c0.106,0.047,0.232,0.084,0.35,0.102l0.021-0.209l0.084,0.007l0.095-0.005l0.114-0.017h0.01l0.104-0.024l0.052,0.207
			c0.113-0.036,0.227-0.083,0.328-0.151l-0.113-0.172l0.082-0.058l0.069-0.063l0.07-0.076l0.06-0.076l0.172,0.119
			c0.067-0.098,0.128-0.215,0.164-0.331l-0.19-0.055L663.923,560.984z"/>
		<path d="M655.398,561.076l-0.513,0.021c0.017,0.337-0.105,0.645-0.316,0.872c-0.209,0.232-0.505,0.378-0.842,0.396
			c-0.336,0.014-0.643-0.106-0.87-0.317c-0.231-0.21-0.38-0.506-0.396-0.841c-0.014-0.338,0.108-0.644,0.318-0.873
			s0.504-0.378,0.841-0.396c0.336-0.015,0.643,0.108,0.873,0.318c0.229,0.211,0.377,0.504,0.393,0.841l1.021-0.046
			c-0.026-0.613-0.302-1.163-0.723-1.548c-0.422-0.387-0.993-0.612-1.607-0.586c-0.614,0.027-1.166,0.304-1.549,0.725
			c-0.388,0.42-0.613,0.992-0.585,1.607c0.024,0.614,0.302,1.164,0.724,1.549c0.419,0.387,0.992,0.612,1.606,0.585
			c0.614-0.025,1.164-0.303,1.551-0.725c0.386-0.42,0.609-0.991,0.583-1.607L655.398,561.076"/>
		<path style="fill:#BA8E2D;" d="M654.661,561.379l0.019-0.084l-0.004-0.031l0.011-0.053l-0.006-0.146l0.206-0.021
			c-0.016-0.124-0.04-0.238-0.088-0.35l-0.193,0.08l-0.094-0.172l-0.056-0.082l-0.064-0.069l0.148-0.152
			c-0.086-0.09-0.185-0.159-0.292-0.218l-0.096,0.183l-0.096-0.037l-0.097-0.026l-0.094-0.026l-0.105-0.018l0.014-0.208
			c-0.116-0.017-0.241,0.001-0.365,0.026l0.041,0.205c-0.093,0.017-0.186,0.052-0.268,0.104l-0.092,0.057l-0.121-0.171
			c-0.103,0.066-0.192,0.154-0.262,0.251l0.162,0.129c-0.08,0.107-0.146,0.227-0.173,0.361l-0.199-0.062
			c-0.024,0.127-0.042,0.239-0.037,0.363l0.208-0.008l0.018,0.104l0.05,0.193l0.035,0.093l-0.187,0.093
			c0.06,0.111,0.126,0.215,0.202,0.306l0.15-0.144l0.076,0.067l0.076,0.062l0.168,0.096l-0.084,0.191
			c0.105,0.047,0.232,0.084,0.351,0.099l0.021-0.209l0.084,0.008l0.094-0.005l0.113-0.017h0.012l0.104-0.024l0.052,0.206
			c0.112-0.036,0.227-0.083,0.326-0.15l-0.111-0.173l0.082-0.054l0.068-0.066l0.07-0.074l0.059-0.076l0.172,0.116
			c0.068-0.098,0.127-0.215,0.163-0.329l-0.188-0.056L654.661,561.379z"/>
	</g>
</g>
<g id="Layer_1">
</g>
</svg>
