<svg xmlns="http://www.w3.org/2000/svg" width="1366" height="700" viewBox="0 0 1366 700"><path d="M660.223 560.267c-.026.23-.043.274-.04.448 0 .156.005.236.03.438l-3.98.175a2.5 2.5 0 0 0-.098-.878l4.088-.183z"/><path d="M655.37 556.017l.147 3.375a2.538 2.538 0 0 0-1.938-.77c-1.155.05-2.1.868-2.36 1.937l-.867.038-.107-2.438 1.82-.74.545-1.28 2.76-.123z" fill="#ba8e2d"/><path d="M664.66 560.682l-.51.023a1.215 1.215 0 0 1-2.03.95 1.212 1.212 0 0 1-.394-.842c-.017-.337.104-.644.315-.873s.506-.38.842-.393c.337-.015.645.106.873.315.23.21.377.507.393.843l1.02-.045a2.22 2.22 0 0 0-.724-1.55 2.23 2.23 0 0 0-3.156.138 2.233 2.233 0 0 0 1.746 3.742 2.236 2.236 0 0 0 2.134-2.33l-.51.022"/><path d="M663.923 560.984l.02-.084v-.032l.008-.05-.006-.148.207-.02a1.395 1.395 0 0 0-.087-.352l-.195.08-.09-.172-.057-.082-.065-.068.148-.15a1.263 1.263 0 0 0-.29-.22l-.1.184-.093-.04-.097-.025-.096-.025-.104-.018.013-.21c-.117-.015-.24 0-.364.027l.04.206a.66.66 0 0 0-.267.104l-.092.058-.123-.172a.905.905 0 0 0-.26.252l.16.127a.893.893 0 0 0-.172.362l-.2-.064c-.024.128-.04.243-.036.368l.21-.01.016.104.05.196.036.092-.187.092c.06.112.125.215.2.306l.15-.144.075.07.076.06.172.097-.086.19c.106.046.232.083.35.1l.02-.208.085.007.094-.005.114-.017h.01l.104-.024.052.207a1.28 1.28 0 0 0 .328-.15l-.113-.173.08-.058.07-.063.07-.077.06-.076.172.12c.067-.1.128-.216.164-.332l-.19-.055.017-.086z" fill="#ba8e2d"/><path d="M655.398 561.076l-.513.02c.017.338-.105.646-.316.873a1.21 1.21 0 0 1-1.713.078 1.21 1.21 0 0 1-.078-1.714 1.208 1.208 0 0 1 1.714-.078c.228.21.376.504.392.84l1.02-.045a2.234 2.234 0 0 0-2.33-2.134 2.23 2.23 0 0 0-1.548.726c-.388.42-.613.992-.585 1.607.024.613.302 1.163.724 1.548a2.23 2.23 0 0 0 3.157-.14c.386-.42.61-.99.583-1.607l-.51.026"/><path d="M654.66 561.38l.02-.085-.004-.03.01-.054-.005-.145.207-.02a1.285 1.285 0 0 0-.088-.35l-.194.08-.094-.173-.056-.082-.064-.07.148-.15a1.19 1.19 0 0 0-.292-.22l-.096.184-.096-.037-.097-.026-.095-.025-.105-.018.014-.208c-.116-.018-.24 0-.365.025l.04.205a.76.76 0 0 0-.268.104l-.092.057-.12-.17a.98.98 0 0 0-.263.25l.162.13a.91.91 0 0 0-.174.36l-.2-.06a1.56 1.56 0 0 0-.036.362l.208-.008.018.104.05.193.035.094-.186.093c.06.11.126.215.202.306l.15-.144.076.066.076.062.168.096-.084.19c.105.048.232.085.35.1l.022-.21.084.01.094-.006.113-.017h.012l.104-.023.053.206c.112-.036.227-.083.326-.15l-.112-.173.082-.054.068-.066.07-.074.06-.076.17.116c.07-.098.128-.215.164-.33l-.188-.055.017-.08z" fill="#ba8e2d"/></svg>