<?xml version="1.0" encoding="utf-8"?>
<!-- Generator: Adobe Illustrator 16.0.4, SVG Export Plug-In . SVG Version: 6.00 Build 0)  -->
<!DOCTYPE svg PUBLIC "-//W3C//DTD SVG 1.1//EN" "http://www.w3.org/Graphics/SVG/1.1/DTD/svg11.dtd">
<svg version="1.1" xmlns="http://www.w3.org/2000/svg" xmlns:xlink="http://www.w3.org/1999/xlink" x="0px" y="0px" width="1366px"
	 height="700px" viewBox="149.496 666.643 1366 700" enable-background="new 149.496 666.643 1366 700" xml:space="preserve">
<g id="Development_Video_1_">
	<g>
		<polygon fill="#231F20" points="1267,1278.25 1412,1278.25 1412,1306.172 1346.133,1306.164 1339.164,1315.75 1332.125,1306.172 
			1267,1306.172 		"/>
		<text transform="matrix(1 0 0 1 1381.625 1296.0029)" fill="#FFFFFF" font-family="'ArialNarrow-Bold'" font-size="9">VIDEO</text>
		<text transform="matrix(1 0 0 1 1272.5 1297.7529)" fill="#FFFFFF" font-family="'ArialNarrow-Bold'" font-size="12">DEVELOPMENT</text>
		<polygon fill="#808184" points="1366.575,1289.22 1374.056,1289.22 1374.056,1291.604 1376.585,1289.653 1376.585,1295.687 
			1374.056,1293.628 1374.056,1296.229 1366.54,1296.229 		"/>
	</g>
</g>
<g id="Longhole_mining">
	<g>
		<polygon fill="#231F20" points="1248,1163.25 1393,1163.25 1393,1191.172 1327.133,1191.164 1320.164,1200.75 1313.125,1191.172 
			1248,1191.172 		"/>
		<text transform="matrix(1 0 0 1 1362.625 1181.0029)" fill="#FFFFFF" font-family="'ArialNarrow-Bold'" font-size="9">VIDEO</text>
		<text transform="matrix(1 0 0 1 1254.3682 1176.2529)" fill="#FFFFFF" font-family="'ArialNarrow-Bold'" font-size="12">LONGHOLE</text>
		<text transform="matrix(1 0 0 1 1264.4844 1187.2529)" fill="#FFFFFF" font-family="'ArialNarrow-Bold'" font-size="12">MINING</text>
		<polygon fill="#808184" points="1347.575,1174.22 1355.056,1174.22 1355.056,1176.604 1357.585,1174.653 1357.585,1180.687 
			1355.056,1178.628 1355.056,1181.229 1347.54,1181.229 		"/>
	</g>
</g>
<g id="Hoisting_Video_1_">
	<g>
		<polygon fill="#231F20" points="705,1291.25 850,1291.25 850,1319.172 784.133,1319.164 777.164,1328.75 770.125,1319.172 
			705,1319.172 		"/>
		<text transform="matrix(1 0 0 1 819.625 1309.0029)" fill="#FFFFFF" font-family="'ArialNarrow-Bold'" font-size="9">VIDEO</text>
		<text transform="matrix(1 0 0 1 715.625 1310.7529)" fill="#FFFFFF" font-family="'ArialNarrow-Bold'" font-size="12">HOISTING</text>
		<polygon fill="#808184" points="804.575,1302.22 812.056,1302.22 812.056,1304.604 814.585,1302.653 814.585,1308.687 
			812.056,1306.628 812.056,1309.229 804.54,1309.229 		"/>
	</g>
</g>
<g id="Underground_Shop_Video_1_">
	<g>
		<polygon fill="#231F20" points="768,1141.25 913,1141.25 913,1169.172 847.133,1169.164 840.164,1178.75 833.125,1169.172 
			768,1169.172 		"/>
		<text transform="matrix(1 0 0 1 882.625 1159.0029)" fill="#FFFFFF" font-family="'ArialNarrow-Bold'" font-size="9">VIDEO</text>
		<text transform="matrix(1 0 0 1 774.5293 1154.5029)" fill="#FFFFFF" font-family="'ArialNarrow-Bold'" font-size="12">UNDERGROUND</text>
		<text transform="matrix(1 0 0 1 800.0176 1165.5029)" fill="#FFFFFF" font-family="'ArialNarrow-Bold'" font-size="12">SHOP</text>
		<polygon fill="#808184" points="867.575,1152.22 875.056,1152.22 875.056,1154.604 877.585,1152.653 877.585,1158.687 
			875.056,1156.628 875.056,1159.229 867.54,1159.229 		"/>
	</g>
</g>
<g id="Underground_Haulage_Video_1_">
	<g>
		<polygon fill="#231F20" points="559,1160.25 704,1160.25 704,1188.172 638.133,1188.164 631.164,1197.75 624.125,1188.172 
			559,1188.172 		"/>
		<text transform="matrix(1 0 0 1 673.625 1178.0029)" fill="#FFFFFF" font-family="'ArialNarrow-Bold'" font-size="9">VIDEO</text>
		<text transform="matrix(1 0 0 1 565.5293 1173.5029)" fill="#FFFFFF" font-family="'ArialNarrow-Bold'" font-size="12">UNDERGROUND</text>
		<text transform="matrix(1 0 0 1 580.5557 1184.5029)" fill="#FFFFFF" font-family="'ArialNarrow-Bold'" font-size="12">HAULAGE</text>
		<polygon fill="#808184" points="658.575,1171.22 666.056,1171.22 666.056,1173.604 668.585,1171.653 668.585,1177.687 
			666.056,1175.628 666.056,1178.229 658.54,1178.229 		"/>
	</g>
</g>
</svg>
