<svg xmlns="http://www.w3.org/2000/svg" width="1366" height="700" viewBox="149.496 666.643 1366 700"><path d="M1220.792 1124.13h-.24a.566.566 0 0 1-.568.57.564.564 0 0 1-.4-.167.565.565 0 0 1 .4-.97.568.568 0 0 1 .57.57h.478a1.047 1.047 0 0 0-2.096 0 1.045 1.045 0 0 0 1.048 1.046 1.046 1.046 0 0 0 1.048-1.047h-.24"/><path fill="#BA8E2D" d="M1220.437 1124.253l.01-.04v-.015l.005-.024v-.07l.1-.004-.035-.165-.093.033-.04-.082-.025-.04-.03-.034.073-.068-.132-.107-.047.083-.044-.02-.045-.014-.044-.015-.048-.01.01-.097-.17.005.014.097-.127.045-.045.024-.054-.083-.126.114.073.063-.088.165-.094-.033-.025.17h.1l.005.05.02.09.014.046-.09.038.09.147.072-.062.033.034.034.03.08.048-.045.09.16.052.015-.097.04.005h.043l.054-.005h.005l.05-.01.017.097.158-.063-.05-.085.04-.023.033-.03.036-.034.028-.034.08.058.083-.152-.09-.028z"/><path d="M1215.343 1124.147h-.24a.56.56 0 0 1-.167.4.565.565 0 0 1-.97-.4.567.567 0 0 1 .97-.403.57.57 0 0 1 .168.403h.48a1.046 1.046 0 1 0-2.096 0 1.046 1.046 0 1 0 2.096 0h-.24"/><path fill="#BA8E2D" d="M1214.988 1124.27l.01-.04v-.016l.005-.025v-.07l.098-.004-.033-.166-.092.034-.04-.083-.025-.038-.03-.034.074-.068-.132-.108-.05.083-.042-.02-.045-.014-.043-.013-.05-.01.01-.098-.17.003.014.1-.126.043-.046.024-.052-.083-.127.112.073.063-.088.166-.094-.035-.024.17h.098l.005.05.02.092.015.044-.09.04.09.147.072-.064.034.034.035.03.08.05-.046.087.163.054.014-.1.04.006h.044l.054-.005h.005l.05-.01.017.098.157-.063-.05-.084.04-.024.034-.028.035-.035.03-.034.078.057.084-.15-.088-.03z"/><path d="M1220.06 1122.827h-.353v.165h.353v-.165zm-.518 0h-.353v.165h.352v-.165zm-.518 0h-.353v.165h.354v-.165zm-.517 0h-.353v.165h.353v-.165zm-.518 0h-.354v.165h.353v-.165zm-.518 0h-.353v.165h.352v-.165zm-.518 0h-.353v.165h.354v-.165zm-.516 0h-.354v.165h.354v-.165zm-.518 0h-.354v.165h.354v-.165zm-.518 0h-.353v.165h.352v-.165zm-.517 0h-.353v.165h.353v-.165zm-.535.008c-.134.015-.265.05-.388.104l.066.15.06-.024.004-.002h.002l.005-.002h.002v-.002h.004l.003-.002h.003v-.002h.005l.003-.002h.004l.244-.055-.018-.165zm-.555.19a1.34 1.34 0 0 0-.304.264l.126.105c.076-.09.166-.166.267-.23l-.088-.14zm-.416.415a1.285 1.285 0 0 0-.16.368l.158.042.01-.032v-.006l.002-.002v-.006l.002-.003v-.002l.002-.002v-.005h.002v-.004l.002-.002v-.003l.002-.003v-.004h.002v-.004l.002-.003v-.003l.003-.005v-.003l.002-.002V1123.742h.002l.002-.005v-.005l.002-.002v-.003l.002-.002v-.003l.002-.002v-.003l.002-.003v-.002l.002-.003v-.002l.002-.003v-.004h.002v-.004h.002v-.003l.002-.003v-.002l.002-.003v-.002h.002v-.003l.002-.003v-.003l.002-.003v-.003h.002v-.004h.002v-.002l.002-.003.002-.004.002-.005h.002v-.004l.002-.003.002-.005.003-.005v-.004h.002v-.002l.002-.003v-.002l.004-.004v-.003l.002-.002.002-.002v-.002l.002-.003v-.002h.002v-.002l.002-.002v-.002h.002v-.003h.002v-.004h.002v-.002l.002-.003.002-.002.003-.005.004-.005v-.003l.027-.043-.14-.082zm-.196.553l-.01.152.024.25.162-.032-.014-.093v-.008l-.002-.014v-.014h-.002V1124.205l-.002-.002V1124.115l.007-.108-.163-.015zm.22.53l-.157.053a1.3 1.3 0 0 0 .188.355l.132-.098-.006-.008-.002-.004-.003-.005-.002-.002v-.002h-.002v-.004h-.002v-.002h-.002v-.002l-.002-.002v-.002h-.002v-.002l-.003-.003-.002-.002h-.002v-.004l-.003-.002-.002-.003-.002-.003v-.002l-.003-.003-.003-.004v-.003l-.003-.002-.002-.003-.115-.238zm.27.434l-.116.116c.096.096.204.177.323.24l.077-.147a1.135 1.135 0 0 1-.282-.21zm.434.275l-.055.155c.126.045.26.07.395.074l.005-.164-.2-.024h-.008l-.004-.002h-.005l-.002-.002h-.004l-.002-.002h-.008v-.002h-.008l-.102-.032zm.863.066h-.352v.165h.353v-.165zm.518 0h-.353v.165h.353v-.165zm.518 0h-.353v.165h.353v-.165zm.517 0h-.353v.165h.353v-.165zm.518 0h-.352v.165h.353v-.165zm.52 0h-.354v.165h.353v-.165zm.516 0h-.353v.165h.353v-.165zm.518 0h-.354v.165h.354v-.165zm.517 0h-.353v.165h.354v-.165zm.518 0h-.353v.165h.353v-.165zm.518-.003h-.007l-.062.003H1219.79v.165h.267l.098-.004-.012-.165zm.49-.15l-.022.012h-.002l-.002.002h-.002l-.003.002h-.002l-.002.002h-.002v.002h-.003l-.002.002h-.002v.002h-.002l-.002.002-.008.004-.12.052-.006.002h-.002l-.003.002h-.002l-.005.003h-.004l-.002.002h-.003v.002h-.008l-.002.002h-.006v.002h-.003l-.004.002-.1.026.036.16a1.3 1.3 0 0 0 .375-.145l-.08-.143zm.376-.35l-.01.012-.002.004-.003.006-.002.002v.002l-.002.002-.002.002v.002l-.002.002-.002.002v.003h-.002v.002l-.003.002v.002l-.002.002-.004.004v.003h-.002l-.003.003-.198.2.102.128c.105-.082.198-.18.274-.292l-.136-.094zm.187-.48l-.037.163-.002.006v.007l-.002.002v.003l-.002.003v.002l-.002.003v.005h-.002v.005l-.002.003v.005h-.002v.005h-.002v.003l-.002.005v.003l-.002.002v.003l-.002.003v.003h-.002v.004l-.002.002v.004h-.002v.005l-.002.002v.002l-.002.002v.002l-.002.002v.002l-.002.003v.004l-.002.002v.003h-.002v.004l-.002.003v.002l-.002.002v.003h-.002l-.002.005-.002.005-.02.04.15.072c.058-.122.1-.25.118-.384l-.16-.027zm.118-.56l-.157.05c.034.107.052.222.052.34v.008h.165v-.007c0-.133-.02-.264-.06-.39zm-.294-.507l-.12.112.003.004.002.002v.002l.003.002v.002h.002v.002h.002l.002.003.102.134.003.005.002.003v.002l.002.002v.002l.002.002v.002h.002v.002l.002.003.002.002v.003h.002v.002l.062.112.15-.07a1.354 1.354 0 0 0-.228-.334zm-.484-.33l-.06.153.056.024.005.003.006.002h.004l.003.003h.003l.002.002h.002l.002.002h.002l.002.002h.005v.002h.002l.002.002h.003v.002h.002l.002.002h.002l.002.002h.003l.002.002h.003v.002h.002l.003.002h.002l.003.003h.005v.002h.003v.002h.002l.003.002.004.002.013.007.15.104.104-.13a1.332 1.332 0 0 0-.35-.202zm-.48-.09v.164H1220.116l.007.002H1220.147l.013.002h.003l.128.02h.01l.004.002h.006l.002.002h.007v.002h.005l.04-.16a1.32 1.32 0 0 0-.305-.035zM1224.78 1120.6h-.107a1.73 1.73 0 0 1-3.458 0 1.732 1.732 0 0 1 1.73-1.728 1.73 1.73 0 0 1 1.728 1.73h.21-.105z"/><circle cx="1222.999" cy="1120.594" r=".329"/><path d="M1224.658 1120.03l-3.51.995.052.182 3.51-.994"/><path d="M1222.3 1118.868l1.163 3.457.178-.06-1.162-3.457"/><path d="M1224.72 1120.964l-3.53-.92-.047.183 3.53.92"/><path d="M1223.387 1118.79l-.966 3.517.183.05.965-3.516"/><path d="M1224.36 1121.71l-2.724-2.423-.125.14 2.726 2.424"/><path d="M1224.24 1119.24l-2.608 2.55.132.134 2.606-2.55M1222.372 1123.776h.33v1.506h-.33z"/><path fill="#BA8E2D" d="M1222.185 1125.22h.674v.187h-.675zM1222.255 1122.718h.533v1.37h-.533z"/><path d="M1212.58 1123.88h.328v1.41h-.328z"/><path fill="#BA8E2D" d="M1212.39 1125.227h.675v.188h-.674zM1212.46 1122.71h.535v1.317h-.534z"/><path fill="#BA8E2D" d="M1214.94 1122.71h4.594s1.02-.11 1.466.306c.532.494.48.808.48.808l2.327.016v-1.145h-.91c-.204 0-1.034-.126-1.528-.596-.44-.418-.55-1.193-.55-1.193h-6.995l-.768-1.6-1.285-.015v2.022h.47l.126.22v2.273h.753s-.046-.313.393-.77c.42-.433 1.426-.327 1.426-.327z"/><path fill="#BA8E2D" d="M1211.81 1123.572l-1.5-.4.7-2.636 1.5.4z"/><path fill="#BA8E2D" d="M1212.098 1117.12l.548.147-1.697 6.388-.55-.145z"/><path fill="#BA8E2D" d="M1208.707 1122.84l2.705.72-.102.385-2.706-.72zM1210.847 1121.425h.282v.824h-.283z"/><path fill="#BA8E2D" d="M1210.31 1120.43l.3.078-1.37 5.187-.3-.08z"/><path fill="#BA8E2D" d="M1210.313 1122.345l-.75-.198.287-1.09.75.198z"/><path fill="#BA8E2D" d="M1210.403 1121.88l-.223.842-.5-.133.224-.842zM1218.773 1124.13c0 .52-.394.94-.88.94h-1.204c-.487 0-.882-.422-.882-.94s.395-.94.88-.94h1.206c.486-.002.88.42.88.94zM1212.328 1120.07h8.374v.356h-8.374z"/></svg>