<?xml version="1.0" encoding="iso-8859-1"?>
<!-- Generator: Adobe Illustrator 16.0.4, SVG Export Plug-In . SVG Version: 6.00 Build 0)  -->
<!DOCTYPE svg PUBLIC "-//W3C//DTD SVG 1.1//EN" "http://www.w3.org/Graphics/SVG/1.1/DTD/svg11.dtd">
<svg version="1.1" xmlns="http://www.w3.org/2000/svg" xmlns:xlink="http://www.w3.org/1999/xlink" x="0px" y="0px" width="1366px"
	 height="700px" viewBox="0 0 1366 700" style="enable-background:new 0 0 1366 700;" xml:space="preserve">
<g id="In_The_Hole_Drill_Parts">
	<g>
		<path d="M991.926,457.518h-0.238c0,0.158-0.062,0.299-0.166,0.402c-0.104,0.104-0.245,0.166-0.402,0.166s-0.298-0.062-0.401-0.166
			s-0.167-0.244-0.167-0.402c0-0.157,0.063-0.299,0.167-0.401c0.104-0.104,0.244-0.166,0.401-0.166s0.299,0.062,0.402,0.166
			c0.103,0.104,0.166,0.244,0.166,0.401h0.479c0-0.289-0.117-0.552-0.308-0.741c-0.188-0.188-0.452-0.307-0.74-0.307
			c-0.287,0-0.553,0.117-0.74,0.307c-0.188,0.189-0.308,0.452-0.308,0.741c0,0.288,0.117,0.553,0.308,0.741
			c0.188,0.188,0.453,0.307,0.74,0.307c0.288,0,0.552-0.117,0.74-0.307c0.188-0.188,0.308-0.453,0.308-0.741H991.926"/>
		<polygon style="fill:#BA8E2D;" points="991.57,457.64 991.581,457.6 991.581,457.585 991.586,457.561 991.586,457.492 
			991.686,457.486 991.65,457.322 991.558,457.354 991.52,457.272 991.493,457.233 991.464,457.199 991.537,457.131 
			991.406,457.023 991.355,457.106 991.312,457.087 991.27,457.072 991.225,457.058 991.176,457.048 991.186,456.949 
			991.015,456.955 991.029,457.052 990.902,457.097 990.857,457.121 990.805,457.038 990.678,457.15 990.751,457.214 
			990.663,457.379 990.57,457.346 990.545,457.517 990.645,457.517 990.648,457.565 990.668,457.658 990.683,457.703 
			990.594,457.74 990.683,457.888 990.756,457.824 990.789,457.858 990.822,457.888 990.902,457.938 990.857,458.025 
			991.02,458.079 991.034,457.981 991.072,457.986 991.117,457.986 991.171,457.981 991.176,457.981 991.225,457.971 
			991.243,458.068 991.401,458.006 991.354,457.922 991.391,457.898 991.425,457.867 991.46,457.835 991.488,457.801 
			991.566,457.858 991.65,457.707 991.562,457.679 		"/>
		<path d="M986.477,457.533h-0.237c-0.002,0.157-0.063,0.298-0.168,0.399c-0.104,0.104-0.243,0.167-0.4,0.167
			c-0.158,0-0.299-0.062-0.403-0.167c-0.103-0.104-0.166-0.242-0.166-0.399s0.063-0.3,0.166-0.402
			c0.104-0.104,0.245-0.166,0.403-0.166c0.157,0,0.298,0.062,0.4,0.166c0.104,0.104,0.166,0.245,0.168,0.402h0.479
			c0-0.288-0.116-0.555-0.307-0.741c-0.189-0.189-0.452-0.308-0.74-0.308c-0.289,0-0.553,0.116-0.741,0.308
			c-0.188,0.188-0.308,0.453-0.308,0.741c0,0.287,0.118,0.552,0.308,0.739c0.188,0.188,0.452,0.309,0.741,0.309
			c0.288,0,0.551-0.118,0.74-0.309c0.188-0.188,0.307-0.452,0.307-0.739H986.477"/>
		<polygon style="fill:#BA8E2D;" points="986.122,457.656 986.132,457.615 986.132,457.601 986.137,457.576 986.137,457.508 
			986.234,457.503 986.201,457.337 986.107,457.371 986.07,457.288 986.044,457.249 986.015,457.215 986.088,457.146 
			985.956,457.039 985.906,457.122 985.863,457.102 985.818,457.088 985.775,457.074 985.727,457.062 985.736,456.966 
			985.564,456.97 985.58,457.068 985.454,457.112 985.408,457.137 985.355,457.054 985.229,457.166 985.302,457.229 
			985.214,457.396 985.12,457.361 985.096,457.533 985.193,457.533 985.199,457.581 985.219,457.674 985.232,457.718 
			985.145,457.757 985.232,457.903 985.306,457.84 985.34,457.874 985.375,457.903 985.454,457.953 985.408,458.041 985.57,458.095 
			985.585,457.996 985.624,458.001 985.668,458.001 985.722,457.996 985.727,457.996 985.775,457.987 985.794,458.085 
			985.951,458.021 985.901,457.938 985.941,457.913 985.975,457.885 986.009,457.85 986.039,457.815 986.117,457.874 
			986.201,457.723 986.113,457.693 		"/>
		<path d="M991.193,456.214h-0.354v0.165h0.354V456.214z M990.676,456.214h-0.354v0.165h0.354V456.214z M990.158,456.214h-0.354
			v0.165h0.354V456.214z M989.641,456.214h-0.353v0.165h0.353V456.214z M989.123,456.214h-0.354v0.165h0.354V456.214z
			 M988.605,456.214h-0.354v0.165h0.354V456.214z M988.088,456.214h-0.354v0.165h0.354V456.214z M987.572,456.214h-0.354v0.165
			h0.354V456.214z M987.054,456.214H986.7v0.165h0.354V456.214z M986.536,456.214h-0.354v0.165h0.354V456.214z M986.02,456.214
			h-0.354v0.165h0.354V456.214z M985.482,456.222c-0.134,0.016-0.265,0.05-0.388,0.104l0.066,0.149l0.06-0.022v-0.002h0.004h0.002
			l0.006-0.002l0.002-0.002h0.002l0,0h0.002l0.002-0.002l0,0h0.002h0.002v-0.002h0.002h0.002h0.002v-0.003h0.002l0,0h0.002h0.002
			v-0.002h0.002l0.243-0.054L985.482,456.222z M984.929,456.413c-0.114,0.071-0.216,0.159-0.304,0.263l0.125,0.105
			c0.076-0.089,0.166-0.166,0.268-0.229L984.929,456.413z M984.513,456.826c-0.071,0.113-0.126,0.236-0.159,0.368l0.158,0.042
			l0.01-0.031v-0.004l0.002-0.003v-0.002v-0.001v-0.002v-0.001l0.002-0.003v-0.003l0.002-0.002v-0.001v-0.002v-0.001v-0.001
			l0.002-0.001v-0.002v-0.001v-0.002l0.002-0.001v-0.001v-0.002v-0.001v-0.002l0.002-0.001v-0.001v-0.002v-0.001v-0.001l0.002-0.002
			v-0.001v-0.002v-0.001l0.002-0.002v-0.001v-0.002l0.002-0.003l0.002-0.005v-0.003v-0.001l0.002-0.001v-0.001v-0.002v-0.001v-0.001
			l0.002-0.001v-0.002v-0.001l0.003-0.004v-0.001l0.001-0.003l0.001-0.003l0.001-0.004l0,0l0.001-0.002l0,0l0.001-0.002v-0.002
			h0.001v-0.002l0.001-0.002l0,0l0.001-0.002v-0.002h0.001v-0.002l0.001-0.002l0,0l0.001-0.002l0,0l0.001-0.002v-0.002h0.001v-0.002
			l0.001-0.003l0,0l0.001-0.002v-0.002h0.001l0.001-0.002v-0.002l0.001-0.002l0.001-0.002l0,0l0.001-0.002l0.001-0.002l0.001-0.002
			v-0.002h0.001l0.001-0.003l0.001-0.002l0.001-0.003l0.001-0.003l0.001-0.002l0.001-0.003h0.001v-0.003h0.001l0.001-0.003
			l0.001-0.002l0.001-0.003l0.002-0.005l0.002-0.002v-0.001l0.001-0.002l0.001-0.004l0.002-0.005l0.004-0.005v-0.002l0.002-0.003
			l0,0l0.002-0.003v-0.001v-0.002l0.002-0.002v-0.001l0.003-0.004l0.001-0.003l0.001-0.002l0.002-0.003l0.001-0.002l0.001-0.003
			l0.001-0.002h0.001v-0.002l0.001-0.001l0.001-0.002v-0.001l0.001-0.001l0.001-0.001l0.001-0.003v-0.001l0.001-0.001v-0.001
			l0.001-0.002l0.001-0.001v-0.001l0.001-0.001l0.001-0.002l0.001-0.002l0.001-0.001v-0.001l0.003-0.004v-0.002l0.003-0.004
			l0.001-0.003l0.025-0.043L984.513,456.826z M984.317,457.38l-0.009,0.151l0.022,0.25l0.162-0.031l-0.015-0.094v-0.004
			l-0.002-0.001v-0.001v-0.001v-0.001v-0.015v-0.001v-0.001l-0.002-0.002v-0.002v-0.002v-0.001v-0.001v-0.001v-0.001v-0.001v-0.001
			v-0.001v-0.002v-0.001v-0.001v-0.007v-0.001v-0.001v-0.001v-0.001l-0.002-0.001v-0.001v-0.001v-0.001V457.6l0,0v-0.001v-0.001
			v-0.001v-0.001v-0.001v-0.001v-0.001v-0.001v-0.001v-0.001v-0.001v-0.006v-0.002v-0.001v-0.001v-0.001v-0.001v-0.001v-0.001
			v-0.001v-0.001v-0.001v-0.001v-0.001v-0.003v-0.001v-0.001v-0.001v-0.001v-0.001l-0.002-0.001v-0.001v-0.001v-0.003v-0.001v-0.001
			v-0.001v-0.001v-0.001v-0.001v-0.002v-0.002v-0.001v-0.001v-0.001v-0.001v-0.001v-0.001v-0.001v-0.001v-0.001v-0.001v-0.002
			v-0.002v-0.001v-0.001v-0.002v-0.002v-0.001v-0.001v-0.001v-0.001v-0.001v-0.001v-0.001v-0.001v-0.001v-0.002v-0.007l0,0v-0.002
			v-0.002v-0.002l0.009-0.108L984.317,457.38z M984.537,457.908l-0.156,0.055c0.044,0.127,0.107,0.247,0.188,0.354l0.133-0.1
			l-0.007-0.008l-0.004-0.004v-0.002l-0.002-0.004l-0.002-0.002v-0.001l-0.002-0.001v-0.001l-0.002-0.002l0,0v-0.002l-0.002-0.002
			v-0.001l-0.002-0.001v-0.001l-0.002-0.002v-0.002l-0.002-0.001v-0.001v-0.001l-0.003-0.002l-0.001-0.002l-0.001-0.001
			l-0.001-0.001v-0.001l-0.001-0.002l-0.002-0.002l-0.002-0.003l-0.001-0.002l-0.002-0.002v-0.001l-0.001-0.001v-0.001l-0.002-0.003
			l-0.003-0.004v-0.001l-0.001-0.002l-0.002-0.002l-0.001-0.003L984.537,457.908z M984.809,458.344l-0.116,0.116
			c0.097,0.096,0.204,0.177,0.322,0.239l0.076-0.146C984.986,458.498,984.891,458.428,984.809,458.344z M985.242,458.619
			l-0.057,0.154c0.127,0.045,0.26,0.068,0.396,0.073l0.005-0.165l-0.201-0.023h-0.005h-0.001h-0.001h-0.001l-0.003-0.002h-0.003
			h-0.001h-0.002l-0.002-0.002h-0.001h-0.001h-0.001h-0.002h-0.001l-0.001-0.002h-0.002h-0.002h-0.001h-0.001h-0.002l-0.001-0.002
			h-0.001h-0.001h-0.006L985.242,458.619z M986.104,458.685h-0.353v0.165h0.353V458.685z M986.622,458.685h-0.354v0.165h0.354
			V458.685z M987.14,458.685h-0.353v0.165h0.353V458.685z M987.656,458.685h-0.354v0.165h0.354V458.685z M988.175,458.685h-0.353
			v0.165h0.353V458.685z M988.692,458.685h-0.354v0.165h0.354V458.685z M989.21,458.685h-0.354v0.165h0.354V458.685z
			 M989.729,458.685h-0.354v0.165h0.354V458.685z M990.245,458.685h-0.354v0.165h0.354V458.685z M990.762,458.685h-0.354v0.165
			h0.354V458.685z M991.279,458.682h-0.003h-0.003l0,0h-0.002l-0.062,0.003h-0.003h-0.003h-0.002H991.2h-0.002h-0.001h-0.002h-0.001
			h-0.002h-0.269v0.165h0.269l0.099-0.004L991.279,458.682z M991.77,458.531l-0.021,0.013l-0.002,0.001l-0.002,0.001l-0.001,0.001
			h-0.001l-0.001,0.001l-0.002,0.001h-0.001l-0.001,0.001l-0.002,0.001h-0.001l-0.001,0.001h-0.001l-0.001,0.001l-0.002,0.001
			l-0.002,0.001l-0.002,0.001l-0.002,0.001l-0.002,0.002l-0.002,0.001l-0.008,0.004l-0.12,0.052l-0.007,0.002v0.001h-0.002
			l-0.003,0.001l-0.002,0.001h-0.001l-0.004,0.002h-0.001l-0.001,0.001h-0.002l-0.002,0.001l-0.003,0.001l-0.002,0.001h-0.001
			l-0.002,0.001h-0.002l0,0l-0.002,0.001l0,0l-0.002,0.001h-0.002l-0.002,0.001l0,0h-0.003v0.001l-0.003,0.001l-0.005,0.001
			l-0.1,0.026l0.035,0.161c0.133-0.029,0.259-0.078,0.375-0.146L991.77,458.531z M992.146,458.181l-0.01,0.014l-0.003,0.004
			l-0.003,0.006l-0.002,0.002l0,0l-0.001,0.002l-0.001,0.002h-0.001l-0.001,0.002l-0.001,0.002h-0.001l-0.001,0.002h-0.001
			l-0.001,0.002l0,0l-0.001,0.002h-0.001l-0.001,0.002l-0.002,0.003v0.002h-0.001l-0.001,0.002l-0.001,0.002h-0.001l-0.003,0.004
			v0.001l-0.001,0.002h-0.001l-0.001,0.002l-0.002,0.002l-0.197,0.198l0.103,0.129c0.104-0.082,0.197-0.182,0.273-0.293
			L992.146,458.181z M992.333,457.703l-0.036,0.162l-0.002,0.006l-0.001,0.002v0.001l-0.001,0.002v0.003l-0.001,0.002v0.001
			l-0.001,0.002l-0.001,0.003l-0.001,0.002v0.001l-0.001,0.003v0.001v0.001l-0.001,0.001v0.002l-0.001,0.001v0.002l-0.001,0.001
			v0.001v0.001l-0.001,0.002l-0.001,0.001v0.002v0.001l-0.001,0.001v0.002l-0.001,0.001v0.001l-0.001,0.001v0.002l-0.001,0.001
			l-0.001,0.004v0.001l-0.001,0.003v0.001l-0.001,0.001v0.001l-0.001,0.002v0.001l-0.001,0.002v0.001l-0.001,0.002v0.001
			l-0.001,0.001v0.001l-0.001,0.002v0.001l-0.001,0.001v0.002l-0.001,0.001v0.001l-0.001,0.001v0.002l-0.001,0.001v0.001
			l-0.001,0.002v0.001l-0.001,0.001v0.001l-0.001,0.003v0.001l-0.001,0.001l-0.001,0.002v0.001l-0.001,0.001v0.001l-0.001,0.002
			v0.001l-0.001,0.002l-0.001,0.002v0.001l-0.001,0.002l-0.001,0.002v0.001l-0.001,0.002v0.001l-0.001,0.002l-0.001,0.002v0.001
			l-0.001,0.003h-0.001v0.003h-0.001l-0.002,0.005l-0.002,0.005l-0.021,0.039l0.148,0.073c0.059-0.122,0.1-0.252,0.119-0.385
			L992.333,457.703z M992.452,457.143l-0.157,0.05c0.033,0.106,0.051,0.223,0.051,0.341v0.007l0.165,0.002v-0.002v-0.007
			C992.511,457.399,992.49,457.269,992.452,457.143z M992.158,456.635l-0.121,0.112l0.004,0.004l0.002,0.002l0.002,0.002
			l0.002,0.002v0.001l0.001,0.001l0.001,0.001l0.001,0.001l0.001,0.001l0.002,0.002v0.001l0.104,0.134l0.003,0.004l0.002,0.003
			l0.001,0.001v0.001l0.001,0.002l0.001,0.001l0.001,0.001l0.001,0.002l0.001,0.002l0.001,0.001l0.001,0.001v0.001l0.001,0.002
			h0.001l0.001,0.002v0.001l0.001,0.002h0.001l0.001,0.003l0.062,0.111l0.149-0.071C992.326,456.846,992.25,456.733,992.158,456.635
			z M991.674,456.305l-0.062,0.153l0.058,0.022l0.005,0.003l0.005,0.002l0.002,0.001h0.001l0.001,0.001h0.001l0.003,0.002l0,0
			l0.002,0.001l0.002,0.001h0.002v0.001l0.003,0.001h0.002v0.001l0.002,0.001h0.001l0.002,0.001l0.002,0.001h0.001l0.001,0.001
			l0.001,0.001l0.002,0.001h0.001l0.002,0.001h0.001l0.001,0.001l0.001,0.001h0.001l0.001,0.001l0.002,0.001h0.001l0.001,0.001
			h0.001l0.002,0.001l0.001,0.001h0.001l0.002,0.001l0.001,0.001h0.001l0.001,0.001l0.002,0.001h0.001l0.001,0.002h0.001
			l0.002,0.002h0.001l0.002,0.001l0.001,0.001h0.001l0.001,0.001l0.002,0.001l0.002,0.001l0,0l0.004,0.002l0.004,0.002h0.001
			l0.013,0.007l0.148,0.104l0.104-0.129C991.916,456.422,991.799,456.354,991.674,456.305z M991.193,456.214v0.165h0.002h0.001
			h0.001h0.001h0.001h0.001h0.001h0.001h0.001h0.001h0.001h0.001h0.005l0,0h0.002l0,0h0.002l0,0h0.002l0,0h0.002l0,0h0.002l0,0
			h0.002h0.002l0.002,0.001h0.002l0,0h0.002h0.002h0.002h0.003h0.007h0.002h0.002h0.002h0.002l0.007,0.001h0.002h0.001h0.001h0.001
			h0.001h0.001h0.001l0.009,0.001h0.002h0.003h0.002l0.013,0.001h0.002l0.128,0.02l0.002,0.001h0.001h0.001h0.001l0.001,0.001h0.001
			h0.002l0.004,0.001h0.002l0,0l0.002,0.001l0,0h0.002l0,0h0.003v0.001h0.002l0,0h0.002v0.001h0.002h0.002l0,0l0.002,0.001l0,0
			h0.002h0.002v0.001l0,0l0.038-0.159C991.396,456.226,991.295,456.214,991.193,456.214z"/>
		<path d="M995.913,453.987h-0.106c-0.001,0.954-0.771,1.729-1.728,1.729c-0.955-0.002-1.729-0.774-1.73-1.729
			c0.003-0.954,0.775-1.729,1.73-1.729c0.954,0.002,1.727,0.774,1.728,1.729H995.913h0.104c0-1.07-0.868-1.939-1.938-1.939
			c-1.072,0-1.941,0.869-1.942,1.939c0.001,1.07,0.87,1.939,1.942,1.939c1.07,0,1.938-0.869,1.938-1.939H995.913z"/>
		<circle cx="994.133" cy="453.98" r="0.329"/>
		<polyline points="995.792,453.418 992.283,454.412 992.334,454.594 995.843,453.6 		"/>
		<polyline points="993.434,452.255 994.597,455.712 994.773,455.651 993.611,452.194 		"/>
		<polyline points="995.854,454.351 992.322,453.432 992.276,453.613 995.806,454.533 		"/>
		<polyline points="994.521,452.177 993.555,455.693 993.736,455.742 994.702,452.228 		"/>
		<polyline points="995.495,455.097 992.77,452.674 992.645,452.814 995.37,455.237 		"/>
		<polyline points="995.373,452.626 992.766,455.176 992.896,455.311 995.504,452.761 		"/>
		<rect x="993.506" y="457.163" width="0.33" height="1.506"/>
		<rect x="993.318" y="458.605" style="fill:#BA8E2D;" width="0.674" height="0.188"/>
		<rect x="993.389" y="456.104" style="fill:#BA8E2D;" width="0.533" height="1.371"/>
		<rect x="983.714" y="457.266" width="0.328" height="1.411"/>
		<rect x="983.523" y="458.613" style="fill:#BA8E2D;" width="0.676" height="0.188"/>
		<rect x="983.595" y="456.097" style="fill:#BA8E2D;" width="0.534" height="1.317"/>
		<path style="fill:#BA8E2D;" d="M986.072,456.097h4.596c0,0,1.02-0.108,1.466,0.307c0.532,0.493,0.479,0.809,0.479,0.809
			l2.328,0.016v-1.145c0,0-0.705,0-0.909,0s-1.035-0.126-1.528-0.597c-0.438-0.417-0.548-1.191-0.548-1.191h-6.996l-0.769-1.6
			l-1.285-0.017v2.022h0.472l0.125,0.22v2.272h0.753c0,0-0.047-0.312,0.393-0.77C985.066,455.99,986.072,456.097,986.072,456.097z"
			/>
		
			<rect x="981.758" y="453.766" transform="matrix(-0.9812 -0.193 0.193 -0.9812 1858.694 1092.1431)" style="fill:#BA8E2D;" width="1.554" height="3.572"/>
		
			<rect x="982.523" y="448.191" transform="matrix(0.9815 0.1915 -0.1915 0.9815 104.9647 -179.7921)" style="fill:#BA8E2D;" width="0.566" height="10.092"/>
		
			<rect x="979.463" y="457.983" transform="matrix(0.9813 0.1926 -0.1926 0.9813 106.6268 -180.3582)" style="fill:#BA8E2D;" width="2.799" height="0.4"/>
		<rect x="981.98" y="454.812" style="fill:#BA8E2D;" width="0.281" height="0.823"/>
		
			<rect x="981.427" y="448.472" transform="matrix(0.9826 0.1858 -0.1858 0.9826 101.36 -174.4897)" style="fill:#BA8E2D;" width="0.31" height="10.076"/>
		
			<rect x="982.098" y="448.496" transform="matrix(-0.9816 -0.191 0.191 -0.9816 1861.0916 1077.5389)" style="fill:#BA8E2D;" width="0.777" height="1.126"/>
		
			<rect x="982.005" y="449.262" transform="matrix(-0.191 0.9816 -0.9816 -0.191 1611.2981 -429.0006)" style="fill:#BA8E2D;" width="0.874" height="0.519"/>
		<path style="fill:#BA8E2D;" d="M989.906,457.516c0,0.521-0.395,0.941-0.879,0.941h-1.205c-0.485,0-0.881-0.422-0.881-0.941
			c0-0.519,0.396-0.938,0.881-0.938h1.205C989.514,456.574,989.906,456.996,989.906,457.516z"/>
		<rect x="983.462" y="453.457" style="fill:#BA8E2D;" width="8.374" height="0.355"/>
	</g>
</g>
<g id="Layer_1">
</g>
</svg>
