<svg xmlns="http://www.w3.org/2000/svg" width="1366" height="700" viewBox="0 0 1366 700"><path d="M991.926 457.518h-.238a.564.564 0 0 1-.568.568.57.57 0 0 1-.568-.568c0-.157.063-.3.167-.4.103-.105.243-.167.4-.167s.3.063.402.167a.565.565 0 0 1 .166.4h.48c0-.288-.118-.55-.31-.74a1.05 1.05 0 0 0-1.48 0c-.187.19-.307.452-.307.74a1.05 1.05 0 0 0 1.048 1.048 1.052 1.052 0 0 0 1.048-1.048h-.24"/><path fill="#ba8e2d" d="M991.57 457.64l.01-.04v-.015l.006-.024v-.068l.1-.006-.036-.164-.092.032-.038-.082-.027-.04-.03-.033.074-.07-.13-.107-.052.083-.043-.02-.042-.014-.045-.014-.05-.01.01-.1-.17.007.014.097-.128.045-.045.024-.052-.082-.127.112.073.064-.087.165-.093-.034-.025.17h.1l.003.05.02.092.015.045-.09.037.09.148.073-.064.033.034.032.03.08.05-.045.087.163.054.014-.1.038.006h.045l.054-.005h.006l.05-.01.017.098.158-.062-.046-.084.037-.024.035-.03.035-.033.028-.034.078.058.084-.15-.088-.03z"/><path d="M986.477 457.533h-.237a.557.557 0 0 1-.168.4.56.56 0 0 1-.4.166.56.56 0 0 1-.403-.168.564.564 0 0 1 .403-.967.574.574 0 0 1 .568.568h.478c0-.287-.117-.554-.308-.74a1.047 1.047 0 1 0-1.48 1.48 1.04 1.04 0 0 0 1.48 0c.188-.188.307-.452.307-.74h-.243"/><path fill="#ba8e2d" d="M986.122 457.656l.01-.04v-.015l.005-.024v-.068l.097-.005-.033-.166-.093.034-.037-.082-.026-.04-.03-.033.074-.07-.132-.106-.05.082-.043-.02-.045-.014-.043-.014-.048-.012.01-.096-.173.004.016.098-.126.044-.046.025-.053-.083-.126.112.072.063-.088.166-.094-.035-.024.173h.097l.006.048.02.094.012.044-.087.04.087.145.074-.063.034.034.035.03.08.05-.047.087.162.055.015-.1.04.006h.043l.054-.004h.005l.048-.01.02.1.156-.065-.05-.082.04-.025.035-.028.034-.035.03-.035.077.06.084-.152-.087-.03z"/><path d="M991.193 456.214h-.354v.165h.353v-.166zm-.517 0h-.354v.165h.354v-.166zm-.518 0h-.354v.165h.354v-.166zm-.517 0h-.352v.165h.353v-.166zm-.517 0h-.354v.165h.353v-.166zm-.518 0h-.354v.165h.355v-.166zm-.517 0h-.354v.165h.354v-.166zm-.516 0h-.354v.165h.354v-.166zm-.518 0h-.354v.165h.354v-.166zm-.518 0h-.354v.165h.354v-.166zm-.516 0h-.354v.165h.354v-.166zm-.538.008c-.134.016-.265.05-.388.104l.066.15.06-.023v-.002h.012l.002-.003h.004l.002-.002h.004v-.002h.006v-.003h.006v-.002h.002l.243-.054-.018-.162zm-.553.19a1.29 1.29 0 0 0-.305.264l.125.105c.076-.088.166-.165.268-.228l-.09-.14zm-.417.414a1.27 1.27 0 0 0-.16.368l.16.042.01-.03v-.012l.003-.004v-.004l.002-.002v-.003l.002-.002v-.005h.002v-.006h.002v-.006l.002-.002v-.003l.002-.003v-.003l.002-.004.002-.005v-.002l.002-.002v-.005h.002v-.002l.003-.005v-.008l.002-.004v-.002l.002-.002v-.004l.002-.002v-.004h.002v-.004l.002-.002v-.004h.002v-.005l.002-.002.002-.003v-.004l.002-.002.002-.003v-.004h.002v-.003l.002-.002v-.003l.002-.003v-.002l.002-.003v-.003h.002v-.003h.002v-.004l.003-.005h.002v-.004l.002-.004v-.005l.005-.005v-.002l.002-.003.002-.003v-.005l.004-.004v-.003h.002l.002-.004v-.002l.002-.003h.002v-.003l.002-.003v-.002h.002v-.004l.002-.002v-.003h.002v-.002l.002-.002v-.002h.002v-.002l.003-.004v-.002l.003-.004v-.003l.026-.042-.143-.072zm-.196.554l-.01.15.023.25.162-.03-.015-.094v-.004h-.002V457.63h-.002V457.603h-.002V457.504l.008-.108-.16-.014zm.22.528l-.156.055c.045.127.108.247.19.354l.132-.1-.007-.008-.004-.005v-.006l-.003-.003-.002-.002-.002-.003v-.002l-.002-.002v-.002l-.003-.003v-.002h-.002v-.002l-.003-.002v-.002h-.002v-.002l-.002-.003-.002-.003-.002-.003v-.002l-.003-.002v-.002l-.002-.004-.003-.004v-.003l-.003-.002v-.003l-.115-.234zm.272.436l-.117.116c.097.096.204.177.322.24l.076-.147a1.117 1.117 0 0 1-.28-.21zm.432.275l-.057.153c.127.045.26.068.396.073l.006-.165-.2-.022h-.008l-.004-.002h-.005l-.002-.002h-.005v-.002H985.35v-.002h-.008l-.1-.03zm.862.065h-.353v.165h.354v-.165zm.518 0h-.354v.165h.354v-.165zm.518 0h-.353v.165h.353v-.165zm.516 0h-.354v.165h.354v-.165zm.52 0h-.354v.165h.353v-.165zm.516 0h-.354v.165h.354v-.165zm.518 0h-.354v.165h.354v-.165zm.52 0h-.355v.165h.354v-.165zm.515 0h-.354v.165h.355v-.165zm.517 0h-.354v.165h.354v-.165zm.517-.003H991.27l-.06.003H990.922v.165h.27l.1-.004-.013-.164zm.49-.15l-.02.012h-.003l-.002.002h-.002v.002h-.003l-.002.002h-.002l-.002.002h-.002l-.002.002h-.002l-.002.002h-.002l-.002.003h-.002l-.008.004-.12.052-.007.002h-.002l-.003.002h-.002l-.005.003h-.002l-.003.002h-.003l-.002.002h-.006l-.002.002h-.008v.002h-.003l-.005.002-.1.026.035.16c.133-.028.26-.077.375-.145l-.078-.144zm.376-.35l-.01.013-.003.004-.003.005-.002.002v.002h-.002l-.002.003v.002h-.002v.002h-.002v.002h-.002l-.002.003-.002.003v.002l-.002.002v.002h-.002l-.003.004v.003h-.002l-.003.003-.197.198.103.13c.104-.082.197-.182.273-.293l-.134-.096zm.187-.48l-.036.163-.002.006v.003l-.002.003v.005l-.002.002v.005l-.002.003v.005h-.002v.007l-.002.002v.003h-.002v.005h-.002v.003l-.002.005v.004l-.002.002v.002l-.002.003v.003l-.002.002v.003l-.002.002v.004h-.002v.004l-.002.002v.002l-.002.004v.002l-.002.002v.002l-.002.003v.004l-.002.002v.003h-.002v.004l-.002.003v.002l-.002.003v.003h-.002l-.002.005-.002.006-.02.04.147.072c.06-.122.1-.252.12-.385l-.16-.03zm.12-.56l-.158.05c.033.107.05.224.05.342v.007l.166.003v-.008c0-.135-.02-.265-.058-.39zm-.295-.507l-.12.112.003.004.003.003.002.002.002.002v.002h.002v.002l.003.002.104.135.003.003.002.003v.002l.002.002.002.002v.002l.002.002.002.002v.003h.002v.003l.002.003.002.003.062.11.15-.07a1.384 1.384 0 0 0-.23-.335zm-.484-.33l-.062.153.058.022.005.003.005.002h.002l.002.002.004.002h.006v.002h.005v.002h.002l.002.002h.002l.002.002.003.002h.004l.002.002h.002v.002h.005v.002h.004v.002h.004v.002h.002l.003.002.002.002.003.002h.003v.002h.002l.003.002h.002l.004.003.004.002.014.007.148.104.104-.13a1.38 1.38 0 0 0-.35-.2zm-.48-.09v.164H991.267l.01.002H991.3l.127.02.002.002h.006l.004.002H991.45v.002h.007l.002.002h.003l.038-.158a1.267 1.267 0 0 0-.307-.038zM995.913 453.987h-.106.21-.104z"/><circle cx="994.133" cy="453.98" r=".329"/><path d="M995.792 453.418l-3.51.994.052.182 3.51-.994"/><path d="M993.434 452.255l1.163 3.457.176-.06-1.162-3.458"/><path d="M995.854 454.35l-3.532-.918-.046.18 3.53.92"/><path d="M994.52 452.177l-.965 3.516.18.05.967-3.515"/><path d="M995.495 455.097l-2.725-2.423-.125.14 2.725 2.423"/><path d="M995.373 452.626l-2.607 2.55.13.135 2.608-2.55M993.506 457.163h.33v1.506h-.33z"/><path fill="#ba8e2d" d="M993.318 458.605h.674v.188h-.674zM993.39 456.104h.532v1.37h-.533z"/><path d="M983.714 457.266h.328v1.41h-.328z"/><path fill="#ba8e2d" d="M983.523 458.613h.676v.188h-.677zM983.595 456.097h.534v1.317h-.535z"/><path d="M986.072 456.097h4.596s1.02-.108 1.466.307c.532.493.48.81.48.81l2.327.015v-1.146h-.908c-.204 0-1.035-.126-1.528-.597-.438-.417-.548-1.19-.548-1.19h-6.996l-.77-1.6-1.284-.018v2.02h.472l.125.22v2.273h.753s-.047-.312.393-.77c.416-.433 1.422-.326 1.422-.326z" fill="#ba8e2d"/><path fill="#ba8e2d" d="M982.97 457.43l-1.525-.3.69-3.506 1.524.3z"/><path fill="#ba8e2d" d="M983.482 448.26l.556.11-1.933 9.904-.555-.108z"/><path fill="#ba8e2d" d="M979.566 457.705l2.747.54-.077.392-2.747-.54zM981.98 454.812h.28v.823h-.28z"/><path fill="#ba8e2d" d="M982.384 448.528l.305.058-1.873 9.9-.305-.057z"/><path fill="#ba8e2d" d="M982.727 449.715l-.763-.15.215-1.104.762.15z"/><path fill="#ba8e2d" d="M982.74 449.126l-.167.858-.51-.1.167-.857zM989.906 457.516c0 .52-.395.94-.88.94h-1.204c-.485 0-.88-.42-.88-.94s.395-.938.88-.938h1.205c.487-.004.88.418.88.938zM983.462 453.457h8.374v.355h-8.374z"/></svg>