<svg xmlns="http://www.w3.org/2000/svg" width="1366" height="700" viewBox="0 0 1366 700"><path d="M978.257 667.24h12.84v.307l-13.49.005v-.795l.306-.004v.302h.173v.108h.174z"/><path fill="#ba8e2d" d="M977.605 667.404l2.75.002v.107h1.822v.11h2.3v-.105h-.466v-.192h.383l.237-.22h.312v.11h.656v-.1h.144v-.186h.102v.19l.365.49h2.52v.304h-2.292v.28h-.176l-.387-.247h-1.22l-.134.13h-.425l-.113-.112h-4.232l-.58.364h-.175v-.54h-1.39zM991.072 666.615v.99h.082l.084-.373v-.617z"/><path d="M991.23 666.79h.18v.474h-.18z"/></svg>