<?xml version="1.0" encoding="iso-8859-1"?>
<!-- Generator: Adobe Illustrator 16.0.4, SVG Export Plug-In . SVG Version: 6.00 Build 0)  -->
<!DOCTYPE svg PUBLIC "-//W3C//DTD SVG 1.1//EN" "http://www.w3.org/Graphics/SVG/1.1/DTD/svg11.dtd">
<svg version="1.1" xmlns="http://www.w3.org/2000/svg" xmlns:xlink="http://www.w3.org/1999/xlink" x="0px" y="0px" width="1366px"
	 height="700px" viewBox="0 0 1366 700" style="enable-background:new 0 0 1366 700;" xml:space="preserve">
<g id="Jumbo_Drill_Top_Body">
	<polygon style="fill:#BA8E2D;" points="981.146,663.715 981.326,663.901 981.3,664.08 980.666,663.723 	"/>
	<polygon points="981.326,663.901 984.873,663.903 984.874,664.08 984.705,664.08 984.586,664.281 984.236,664.281 984.197,664.08 
		981.3,664.08 	"/>
	<polygon points="978.049,663.72 978.049,663.531 977.831,663.531 977.831,662.876 978.152,662.876 978.152,663.173 
		978.318,663.173 978.318,663.281 978.499,663.281 978.499,663.328 978.626,663.328 986.447,663.328 986.447,663.197 
		986.667,663.197 986.669,663.322 991.244,663.322 991.244,662.918 991.468,662.918 991.468,663.007 991.615,663.007 
		991.615,663.406 991.449,663.406 991.449,663.536 991.34,663.536 991.34,663.742 991.166,663.742 991.166,663.815 	"/>
	<polygon style="fill:#BA8E2D;" points="984.872,664.151 986.023,664.151 986.686,664.472 986.686,664.097 988.984,664.106 
		988.988,663.899 986.016,663.893 986.014,663.781 984.874,663.771 	"/>
</g>
<g id="Layer_1">
</g>
</svg>
