<?xml version="1.0" encoding="iso-8859-1"?>
<!-- Generator: Adobe Illustrator 16.0.4, SVG Export Plug-In . SVG Version: 6.00 Build 0)  -->
<!DOCTYPE svg PUBLIC "-//W3C//DTD SVG 1.1//EN" "http://www.w3.org/Graphics/SVG/1.1/DTD/svg11.dtd">
<svg version="1.1" xmlns="http://www.w3.org/2000/svg" xmlns:xlink="http://www.w3.org/1999/xlink" x="0px" y="0px" width="1366px"
	 height="700px" viewBox="0 0 1366 700" style="enable-background:new 0 0 1366 700;" xml:space="preserve">
<g id="Jumbo_Drill_Body">
	<path d="M976.413,668.916h-0.286c-0.001,0.188-0.074,0.354-0.198,0.479c-0.123,0.123-0.291,0.197-0.479,0.197
		c-0.188,0-0.354-0.074-0.479-0.197c-0.123-0.125-0.197-0.291-0.197-0.479s0.074-0.355,0.197-0.479
		c0.124-0.123,0.291-0.198,0.479-0.198c0.188,0,0.355,0.075,0.479,0.198c0.124,0.123,0.197,0.291,0.198,0.479h0.569
		c0-0.344-0.141-0.657-0.364-0.883c-0.227-0.227-0.539-0.365-0.884-0.365c-0.343,0-0.655,0.141-0.882,0.365
		c-0.227,0.226-0.365,0.538-0.365,0.883c0,0.344,0.141,0.656,0.365,0.883c0.227,0.226,0.539,0.365,0.882,0.364
		c0.345,0.001,0.657-0.141,0.884-0.364c0.226-0.226,0.364-0.539,0.364-0.883H976.413"/>
	<path d="M968.119,668.928h-0.287c0,0.188-0.074,0.355-0.196,0.479c-0.124,0.123-0.292,0.196-0.479,0.196
		c-0.188,0-0.355-0.073-0.479-0.196c-0.123-0.123-0.197-0.291-0.197-0.479c0-0.188,0.074-0.354,0.197-0.479s0.291-0.198,0.479-0.198
		c0.188,0,0.354,0.075,0.479,0.198c0.123,0.123,0.196,0.291,0.196,0.479h0.57c0-0.344-0.141-0.656-0.363-0.883
		c-0.227-0.226-0.54-0.365-0.885-0.365c-0.344,0-0.655,0.142-0.883,0.365c-0.225,0.227-0.365,0.539-0.365,0.883
		s0.143,0.657,0.365,0.883c0.228,0.227,0.539,0.365,0.883,0.364c0.345,0.001,0.656-0.14,0.885-0.364
		c0.225-0.226,0.363-0.539,0.363-0.883H968.119"/>
	<path style="fill:#BA8E2D;" d="M974.139,669.399c0,0-0.07-0.135-0.07-0.519c0-0.383,0.24-0.784,0.24-0.784l-0.649,0.579h-1.854
		v-4.369h0.09v-0.097h2.033v0.274l0.293,0.144h0.133v-0.598h-4.102v0.188h1.018l0.125,0.08v1.488h-0.268v-0.125h-0.98v0.062
		l0.195,0.071v2.086h1.026v0.456h-0.83l-0.33-0.34h-0.124v-2.142l-0.25-0.125h-0.401l-0.169,0.101h-0.767v0.105h-0.329v-0.643
		h-2.498v1.062h-0.489c0,0-0.349-0.554-1.267-0.554c-0.919,0-1.569,0.91-1.569,1.393h-0.274v0.307h0.054v0.22l-0.273,0.38h0.126
		l0.138-0.207v0.597h-0.264v0.101h0.249v0.16h-0.234v0.112h0.229v0.07h2.142l0.416,0.256l1.058-0.002c0,0-0.152-1.674,1.439-1.674
		c1.612,0,1.442,1.674,1.442,1.674h0.867l1.04,0.206L974.139,669.399z"/>
	<path d="M977.379,668.58l-0.45-0.006l-0.165-0.214c0,0,0.042-0.056,0.042-0.481c0-0.428-0.125-0.499-0.125-0.499l0.241,0.107
		l0.01-0.188l0.438,0.009L977.379,668.58z"/>
	<path style="fill:#BA8E2D;" d="M975.629,665.971v-0.076h-0.384v-0.169h-0.161v0.176h-0.195l-0.389,0.758v1.257
		c0,0,0.344-0.304,0.674-0.354c0.362-0.054,0.539,0.021,0.539,0.021l-0.005-0.495l0.236-0.315h0.97l0.008,1.497h0.457v-2.302
		L975.629,665.971z"/>
	<path style="fill:#BA8E2D;" d="M977.254,666.104l3.002-1.01l0.152,0.022l1.818-0.516l0.016-0.104l0.188-0.046l0.062,0.069
		l1.57-0.488c0,0,0.135-0.044,0.178,0.065c0.055,0.136-0.1,0.192-0.1,0.192l-1.554,0.55l-0.016,0.105l-0.171,0.048l-0.108-0.063
		l-1.774,0.586l-0.023,0.095l-0.466,0.137l-0.44,0.548l-0.326-0.062L979.14,666l-1.728,0.559c0,0-0.214,0.041-0.282-0.16
		C977.061,666.194,977.254,666.104,977.254,666.104z"/>
	<polygon style="fill:#BA8E2D;" points="975.994,669.066 976.007,669.021 976.007,669.002 976.012,668.974 976.012,668.892 
		976.128,668.886 976.087,668.688 975.977,668.729 975.931,668.63 975.901,668.583 975.865,668.543 975.953,668.462 
		975.796,668.332 975.738,668.432 975.688,668.408 975.634,668.392 975.581,668.373 975.523,668.362 975.535,668.246 
		975.331,668.251 975.348,668.367 975.197,668.42 975.146,668.449 975.081,668.352 974.929,668.484 975.018,668.561 
		974.911,668.758 974.802,668.718 974.771,668.921 974.888,668.921 974.895,668.979 974.917,669.091 974.936,669.143 
		974.83,669.189 974.936,669.363 975.021,669.288 975.062,669.329 975.104,669.363 975.197,669.422 975.146,669.527 
		975.337,669.591 975.354,669.475 975.4,669.48 975.453,669.48 975.518,669.475 975.521,669.475 975.581,669.463 975.604,669.58 
		975.79,669.504 975.732,669.403 975.779,669.375 975.82,669.341 975.86,669.3 975.896,669.26 975.988,669.329 976.087,669.148 
		975.982,669.113 	"/>
	<polygon style="fill:#BA8E2D;" points="967.697,669.072 967.708,669.026 967.708,669.009 967.714,668.98 967.714,668.898 
		967.831,668.892 967.79,668.694 967.681,668.735 967.633,668.636 967.604,668.589 967.57,668.549 967.656,668.468 967.499,668.34 
		967.439,668.438 967.389,668.414 967.336,668.396 967.283,668.38 967.227,668.367 967.238,668.251 967.033,668.258 967.05,668.373 
		966.898,668.427 966.847,668.456 966.781,668.356 966.632,668.49 966.719,668.565 966.613,668.764 966.503,668.724 
		966.475,668.927 966.591,668.927 966.596,668.986 966.62,669.096 966.637,669.148 966.531,669.195 966.637,669.37 966.724,669.294 
		966.765,669.335 966.806,669.37 966.898,669.428 966.847,669.533 967.039,669.597 967.057,669.48 967.104,669.486 967.156,669.486 
		967.219,669.48 967.227,669.48 967.283,669.469 967.307,669.585 967.493,669.51 967.436,669.41 967.48,669.381 967.521,669.347 
		967.562,669.306 967.598,669.265 967.689,669.335 967.79,669.154 967.686,669.119 	"/>
	<circle cx="973.289" cy="665.179" r="0.4"/>
	<path d="M973.508,668.443c0,0.129-0.091,0.229-0.204,0.229c-0.114-0.001-0.205-0.104-0.205-0.23l0.003-1.219
		c0.002-0.127,0.094-0.229,0.204-0.229c0.113,0,0.205,0.104,0.204,0.229L973.508,668.443z"/>
	<path d="M973.635,667.031c0,0.189-0.145,0.346-0.324,0.346c-0.178,0-0.321-0.154-0.321-0.346l-0.002-1.062
		c0-0.19,0.146-0.347,0.321-0.347c0.181,0,0.324,0.153,0.324,0.346L973.635,667.031z"/>
	<polygon points="974.488,665.927 974.447,666.174 974.036,666.473 973.79,666.433 973.83,666.186 974.242,665.888 	"/>
	<path d="M973.722,665.094l-0.872,0.135c-0.037-0.239,0.129-0.466,0.369-0.504C973.46,664.688,973.686,664.854,973.722,665.094z"/>
	<polygon points="973.764,664.986 973.357,664.951 973.357,664.832 973.764,664.774 	"/>
	<polygon points="974.077,666.433 973.832,666.475 973.298,666.094 973.256,665.85 973.502,665.808 974.036,666.188 	"/>
</g>
<g id="Layer_1">
</g>
</svg>
