<svg xmlns="http://www.w3.org/2000/svg" width="1366" height="700" viewBox="0 0 1366 700"><path d="M976.413 668.916h-.286a.676.676 0 0 1-1.353 0 .673.673 0 0 1 .676-.677.674.674 0 0 1 .677.676h.57a1.244 1.244 0 0 0-1.248-1.248c-.344 0-.656.14-.883.365a1.24 1.24 0 0 0-.365.883c0 .344.142.656.366.883a1.256 1.256 0 0 0 1.766 0c.226-.227.364-.54.364-.884h-.283M968.12 668.928h-.288a.677.677 0 0 1-.196.48.674.674 0 0 1-.48.195.672.672 0 0 1-.675-.675.675.675 0 0 1 1.352 0h.57c0-.344-.14-.656-.363-.883a1.25 1.25 0 0 0-2.134.883c0 .344.143.657.365.883a1.257 1.257 0 0 0 1.768 0c.226-.225.364-.538.364-.882h-.283"/><path d="M974.14 669.4s-.07-.136-.07-.52c0-.383.24-.784.24-.784l-.65.58h-1.854v-4.37h.09v-.097h2.033v.273l.292.144h.133v-.598h-4.102v.187h1.018l.126.08v1.488h-.268v-.125h-.98v.062l.195.07v2.087h1.026v.455h-.83l-.33-.34h-.125v-2.142l-.25-.125h-.4l-.17.1h-.767v.106h-.33v-.643h-2.497v1.063h-.488s-.35-.554-1.267-.554c-.92 0-1.57.91-1.57 1.392h-.273v.307h.054v.22l-.273.38h.126l.137-.208v.597h-.264v.1h.25v.16h-.235v.112h.23v.07h2.14l.417.256 1.058-.002s-.152-1.674 1.44-1.674c1.61 0 1.44 1.674 1.44 1.674h.868l1.04.206 3.64.007z" fill="#ba8e2d"/><path d="M977.38 668.58l-.45-.006-.166-.214s.042-.056.042-.48c0-.43-.125-.5-.125-.5l.242.107.01-.188.438.008.01 1.272z"/><path d="M975.63 665.97v-.075h-.385v-.17h-.16v.177h-.196l-.39.758v1.257s.344-.304.674-.354c.362-.054.54.02.54.02l-.006-.494.236-.316h.97l.008 1.497h.457v-2.3h-1.75z" fill="#ba8e2d"/><path d="M977.254 666.104l3.002-1.01.152.022 1.818-.516.016-.104.188-.046.062.07 1.57-.49s.135-.043.178.066c.055.136-.1.192-.1.192l-1.554.55-.016.105-.17.048-.11-.062-1.773.586-.023.095-.466.136-.44.548-.326-.062-.122-.232-1.728.56s-.214.04-.282-.16c-.07-.206.124-.296.124-.296zM975.994 669.066l.013-.045v-.018l.005-.028v-.082l.116-.006-.04-.198-.11.04-.047-.098-.03-.047-.035-.04.088-.08-.157-.13-.058.1-.05-.025-.054-.016-.053-.02-.057-.01.012-.116-.204.005.018.117-.15.053-.052.03-.065-.098-.15.132.088.077-.107.198-.108-.04-.03.203h.116l.007.06.022.11.02.053-.107.046.106.173.085-.075.042.04.042.035.093.06-.05.104.19.064.017-.115.046.005h.053l.065-.005h.003l.06-.012.024.117.186-.076-.058-.1.047-.03.04-.033.04-.04.036-.04.092.07.1-.182-.106-.035zM967.697 669.072l.01-.046v-.017l.007-.03v-.082l.117-.006-.04-.198-.11.04-.047-.098-.03-.047-.033-.04.086-.082-.157-.128-.06.098-.05-.024-.054-.018-.053-.016-.056-.013.01-.116-.204.008.017.115-.152.054-.05.03-.067-.1-.148.133.087.075-.107.2-.11-.04-.028.202h.116l.006.06.024.11.017.05-.106.048.107.175.087-.076.04.04.042.036.092.058-.05.105.19.064.02-.117.046.006h.052l.063-.006h.007l.056-.01.024.115.186-.075-.057-.1.044-.03.04-.033.042-.04.036-.042.09.07.102-.18-.104-.036z" fill="#ba8e2d"/><circle cx="973.289" cy="665.179" r=".4"/><path d="M973.508 668.443c0 .13-.09.23-.204.23-.114-.002-.205-.105-.205-.23l.002-1.22c.002-.127.094-.23.204-.23.113 0 .205.105.204.23l-.002 1.22z"/><path d="M973.635 667.03c0 .19-.145.347-.324.347-.177 0-.32-.154-.32-.346l-.002-1.06c0-.19.146-.348.32-.348.182 0 .325.153.325.346l.002 1.063zM974.488 665.927l-.04.247-.412.3-.246-.04.04-.248.412-.298zM973.722 665.094l-.872.135a.44.44 0 1 1 .872-.135z"/><path d="M973.764 664.986l-.407-.035v-.118l.407-.058zM974.077 666.433l-.245.042-.534-.38-.042-.245.246-.042.534.38z"/></svg>