<?xml version="1.0" encoding="iso-8859-1"?>
<!-- Generator: Adobe Illustrator 16.0.4, SVG Export Plug-In . SVG Version: 6.00 Build 0)  -->
<!DOCTYPE svg PUBLIC "-//W3C//DTD SVG 1.1//EN" "http://www.w3.org/Graphics/SVG/1.1/DTD/svg11.dtd">
<svg version="1.1" xmlns="http://www.w3.org/2000/svg" xmlns:xlink="http://www.w3.org/1999/xlink" x="0px" y="0px" width="1366px"
	 height="700px" viewBox="0 0 1366 700" style="enable-background:new 0 0 1366 700;" xml:space="preserve">
<g id="Jumbo_Drill_Bottom_Body">
	<polygon points="978.257,667.24 991.098,667.24 991.098,667.547 977.607,667.552 977.607,666.757 977.913,666.753 977.913,667.055 
		978.086,667.055 978.086,667.163 978.26,667.163 	"/>
	<polygon style="fill:#BA8E2D;" points="977.605,667.404 980.354,667.406 980.354,667.513 982.177,667.513 982.177,667.624 
		984.477,667.624 984.477,667.518 984.011,667.518 984.011,667.326 984.393,667.326 984.63,667.106 984.942,667.106 
		984.942,667.215 985.598,667.215 985.598,667.115 985.742,667.115 985.742,666.93 985.844,666.93 985.844,667.121 986.209,667.611 
		988.729,667.611 988.729,667.914 986.438,667.914 986.438,668.195 986.262,668.195 985.875,667.947 984.654,667.947 
		984.521,668.076 984.095,668.076 983.982,667.965 979.75,667.965 979.17,668.329 978.995,668.329 978.995,667.79 977.604,667.79 	
		"/>
	<polygon style="fill:#BA8E2D;" points="991.072,666.615 991.072,667.604 991.154,667.604 991.238,667.232 991.238,666.615 	"/>
	<rect x="991.23" y="666.79" width="0.18" height="0.474"/>
</g>
<g id="Layer_1">
</g>
</svg>
