<?xml version="1.0" encoding="iso-8859-1"?>
<!-- Generator: Adobe Illustrator 16.0.4, SVG Export Plug-In . SVG Version: 6.00 Build 0)  -->
<!DOCTYPE svg PUBLIC "-//W3C//DTD SVG 1.1//EN" "http://www.w3.org/Graphics/SVG/1.1/DTD/svg11.dtd">
<svg version="1.1" xmlns="http://www.w3.org/2000/svg" xmlns:xlink="http://www.w3.org/1999/xlink" x="0px" y="0px" width="1366px"
	 height="700px" viewBox="0 0 1366 700" style="enable-background:new 0 0 1366 700;" xml:space="preserve">
<g id="Loading_Bin_Chain">
	<g>
		<path style="fill:#8F9294;" d="M769.473,621.131c0.071,0.208,0.024,0.362-0.08,0.415c-0.106,0.054-0.226-0.032-0.287-0.215
			c-0.064-0.192-0.028-0.357,0.078-0.412C769.296,620.86,769.411,620.951,769.473,621.131z M769.158,621.302
			c0.045,0.128,0.131,0.224,0.215,0.18c0.085-0.044,0.093-0.182,0.045-0.314c-0.041-0.122-0.127-0.226-0.214-0.185
			C769.115,621.029,769.113,621.169,769.158,621.302z"/>
		<path style="fill:#8F9294;" d="M769.473,621.131l-0.009,0.004l0.031,0.143c0.013,0.13-0.033,0.221-0.107,0.257l-0.05,0.016
			c-0.086,0.009-0.173-0.07-0.225-0.223l-0.03-0.137c-0.013-0.125,0.026-0.223,0.104-0.262l0.052-0.015
			c0.089-0.01,0.175,0.074,0.226,0.221L769.473,621.131l0.008-0.005c-0.052-0.152-0.145-0.246-0.241-0.237l-0.061,0.019
			c-0.084,0.045-0.128,0.151-0.114,0.285l0.031,0.144c0.053,0.155,0.146,0.248,0.244,0.237l0.057-0.018
			c0.082-0.039,0.132-0.146,0.118-0.28l-0.034-0.147L769.473,621.131z M769.158,621.302l-0.008,0.004
			c0.037,0.113,0.109,0.203,0.188,0.197l0.037-0.012c0.062-0.033,0.086-0.114,0.077-0.207l-0.027-0.125
			c-0.036-0.109-0.108-0.205-0.19-0.199l-0.034,0.011c-0.066,0.034-0.087,0.118-0.078,0.209l0.028,0.126L769.158,621.302l0.01-0.005
			l-0.027-0.12c-0.007-0.085,0.012-0.151,0.067-0.183l0.028-0.011c0.068-0.007,0.138,0.081,0.172,0.185l0.025,0.118
			c0.008,0.087-0.013,0.155-0.064,0.184l-0.03,0.009c-0.067,0.009-0.134-0.071-0.171-0.182L769.158,621.302z"/>
		<path style="fill:#8F9294;" d="M768.753,619.004c0.069,0.208,0.021,0.361-0.08,0.415c-0.11,0.056-0.229-0.032-0.291-0.214
			c-0.065-0.191-0.028-0.358,0.081-0.414C768.574,618.733,768.689,618.824,768.753,619.004z M768.438,619.175
			c0.045,0.13,0.133,0.222,0.215,0.179c0.084-0.041,0.092-0.181,0.045-0.317c-0.043-0.119-0.127-0.224-0.215-0.179
			C768.396,618.899,768.393,619.042,768.438,619.175z"/>
		<path style="fill:#8F9294;" d="M768.753,619.004l-0.009,0.006l0.027,0.139c0.014,0.13-0.031,0.222-0.104,0.261l-0.05,0.017
			c-0.089,0.007-0.177-0.075-0.229-0.225l-0.028-0.135c-0.014-0.125,0.026-0.225,0.104-0.265l0.055-0.017
			c0.088-0.007,0.173,0.076,0.226,0.225L768.753,619.004l0.008-0.003c-0.053-0.152-0.146-0.249-0.243-0.238l-0.058,0.02
			c-0.086,0.041-0.13,0.151-0.118,0.285l0.031,0.144c0.055,0.154,0.148,0.247,0.247,0.238l0.055-0.019
			c0.082-0.042,0.132-0.146,0.118-0.284l-0.032-0.146L768.753,619.004z M768.438,619.175l-0.01,0.005
			c0.039,0.113,0.11,0.203,0.19,0.196l0.035-0.013c0.063-0.029,0.088-0.112,0.077-0.207l-0.026-0.125
			c-0.037-0.105-0.106-0.205-0.189-0.197l-0.036,0.011c-0.064,0.032-0.088,0.115-0.078,0.206l0.027,0.129L768.438,619.175
			l0.01-0.004l-0.026-0.121c-0.008-0.085,0.013-0.155,0.065-0.183l0.03-0.01c0.067-0.008,0.134,0.08,0.171,0.183l0.025,0.118
			c0.007,0.088-0.013,0.154-0.066,0.183l-0.029,0.011c-0.064,0.008-0.133-0.071-0.17-0.181L768.438,619.175z"/>
		<path style="fill:#8F9294;" d="M768.604,618.582c0.07,0.207,0.023,0.362-0.082,0.416c-0.107,0.055-0.226-0.032-0.286-0.217
			c-0.065-0.191-0.029-0.354,0.079-0.412C768.425,618.312,768.541,618.402,768.604,618.582z M768.289,618.752
			c0.043,0.129,0.13,0.224,0.213,0.182c0.083-0.044,0.091-0.182,0.046-0.317c-0.041-0.12-0.127-0.227-0.216-0.183
			C768.245,618.479,768.242,618.622,768.289,618.752z"/>
		<path style="fill:#8F9294;" d="M768.604,618.582l-0.009,0.003l0.029,0.14c0.012,0.133-0.031,0.226-0.106,0.264l-0.051,0.015
			c-0.086,0.009-0.174-0.072-0.225-0.226l-0.03-0.136c-0.011-0.126,0.028-0.221,0.104-0.263l0.052-0.013
			c0.089-0.011,0.177,0.071,0.228,0.219L768.604,618.582l0.009-0.004c-0.052-0.154-0.146-0.246-0.244-0.237l-0.058,0.018
			c-0.087,0.044-0.13,0.151-0.117,0.284l0.033,0.146c0.054,0.157,0.146,0.248,0.242,0.238l0.058-0.018
			c0.081-0.04,0.131-0.146,0.116-0.286l-0.03-0.145L768.604,618.582z M768.289,618.752l-0.01,0.004
			c0.039,0.115,0.108,0.204,0.188,0.198l0.038-0.011c0.062-0.031,0.086-0.116,0.076-0.209l-0.026-0.124
			c-0.037-0.107-0.107-0.207-0.189-0.2l-0.037,0.013c-0.062,0.032-0.087,0.116-0.077,0.204l0.028,0.129L768.289,618.752l0.009-0.006
			l-0.028-0.122c-0.008-0.083,0.013-0.15,0.066-0.179l0.031-0.012c0.067-0.005,0.137,0.081,0.173,0.187l0.022,0.114
			c0.009,0.091-0.012,0.156-0.064,0.186l-0.032,0.01c-0.062,0.008-0.132-0.071-0.168-0.184L768.289,618.752z"/>
		<path style="fill:#8F9294;" d="M768.454,618.168c0.069,0.207,0.021,0.359-0.079,0.414c-0.109,0.056-0.229-0.031-0.29-0.213
			c-0.065-0.193-0.028-0.36,0.081-0.416C768.275,617.898,768.393,617.988,768.454,618.168z M768.141,618.337
			c0.043,0.131,0.133,0.225,0.215,0.18c0.082-0.04,0.093-0.18,0.045-0.314c-0.041-0.123-0.127-0.228-0.215-0.183
			C768.097,618.062,768.096,618.204,768.141,618.337z"/>
		<path style="fill:#8F9294;" d="M768.454,618.168l-0.011,0.005l0.03,0.14c0.012,0.13-0.03,0.222-0.104,0.259l-0.053,0.017
			c-0.087,0.008-0.175-0.073-0.226-0.222l-0.031-0.138c-0.01-0.127,0.03-0.224,0.106-0.264l0.051-0.014
			c0.089-0.011,0.175,0.073,0.228,0.222L768.454,618.168l0.008-0.005c-0.052-0.152-0.146-0.247-0.243-0.238l-0.058,0.019
			c-0.085,0.043-0.13,0.152-0.117,0.287l0.032,0.145c0.053,0.154,0.146,0.245,0.244,0.236l0.058-0.02
			c0.081-0.04,0.131-0.145,0.116-0.283l-0.032-0.146L768.454,618.168z M768.141,618.337l-0.009,0.003
			c0.037,0.116,0.11,0.207,0.19,0.2l0.035-0.013c0.062-0.03,0.088-0.112,0.078-0.206l-0.027-0.126
			c-0.037-0.107-0.106-0.206-0.189-0.197l-0.038,0.012c-0.062,0.03-0.086,0.114-0.077,0.205l0.028,0.125L768.141,618.337
			l0.011-0.004l-0.026-0.122c-0.009-0.083,0.011-0.152,0.064-0.181l0.031-0.011c0.068-0.007,0.137,0.08,0.172,0.186l0.024,0.117
			c0.007,0.088-0.013,0.155-0.065,0.184l-0.03,0.009c-0.064,0.007-0.136-0.071-0.17-0.182L768.141,618.337z"/>
		<path style="fill:#8F9294;" d="M768.311,617.73c0.071,0.204,0.022,0.359-0.078,0.411c-0.108,0.058-0.229-0.032-0.291-0.213
			c-0.062-0.191-0.027-0.357,0.08-0.414C768.134,617.459,768.248,617.549,768.311,617.73z M767.997,617.9
			c0.043,0.129,0.129,0.223,0.213,0.178c0.083-0.04,0.091-0.18,0.045-0.314c-0.041-0.121-0.127-0.227-0.215-0.182
			C767.951,617.626,767.949,617.767,767.997,617.9z"/>
		<path style="fill:#8F9294;" d="M768.311,617.73l-0.009,0.004l0.03,0.142c0.012,0.129-0.032,0.219-0.105,0.257l-0.05,0.016
			c-0.088,0.009-0.176-0.073-0.227-0.223l-0.03-0.134c-0.012-0.128,0.027-0.226,0.104-0.266l0.053-0.016
			c0.089-0.009,0.174,0.075,0.225,0.224L768.311,617.73l0.009-0.007c-0.053-0.151-0.145-0.247-0.242-0.236l-0.06,0.018
			c-0.086,0.044-0.129,0.152-0.117,0.287l0.031,0.143c0.056,0.155,0.148,0.246,0.247,0.237l0.056-0.019
			c0.082-0.038,0.132-0.144,0.117-0.28l-0.033-0.147L768.311,617.73z M767.997,617.9l-0.011,0.004
			c0.037,0.113,0.109,0.202,0.188,0.195l0.037-0.011c0.062-0.031,0.087-0.115,0.078-0.209l-0.026-0.122
			c-0.036-0.105-0.106-0.207-0.19-0.199l-0.036,0.014c-0.064,0.031-0.085,0.114-0.077,0.203l0.026,0.13L767.997,617.9l0.008-0.004
			l-0.026-0.123c-0.008-0.083,0.011-0.151,0.065-0.181l0.03-0.01c0.068-0.008,0.138,0.08,0.173,0.184l0.024,0.115
			c0.008,0.088-0.014,0.156-0.065,0.185l-0.032,0.01c-0.063,0.008-0.133-0.07-0.169-0.18L767.997,617.9z"/>
		<path style="fill:#8F9294;" d="M769.335,620.712c0.069,0.206,0.022,0.359-0.081,0.413c-0.107,0.056-0.225-0.031-0.287-0.215
			c-0.065-0.192-0.029-0.355,0.08-0.412S769.271,620.531,769.335,620.712z M769.021,620.881c0.046,0.13,0.131,0.222,0.216,0.18
			c0.084-0.042,0.091-0.181,0.045-0.314c-0.041-0.121-0.127-0.227-0.216-0.184C768.979,620.608,768.977,620.749,769.021,620.881z"/>
		<path style="fill:#8F9294;" d="M769.335,620.712l-0.009,0.005l0.029,0.136c0.013,0.132-0.031,0.225-0.105,0.264l-0.051,0.015
			c-0.086,0.008-0.174-0.072-0.225-0.225l-0.029-0.137c-0.014-0.125,0.026-0.22,0.104-0.26l0.051-0.016
			c0.088-0.01,0.174,0.072,0.227,0.223L769.335,620.712l0.01-0.004c-0.054-0.156-0.146-0.247-0.245-0.239l-0.057,0.019
			c-0.086,0.045-0.13,0.151-0.117,0.286l0.032,0.142c0.053,0.156,0.146,0.25,0.243,0.238l0.058-0.018
			c0.082-0.041,0.13-0.146,0.116-0.283l-0.03-0.145L769.335,620.712z M769.021,620.881l-0.009,0.004
			c0.038,0.116,0.11,0.204,0.189,0.198l0.036-0.013c0.062-0.031,0.086-0.114,0.077-0.207l-0.026-0.125
			c-0.036-0.107-0.109-0.204-0.189-0.198l-0.037,0.012c-0.063,0.034-0.088,0.117-0.077,0.208l0.027,0.125L769.021,620.881
			l0.011-0.004l-0.026-0.12c-0.009-0.083,0.011-0.153,0.065-0.183l0.03-0.01c0.067-0.009,0.138,0.078,0.172,0.184l0.024,0.116
			c0.007,0.087-0.013,0.157-0.065,0.184l-0.03,0.01c-0.066,0.007-0.135-0.071-0.17-0.181L769.021,620.881z"/>
		<path style="fill:#8F9294;" d="M769.186,620.289c0.07,0.207,0.023,0.361-0.08,0.414c-0.107,0.056-0.227-0.032-0.289-0.213
			c-0.063-0.191-0.027-0.357,0.082-0.414C769.008,620.021,769.124,620.109,769.186,620.289z M768.872,620.46
			c0.044,0.129,0.131,0.221,0.214,0.18c0.083-0.043,0.092-0.182,0.045-0.316c-0.042-0.121-0.127-0.225-0.215-0.18
			C768.828,620.188,768.826,620.328,768.872,620.46z"/>
		<path style="fill:#8F9294;" d="M769.186,620.289l-0.01,0.006l0.031,0.139c0.013,0.131-0.033,0.221-0.107,0.259l-0.052,0.018
			c-0.085,0.008-0.172-0.074-0.224-0.223l-0.029-0.136c-0.011-0.126,0.027-0.223,0.105-0.264l0.053-0.016
			c0.087-0.008,0.172,0.071,0.223,0.223L769.186,620.289l0.009-0.004c-0.052-0.152-0.146-0.246-0.242-0.236l-0.06,0.019
			c-0.087,0.042-0.129,0.152-0.117,0.286l0.031,0.142c0.055,0.155,0.146,0.247,0.244,0.237l0.059-0.019
			c0.082-0.04,0.132-0.145,0.119-0.282l-0.034-0.146L769.186,620.289z M768.872,620.46l-0.009,0.005
			c0.037,0.114,0.108,0.203,0.188,0.196l0.035-0.013c0.062-0.031,0.086-0.113,0.078-0.208l-0.028-0.122
			c-0.037-0.108-0.105-0.205-0.188-0.197l-0.036,0.011c-0.065,0.032-0.089,0.115-0.077,0.206l0.027,0.127L768.872,620.46
			l0.009-0.003l-0.025-0.12c-0.009-0.086,0.011-0.154,0.065-0.185l0.03-0.008c0.066-0.009,0.136,0.077,0.17,0.182l0.025,0.117
			c0.008,0.086-0.014,0.154-0.064,0.185l-0.031,0.008c-0.064,0.009-0.134-0.071-0.17-0.179L768.872,620.46z"/>
		<path style="fill:#8F9294;" d="M769.038,619.875c0.067,0.206,0.021,0.36-0.082,0.413c-0.106,0.057-0.228-0.03-0.287-0.214
			c-0.065-0.191-0.028-0.357,0.081-0.413C768.861,619.604,768.977,619.694,769.038,619.875z M768.724,620.046
			c0.046,0.129,0.132,0.219,0.216,0.178c0.084-0.043,0.093-0.181,0.045-0.314c-0.041-0.121-0.127-0.227-0.215-0.183
			C768.681,619.771,768.679,619.913,768.724,620.046z"/>
		<path style="fill:#8F9294;" d="M769.038,619.875l-0.011,0.003l0.029,0.138c0.014,0.133-0.032,0.226-0.104,0.264l-0.052,0.015
			c-0.085,0.009-0.174-0.071-0.224-0.224l-0.03-0.135c-0.012-0.127,0.029-0.224,0.106-0.264l0.051-0.017
			c0.087-0.008,0.171,0.073,0.224,0.223L769.038,619.875l0.008-0.005c-0.052-0.154-0.144-0.248-0.243-0.238l-0.057,0.019
			c-0.086,0.042-0.131,0.152-0.117,0.288l0.032,0.141c0.051,0.157,0.146,0.247,0.243,0.238l0.056-0.018
			c0.082-0.041,0.132-0.146,0.118-0.285l-0.032-0.146L769.038,619.875z M768.724,620.046l-0.009,0.004
			c0.04,0.115,0.112,0.201,0.189,0.195l0.037-0.011c0.062-0.032,0.086-0.113,0.076-0.205l-0.027-0.127
			c-0.034-0.107-0.105-0.204-0.188-0.199l-0.036,0.012c-0.065,0.033-0.089,0.118-0.078,0.209l0.026,0.126L768.724,620.046
			l0.009-0.006l-0.025-0.118c-0.005-0.086,0.013-0.155,0.066-0.184l0.03-0.01c0.069-0.008,0.136,0.079,0.169,0.184l0.028,0.119
			c0.007,0.088-0.013,0.151-0.065,0.18l-0.03,0.01c-0.064,0.008-0.134-0.07-0.173-0.181L768.724,620.046z"/>
		<path style="fill:#8F9294;" d="M768.893,619.438c0.072,0.206,0.025,0.358-0.078,0.414c-0.107,0.057-0.228-0.031-0.29-0.216
			c-0.064-0.191-0.027-0.356,0.081-0.413C768.717,619.167,768.831,619.257,768.893,619.438z M768.579,619.605
			c0.045,0.132,0.132,0.223,0.215,0.182c0.083-0.043,0.092-0.18,0.046-0.317c-0.042-0.122-0.127-0.224-0.215-0.181
			C768.538,619.332,768.533,619.475,768.579,619.605z"/>
		<path style="fill:#8F9294;" d="M768.893,619.438l-0.008,0.005l0.031,0.142c0.012,0.129-0.032,0.218-0.105,0.257l-0.053,0.017
			c-0.085,0.009-0.174-0.071-0.227-0.224l-0.028-0.136c-0.013-0.125,0.028-0.225,0.106-0.264l0.052-0.017
			c0.087-0.007,0.173,0.074,0.224,0.225L768.893,619.438l0.01-0.004c-0.054-0.155-0.145-0.249-0.243-0.239l-0.058,0.017
			c-0.087,0.045-0.132,0.154-0.117,0.289l0.03,0.142c0.054,0.157,0.148,0.248,0.247,0.24l0.058-0.019
			c0.08-0.043,0.131-0.146,0.116-0.28l-0.032-0.147L768.893,619.438z M768.579,619.605l-0.009,0.004
			c0.037,0.115,0.109,0.205,0.188,0.197l0.037-0.011c0.062-0.032,0.086-0.114,0.078-0.207l-0.028-0.125
			c-0.037-0.106-0.105-0.205-0.189-0.199l-0.035,0.014c-0.065,0.032-0.088,0.114-0.078,0.205l0.027,0.125L768.579,619.605
			l0.01-0.006l-0.026-0.119c-0.009-0.084,0.013-0.151,0.066-0.182l0.031-0.01c0.066-0.007,0.135,0.079,0.171,0.182l0.024,0.12
			c0.008,0.087-0.015,0.154-0.065,0.183l-0.031,0.012c-0.062,0.006-0.133-0.072-0.17-0.186L768.579,619.605z"/>
		<path style="fill:#8F9294;" d="M767.584,615.59c0.072,0.209,0.023,0.363-0.079,0.414c-0.108,0.057-0.229-0.029-0.289-0.213
			c-0.064-0.192-0.028-0.357,0.08-0.414C767.406,615.319,767.521,615.408,767.584,615.59z M767.271,615.76
			c0.043,0.131,0.132,0.225,0.214,0.181c0.086-0.041,0.094-0.179,0.045-0.315c-0.041-0.122-0.125-0.226-0.214-0.179
			C767.229,615.49,767.229,615.629,767.271,615.76z"/>
		<path style="fill:#8F9294;" d="M767.584,615.59l-0.01,0.005l0.031,0.143c0.012,0.131-0.031,0.22-0.104,0.258l-0.052,0.015
			c-0.088,0.011-0.176-0.071-0.228-0.222l-0.028-0.137c-0.012-0.125,0.025-0.223,0.104-0.264l0.052-0.016
			c0.088-0.007,0.174,0.074,0.225,0.223L767.584,615.59l0.009-0.003c-0.053-0.153-0.146-0.249-0.244-0.238l-0.057,0.019
			c-0.086,0.044-0.13,0.154-0.117,0.286l0.032,0.145c0.053,0.154,0.146,0.245,0.242,0.236l0.06-0.019
			c0.083-0.038,0.129-0.142,0.117-0.28l-0.033-0.146L767.584,615.59z M767.271,615.76l-0.011,0.006
			c0.04,0.115,0.112,0.204,0.19,0.196l0.037-0.011c0.063-0.032,0.086-0.114,0.076-0.206l-0.026-0.126
			c-0.036-0.109-0.104-0.206-0.188-0.198l-0.037,0.013c-0.064,0.031-0.088,0.115-0.079,0.207l0.026,0.125L767.271,615.76
			l0.009-0.004l-0.025-0.119c-0.006-0.084,0.011-0.151,0.065-0.182l0.033-0.011c0.067-0.005,0.132,0.079,0.168,0.183l0.025,0.119
			c0.008,0.087-0.014,0.154-0.064,0.181l-0.032,0.011c-0.064,0.008-0.133-0.069-0.17-0.182L767.271,615.76z"/>
		<path style="fill:#8F9294;" d="M767.436,615.171c0.069,0.206,0.022,0.36-0.08,0.412c-0.108,0.054-0.228-0.029-0.289-0.213
			c-0.064-0.192-0.027-0.357,0.082-0.415C767.259,614.899,767.373,614.99,767.436,615.171z M767.121,615.339
			c0.045,0.131,0.131,0.224,0.213,0.183c0.084-0.045,0.093-0.183,0.046-0.317c-0.042-0.121-0.126-0.228-0.215-0.183
			C767.079,615.067,767.076,615.208,767.121,615.339z"/>
		<path style="fill:#8F9294;" d="M767.436,615.171l-0.01,0.004l0.03,0.142c0.012,0.128-0.031,0.22-0.104,0.257l-0.052,0.015
			c-0.088,0.009-0.175-0.07-0.228-0.221l-0.028-0.134c-0.011-0.126,0.028-0.226,0.106-0.267l0.052-0.016
			c0.088-0.008,0.173,0.076,0.224,0.224L767.436,615.171l0.009-0.005c-0.054-0.153-0.145-0.248-0.244-0.239l-0.057,0.019
			c-0.088,0.046-0.131,0.153-0.118,0.289l0.03,0.142c0.056,0.155,0.149,0.246,0.246,0.236l0.056-0.017
			c0.084-0.043,0.132-0.146,0.118-0.282l-0.031-0.146L767.436,615.171z M767.121,615.339l-0.01,0.005
			c0.039,0.115,0.11,0.204,0.188,0.197l0.036-0.012c0.062-0.03,0.087-0.113,0.079-0.207l-0.029-0.125
			c-0.036-0.107-0.106-0.207-0.188-0.199l-0.035,0.011c-0.065,0.035-0.087,0.12-0.078,0.211l0.025,0.124L767.121,615.339
			l0.008-0.004l-0.025-0.117c-0.009-0.086,0.013-0.156,0.065-0.187l0.03-0.008c0.066-0.01,0.136,0.079,0.172,0.183l0.023,0.118
			c0.01,0.089-0.013,0.155-0.062,0.184l-0.032,0.009c-0.062,0.009-0.133-0.07-0.171-0.182L767.121,615.339z"/>
		<path style="fill:#8F9294;" d="M767.288,614.755c0.07,0.207,0.021,0.36-0.082,0.413c-0.108,0.056-0.226-0.031-0.287-0.216
			c-0.065-0.19-0.028-0.356,0.078-0.412C767.109,614.483,767.229,614.574,767.288,614.755z M766.977,614.923
			c0.043,0.132,0.129,0.224,0.211,0.179c0.084-0.039,0.093-0.177,0.046-0.313c-0.041-0.119-0.125-0.229-0.216-0.181
			C766.932,614.65,766.93,614.791,766.977,614.923z"/>
		<path style="fill:#8F9294;" d="M767.288,614.755l-0.011,0.004l0.031,0.14c0.012,0.132-0.031,0.222-0.105,0.261l-0.052,0.014
			c-0.089,0.01-0.173-0.072-0.227-0.222l-0.028-0.137c-0.011-0.127,0.026-0.224,0.104-0.264l0.051-0.014
			c0.09-0.01,0.178,0.072,0.229,0.222L767.288,614.755l0.009-0.005c-0.052-0.156-0.146-0.247-0.248-0.238l-0.055,0.018
			c-0.086,0.044-0.127,0.153-0.115,0.286l0.031,0.145c0.054,0.156,0.146,0.247,0.244,0.236l0.056-0.017
			c0.083-0.041,0.132-0.146,0.119-0.282l-0.032-0.146L767.288,614.755z M766.977,614.923l-0.011,0.005
			c0.039,0.117,0.108,0.204,0.188,0.197l0.035-0.012c0.063-0.03,0.088-0.114,0.077-0.207l-0.026-0.125
			c-0.035-0.105-0.105-0.205-0.188-0.198l-0.038,0.012c-0.063,0.031-0.085,0.116-0.076,0.205l0.028,0.128L766.977,614.923
			l0.007-0.004l-0.025-0.121c-0.008-0.085,0.013-0.153,0.063-0.181l0.032-0.01c0.068-0.009,0.134,0.08,0.173,0.184l0.023,0.116
			c0.008,0.089-0.014,0.155-0.066,0.183l-0.03,0.011c-0.064,0.007-0.132-0.069-0.17-0.182L766.977,614.923z"/>
		<path style="fill:#8F9294;" d="M767.145,614.315c0.071,0.208,0.022,0.362-0.082,0.415c-0.106,0.055-0.225-0.031-0.287-0.216
			c-0.063-0.19-0.028-0.356,0.078-0.411C766.966,614.046,767.082,614.139,767.145,614.315z M766.83,614.484
			c0.044,0.131,0.131,0.225,0.214,0.182c0.084-0.042,0.091-0.18,0.043-0.316c-0.04-0.121-0.124-0.225-0.213-0.18
			C766.787,614.212,766.785,614.354,766.83,614.484z"/>
		<path style="fill:#8F9294;" d="M767.145,614.315l-0.01,0.005l0.031,0.143c0.012,0.129-0.033,0.22-0.107,0.258l-0.049,0.015
			c-0.088,0.011-0.174-0.072-0.229-0.223l-0.028-0.137c-0.011-0.125,0.028-0.222,0.104-0.261l0.052-0.017
			c0.09-0.009,0.176,0.075,0.227,0.222L767.145,614.315l0.009-0.003c-0.054-0.152-0.146-0.246-0.244-0.237l-0.059,0.019
			c-0.087,0.043-0.129,0.149-0.116,0.285l0.031,0.143c0.055,0.154,0.146,0.247,0.245,0.237l0.056-0.017
			c0.084-0.041,0.134-0.146,0.119-0.28l-0.032-0.148L767.145,614.315z M766.83,614.484l-0.01,0.006
			c0.039,0.115,0.11,0.204,0.189,0.197l0.035-0.013c0.065-0.03,0.087-0.114,0.077-0.205l-0.026-0.128
			c-0.035-0.105-0.105-0.202-0.189-0.197l-0.035,0.014c-0.065,0.031-0.087,0.115-0.079,0.204l0.028,0.127L766.83,614.484
			l0.008-0.004l-0.025-0.12c-0.008-0.084,0.013-0.15,0.065-0.181l0.032-0.01c0.066-0.007,0.135,0.079,0.171,0.181l0.022,0.121
			c0.008,0.085-0.012,0.155-0.063,0.182l-0.03,0.012c-0.064,0.005-0.135-0.073-0.172-0.185L766.83,614.484z"/>
		<path style="fill:#8F9294;" d="M768.167,617.299c0.069,0.204,0.022,0.357-0.08,0.413c-0.106,0.055-0.227-0.032-0.289-0.215
			c-0.063-0.191-0.028-0.355,0.081-0.412C767.99,617.029,768.105,617.115,768.167,617.299z M767.854,617.467
			c0.045,0.13,0.133,0.225,0.215,0.18c0.082-0.041,0.092-0.182,0.045-0.314c-0.041-0.122-0.125-0.227-0.215-0.182
			C767.811,617.195,767.809,617.337,767.854,617.467z"/>
		<path style="fill:#8F9294;" d="M768.167,617.299l-0.009,0.004l0.029,0.139c0.014,0.13-0.029,0.22-0.104,0.261l-0.052,0.015
			c-0.086,0.009-0.174-0.07-0.227-0.222l-0.029-0.134c-0.011-0.128,0.027-0.226,0.105-0.266l0.053-0.016
			c0.088-0.009,0.172,0.072,0.225,0.223L768.167,617.299l0.01-0.006c-0.054-0.155-0.146-0.245-0.244-0.236l-0.058,0.017
			c-0.087,0.046-0.129,0.153-0.117,0.289l0.031,0.141c0.054,0.158,0.146,0.249,0.244,0.238l0.057-0.02
			c0.084-0.041,0.132-0.146,0.118-0.282l-0.031-0.146L768.167,617.299z M767.854,617.467l-0.009,0.005
			c0.038,0.115,0.11,0.203,0.189,0.197l0.037-0.013c0.062-0.03,0.086-0.115,0.078-0.209l-0.027-0.122
			c-0.038-0.108-0.108-0.205-0.188-0.198l-0.037,0.011c-0.065,0.033-0.088,0.117-0.08,0.207l0.028,0.127L767.854,617.467l0.01-0.005
			l-0.025-0.118c-0.009-0.086,0.012-0.153,0.065-0.184l0.032-0.01c0.065-0.008,0.134,0.078,0.17,0.185l0.023,0.114
			c0.008,0.088-0.013,0.159-0.064,0.188l-0.031,0.007c-0.063,0.009-0.135-0.071-0.171-0.182L767.854,617.467z"/>
		<path style="fill:#8F9294;" d="M768.02,616.877c0.07,0.207,0.021,0.36-0.082,0.414c-0.106,0.054-0.225-0.033-0.287-0.215
			c-0.063-0.191-0.028-0.357,0.078-0.412C767.842,616.608,767.957,616.697,768.02,616.877z M767.705,617.046
			c0.045,0.13,0.13,0.224,0.214,0.181s0.092-0.18,0.044-0.314c-0.042-0.123-0.126-0.227-0.212-0.184
			C767.661,616.771,767.66,616.914,767.705,617.046z"/>
		<path style="fill:#8F9294;" d="M768.02,616.877l-0.01,0.005l0.031,0.138c0.011,0.131-0.033,0.224-0.105,0.26l-0.052,0.017
			c-0.088,0.007-0.173-0.073-0.226-0.223l-0.029-0.136c-0.012-0.126,0.027-0.224,0.104-0.264l0.054-0.014
			c0.09-0.01,0.175,0.072,0.227,0.222L768.02,616.877l0.009-0.004c-0.054-0.155-0.146-0.248-0.244-0.238l-0.06,0.017
			c-0.086,0.045-0.127,0.154-0.115,0.288l0.031,0.144c0.056,0.154,0.146,0.244,0.245,0.236l0.056-0.019
			c0.082-0.04,0.134-0.146,0.119-0.283l-0.033-0.145L768.02,616.877z M767.705,617.046l-0.01,0.004
			c0.039,0.117,0.111,0.205,0.191,0.199l0.033-0.011c0.063-0.033,0.086-0.115,0.078-0.209l-0.027-0.125
			c-0.037-0.107-0.105-0.204-0.188-0.197l-0.036,0.012c-0.067,0.029-0.088,0.114-0.079,0.205l0.027,0.126L767.705,617.046
			l0.008-0.003l-0.025-0.122c-0.008-0.086,0.013-0.153,0.066-0.183l0.031-0.009c0.066-0.008,0.134,0.078,0.169,0.185l0.026,0.117
			c0.008,0.087-0.014,0.156-0.065,0.186l-0.028,0.007c-0.065,0.007-0.135-0.071-0.174-0.181L767.705,617.046z"/>
		<path style="fill:#8F9294;" d="M767.87,616.461c0.069,0.207,0.021,0.36-0.08,0.414c-0.106,0.054-0.228-0.034-0.289-0.217
			c-0.063-0.188-0.027-0.354,0.082-0.41C767.695,616.192,767.809,616.281,767.87,616.461z M767.558,616.632
			c0.046,0.129,0.13,0.219,0.214,0.182c0.082-0.047,0.093-0.185,0.045-0.318c-0.041-0.121-0.125-0.226-0.216-0.181
			C767.514,616.358,767.511,616.502,767.558,616.632z"/>
		<path style="fill:#8F9294;" d="M767.87,616.461l-0.009,0.003l0.029,0.144c0.014,0.128-0.031,0.22-0.104,0.257l-0.05,0.016
			c-0.087,0.008-0.176-0.072-0.228-0.225l-0.028-0.134c-0.013-0.124,0.026-0.222,0.104-0.263l0.053-0.015
			c0.088-0.008,0.174,0.073,0.225,0.22L767.87,616.461l0.009-0.006c-0.053-0.152-0.146-0.244-0.242-0.235l-0.058,0.019
			c-0.087,0.042-0.13,0.151-0.117,0.285l0.03,0.142c0.054,0.156,0.147,0.248,0.246,0.239l0.056-0.019
			c0.082-0.041,0.13-0.146,0.119-0.281l-0.034-0.147L767.87,616.461z M767.558,616.632l-0.009,0.005
			c0.038,0.114,0.111,0.201,0.189,0.195l0.035-0.01c0.062-0.035,0.086-0.116,0.078-0.211l-0.027-0.123
			c-0.035-0.106-0.105-0.205-0.19-0.199l-0.037,0.014c-0.062,0.034-0.087,0.115-0.075,0.206l0.027,0.128L767.558,616.632
			l0.009-0.005l-0.025-0.12c-0.009-0.084,0.012-0.153,0.064-0.183l0.03-0.01c0.07-0.009,0.138,0.08,0.171,0.182l0.026,0.117
			c0.008,0.089-0.013,0.156-0.065,0.188l-0.028,0.007c-0.066,0.009-0.134-0.07-0.173-0.181L767.558,616.632z"/>
		<path style="fill:#8F9294;" d="M767.727,616.021c0.07,0.209,0.022,0.36-0.08,0.416c-0.107,0.055-0.226-0.031-0.289-0.215
			c-0.063-0.191-0.025-0.355,0.082-0.415C767.55,615.754,767.664,615.843,767.727,616.021z M767.413,616.192
			c0.045,0.13,0.131,0.223,0.214,0.183c0.083-0.045,0.092-0.184,0.045-0.318c-0.042-0.122-0.126-0.226-0.215-0.182
			C767.371,615.919,767.367,616.062,767.413,616.192z"/>
		<path style="fill:#8F9294;" d="M767.727,616.021l-0.009,0.004l0.029,0.141c0.012,0.132-0.031,0.221-0.104,0.261l-0.052,0.016
			c-0.087,0.009-0.173-0.07-0.224-0.222l-0.029-0.134c-0.014-0.128,0.025-0.226,0.104-0.265l0.054-0.018
			c0.086-0.007,0.173,0.073,0.224,0.221L767.727,616.021l0.009-0.006c-0.054-0.152-0.146-0.244-0.242-0.234l-0.058,0.017
			c-0.087,0.044-0.13,0.155-0.117,0.29l0.029,0.143c0.056,0.155,0.149,0.244,0.246,0.236l0.055-0.017
			c0.082-0.044,0.132-0.147,0.117-0.286l-0.03-0.146L767.727,616.021z M767.413,616.192l-0.011,0.005
			c0.04,0.115,0.112,0.205,0.192,0.197l0.035-0.011c0.062-0.033,0.085-0.116,0.077-0.209l-0.028-0.125
			c-0.036-0.107-0.106-0.206-0.188-0.198l-0.037,0.012c-0.065,0.032-0.086,0.117-0.077,0.209l0.026,0.125L767.413,616.192
			l0.008-0.005l-0.024-0.119c-0.009-0.085,0.013-0.153,0.063-0.185l0.032-0.009c0.065-0.007,0.135,0.08,0.172,0.183l0.023,0.118
			c0.01,0.089-0.012,0.157-0.063,0.188l-0.03,0.007c-0.064,0.008-0.134-0.071-0.173-0.183L767.413,616.192z"/>
		<path style="fill:#8F9294;" d="M766.422,612.19c0.07,0.206,0.021,0.359-0.083,0.411c-0.106,0.059-0.226-0.031-0.285-0.215
			c-0.066-0.188-0.028-0.355,0.079-0.412C766.245,611.921,766.357,612.009,766.422,612.19z M766.107,612.358
			c0.047,0.132,0.133,0.224,0.215,0.181c0.084-0.043,0.092-0.181,0.045-0.317c-0.04-0.119-0.126-0.226-0.213-0.18
			C766.064,612.085,766.062,612.229,766.107,612.358z"/>
		<path style="fill:#8F9294;" d="M766.422,612.19l-0.01,0.004l0.029,0.14c0.013,0.13-0.031,0.221-0.105,0.258l-0.051,0.018
			c-0.086,0.007-0.174-0.073-0.225-0.226l-0.029-0.134c-0.012-0.125,0.026-0.224,0.104-0.264l0.053-0.016
			c0.088-0.006,0.173,0.075,0.225,0.225L766.422,612.19l0.009-0.006c-0.053-0.153-0.146-0.247-0.243-0.237l-0.059,0.018
			c-0.085,0.044-0.129,0.152-0.116,0.285l0.033,0.143c0.051,0.157,0.146,0.248,0.241,0.241l0.057-0.02
			c0.082-0.041,0.133-0.146,0.119-0.284l-0.032-0.146L766.422,612.19z M766.107,612.358l-0.01,0.005
			c0.041,0.113,0.11,0.203,0.19,0.196l0.037-0.012c0.062-0.032,0.086-0.114,0.076-0.206l-0.027-0.125
			c-0.035-0.106-0.106-0.206-0.188-0.2l-0.035,0.015c-0.064,0.03-0.09,0.113-0.08,0.205l0.027,0.127L766.107,612.358l0.011-0.005
			l-0.028-0.119c-0.006-0.084,0.014-0.154,0.066-0.184l0.031-0.009c0.067-0.007,0.137,0.08,0.17,0.182l0.025,0.119
			c0.008,0.087-0.012,0.155-0.064,0.187l-0.031,0.008c-0.064,0.007-0.133-0.071-0.169-0.184L766.107,612.358z"/>
		<path style="fill:#8F9294;" d="M766.271,611.769c0.07,0.207,0.022,0.36-0.08,0.413c-0.107,0.055-0.228-0.031-0.287-0.215
			c-0.066-0.189-0.029-0.355,0.08-0.412C766.096,611.497,766.211,611.589,766.271,611.769z M765.958,611.938
			c0.043,0.129,0.132,0.221,0.215,0.178c0.082-0.041,0.092-0.18,0.044-0.312c-0.041-0.121-0.125-0.225-0.215-0.181
			C765.917,611.664,765.912,611.806,765.958,611.938z"/>
		<path style="fill:#8F9294;" d="M766.271,611.769l-0.01,0.003l0.031,0.143c0.012,0.129-0.032,0.219-0.105,0.258l-0.051,0.016
			c-0.086,0.01-0.175-0.072-0.226-0.223l-0.029-0.135c-0.013-0.126,0.027-0.225,0.104-0.264l0.055-0.016
			c0.086-0.009,0.172,0.075,0.223,0.223L766.271,611.769l0.01-0.005c-0.053-0.153-0.146-0.246-0.242-0.237l-0.059,0.019
			c-0.087,0.044-0.132,0.152-0.117,0.286l0.031,0.144c0.053,0.155,0.147,0.245,0.244,0.236l0.057-0.017
			c0.082-0.042,0.131-0.146,0.117-0.283l-0.031-0.146L766.271,611.769z M765.958,611.938l-0.009,0.006
			c0.039,0.113,0.111,0.2,0.188,0.193l0.037-0.011c0.062-0.031,0.086-0.115,0.076-0.206l-0.026-0.125
			c-0.037-0.107-0.107-0.205-0.188-0.197l-0.038,0.013c-0.064,0.03-0.086,0.113-0.077,0.204l0.028,0.129L765.958,611.938l0.01-0.005
			l-0.026-0.122c-0.008-0.082,0.012-0.149,0.064-0.18l0.032-0.009c0.065-0.009,0.135,0.08,0.169,0.182l0.026,0.118
			c0.007,0.088-0.015,0.155-0.064,0.182l-0.032,0.01c-0.063,0.008-0.134-0.07-0.169-0.181L765.958,611.938z"/>
		<path style="fill:#8F9294;" d="M766.124,611.354c0.071,0.206,0.024,0.358-0.079,0.413c-0.109,0.055-0.227-0.031-0.29-0.215
			c-0.064-0.188-0.028-0.356,0.08-0.413C765.947,611.084,766.062,611.173,766.124,611.354z M765.809,611.521
			c0.047,0.13,0.135,0.224,0.218,0.18c0.083-0.043,0.092-0.18,0.045-0.314c-0.041-0.122-0.127-0.227-0.216-0.182
			C765.768,611.25,765.765,611.39,765.809,611.521z"/>
		<path style="fill:#8F9294;" d="M766.124,611.354l-0.009,0.006l0.029,0.142c0.015,0.126-0.029,0.217-0.104,0.255l-0.052,0.017
			c-0.086,0.007-0.174-0.073-0.227-0.225l-0.027-0.132c-0.014-0.126,0.026-0.225,0.104-0.263l0.053-0.018
			c0.086-0.007,0.174,0.074,0.227,0.225L766.124,611.354l0.009-0.005c-0.053-0.152-0.146-0.247-0.245-0.234l-0.056,0.016
			c-0.086,0.043-0.131,0.155-0.118,0.288l0.032,0.14c0.054,0.156,0.146,0.247,0.246,0.238l0.056-0.018
			c0.083-0.043,0.131-0.146,0.119-0.28l-0.034-0.147L766.124,611.354z M765.809,611.521l-0.007,0.005
			c0.04,0.112,0.111,0.205,0.19,0.196l0.035-0.012c0.062-0.032,0.088-0.114,0.078-0.206l-0.026-0.124
			c-0.038-0.106-0.108-0.207-0.188-0.199l-0.039,0.013c-0.064,0.029-0.087,0.114-0.078,0.206l0.027,0.126L765.809,611.521
			l0.01-0.004l-0.023-0.119c-0.009-0.086,0.011-0.154,0.067-0.183l0.032-0.011c0.064-0.007,0.134,0.081,0.166,0.184l0.026,0.117
			c0.008,0.087-0.015,0.155-0.065,0.185l-0.03,0.009c-0.063,0.006-0.134-0.071-0.172-0.182L765.809,611.521z"/>
		<path style="fill:#8F9294;" d="M765.98,610.914c0.068,0.208,0.022,0.36-0.081,0.414c-0.107,0.056-0.226-0.031-0.288-0.214
			c-0.065-0.19-0.028-0.357,0.082-0.415C765.804,610.645,765.919,610.733,765.98,610.914z M765.667,611.085
			c0.045,0.129,0.132,0.22,0.214,0.18c0.084-0.044,0.092-0.179,0.046-0.318c-0.042-0.121-0.127-0.226-0.217-0.179
			C765.624,610.812,765.622,610.951,765.667,611.085z"/>
		<path style="fill:#8F9294;" d="M765.98,610.914l-0.009,0.006l0.029,0.136c0.013,0.131-0.032,0.223-0.106,0.261l-0.052,0.018
			c-0.085,0.008-0.171-0.073-0.224-0.222l-0.029-0.138c-0.012-0.124,0.028-0.224,0.104-0.263l0.053-0.015
			c0.088-0.011,0.172,0.071,0.225,0.223L765.98,610.914l0.01-0.004c-0.053-0.153-0.146-0.248-0.243-0.237l-0.06,0.018
			c-0.086,0.043-0.13,0.153-0.116,0.285l0.032,0.146c0.053,0.154,0.146,0.244,0.241,0.235l0.059-0.019
			c0.083-0.041,0.132-0.145,0.118-0.285l-0.031-0.144L765.98,610.914z M765.667,611.085l-0.009,0.006
			c0.041,0.114,0.111,0.202,0.188,0.196l0.035-0.011c0.062-0.034,0.086-0.118,0.078-0.214l-0.026-0.121
			c-0.037-0.108-0.107-0.206-0.189-0.197l-0.037,0.012c-0.064,0.031-0.086,0.115-0.077,0.205l0.028,0.13L765.667,611.085
			l0.009-0.004l-0.027-0.121c-0.006-0.085,0.014-0.154,0.066-0.184l0.032-0.01c0.067-0.007,0.136,0.079,0.171,0.183l0.023,0.117
			c0.008,0.089-0.013,0.156-0.065,0.188l-0.029,0.009c-0.062,0.005-0.134-0.072-0.171-0.183L765.667,611.085z"/>
		<path style="fill:#8F9294;" d="M767.005,613.896c0.069,0.204,0.022,0.36-0.082,0.414c-0.106,0.057-0.224-0.031-0.287-0.214
			c-0.062-0.192-0.025-0.358,0.081-0.413C766.829,613.627,766.943,613.715,767.005,613.896z M766.689,614.064
			c0.047,0.13,0.133,0.225,0.217,0.181c0.085-0.039,0.093-0.179,0.045-0.317c-0.041-0.119-0.126-0.224-0.215-0.178
			C766.646,613.793,766.646,613.935,766.689,614.064z"/>
		<path style="fill:#8F9294;" d="M767.005,613.896l-0.008,0.004l0.03,0.141c0.012,0.129-0.034,0.22-0.108,0.26l-0.05,0.016
			c-0.085,0.009-0.172-0.072-0.227-0.223l-0.026-0.136c-0.015-0.127,0.026-0.225,0.104-0.263l0.054-0.017
			c0.087-0.009,0.173,0.073,0.225,0.222L767.005,613.896l0.008-0.006c-0.051-0.152-0.144-0.246-0.241-0.236l-0.06,0.018
			c-0.085,0.044-0.128,0.152-0.115,0.288l0.031,0.144c0.053,0.154,0.146,0.244,0.243,0.235l0.056-0.018
			c0.083-0.04,0.134-0.146,0.119-0.284l-0.033-0.146L767.005,613.896z M766.689,614.064l-0.008,0.003
			c0.039,0.115,0.112,0.206,0.189,0.199l0.037-0.011c0.062-0.03,0.086-0.113,0.077-0.206l-0.026-0.128
			c-0.038-0.105-0.107-0.203-0.189-0.197l-0.039,0.015c-0.063,0.03-0.086,0.114-0.076,0.203l0.027,0.125L766.689,614.064
			l0.012-0.006l-0.027-0.119c-0.007-0.082,0.012-0.149,0.066-0.18l0.031-0.011c0.066-0.007,0.137,0.081,0.17,0.182l0.024,0.12
			c0.008,0.087-0.011,0.155-0.063,0.182l-0.031,0.012c-0.064,0.005-0.133-0.073-0.17-0.186L766.689,614.064z"/>
		<path style="fill:#8F9294;" d="M766.855,613.476c0.069,0.205,0.022,0.358-0.082,0.412c-0.105,0.058-0.225-0.028-0.285-0.213
			c-0.065-0.191-0.029-0.357,0.078-0.413C766.68,613.204,766.794,613.294,766.855,613.476z M766.541,613.645
			c0.045,0.132,0.132,0.224,0.215,0.183c0.085-0.043,0.094-0.181,0.045-0.318c-0.041-0.123-0.127-0.226-0.214-0.181
			C766.499,613.372,766.497,613.514,766.541,613.645z"/>
		<path style="fill:#8F9294;" d="M766.855,613.476l-0.01,0.006l0.031,0.141c0.011,0.128-0.033,0.217-0.107,0.256l-0.051,0.016
			c-0.087,0.01-0.172-0.071-0.224-0.223l-0.03-0.137c-0.012-0.125,0.026-0.222,0.104-0.263l0.053-0.015
			c0.088-0.008,0.173,0.075,0.224,0.224L766.855,613.476l0.008-0.005c-0.053-0.152-0.146-0.247-0.241-0.237l-0.06,0.02
			c-0.086,0.042-0.129,0.15-0.115,0.284l0.031,0.143c0.051,0.157,0.146,0.248,0.242,0.239l0.059-0.02
			c0.082-0.041,0.133-0.146,0.117-0.281l-0.033-0.146L766.855,613.476z M766.541,613.645l-0.008,0.006
			c0.039,0.114,0.111,0.203,0.188,0.196l0.035-0.01c0.064-0.033,0.088-0.114,0.08-0.209l-0.028-0.126
			c-0.037-0.107-0.106-0.205-0.188-0.197l-0.037,0.011c-0.065,0.032-0.086,0.118-0.078,0.21l0.028,0.125L766.541,613.645
			l0.009-0.005l-0.024-0.116c-0.009-0.088,0.013-0.155,0.065-0.186l0.032-0.01c0.066-0.008,0.135,0.08,0.169,0.183l0.024,0.119
			c0.008,0.087-0.013,0.156-0.065,0.185l-0.029,0.009c-0.064,0.008-0.134-0.07-0.172-0.184L766.541,613.645z"/>
		<path style="fill:#8F9294;" d="M766.708,613.061c0.069,0.207,0.022,0.36-0.081,0.414c-0.107,0.056-0.229-0.033-0.289-0.215
			c-0.064-0.191-0.027-0.357,0.081-0.414C766.531,612.789,766.646,612.88,766.708,613.061z M766.393,613.229
			c0.047,0.13,0.133,0.224,0.217,0.182c0.085-0.042,0.093-0.18,0.044-0.316c-0.041-0.12-0.123-0.225-0.214-0.182
			C766.354,612.955,766.349,613.098,766.393,613.229z"/>
		<path style="fill:#8F9294;" d="M766.708,613.061l-0.009,0.004l0.029,0.141c0.012,0.131-0.031,0.221-0.105,0.26l-0.051,0.016
			c-0.086,0.01-0.176-0.072-0.228-0.224l-0.028-0.133c-0.013-0.129,0.027-0.228,0.104-0.266l0.052-0.017
			c0.088-0.009,0.174,0.075,0.227,0.223L766.708,613.061l0.009-0.005c-0.052-0.154-0.145-0.248-0.244-0.238l-0.058,0.019
			c-0.086,0.044-0.132,0.154-0.117,0.288l0.03,0.142c0.054,0.156,0.148,0.247,0.248,0.238l0.056-0.018
			c0.082-0.041,0.131-0.146,0.118-0.285l-0.033-0.146L766.708,613.061z M766.393,613.229l-0.008,0.004
			c0.04,0.115,0.113,0.205,0.191,0.198l0.034-0.011c0.062-0.033,0.087-0.115,0.077-0.207l-0.025-0.127
			c-0.037-0.107-0.106-0.204-0.19-0.198l-0.036,0.013c-0.063,0.032-0.086,0.119-0.078,0.209l0.027,0.123L766.393,613.229l0.01-0.005
			l-0.024-0.116c-0.006-0.084,0.013-0.153,0.066-0.186l0.029-0.01c0.07-0.008,0.136,0.08,0.171,0.183l0.025,0.119
			c0.007,0.086-0.012,0.156-0.066,0.185l-0.026,0.009c-0.066,0.008-0.136-0.071-0.174-0.184L766.393,613.229z"/>
		<path style="fill:#8F9294;" d="M766.564,612.621c0.069,0.206,0.022,0.359-0.08,0.415c-0.109,0.053-0.229-0.033-0.289-0.216
			c-0.063-0.191-0.028-0.357,0.08-0.413C766.388,612.352,766.504,612.441,766.564,612.621z M766.249,612.79
			c0.047,0.132,0.131,0.223,0.216,0.181c0.083-0.042,0.092-0.181,0.044-0.316c-0.042-0.12-0.126-0.228-0.214-0.183
			C766.208,612.518,766.204,612.658,766.249,612.79z"/>
		<path style="fill:#8F9294;" d="M766.564,612.621l-0.01,0.004l0.031,0.14c0.011,0.13-0.033,0.222-0.105,0.26l-0.053,0.016
			c-0.087,0.008-0.172-0.071-0.225-0.224l-0.028-0.136c-0.013-0.126,0.026-0.223,0.104-0.262l0.053-0.015
			c0.088-0.011,0.174,0.072,0.225,0.221L766.564,612.621l0.01-0.004c-0.055-0.154-0.146-0.246-0.244-0.238l-0.059,0.016
			c-0.087,0.047-0.13,0.154-0.115,0.289l0.028,0.142c0.056,0.155,0.147,0.248,0.246,0.237l0.058-0.017
			c0.082-0.041,0.132-0.146,0.117-0.283l-0.031-0.146L766.564,612.621z M766.249,612.79l-0.009,0.005
			c0.041,0.113,0.111,0.204,0.188,0.197l0.038-0.014c0.062-0.029,0.086-0.111,0.076-0.204l-0.027-0.128
			c-0.037-0.105-0.105-0.203-0.188-0.196l-0.037,0.011c-0.064,0.034-0.087,0.118-0.079,0.209l0.028,0.125L766.249,612.79
			l0.009-0.003l-0.025-0.119c-0.007-0.086,0.013-0.155,0.066-0.186l0.032-0.011c0.067-0.006,0.133,0.08,0.169,0.185l0.023,0.119
			c0.01,0.086-0.012,0.155-0.063,0.184l-0.031,0.009c-0.062,0.007-0.131-0.069-0.171-0.182L766.249,612.79z"/>
	</g>
</g>
<g id="Layer_1">
</g>
</svg>
