<svg xmlns="http://www.w3.org/2000/svg" width="1366" height="700" viewBox="0 0 1366 700"><g fill="#8f9294"><path d="M769.473 621.13c.07.21.024.363-.08.416-.106.054-.226-.032-.287-.215-.064-.19-.028-.356.078-.41.112-.06.227.03.29.21zm-.315.172c.045.128.13.224.215.18.085-.044.093-.182.045-.314-.04-.122-.127-.226-.214-.185-.09.046-.09.186-.046.32z"/><path d="M769.473 621.13l-.01.005.032.143c.013.13-.033.22-.107.257l-.05.016c-.086.01-.173-.07-.225-.222l-.03-.137c-.013-.124.026-.222.104-.26l.052-.016c.088-.01.174.074.225.22l.008-.003.008-.004c-.05-.152-.144-.246-.24-.237l-.06.018c-.085.045-.13.15-.115.285l.03.144c.054.155.147.248.245.237l.057-.018c.082-.04.132-.146.118-.28l-.034-.147h-.007zm-.315.172l-.008.004c.037.113.11.203.188.197l.037-.012c.062-.032.086-.113.077-.206l-.027-.125c-.036-.11-.108-.206-.19-.2l-.034.01c-.065.035-.086.12-.077.21l.028.126.008-.004.01-.005-.027-.12c-.006-.085.013-.15.068-.183l.028-.01c.068-.008.138.08.172.184l.025.118c.008.087-.013.155-.064.184l-.03.01c-.068.008-.135-.072-.172-.183l-.01.005zM768.753 619.004c.07.208.02.36-.08.415-.11.055-.23-.033-.29-.215-.066-.19-.03-.358.08-.414.11-.057.226.034.29.214zm-.315.17c.045.13.133.223.215.18.084-.04.092-.18.045-.317-.043-.12-.127-.224-.215-.18-.087.042-.09.185-.045.318z"/><path d="M768.753 619.004l-.01.006.028.14c.015.13-.03.22-.103.26l-.05.017c-.09.007-.177-.075-.23-.225l-.027-.135c-.014-.125.026-.225.104-.265l.055-.017c.087-.007.172.076.225.225l.008-.006.008-.003c-.052-.15-.145-.248-.242-.237l-.058.02c-.086.04-.13.15-.118.285l.03.144c.056.154.15.247.248.238l.055-.02c.082-.04.132-.145.118-.283l-.032-.146-.007.004zm-.315.17l-.01.006c.04.113.11.203.19.196l.035-.013c.063-.03.088-.112.077-.207l-.026-.125c-.037-.104-.106-.204-.19-.196l-.035.01c-.065.033-.09.116-.08.207l.028.13.01-.005.01-.004-.026-.12c-.008-.085.013-.155.065-.183l.03-.01c.067-.008.134.08.17.183l.026.118c.007.088-.013.154-.066.183l-.03.012c-.063.008-.132-.07-.17-.18l-.01.003z"/><path d="M768.604 618.582c.07.207.023.362-.082.416-.107.055-.226-.032-.286-.217-.065-.19-.03-.353.08-.41.11-.058.225.032.288.212zm-.315.17c.042.13.13.224.212.182.083-.044.09-.182.046-.317-.04-.12-.127-.227-.216-.183-.087.045-.09.188-.043.318z"/><path d="M768.604 618.582l-.01.003.03.14c.012.133-.03.226-.106.264l-.05.014c-.087.01-.175-.072-.226-.226l-.03-.136c-.01-.126.028-.22.104-.263l.052-.014c.09-.01.177.07.228.22l.008-.004.01-.004c-.053-.154-.147-.246-.245-.237l-.06.02c-.086.043-.13.15-.116.283l.033.146c.054.156.146.247.242.237l.057-.018c.08-.04.13-.147.116-.287l-.03-.145-.01.004zm-.315.17l-.01.004c.038.115.107.204.187.198l.038-.01c.062-.032.086-.117.076-.21l-.025-.124c-.037-.107-.107-.207-.19-.2l-.036.013c-.063.032-.088.116-.078.204l.028.13.01-.005.008-.006-.028-.122c-.008-.083.013-.15.066-.18l.03-.01c.068-.006.138.08.174.186l.022.114c.01.09-.012.156-.064.186l-.032.01c-.062.008-.132-.07-.168-.184l-.01.006z"/><path d="M768.454 618.168c.07.207.02.36-.08.414-.108.056-.228-.03-.29-.213-.064-.194-.027-.36.082-.417.11-.055.227.035.288.215zm-.313.17c.044.13.134.224.216.18.082-.04.093-.18.045-.315-.04-.123-.126-.228-.214-.183-.09.042-.09.184-.045.317z"/><path d="M768.454 618.168l-.01.005.03.14c.01.13-.03.222-.105.26l-.054.016c-.087.007-.175-.074-.226-.223l-.03-.138c-.01-.128.03-.225.105-.265l.05-.014c.09-.01.176.074.23.223l.01-.005.007-.005c-.052-.152-.146-.247-.243-.238l-.06.02c-.084.042-.13.15-.116.286l.032.146c.053.154.146.245.244.236l.058-.02c.08-.04.13-.145.116-.283l-.032-.147-.008.005zm-.313.17l-.008.002c.037.116.11.207.19.2l.035-.013c.062-.03.088-.112.078-.206l-.027-.125c-.037-.107-.106-.206-.19-.197l-.037.012c-.06.03-.085.114-.076.205l.028.125.01-.003.01-.004-.026-.122c-.01-.082.01-.15.064-.18l.03-.01c.07-.008.138.08.173.185l.024.117c.007.088-.013.155-.065.184l-.03.01c-.064.006-.136-.072-.17-.183l-.01.004z"/><path d="M768.31 617.73c.072.204.023.36-.077.41-.108.06-.23-.03-.29-.212-.063-.19-.028-.357.08-.414.11-.055.225.035.288.216zm-.313.17c.043.13.13.223.213.178.083-.04.09-.18.045-.314-.04-.12-.127-.227-.215-.182-.09.044-.09.185-.043.318z"/><path d="M768.31 617.73l-.008.004.03.142c.012.13-.032.22-.105.257l-.05.016c-.088.008-.176-.074-.227-.224l-.03-.134c-.012-.128.027-.226.104-.266l.053-.016c.09-.01.174.075.225.224l.01-.004.008-.007c-.053-.15-.145-.247-.242-.236l-.06.018c-.086.044-.13.152-.117.287l.032.143c.056.155.148.246.247.237l.055-.02c.082-.037.132-.143.117-.28l-.033-.146-.01.004zm-.313.17l-.01.004c.036.113.108.202.187.195l.037-.012c.063-.03.088-.115.08-.21l-.027-.12c-.036-.106-.106-.208-.19-.2l-.036.014c-.064.03-.085.114-.077.203l.026.13.01-.005.01-.004-.027-.123c-.01-.083.01-.15.064-.18l.03-.01c.068-.01.138.08.173.183l.024.115c.01.09-.013.157-.064.186l-.032.01c-.063.008-.133-.07-.17-.18l-.007.004zM769.335 620.712c.07.206.022.36-.08.413-.108.056-.226-.03-.288-.215-.065-.192-.03-.355.08-.412s.224.033.288.214zm-.314.17c.047.13.132.22.217.18.084-.043.09-.182.045-.315-.04-.12-.127-.227-.216-.184-.087.045-.09.186-.045.318z"/><path d="M769.335 620.712l-.01.005.03.136c.013.132-.03.225-.105.264l-.05.015c-.087.008-.175-.072-.226-.225l-.03-.137c-.013-.125.027-.22.105-.26l.05-.016c.088-.01.174.072.227.223l.008-.005.01-.004c-.054-.156-.146-.247-.245-.24l-.057.02c-.086.045-.13.15-.117.286l.032.142c.053.156.146.25.243.238l.06-.018c.08-.04.13-.146.115-.283l-.03-.145-.01.004zm-.314.17l-.008.003c.038.116.11.204.19.198l.035-.013c.062-.03.086-.114.077-.207l-.026-.125c-.036-.107-.11-.204-.19-.198l-.036.012c-.063.034-.088.117-.077.208l.027.125.01-.004.01-.003-.026-.12c-.01-.083.01-.153.065-.183l.03-.01c.068-.01.14.078.173.184l.024.116c.007.087-.013.157-.065.184l-.03.01c-.066.007-.135-.07-.17-.18l-.01.003z"/><path d="M769.186 620.29c.07.206.023.36-.08.413-.107.056-.227-.032-.29-.213-.062-.19-.026-.357.083-.414.108-.055.224.033.286.213zm-.314.17c.044.13.13.22.214.18.083-.043.092-.182.045-.316-.04-.12-.126-.225-.214-.18-.088.044-.09.184-.044.316z"/><path d="M769.186 620.29l-.01.005.03.14c.014.13-.032.22-.106.258l-.052.018c-.085.01-.172-.073-.224-.222l-.03-.136c-.01-.126.028-.223.106-.264l.053-.016c.087-.008.172.07.223.223l.01-.006.01-.005c-.053-.152-.147-.246-.243-.236l-.06.018c-.087.042-.13.152-.117.286l.03.142c.056.155.147.247.245.237l.06-.02c.082-.04.132-.144.12-.28l-.035-.147-.01.003zm-.314.17l-.01.005c.038.114.11.203.19.196l.034-.012c.062-.03.086-.113.078-.208l-.028-.122c-.037-.108-.105-.205-.188-.197l-.036.012c-.065.032-.09.115-.077.206l.027.127.01-.005.01-.003-.026-.12c-.01-.086.01-.154.065-.185l.03-.008c.067-.01.137.077.17.182l.026.117c.008.086-.014.154-.064.185l-.03.008c-.065.01-.135-.07-.17-.18l-.01.004z"/><path d="M769.038 619.875c.067.206.02.36-.082.413-.106.057-.228-.03-.287-.214-.066-.19-.03-.357.08-.413.11-.056.227.034.288.215zm-.314.17c.046.13.132.22.216.18.084-.044.093-.182.045-.315-.04-.12-.127-.227-.215-.183-.09.044-.09.186-.046.32z"/><path d="M769.038 619.875l-.01.003.028.138c.014.133-.032.226-.104.264l-.052.015c-.085.01-.174-.07-.224-.224l-.03-.134c-.012-.127.03-.224.106-.264l.05-.017c.088-.008.172.073.225.223l.01-.003.01-.005c-.053-.154-.145-.248-.244-.238l-.057.02c-.086.04-.13.15-.117.287l.03.14c.052.157.147.247.244.238l.056-.018c.082-.04.132-.146.118-.285l-.032-.146-.008.005zm-.314.17l-.01.005c.04.115.113.2.19.195l.037-.01c.063-.033.087-.114.077-.206l-.027-.128c-.034-.107-.105-.204-.188-.2l-.036.013c-.065.033-.09.118-.078.21l.026.125.01-.004.01-.006-.026-.118c-.005-.086.013-.155.066-.184l.03-.01c.07-.008.136.08.17.184l.027.12c.008.087-.012.15-.064.18l-.03.01c-.064.007-.134-.07-.173-.182l-.01.006z"/><path d="M768.893 619.438c.072.206.025.358-.078.414-.107.057-.228-.03-.29-.216-.064-.19-.027-.356.08-.413.112-.056.226.034.288.215zm-.314.167c.044.132.13.223.214.182.083-.043.092-.18.046-.317-.042-.122-.127-.224-.215-.18-.087.042-.092.185-.046.315z"/><path d="M768.893 619.438l-.008.005.03.142c.013.13-.03.218-.104.257l-.052.017c-.085.008-.174-.072-.227-.225l-.027-.136c-.013-.126.028-.226.106-.265l.05-.017c.088-.007.174.074.225.225l.008-.005.01-.004c-.054-.155-.145-.25-.243-.24l-.058.018c-.087.045-.132.154-.117.29l.03.14c.054.158.148.25.247.24l.058-.018c.08-.043.13-.146.116-.28l-.032-.147h-.01zm-.314.167l-.01.004c.037.114.11.204.188.196l.037-.01c.062-.033.086-.115.078-.208l-.028-.125c-.037-.106-.105-.205-.19-.2l-.034.015c-.064.032-.087.114-.077.205l.027.125.01-.003.01-.006-.027-.12c-.01-.084.013-.15.066-.182l.03-.01c.066-.007.135.08.17.182l.025.12c.008.087-.015.154-.065.183l-.03.012c-.063.006-.134-.072-.17-.186l-.01.005zM767.584 615.59c.072.21.023.363-.08.414-.107.057-.228-.03-.288-.213-.064-.19-.028-.356.08-.413.11-.058.225.03.288.213zm-.313.17c.044.13.133.225.215.18.086-.04.094-.178.045-.314-.04-.122-.125-.226-.214-.18-.087.044-.087.183-.045.314z"/><path d="M767.584 615.59l-.01.005.03.143c.013.13-.03.22-.103.258l-.05.015c-.09.012-.177-.07-.23-.22l-.027-.138c-.012-.125.025-.223.104-.264l.052-.016c.087-.007.173.074.224.223l.01-.005.01-.003c-.054-.153-.147-.25-.245-.238l-.058.018c-.086.044-.13.154-.117.286l.032.145c.053.153.146.244.242.235l.06-.02c.082-.037.128-.14.116-.28l-.033-.145h-.01zm-.313.17l-.01.006c.04.115.112.204.19.196l.037-.01c.063-.033.086-.115.076-.207l-.026-.126c-.036-.11-.104-.207-.188-.2l-.038.014c-.064.03-.088.115-.08.207l.027.126.01-.006.01-.004-.025-.12c-.006-.083.01-.15.065-.18l.033-.012c.067-.005.132.08.168.183l.026.12c.008.086-.014.153-.064.18l-.032.01c-.064.01-.133-.068-.17-.18l-.01.003z"/><path d="M767.436 615.17c.07.207.022.36-.08.413-.108.054-.228-.03-.29-.213-.063-.192-.026-.357.083-.415.11-.056.223.035.286.216zm-.315.17c.046.13.132.223.214.182.084-.045.093-.183.046-.317-.042-.12-.126-.228-.215-.183-.086.045-.09.186-.044.317z"/><path d="M767.436 615.17l-.01.005.03.142c.012.128-.03.22-.104.257l-.052.015c-.088.008-.175-.07-.228-.222l-.028-.134c-.01-.126.028-.226.106-.267l.052-.016c.088-.007.173.077.224.225l.01-.004.01-.004c-.055-.153-.146-.248-.245-.24l-.056.02c-.088.046-.13.153-.118.29l.03.14c.056.156.15.247.246.237l.056-.017c.084-.043.132-.146.118-.282l-.03-.146-.01.003zm-.315.17l-.01.004c.04.115.11.204.19.197l.035-.01c.062-.03.087-.114.08-.208l-.03-.125c-.036-.107-.106-.207-.188-.2l-.035.012c-.065.034-.087.12-.078.21l.025.124.01-.005.01-.005-.026-.117c-.01-.086.013-.156.065-.187l.03-.007c.065-.01.135.08.17.183l.024.118c.01.09-.013.155-.062.184l-.032.01c-.062.008-.133-.07-.17-.183l-.01.004z"/><path d="M767.288 614.755c.07.207.02.36-.082.413-.108.056-.226-.03-.287-.216-.066-.19-.03-.356.077-.412.112-.057.232.034.29.215zm-.31.168c.042.132.128.224.21.18.084-.04.093-.178.046-.314-.04-.12-.125-.23-.216-.182-.086.042-.088.183-.04.315z"/><path d="M767.288 614.755l-.01.004.03.14c.012.13-.03.22-.105.26l-.052.014c-.088.01-.172-.072-.226-.222l-.028-.137c-.01-.127.026-.224.104-.264l.05-.013c.09-.01.18.072.23.222l.008-.005.01-.005c-.053-.156-.147-.247-.25-.238l-.054.018c-.086.044-.127.153-.115.286l.03.145c.054.157.146.248.244.237l.056-.017c.083-.04.132-.146.12-.282l-.033-.146-.01.003zm-.31.168l-.012.005c.04.117.108.204.188.197l.035-.012c.062-.03.087-.114.076-.207l-.026-.125c-.035-.104-.105-.204-.188-.197l-.038.012c-.063.03-.085.116-.076.205l.028.128.01-.005.008-.004-.025-.122c-.01-.085.012-.153.062-.18l.032-.01c.068-.01.134.08.173.183l.023.117c.008.09-.014.155-.066.183l-.03.01c-.064.008-.132-.068-.17-.18l-.007.003z"/><path d="M767.145 614.315c.07.208.022.362-.082.415-.106.055-.225-.03-.287-.216-.063-.19-.028-.356.078-.41.112-.058.228.035.29.21zm-.315.17c.044.13.13.224.214.18.084-.04.09-.18.043-.315-.04-.12-.124-.225-.213-.18-.087.042-.09.184-.044.314z"/><path d="M767.145 614.315l-.01.005.03.143c.013.13-.032.22-.106.258l-.05.016c-.088.01-.174-.072-.23-.223l-.027-.137c-.01-.125.028-.222.104-.26l.052-.018c.09-.01.175.075.226.222l.01-.005.008-.003c-.054-.152-.146-.246-.244-.237l-.06.02c-.086.042-.128.148-.115.284l.03.142c.056.154.147.247.246.237l.057-.018c.084-.04.134-.146.12-.28l-.033-.148h-.01zm-.315.17l-.01.005c.04.115.11.204.19.197l.034-.013c.065-.03.087-.114.077-.205l-.025-.13c-.035-.104-.105-.2-.19-.196l-.034.014c-.064.03-.086.115-.078.204l.028.127.01-.006.008-.004-.025-.12c-.008-.084.013-.15.065-.18l.032-.01c.066-.008.135.078.17.18l.023.12c.008.086-.012.156-.063.183l-.03.012c-.064.005-.135-.073-.172-.185l-.008.004zM768.167 617.3c.07.203.022.356-.08.412-.106.055-.227-.032-.29-.215-.062-.19-.027-.355.082-.412.11-.056.225.03.287.214zm-.313.167c.045.13.133.225.215.18.08-.04.09-.182.044-.314-.04-.122-.125-.227-.215-.182-.09.045-.09.187-.046.317z"/><path d="M768.167 617.3l-.01.003.03.14c.014.13-.03.22-.104.26l-.052.015c-.085.01-.173-.07-.226-.222l-.03-.134c-.01-.128.028-.226.106-.266l.053-.016c.088-.01.172.072.225.223l.01-.004.01-.007c-.055-.155-.147-.245-.245-.236l-.058.017c-.087.046-.13.153-.117.29l.03.14c.055.158.147.25.245.238l.057-.02c.084-.04.132-.146.118-.282l-.03-.146-.01.005zm-.313.167l-.01.005c.04.115.11.203.19.197l.037-.014c.063-.03.087-.115.08-.21l-.028-.12c-.038-.11-.108-.206-.188-.2l-.037.012c-.065.033-.088.117-.08.207l.028.127.01-.005.01-.005-.026-.118c-.01-.086.01-.153.064-.184l.032-.01c.065-.008.134.078.17.185l.023.114c.007.087-.014.158-.065.187l-.03.007c-.064.01-.136-.07-.172-.182l-.01.005z"/><path d="M768.02 616.877c.07.207.02.36-.082.414-.106.055-.225-.032-.287-.214-.062-.19-.027-.357.08-.412.112-.056.227.033.29.213zm-.315.17c.045.13.13.223.214.18s.09-.18.043-.314c-.042-.123-.126-.227-.212-.184-.09.04-.09.184-.045.316z"/><path d="M768.02 616.877l-.01.005.03.138c.012.13-.032.224-.104.26l-.052.017c-.088.007-.173-.073-.226-.223l-.03-.136c-.01-.126.028-.224.105-.264l.054-.014c.09-.01.175.072.227.222l.006-.005.01-.004c-.055-.155-.147-.248-.245-.238l-.06.017c-.086.045-.127.154-.115.288l.03.144c.057.154.147.244.246.236l.056-.02c.082-.04.134-.145.12-.282l-.034-.145-.008.004zm-.315.17l-.01.003c.04.117.11.205.19.2l.034-.012c.062-.033.085-.115.077-.21l-.027-.124c-.037-.107-.105-.204-.188-.197l-.036.012c-.067.028-.088.113-.08.204l.028.126.01-.004.01-.003-.026-.122c-.008-.085.013-.152.066-.182l.03-.01c.067-.007.135.08.17.186l.026.117c.008.088-.014.157-.065.187l-.028.007c-.065.007-.135-.07-.174-.18l-.008.002z"/><path d="M767.87 616.46c.07.208.02.36-.08.415-.106.054-.228-.034-.29-.217-.062-.188-.026-.354.083-.41.112-.056.226.033.287.213zm-.312.172c.046.13.13.22.214.182.082-.047.093-.185.045-.318-.04-.12-.125-.226-.216-.18-.086.042-.09.186-.042.316z"/><path d="M767.87 616.46l-.01.004.03.144c.014.128-.03.22-.104.257l-.05.016c-.087.01-.176-.07-.228-.224l-.028-.134c-.013-.124.026-.222.104-.263l.053-.016c.088-.008.174.073.225.22l.008-.003.01-.005c-.054-.152-.147-.244-.243-.235l-.058.02c-.088.04-.13.15-.118.284l.03.142c.054.156.147.248.246.24l.056-.02c.082-.04.13-.146.12-.28l-.035-.148-.01.003zm-.312.172l-.01.005c.04.114.112.2.19.195l.035-.01c.062-.035.086-.116.078-.21l-.026-.124c-.035-.106-.105-.205-.19-.2l-.037.015c-.062.034-.087.115-.075.206l.027.127.008-.005.01-.005-.026-.12c-.01-.084.012-.153.064-.183l.03-.01c.07-.01.138.08.17.182l.027.117c.008.09-.013.156-.065.188l-.028.008c-.066.01-.134-.07-.173-.18l-.01.004z"/><path d="M767.727 616.02c.07.21.022.36-.08.417-.107.055-.226-.03-.29-.215-.062-.19-.024-.355.083-.415.11-.053.224.036.287.214zm-.314.172c.045.13.13.223.214.183.083-.045.092-.184.045-.318-.042-.122-.126-.226-.215-.182-.086.044-.09.187-.044.317z"/><path d="M767.727 616.02l-.01.005.03.14c.012.133-.03.222-.104.262l-.052.016c-.086.01-.172-.07-.223-.222l-.03-.133c-.013-.128.026-.226.105-.265l.054-.018c.086-.007.173.073.224.22l.007-.003.01-.005c-.055-.152-.147-.244-.243-.234l-.058.018c-.087.044-.13.155-.117.29l.028.143c.056.156.15.245.246.237l.055-.017c.08-.044.13-.147.116-.286l-.03-.146-.01.003zm-.314.172l-.01.005c.04.115.11.205.19.197l.036-.01c.06-.034.084-.117.076-.21l-.028-.125c-.036-.108-.106-.207-.188-.2l-.037.013c-.065.032-.086.117-.077.21l.026.124.01-.005.01-.005-.025-.12c-.01-.084.013-.152.063-.184l.032-.01c.065-.006.135.08.172.184l.023.118c.01.09-.012.157-.063.188l-.03.007c-.064.008-.134-.07-.173-.183l-.007.005zM766.422 612.19c.07.206.02.36-.083.41-.107.06-.227-.03-.286-.214-.066-.188-.028-.355.08-.412.11-.053.223.035.288.216zm-.315.168c.047.132.133.224.215.18.084-.042.092-.18.045-.316-.04-.12-.126-.226-.213-.18-.09.043-.092.187-.047.316z"/><path d="M766.422 612.19l-.01.004.03.14c.012.13-.032.22-.106.258l-.05.018c-.087.007-.175-.073-.226-.226l-.03-.134c-.01-.125.027-.224.105-.264l.053-.016c.088-.006.173.075.225.225l.01-.005.008-.006c-.052-.153-.145-.247-.242-.237l-.06.018c-.084.044-.128.152-.115.285l.033.143c.05.157.146.248.24.24l.058-.02c.082-.04.133-.145.12-.283l-.033-.146-.008.006zm-.315.168l-.01.005c.04.113.11.203.19.196l.037-.013c.062-.032.086-.114.076-.206l-.027-.124c-.035-.106-.106-.206-.188-.2l-.035.015c-.064.03-.09.114-.08.206l.027.127.01-.005.01-.005-.027-.12c-.006-.083.014-.153.066-.183l.03-.01c.068-.006.138.08.17.183l.026.12c.008.086-.012.154-.064.186l-.03.007c-.065.007-.134-.07-.17-.184l-.01.005z"/><path d="M766.27 611.77c.07.206.023.36-.08.412-.106.055-.227-.03-.286-.215-.066-.19-.03-.355.08-.412.112-.058.227.034.287.214zm-.312.168c.043.13.132.22.215.178.082-.04.092-.18.044-.312-.04-.12-.125-.225-.215-.18-.085.04-.09.182-.044.314z"/><path d="M766.27 611.77l-.01.002.032.143c.012.13-.032.22-.105.258l-.05.016c-.087.01-.176-.073-.227-.224l-.03-.135c-.012-.125.028-.224.105-.263l.055-.016c.086-.008.172.076.223.224l.008-.005.01-.006c-.052-.153-.145-.246-.24-.237l-.06.02c-.087.043-.132.15-.117.285l.03.144c.054.155.148.245.245.236l.057-.017c.082-.042.13-.146.117-.283l-.03-.146-.01.003zm-.312.168l-.01.006c.04.113.112.2.19.193l.036-.01c.062-.032.086-.116.076-.207l-.026-.125c-.037-.107-.107-.205-.188-.197l-.038.013c-.064.03-.086.114-.077.205l.03.13.008-.007.01-.005-.026-.122c-.008-.08.012-.148.064-.18l.032-.008c.065-.01.135.08.17.182l.025.118c.007.088-.015.155-.064.182l-.033.01c-.063.008-.134-.07-.17-.18l-.01.004z"/><path d="M766.124 611.354c.07.206.024.358-.08.413-.108.055-.226-.03-.29-.215-.063-.188-.027-.356.08-.413.113-.056.228.033.29.214zm-.315.167c.046.13.134.225.217.18.083-.042.092-.18.045-.313-.04-.122-.127-.227-.216-.182-.088.045-.09.185-.047.316z"/><path d="M766.124 611.354l-.01.006.03.142c.015.126-.03.217-.104.255l-.052.017c-.086.007-.174-.073-.227-.225l-.026-.133c-.014-.126.026-.225.104-.263l.053-.018c.087-.007.175.074.228.225l.006-.006.01-.005c-.054-.153-.147-.248-.246-.235l-.056.016c-.086.044-.13.156-.118.29l.032.14c.054.155.146.246.246.237l.056-.018c.083-.044.13-.147.12-.28l-.035-.148-.01.002zm-.315.167l-.008.006c.04.112.11.205.19.196l.035-.012c.062-.032.088-.114.078-.206l-.026-.124c-.04-.106-.11-.207-.19-.2l-.038.014c-.064.03-.087.114-.078.206l.027.126.01-.005.01-.003-.024-.12c-.01-.085.01-.153.067-.182l.032-.01c.064-.008.134.08.166.183l.027.117c.008.087-.015.155-.065.185l-.03.01c-.063.005-.134-.072-.172-.183l-.01.004z"/><path d="M765.98 610.914c.068.208.022.36-.08.414-.108.056-.227-.03-.29-.214-.064-.19-.027-.357.083-.415.11-.055.226.033.287.214zm-.313.17c.045.13.132.22.214.18.085-.043.093-.178.047-.317-.042-.12-.127-.226-.217-.18-.086.045-.088.184-.043.318z"/><path d="M765.98 610.914l-.01.006.03.136c.013.13-.032.223-.106.26l-.052.02c-.085.007-.17-.074-.224-.223l-.03-.138c-.01-.124.03-.224.105-.263l.053-.015c.088-.01.172.07.225.223l.01-.006.01-.004c-.053-.153-.146-.248-.243-.237l-.06.018c-.086.044-.13.154-.116.286l.033.146c.053.154.146.244.24.235l.06-.02c.083-.04.132-.144.118-.284l-.03-.144-.01.004zm-.313.17l-.01.007c.042.115.112.203.19.197l.034-.01c.063-.035.087-.12.08-.215l-.027-.12c-.037-.11-.107-.207-.19-.198l-.036.012c-.064.03-.086.115-.077.205l.028.13.01-.005.008-.004-.027-.12c-.007-.085.013-.154.065-.184l.032-.01c.067-.007.136.08.17.183l.024.116c.01.09-.012.156-.064.188l-.03.01c-.06.004-.133-.073-.17-.184l-.01.005zM767.005 613.896c.07.204.022.36-.082.414-.106.057-.224-.03-.287-.214-.062-.192-.025-.358.08-.413.113-.056.227.032.29.213zm-.316.168c.046.13.132.225.216.18.085-.038.093-.178.045-.316-.04-.12-.125-.224-.214-.178-.09.043-.09.185-.047.314z"/><path d="M767.005 613.896l-.008.004.03.14c.012.13-.034.22-.108.26l-.05.017c-.086.01-.173-.072-.228-.223l-.026-.136c-.015-.127.026-.225.104-.263l.054-.017c.087-.01.173.073.225.222l.005-.004.008-.006c-.05-.152-.144-.246-.24-.236l-.06.018c-.086.044-.13.152-.116.288l.03.144c.054.154.147.244.244.235l.057-.02c.083-.04.134-.145.12-.283l-.034-.146-.008.006zm-.316.168l-.01.003c.04.115.113.206.19.2l.037-.012c.062-.03.086-.113.077-.206l-.026-.13c-.038-.104-.107-.202-.19-.196l-.038.015c-.063.03-.086.113-.076.202l.027.125.01-.003.01-.006-.026-.12c-.007-.08.012-.148.066-.18l.03-.01c.067-.007.138.08.17.182l.025.12c.008.087-.01.155-.063.182l-.03.012c-.065.005-.134-.073-.17-.186l-.013.006z"/><path d="M766.855 613.476c.07.205.022.358-.082.412-.105.058-.225-.028-.285-.213-.065-.19-.03-.357.078-.413.114-.058.228.032.29.214zm-.314.17c.046.13.133.223.216.182.085-.043.094-.18.045-.318-.04-.123-.126-.226-.213-.18-.088.042-.09.184-.046.315z"/><path d="M766.855 613.476l-.01.006.03.14c.012.13-.032.218-.106.257l-.052.015c-.087.01-.172-.07-.224-.223l-.03-.137c-.012-.125.026-.222.104-.263l.053-.015c.09-.008.174.075.225.224l.01-.004.008-.005c-.053-.15-.146-.246-.24-.236l-.06.02c-.087.042-.13.15-.116.284l.03.143c.052.158.147.25.243.24l.06-.02c.08-.04.132-.146.116-.28l-.033-.147-.008.003zm-.314.17l-.007.005c.04.115.11.204.188.197l.036-.01c.064-.033.088-.114.08-.21l-.028-.125c-.037-.107-.106-.205-.188-.197l-.037.01c-.065.033-.086.12-.078.21l.028.126.008-.005.01-.005-.024-.116c-.01-.088.013-.155.065-.186l.033-.01c.066-.008.135.08.17.183l.023.12c.008.087-.013.156-.065.185l-.028.01c-.064.007-.134-.07-.172-.185l-.01.005z"/><path d="M766.708 613.06c.07.208.022.36-.08.415-.108.056-.23-.033-.29-.215-.064-.19-.027-.357.08-.414.113-.057.228.034.29.215zm-.315.17c.047.13.133.223.217.18.085-.04.093-.18.044-.315-.04-.12-.123-.225-.214-.182-.086.042-.09.185-.047.316z"/><path d="M766.708 613.06l-.01.005.03.14c.012.132-.03.222-.105.26l-.05.017c-.087.01-.177-.072-.23-.224l-.027-.133c-.013-.13.027-.228.104-.266l.052-.018c.088-.01.174.075.227.223l.008-.004.01-.004c-.053-.154-.146-.248-.245-.238l-.058.02c-.086.043-.132.153-.117.287l.03.142c.054.156.148.247.248.238l.056-.018c.082-.04.13-.146.118-.285l-.033-.146-.01.005zm-.315.17l-.008.003c.04.115.113.205.19.198l.035-.01c.062-.033.087-.115.077-.207l-.025-.127c-.037-.107-.106-.204-.19-.198l-.036.013c-.063.033-.086.12-.078.21l.027.123.008-.004.01-.006-.024-.116c-.007-.084.012-.153.065-.186l.03-.01c.07-.008.135.08.17.183l.025.12c.007.085-.012.155-.066.184l-.026.008c-.066.008-.136-.07-.174-.184l-.01.005z"/><path d="M766.564 612.62c.07.207.022.36-.08.416-.11.053-.23-.033-.29-.216-.062-.19-.027-.357.08-.413.114-.055.23.034.29.214zm-.315.17c.046.132.13.223.215.18.083-.04.092-.18.044-.315-.043-.12-.127-.228-.215-.183-.087.046-.09.186-.046.318z"/><path d="M766.564 612.62l-.01.005.03.14c.012.13-.032.222-.104.26l-.053.016c-.087.01-.172-.07-.225-.223l-.028-.136c-.013-.125.026-.222.104-.26l.053-.016c.09-.01.175.072.226.22l.008-.003.01-.003c-.055-.154-.146-.246-.244-.238l-.06.015c-.086.047-.13.154-.114.29l.028.14c.056.156.147.25.246.238l.058-.017c.082-.04.132-.146.117-.283l-.03-.146-.01.004zm-.315.17l-.01.005c.04.113.11.204.188.197l.038-.014c.062-.03.086-.11.076-.204l-.027-.128c-.037-.105-.105-.203-.188-.196l-.037.01c-.064.035-.087.12-.08.21l.03.125.01-.005.008-.003-.025-.12c-.007-.085.013-.154.066-.185l.03-.01c.068-.007.134.08.17.184l.023.12c.01.085-.012.154-.063.183l-.03.008c-.063.007-.132-.07-.172-.182l-.01.004z"/></g></svg>