<?xml version="1.0" encoding="iso-8859-1"?>
<!-- Generator: Adobe Illustrator 16.0.4, SVG Export Plug-In . SVG Version: 6.00 Build 0)  -->
<!DOCTYPE svg PUBLIC "-//W3C//DTD SVG 1.1//EN" "http://www.w3.org/Graphics/SVG/1.1/DTD/svg11.dtd">
<svg version="1.1" xmlns="http://www.w3.org/2000/svg" xmlns:xlink="http://www.w3.org/1999/xlink" x="0px" y="0px" width="1366px"
	 height="700px" viewBox="0 0 1366 700" style="enable-background:new 0 0 1366 700;" xml:space="preserve">
<g id="Measuring_Pocket_Rocks_3">
	<path style="fill:#231F20;" d="M772.661,642.417c0,0-1.248,0.172-1.323-0.259c-0.075-0.434-0.248-1.381-0.059-1.511
		c0.188-0.128,0.982-0.69,0.188-0.69c-0.305,0-0.417-0.689-0.267-0.861c0.152-0.172,0.341-0.258,0.188-0.733
		c-0.15-0.476-0.522-1.034-0.112-1.034c1.061,0-0.073-0.783,0.003-1.171c0.075-0.391,0.157-0.761,0.688-0.156
		c-0.04-0.046,2.515-0.449,0.875-0.031c0.343-0.086,0.7-0.155,0.775,0.02c0.074,0.173-0.032-0.255,0.385-0.212
		c0.417,0.042,0.832-0.174,1.062-0.174c0.227,0,0.643,0.346,0.793,0.52c0.151,0.172,0.037,0.52,0.529,0.302
		c0.492-0.217,1.021-0.732,1.399-0.776c0.379-0.043,0.72,0.647,0.983,0.647c0.267,0,0.522-0.32,1.166-0.45
		c0.688,0.062,1.281-0.188,1.595,0.062c0.15,0.39,0.38,0.688,0.303,0.949c-0.075,0.258-0.567,0.818-0.075,0.989
		c0.491,0.175,0.266-0.259,0.305,0.085c0.037,0.347,0.229,0.776,0,0.993c-0.228,0.215-0.869-0.173-0.188,0.732
		c0.297,0.395,0.416,0.905,0.341,1.034c-0.075,0.13,0.137,1.424-0.204,1.642c-0.342,0.214-0.795,0.043-1.211-0.389
		c-0.368-0.384-0.53,0.56-1.021,0.688c-0.491,0.131-0.832-1.38-1.324-0.56c-0.15,0.25-0.528-0.26-0.907,0.128
		c-0.379,0.389-0.906,0.389-1.172,0.389c-0.267,0-0.316-1.304-0.646-0.732c-0.645,1.122-1.1-0.475-1.553,0.345
		c-0.156,0.285-0.565-0.223-0.719-0.257C772.738,641.77,772.661,642.417,772.661,642.417z"/>
</g>
<g id="Layer_1">
</g>
</svg>
