<svg xmlns="http://www.w3.org/2000/svg" width="1366" height="700" viewBox="0 0 1366 700"><path d="M780.67 629.526s1.247-.183 1.322.275c.075.458.248 1.462.06 1.6-.19.137-.983.73-.19.73.306 0 .418.73.268.914-.152.182-.34.272-.19.777.152.504.524 1.096.114 1.096-1.06 0-.037.822-.113 1.234-.074.41-.15.96-.68.32-.17-.206-.417-.003-.758.09-.342.092-.487.37-.562.187-.074-.185-.194-.142-.61-.188-.418-.046-.66 0-.89 0-.228 0-.818.03-.97-.155-.15-.183-.164-.323-.655-.094-.492.23-.84.142-1.22.19-.38.044-.77-.487-1.034-.487-.266 0-.54.193-1.184.33s-.795.228-.945-.184c-.15-.414-.475-.575-.396-.85.074-.273.367-.316-.125-.5s-.603-.17-.64-.532c-.04-.365-.23-.82 0-1.054.227-.23.868.185.188-.775-.297-.418-.416-.96-.34-1.096.074-.14-.137-1.51.203-1.737.343-.23.796-.045 1.212.41.367.406.53-.593 1.02-.73.492-.136.833 1.464 1.325.595.15-.265.528.275.907-.137.38-.41.907-.41 1.172-.41.267 0 .315 1.382.646.775.645-1.19 1.1.503 1.553-.365.156-.302.565.235.72.273.717.185.794-.502.794-.502z" fill="#231f20"/></svg>