<svg xmlns="http://www.w3.org/2000/svg" width="1366" height="700" viewBox="0 0 1366 700"><path d="M772.692 630.636s-1.248.172-1.323-.26c-.076-.432-.25-1.38-.06-1.51.188-.128.982-.69.188-.69-.305 0-.417-.688-.267-.86.152-.173.342-.26.19-.734-.152-.475-.523-1.034-.113-1.034 1.06 0 .036-.775.112-1.164.075-.39.15-.906.68-.303.17.194.418-.128.76-.215.34-.086.682-.52.757-.345.074.173 0 .433.416.476.417.042.832-.173 1.06-.173.23 0 .645.345.794.52.152.17.038.52.53.3.492-.216 1.02-.73 1.4-.775.378-.043.72.647.98.647.27 0 .456-.562 1.1-.69.645-.128.796-.214.945.173.15.39.38.69.303.95-.074.257-.566.817-.074.99.49.173.982-.13 1.022.215.038.346.23.775 0 .993-.227.215-.87-.174-.188.73.297.397.416.907.34 1.035-.074.13.137 1.425-.203 1.643-.34.214-.794.043-1.21-.39-.368-.383-.53.56-1.022.69-.49.13-.832-1.382-1.323-.562-.15.25-.528-.26-.907.13-.38.388-.907.388-1.172.388-.268 0-.316-1.304-.646-.732-.644 1.123-1.1-.474-1.552.345-.157.286-.565-.22-.72-.256-.718-.176-.796.472-.796.472z" fill="#231f20"/></svg>