<?xml version="1.0" encoding="iso-8859-1"?>
<!-- Generator: Adobe Illustrator 16.0.4, SVG Export Plug-In . SVG Version: 6.00 Build 0)  -->
<!DOCTYPE svg PUBLIC "-//W3C//DTD SVG 1.1//EN" "http://www.w3.org/Graphics/SVG/1.1/DTD/svg11.dtd">
<svg version="1.1" xmlns="http://www.w3.org/2000/svg" xmlns:xlink="http://www.w3.org/1999/xlink" x="0px" y="0px" width="1366px"
	 height="700px" viewBox="0 0 1366 700" style="enable-background:new 0 0 1366 700;" xml:space="preserve">
<g id="Measuring_Pocket_Rocks_2">
	<path style="fill:#231F20;" d="M780.669,629.526c0,0,1.248-0.183,1.323,0.275c0.075,0.457,0.248,1.461,0.059,1.6
		c-0.188,0.136-0.982,0.73-0.188,0.73c0.305,0,0.417,0.729,0.267,0.913c-0.152,0.182-0.341,0.272-0.189,0.777
		c0.151,0.503,0.523,1.095,0.113,1.095c-1.061,0-0.037,0.822-0.113,1.234c-0.075,0.411-0.15,0.961-0.681,0.319
		c-0.17-0.205-0.417-0.002-0.758,0.09c-0.342,0.093-0.487,0.371-0.562,0.188c-0.074-0.185-0.194-0.142-0.611-0.188
		c-0.417-0.045-0.66,0.002-0.889,0.002c-0.228,0-0.818,0.029-0.97-0.156c-0.151-0.183-0.164-0.323-0.655-0.094
		c-0.492,0.228-0.841,0.141-1.22,0.188c-0.379,0.045-0.771-0.486-1.034-0.486c-0.267,0-0.541,0.193-1.185,0.33
		s-0.795,0.228-0.945-0.184c-0.15-0.413-0.476-0.574-0.397-0.849c0.074-0.273,0.367-0.316-0.125-0.5
		c-0.491-0.184-0.602-0.169-0.639-0.532c-0.039-0.365-0.229-0.821,0-1.054c0.227-0.229,0.868,0.185,0.188-0.775
		c-0.297-0.417-0.416-0.96-0.341-1.095c0.075-0.139-0.136-1.509,0.204-1.737c0.342-0.229,0.795-0.045,1.211,0.411
		c0.367,0.405,0.529-0.594,1.021-0.73c0.491-0.137,0.832,1.463,1.324,0.594c0.15-0.265,0.528,0.275,0.907-0.137
		c0.379-0.411,0.907-0.411,1.172-0.411c0.267,0,0.315,1.383,0.646,0.776c0.645-1.189,1.1,0.503,1.553-0.365
		c0.156-0.302,0.565,0.235,0.719,0.273C780.592,630.213,780.669,629.526,780.669,629.526z"/>
</g>
<g id="Layer_1">
</g>
</svg>
