<svg xmlns="http://www.w3.org/2000/svg" width="1366" height="700" viewBox="0 0 1366 700"><path d="M780.763 641.276s1.248-.183 1.323.275c.075.458.248 1.462.06 1.6-.19.137-.983.73-.19.73.306 0 .418.73.268.914-.15.182-.34.272-.188.777.15.504.522 1.096.112 1.096-1.06 0-.036.822-.112 1.234-.076.41-.15.96-.68.32-.172-.206-.42-.003-.76.09-.342.092-.487.37-.562.187-.074-.185-.194-.142-.61-.188-.418-.046-.66 0-.89 0-.228 0-.818.03-.97-.155-.15-.183-.163-.323-.655-.094-.493.23-.84.142-1.22.19-.38.044-.77-.487-1.034-.487-.268 0-.54.193-1.186.33-.644.137-.795.228-.944-.184-.15-.414-.477-.575-.398-.85.075-.273.367-.316-.125-.5-.49-.184-.602-.17-.64-.532-.037-.365-.228-.82 0-1.054.228-.23.87.185.19-.775-.298-.418-.417-.96-.342-1.096.076-.14-.135-1.51.205-1.737.342-.23.795-.045 1.21.41.37.406.53-.593 1.022-.73s.832 1.464 1.324.595c.15-.265.53.275.908-.137.38-.41.907-.41 1.172-.41.267 0 .316 1.382.646.775.645-1.19 1.1.503 1.553-.365.155-.302.564.235.718.273.718.185.795-.502.795-.502z" fill="#231f20"/></svg>