<svg xmlns="http://www.w3.org/2000/svg" width="1366" height="700" viewBox="0 0 1366 700"><path d="M772.66 642.417s-1.247.172-1.322-.26c-.075-.433-.248-1.38-.06-1.51.19-.128.983-.69.19-.69-.306 0-.418-.69-.268-.86.152-.173.34-.26.188-.734-.15-.476-.522-1.034-.112-1.034 1.06 0-.073-.784.003-1.172.074-.39.156-.76.687-.156-.04-.046 2.515-.45.875-.03.343-.087.7-.156.775.02.074.172-.032-.256.385-.213.417.04.832-.175 1.062-.175.227 0 .643.346.793.52.15.172.037.52.53.302.49-.217 1.02-.732 1.398-.776.38-.042.72.648.983.648.267 0 .522-.32 1.166-.45.688.062 1.28-.188 1.595.062.15.39.38.688.302.95-.075.257-.567.817-.075.988.49.175.266-.26.305.085.037.347.23.776 0 .993-.228.215-.87-.173-.188.732.297.395.416.905.34 1.034-.074.13.138 1.424-.203 1.642-.34.214-.794.043-1.21-.39-.368-.383-.53.56-1.02.69-.492.13-.833-1.38-1.325-.56-.15.25-.528-.26-.907.127-.38.39-.906.39-1.172.39-.267 0-.316-1.304-.646-.732-.645 1.122-1.1-.475-1.553.345-.156.285-.565-.223-.72-.257-.72-.176-.796.47-.796.47z" fill="#231f20"/></svg>