<?xml version="1.0" encoding="iso-8859-1"?>
<!-- Generator: Adobe Illustrator 16.0.4, SVG Export Plug-In . SVG Version: 6.00 Build 0)  -->
<!DOCTYPE svg PUBLIC "-//W3C//DTD SVG 1.1//EN" "http://www.w3.org/Graphics/SVG/1.1/DTD/svg11.dtd">
<svg version="1.1" xmlns="http://www.w3.org/2000/svg" xmlns:xlink="http://www.w3.org/1999/xlink" x="0px" y="0px" width="1366px"
	 height="700px" viewBox="0 0 1366 700" style="enable-background:new 0 0 1366 700;" xml:space="preserve">
<g id="Rockpile_from_headframe_3">
	<path style="fill:#231F20;" d="M729.542,209.5c0.021,0.438,0.146,0.743,0.43,0.783c0.28,0.039,0.492,0.402,0.492,0.645
		c0,0.241-0.143,0.441-0.177,0.683c-0.032,0.241,0.037,0.483,0.212,0.604c0.177,0.12,0.421-0.042,0.562,0.201
		c0.143,0.241,0.07-0.119-0.033,0.564c-0.108,0.686-0.573,0.469-0.114,0.792c0,0-0.333-0.042-0.458,0.083s-0.396-0.146-0.771-0.271
		s-0.209,0.083-0.479,0.188c-0.271,0.105-0.542-0.062-0.896-0.229c-0.354-0.167-0.312,0.042-0.584,0.167
		c-0.271,0.125-0.708,0.062-1-0.021s-0.312-0.146-0.521-0.146s-0.812,0.104-1.021,0.062s-0.209-0.125-0.542-0.125
		s-0.229,0.083-0.438,0.208s-0.396,0.042-0.667-0.104c-0.271-0.146-0.416-0.021-0.583,0.062s-0.688,0.146-1.042,0.167
		c-0.209,0.012-0.791,0.021-1.041-0.104c-0.468-0.234-0.543-0.063-0.771-0.021c-0.228,0.042-0.583,0.062-0.791,0
		s-0.209-0.083-0.375-0.062s-0.459,0.208-0.604,0.125c-0.146-0.083-0.25-0.104-0.417-0.104s-0.25,0.167-0.896,0.167
		c-0.646,0-1.104-0.188-1.333-0.188c-0.229,0-0.667,0.188-0.854,0.25c-0.188,0.062-0.646-0.104-0.854-0.271s-0.188,0-0.271,0.021
		s-0.333,0.146-0.625,0.167s-0.875-0.229-0.958-0.229s-0.417,0.104-0.771,0.125c-0.354,0.021-0.312-0.125-0.625-0.146
		c-0.312-0.021-0.729,0.188-0.833,0.208c-0.104,0.02-0.417-0.188-0.583-0.208s-0.792,0.125-0.875,0.146s-0.417-0.083-0.417-0.083
		s-0.438,0.167-0.646,0.208s-0.834-0.125-1.021-0.208c-0.187-0.083-0.854,0.125-1.021,0.146s-0.66-0.171-0.66-0.171
		c0.422-0.202,0.742,0.163,0.777-0.16c0.03-0.323,0.033-0.444,0.209-0.564c0.177-0.123,0.526,0.04,0.526-0.243
		c0-0.283-0.211-0.483-0.104-0.604c0.104-0.119,0.104,0.081,0.424-0.361c0.315-0.446,0.633-0.563,0.49-0.887
		c-0.142-0.323-0.244-0.282-0.104-0.806c0,0,0.17-0.204,0.379-0.163s0.313,0.104,0.709,0.042c0.396-0.062,0.582-0.125,0.729-0.104
		c0.146,0.021,0.418,0.229,0.646,0.104c0.229-0.125,0.271-0.25,0.438-0.229s0.709,0.292,0.875,0.292s0.479-0.104,0.688-0.125
		s0.291,0.187,0.521,0.104c0.229-0.083,1.062,0.021,1.229-0.042s0.416,0.125,0.604,0.042c0.188-0.083,0.104-0.167,0.562-0.167
		s0.459,0.083,0.604,0.104c0.145,0.021,0.374-0.041,0.583-0.146s0.416-0.188,0.562-0.083c0.146,0.105,0.25,0.25,0.375,0.229
		s0.291,0.021,0.438-0.104c0.146-0.125,0.668-0.167,0.771-0.104c0.104,0.063,0.707,0.25,0.854,0.208
		c0.146-0.042,0.312-0.083,0.521-0.167s0.479-0.104,0.729,0.021s0.812,0.271,1,0.125c0.188-0.146,0.042-0.375,0.354-0.25
		c0.312,0.125,0.583,0.312,0.833,0.271s0.479,0.167,0.667-0.042c0.188-0.209,0.521-0.313,0.625-0.271
		c0.104,0.042,0.229,0.271,0.5,0.25c0.271-0.021,0.583,0.042,0.708-0.062s0.083-0.208,0.375-0.062s0.105,0.209,0.771,0.167
		s0.667-0.167,1-0.229s0.167,0.062,0.375,0.062s0.521,0.083,0.771,0.083s0.667,0.229,0.812,0.042
		c0.145-0.187,0.062-0.417,0.375-0.229c0.312,0.188,0.396,0.375,0.438,0.292S729.542,209.5,729.542,209.5z"/>
</g>
<g id="Layer_1">
</g>
</svg>
