<?xml version="1.0" encoding="iso-8859-1"?>
<!-- Generator: Adobe Illustrator 16.0.4, SVG Export Plug-In . SVG Version: 6.00 Build 0)  -->
<!DOCTYPE svg PUBLIC "-//W3C//DTD SVG 1.1//EN" "http://www.w3.org/Graphics/SVG/1.1/DTD/svg11.dtd">
<svg version="1.1" xmlns="http://www.w3.org/2000/svg" xmlns:xlink="http://www.w3.org/1999/xlink" x="0px" y="0px" width="1366px"
	 height="700px" viewBox="0 0 1366 700" style="enable-background:new 0 0 1366 700;" xml:space="preserve">
<g id="Rocks_from_ore_bin_to_skip">
	<g>
		<polygon style="display:none;fill:none;stroke:#EA008A;stroke-width:0.1;stroke-miterlimit:10;" points="798.667,659.167 
			683.167,562.834 699.167,552.001 807,646.334 		"/>
		<path style="fill:#231F20;" d="M755.719,602.938c0.125-0.188,0.906-0.405,1-0.125c0.094,0.281,0.375,1.188,0,1.188
			s-1.031-0.156-1.219-0.281S755.719,602.938,755.719,602.938z"/>
		<path style="fill:#231F20;" d="M755.438,604.531c0.031,0.344,0.375,0.938-0.155,1.062c-0.531,0.124-0.938-0.03-1.281-0.219
			s0.312-0.5,0.469-0.812C754.627,604.25,755.438,604.531,755.438,604.531z"/>
		<path style="fill:#231F20;" d="M755.219,606.062c0,0.438,0.906-0.75,1.031-0.47c0.125,0.281,0.719,0.938,0.688,1.095
			c-0.029,0.152-0.53,0.438-1.03,0.344S755.219,606.062,755.219,606.062z"/>
		<path style="fill:#231F20;" d="M754.785,611.417c-0.126,0.187-0.908,0.402-1.001,0.12c-0.093-0.281-0.37-1.188,0.005-1.188
			c0.375,0.002,1.031,0.161,1.218,0.287C755.194,610.763,754.785,611.417,754.785,611.417z"/>
		<path style="fill:#231F20;" d="M755.354,610.068c-0.029-0.345-0.37-0.939,0.161-1.062s0.938,0.035,1.28,0.225
			c0.343,0.188-0.314,0.498-0.473,0.811C756.164,610.353,755.354,610.068,755.354,610.068z"/>
		<path style="fill:#231F20;" d="M755.52,608.139c0.002-0.438-0.908,0.746-1.032,0.464c-0.124-0.281-0.716-0.939-0.684-1.097
			c0.03-0.153,0.533-0.436,1.032-0.339C755.336,607.263,755.52,608.139,755.52,608.139z"/>
		<path style="fill:#231F20;" d="M755.344,611.719c0.125-0.188,0.906-0.406,1-0.125s0.375,1.188,0,1.188s-1.031-0.156-1.219-0.281
			S755.344,611.719,755.344,611.719z"/>
		<path style="fill:#231F20;" d="M754.656,613.031c0.031,0.344,0.375,0.938-0.156,1.062s-0.938-0.03-1.281-0.219
			c-0.343-0.188,0.312-0.5,0.469-0.812C753.845,612.75,754.656,613.031,754.656,613.031z"/>
		<path style="fill:#231F20;" d="M754.781,614.5c0,0.438,0.906-0.75,1.031-0.469s0.719,0.938,0.688,1.094
			c-0.03,0.153-0.531,0.438-1.031,0.344S754.781,614.5,754.781,614.5z"/>
		<path style="fill:#231F20;" d="M755.879,617.667c-0.126,0.187-0.908,0.402-1.001,0.12c-0.093-0.281-0.37-1.188,0.005-1.188
			c0.375,0.002,1.031,0.161,1.219,0.287C756.288,617.013,755.879,617.667,755.879,617.667z"/>
		<path style="fill:#231F20;" d="M753.011,616.381c-0.03-0.344-0.371-0.938,0.161-1.062c0.531-0.123,0.938,0.034,1.28,0.224
			c0.343,0.189-0.315,0.499-0.474,0.811C753.821,616.666,753.011,616.381,753.011,616.381z"/>
		<path style="fill:#231F20;" d="M754,617.281c0.031,0.344,0.375,0.938-0.156,1.062s-0.938-0.03-1.281-0.219
			c-0.343-0.188,0.312-0.5,0.47-0.812C753.189,617,754,617.281,754,617.281z"/>
		<path style="fill:#231F20;" d="M753.906,618.969c0,0.438,0.906-0.75,1.031-0.469s0.719,0.938,0.688,1.094
			c-0.03,0.153-0.531,0.438-1.031,0.344C754.094,619.844,753.906,618.969,753.906,618.969z"/>
		<path style="fill:#231F20;" d="M753.77,620.076c0.002-0.438-0.908,0.746-1.032,0.464s-0.716-0.94-0.684-1.097
			c0.03-0.153,0.533-0.437,1.032-0.34C753.586,619.2,753.77,620.076,753.77,620.076z"/>
		<path style="fill:#231F20;" d="M750.741,617.794c-0.125,0.188-0.906,0.406-1,0.125c-0.095-0.281-0.375-1.188,0-1.188
			s1.03,0.155,1.219,0.28S750.741,617.794,750.741,617.794z"/>
		<path style="fill:#231F20;" d="M750.991,616.419c-0.031-0.344-0.375-0.938,0.155-1.062c0.531-0.124,0.938,0.03,1.281,0.219
			c0.344,0.188-0.312,0.5-0.469,0.812C751.802,616.7,750.991,616.419,750.991,616.419z"/>
		<path style="fill:#231F20;" d="M751.085,614.794c0-0.438-0.906,0.75-1.031,0.469c-0.125-0.28-0.719-0.938-0.688-1.094
			c0.03-0.153,0.53-0.438,1.03-0.344S751.085,614.794,751.085,614.794z"/>
		<path style="fill:#231F20;" d="M751.706,609.658c0.126-0.188,0.908-0.402,1.001-0.12c0.093,0.281,0.37,1.188-0.005,1.188
			c-0.375-0.002-1.031-0.16-1.218-0.286C751.297,610.312,751.706,609.658,751.706,609.658z"/>
		<path style="fill:#231F20;" d="M751.137,611.007c0.03,0.344,0.371,0.939-0.16,1.062s-0.938-0.035-1.28-0.225
			c-0.343-0.188,0.314-0.499,0.473-0.811C750.327,610.722,751.137,611.007,751.137,611.007z"/>
		<path style="fill:#231F20;" d="M751.189,612.655c-0.002,0.438,0.909-0.746,1.033-0.464c0.124,0.281,0.715,0.939,0.684,1.097
			c-0.03,0.153-0.533,0.436-1.032,0.339C751.374,613.531,751.189,612.655,751.189,612.655z"/>
		<path style="fill:#231F20;" d="M751.146,609.356c-0.125,0.188-0.905,0.405-1,0.125c-0.094-0.281-0.375-1.188,0-1.188
			s1.031,0.156,1.22,0.281C751.554,608.699,751.146,609.356,751.146,609.356z"/>
		<path style="fill:#231F20;" d="M751.835,608.044c-0.031-0.344-0.375-0.938,0.156-1.062c0.53-0.124,0.938,0.03,1.28,0.219
			c0.344,0.188-0.312,0.5-0.469,0.812C752.646,608.325,751.835,608.044,751.835,608.044z"/>
		<path style="fill:#231F20;" d="M751.71,606.575c0-0.438-0.906,0.75-1.031,0.469s-0.719-0.938-0.688-1.094
			c0.03-0.153,0.53-0.438,1.03-0.344C751.521,605.7,751.71,606.575,751.71,606.575z"/>
		<path style="fill:#231F20;" d="M750.612,603.408c0.126-0.188,0.907-0.402,1.001-0.12c0.093,0.281,0.369,1.188-0.006,1.188
			c-0.375-0.002-1.03-0.16-1.218-0.286C750.203,604.062,750.612,603.408,750.612,603.408z"/>
		<path style="fill:#231F20;" d="M753.637,605.194c0.03,0.344,0.371,0.938-0.16,1.062s-0.938-0.035-1.28-0.224
			c-0.343-0.189,0.314-0.499,0.473-0.812C752.827,604.909,753.637,605.194,753.637,605.194z"/>
		<path style="fill:#231F20;" d="M752.491,603.794c-0.031-0.344-0.375-0.938,0.155-1.062c0.531-0.124,0.938,0.03,1.281,0.219
			c0.344,0.188-0.312,0.5-0.469,0.812C753.302,604.075,752.491,603.794,752.491,603.794z"/>
		<path style="fill:#231F20;" d="M752.585,602.106c0-0.438-0.906,0.75-1.031,0.469s-0.719-0.938-0.688-1.094
			c0.03-0.153,0.53-0.438,1.03-0.345C752.396,601.231,752.585,602.106,752.585,602.106z"/>
		<path style="fill:#231F20;" d="M752.722,600.999c-0.002,0.438,0.909-0.746,1.033-0.464s0.715,0.939,0.683,1.097
			c-0.029,0.153-0.532,0.437-1.031,0.339C752.905,601.875,752.722,600.999,752.722,600.999z"/>
		<path style="fill:#231F20;" d="M749.094,597.5c0.125-0.188,0.906-0.406,1-0.125s0.375,1.188,0,1.188s-1.031-0.155-1.219-0.28
			S749.094,597.5,749.094,597.5z"/>
		<path style="fill:#231F20;" d="M748.812,599.094c0.03,0.344,0.375,0.938-0.156,1.062s-0.938-0.031-1.281-0.219
			c-0.343-0.188,0.312-0.5,0.469-0.812C748.001,598.812,748.812,599.094,748.812,599.094z"/>
		<path style="fill:#231F20;" d="M748.594,600.625c0,0.438,0.906-0.75,1.031-0.469s0.719,0.938,0.688,1.094
			c-0.029,0.153-0.53,0.438-1.03,0.344S748.594,600.625,748.594,600.625z"/>
		<path style="fill:#231F20;" d="M748.16,605.979c-0.126,0.188-0.908,0.402-1.001,0.12c-0.093-0.28-0.37-1.188,0.005-1.188
			c0.375,0.002,1.031,0.161,1.218,0.287C748.569,605.325,748.16,605.979,748.16,605.979z"/>
		<path style="fill:#231F20;" d="M748.729,604.631c-0.029-0.344-0.37-0.938,0.161-1.062s0.938,0.034,1.28,0.224
			c0.343,0.189-0.314,0.499-0.473,0.811C749.539,604.916,748.729,604.631,748.729,604.631z"/>
		<path style="fill:#231F20;" d="M748.895,602.701c0.002-0.438-0.908,0.746-1.032,0.464s-0.716-0.94-0.684-1.097
			c0.03-0.153,0.533-0.437,1.032-0.34C748.711,601.825,748.895,602.701,748.895,602.701z"/>
		<path style="fill:#231F20;" d="M748.719,606.281c0.125-0.188,0.906-0.406,1-0.125s0.375,1.188,0,1.188s-1.031-0.156-1.219-0.281
			S748.719,606.281,748.719,606.281z"/>
		<path style="fill:#231F20;" d="M748.031,607.594c0.031,0.344,0.375,0.938-0.156,1.062s-0.938-0.031-1.281-0.219
			c-0.343-0.188,0.312-0.5,0.469-0.812C747.22,607.312,748.031,607.594,748.031,607.594z"/>
		<path style="fill:#231F20;" d="M748.156,609.062c0,0.438,0.906-0.75,1.031-0.47c0.125,0.281,0.719,0.938,0.688,1.095
			c-0.03,0.152-0.531,0.438-1.031,0.344S748.156,609.062,748.156,609.062z"/>
		<path style="fill:#231F20;" d="M749.254,612.229c-0.126,0.188-0.908,0.402-1.001,0.12c-0.093-0.28-0.37-1.188,0.005-1.188
			c0.375,0.002,1.031,0.161,1.219,0.287C749.663,611.575,749.254,612.229,749.254,612.229z"/>
		<path style="fill:#231F20;" d="M746.386,610.943c-0.03-0.345-0.371-0.939,0.161-1.062c0.531-0.123,0.938,0.035,1.28,0.225
			c0.343,0.188-0.315,0.498-0.474,0.811C747.196,611.228,746.386,610.943,746.386,610.943z"/>
		<path style="fill:#231F20;" d="M747.375,611.844c0.031,0.344,0.375,0.938-0.156,1.062s-0.938-0.031-1.281-0.219
			c-0.343-0.188,0.312-0.5,0.47-0.812S747.375,611.844,747.375,611.844z"/>
		<path style="fill:#231F20;" d="M747.281,613.531c0,0.438,0.906-0.75,1.031-0.469c0.125,0.28,0.719,0.938,0.688,1.094
			c-0.03,0.152-0.531,0.438-1.031,0.344S747.281,613.531,747.281,613.531z"/>
		<path style="fill:#231F20;" d="M746.988,614.264c0.002-0.438-0.909,0.746-1.033,0.464c-0.124-0.281-0.715-0.939-0.684-1.097
			c0.03-0.153,0.533-0.436,1.032-0.339C746.805,613.388,746.988,614.264,746.988,614.264z"/>
		<path style="fill:#231F20;" d="M743.96,611.95c-0.125,0.188-0.906,0.406-1,0.125s-0.375-1.188,0-1.188s1.031,0.156,1.219,0.281
			C744.367,611.293,743.96,611.95,743.96,611.95z"/>
		<path style="fill:#231F20;" d="M744.366,610.981c-0.031-0.345-0.375-0.938,0.155-1.062c0.531-0.124,0.938,0.031,1.281,0.219
			c0.344,0.188-0.312,0.5-0.469,0.812C745.177,611.262,744.366,610.981,744.366,610.981z"/>
		<path style="fill:#231F20;" d="M744.502,609.106c0-0.438-0.906,0.75-1.031,0.469s-0.719-0.938-0.688-1.094
			c0.029-0.153,0.531-0.438,1.031-0.345C744.314,608.231,744.502,609.106,744.502,609.106z"/>
		<path style="fill:#231F20;" d="M745.081,604.221c0.126-0.187,0.908-0.401,1.001-0.12s0.37,1.188-0.005,1.188
			c-0.375-0.002-1.031-0.161-1.218-0.287C744.672,604.875,745.081,604.221,745.081,604.221z"/>
		<path style="fill:#231F20;" d="M744.512,605.569c0.03,0.344,0.371,0.938-0.16,1.062s-0.938-0.035-1.28-0.224
			c-0.343-0.189,0.314-0.499,0.473-0.812C743.702,605.284,744.512,605.569,744.512,605.569z"/>
		<path style="fill:#231F20;" d="M744.564,607.218c-0.002,0.438,0.909-0.746,1.033-0.464s0.715,0.94,0.684,1.097
			c-0.03,0.153-0.533,0.437-1.032,0.34C744.749,608.094,744.564,607.218,744.564,607.218z"/>
		<path style="fill:#231F20;" d="M744.521,603.919c-0.125,0.188-0.905,0.406-1,0.125c-0.094-0.281-0.375-1.188,0-1.188
			s1.031,0.155,1.22,0.28C744.929,603.262,744.521,603.919,744.521,603.919z"/>
		<path style="fill:#231F20;" d="M745.21,602.606c-0.031-0.345-0.375-0.938,0.156-1.062c0.53-0.124,0.938,0.031,1.28,0.219
			c0.344,0.188-0.312,0.5-0.469,0.812C746.021,602.887,745.21,602.606,745.21,602.606z"/>
		<path style="fill:#231F20;" d="M745.085,601.138c0-0.438-0.906,0.75-1.031,0.47c-0.125-0.281-0.719-0.938-0.688-1.095
			c0.03-0.152,0.53-0.438,1.03-0.344S745.085,601.138,745.085,601.138z"/>
		<path style="fill:#231F20;" d="M743.987,597.971c0.126-0.187,0.907-0.401,1.001-0.12c0.093,0.281,0.369,1.188-0.006,1.188
			c-0.375-0.002-1.03-0.161-1.218-0.287C743.578,598.625,743.987,597.971,743.987,597.971z"/>
		<path style="fill:#231F20;" d="M747.012,599.757c0.03,0.344,0.371,0.939-0.16,1.062s-0.938-0.035-1.28-0.225
			c-0.343-0.188,0.314-0.499,0.473-0.811C746.202,599.472,747.012,599.757,747.012,599.757z"/>
		<path style="fill:#231F20;" d="M745.866,598.356c-0.031-0.345-0.375-0.938,0.155-1.062c0.531-0.124,0.938,0.031,1.281,0.219
			c0.344,0.188-0.312,0.5-0.469,0.812C746.677,598.637,745.866,598.356,745.866,598.356z"/>
		<path style="fill:#231F20;" d="M745.96,596.669c0-0.438-0.906,0.75-1.031,0.469c-0.125-0.28-0.719-0.938-0.688-1.094
			c0.03-0.153,0.53-0.438,1.03-0.344S745.96,596.669,745.96,596.669z"/>
		<path style="fill:#231F20;" d="M746.097,595.562c-0.002,0.438,0.909-0.746,1.033-0.465c0.124,0.282,0.715,0.94,0.683,1.098
			c-0.029,0.152-0.532,0.436-1.031,0.339C746.28,596.438,746.097,595.562,746.097,595.562z"/>
		<path style="fill:#231F20;" d="M750.533,600.252c-0.031-0.344-0.375-0.938,0.156-1.062c0.53-0.124,0.938,0.03,1.28,0.219
			c0.343,0.188-0.312,0.5-0.469,0.812C751.344,600.533,750.533,600.252,750.533,600.252z"/>
		<path style="fill:#231F20;" d="M730.71,600.867c-0.125,0.188-0.906,0.406-1,0.125s-0.375-1.188,0-1.188s1.031,0.156,1.219,0.281
			C731.117,600.21,730.71,600.867,730.71,600.867z"/>
		<path style="fill:#231F20;" d="M730.991,599.273c-0.031-0.345-0.375-0.938,0.156-1.062c0.53-0.124,0.938,0.031,1.28,0.219
			c0.344,0.188-0.312,0.5-0.469,0.812C731.802,599.554,730.991,599.273,730.991,599.273z"/>
		<path style="fill:#231F20;" d="M731.21,597.742c0-0.438-0.906,0.75-1.031,0.469s-0.719-0.938-0.688-1.094
			c0.03-0.153,0.531-0.438,1.031-0.344C731.022,596.867,731.21,597.742,731.21,597.742z"/>
		<path style="fill:#231F20;" d="M731.644,592.388c0.126-0.187,0.908-0.401,1.001-0.12c0.094,0.281,0.37,1.188-0.005,1.188
			c-0.375-0.002-1.03-0.161-1.218-0.287C731.234,593.042,731.644,592.388,731.644,592.388z"/>
		<path style="fill:#231F20;" d="M731.074,593.736c0.029,0.344,0.371,0.938-0.161,1.062c-0.531,0.123-0.938-0.035-1.28-0.224
			c-0.343-0.189,0.315-0.499,0.473-0.812C730.264,593.451,731.074,593.736,731.074,593.736z"/>
		<path style="fill:#231F20;" d="M730.909,595.666c-0.002,0.438,0.909-0.746,1.033-0.464s0.715,0.939,0.683,1.097
			c-0.03,0.153-0.533,0.437-1.032,0.339C731.093,596.542,730.909,595.666,730.909,595.666z"/>
		<path style="fill:#231F20;" d="M731.085,592.086c-0.125,0.188-0.906,0.406-1,0.125s-0.375-1.188,0-1.188s1.031,0.155,1.219,0.28
			C731.492,591.429,731.085,592.086,731.085,592.086z"/>
		<path style="fill:#231F20;" d="M731.771,590.773c-0.03-0.345-0.375-0.938,0.156-1.062s0.938,0.031,1.281,0.219
			c0.343,0.188-0.312,0.5-0.469,0.812C732.583,591.054,731.771,590.773,731.771,590.773z"/>
		<path style="fill:#231F20;" d="M731.646,589.305c0-0.438-0.905,0.75-1.03,0.47c-0.125-0.281-0.72-0.938-0.688-1.095
			c0.03-0.152,0.531-0.438,1.031-0.344S731.646,589.305,731.646,589.305z"/>
		<path style="fill:#231F20;" d="M730.55,586.138c0.126-0.187,0.908-0.401,1.001-0.12s0.37,1.188-0.005,1.188
			c-0.375-0.002-1.031-0.161-1.218-0.287C730.141,586.792,730.55,586.138,730.55,586.138z"/>
		<path style="fill:#231F20;" d="M733.418,587.424c0.03,0.344,0.371,0.939-0.161,1.062c-0.531,0.123-0.938-0.035-1.28-0.225
			c-0.343-0.188,0.315-0.499,0.474-0.811C732.608,587.139,733.418,587.424,733.418,587.424z"/>
		<path style="fill:#231F20;" d="M732.429,586.523c-0.03-0.345-0.375-0.938,0.156-1.062s0.938,0.031,1.281,0.219
			c0.343,0.188-0.312,0.5-0.469,0.812C733.24,586.804,732.429,586.523,732.429,586.523z"/>
		<path style="fill:#231F20;" d="M732.521,584.836c0-0.438-0.905,0.75-1.03,0.469c-0.125-0.28-0.72-0.938-0.688-1.094
			c0.03-0.153,0.531-0.438,1.031-0.344S732.521,584.836,732.521,584.836z"/>
		<path style="fill:#231F20;" d="M732.659,583.729c-0.002,0.438,0.909-0.745,1.033-0.464c0.124,0.282,0.715,0.94,0.683,1.098
			c-0.03,0.152-0.533,0.436-1.032,0.339C732.843,584.604,732.659,583.729,732.659,583.729z"/>
		<path style="fill:#231F20;" d="M735.688,586.011c0.125-0.188,0.906-0.405,1-0.125c0.095,0.281,0.375,1.188,0,1.188
			s-1.03-0.156-1.219-0.281C735.281,586.668,735.688,586.011,735.688,586.011z"/>
		<path style="fill:#231F20;" d="M735.438,587.386c0.031,0.345,0.375,0.938-0.155,1.062c-0.531,0.124-0.938-0.031-1.281-0.22
			c-0.343-0.188,0.312-0.5,0.469-0.812S735.438,587.386,735.438,587.386z"/>
		<path style="fill:#231F20;" d="M735.344,589.011c0,0.438,0.906-0.75,1.031-0.469s0.719,0.938,0.688,1.094
			c-0.029,0.153-0.53,0.438-1.03,0.345C735.532,589.886,735.344,589.011,735.344,589.011z"/>
		<path style="fill:#231F20;" d="M734.723,594.146c-0.126,0.187-0.907,0.401-1.001,0.119c-0.093-0.28-0.37-1.188,0.005-1.188
			c0.375,0.002,1.031,0.161,1.219,0.287C735.132,593.492,734.723,594.146,734.723,594.146z"/>
		<path style="fill:#231F20;" d="M735.292,592.798c-0.03-0.344-0.371-0.938,0.161-1.062c0.531-0.123,0.938,0.034,1.28,0.224
			s-0.315,0.499-0.474,0.811C736.102,593.083,735.292,592.798,735.292,592.798z"/>
		<path style="fill:#231F20;" d="M735.238,591.149c0.002-0.438-0.909,0.745-1.033,0.464c-0.124-0.282-0.715-0.94-0.684-1.098
			c0.03-0.152,0.533-0.436,1.032-0.339C735.055,590.273,735.238,591.149,735.238,591.149z"/>
		<path style="fill:#231F20;" d="M735.281,594.448c0.125-0.188,0.906-0.406,1-0.125c0.094,0.28,0.375,1.188,0,1.188
			s-1.031-0.155-1.219-0.28C734.874,595.105,735.281,594.448,735.281,594.448z"/>
		<path style="fill:#231F20;" d="M734.594,595.761c0.031,0.345,0.375,0.938-0.156,1.062c-0.53,0.124-0.938-0.031-1.28-0.22
			c-0.343-0.188,0.312-0.5,0.469-0.812S734.594,595.761,734.594,595.761z"/>
		<path style="fill:#231F20;" d="M734.719,597.229c0,0.438,0.906-0.75,1.031-0.469s0.719,0.938,0.688,1.094
			c-0.029,0.153-0.53,0.438-1.03,0.345C734.907,598.104,734.719,597.229,734.719,597.229z"/>
		<path style="fill:#231F20;" d="M735.816,600.396c-0.126,0.187-0.908,0.401-1.001,0.119c-0.094-0.28-0.37-1.188,0.005-1.188
			c0.375,0.002,1.03,0.161,1.218,0.287C736.226,599.742,735.816,600.396,735.816,600.396z"/>
		<path style="fill:#231F20;" d="M732.792,598.61c-0.03-0.345-0.371-0.939,0.161-1.062c0.531-0.123,0.938,0.035,1.28,0.224
			c0.343,0.189-0.315,0.5-0.474,0.812S732.792,598.61,732.792,598.61z"/>
		<path style="fill:#231F20;" d="M733.938,600.011c0.031,0.345,0.375,0.938-0.155,1.062c-0.531,0.124-0.938-0.031-1.281-0.22
			c-0.343-0.188,0.312-0.5,0.469-0.812S733.938,600.011,733.938,600.011z"/>
		<path style="fill:#231F20;" d="M733.844,601.698c0,0.438,0.906-0.75,1.031-0.47c0.125,0.281,0.719,0.938,0.688,1.095
			c-0.029,0.152-0.53,0.438-1.03,0.344S733.844,601.698,733.844,601.698z"/>
		<path style="fill:#231F20;" d="M733.707,602.806c0.002-0.438-0.909,0.746-1.033,0.464c-0.124-0.281-0.715-0.939-0.683-1.097
			c0.03-0.153,0.533-0.436,1.032-0.339C733.523,601.93,733.707,602.806,733.707,602.806z"/>
		<path style="fill:#231F20;" d="M737.335,606.305c-0.125,0.188-0.906,0.406-1,0.125c-0.094-0.28-0.375-1.188,0-1.188
			s1.031,0.156,1.219,0.281C737.742,605.648,737.335,606.305,737.335,606.305z"/>
		<path style="fill:#231F20;" d="M737.616,604.711c-0.031-0.344-0.375-0.938,0.155-1.062c0.531-0.124,0.938,0.03,1.281,0.219
			c0.344,0.188-0.312,0.5-0.469,0.812C738.427,604.992,737.616,604.711,737.616,604.711z"/>
		<path style="fill:#231F20;" d="M737.835,603.18c0-0.438-0.906,0.75-1.031,0.47c-0.125-0.281-0.719-0.938-0.688-1.095
			c0.03-0.152,0.531-0.438,1.03-0.344C737.646,602.305,737.835,603.18,737.835,603.18z"/>
		<path style="fill:#231F20;" d="M738.27,597.825c0.125-0.188,0.907-0.402,1-0.12c0.094,0.281,0.37,1.188-0.005,1.188
			c-0.375-0.002-1.03-0.16-1.218-0.286C737.859,598.479,738.27,597.825,738.27,597.825z"/>
		<path style="fill:#231F20;" d="M737.699,599.174c0.029,0.344,0.371,0.939-0.161,1.062c-0.531,0.123-0.938-0.035-1.28-0.225
			c-0.343-0.188,0.315-0.499,0.473-0.811C736.889,598.889,737.699,599.174,737.699,599.174z"/>
		<path style="fill:#231F20;" d="M737.534,601.104c-0.002,0.438,0.909-0.745,1.033-0.464c0.124,0.282,0.715,0.94,0.683,1.098
			c-0.03,0.152-0.533,0.436-1.032,0.339C737.718,601.979,737.534,601.104,737.534,601.104z"/>
		<path style="fill:#231F20;" d="M737.71,597.523c-0.125,0.188-0.906,0.405-1,0.125c-0.094-0.281-0.375-1.188,0-1.188
			s1.031,0.156,1.219,0.281C738.117,596.866,737.71,597.523,737.71,597.523z"/>
		<path style="fill:#231F20;" d="M738.396,596.211c-0.03-0.344-0.375-0.938,0.156-1.062s0.938,0.03,1.281,0.219
			c0.343,0.188-0.312,0.5-0.469,0.812C739.208,596.492,738.396,596.211,738.396,596.211z"/>
		<path style="fill:#231F20;" d="M738.271,594.742c0-0.438-0.905,0.75-1.03,0.469s-0.72-0.938-0.688-1.094
			c0.03-0.153,0.531-0.438,1.031-0.344C738.084,593.867,738.271,594.742,738.271,594.742z"/>
		<path style="fill:#231F20;" d="M737.175,591.575c0.126-0.188,0.908-0.402,1.001-0.12c0.094,0.281,0.37,1.188-0.005,1.188
			c-0.375-0.002-1.031-0.16-1.218-0.286C736.766,592.229,737.175,591.575,737.175,591.575z"/>
		<path style="fill:#231F20;" d="M740.043,592.861c0.03,0.344,0.371,0.938-0.161,1.062c-0.53,0.123-0.938-0.035-1.28-0.224
			c-0.343-0.189,0.315-0.499,0.474-0.812C739.233,592.576,740.043,592.861,740.043,592.861z"/>
		<path style="fill:#231F20;" d="M739.054,591.961c-0.03-0.344-0.375-0.938,0.156-1.062s0.938,0.03,1.281,0.219
			c0.343,0.188-0.312,0.5-0.47,0.812C739.865,592.242,739.054,591.961,739.054,591.961z"/>
		<path style="fill:#231F20;" d="M739.146,590.273c0-0.438-0.905,0.75-1.03,0.469s-0.72-0.938-0.688-1.094
			c0.03-0.153,0.531-0.438,1.031-0.345C738.959,589.398,739.146,590.273,739.146,590.273z"/>
		<path style="fill:#231F20;" d="M739.439,589.541c-0.002,0.438,0.909-0.746,1.033-0.464s0.715,0.939,0.684,1.097
			c-0.03,0.153-0.533,0.437-1.032,0.339C739.624,590.417,739.439,589.541,739.439,589.541z"/>
		<path style="fill:#231F20;" d="M742.469,591.854c0.125-0.188,0.906-0.405,1-0.125c0.094,0.281,0.375,1.188,0,1.188
			s-1.031-0.156-1.219-0.281S742.469,591.854,742.469,591.854z"/>
		<path style="fill:#231F20;" d="M742.062,592.823c0.03,0.344,0.375,0.938-0.156,1.062s-0.938-0.031-1.281-0.219
			s0.312-0.5,0.469-0.812C741.251,592.542,742.062,592.823,742.062,592.823z"/>
		<path style="fill:#231F20;" d="M741.969,594.448c0,0.438,0.906-0.75,1.031-0.47c0.125,0.281,0.719,0.938,0.688,1.095
			c-0.029,0.152-0.53,0.438-1.03,0.344S741.969,594.448,741.969,594.448z"/>
		<path style="fill:#231F20;" d="M741.348,599.584c-0.126,0.188-0.908,0.402-1.001,0.12c-0.093-0.281-0.37-1.188,0.005-1.188
			c0.375,0.002,1.031,0.161,1.219,0.287C741.757,598.93,741.348,599.584,741.348,599.584z"/>
		<path style="fill:#231F20;" d="M741.917,598.235c-0.03-0.345-0.371-0.939,0.161-1.062c0.531-0.123,0.938,0.035,1.28,0.224
			c0.343,0.189-0.315,0.5-0.474,0.812S741.917,598.235,741.917,598.235z"/>
		<path style="fill:#231F20;" d="M741.863,596.587c0.002-0.438-0.909,0.746-1.033,0.464s-0.715-0.939-0.684-1.097
			c0.03-0.153,0.533-0.437,1.032-0.339C741.68,595.711,741.863,596.587,741.863,596.587z"/>
		<path style="fill:#231F20;" d="M741.906,599.886c0.125-0.188,0.906-0.405,1-0.125c0.094,0.281,0.375,1.188,0,1.188
			s-1.031-0.156-1.219-0.281C741.499,600.543,741.906,599.886,741.906,599.886z"/>
		<path style="fill:#231F20;" d="M741.219,601.198c0.031,0.344,0.375,0.938-0.156,1.062c-0.53,0.124-0.938-0.031-1.28-0.219
			s0.312-0.5,0.469-0.812C740.408,600.917,741.219,601.198,741.219,601.198z"/>
		<path style="fill:#231F20;" d="M741.344,602.667c0,0.438,0.906-0.75,1.031-0.469c0.125,0.28,0.719,0.938,0.688,1.094
			c-0.029,0.153-0.53,0.438-1.03,0.344C741.532,603.542,741.344,602.667,741.344,602.667z"/>
		<path style="fill:#231F20;" d="M742.441,605.834c-0.127,0.188-0.908,0.402-1.002,0.12c-0.093-0.281-0.369-1.188,0.006-1.188
			c0.375,0.002,1.031,0.161,1.218,0.287C742.852,605.18,742.441,605.834,742.441,605.834z"/>
		<path style="fill:#231F20;" d="M739.417,604.048c-0.03-0.344-0.371-0.938,0.161-1.062c0.531-0.123,0.938,0.034,1.28,0.224
			s-0.315,0.499-0.474,0.811C740.227,604.333,739.417,604.048,739.417,604.048z"/>
		<path style="fill:#231F20;" d="M740.562,605.448c0.03,0.344,0.375,0.938-0.156,1.062s-0.938-0.031-1.281-0.219
			s0.312-0.5,0.469-0.812C739.751,605.167,740.562,605.448,740.562,605.448z"/>
		<path style="fill:#231F20;" d="M740.469,607.136c0,0.438,0.906-0.75,1.031-0.469s0.719,0.938,0.688,1.094
			c-0.029,0.153-0.53,0.438-1.03,0.345C740.657,608.011,740.469,607.136,740.469,607.136z"/>
		<path style="fill:#231F20;" d="M740.332,608.243c0.002-0.438-0.909,0.746-1.033,0.464s-0.715-0.94-0.683-1.097
			c0.03-0.153,0.532-0.437,1.032-0.339C740.148,607.367,740.332,608.243,740.332,608.243z"/>
		<path style="fill:#231F20;" d="M735.896,603.553c0.03,0.344,0.375,0.938-0.156,1.062s-0.938-0.031-1.281-0.219
			c-0.343-0.188,0.312-0.5,0.469-0.812C735.085,603.271,735.896,603.553,735.896,603.553z"/>
		<path style="fill:#231F20;" d="M740.784,609.354c-0.002,0.438,0.909-0.745,1.033-0.464c0.124,0.282,0.715,0.94,0.683,1.098
			c-0.03,0.152-0.533,0.436-1.032,0.339C740.968,610.229,740.784,609.354,740.784,609.354z"/>
		<path style="fill:#231F20;" d="M744.23,594.753c-0.03-0.344-0.375-0.938,0.156-1.062s0.938,0.03,1.281,0.219
			c0.343,0.188-0.312,0.5-0.469,0.812C745.042,595.034,744.23,594.753,744.23,594.753z"/>
		<path style="fill:#231F20;" d="M738.307,588.396c-0.126,0.187-0.908,0.401-1.001,0.119c-0.093-0.28-0.37-1.188,0.005-1.188
			c0.375,0.002,1.031,0.161,1.219,0.287C738.716,587.742,738.307,588.396,738.307,588.396z"/>
		<path style="fill:#231F20;" d="M732.438,581.927c0.031,0.345,0.375,0.938-0.155,1.062c-0.531,0.124-0.938-0.031-1.281-0.22
			c-0.343-0.188,0.312-0.5,0.469-0.812S732.438,581.927,732.438,581.927z"/>
		<path style="fill:#231F20;" d="M729.322,589.863c0.031,0.344,0.375,0.938-0.156,1.062s-0.938-0.031-1.281-0.219
			c-0.343-0.188,0.312-0.5,0.469-0.812C728.511,589.582,729.322,589.863,729.322,589.863z"/>
		<path style="fill:#231F20;" d="M727.928,593.797c-0.029-0.344-0.371-0.938,0.161-1.062c0.531-0.123,0.938,0.034,1.28,0.224
			c0.343,0.189-0.315,0.499-0.473,0.811C728.738,594.082,727.928,593.797,727.928,593.797z"/>
		<path style="fill:#231F20;" d="M729.083,595.364c0.031,0.344,0.375,0.938-0.156,1.062c-0.53,0.124-0.938-0.031-1.28-0.219
			c-0.344-0.188,0.312-0.5,0.469-0.812C728.271,595.083,729.083,595.364,729.083,595.364z"/>
		<path style="fill:#231F20;" d="M728.77,598.742c0.003-0.438-0.908,0.746-1.032,0.464s-0.716-0.94-0.684-1.097
			c0.03-0.153,0.533-0.437,1.032-0.34C728.586,597.866,728.77,598.742,728.77,598.742z"/>
		<path style="fill:#231F20;" d="M725.741,596.46c-0.125,0.188-0.906,0.406-1,0.125s-0.375-1.188,0-1.188s1.031,0.155,1.219,0.28
			C726.148,595.803,725.741,596.46,725.741,596.46z"/>
		<path style="fill:#231F20;" d="M725.991,595.085c-0.031-0.344-0.375-0.938,0.156-1.062c0.53-0.124,0.938,0.03,1.28,0.219
			c0.344,0.188-0.312,0.5-0.469,0.812C726.802,595.366,725.991,595.085,725.991,595.085z"/>
		<path style="fill:#231F20;" d="M726.085,593.46c0-0.438-0.906,0.75-1.031,0.469c-0.125-0.28-0.719-0.938-0.688-1.094
			c0.03-0.153,0.531-0.438,1.031-0.344S726.085,593.46,726.085,593.46z"/>
		<path style="fill:#231F20;" d="M726.706,588.324c0.126-0.188,0.908-0.402,1.001-0.12c0.093,0.281,0.37,1.188-0.005,1.188
			c-0.375-0.002-1.031-0.161-1.218-0.286C726.297,588.979,726.706,588.324,726.706,588.324z"/>
		<path style="fill:#231F20;" d="M726.137,589.673c0.03,0.344,0.371,0.939-0.161,1.062c-0.53,0.123-0.938-0.035-1.279-0.225
			c-0.344-0.188,0.314-0.499,0.473-0.811C725.327,589.388,726.137,589.673,726.137,589.673z"/>
		<path style="fill:#231F20;" d="M726.19,591.321c-0.003,0.438,0.908-0.746,1.032-0.464c0.124,0.281,0.716,0.939,0.684,1.097
			c-0.03,0.153-0.533,0.436-1.032,0.339C726.374,592.197,726.19,591.321,726.19,591.321z"/>
		<path style="fill:#231F20;" d="M726.146,588.021c-0.125,0.188-0.905,0.406-1,0.125c-0.094-0.28-0.375-1.188,0-1.188
			s1.031,0.156,1.22,0.281C726.554,587.365,726.146,588.021,726.146,588.021z"/>
		<path style="fill:#231F20;" d="M726.835,586.71c-0.031-0.344-0.375-0.938,0.156-1.062s0.938,0.03,1.281,0.219
			c0.343,0.188-0.312,0.5-0.47,0.812C727.646,586.991,726.835,586.71,726.835,586.71z"/>
		<path style="fill:#231F20;" d="M726.71,585.241c0-0.438-0.906,0.75-1.031,0.469s-0.719-0.938-0.688-1.094
			c0.03-0.153,0.531-0.438,1.031-0.344C726.522,584.366,726.71,585.241,726.71,585.241z"/>
		<path style="fill:#231F20;" d="M725.612,582.074c0.126-0.188,0.907-0.402,1.001-0.12c0.093,0.281,0.37,1.188-0.005,1.188
			c-0.375-0.002-1.031-0.161-1.219-0.286C725.203,582.729,725.612,582.074,725.612,582.074z"/>
		<path style="fill:#231F20;" d="M728.637,583.86c0.03,0.344,0.371,0.938-0.161,1.062c-0.53,0.123-0.938-0.035-1.279-0.224
			c-0.344-0.189,0.314-0.499,0.473-0.812C727.827,583.575,728.637,583.86,728.637,583.86z"/>
		<path style="fill:#231F20;" d="M727.491,582.46c-0.031-0.344-0.375-0.938,0.156-1.062c0.53-0.124,0.938,0.03,1.28,0.219
			c0.344,0.188-0.312,0.5-0.469,0.812C728.302,582.741,727.491,582.46,727.491,582.46z"/>
		<path style="fill:#231F20;" d="M727.585,580.771c0-0.438-0.906,0.75-1.031,0.47c-0.125-0.281-0.719-0.938-0.688-1.095
			c0.03-0.152,0.531-0.438,1.031-0.344S727.585,580.771,727.585,580.771z"/>
		<path style="fill:#231F20;" d="M727.722,579.665c-0.002,0.438,0.909-0.746,1.033-0.464s0.715,0.939,0.683,1.097
			c-0.029,0.153-0.532,0.437-1.031,0.339C727.905,580.541,727.722,579.665,727.722,579.665z"/>
		<path style="fill:#231F20;" d="M724.094,576.166c0.125-0.188,0.906-0.406,1-0.125s0.375,1.188,0,1.188s-1.031-0.155-1.219-0.28
			S724.094,576.166,724.094,576.166z"/>
		<path style="fill:#231F20;" d="M723.812,577.76c0.03,0.344,0.375,0.938-0.156,1.062s-0.938-0.031-1.281-0.219
			c-0.343-0.188,0.312-0.5,0.469-0.812C723.001,577.479,723.812,577.76,723.812,577.76z"/>
		<path style="fill:#231F20;" d="M723.594,579.291c0,0.438,0.906-0.75,1.031-0.469s0.719,0.938,0.688,1.094
			c-0.029,0.153-0.53,0.438-1.03,0.344S723.594,579.291,723.594,579.291z"/>
		<path style="fill:#231F20;" d="M723.16,584.646c-0.126,0.187-0.908,0.401-1.001,0.119c-0.093-0.28-0.37-1.188,0.005-1.188
			c0.375,0.002,1.031,0.161,1.218,0.287C723.569,583.991,723.16,584.646,723.16,584.646z"/>
		<path style="fill:#231F20;" d="M723.729,583.297c-0.029-0.344-0.37-0.938,0.161-1.062s0.938,0.034,1.28,0.224
			c0.343,0.189-0.314,0.499-0.473,0.811C724.539,583.582,723.729,583.297,723.729,583.297z"/>
		<path style="fill:#231F20;" d="M723.895,581.367c0.003-0.438-0.908,0.746-1.032,0.464s-0.716-0.94-0.684-1.097
			c0.03-0.153,0.533-0.437,1.032-0.34C723.711,580.491,723.895,581.367,723.895,581.367z"/>
		<path style="fill:#231F20;" d="M723.719,584.947c0.125-0.188,0.906-0.406,1-0.125s0.375,1.188,0,1.188s-1.031-0.156-1.219-0.281
			S723.719,584.947,723.719,584.947z"/>
		<path style="fill:#231F20;" d="M723.031,586.26c0.031,0.344,0.375,0.938-0.156,1.062s-0.938-0.031-1.281-0.219
			c-0.343-0.188,0.312-0.5,0.469-0.812C722.22,585.979,723.031,586.26,723.031,586.26z"/>
		<path style="fill:#231F20;" d="M723.156,587.729c0,0.438,0.906-0.75,1.031-0.469s0.719,0.938,0.688,1.094
			c-0.03,0.153-0.531,0.438-1.031,0.345C723.344,588.604,723.156,587.729,723.156,587.729z"/>
		<path style="fill:#231F20;" d="M724.254,590.896c-0.126,0.187-0.908,0.401-1.001,0.119c-0.093-0.28-0.37-1.188,0.005-1.188
			c0.375,0.002,1.031,0.161,1.219,0.287C724.663,590.241,724.254,590.896,724.254,590.896z"/>
		<path style="fill:#231F20;" d="M721.386,589.609c-0.03-0.345-0.371-0.939,0.161-1.062c0.531-0.123,0.938,0.035,1.28,0.225
			c0.343,0.188-0.315,0.498-0.474,0.811C722.196,589.894,721.386,589.609,721.386,589.609z"/>
		<path style="fill:#231F20;" d="M722.375,590.51c0.031,0.344,0.375,0.938-0.156,1.062s-0.938-0.031-1.281-0.219
			c-0.343-0.188,0.312-0.5,0.47-0.812S722.375,590.51,722.375,590.51z"/>
		<path style="fill:#231F20;" d="M722.281,592.197c0,0.438,0.906-0.75,1.031-0.469c0.125,0.28,0.719,0.938,0.688,1.094
			c-0.03,0.152-0.531,0.438-1.031,0.344S722.281,592.197,722.281,592.197z"/>
		<path style="fill:#231F20;" d="M721.988,592.93c0.002-0.438-0.909,0.746-1.033,0.464c-0.124-0.281-0.715-0.939-0.684-1.097
			c0.03-0.153,0.533-0.436,1.032-0.339C721.805,592.054,721.988,592.93,721.988,592.93z"/>
		<path style="fill:#231F20;" d="M718.96,590.616c-0.125,0.188-0.906,0.406-1,0.125s-0.375-1.188,0-1.188s1.031,0.156,1.219,0.281
			C719.367,589.959,718.96,590.616,718.96,590.616z"/>
		<path style="fill:#231F20;" d="M719.366,589.646c-0.031-0.344-0.375-0.938,0.156-1.062c0.53-0.124,0.938,0.031,1.28,0.219
			c0.344,0.188-0.312,0.5-0.469,0.812C720.177,589.928,719.366,589.646,719.366,589.646z"/>
		<path style="fill:#231F20;" d="M719.502,587.771c0-0.438-0.906,0.75-1.031,0.47c-0.125-0.281-0.719-0.938-0.688-1.095
			c0.03-0.152,0.531-0.438,1.031-0.344S719.502,587.771,719.502,587.771z"/>
		<path style="fill:#231F20;" d="M720.081,582.887c0.126-0.187,0.908-0.401,1.001-0.12s0.37,1.188-0.005,1.188
			c-0.375-0.002-1.031-0.161-1.218-0.287C719.672,583.541,720.081,582.887,720.081,582.887z"/>
		<path style="fill:#231F20;" d="M719.512,584.235c0.03,0.344,0.371,0.938-0.161,1.062c-0.53,0.123-0.938-0.035-1.279-0.224
			c-0.344-0.189,0.314-0.499,0.473-0.812C718.702,583.95,719.512,584.235,719.512,584.235z"/>
		<path style="fill:#231F20;" d="M719.565,585.884c-0.003,0.438,0.908-0.746,1.032-0.464s0.716,0.94,0.684,1.097
			c-0.03,0.153-0.533,0.437-1.032,0.339C719.749,586.76,719.565,585.884,719.565,585.884z"/>
		<path style="fill:#231F20;" d="M719.521,582.585c-0.125,0.188-0.905,0.406-1,0.125c-0.094-0.281-0.375-1.188,0-1.188
			s1.031,0.155,1.22,0.28C719.929,581.928,719.521,582.585,719.521,582.585z"/>
		<path style="fill:#231F20;" d="M720.21,581.271c-0.031-0.344-0.375-0.938,0.156-1.062s0.938,0.031,1.281,0.219
			c0.343,0.188-0.312,0.5-0.47,0.812C721.021,581.553,720.21,581.271,720.21,581.271z"/>
		<path style="fill:#231F20;" d="M720.085,579.804c0-0.438-0.906,0.75-1.031,0.47c-0.125-0.281-0.719-0.938-0.688-1.095
			c0.03-0.152,0.531-0.438,1.031-0.344S720.085,579.804,720.085,579.804z"/>
		<path style="fill:#231F20;" d="M718.987,576.637c0.126-0.187,0.907-0.401,1.001-0.12c0.093,0.281,0.37,1.188-0.005,1.188
			c-0.375-0.002-1.031-0.161-1.219-0.287C718.578,577.291,718.987,576.637,718.987,576.637z"/>
		<path style="fill:#231F20;" d="M722.012,578.423c0.03,0.344,0.371,0.939-0.161,1.062c-0.53,0.123-0.938-0.035-1.279-0.225
			c-0.344-0.188,0.314-0.499,0.473-0.811C721.202,578.138,722.012,578.423,722.012,578.423z"/>
		<path style="fill:#231F20;" d="M720.866,577.021c-0.031-0.344-0.375-0.938,0.156-1.062c0.53-0.124,0.938,0.031,1.28,0.219
			c0.344,0.188-0.312,0.5-0.469,0.812C721.677,577.303,720.866,577.021,720.866,577.021z"/>
		<path style="fill:#231F20;" d="M720.96,575.335c0-0.438-0.906,0.75-1.031,0.469c-0.125-0.28-0.719-0.938-0.688-1.094
			c0.03-0.153,0.531-0.438,1.031-0.344S720.96,575.335,720.96,575.335z"/>
		<path style="fill:#231F20;" d="M721.097,574.229c-0.002,0.438,0.909-0.746,1.033-0.465c0.124,0.282,0.715,0.94,0.683,1.098
			c-0.029,0.152-0.532,0.436-1.031,0.339C721.28,575.104,721.097,574.229,721.097,574.229z"/>
		<path style="fill:#231F20;" d="M725.533,578.918c-0.031-0.344-0.375-0.938,0.156-1.062c0.53-0.124,0.938,0.03,1.28,0.219
			c0.344,0.188-0.312,0.5-0.469,0.812C726.344,579.199,725.533,578.918,725.533,578.918z"/>
		<path style="fill:#231F20;" d="M705.71,579.533c-0.125,0.188-0.906,0.406-1,0.125s-0.375-1.188,0-1.188s1.031,0.156,1.219,0.281
			C706.117,578.876,705.71,579.533,705.71,579.533z"/>
		<path style="fill:#231F20;" d="M705.991,577.939c-0.031-0.345-0.375-0.938,0.156-1.062c0.53-0.124,0.938,0.031,1.28,0.219
			c0.344,0.188-0.312,0.5-0.469,0.812C706.802,578.22,705.991,577.939,705.991,577.939z"/>
		<path style="fill:#231F20;" d="M706.21,576.408c0-0.438-0.906,0.75-1.031,0.469s-0.719-0.938-0.688-1.094
			c0.03-0.153,0.531-0.438,1.031-0.344C706.022,575.533,706.21,576.408,706.21,576.408z"/>
		<path style="fill:#231F20;" d="M706.644,571.054c0.126-0.187,0.908-0.401,1.001-0.12c0.094,0.281,0.37,1.188-0.005,1.188
			c-0.375-0.002-1.03-0.161-1.218-0.287C706.234,571.708,706.644,571.054,706.644,571.054z"/>
		<path style="fill:#231F20;" d="M706.074,572.402c0.029,0.344,0.371,0.938-0.161,1.062c-0.531,0.123-0.938-0.035-1.28-0.224
			c-0.343-0.189,0.315-0.499,0.473-0.812C705.264,572.117,706.074,572.402,706.074,572.402z"/>
		<path style="fill:#231F20;" d="M705.909,574.332c-0.002,0.438,0.909-0.746,1.033-0.464s0.715,0.939,0.683,1.097
			c-0.03,0.153-0.533,0.437-1.032,0.339C706.093,575.208,705.909,574.332,705.909,574.332z"/>
		<path style="fill:#231F20;" d="M706.085,570.752c-0.125,0.188-0.906,0.406-1,0.125s-0.375-1.188,0-1.188s1.031,0.155,1.219,0.28
			C706.492,570.095,706.085,570.752,706.085,570.752z"/>
		<path style="fill:#231F20;" d="M706.771,569.439c-0.03-0.345-0.375-0.938,0.156-1.062s0.938,0.031,1.281,0.219
			c0.343,0.188-0.312,0.5-0.469,0.812C707.583,569.72,706.771,569.439,706.771,569.439z"/>
		<path style="fill:#231F20;" d="M706.646,567.971c0-0.438-0.905,0.75-1.03,0.47c-0.125-0.281-0.72-0.938-0.688-1.095
			c0.03-0.152,0.531-0.438,1.031-0.344S706.646,567.971,706.646,567.971z"/>
		<path style="fill:#231F20;" d="M705.55,564.804c0.126-0.187,0.908-0.401,1.001-0.12s0.37,1.188-0.005,1.188
			c-0.375-0.002-1.031-0.161-1.218-0.287C705.141,565.458,705.55,564.804,705.55,564.804z"/>
		<path style="fill:#231F20;" d="M708.418,566.09c0.03,0.344,0.371,0.939-0.161,1.062c-0.531,0.123-0.938-0.035-1.28-0.225
			c-0.343-0.188,0.315-0.499,0.474-0.811C707.608,565.805,708.418,566.09,708.418,566.09z"/>
		<path style="fill:#231F20;" d="M707.429,565.189c-0.03-0.345-0.375-0.938,0.156-1.062s0.938,0.031,1.281,0.219
			c0.343,0.188-0.312,0.5-0.469,0.812C708.24,565.47,707.429,565.189,707.429,565.189z"/>
		<path style="fill:#231F20;" d="M707.521,563.502c0-0.438-0.905,0.75-1.03,0.469c-0.125-0.28-0.72-0.938-0.688-1.094
			c0.03-0.153,0.531-0.438,1.031-0.344S707.521,563.502,707.521,563.502z"/>
		<path style="fill:#231F20;" d="M707.659,562.395c-0.002,0.438,0.909-0.745,1.033-0.464c0.124,0.282,0.715,0.94,0.683,1.098
			c-0.03,0.152-0.533,0.436-1.032,0.339C707.843,563.271,707.659,562.395,707.659,562.395z"/>
		<path style="fill:#231F20;" d="M710.688,564.677c0.125-0.188,0.906-0.405,1-0.125c0.095,0.281,0.375,1.188,0,1.188
			s-1.03-0.156-1.219-0.281C710.281,565.334,710.688,564.677,710.688,564.677z"/>
		<path style="fill:#231F20;" d="M710.438,566.052c0.031,0.345,0.375,0.938-0.155,1.062c-0.531,0.124-0.938-0.031-1.281-0.22
			c-0.343-0.188,0.312-0.5,0.469-0.812S710.438,566.052,710.438,566.052z"/>
		<path style="fill:#231F20;" d="M710.344,567.677c0,0.438,0.906-0.75,1.031-0.469s0.719,0.938,0.688,1.094
			c-0.029,0.153-0.53,0.438-1.03,0.345C710.532,568.552,710.344,567.677,710.344,567.677z"/>
		<path style="fill:#231F20;" d="M709.723,572.812c-0.126,0.187-0.907,0.401-1.001,0.119c-0.093-0.28-0.37-1.188,0.005-1.188
			c0.375,0.002,1.031,0.161,1.219,0.287C710.132,572.158,709.723,572.812,709.723,572.812z"/>
		<path style="fill:#231F20;" d="M710.292,571.464c-0.03-0.344-0.371-0.938,0.161-1.062c0.531-0.123,0.938,0.034,1.28,0.224
			s-0.315,0.499-0.474,0.811C711.102,571.749,710.292,571.464,710.292,571.464z"/>
		<path style="fill:#231F20;" d="M710.238,569.815c0.002-0.438-0.909,0.745-1.033,0.464c-0.124-0.282-0.715-0.94-0.684-1.098
			c0.03-0.152,0.533-0.436,1.032-0.339C710.055,568.939,710.238,569.815,710.238,569.815z"/>
		<path style="fill:#231F20;" d="M710.281,573.114c0.125-0.188,0.906-0.406,1-0.125c0.094,0.28,0.375,1.188,0,1.188
			s-1.031-0.155-1.219-0.28C709.874,573.771,710.281,573.114,710.281,573.114z"/>
		<path style="fill:#231F20;" d="M709.594,574.427c0.031,0.345,0.375,0.938-0.156,1.062c-0.53,0.124-0.938-0.031-1.28-0.22
			c-0.343-0.188,0.312-0.5,0.469-0.812S709.594,574.427,709.594,574.427z"/>
		<path style="fill:#231F20;" d="M709.719,575.896c0,0.438,0.906-0.75,1.031-0.47c0.125,0.281,0.719,0.938,0.688,1.095
			c-0.029,0.152-0.53,0.438-1.03,0.344S709.719,575.896,709.719,575.896z"/>
		<path style="fill:#231F20;" d="M710.816,579.062c-0.126,0.187-0.908,0.401-1.001,0.119c-0.094-0.28-0.37-1.188,0.005-1.188
			c0.375,0.002,1.03,0.161,1.218,0.287C711.226,578.408,710.816,579.062,710.816,579.062z"/>
		<path style="fill:#231F20;" d="M707.792,577.276c-0.03-0.345-0.371-0.939,0.161-1.062c0.531-0.123,0.938,0.035,1.28,0.224
			c0.343,0.189-0.315,0.5-0.474,0.812S707.792,577.276,707.792,577.276z"/>
		<path style="fill:#231F20;" d="M708.938,578.677c0.031,0.345,0.375,0.938-0.155,1.062c-0.531,0.124-0.938-0.031-1.281-0.22
			c-0.343-0.188,0.312-0.5,0.469-0.812S708.938,578.677,708.938,578.677z"/>
		<path style="fill:#231F20;" d="M708.844,580.364c0,0.438,0.906-0.75,1.031-0.47c0.125,0.281,0.719,0.938,0.688,1.095
			c-0.029,0.152-0.53,0.438-1.03,0.344S708.844,580.364,708.844,580.364z"/>
		<path style="fill:#231F20;" d="M708.707,581.472c0.002-0.438-0.909,0.746-1.033,0.464c-0.124-0.281-0.715-0.939-0.683-1.097
			c0.03-0.153,0.533-0.436,1.032-0.339C708.523,580.596,708.707,581.472,708.707,581.472z"/>
		<path style="fill:#231F20;" d="M712.335,584.971c-0.125,0.188-0.906,0.406-1,0.125c-0.094-0.28-0.375-1.188,0-1.188
			s1.031,0.156,1.219,0.281C712.742,584.314,712.335,584.971,712.335,584.971z"/>
		<path style="fill:#231F20;" d="M712.616,583.377c-0.031-0.344-0.375-0.938,0.156-1.062c0.53-0.124,0.938,0.03,1.28,0.219
			c0.344,0.188-0.312,0.5-0.469,0.812C713.427,583.658,712.616,583.377,712.616,583.377z"/>
		<path style="fill:#231F20;" d="M712.835,581.846c0-0.438-0.906,0.75-1.031,0.47c-0.125-0.281-0.719-0.938-0.688-1.095
			c0.03-0.152,0.531-0.438,1.031-0.344S712.835,581.846,712.835,581.846z"/>
		<path style="fill:#231F20;" d="M713.269,576.491c0.126-0.188,0.908-0.402,1.001-0.12c0.094,0.281,0.37,1.188-0.005,1.188
			c-0.375-0.002-1.03-0.16-1.218-0.286S713.269,576.491,713.269,576.491z"/>
		<path style="fill:#231F20;" d="M712.699,577.84c0.029,0.344,0.371,0.939-0.161,1.062c-0.531,0.123-0.938-0.035-1.28-0.225
			c-0.343-0.188,0.315-0.499,0.473-0.811C711.889,577.555,712.699,577.84,712.699,577.84z"/>
		<path style="fill:#231F20;" d="M712.534,579.77c-0.002,0.438,0.909-0.745,1.033-0.464c0.124,0.282,0.715,0.94,0.683,1.098
			c-0.03,0.152-0.533,0.436-1.032,0.339C712.718,580.646,712.534,579.77,712.534,579.77z"/>
		<path style="fill:#231F20;" d="M712.71,576.189c-0.125,0.188-0.906,0.405-1,0.125c-0.094-0.281-0.375-1.188,0-1.188
			s1.031,0.156,1.219,0.281C713.117,575.532,712.71,576.189,712.71,576.189z"/>
		<path style="fill:#231F20;" d="M713.396,574.877c-0.03-0.344-0.375-0.938,0.156-1.062s0.938,0.03,1.281,0.219
			c0.343,0.188-0.312,0.5-0.469,0.812C714.208,575.158,713.396,574.877,713.396,574.877z"/>
		<path style="fill:#231F20;" d="M713.271,573.408c0-0.438-0.905,0.75-1.03,0.469s-0.72-0.938-0.688-1.094
			c0.03-0.153,0.531-0.438,1.031-0.344C713.084,572.533,713.271,573.408,713.271,573.408z"/>
		<path style="fill:#231F20;" d="M712.175,570.241c0.126-0.188,0.908-0.402,1.001-0.12c0.093,0.281,0.37,1.188-0.005,1.188
			c-0.375-0.002-1.031-0.16-1.218-0.286C711.766,570.896,712.175,570.241,712.175,570.241z"/>
		<path style="fill:#231F20;" d="M715.043,571.527c0.03,0.344,0.371,0.938-0.161,1.062c-0.531,0.123-0.938-0.035-1.28-0.224
			c-0.343-0.189,0.315-0.499,0.474-0.812C714.233,571.242,715.043,571.527,715.043,571.527z"/>
		<path style="fill:#231F20;" d="M714.054,570.627c-0.03-0.344-0.375-0.938,0.156-1.062s0.938,0.03,1.281,0.219
			c0.343,0.188-0.312,0.5-0.469,0.812C714.865,570.908,714.054,570.627,714.054,570.627z"/>
		<path style="fill:#231F20;" d="M714.146,568.939c0-0.438-0.905,0.75-1.03,0.469s-0.72-0.938-0.688-1.094
			c0.03-0.153,0.531-0.438,1.031-0.345C713.959,568.064,714.146,568.939,714.146,568.939z"/>
		<path style="fill:#231F20;" d="M714.44,568.207c-0.003,0.438,0.908-0.746,1.032-0.464s0.716,0.939,0.684,1.097
			c-0.03,0.153-0.533,0.437-1.032,0.339C714.624,569.083,714.44,568.207,714.44,568.207z"/>
		<path style="fill:#231F20;" d="M717.469,570.521c0.125-0.188,0.906-0.406,1-0.125c0.094,0.28,0.375,1.188,0,1.188
			s-1.031-0.156-1.219-0.281S717.469,570.521,717.469,570.521z"/>
		<path style="fill:#231F20;" d="M717.062,571.489c0.03,0.344,0.375,0.938-0.156,1.062s-0.938-0.031-1.281-0.219
			s0.312-0.5,0.469-0.812C716.251,571.208,717.062,571.489,717.062,571.489z"/>
		<path style="fill:#231F20;" d="M716.969,573.114c0,0.438,0.906-0.75,1.031-0.47c0.125,0.281,0.719,0.938,0.688,1.095
			c-0.029,0.152-0.53,0.438-1.03,0.344S716.969,573.114,716.969,573.114z"/>
		<path style="fill:#231F20;" d="M716.348,578.25c-0.126,0.188-0.907,0.402-1.001,0.12c-0.093-0.281-0.37-1.188,0.005-1.188
			c0.375,0.002,1.031,0.161,1.219,0.287C716.757,577.596,716.348,578.25,716.348,578.25z"/>
		<path style="fill:#231F20;" d="M716.917,576.901c-0.03-0.345-0.371-0.939,0.161-1.062c0.531-0.123,0.938,0.035,1.28,0.224
			c0.343,0.189-0.315,0.5-0.474,0.812S716.917,576.901,716.917,576.901z"/>
		<path style="fill:#231F20;" d="M716.863,575.253c0.002-0.438-0.909,0.746-1.033,0.464s-0.715-0.939-0.684-1.097
			c0.03-0.153,0.533-0.437,1.032-0.339C716.68,574.377,716.863,575.253,716.863,575.253z"/>
		<path style="fill:#231F20;" d="M716.906,578.552c0.125-0.188,0.906-0.405,1-0.125c0.094,0.281,0.375,1.188,0,1.188
			s-1.031-0.156-1.219-0.281C716.499,579.209,716.906,578.552,716.906,578.552z"/>
		<path style="fill:#231F20;" d="M716.219,579.864c0.031,0.344,0.375,0.938-0.156,1.062c-0.53,0.124-0.938-0.031-1.28-0.219
			s0.312-0.5,0.469-0.812C715.408,579.583,716.219,579.864,716.219,579.864z"/>
		<path style="fill:#231F20;" d="M716.344,581.333c0,0.438,0.906-0.75,1.031-0.469c0.125,0.28,0.719,0.938,0.688,1.094
			c-0.029,0.153-0.53,0.438-1.03,0.344C716.532,582.208,716.344,581.333,716.344,581.333z"/>
		<path style="fill:#231F20;" d="M717.441,584.5c-0.126,0.188-0.908,0.402-1.001,0.12c-0.094-0.281-0.37-1.188,0.005-1.188
			c0.375,0.002,1.03,0.161,1.218,0.287C717.851,583.846,717.441,584.5,717.441,584.5z"/>
		<path style="fill:#231F20;" d="M714.417,582.714c-0.03-0.344-0.371-0.938,0.161-1.062c0.531-0.123,0.938,0.034,1.28,0.224
			s-0.315,0.499-0.474,0.811C715.227,582.999,714.417,582.714,714.417,582.714z"/>
		<path style="fill:#231F20;" d="M715.562,584.114c0.03,0.344,0.375,0.938-0.156,1.062s-0.938-0.031-1.281-0.219
			s0.312-0.5,0.469-0.812C714.751,583.833,715.562,584.114,715.562,584.114z"/>
		<path style="fill:#231F20;" d="M715.469,585.802c0,0.438,0.906-0.75,1.031-0.469s0.719,0.938,0.688,1.094
			c-0.029,0.153-0.53,0.438-1.03,0.345C715.657,586.677,715.469,585.802,715.469,585.802z"/>
		<path style="fill:#231F20;" d="M715.332,586.909c0.002-0.438-0.909,0.746-1.033,0.464s-0.715-0.94-0.683-1.097
			c0.03-0.153,0.533-0.437,1.032-0.339C715.148,586.033,715.332,586.909,715.332,586.909z"/>
		<path style="fill:#231F20;" d="M710.896,582.219c0.03,0.344,0.375,0.938-0.156,1.062s-0.938-0.031-1.281-0.219
			c-0.343-0.188,0.312-0.5,0.469-0.812C710.085,581.938,710.896,582.219,710.896,582.219z"/>
		<path style="fill:#231F20;" d="M715.784,588.02c-0.002,0.438,0.909-0.745,1.033-0.464c0.124,0.282,0.715,0.94,0.683,1.098
			c-0.03,0.152-0.533,0.436-1.032,0.339C715.968,588.896,715.784,588.02,715.784,588.02z"/>
		<path style="fill:#231F20;" d="M719.231,573.419c-0.031-0.344-0.375-0.938,0.155-1.062c0.531-0.124,0.938,0.03,1.281,0.219
			c0.343,0.188-0.312,0.5-0.469,0.812C720.042,573.7,719.231,573.419,719.231,573.419z"/>
		<path style="fill:#231F20;" d="M713.307,567.062c-0.126,0.187-0.907,0.401-1.001,0.119c-0.093-0.28-0.37-1.188,0.005-1.188
			c0.375,0.002,1.031,0.161,1.219,0.287C713.716,566.408,713.307,567.062,713.307,567.062z"/>
		<path style="fill:#231F20;" d="M707.438,560.593c0.031,0.345,0.375,0.938-0.155,1.062c-0.531,0.124-0.938-0.031-1.281-0.22
			c-0.343-0.188,0.312-0.5,0.469-0.812S707.438,560.593,707.438,560.593z"/>
		<path style="fill:#231F20;" d="M730.822,580.446c0.031,0.344,0.375,0.938-0.156,1.062s-0.938-0.031-1.281-0.219
			c-0.343-0.188,0.312-0.5,0.469-0.812C730.011,580.165,730.822,580.446,730.822,580.446z"/>
		<path style="fill:#231F20;" d="M728.928,583.63c-0.029-0.344-0.371-0.938,0.161-1.062c0.531-0.123,0.938,0.034,1.28,0.224
			c0.343,0.189-0.315,0.499-0.473,0.811C729.738,583.915,728.928,583.63,728.928,583.63z"/>
		<path style="fill:#231F20;" d="M730.25,584.53c0.031,0.344,0.375,0.938-0.156,1.062s-0.938-0.031-1.281-0.219
			c-0.343-0.188,0.312-0.5,0.47-0.812C729.439,584.249,730.25,584.53,730.25,584.53z"/>
		<path style="fill:#231F20;" d="M729.938,587.825c0.002-0.438-0.909,0.746-1.033,0.464s-0.715-0.94-0.684-1.097
			c0.03-0.153,0.533-0.437,1.032-0.339C729.753,586.949,729.938,587.825,729.938,587.825z"/>
		<path style="fill:#231F20;" d="M723.803,593.756c0.03,0.344,0.371,0.939-0.161,1.062c-0.53,0.123-0.938-0.035-1.279-0.225
			c-0.344-0.188,0.314-0.499,0.473-0.811C722.993,593.471,723.803,593.756,723.803,593.756z"/>
		<path style="fill:#231F20;" d="M690.463,560.868c-0.126,0.187-0.908,0.401-1.001,0.12s-0.37-1.188,0.005-1.188
			c0.375,0.002,1.031,0.161,1.219,0.287C690.872,560.214,690.463,560.868,690.463,560.868z"/>
		<path style="fill:#231F20;" d="M688.584,560.482c0.031,0.344,0.375,0.938-0.156,1.062s-0.938-0.031-1.281-0.219
			c-0.343-0.188,0.312-0.5,0.47-0.812C687.773,560.201,688.584,560.482,688.584,560.482z"/>
		<path style="fill:#231F20;" d="M688.49,562.17c0,0.438,0.906-0.75,1.031-0.469s0.719,0.938,0.688,1.094
			c-0.03,0.153-0.531,0.438-1.031,0.344C688.678,563.045,688.49,562.17,688.49,562.17z"/>
		<path style="fill:#231F20;" d="M688.354,563.277c0.003-0.438-0.908,0.746-1.032,0.464s-0.716-0.94-0.684-1.098
			c0.03-0.152,0.533-0.436,1.032-0.339C688.17,562.401,688.354,563.277,688.354,563.277z"/>
		<path style="fill:#231F20;" d="M703.74,557.972c0.125-0.188,0.906-0.405,1-0.125c0.094,0.281,0.375,1.188,0,1.188
			s-1.031-0.156-1.219-0.281C703.333,558.629,703.74,557.972,703.74,557.972z"/>
		<path style="fill:#231F20;" d="M703.459,559.565c0.031,0.344,0.375,0.938-0.156,1.062s-0.938-0.031-1.281-0.219
			c-0.343-0.188,0.312-0.5,0.47-0.812C702.648,559.284,703.459,559.565,703.459,559.565z"/>
		<path style="fill:#231F20;" d="M703.24,561.097c0,0.438,0.906-0.75,1.031-0.469s0.719,0.938,0.688,1.094
			c-0.03,0.153-0.531,0.438-1.031,0.345C703.428,561.972,703.24,561.097,703.24,561.097z"/>
		<path style="fill:#231F20;" d="M702.807,566.451c-0.126,0.187-0.907,0.401-1.001,0.12c-0.093-0.281-0.37-1.188,0.005-1.188
			c0.375,0.002,1.031,0.161,1.219,0.287C703.216,565.797,702.807,566.451,702.807,566.451z"/>
		<path style="fill:#231F20;" d="M703.376,565.104c-0.03-0.345-0.371-0.939,0.161-1.062c0.531-0.123,0.938,0.035,1.28,0.224
			c0.343,0.189-0.315,0.499-0.474,0.812C704.186,565.388,703.376,565.104,703.376,565.104z"/>
		<path style="fill:#231F20;" d="M703.541,563.173c0.002-0.438-0.909,0.746-1.033,0.464c-0.124-0.281-0.715-0.939-0.683-1.097
			c0.03-0.153,0.533-0.437,1.032-0.339C703.357,562.297,703.541,563.173,703.541,563.173z"/>
		<path style="fill:#231F20;" d="M703.365,566.753c0.125-0.188,0.906-0.406,1-0.125s0.375,1.188,0,1.188s-1.031-0.156-1.219-0.281
			C702.958,567.41,703.365,566.753,703.365,566.753z"/>
		<path style="fill:#231F20;" d="M702.678,568.065c0.031,0.344,0.375,0.938-0.156,1.062c-0.53,0.124-0.938-0.031-1.28-0.219
			c-0.343-0.188,0.312-0.5,0.469-0.812C701.867,567.784,702.678,568.065,702.678,568.065z"/>
		<path style="fill:#231F20;" d="M702.803,569.534c0,0.438,0.906-0.75,1.031-0.469c0.125,0.28,0.719,0.938,0.688,1.094
			c-0.029,0.153-0.53,0.438-1.03,0.344S702.803,569.534,702.803,569.534z"/>
		<path style="fill:#231F20;" d="M703.9,572.701c-0.126,0.187-0.908,0.401-1.001,0.12c-0.094-0.281-0.37-1.188,0.005-1.188
			c0.375,0.002,1.031,0.161,1.218,0.287C704.31,572.047,703.9,572.701,703.9,572.701z"/>
		<path style="fill:#231F20;" d="M701.032,571.415c-0.03-0.344-0.371-0.939,0.161-1.062c0.53-0.122,0.938,0.035,1.279,0.225
			c0.344,0.188-0.314,0.499-0.473,0.811C701.842,571.7,701.032,571.415,701.032,571.415z"/>
		<path style="fill:#231F20;" d="M702.021,572.315c0.03,0.344,0.375,0.938-0.156,1.062s-0.938-0.031-1.281-0.219
			c-0.343-0.188,0.312-0.5,0.469-0.812C701.21,572.034,702.021,572.315,702.021,572.315z"/>
		<path style="fill:#231F20;" d="M701.928,574.003c0,0.438,0.906-0.75,1.031-0.469s0.719,0.938,0.688,1.094
			c-0.029,0.153-0.53,0.438-1.03,0.344C702.116,574.878,701.928,574.003,701.928,574.003z"/>
		<path style="fill:#231F20;" d="M701.791,575.11c0.002-0.438-0.909,0.745-1.033,0.464c-0.124-0.282-0.715-0.94-0.683-1.098
			c0.03-0.152,0.533-0.436,1.032-0.339C701.607,574.234,701.791,575.11,701.791,575.11z"/>
		<path style="fill:#231F20;" d="M698.763,572.828c-0.125,0.188-0.905,0.406-1,0.125c-0.094-0.281-0.375-1.188,0-1.188
			s1.031,0.156,1.22,0.281C699.17,572.171,698.763,572.828,698.763,572.828z"/>
		<path style="fill:#231F20;" d="M699.013,571.453c-0.03-0.344-0.375-0.938,0.156-1.062s0.938,0.031,1.281,0.22
			c0.343,0.188-0.312,0.5-0.469,0.812C699.824,571.734,699.013,571.453,699.013,571.453z"/>
		<path style="fill:#231F20;" d="M699.106,569.828c0-0.438-0.906,0.75-1.031,0.469s-0.719-0.938-0.688-1.094
			c0.03-0.153,0.531-0.438,1.031-0.344C698.918,568.953,699.106,569.828,699.106,569.828z"/>
		<path style="fill:#231F20;" d="M699.729,564.692c0.125-0.188,0.907-0.402,1-0.12c0.094,0.281,0.37,1.188-0.005,1.188
			c-0.375-0.002-1.03-0.161-1.218-0.287S699.729,564.692,699.729,564.692z"/>
		<path style="fill:#231F20;" d="M699.158,566.041c0.03,0.344,0.371,0.939-0.161,1.062c-0.531,0.122-0.938-0.035-1.28-0.225
			c-0.343-0.188,0.315-0.499,0.474-0.811C698.348,565.756,699.158,566.041,699.158,566.041z"/>
		<path style="fill:#231F20;" d="M699.212,567.689c-0.002,0.438,0.909-0.746,1.033-0.465c0.124,0.282,0.715,0.94,0.683,1.098
			c-0.029,0.152-0.533,0.436-1.031,0.339C699.396,568.565,699.212,567.689,699.212,567.689z"/>
		<path style="fill:#231F20;" d="M699.169,564.391c-0.125,0.188-0.906,0.406-1,0.125c-0.094-0.28-0.375-1.188,0-1.188
			s1.031,0.156,1.219,0.281C699.576,563.734,699.169,564.391,699.169,564.391z"/>
		<path style="fill:#231F20;" d="M699.856,563.078c-0.031-0.344-0.375-0.938,0.155-1.062c0.531-0.124,0.938,0.031,1.281,0.22
			c0.343,0.188-0.312,0.5-0.469,0.812C700.667,563.359,699.856,563.078,699.856,563.078z"/>
		<path style="fill:#231F20;" d="M699.731,561.609c0-0.438-0.906,0.75-1.031,0.469s-0.719-0.938-0.688-1.094
			c0.03-0.153,0.531-0.438,1.031-0.345C699.543,560.734,699.731,561.609,699.731,561.609z"/>
		<path style="fill:#231F20;" d="M698.634,558.442c0.126-0.188,0.908-0.402,1.001-0.12c0.093,0.281,0.37,1.188-0.005,1.188
			c-0.375-0.002-1.031-0.161-1.218-0.287C698.225,559.097,698.634,558.442,698.634,558.442z"/>
		<path style="fill:#231F20;" d="M701.658,560.229c0.03,0.345,0.371,0.939-0.161,1.062c-0.531,0.123-0.938-0.035-1.28-0.224
			c-0.343-0.189,0.315-0.499,0.474-0.812C700.848,559.944,701.658,560.229,701.658,560.229z"/>
		<path style="fill:#231F20;" d="M700.513,558.828c-0.03-0.344-0.375-0.938,0.156-1.062s0.938,0.031,1.281,0.22
			c0.343,0.188-0.312,0.5-0.469,0.812C701.324,559.109,700.513,558.828,700.513,558.828z"/>
		<path style="fill:#231F20;" d="M700.606,557.141c0-0.438-0.906,0.75-1.031,0.47c-0.125-0.281-0.719-0.938-0.688-1.095
			c0.03-0.152,0.531-0.438,1.031-0.344S700.606,557.141,700.606,557.141z"/>
		<path style="fill:#231F20;" d="M700.743,556.033c-0.002,0.438,0.909-0.746,1.033-0.464c0.124,0.281,0.715,0.939,0.683,1.097
			c-0.03,0.153-0.533,0.436-1.032,0.339C700.927,556.909,700.743,556.033,700.743,556.033z"/>
		<path style="fill:#231F20;" d="M697.115,552.534c0.125-0.188,0.906-0.406,1-0.125s0.375,1.188,0,1.188s-1.031-0.155-1.219-0.28
			C696.708,553.191,697.115,552.534,697.115,552.534z"/>
		<path style="fill:#231F20;" d="M696.834,554.128c0.031,0.344,0.375,0.938-0.156,1.062s-0.938-0.031-1.281-0.22
			c-0.343-0.188,0.312-0.5,0.47-0.812C696.023,553.847,696.834,554.128,696.834,554.128z"/>
		<path style="fill:#231F20;" d="M696.615,555.659c0,0.438,0.906-0.75,1.031-0.469c0.125,0.28,0.719,0.938,0.688,1.094
			c-0.03,0.153-0.531,0.438-1.031,0.344S696.615,555.659,696.615,555.659z"/>
		<path style="fill:#231F20;" d="M696.182,561.014c-0.126,0.188-0.907,0.402-1.001,0.12c-0.093-0.281-0.37-1.188,0.005-1.188
			c0.375,0.002,1.031,0.161,1.219,0.287C696.591,560.359,696.182,561.014,696.182,561.014z"/>
		<path style="fill:#231F20;" d="M696.751,559.665c-0.03-0.344-0.371-0.939,0.161-1.062c0.531-0.122,0.938,0.035,1.28,0.225
			c0.343,0.188-0.315,0.499-0.474,0.811C697.561,559.95,696.751,559.665,696.751,559.665z"/>
		<path style="fill:#231F20;" d="M696.916,557.735c0.002-0.438-0.909,0.745-1.033,0.464c-0.124-0.282-0.715-0.94-0.683-1.098
			c0.03-0.152,0.533-0.436,1.032-0.339C696.732,556.859,696.916,557.735,696.916,557.735z"/>
		<path style="fill:#231F20;" d="M696.74,561.315c0.125-0.188,0.906-0.406,1-0.125c0.094,0.28,0.375,1.188,0,1.188
			s-1.031-0.156-1.219-0.281C696.333,561.972,696.74,561.315,696.74,561.315z"/>
		<path style="fill:#231F20;" d="M696.053,562.628c0.031,0.344,0.375,0.938-0.156,1.062c-0.53,0.124-0.938-0.031-1.28-0.22
			c-0.343-0.188,0.312-0.5,0.469-0.812C695.242,562.347,696.053,562.628,696.053,562.628z"/>
		<path style="fill:#231F20;" d="M696.178,564.097c0,0.438,0.906-0.75,1.031-0.469s0.719,0.938,0.688,1.094
			c-0.029,0.153-0.53,0.438-1.03,0.345C696.366,564.972,696.178,564.097,696.178,564.097z"/>
		<path style="fill:#231F20;" d="M697.275,567.264c-0.126,0.188-0.908,0.402-1.001,0.12c-0.094-0.281-0.37-1.188,0.005-1.188
			c0.375,0.002,1.031,0.161,1.218,0.287C697.685,566.609,697.275,567.264,697.275,567.264z"/>
		<path style="fill:#231F20;" d="M694.407,565.979c-0.03-0.345-0.371-0.939,0.161-1.062c0.53-0.123,0.938,0.035,1.279,0.224
			c0.344,0.189-0.314,0.499-0.473,0.812C695.217,566.263,694.407,565.979,694.407,565.979z"/>
		<path style="fill:#231F20;" d="M695.396,566.878c0.03,0.344,0.375,0.938-0.156,1.062s-0.938-0.031-1.281-0.22
			c-0.343-0.188,0.312-0.5,0.469-0.812C694.585,566.597,695.396,566.878,695.396,566.878z"/>
		<path style="fill:#231F20;" d="M695.303,568.565c0,0.438,0.906-0.75,1.031-0.47c0.125,0.281,0.719,0.938,0.688,1.095
			c-0.029,0.152-0.53,0.438-1.03,0.344S695.303,568.565,695.303,568.565z"/>
		<path style="fill:#231F20;" d="M695.01,569.298c0.002-0.438-0.909,0.746-1.033,0.464c-0.124-0.281-0.715-0.939-0.683-1.097
			c0.03-0.153,0.533-0.437,1.032-0.339C694.826,568.422,695.01,569.298,695.01,569.298z"/>
		<path style="fill:#231F20;" d="M691.981,566.984c-0.125,0.188-0.906,0.405-1,0.125c-0.095-0.281-0.375-1.188,0-1.188
			s1.03,0.156,1.219,0.281C692.388,566.327,691.981,566.984,691.981,566.984z"/>
		<path style="fill:#231F20;" d="M692.388,566.016c-0.03-0.344-0.375-0.938,0.156-1.062s0.938,0.031,1.281,0.219
			c0.343,0.188-0.312,0.5-0.469,0.812C693.199,566.297,692.388,566.016,692.388,566.016z"/>
		<path style="fill:#231F20;" d="M692.481,564.391c0-0.438-0.906,0.75-1.031,0.47c-0.125-0.281-0.719-0.938-0.688-1.095
			c0.03-0.152,0.531-0.438,1.031-0.344S692.481,564.391,692.481,564.391z"/>
		<path style="fill:#231F20;" d="M693.104,559.255c0.125-0.187,0.907-0.401,1-0.12c0.094,0.281,0.37,1.188-0.005,1.188
			c-0.375-0.002-1.03-0.161-1.218-0.287C692.693,559.909,693.104,559.255,693.104,559.255z"/>
		<path style="fill:#231F20;" d="M692.533,560.604c0.03,0.345,0.371,0.939-0.161,1.062c-0.531,0.123-0.938-0.035-1.28-0.224
			c-0.343-0.189,0.315-0.499,0.474-0.812C691.723,560.319,692.533,560.604,692.533,560.604z"/>
		<path style="fill:#231F20;" d="M692.587,562.252c-0.002,0.438,0.909-0.746,1.033-0.464s0.715,0.94,0.683,1.097
			c-0.029,0.153-0.533,0.437-1.031,0.339C692.771,563.128,692.587,562.252,692.587,562.252z"/>
		<path style="fill:#231F20;" d="M692.544,558.953c-0.125,0.188-0.906,0.406-1,0.125s-0.375-1.188,0-1.188s1.031,0.156,1.219,0.281
			C692.951,558.296,692.544,558.953,692.544,558.953z"/>
		<path style="fill:#231F20;" d="M693.231,557.641c-0.031-0.344-0.375-0.938,0.155-1.062c0.531-0.124,0.938,0.031,1.281,0.219
			c0.343,0.188-0.312,0.5-0.469,0.812C694.042,557.922,693.231,557.641,693.231,557.641z"/>
		<path style="fill:#231F20;" d="M695.033,554.791c0.03,0.344,0.371,0.939-0.161,1.062c-0.531,0.122-0.938-0.035-1.28-0.225
			c-0.343-0.188,0.315-0.499,0.474-0.811C694.223,554.506,695.033,554.791,695.033,554.791z"/>
		<path style="fill:#231F20;" d="M698.555,555.286c-0.03-0.344-0.375-0.938,0.156-1.062s0.938,0.031,1.281,0.22
			c0.343,0.188-0.312,0.5-0.469,0.812C699.366,555.567,698.555,555.286,698.555,555.286z"/>
		<path style="fill:#231F20;" d="M690.219,564.086c0.031,0.344,0.375,0.938-0.156,1.062c-0.53,0.124-0.938-0.031-1.28-0.22
			c-0.343-0.188,0.312-0.5,0.469-0.812C689.408,563.805,690.219,564.086,690.219,564.086z"/>
		<path style="fill:#231F20;" d="M696.144,570.442c0.126-0.188,0.908-0.402,1.001-0.12c0.094,0.281,0.37,1.188-0.005,1.188
			c-0.375-0.002-1.03-0.161-1.218-0.287S696.144,570.442,696.144,570.442z"/>
		<path style="fill:#231F20;" d="M702.013,576.912c-0.03-0.344-0.375-0.938,0.156-1.062s0.938,0.031,1.281,0.22
			c0.343,0.188-0.312,0.5-0.469,0.812C702.824,577.193,702.013,576.912,702.013,576.912z"/>
	</g>
</g>
<g id="Layer_1">
</g>
</svg>
