<svg xmlns="http://www.w3.org/2000/svg" width="1366" height="700" viewBox="0 0 1366 700"><path d="M729.972 210.283c-.284-.04-.424-.202-.424-1.008 0-.807.176-.36.212-.725.034-.362-.424-.28-.846-.522-.423-.242-.212-.16-.46-.807-.247-.644.248-.44.14-.884-.103-.445-.21-.524-.667-.524-.46 0-.495.283-.775.202 0 0-.297.05-.506.07s-.27-.31-.438-.31-.166.187-.48.228c-.31.04-.687-.208-.79-.23-.105-.02-.71.168-.96.293s-.75-.125-.874-.188-.542-.146-.834-.083-.23.312-.458.375c-.23.062-.48-.293-.625-.376-.146-.083-.604-.062-.792.042-.188.104-.666.208-.916.188s-.335-.167-.543-.167-.75.23-1 .125-.333-.042-.708-.02-.293.082-.397.124c-.104.042-.188-.104-.354-.188s-.5.125-.73.188c-.23.063-.667.083-.73.083-.06 0-.915-.23-1.187-.334-.272-.104-.396.062-.688.167s-1-.042-1.166-.083-.397.042-.71.062c-.312.02-.607-.173-.607-.173-.143.283-.914.24-1.27.604-.353.362-.104 1.006-.142 1.166-.034.16-.633.122-1.057.242-.422.12-.388.723-.457 1.01-.068.28-.177.484-.564.52-.388.04-.14.08-.28.605-.142.523-.038.482.103.806 0 0 .356-.177.69-.198s.456.083.915.125c.46.042.584.167.896 0 .312-.167.54-.25.646-.167.105.083.292.23.667.23s.353-.25.687-.272.583-.083.77.022c.19.105.647.25.834.208.19-.042.294-.208.46-.23s.354 0 .54.105c.19.104.48.146.772 0s.333-.333.708-.146c.512.255.562.374.896.395s.5.02.667-.083.583-.23.77-.208c.19.02.25.187.605.208.354.02.583-.083.896-.188.312-.105 1.25-.02 1.312 0 .062.02.25.167.417.167s.374-.187.52-.228c.147-.04.75 0 1.063.125.312.125.626.292.896.062.27-.23.354-.397.77-.23.623.25.09.193.71.375.353.104.728.083.874-.083.146-.166.396-.5.896-.292s.96.312 1.062.23c.104-.084.374-.397.73-.293.353.104.375.292.708.208s.6-.322.6-.322z" fill="#231f20"/></svg>