<svg xmlns="http://www.w3.org/2000/svg" width="1366" height="700" viewBox="0 0 1366 700"><g fill="#231f20"><path d="M762.844 554.488c-.238.25-.462.897-.904.58-.442-.32-.592-.73-.676-1.11s.582-.093.92-.18c.337-.088.66.71.66.71zM761.508 555.524c-.33.286 1.16.19 1.03.47-.13.28-.235 1.158-.374 1.238-.135.076-.678-.114-.936-.554-.257-.438.28-1.154.28-1.154zM760.582 556.148c.332-.286-1.158-.197-1.027-.478.133-.278.24-1.156.38-1.233.137-.077.68.116.934.558.253.44-.288 1.153-.288 1.153zM760.318 552.365c-.224.028-.9-.417-.75-.672.15-.256.65-1.062.896-.78.246.283.56.882.587 1.105.03.223-.732.347-.732.347zM761.52 551.652c.24-.25.464-.898.905-.58.442.318.59.73.675 1.11.086.383-.582.093-.92.18s-.66-.71-.66-.71zM762.81 550.656c.33-.287-1.16-.19-1.03-.472.13-.277.234-1.156.374-1.235.136-.08.68.11.936.552.256.44-.28 1.154-.28 1.154zM762.602 545.92c-.238.25-.463.9-.903.58-.444-.318-.594-.73-.678-1.11-.084-.382.582-.092.92-.18.338-.087.66.71.66.71zM761.266 546.957c-.33.287 1.16.192 1.03.47-.13.28-.235 1.16-.374 1.237-.136.078-.68-.113-.937-.553-.256-.437.28-1.153.28-1.153zM760.52 547.217c.33-.285-1.16-.197-1.027-.475.132-.28.24-1.157.38-1.235.135-.078.678.116.933.558.255.44-.285 1.152-.285 1.152zM760.28 543.414c-.225.028-.9-.418-.75-.674.15-.255.648-1.062.895-.78s.56.882.588 1.106c.03.223-.734.348-.734.348zM761.277 543.084c.238-.248.462-.896.903-.578.443.318.593.73.677 1.11s-.582.092-.92.18c-.338.087-.66-.712-.66-.712zM762.78 541.957c.33-.287-1.16-.19-1.028-.47.13-.28.235-1.16.374-1.237.136-.078.68.113.937.553.255.438-.282 1.154-.282 1.154zM759.95 526.143c-.222.03-.9-.418-.75-.672.15-.255.65-1.06.897-.777.246.28.56.88.587 1.104.028.223-.733.346-.733.346zM761.34 525.31c.238-.25.46-.897.903-.578.442.317.592.728.676 1.11s-.584.092-.922.178c-.338.087-.66-.71-.66-.71zM762.64 524.47c.33-.287-1.16-.19-1.032-.47.132-.28.236-1.158.375-1.238.136-.077.68.115.937.553.256.44-.28 1.155-.28 1.155zM762.716 528.017c-.24.25-.462.897-.905.58-.44-.318-.59-.73-.675-1.11-.083-.383.583-.094.922-.18.338-.088.66.71.66.71zM761.38 529.053c-.33.287 1.16.192 1.03.472-.13.278-.235 1.157-.374 1.235-.136.078-.68-.112-.937-.553-.256-.438.28-1.154.28-1.154zM760.455 529.676c.332-.285-1.16-.195-1.027-.475.13-.278.24-1.155.38-1.233.137-.078.68.116.934.558.254.438-.287 1.15-.287 1.15zM760.194 534.71c-.225.028-.9-.418-.75-.673s.648-1.062.895-.78.56.882.587 1.105c.03.223-.733.348-.733.348zM761.582 533.877c.238-.25.46-.898.904-.58.44.32.592.73.676 1.11s-.583.093-.922.18c-.338.087-.658-.71-.658-.71zM762.88 533.037c.33-.287-1.16-.19-1.03-.47.13-.28.236-1.16.375-1.237.137-.078.68.113.938.553.255.438-.282 1.154-.282 1.154zM762.958 536.584c-.24.25-.462.898-.904.578-.44-.318-.59-.73-.675-1.11-.085-.382.58-.09.92-.18.338-.086.658.712.658.712zM761.623 537.62c-.33.287 1.16.192 1.03.47-.13.28-.235 1.158-.374 1.237-.138.078-.68-.114-.94-.553-.254-.438.283-1.154.283-1.154zM760.697 538.243c.332-.285-1.16-.196-1.027-.477.13-.277.24-1.155.38-1.233.136-.078.68.117.934.557.254.44-.287 1.153-.287 1.153zM761.327 531.818c-.24.248-.462.897-.904.578-.442-.318-.592-.728-.676-1.11s.583-.092.92-.18c.34-.086.66.712.66.712zM760.156 539.312c-.33.285 1.16.196 1.026.477-.13.277-.24 1.155-.38 1.233-.135.077-.678-.117-.933-.558-.255-.44.286-1.153.286-1.153zM763.037 521.305c-.238.25-.46.898-.904.58-.44-.32-.592-.73-.676-1.11-.084-.383.583-.093.922-.18.337-.088.657.71.657.71zM760.282 523.284c.33-.286-1.16-.196-1.028-.477.133-.278.24-1.155.38-1.233.136-.078.68.116.935.557.252.44-.288 1.154-.288 1.154zM760.018 519.5c-.223.03-.9-.416-.75-.672.15-.255.65-1.062.896-.778.246.282.56.88.587 1.104.03.223-.732.347-.732.347zM761.22 518.788c.24-.25.462-.898.904-.58.442.32.592.73.676 1.11.083.383-.583.094-.92.18-.34.088-.66-.71-.66-.71zM762.508 517.793c.33-.287-1.16-.192-1.03-.47.13-.28.235-1.16.374-1.237.137-.078.68.113.937.553.255.437-.282 1.153-.282 1.153zM762.3 513.057c-.24.25-.46.898-.903.58s-.592-.73-.676-1.11c-.083-.383.583-.093.92-.18.34-.087.66.71.66.71zM760.965 514.094c-.33.287 1.16.19 1.03.472-.13.278-.235 1.156-.374 1.235-.135.08-.678-.112-.935-.552-.257-.44.28-1.154.28-1.154zM760.22 514.354c.332-.285-1.16-.196-1.026-.477.132-.278.24-1.156.38-1.234.135-.077.68.117.933.558.254.44-.286 1.154-.286 1.154zM759.98 510.55c-.225.028-.9-.418-.75-.673.15-.256.648-1.062.895-.78.246.284.56.883.588 1.105.028.224-.734.347-.734.347zM760.977 510.22c.24-.25.463-.896.905-.58.442.32.59.73.675 1.112s-.582.092-.92.18c-.34.087-.66-.71-.66-.71zM762.48 509.094c.33-.287-1.16-.192-1.03-.472s.237-1.157.376-1.236c.135-.077.678.114.936.554.258.437-.282 1.154-.282 1.154zM759.65 493.278c-.224.027-.9-.417-.75-.673.15-.257.65-1.062.896-.78s.56.882.588 1.105c.03.224-.733.348-.733.348zM761.04 492.445c.237-.25.46-.898.903-.58.44.318.592.73.675 1.11.084.384-.582.093-.92.18-.34.088-.66-.71-.66-.71zM762.338 491.605c.33-.287-1.16-.19-1.03-.472.13-.278.235-1.157.374-1.235.137-.078.68.112.937.553.255.44-.282 1.155-.282 1.155zM762.415 495.152c-.24.25-.462.897-.904.58-.44-.32-.59-.73-.675-1.11s.583-.093.92-.18c.34-.087.66.71.66.71zM761.08 496.19c-.33.285 1.16.19 1.03.47-.13.278-.236 1.157-.374 1.236-.138.077-.68-.115-.938-.555-.256-.437.282-1.15.282-1.15zM760.154 496.812c.332-.286-1.16-.197-1.027-.478.13-.277.24-1.156.38-1.234.136-.076.68.117.934.558.255.442-.286 1.154-.286 1.154zM759.895 501.846c-.225.03-.9-.418-.75-.673.15-.255.648-1.062.896-.778.248.284.56.88.59 1.104s-.735.346-.735.346zM761.28 501.013c.24-.25.463-.897.905-.58s.592.73.676 1.11-.58.094-.92.18c-.338.088-.66-.71-.66-.71zM762.58 500.173c.33-.287-1.16-.19-1.03-.47.13-.28.236-1.158.374-1.237.137-.077.68.114.938.553.255.437-.282 1.153-.282 1.153zM762.658 503.72c-.24.25-.462.897-.904.58-.443-.318-.592-.73-.676-1.11-.084-.384.582-.094.92-.18.34-.088.66.71.66.71zM761.322 504.756c-.33.287 1.16.19 1.03.47-.13.28-.235 1.16-.374 1.237-.136.078-.68-.113-.937-.553s.282-1.154.282-1.154zM760.396 505.38c.332-.286-1.158-.197-1.027-.476.13-.28.24-1.157.38-1.235.135-.078.678.115.932.557.256.44-.286 1.152-.286 1.152zM761.026 498.954c-.24.25-.462.896-.904.58-.442-.32-.59-.73-.676-1.112-.084-.382.583-.092.92-.178.34-.088.66.71.66.71zM759.855 506.45c-.332.284 1.16.194 1.027.474s-.24 1.157-.38 1.235c-.135.076-.68-.117-.934-.56-.254-.44.287-1.15.287-1.15zM760.787 516.264c-.24.25-.466.896-.906.575-.44-.32-.588-.73-.67-1.113-.083-.384.583-.09.92-.176s.657.714.657.714zM762.793 467.854c-.238.25-.46.898-.904.58-.442-.318-.593-.73-.677-1.11s.583-.092.922-.18c.338-.086.658.71.658.71zM761.46 468.89c-.33.288 1.16.193 1.028.473-.13.278-.236 1.157-.374 1.236-.136.076-.68-.114-.938-.555-.255-.44.283-1.154.283-1.154zM760.533 469.515c.33-.286-1.16-.195-1.028-.476s.24-1.157.38-1.235c.135-.078.68.116.934.558.253.438-.287 1.152-.287 1.152zM762.68 485.76c-.24.248-.463.898-.906.578-.44-.318-.59-.728-.674-1.11-.085-.382.582-.092.92-.18.337-.087.66.712.66.712zM761.344 486.796c-.33.287 1.16.192 1.03.47-.13.28-.235 1.158-.374 1.237-.137.077-.68-.114-.938-.553-.256-.44.282-1.154.282-1.154zM760.418 487.42c.332-.286-1.16-.197-1.027-.477.132-.278.24-1.156.38-1.234.138-.08.68.116.935.556.254.44-.287 1.154-.287 1.154zM760.154 483.637c-.226.028-.902-.418-.75-.674.15-.255.647-1.06.895-.778.245.283.56.882.587 1.104.03.222-.733.347-.733.347zM761.355 482.923c.238-.25.46-.896.903-.58.443.32.592.73.677 1.11.084.384-.582.094-.922.18-.338.088-.658-.71-.658-.71zM762.645 481.928c.33-.287-1.162-.19-1.03-.47.13-.28.235-1.16.374-1.237.135-.077.678.114.936.555.257.44-.28 1.153-.28 1.153zM762.436 477.19c-.237.25-.46.898-.903.58-.442-.318-.593-.728-.677-1.11-.082-.382.584-.092.923-.18.335-.085.656.71.656.71zM761.102 478.23c-.33.286 1.16.19 1.03.47-.13.28-.237 1.16-.375 1.236-.136.078-.68-.112-.937-.553-.258-.44.282-1.154.282-1.154zM760.355 478.488c.332-.286-1.158-.197-1.027-.478.13-.276.24-1.155.38-1.233.136-.077.68.116.933.557.256.44-.285 1.154-.285 1.154zM760.115 474.685c-.225.028-.9-.417-.75-.673.15-.255.65-1.062.896-.778.247.282.56.88.587 1.104.03.223-.732.347-.732.347zM761.113 474.355c.237-.25.46-.898.903-.58.442.32.593.73.677 1.11s-.583.092-.922.18c-.336.088-.657-.71-.657-.71zM762.4 473.36c.33-.287-1.16-.192-1.03-.472.13-.278.235-1.156.375-1.235.136-.077.68.113.936.553.258.44-.28 1.154-.28 1.154zM761.146 471.453c-.24.248-.463.897-.904.58-.443-.32-.592-.73-.676-1.11s.582-.094.92-.18c.34-.09.66.71.66.71zM760.236 480.095c.223-.027.898.42.747.678-.15.254-.654 1.06-.9.774-.243-.285-.554-.885-.58-1.106-.03-.225.733-.345.733-.345zM759.203 488.768c.24-.248.463-.896.904-.577.442.318.592.73.676 1.11.084.383-.582.093-.92.18-.34.086-.66-.712-.66-.712z"/></g></svg>