<?xml version="1.0" encoding="iso-8859-1"?>
<!-- Generator: Adobe Illustrator 16.0.4, SVG Export Plug-In . SVG Version: 6.00 Build 0)  -->
<!DOCTYPE svg PUBLIC "-//W3C//DTD SVG 1.1//EN" "http://www.w3.org/Graphics/SVG/1.1/DTD/svg11.dtd">
<svg version="1.1" xmlns="http://www.w3.org/2000/svg" xmlns:xlink="http://www.w3.org/1999/xlink" x="0px" y="0px" width="1366px"
	 height="700px" viewBox="0 0 1366 700" style="enable-background:new 0 0 1366 700;" xml:space="preserve">
<g id="Rockpile_from_headframe_4">
	<path style="fill:#231F20;" d="M731.028,212.979c-0.108,0.686-0.459,0.686,0,1.008c0.458,0.323,0.704,0.163,0.914,0.281
		c0.211,0.121,0.459,0.281,0.459,0.562c0,0.283,0.07,0.483,0.281,0.483c0.212,0,0.072-0.24,0.423,0.042
		c0.353,0.28,0.527,0.323,0.493,0.603s0.151,0.625,0.151,0.625H704c0,0-0.177-0.345,0.001-0.506
		c0.177-0.163,0.633-0.364,0.424-0.404c-0.212-0.042-0.67-0.402-0.602-0.644c0.069-0.242,0.073-0.124,0.319-0.323
		c0.246-0.201,0.456-0.16,0.49-0.644c0.036-0.483-0.387-0.282,0.036-0.483c0.422-0.202,0.742,0.163,0.777-0.16
		c0.03-0.323,0.033-0.444,0.209-0.564c0,0,0.802,0.124,0.885,0.249s0.458,0.104,0.812-0.021c0.354-0.125,0.583-0.229,0.938-0.125
		c0.354,0.104,0.812,0.292,1.271,0.167s0.938-0.25,1.396-0.104s0.333,0.312,1.062,0.125c0.729-0.187,0.562-0.167,1.188-0.167
		s0.792,0.292,1.209,0.208s0.854-0.125,0.875-0.25c0.021-0.125,0.188-0.271,0.375-0.146c0.187,0.125,0.666,0.396,0.812,0.354
		c0.146-0.042,1.229-0.167,1.458-0.208c0.229-0.041,0.896-0.021,1.042,0.125c0.146,0.146,0.666,0.125,0.771,0.042
		c0.104-0.083,0.687-0.229,0.958-0.208c0.271,0.021,0.5,0.208,0.667,0.25s1.041-0.021,1.271-0.167
		c0.23-0.146,0.918-0.229,1.021-0.104c0.103,0.125,0.582,0.292,0.854,0.25c0.272-0.042,0.312-0.021,1-0.146
		c0.688-0.125,0.708,0.104,0.875,0.146s0.667,0.125,0.875,0s0.354-0.375,0.75-0.25c0.396,0.125,0.479,0.292,0.834,0.25
		c0.355-0.042,0.582-0.458,0.854-0.292c0.271,0.166,0.375,0.438,0.604,0.312c0.229-0.126,0.376-0.396,0.479-0.354
		C730.894,212.833,731.028,212.979,731.028,212.979z"/>
</g>
<g id="Layer_1">
</g>
</svg>
