<?xml version="1.0" encoding="iso-8859-1"?>
<!-- Generator: Adobe Illustrator 16.0.4, SVG Export Plug-In . SVG Version: 6.00 Build 0)  -->
<!DOCTYPE svg PUBLIC "-//W3C//DTD SVG 1.1//EN" "http://www.w3.org/Graphics/SVG/1.1/DTD/svg11.dtd">
<svg version="1.1" xmlns="http://www.w3.org/2000/svg" xmlns:xlink="http://www.w3.org/1999/xlink" x="0px" y="0px" width="1366px"
	 height="700px" viewBox="0 0 1366 700" style="enable-background:new 0 0 1366 700;" xml:space="preserve">
<g id="Rockpile_from_headframe_1">
	<path style="fill:#231F20;" d="M728.595,206.335c-0.104-0.445-0.21-0.524-0.668-0.524c-0.459,0-0.495,0.283-0.775,0.202
		c-0.285-0.081-0.069-0.525-0.069-0.848c0-0.323-0.249-0.442-0.459-0.442c-0.212,0-0.598,0-0.671,0.2
		c-0.068,0.202-0.352-0.04-0.492-0.321c-0.143-0.279-0.283-0.522-0.459-0.522c-0.174,0-0.317,0.321-0.563,0.2
		c-0.245-0.118,0-0.602,0.104-0.965c0.106-0.364-0.139-0.361-0.491-0.565c-0.354-0.202-0.531,0.283-0.743-0.201
		c-0.211-0.483-0.033-0.282-0.421-0.564c-0.39-0.283-0.562,0.081-0.774,0.242s-0.247,0.038-0.459-0.283
		c-0.212-0.321-0.562-0.644-0.88-0.684c-0.319-0.042-0.527,0.16-0.706,0.241s-0.352-0.041-0.459-0.241
		c-0.106-0.202-0.212-0.523-0.212-0.725c0-0.204-0.6-0.324-0.846-0.284c-0.244,0.042-0.388,0.764-0.388,0.966
		c0,0.204-0.069,0.364-0.386,0.526c-0.316,0.16-0.492-0.042-0.528-0.284s-0.211-0.121-0.634-0.082
		c-0.423,0.042-0.354,0.565-0.528,0.807c-0.174,0.241-0.704,0.041-0.95,0s-0.599-0.201-0.845-0.163
		c-0.247,0.039-0.315,0.443-0.458,0.685c-0.142,0.242-0.317,0.242-0.703,0.242c-0.389,0-0.459-0.24-0.776-0.202
		c-0.318,0.039-0.389,0.404-0.389,1.007s-0.28,0.44-0.493,0.644c-0.212,0.203-0.562,0.121-0.845,0.323
		c-0.283,0.201,0.178,0.805,0.035,1.085c-0.142,0.284-0.914,0.24-1.269,0.605c0,0-0.229,0.109-0.104,0.172s0.375,0.062,0.604,0.042
		c0.229-0.02,0.729-0.062,0.896,0.021s0.521,0.062,0.792,0.042c0.271-0.02,0.208-0.083,0.625,0.042s0.958,0.021,0.958,0.021
		s0.104,0.306,0.646,0.333c0.416,0.021,0.458-0.375,0.979-0.396c0.461-0.019,1.041,0.271,1.188,0.271c0.146,0,0.729-0.146,1-0.188
		c0.271-0.042,0.354-0.021,0.459,0.062c0.104,0.083,0.124,0.271,0.354,0.146c0.23-0.125,0.396-0.313,0.562-0.292
		s0.25-0.042,0.417,0.125s0.521,0.333,0.771,0.208s0.438-0.229,0.584-0.208c0.146,0.021,0.125,0.104,0.5,0.167
		s0.916-0.104,1.146-0.146c0.229-0.042,0.333-0.333,0.583-0.083s0.521,0.5,0.667,0.354c0.146-0.146,0.438-0.417,0.771-0.312
		s0.459,0.521,0.646,0.396c0.187-0.125,0.646-0.479,0.938-0.521s0.479-0.062,0.646,0.042s0.479,0.375,0.604,0.229
		s-0.021-0.521,0.375-0.333c0.396,0.188,0.229,0.333,0.688,0.292s0.332-0.313,0.541-0.333S728.595,206.335,728.595,206.335z"/>
</g>
<g id="Layer_1">
</g>
</svg>
