<svg xmlns="http://www.w3.org/2000/svg" width="1366" height="700" viewBox="0 0 1366 700"><path d="M728.595 206.335c-.104-.445-.21-.524-.668-.524-.46 0-.495.284-.775.203-.285-.08-.07-.525-.07-.848 0-.323-.248-.442-.458-.442-.212 0-.598 0-.67.2-.07.202-.353-.04-.493-.32-.142-.28-.282-.523-.458-.523-.174 0-.317.32-.563.2-.246-.118 0-.602.103-.965.106-.364-.14-.36-.49-.565-.355-.202-.532.283-.744-.2-.212-.484-.034-.283-.422-.565-.39-.283-.562.08-.774.242s-.247.038-.46-.283c-.21-.32-.56-.644-.88-.684-.318-.042-.526.16-.705.24s-.353-.04-.46-.24c-.106-.202-.212-.523-.212-.725 0-.204-.6-.324-.846-.284-.244.043-.388.765-.388.967 0 .204-.07.364-.386.526-.316.16-.492-.042-.528-.284s-.21-.122-.634-.083c-.423.042-.354.565-.528.807-.174.24-.704.04-.95 0s-.6-.2-.845-.163c-.247.04-.315.444-.458.686-.142.242-.317.242-.703.242-.39 0-.46-.24-.776-.202-.318.04-.39.404-.39 1.007s-.28.44-.492.644c-.212.203-.562.12-.845.323-.284.2.177.805.034 1.085-.142.284-.914.24-1.27.605 0 0-.228.11-.103.172s.376.062.605.042c.23-.02.73-.062.896.02s.522.063.793.043c.27-.02.208-.083.625.042s.958.02.958.02.104.306.646.333c.416.02.458-.375.98-.396.46-.02 1.04.27 1.187.27.145 0 .728-.145 1-.187.27-.042.353-.02.458.062.104.083.124.27.354.146.23-.125.396-.313.562-.292s.25-.042.417.125.522.334.772.21.438-.23.584-.21c.146.022.125.105.5.168s.916-.104 1.146-.146c.23-.042.333-.333.583-.083s.52.5.667.353c.146-.146.438-.417.77-.312s.46.522.647.397c.186-.125.645-.48.937-.52s.48-.063.646.04.48.376.604.23-.02-.52.375-.333c.396.188.23.333.688.292s.332-.313.54-.333.365-.228.365-.228z" fill="#231f20"/></svg>