<svg xmlns="http://www.w3.org/2000/svg" width="1366" height="700" viewBox="0 0 1366 700"><path d="M729.542 209.5c.02.438.146.743.43.783.28.04.492.402.492.645 0 .24-.143.44-.177.683-.032.242.037.484.212.605.176.12.42-.042.56.2.144.242.07-.118-.032.565-.108.686-.573.47-.114.792 0 0-.333-.042-.458.083s-.396-.146-.77-.27-.21.082-.48.187-.542-.062-.896-.23c-.354-.166-.312.043-.584.168-.27.125-.708.062-1-.02s-.312-.147-.52-.147-.813.104-1.022.062-.21-.125-.542-.125-.23.083-.438.208-.396.042-.667-.104c-.27-.146-.416-.02-.583.062s-.688.146-1.042.167c-.21.012-.79.02-1.04-.104-.47-.235-.544-.064-.772-.022-.228.042-.583.062-.79 0s-.21-.083-.376-.062-.46.208-.604.125c-.146-.082-.25-.103-.417-.103s-.25.167-.896.167-1.104-.188-1.333-.188c-.23 0-.667.188-.854.25-.188.062-.646-.104-.854-.27s-.188 0-.27.02-.334.146-.626.167-.875-.23-.958-.23-.417.105-.77.126c-.355.02-.313-.126-.626-.147-.312-.02-.73.188-.833.208-.104.02-.417-.187-.583-.207s-.792.125-.875.146-.417-.084-.417-.084-.438.167-.646.208-.834-.125-1.02-.208c-.188-.083-.855.125-1.022.146s-.66-.17-.66-.17c.422-.203.742.162.777-.16.03-.324.033-.445.21-.565.176-.123.525.04.525-.243s-.21-.483-.104-.604c.104-.12.104.08.424-.36.315-.447.633-.564.49-.888-.142-.323-.244-.282-.104-.806 0 0 .17-.204.38-.163s.312.104.708.042c.396-.062.582-.125.73-.104.145.022.417.23.645.105.23-.125.272-.25.44-.23s.708.293.874.293.48-.104.688-.125.29.187.52.104c.23-.083 1.063.02 1.23-.042s.416.125.604.042c.188-.083.104-.167.562-.167s.46.083.604.104c.145.02.374-.04.583-.146s.416-.188.562-.083c.146.105.25.25.375.23s.29.02.438-.105c.146-.125.668-.167.77-.104.105.063.708.25.855.208.146-.042.312-.083.52-.167s.48-.104.73.02.812.272 1 .126c.188-.146.042-.375.354-.25.31.125.582.312.832.27s.48.168.667-.04c.187-.21.52-.314.624-.272.104.043.23.272.5.25.27-.02.583.043.708-.06s.083-.21.375-.063.105.21.77.167.668-.167 1-.23.168.063.376.063.52.083.77.083.668.23.813.042c.145-.187.062-.417.375-.23.313.19.397.376.44.293s.232-.315.232-.315z" fill="#231f20"/></svg>