<?xml version="1.0" encoding="iso-8859-1"?>
<!-- Generator: Adobe Illustrator 16.0.4, SVG Export Plug-In . SVG Version: 6.00 Build 0)  -->
<!DOCTYPE svg PUBLIC "-//W3C//DTD SVG 1.1//EN" "http://www.w3.org/Graphics/SVG/1.1/DTD/svg11.dtd">
<svg version="1.1" xmlns="http://www.w3.org/2000/svg" xmlns:xlink="http://www.w3.org/1999/xlink" x="0px" y="0px" width="1366px"
	 height="700px" viewBox="0 0 1366 700" style="enable-background:new 0 0 1366 700;" xml:space="preserve">
<g id="Rocks_from_Headframe_to_box">
	<path style="fill:#231F20;" d="M791.757,140.818c0.162,0.156,0.238,0.963-0.056,1.005c-0.292,0.042-1.234,0.158-1.167-0.211
		c0.065-0.369,0.337-0.987,0.493-1.149S791.757,140.818,791.757,140.818z"/>
	<path style="fill:#231F20;" d="M790.239,140.257c-0.345-0.031-0.988,0.202-1.019-0.344c-0.027-0.544,0.197-0.917,0.443-1.222
		c0.247-0.305,0.438,0.397,0.717,0.606C790.661,139.508,790.239,140.257,790.239,140.257z"/>
	<path style="fill:#231F20;" d="M788.771,139.769c-0.432-0.078,0.575,1.025,0.276,1.098c-0.299,0.072-1.051,0.541-1.198,0.481
		c-0.146-0.058-0.336-0.601-0.154-1.076S788.771,139.769,788.771,139.769z"/>
	<path style="fill:#231F20;" d="M925.745,32.053c-0.16-0.158-0.232-0.965,0.062-1.007c0.293-0.04,1.234-0.151,1.166,0.218
		c-0.068,0.369-0.342,0.986-0.499,1.146C926.316,32.571,925.745,32.053,925.745,32.053z"/>
	<path style="fill:#231F20;" d="M926.973,32.853c0.344,0.033,0.99-0.198,1.015,0.349c0.026,0.545-0.201,0.916-0.447,1.219
		c-0.247,0.304-0.437-0.398-0.714-0.61C926.548,33.601,926.973,32.853,926.973,32.853z"/>
	<path style="fill:#231F20;" d="M786.675,139.694c0.431,0.08-0.571-1.028-0.271-1.099c0.301-0.073,1.054-0.536,1.202-0.477
		c0.146,0.058,0.332,0.602,0.148,1.077C787.57,139.669,786.675,139.694,786.675,139.694z"/>
	<path style="fill:#231F20;" d="M925.35,32.548c0.163,0.157,0.238,0.964-0.056,1.007c-0.293,0.042-1.235,0.157-1.168-0.212
		c0.067-0.37,0.338-0.987,0.494-1.149C924.776,32.032,925.35,32.548,925.35,32.548z"/>
	<path style="fill:#231F20;" d="M924.181,31.638c-0.344-0.031-0.988,0.202-1.018-0.344c-0.027-0.544,0.199-0.917,0.444-1.222
		c0.244-0.304,0.437,0.396,0.716,0.607C924.604,30.889,924.181,31.638,924.181,31.638z"/>
	<path style="fill:#231F20;" d="M922.713,31.5c-0.431-0.079,0.577,1.025,0.278,1.098c-0.299,0.073-1.052,0.54-1.199,0.482
		c-0.146-0.058-0.335-0.602-0.154-1.076C921.819,31.528,922.713,31.5,922.713,31.5z"/>
	<path style="fill:#231F20;" d="M853.4,91.347c-0.16-0.158-0.232-0.965,0.062-1.007c0.293-0.04,1.233-0.151,1.166,0.218
		c-0.069,0.369-0.342,0.986-0.499,1.146C853.972,91.865,853.4,91.347,853.4,91.347z"/>
	<path style="fill:#231F20;" d="M855.179,88.754c0.345,0.032,0.99-0.197,1.017,0.349c0.026,0.544-0.202,0.916-0.447,1.219
		c-0.249,0.304-0.436-0.398-0.714-0.61C854.756,89.502,855.179,88.754,855.179,88.754z"/>
	<path style="fill:#231F20;" d="M854.116,89.568c-0.345-0.031-0.989,0.202-1.019-0.344c-0.027-0.545,0.198-0.917,0.443-1.221
		c0.246-0.305,0.438,0.396,0.717,0.605C854.538,88.818,854.116,89.568,854.116,89.568z"/>
	<path style="fill:#231F20;" d="M852.473,89.174c-0.43-0.078,0.576,1.025,0.277,1.098c-0.3,0.073-1.051,0.54-1.199,0.481
		c-0.146-0.058-0.335-0.601-0.152-1.076C851.578,89.203,852.473,89.174,852.473,89.174z"/>
	<path style="fill:#231F20;" d="M851.407,88.842c0.43,0.081-0.571-1.028-0.271-1.099c0.3-0.073,1.052-0.536,1.201-0.478
		c0.146,0.058,0.333,0.602,0.148,1.077C852.303,88.818,851.407,88.842,851.407,88.842z"/>
	<path style="fill:#231F20;" d="M854.193,86.269c-0.162-0.156-0.237-0.964,0.056-1.006s1.235-0.157,1.167,0.212
		c-0.066,0.37-0.337,0.987-0.493,1.149C854.768,86.785,854.193,86.269,854.193,86.269z"/>
	<path style="fill:#231F20;" d="M855.501,86.76c0.345,0.03,0.99-0.202,1.019,0.343s-0.197,0.917-0.443,1.222
		c-0.246,0.305-0.436-0.397-0.715-0.606C855.081,87.51,855.501,86.76,855.501,86.76z"/>
	<path style="fill:#231F20;" d="M857.084,87.143c0.43,0.078-0.576-1.026-0.277-1.099c0.299-0.073,1.052-0.54,1.199-0.481
		c0.146,0.059,0.336,0.601,0.154,1.076S857.084,87.143,857.084,87.143z"/>
	<path style="fill:#231F20;" d="M928.027,29.336c0.16,0.158,0.232,0.966-0.062,1.008c-0.294,0.039-1.235,0.15-1.169-0.218
		c0.069-0.368,0.344-0.986,0.5-1.146C927.456,28.818,928.027,29.336,928.027,29.336z"/>
	<path style="fill:#231F20;" d="M927.633,28.62c-0.343-0.032-0.988,0.197-1.015-0.349c-0.026-0.544,0.202-0.916,0.448-1.218
		c0.248-0.305,0.436,0.398,0.714,0.609C928.059,27.871,927.633,28.62,927.633,28.62z"/>
	<path style="fill:#231F20;" d="M925.921,28.877c-0.432-0.08,0.569,1.029,0.271,1.099c-0.3,0.073-1.054,0.536-1.2,0.477
		c-0.146-0.058-0.334-0.602-0.149-1.077C925.025,28.902,925.921,28.877,925.921,28.877z"/>
	<path style="fill:#231F20;" d="M928.424,28.84c-0.163-0.157-0.238-0.964,0.057-1.007c0.291-0.042,1.234-0.157,1.166,0.213
		c-0.065,0.368-0.338,0.986-0.492,1.149C928.997,29.357,928.424,28.84,928.424,28.84z"/>
	<path style="fill:#231F20;" d="M929.592,29.75c0.344,0.031,0.99-0.201,1.018,0.343c0.028,0.545-0.197,0.917-0.442,1.222
		s-0.437-0.396-0.716-0.606C929.171,30.5,929.592,29.75,929.592,29.75z"/>
	<path style="fill:#231F20;" d="M931.061,29.89c0.431,0.077-0.576-1.026-0.278-1.099c0.301-0.072,1.051-0.54,1.2-0.481
		c0.145,0.058,0.335,0.6,0.152,1.076C931.953,29.862,931.061,29.89,931.061,29.89z"/>
	<path style="fill:#231F20;" d="M792.206,135.708c0.16,0.159,0.233,0.966-0.062,1.008c-0.293,0.04-1.234,0.151-1.168-0.218
		c0.069-0.369,0.344-0.986,0.5-1.146C791.635,135.19,792.206,135.708,792.206,135.708z"/>
	<path style="fill:#231F20;" d="M789.909,138.367c-0.345-0.033-0.992,0.197-1.017-0.349c-0.026-0.545,0.201-0.917,0.447-1.219
		c0.247-0.305,0.436,0.398,0.713,0.609C790.332,137.618,789.909,138.367,789.909,138.367z"/>
	<path style="fill:#231F20;" d="M791.49,137.488c0.345,0.031,0.988-0.201,1.018,0.343c0.028,0.545-0.197,0.917-0.443,1.222
		c-0.245,0.305-0.436-0.396-0.716-0.606C791.069,138.238,791.49,137.488,791.49,137.488z"/>
	<path style="fill:#231F20;" d="M793.134,137.882c0.431,0.078-0.575-1.026-0.276-1.099c0.3-0.073,1.051-0.54,1.198-0.481
		c0.146,0.059,0.336,0.601,0.154,1.076S793.134,137.882,793.134,137.882z"/>
	<path style="fill:#231F20;" d="M794.2,138.213c-0.431-0.08,0.569,1.029,0.271,1.1c-0.301,0.073-1.053,0.536-1.201,0.477
		c-0.146-0.058-0.332-0.603-0.148-1.077C793.305,138.239,794.2,138.213,794.2,138.213z"/>
	<path style="fill:#231F20;" d="M798.289,135.269c0.162,0.157,0.238,0.964-0.055,1.007c-0.293,0.042-1.236,0.156-1.17-0.212
		c0.067-0.369,0.339-0.987,0.494-1.148C797.717,134.752,798.289,135.269,798.289,135.269z"/>
	<path style="fill:#231F20;" d="M796.771,134.708c-0.344-0.03-0.989,0.202-1.019-0.343c-0.028-0.546,0.199-0.917,0.443-1.222
		c0.245-0.305,0.437,0.396,0.716,0.605C797.193,133.958,796.771,134.708,796.771,134.708z"/>
	<path style="fill:#231F20;" d="M795.304,134.219c-0.431-0.078,0.577,1.026,0.278,1.099c-0.3,0.072-1.051,0.54-1.2,0.481
		c-0.146-0.058-0.335-0.601-0.153-1.076S795.304,134.219,795.304,134.219z"/>
	<path style="fill:#231F20;" d="M932.278,26.504c-0.16-0.158-0.233-0.966,0.06-1.007c0.295-0.041,1.236-0.151,1.169,0.217
		c-0.067,0.369-0.343,0.986-0.499,1.146C932.85,27.023,932.278,26.504,932.278,26.504z"/>
	<path style="fill:#231F20;" d="M933.505,27.304c0.343,0.033,0.989-0.198,1.015,0.349c0.026,0.545-0.201,0.917-0.447,1.219
		c-0.247,0.305-0.436-0.398-0.713-0.609C933.079,28.053,933.505,27.304,933.505,27.304z"/>
	<path style="fill:#231F20;" d="M793.208,134.146c0.43,0.08-0.572-1.029-0.272-1.1c0.301-0.072,1.053-0.535,1.201-0.477
		c0.146,0.058,0.334,0.603,0.148,1.078C794.104,134.121,793.208,134.146,793.208,134.146z"/>
	<path style="fill:#231F20;" d="M931.882,27c0.161,0.157,0.238,0.965-0.056,1.006c-0.293,0.042-1.235,0.157-1.169-0.212
		c0.067-0.369,0.339-0.986,0.495-1.149C931.309,26.483,931.882,27,931.882,27z"/>
	<path style="fill:#231F20;" d="M930.713,26.089c-0.344-0.03-0.988,0.202-1.017-0.343c-0.029-0.546,0.196-0.917,0.442-1.222
		s0.437,0.397,0.717,0.606C931.135,25.34,930.713,26.089,930.713,26.089z"/>
	<path style="fill:#231F20;" d="M929.245,25.95c-0.431-0.078,0.577,1.026,0.278,1.099c-0.301,0.072-1.052,0.54-1.2,0.481
		c-0.146-0.058-0.335-0.601-0.153-1.075C928.352,25.979,929.245,25.95,929.245,25.95z"/>
	<path style="fill:#231F20;" d="M859.934,85.799c-0.159-0.159-0.232-0.966,0.061-1.008c0.295-0.04,1.236-0.151,1.168,0.218
		c-0.067,0.369-0.342,0.986-0.499,1.146C860.505,86.317,859.934,85.799,859.934,85.799z"/>
	<path style="fill:#231F20;" d="M861.711,83.206c0.345,0.032,0.991-0.198,1.016,0.349c0.026,0.544-0.201,0.916-0.448,1.219
		c-0.247,0.304-0.435-0.398-0.712-0.61C861.286,83.954,861.711,83.206,861.711,83.206z"/>
	<path style="fill:#231F20;" d="M860.648,84.019c-0.345-0.031-0.989,0.201-1.018-0.343c-0.029-0.545,0.198-0.917,0.443-1.222
		c0.245-0.304,0.436,0.397,0.715,0.607C861.07,83.27,860.648,84.019,860.648,84.019z"/>
	<path style="fill:#231F20;" d="M859.006,83.626c-0.431-0.078,0.575,1.025,0.275,1.098c-0.298,0.072-1.051,0.54-1.197,0.481
		c-0.146-0.058-0.338-0.6-0.155-1.076C858.11,83.654,859.006,83.626,859.006,83.626z"/>
	<path style="fill:#231F20;" d="M858.336,83.207c0.432,0.08-0.57-1.028-0.271-1.1c0.301-0.072,1.053-0.535,1.199-0.477
		c0.146,0.058,0.333,0.603,0.149,1.077C859.229,83.181,858.336,83.207,858.336,83.207z"/>
	<path style="fill:#231F20;" d="M861.153,80.639c-0.163-0.156-0.237-0.964,0.056-1.006s1.234-0.157,1.167,0.212
		c-0.065,0.369-0.337,0.987-0.493,1.149C861.727,81.155,861.153,80.639,861.153,80.639z"/>
	<path style="fill:#231F20;" d="M862.034,81.211c0.344,0.031,0.989-0.201,1.017,0.344c0.029,0.544-0.197,0.917-0.442,1.222
		c-0.245,0.305-0.438-0.396-0.716-0.606C861.613,81.96,862.034,81.211,862.034,81.211z"/>
	<path style="fill:#231F20;" d="M863.854,81.681c0.432,0.078-0.575-1.026-0.274-1.099c0.298-0.073,1.05-0.54,1.197-0.481
		c0.146,0.056,0.337,0.6,0.154,1.076C864.749,81.653,863.854,81.681,863.854,81.681z"/>
	<path style="fill:#231F20;" d="M934.559,23.788c0.161,0.158,0.233,0.965-0.061,1.007c-0.294,0.04-1.235,0.151-1.167-0.218
		c0.069-0.369,0.343-0.986,0.5-1.146C933.986,23.27,934.559,23.788,934.559,23.788z"/>
	<path style="fill:#231F20;" d="M867.333,82.321c-0.343-0.033-0.99,0.197-1.015-0.349c-0.027-0.545,0.201-0.917,0.446-1.219
		c0.247-0.304,0.436,0.398,0.714,0.609C867.757,81.572,867.333,82.321,867.333,82.321z"/>
	<path style="fill:#231F20;" d="M865.701,82.079c-0.43-0.08,0.572,1.029,0.271,1.1c-0.3,0.073-1.052,0.536-1.201,0.477
		c-0.146-0.058-0.332-0.604-0.146-1.078C864.807,82.103,865.701,82.079,865.701,82.079z"/>
	<path style="fill:#231F20;" d="M934.956,23.292c-0.163-0.156-0.238-0.964,0.055-1.006c0.294-0.042,1.235-0.157,1.169,0.211
		c-0.066,0.369-0.338,0.987-0.494,1.149C935.527,23.809,934.956,23.292,934.956,23.292z"/>
	<path style="fill:#231F20;" d="M936.124,24.202c0.345,0.031,0.989-0.202,1.019,0.344c0.026,0.544-0.198,0.917-0.444,1.221
		c-0.245,0.305-0.437-0.396-0.716-0.606C935.701,24.951,936.124,24.202,936.124,24.202z"/>
	<path style="fill:#231F20;" d="M937.592,24.341c0.432,0.079-0.577-1.025-0.277-1.098c0.299-0.073,1.052-0.541,1.198-0.482
		c0.146,0.058,0.337,0.602,0.155,1.077C938.486,24.312,937.592,24.341,937.592,24.341z"/>
	<path style="fill:#231F20;" d="M798.737,130.16c0.161,0.158,0.233,0.965-0.062,1.007c-0.294,0.041-1.234,0.151-1.167-0.218
		c0.069-0.369,0.343-0.986,0.5-1.146C798.166,129.642,798.737,130.16,798.737,130.16z"/>
	<path style="fill:#231F20;" d="M796.439,132.818c-0.344-0.032-0.99,0.198-1.016-0.348c-0.025-0.545,0.201-0.917,0.449-1.219
		c0.247-0.305,0.434,0.398,0.712,0.609C796.865,132.069,796.439,132.818,796.439,132.818z"/>
	<path style="fill:#231F20;" d="M798.023,131.939c0.343,0.03,0.988-0.202,1.016,0.344c0.029,0.545-0.197,0.917-0.442,1.221
		c-0.245,0.305-0.437-0.396-0.715-0.606C797.602,132.689,798.023,131.939,798.023,131.939z"/>
	<path style="fill:#231F20;" d="M799.666,132.333c0.431,0.078-0.576-1.026-0.276-1.098c0.3-0.073,1.053-0.54,1.198-0.481
		c0.146,0.058,0.336,0.601,0.154,1.076C800.562,132.305,799.666,132.333,799.666,132.333z"/>
	<path style="fill:#231F20;" d="M800.73,132.665c-0.429-0.081,0.572,1.029,0.271,1.099c-0.3,0.073-1.052,0.536-1.2,0.478
		c-0.145-0.058-0.334-0.603-0.147-1.077C799.837,132.689,800.73,132.665,800.73,132.665z"/>
	<path style="fill:#231F20;" d="M795.325,136.195c0.344,0.031,0.989-0.202,1.018,0.343c0.027,0.545-0.198,0.917-0.443,1.221
		c-0.245,0.305-0.438-0.396-0.716-0.606C794.903,136.944,795.325,136.195,795.325,136.195z"/>
	<path style="fill:#231F20;" d="M874.422,69.996c-0.162-0.156-0.236-0.964,0.057-1.006s1.234-0.157,1.168,0.212
		c-0.065,0.369-0.338,0.987-0.494,1.149S874.422,69.996,874.422,69.996z"/>
	<path style="fill:#231F20;" d="M875.939,70.557c0.345,0.031,0.99-0.202,1.019,0.344c0.028,0.544-0.197,0.917-0.443,1.222
		c-0.247,0.304-0.437-0.397-0.717-0.607C875.52,71.306,875.939,70.557,875.939,70.557z"/>
	<path style="fill:#231F20;" d="M877.407,71.045c0.431,0.079-0.576-1.025-0.275-1.098c0.298-0.072,1.05-0.54,1.197-0.481
		c0.146,0.057,0.337,0.601,0.153,1.076C878.303,71.017,877.407,71.045,877.407,71.045z"/>
	<path style="fill:#231F20;" d="M948.6,12.677c0.16,0.157,0.233,0.965-0.061,1.006s-1.235,0.152-1.167-0.217
		c0.067-0.369,0.341-0.986,0.5-1.147C948.028,12.158,948.6,12.677,948.6,12.677z"/>
	<path style="fill:#231F20;" d="M881.374,71.626c-0.345-0.032-0.991,0.197-1.016-0.348c-0.026-0.544,0.202-0.917,0.447-1.22
		c0.247-0.303,0.436,0.399,0.714,0.61C881.798,70.878,881.374,71.626,881.374,71.626z"/>
	<path style="fill:#231F20;" d="M879.506,71.12c-0.433-0.08,0.57,1.028,0.271,1.1c-0.299,0.072-1.054,0.536-1.201,0.476
		c-0.146-0.057-0.333-0.603-0.149-1.076C878.61,71.144,879.506,71.12,879.506,71.12z"/>
	<path style="fill:#231F20;" d="M948.995,12.182c-0.161-0.157-0.236-0.964,0.056-1.006c0.294-0.042,1.236-0.158,1.169,0.211
		c-0.066,0.369-0.339,0.987-0.495,1.149S948.995,12.182,948.995,12.182z"/>
	<path style="fill:#231F20;" d="M950.164,13.092c0.344,0.031,0.989-0.201,1.019,0.344c0.028,0.544-0.197,0.917-0.443,1.221
		c-0.246,0.304-0.437-0.396-0.716-0.606C949.742,13.841,950.164,13.092,950.164,13.092z"/>
	<path style="fill:#231F20;" d="M951.632,13.231c0.431,0.078-0.576-1.025-0.276-1.098c0.3-0.073,1.052-0.541,1.198-0.481
		c0.146,0.057,0.335,0.601,0.154,1.076S951.632,13.231,951.632,13.231z"/>
	<path style="fill:#231F20;" d="M812.778,119.05c0.159,0.157,0.232,0.965-0.062,1.006c-0.293,0.042-1.234,0.152-1.168-0.216
		c0.069-0.369,0.342-0.986,0.501-1.147C812.207,118.53,812.778,119.05,812.778,119.05z"/>
	<path style="fill:#231F20;" d="M811,121.642c-0.343-0.032-0.989,0.198-1.015-0.348c-0.026-0.545,0.202-0.917,0.447-1.22
		c0.247-0.304,0.436,0.399,0.714,0.609C811.426,120.895,811,121.642,811,121.642z"/>
	<path style="fill:#231F20;" d="M812.062,120.83c0.344,0.03,0.988-0.202,1.019,0.344c0.028,0.544-0.198,0.916-0.443,1.221
		c-0.247,0.304-0.438-0.397-0.717-0.606C811.643,121.58,812.062,120.83,812.062,120.83z"/>
	<path style="fill:#231F20;" d="M813.708,121.223c0.431,0.078-0.577-1.025-0.278-1.098s1.051-0.54,1.199-0.481
		c0.145,0.057,0.335,0.601,0.154,1.076C814.602,121.194,813.708,121.223,813.708,121.223z"/>
	<path style="fill:#231F20;" d="M814.771,121.555c-0.431-0.08,0.572,1.028,0.272,1.1c-0.3,0.071-1.054,0.536-1.202,0.476
		c-0.146-0.057-0.332-0.603-0.147-1.076C813.878,121.579,814.771,121.555,814.771,121.555z"/>
	<path style="fill:#231F20;" d="M811.986,124.127c0.162,0.156,0.237,0.964-0.057,1.006c-0.293,0.042-1.233,0.157-1.168-0.212
		c0.066-0.369,0.337-0.987,0.493-1.149C811.413,123.611,811.986,124.127,811.986,124.127z"/>
	<path style="fill:#231F20;" d="M810.678,123.636c-0.343-0.031-0.988,0.202-1.018-0.343c-0.027-0.545,0.197-0.917,0.443-1.222
		c0.245-0.305,0.438,0.396,0.717,0.606C811.102,122.887,810.678,123.636,810.678,123.636z"/>
	<path style="fill:#231F20;" d="M809.096,123.254c-0.431-0.078,0.577,1.025,0.277,1.098c-0.299,0.073-1.052,0.54-1.199,0.481
		c-0.145-0.057-0.335-0.6-0.154-1.076C808.201,123.282,809.096,123.254,809.096,123.254z"/>
	<path style="fill:#231F20;" d="M946.32,15.393c-0.162-0.157-0.234-0.965,0.06-1.006c0.293-0.041,1.236-0.152,1.168,0.216
		c-0.069,0.369-0.343,0.986-0.5,1.147C946.891,15.913,946.32,15.393,946.32,15.393z"/>
	<path style="fill:#231F20;" d="M947.545,16.194c0.344,0.031,0.99-0.198,1.016,0.348c0.027,0.544-0.201,0.916-0.447,1.22
		c-0.248,0.303-0.436-0.4-0.713-0.61C947.12,16.942,947.545,16.194,947.545,16.194z"/>
	<path style="fill:#231F20;" d="M807.011,122.768c0.431,0.081-0.571-1.027-0.271-1.099c0.299-0.072,1.054-0.536,1.2-0.477
		c0.146,0.057,0.332,0.603,0.148,1.077C807.904,122.744,807.011,122.768,807.011,122.768z"/>
	<path style="fill:#231F20;" d="M945.923,15.889c0.162,0.156,0.238,0.964-0.056,1.006s-1.234,0.157-1.168-0.212
		c0.065-0.369,0.337-0.986,0.494-1.149C945.35,15.372,945.923,15.889,945.923,15.889z"/>
	<path style="fill:#231F20;" d="M945.254,14.729c-0.345-0.031-0.99,0.201-1.018-0.344c-0.028-0.544,0.197-0.917,0.443-1.222
		c0.245-0.305,0.438,0.397,0.717,0.606C945.675,13.978,945.254,14.729,945.254,14.729z"/>
	<path style="fill:#231F20;" d="M943.287,14.839c-0.432-0.078,0.575,1.025,0.275,1.098c-0.299,0.073-1.05,0.54-1.197,0.481
		c-0.146-0.057-0.337-0.6-0.154-1.076C942.393,14.867,943.287,14.839,943.287,14.839z"/>
	<path style="fill:#231F20;" d="M873.977,75.104c-0.164-0.158-0.234-0.965,0.06-1.006c0.293-0.041,1.235-0.152,1.168,0.216
		c-0.069,0.37-0.344,0.986-0.5,1.147C874.546,75.624,873.977,75.104,873.977,75.104z"/>
	<path style="fill:#231F20;" d="M876.271,72.447c0.344,0.032,0.99-0.197,1.016,0.348c0.025,0.544-0.202,0.916-0.448,1.22
		c-0.247,0.303-0.436-0.4-0.714-0.61C875.847,73.194,876.271,72.447,876.271,72.447z"/>
	<path style="fill:#231F20;" d="M874.689,73.324c-0.346-0.031-0.989,0.202-1.019-0.343c-0.028-0.545,0.198-0.918,0.444-1.223
		c0.245-0.304,0.437,0.397,0.715,0.607C875.11,72.575,874.689,73.324,874.689,73.324z"/>
	<path style="fill:#231F20;" d="M873.046,72.515c-0.431-0.078,0.577,1.025,0.276,1.098c-0.298,0.073-1.051,0.54-1.198,0.481
		c-0.146-0.057-0.336-0.601-0.154-1.076C872.15,72.542,873.046,72.515,873.046,72.515z"/>
	<path style="fill:#231F20;" d="M871.979,72.599c0.432,0.08-0.57-1.027-0.271-1.099c0.299-0.072,1.053-0.536,1.2-0.476
		c0.145,0.057,0.333,0.603,0.148,1.076C872.874,72.574,871.979,72.599,871.979,72.599z"/>
	<path style="fill:#231F20;" d="M867.89,75.127c-0.161-0.156-0.236-0.964,0.057-1.006c0.295-0.042,1.234-0.157,1.169,0.212
		c-0.067,0.369-0.338,0.987-0.494,1.149C868.463,75.645,867.89,75.127,867.89,75.127z"/>
	<path style="fill:#231F20;" d="M869.408,75.689c0.345,0.03,0.988-0.202,1.018,0.343c0.028,0.545-0.197,0.917-0.443,1.222
		c-0.245,0.305-0.438-0.396-0.717-0.606S869.408,75.689,869.408,75.689z"/>
	<path style="fill:#231F20;" d="M870.876,76.177c0.43,0.078-0.576-1.025-0.277-1.099c0.3-0.072,1.05-0.54,1.199-0.481
		c0.146,0.057,0.335,0.601,0.153,1.076C871.771,76.149,870.876,76.177,870.876,76.177z"/>
	<path style="fill:#231F20;" d="M942.066,18.226c0.16,0.158,0.233,0.965-0.061,1.006s-1.234,0.152-1.168-0.217
		c0.069-0.368,0.343-0.986,0.5-1.147C941.497,17.707,942.066,18.226,942.066,18.226z"/>
	<path style="fill:#231F20;" d="M939.925,19.175c-0.344-0.031-0.991,0.198-1.016-0.348c-0.026-0.545,0.201-0.916,0.448-1.22
		c0.248-0.303,0.434,0.399,0.713,0.61C940.349,18.427,939.925,19.175,939.925,19.175z"/>
	<path style="fill:#231F20;" d="M872.972,76.251c-0.429-0.08,0.573,1.028,0.272,1.1c-0.3,0.072-1.053,0.535-1.2,0.476
		c-0.146-0.057-0.334-0.602-0.149-1.076C872.078,76.276,872.972,76.251,872.972,76.251z"/>
	<path style="fill:#231F20;" d="M942.464,17.73c-0.162-0.156-0.239-0.964,0.056-1.007c0.293-0.042,1.234-0.156,1.168,0.212
		c-0.065,0.37-0.336,0.987-0.493,1.149C943.037,18.247,942.464,17.73,942.464,17.73z"/>
	<path style="fill:#231F20;" d="M943.632,18.641c0.345,0.03,0.989-0.202,1.02,0.343c0.026,0.545-0.198,0.917-0.443,1.221
		c-0.247,0.305-0.438-0.396-0.717-0.605C943.211,19.39,943.632,18.641,943.632,18.641z"/>
	<path style="fill:#231F20;" d="M945.1,18.78c0.432,0.078-0.576-1.025-0.275-1.099c0.298-0.073,1.05-0.54,1.197-0.481
		c0.146,0.057,0.336,0.601,0.154,1.076S945.1,18.78,945.1,18.78z"/>
	<path style="fill:#231F20;" d="M806.245,124.598c0.161,0.158,0.235,0.965-0.06,1.006c-0.294,0.041-1.236,0.152-1.169-0.217
		c0.069-0.368,0.344-0.986,0.5-1.146C805.676,124.079,806.245,124.598,806.245,124.598z"/>
	<path style="fill:#231F20;" d="M804.469,127.191c-0.343-0.032-0.99,0.197-1.016-0.349c-0.025-0.544,0.201-0.916,0.448-1.219
		c0.247-0.303,0.436,0.399,0.714,0.609C804.895,126.443,804.469,127.191,804.469,127.191z"/>
	<path style="fill:#231F20;" d="M805.531,126.378c0.343,0.031,0.988-0.202,1.018,0.343c0.027,0.545-0.197,0.917-0.443,1.221
		c-0.246,0.305-0.437-0.396-0.717-0.605C805.107,127.127,805.531,126.378,805.531,126.378z"/>
	<path style="fill:#231F20;" d="M807.175,126.771c0.431,0.078-0.576-1.025-0.276-1.099c0.298-0.072,1.051-0.54,1.197-0.481
		c0.146,0.057,0.337,0.601,0.154,1.076C808.068,126.743,807.175,126.771,807.175,126.771z"/>
	<path style="fill:#231F20;" d="M807.844,127.189c-0.431-0.08,0.571,1.029,0.271,1.1c-0.301,0.072-1.053,0.535-1.201,0.477
		c-0.146-0.058-0.333-0.603-0.149-1.077C806.949,127.214,807.844,127.189,807.844,127.189z"/>
	<path style="fill:#231F20;" d="M805.026,129.757c0.161,0.157,0.237,0.965-0.056,1.007c-0.294,0.042-1.234,0.157-1.169-0.212
		c0.066-0.368,0.337-0.986,0.493-1.149C804.453,129.241,805.026,129.757,805.026,129.757z"/>
	<path style="fill:#231F20;" d="M804.146,129.185c-0.345-0.031-0.989,0.202-1.019-0.343c-0.028-0.544,0.197-0.917,0.444-1.222
		c0.246-0.305,0.436,0.396,0.716,0.606C804.567,128.437,804.146,129.185,804.146,129.185z"/>
	<path style="fill:#231F20;" d="M802.562,128.804c-0.431-0.079,0.576,1.025,0.278,1.098c-0.301,0.073-1.051,0.54-1.201,0.481
		c-0.145-0.058-0.334-0.601-0.151-1.076C801.669,128.832,802.562,128.804,802.562,128.804z"/>
	<path style="fill:#231F20;" d="M939.787,20.942c-0.161-0.158-0.233-0.965,0.061-1.008c0.293-0.04,1.235-0.151,1.168,0.218
		c-0.068,0.368-0.343,0.985-0.5,1.146C940.357,21.46,939.787,20.942,939.787,20.942z"/>
	<path style="fill:#231F20;" d="M798.847,128.076c0.343,0.033,0.991-0.198,1.017,0.349c0.024,0.544-0.202,0.917-0.448,1.219
		c-0.248,0.305-0.437-0.398-0.714-0.61C798.422,128.824,798.847,128.076,798.847,128.076z"/>
	<path style="fill:#231F20;" d="M800.479,128.318c0.431,0.08-0.571-1.029-0.272-1.1c0.301-0.072,1.054-0.535,1.202-0.477
		c0.145,0.059,0.333,0.602,0.148,1.077C801.373,128.293,800.479,128.318,800.479,128.318z"/>
	<path style="fill:#231F20;" d="M939.391,21.438c0.162,0.157,0.238,0.965-0.056,1.007s-1.235,0.157-1.169-0.212
		c0.066-0.369,0.339-0.987,0.495-1.149C938.816,20.922,939.391,21.438,939.391,21.438z"/>
	<path style="fill:#231F20;" d="M938.223,20.527c-0.345-0.031-0.99,0.202-1.019-0.343s0.198-0.917,0.444-1.221
		c0.244-0.305,0.436,0.396,0.715,0.605C938.645,19.778,938.223,20.527,938.223,20.527z"/>
	<path style="fill:#231F20;" d="M936.754,20.388c-0.431-0.078,0.577,1.025,0.277,1.099c-0.299,0.073-1.051,0.54-1.199,0.481
		c-0.145-0.058-0.335-0.601-0.154-1.076C935.859,20.417,936.754,20.388,936.754,20.388z"/>
	<path style="fill:#231F20;" d="M867.441,80.237c-0.161-0.158-0.232-0.965,0.062-1.007c0.293-0.04,1.234-0.151,1.167,0.218
		c-0.068,0.368-0.342,0.986-0.5,1.146C868.014,80.755,867.441,80.237,867.441,80.237z"/>
	<path style="fill:#231F20;" d="M869.74,77.579c0.343,0.032,0.988-0.197,1.014,0.349c0.027,0.545-0.201,0.917-0.447,1.219
		c-0.247,0.305-0.435-0.398-0.713-0.609C869.314,78.328,869.74,77.579,869.74,77.579z"/>
	<path style="fill:#231F20;" d="M868.156,78.457c-0.344-0.031-0.989,0.202-1.018-0.344c-0.027-0.545,0.197-0.917,0.443-1.222
		c0.245-0.305,0.438,0.397,0.716,0.606C868.578,77.707,868.156,78.457,868.156,78.457z"/>
	<path style="fill:#231F20;" d="M866.513,78.063c-0.431-0.078,0.576,1.026,0.278,1.098c-0.3,0.073-1.051,0.541-1.199,0.481
		c-0.146-0.058-0.336-0.601-0.154-1.076C865.619,78.092,866.513,78.063,866.513,78.063z"/>
	<path style="fill:#231F20;" d="M865.447,78.148c0.431,0.08-0.57-1.03-0.271-1.1c2.014-0.485-0.66-1.234,1.2-0.476
		c0.146,0.057,0.335,0.602,0.149,1.076C866.343,78.124,865.447,78.148,865.447,78.148z"/>
	<path style="fill:#231F20;" d="M870.855,74.202c-0.346-0.03-0.99,0.202-1.02-0.343c-0.028-0.545,0.198-0.917,0.444-1.221
		c0.245-0.304,0.436,0.396,0.716,0.606C871.276,73.453,870.855,74.202,870.855,74.202z"/>
	<path style="fill:#231F20;" d="M864.276,77.977c-0.434-0.08,0.569,1.029,0.271,1.1c-0.3,0.073-1.053,0.536-1.201,0.477
		c-0.145-0.058-0.333-0.603-0.148-1.077C863.381,78.001,864.276,77.977,864.276,77.977z"/>
	<path style="fill:#231F20;" d="M801.86,130.975c0.344,0.03,0.988-0.202,1.017,0.343c0.029,0.545-0.198,0.917-0.443,1.222
		c-0.244,0.305-0.436-0.396-0.715-0.606C801.438,131.724,801.86,130.975,801.86,130.975z"/>
	<path style="fill:#231F20;" d="M809.172,126.279c-0.162-0.157-0.234-0.965,0.061-1.006c0.294-0.041,1.236-0.152,1.168,0.217
		c-0.068,0.369-0.344,0.986-0.5,1.147C809.741,126.798,809.172,126.279,809.172,126.279z"/>
	<path style="fill:#231F20;" d="M816.585,121.658c-0.345-0.031-0.989,0.202-1.019-0.343c-0.028-0.545,0.197-0.917,0.443-1.222
		c0.246-0.305,0.438,0.397,0.717,0.606C817.007,120.909,816.585,121.658,816.585,121.658z"/>
	<path style="fill:#231F20;" d="M951.497,10.844c-0.345-0.031-0.989,0.201-1.019-0.344c-0.026-0.544,0.198-0.917,0.444-1.222
		c0.246-0.305,0.437,0.397,0.716,0.606C951.918,10.094,951.497,10.844,951.497,10.844z"/>
	<path style="fill:#231F20;" d="M881.875,68.52c0.344,0.032,0.991-0.198,1.016,0.348c0.027,0.544-0.201,0.917-0.447,1.22
		c-0.247,0.303-0.435-0.399-0.713-0.61C881.451,69.267,881.875,68.52,881.875,68.52z"/>
	<path style="fill:#231F20;" d="M880.127,69.376c-0.344-0.03-0.989,0.202-1.018-0.343c-0.027-0.546,0.197-0.917,0.443-1.222
		c0.245-0.305,0.438,0.397,0.717,0.606C880.549,68.627,880.127,69.376,880.127,69.376z"/>
	<path style="fill:#231F20;" d="M876.859,68.465c0.43,0.08-0.572-1.028-0.272-1.099c0.301-0.072,1.053-0.536,1.201-0.476
		c0.146,0.057,0.334,0.603,0.149,1.076C877.754,68.441,876.859,68.465,876.859,68.465z"/>
	<path style="fill:#231F20;" d="M879.646,65.893c-0.164-0.156-0.239-0.964,0.055-1.006c0.293-0.042,1.234-0.157,1.168,0.212
		c-0.066,0.369-0.338,0.986-0.493,1.149C880.22,66.41,879.646,65.893,879.646,65.893z"/>
	<path style="fill:#231F20;" d="M880.954,66.384c0.343,0.031,0.989-0.202,1.017,0.343c0.029,0.544-0.197,0.917-0.442,1.222
		c-0.245,0.305-0.437-0.396-0.716-0.606C880.532,67.133,880.954,66.384,880.954,66.384z"/>
	<path style="fill:#231F20;" d="M882.535,66.766c0.432,0.078-0.575-1.025-0.276-1.098s1.052-0.541,1.198-0.481
		c0.146,0.057,0.336,0.6,0.155,1.076C883.431,66.738,882.535,66.766,882.535,66.766z"/>
	<path style="fill:#231F20;" d="M953.479,8.544c0.161,0.157,0.233,0.965-0.06,1.006c-0.295,0.041-1.236,0.152-1.168-0.217
		s0.342-0.986,0.499-1.147C952.908,8.025,953.479,8.544,953.479,8.544z"/>
	<path style="fill:#231F20;" d="M886.253,67.493c-0.344-0.032-0.99,0.198-1.015-0.348c-0.028-0.544,0.201-0.916,0.447-1.22
		c0.246-0.303,0.435,0.4,0.713,0.61C886.678,66.746,886.253,67.493,886.253,67.493z"/>
	<path style="fill:#231F20;" d="M884.622,67.251c-0.431-0.08,0.571,1.028,0.271,1.1c-0.299,0.072-1.052,0.536-1.198,0.476
		c-0.146-0.057-0.334-0.602-0.149-1.075C883.727,67.276,884.622,67.251,884.622,67.251z"/>
	<path style="fill:#231F20;" d="M953.875,8.048c-0.161-0.157-0.238-0.964,0.056-1.007c0.294-0.042,1.235-0.156,1.169,0.212
		c-0.067,0.369-0.338,0.987-0.494,1.149C954.448,8.565,953.875,8.048,953.875,8.048z"/>
	<path style="fill:#231F20;" d="M955.044,8.958c0.344,0.031,0.989-0.202,1.019,0.344c0.026,0.544-0.198,0.917-0.443,1.222
		c-0.246,0.305-0.438-0.396-0.717-0.607C954.622,9.708,955.044,8.958,955.044,8.958z"/>
	<path style="fill:#231F20;" d="M956.512,9.097c0.431,0.079-0.576-1.025-0.276-1.098c0.299-0.073,1.05-0.54,1.198-0.482
		c0.146,0.057,0.336,0.602,0.153,1.076C957.404,9.069,956.512,9.097,956.512,9.097z"/>
	<path style="fill:#231F20;" d="M817.657,114.917c0.161,0.157,0.232,0.965-0.061,1.006c-0.294,0.041-1.235,0.152-1.168-0.217
		c0.068-0.369,0.343-0.986,0.499-1.147C817.087,114.397,817.657,114.917,817.657,114.917z"/>
	<path style="fill:#231F20;" d="M815.361,117.573c-0.346-0.031-0.992,0.197-1.018-0.347c-0.025-0.545,0.201-0.917,0.448-1.22
		c0.248-0.304,0.437,0.399,0.713,0.609C815.784,116.825,815.361,117.573,815.361,117.573z"/>
	<path style="fill:#231F20;" d="M816.942,116.696c0.344,0.03,0.988-0.202,1.019,0.344c0.027,0.545-0.2,0.917-0.443,1.221
		c-0.246,0.305-0.438-0.396-0.717-0.605C816.521,117.445,816.942,116.696,816.942,116.696z"/>
	<path style="fill:#231F20;" d="M818.585,117.089c0.433,0.078-0.575-1.025-0.274-1.098c0.297-0.073,1.051-0.54,1.196-0.481
		c0.146,0.057,0.338,0.601,0.155,1.076C819.48,117.061,818.585,117.089,818.585,117.089z"/>
	<path style="fill:#231F20;" d="M819.651,117.422c-0.431-0.08,0.57,1.027,0.271,1.099c-0.301,0.072-1.054,0.536-1.201,0.477
		c-0.146-0.057-0.333-0.602-0.148-1.076C818.757,117.445,819.651,117.422,819.651,117.422z"/>
	<path style="fill:#231F20;" d="M823.741,114.476c0.162,0.156,0.237,0.964-0.054,1.006c-0.295,0.042-1.236,0.157-1.172-0.212
		c0.067-0.369,0.34-0.986,0.495-1.149C823.168,113.959,823.741,114.476,823.741,114.476z"/>
	<path style="fill:#231F20;" d="M822.224,113.915c-0.344-0.03-0.988,0.202-1.018-0.344c-0.028-0.544,0.199-0.917,0.444-1.221
		c0.244-0.304,0.436,0.397,0.715,0.606C822.646,113.166,822.224,113.915,822.224,113.915z"/>
	<path style="fill:#231F20;" d="M820.756,113.427c-0.431-0.078,0.576,1.025,0.278,1.098c-0.302,0.073-1.052,0.54-1.201,0.481
		c-0.146-0.057-0.334-0.601-0.152-1.076C819.861,113.455,820.756,113.427,820.756,113.427z"/>
	<path style="fill:#231F20;" d="M957.73,5.711c-0.16-0.158-0.234-0.966,0.061-1.006c0.294-0.042,1.235-0.153,1.168,0.216
		c-0.068,0.369-0.343,0.986-0.499,1.147C958.301,6.231,957.73,5.711,957.73,5.711z"/>
	<path style="fill:#231F20;" d="M958.957,6.512c0.344,0.031,0.989-0.198,1.015,0.348c0.026,0.544-0.2,0.916-0.448,1.22
		c-0.247,0.303-0.435-0.399-0.713-0.609C958.531,7.259,958.957,6.512,958.957,6.512z"/>
	<path style="fill:#231F20;" d="M960.826,7.019c0.429,0.081-0.572-1.028-0.272-1.099c0.3-0.072,1.052-0.536,1.2-0.476
		c0.146,0.057,0.334,0.602,0.148,1.076C961.721,6.995,960.826,7.019,960.826,7.019z"/>
	<path style="fill:#231F20;" d="M957.334,6.207c0.162,0.156,0.238,0.964-0.055,1.006c-0.294,0.042-1.235,0.157-1.168-0.212
		c0.064-0.369,0.337-0.987,0.492-1.149C956.76,5.69,957.334,6.207,957.334,6.207z"/>
	<path style="fill:#231F20;" d="M956.665,5.379c-0.344-0.031-0.989,0.202-1.017-0.343c-0.029-0.545,0.196-0.917,0.441-1.222
		c0.247-0.305,0.438,0.396,0.716,0.606C957.086,4.63,956.665,5.379,956.665,5.379z"/>
	<path style="fill:#231F20;" d="M954.698,5.157c-0.432-0.078,0.575,1.026,0.276,1.099c-0.3,0.073-1.052,0.54-1.198,0.481
		c-0.146-0.057-0.337-0.601-0.153-1.076C953.804,5.186,954.698,5.157,954.698,5.157z"/>
	<path style="fill:#231F20;" d="M885.387,65.422c-0.162-0.158-0.234-0.965,0.06-1.006c0.295-0.042,1.235-0.153,1.169,0.216
		c-0.069,0.369-0.344,0.986-0.499,1.147C885.956,65.942,885.387,65.422,885.387,65.422z"/>
	<path style="fill:#231F20;" d="M887.163,62.83c0.344,0.032,0.99-0.198,1.015,0.348c0.027,0.545-0.201,0.917-0.447,1.22
		s-0.436-0.399-0.713-0.609C886.739,63.578,887.163,62.83,887.163,62.83z"/>
	<path style="fill:#231F20;" d="M886.102,63.642c-0.345-0.03-0.989,0.202-1.02-0.343c-0.027-0.545,0.199-0.917,0.445-1.222
		c0.246-0.305,0.436,0.397,0.715,0.606C886.521,62.893,886.102,63.642,886.102,63.642z"/>
	<path style="fill:#231F20;" d="M884.457,63.249c-0.432-0.078,0.576,1.025,0.277,1.099c-0.3,0.072-1.052,0.54-1.199,0.481
		c-0.146-0.057-0.336-0.601-0.154-1.076C883.562,63.277,884.457,63.249,884.457,63.249z"/>
	<path style="fill:#231F20;" d="M883.789,62.831c0.43,0.08-0.571-1.028-0.271-1.1s1.052-0.536,1.199-0.477
		c0.146,0.058,0.334,0.603,0.149,1.076C884.684,62.806,883.789,62.831,883.789,62.831z"/>
	<path style="fill:#231F20;" d="M886.605,60.263c-0.162-0.157-0.238-0.964,0.056-1.006c0.293-0.042,1.233-0.157,1.168,0.211
		c-0.066,0.368-0.338,0.987-0.493,1.149C887.179,60.78,886.605,60.263,886.605,60.263z"/>
	<path style="fill:#231F20;" d="M887.486,60.835c0.344,0.031,0.987-0.201,1.018,0.343c0.027,0.545-0.198,0.917-0.443,1.222
		c-0.246,0.305-0.438-0.396-0.717-0.606C887.064,61.585,887.486,60.835,887.486,60.835z"/>
	<path style="fill:#231F20;" d="M889.307,61.303c0.432,0.078-0.576-1.025-0.276-1.098c0.299-0.073,1.052-0.54,1.198-0.482
		c0.146,0.057,0.336,0.601,0.155,1.076C890.201,61.275,889.307,61.303,889.307,61.303z"/>
	<path style="fill:#231F20;" d="M959.262,2.411c0.16,0.158,0.232,0.966-0.062,1.007c-0.292,0.041-1.234,0.152-1.166-0.216
		c0.069-0.369,0.342-0.986,0.499-1.147C958.689,1.892,959.262,2.411,959.262,2.411z"/>
	<path style="fill:#231F20;" d="M892.786,61.945c-0.345-0.032-0.992,0.197-1.017-0.348c-0.026-0.545,0.201-0.917,0.447-1.22
		c0.248-0.304,0.436,0.399,0.713,0.609C893.209,61.197,892.786,61.945,892.786,61.945z"/>
	<path style="fill:#231F20;" d="M891.153,61.703c-0.432-0.08,0.571,1.027,0.272,1.099c-0.3,0.072-1.053,0.536-1.202,0.476
		c-0.146-0.057-0.333-0.602-0.147-1.076C890.258,61.728,891.153,61.703,891.153,61.703z"/>
	<path style="fill:#231F20;" d="M960.407,2.499c-0.163-0.156-0.237-0.963,0.056-1.005c0.294-0.042,1.235-0.158,1.168,0.211
		c-0.066,0.37-0.338,0.987-0.494,1.149S960.407,2.499,960.407,2.499z"/>
	<path style="fill:#231F20;" d="M961.576,3.41c0.344,0.03,0.988-0.202,1.018,0.343c0.027,0.545-0.197,0.917-0.443,1.222
		c-0.245,0.305-0.438-0.397-0.717-0.606S961.576,3.41,961.576,3.41z"/>
	<path style="fill:#231F20;" d="M963.044,3.549c0.431,0.078-0.576-1.026-0.276-1.099c0.299-0.073,1.05-0.54,1.197-0.481
		c0.146,0.057,0.336,0.601,0.154,1.076C963.938,3.521,963.044,3.549,963.044,3.549z"/>
	<path style="fill:#231F20;" d="M824.189,109.367c0.16,0.158,0.233,0.966-0.062,1.007c-0.292,0.041-1.233,0.152-1.166-0.216
		c0.069-0.369,0.342-0.986,0.499-1.147C823.618,108.848,824.189,109.367,824.189,109.367z"/>
	<path style="fill:#231F20;" d="M821.893,112.025c-0.343-0.032-0.989,0.198-1.016-0.348c-0.027-0.545,0.201-0.916,0.448-1.22
		c0.247-0.304,0.435,0.399,0.714,0.61C822.317,111.277,821.893,112.025,821.893,112.025z"/>
	<path style="fill:#231F20;" d="M823.475,111.148c0.345,0.03,0.989-0.202,1.019,0.342c0.026,0.546-0.197,0.917-0.443,1.223
		c-0.246,0.304-0.438-0.397-0.716-0.606C823.053,111.896,823.475,111.148,823.475,111.148z"/>
	<path style="fill:#231F20;" d="M825.119,111.541c0.43,0.079-0.577-1.025-0.278-1.098c0.3-0.073,1.052-0.54,1.2-0.481
		c0.145,0.057,0.334,0.601,0.154,1.076C826.013,111.513,825.119,111.541,825.119,111.541z"/>
	<path style="fill:#231F20;" d="M826.184,111.873c-0.43-0.08,0.572,1.027,0.272,1.1c-0.3,0.071-1.053,0.535-1.201,0.476
		c-0.146-0.057-0.334-0.602-0.149-1.077C825.289,111.897,826.184,111.873,826.184,111.873z"/>
	<path style="fill:#231F20;" d="M820.777,115.401c0.345,0.031,0.987-0.202,1.018,0.344c0.027,0.545-0.198,0.917-0.443,1.221
		c-0.246,0.305-0.438-0.397-0.718-0.606C820.355,116.151,820.777,115.401,820.777,115.401z"/>
	<path style="fill:#231F20;" d="M899.875,49.203c-0.163-0.156-0.239-0.964,0.055-1.006c0.293-0.042,1.234-0.157,1.169,0.212
		c-0.065,0.369-0.338,0.986-0.493,1.149C900.448,49.72,899.875,49.203,899.875,49.203z"/>
	<path style="fill:#231F20;" d="M901.393,49.764c0.345,0.031,0.989-0.201,1.019,0.343c0.026,0.546-0.198,0.917-0.443,1.222
		c-0.247,0.305-0.437-0.396-0.717-0.605C900.971,50.513,901.393,49.764,901.393,49.764z"/>
	<path style="fill:#231F20;" d="M902.86,50.252c0.431,0.078-0.577-1.025-0.277-1.098c0.299-0.073,1.051-0.54,1.199-0.481
		c0.145,0.057,0.335,0.601,0.153,1.076C903.755,50.224,902.86,50.252,902.86,50.252z"/>
	<path style="fill:#231F20;" d="M974.051-8.116c0.162,0.157,0.234,0.965-0.06,1.006c-0.293,0.042-1.236,0.152-1.168-0.217
		c0.067-0.368,0.343-0.986,0.5-1.147C973.48-8.635,974.051-8.116,974.051-8.116z"/>
	<path style="fill:#231F20;" d="M906.825,50.833c-0.342-0.031-0.99,0.197-1.017-0.348c-0.025-0.545,0.202-0.917,0.449-1.22
		c0.247-0.303,0.436,0.399,0.713,0.61C907.251,50.085,906.825,50.833,906.825,50.833z"/>
	<path style="fill:#231F20;" d="M904.957,50.328c-0.432-0.081,0.57,1.027,0.271,1.099c-0.301,0.071-1.054,0.536-1.2,0.477
		c-0.146-0.058-0.334-0.603-0.149-1.077C904.062,50.351,904.957,50.328,904.957,50.328z"/>
	<path style="fill:#231F20;" d="M974.447-8.611c-0.162-0.157-0.237-0.964,0.056-1.006c0.294-0.042,1.235-0.157,1.169,0.212
		c-0.065,0.369-0.338,0.986-0.495,1.149C975.021-8.095,974.447-8.611,974.447-8.611z"/>
	<path style="fill:#231F20;" d="M975.616-7.701c0.345,0.031,0.989-0.202,1.018,0.343c0.029,0.545-0.198,0.917-0.442,1.221
		c-0.246,0.305-0.437-0.396-0.717-0.605C975.195-6.951,975.616-7.701,975.616-7.701z"/>
	<path style="fill:#231F20;" d="M977.084-7.562c0.43,0.078-0.576-1.026-0.276-1.098c0.3-0.073,1.052-0.54,1.198-0.482
		s0.336,0.601,0.153,1.076C977.979-7.59,977.084-7.562,977.084-7.562z"/>
	<path style="fill:#231F20;" d="M838.229,98.256c0.162,0.158,0.234,0.966-0.06,1.006c-0.293,0.042-1.236,0.153-1.168-0.216
		c0.068-0.368,0.343-0.986,0.5-1.147C837.659,97.737,838.229,98.256,838.229,98.256z"/>
	<path style="fill:#231F20;" d="M836.453,100.85c-0.345-0.032-0.991,0.197-1.016-0.348c-0.026-0.544,0.201-0.916,0.448-1.22
		c0.246-0.303,0.435,0.4,0.712,0.61C836.878,100.102,836.453,100.85,836.453,100.85z"/>
	<path style="fill:#231F20;" d="M837.515,100.037c0.346,0.031,0.991-0.201,1.02,0.343c0.028,0.545-0.199,0.917-0.444,1.222
		c-0.246,0.305-0.436-0.396-0.715-0.606C837.094,100.787,837.515,100.037,837.515,100.037z"/>
	<path style="fill:#231F20;" d="M839.159,100.43c0.431,0.078-0.576-1.025-0.278-1.099c0.3-0.073,1.052-0.54,1.199-0.481
		c0.146,0.057,0.336,0.601,0.155,1.076C840.054,100.402,839.159,100.43,839.159,100.43z"/>
	<path style="fill:#231F20;" d="M840.225,100.762c-0.43-0.08,0.571,1.028,0.271,1.1c-0.299,0.071-1.055,0.535-1.2,0.475
		c-0.146-0.057-0.334-0.602-0.149-1.076C839.329,100.787,840.225,100.762,840.225,100.762z"/>
	<path style="fill:#231F20;" d="M837.438,103.335c0.162,0.156,0.238,0.964-0.057,1.006c-0.293,0.042-1.234,0.157-1.168-0.211
		c0.067-0.369,0.339-0.987,0.494-1.149C836.865,102.817,837.438,103.335,837.438,103.335z"/>
	<path style="fill:#231F20;" d="M836.13,102.844c-0.344-0.031-0.989,0.201-1.018-0.344c-0.027-0.544,0.198-0.917,0.443-1.222
		c0.245-0.305,0.438,0.396,0.716,0.606C836.552,102.094,836.13,102.844,836.13,102.844z"/>
	<path style="fill:#231F20;" d="M834.548,102.461c-0.43-0.078,0.576,1.026,0.276,1.099c-0.299,0.073-1.051,0.54-1.198,0.481
		c-0.146-0.058-0.336-0.601-0.154-1.076C833.654,102.49,834.548,102.461,834.548,102.461z"/>
	<path style="fill:#231F20;" d="M971.771-5.399c-0.161-0.158-0.233-0.965,0.061-1.006c0.292-0.041,1.234-0.152,1.168,0.216
		c-0.07,0.369-0.344,0.986-0.5,1.146C972.342-4.88,971.771-5.399,971.771-5.399z"/>
	<path style="fill:#231F20;" d="M972.996-4.599c0.345,0.031,0.991-0.198,1.017,0.348c0.026,0.545-0.202,0.916-0.448,1.22
		c-0.248,0.303-0.435-0.399-0.713-0.61C972.572-3.851,972.996-4.599,972.996-4.599z"/>
	<path style="fill:#231F20;" d="M974.629-4.357c0.43,0.08-0.573-1.028-0.273-1.099c0.302-0.072,1.055-0.536,1.203-0.476
		c0.146,0.057,0.331,0.602,0.148,1.076C975.523-4.382,974.629-4.357,974.629-4.357z"/>
	<path style="fill:#231F20;" d="M971.375-4.904c0.162,0.156,0.238,0.964-0.057,1.007c-0.293,0.042-1.234,0.156-1.167-0.212
		c0.065-0.369,0.337-0.987,0.493-1.149C970.802-5.42,971.375-4.904,971.375-4.904z"/>
	<path style="fill:#231F20;" d="M972.371-6.814c-0.343-0.031-0.988,0.202-1.018-0.343c-0.028-0.545,0.197-0.917,0.443-1.222
		c0.246-0.305,0.438,0.396,0.717,0.606C972.794-7.563,972.371-6.814,972.371-6.814z"/>
	<path style="fill:#231F20;" d="M965.988-3.287c-0.432-0.078,0.574,1.025,0.276,1.099c-0.299,0.073-1.05,0.54-1.198,0.481
		c-0.146-0.058-0.336-0.602-0.153-1.076C965.094-3.258,965.988-3.287,965.988-3.287z"/>
	<path style="fill:#231F20;" d="M899.427,54.312c-0.161-0.157-0.233-0.965,0.062-1.006c0.292-0.041,1.234-0.152,1.168,0.217
		c-0.07,0.368-0.344,0.986-0.5,1.147C899.997,54.831,899.427,54.312,899.427,54.312z"/>
	<path style="fill:#231F20;" d="M901.724,51.654c0.346,0.032,0.99-0.198,1.017,0.348c0.025,0.545-0.202,0.917-0.448,1.22
		c-0.247,0.304-0.437-0.399-0.714-0.61C901.299,52.402,901.724,51.654,901.724,51.654z"/>
	<path style="fill:#231F20;" d="M900.143,52.532c-0.346-0.031-0.989,0.201-1.02-0.343c-0.026-0.546,0.198-0.917,0.444-1.222
		c0.245-0.305,0.437,0.396,0.717,0.605C900.562,51.782,900.143,52.532,900.143,52.532z"/>
	<path style="fill:#231F20;" d="M898.497,52.138c-0.43-0.078,0.577,1.025,0.278,1.098c-0.301,0.073-1.053,0.54-1.2,0.481
		c-0.146-0.057-0.335-0.601-0.153-1.076C897.604,52.167,898.497,52.138,898.497,52.138z"/>
	<path style="fill:#231F20;" d="M897.432,51.806c0.432,0.08-0.57-1.027-0.271-1.099c0.299-0.072,1.053-0.536,1.201-0.476
		c0.146,0.057,0.333,0.602,0.148,1.076C898.326,51.782,897.432,51.806,897.432,51.806z"/>
	<path style="fill:#231F20;" d="M893.341,54.752c-0.161-0.157-0.237-0.965,0.056-1.007c0.296-0.042,1.236-0.157,1.17,0.212
		s-0.338,0.987-0.494,1.149C893.915,55.269,893.341,54.752,893.341,54.752z"/>
	<path style="fill:#231F20;" d="M894.86,55.312c0.344,0.031,0.989-0.201,1.017,0.344c0.029,0.544-0.197,0.917-0.443,1.222
		c-0.244,0.304-0.436-0.397-0.716-0.607C894.438,56.062,894.86,55.312,894.86,55.312z"/>
	<path style="fill:#231F20;" d="M896.327,55.801c0.431,0.078-0.576-1.026-0.276-1.098c0.299-0.073,1.051-0.541,1.198-0.482
		c0.146,0.057,0.337,0.601,0.154,1.076C897.222,55.773,896.327,55.801,896.327,55.801z"/>
	<path style="fill:#231F20;" d="M967.52-2.567c0.159,0.157,0.233,0.966-0.061,1.006c-0.293,0.041-1.236,0.152-1.168-0.217
		c0.068-0.369,0.342-0.986,0.5-1.147C966.948-3.086,967.52-2.567,967.52-2.567z"/>
	<path style="fill:#231F20;" d="M900.294,56.382c-0.344-0.032-0.991,0.198-1.016-0.348c-0.027-0.544,0.2-0.916,0.448-1.22
		c0.247-0.303,0.435,0.399,0.711,0.61C900.718,55.634,900.294,56.382,900.294,56.382z"/>
	<path style="fill:#231F20;" d="M898.425,55.875c-0.431-0.08,0.572,1.028,0.271,1.1c-0.3,0.072-1.054,0.536-1.2,0.476
		c-0.146-0.057-0.334-0.603-0.15-1.076C897.529,55.9,898.425,55.875,898.425,55.875z"/>
	<path style="fill:#231F20;" d="M967.915-3.062c-0.161-0.157-0.237-0.964,0.055-1.006c0.296-0.042,1.236-0.158,1.17,0.211
		s-0.338,0.987-0.495,1.149C968.488-2.546,967.915-3.062,967.915-3.062z"/>
	<path style="fill:#231F20;" d="M969.084-2.152c0.344,0.031,0.989-0.202,1.02,0.344c0.027,0.544-0.198,0.917-0.444,1.221
		c-0.247,0.305-0.438-0.396-0.717-0.606C968.662-1.403,969.084-2.152,969.084-2.152z"/>
	<path style="fill:#231F20;" d="M970.551-2.013c0.432,0.078-0.574-1.025-0.274-1.098c0.298-0.073,1.05-0.541,1.197-0.481
		c0.146,0.057,0.337,0.601,0.154,1.076C971.446-2.042,970.551-2.013,970.551-2.013z"/>
	<path style="fill:#231F20;" d="M831.697,103.806c0.162,0.157,0.233,0.965-0.062,1.006c-0.292,0.041-1.234,0.152-1.167-0.217
		c0.068-0.369,0.344-0.986,0.5-1.146C831.127,103.286,831.697,103.806,831.697,103.806z"/>
	<path style="fill:#231F20;" d="M829.92,106.398c-0.343-0.031-0.99,0.197-1.016-0.348s0.201-0.917,0.449-1.22
		c0.247-0.304,0.435,0.399,0.713,0.61C830.346,105.65,829.92,106.398,829.92,106.398z"/>
	<path style="fill:#231F20;" d="M830.982,105.585c0.346,0.031,0.989-0.202,1.019,0.344c0.028,0.544-0.198,0.917-0.444,1.221
		c-0.244,0.304-0.437-0.397-0.716-0.606C830.561,106.334,830.982,105.585,830.982,105.585z"/>
	<path style="fill:#231F20;" d="M832.627,105.979c0.432,0.078-0.577-1.025-0.278-1.098c0.3-0.073,1.053-0.541,1.199-0.481
		c0.146,0.057,0.336,0.601,0.154,1.076C833.521,105.95,832.627,105.979,832.627,105.979z"/>
	<path style="fill:#231F20;" d="M833.296,106.397c-0.431-0.08,0.571,1.028,0.271,1.1c-0.3,0.072-1.055,0.536-1.2,0.476
		c-0.146-0.057-0.335-0.603-0.15-1.076C832.4,106.422,833.296,106.397,833.296,106.397z"/>
	<path style="fill:#231F20;" d="M830.479,108.965c0.162,0.156,0.239,0.963-0.056,1.006c-0.293,0.042-1.235,0.157-1.168-0.211
		c0.066-0.369,0.337-0.987,0.494-1.149C829.905,108.448,830.479,108.965,830.479,108.965z"/>
	<path style="fill:#231F20;" d="M829.597,108.392c-0.342-0.031-0.987,0.202-1.017-0.343c-0.027-0.545,0.197-0.917,0.443-1.222
		c0.246-0.305,0.438,0.396,0.717,0.606C830.019,107.643,829.597,108.392,829.597,108.392z"/>
	<path style="fill:#231F20;" d="M828.016,108.01c-0.432-0.078,0.576,1.026,0.277,1.098c-0.3,0.073-1.051,0.54-1.199,0.481
		c-0.146-0.057-0.335-0.6-0.152-1.076C827.121,108.038,828.016,108.01,828.016,108.01z"/>
	<path style="fill:#231F20;" d="M965.239,0.149c-0.16-0.157-0.234-0.965,0.061-1.006c0.293-0.041,1.235-0.152,1.167,0.217
		c-0.068,0.369-0.342,0.986-0.5,1.147C965.811,0.668,965.239,0.149,965.239,0.149z"/>
	<path style="fill:#231F20;" d="M966.464,0.95c0.344,0.032,0.991-0.198,1.017,0.348c0.026,0.544-0.201,0.916-0.447,1.22
		c-0.248,0.303-0.437-0.4-0.714-0.61C966.041,1.697,966.464,0.95,966.464,0.95z"/>
	<path style="fill:#231F20;" d="M968.097,1.191c0.431,0.08-0.573-1.028-0.272-1.099c0.301-0.072,1.054-0.536,1.202-0.477
		c0.145,0.058,0.333,0.603,0.148,1.077C968.99,1.167,968.097,1.191,968.097,1.191z"/>
	<path style="fill:#231F20;" d="M964.843,0.645c0.162,0.156,0.237,0.964-0.055,1.006c-0.295,0.042-1.236,0.157-1.169-0.212
		c0.066-0.369,0.337-0.987,0.494-1.149C964.27,0.127,964.843,0.645,964.843,0.645z"/>
	<path style="fill:#231F20;" d="M963.842,0.067c-0.345-0.03-0.99,0.202-1.02-0.343c-0.027-0.544,0.197-0.917,0.444-1.222
		c0.246-0.305,0.437,0.397,0.716,0.607C964.263-0.682,963.842,0.067,963.842,0.067z"/>
	<path style="fill:#231F20;" d="M962.207-0.405c-0.432-0.078,0.576,1.025,0.275,1.098c-0.299,0.073-1.051,0.54-1.197,0.481
		c-0.146-0.057-0.336-0.6-0.155-1.076C961.312-0.376,962.207-0.405,962.207-0.405z"/>
	<path style="fill:#231F20;" d="M892.895,59.86c-0.16-0.157-0.232-0.965,0.062-1.006c0.293-0.041,1.235-0.151,1.167,0.217
		c-0.068,0.369-0.341,0.985-0.5,1.147C893.465,60.379,892.895,59.86,892.895,59.86z"/>
	<path style="fill:#231F20;" d="M895.191,57.203c0.344,0.032,0.989-0.197,1.016,0.348c0.025,0.544-0.201,0.916-0.448,1.22
		c-0.248,0.303-0.436-0.4-0.714-0.61C894.768,57.951,895.191,57.203,895.191,57.203z"/>
	<path style="fill:#231F20;" d="M893.607,58.08c-0.343-0.031-0.988,0.202-1.017-0.343c-0.028-0.545,0.197-0.917,0.443-1.222
		c0.245-0.305,0.438,0.396,0.717,0.606C894.031,57.331,893.607,58.08,893.607,58.08z"/>
	<path style="fill:#231F20;" d="M891.965,57.687c-0.431-0.078,0.577,1.025,0.278,1.098c-0.3,0.073-1.051,0.54-1.199,0.481
		c-0.146-0.057-0.336-0.601-0.153-1.076C891.071,57.715,891.965,57.687,891.965,57.687z"/>
	<path style="fill:#231F20;" d="M890.9,57.354c0.431,0.08-0.572-1.027-0.272-1.099c0.3-0.072,1.053-0.536,1.2-0.476
		c0.146,0.057,0.334,0.603,0.148,1.076C891.794,57.33,890.9,57.354,890.9,57.354z"/>
	<path style="fill:#231F20;" d="M896.307,53.827c-0.344-0.031-0.989,0.201-1.018-0.344s0.197-0.917,0.443-1.222
		c0.246-0.305,0.438,0.396,0.716,0.606C896.729,53.077,896.307,53.827,896.307,53.827z"/>
	<path style="fill:#231F20;" d="M889.729,57.601c-0.431-0.08,0.57,1.028,0.271,1.1c-0.299,0.071-1.052,0.535-1.199,0.476
		c-0.146-0.057-0.334-0.602-0.148-1.076C888.832,57.626,889.729,57.601,889.729,57.601z"/>
	<path style="fill:#231F20;" d="M827.312,110.182c0.343,0.031,0.988-0.201,1.017,0.344c0.029,0.544-0.198,0.917-0.442,1.222
		c-0.246,0.305-0.438-0.397-0.717-0.606S827.312,110.182,827.312,110.182z"/>
	<path style="fill:#231F20;" d="M834.623,105.486c-0.16-0.157-0.234-0.965,0.062-1.006c0.291-0.042,1.234-0.153,1.166,0.216
		c-0.068,0.368-0.343,0.986-0.5,1.147C835.194,106.006,834.623,105.486,834.623,105.486z"/>
	<path style="fill:#231F20;" d="M842.037,100.866c-0.344-0.031-0.989,0.201-1.02-0.344c-0.026-0.545,0.199-0.917,0.443-1.222
		c0.247-0.304,0.438,0.397,0.717,0.606C842.459,100.116,842.037,100.866,842.037,100.866z"/>
	<path style="fill:#231F20;" d="M818.33,120.333c-0.344-0.03-0.99,0.202-1.018-0.344c-0.029-0.544,0.196-0.917,0.442-1.221
		s0.437,0.397,0.715,0.606C818.751,119.584,818.33,120.333,818.33,120.333z"/>
	<path style="fill:#231F20;" d="M815.535,117.9c0.345,0.032,0.991-0.197,1.016,0.348c0.025,0.545-0.202,0.916-0.449,1.22
		c-0.246,0.303-0.435-0.399-0.713-0.61C815.111,118.647,815.535,117.9,815.535,117.9z"/>
	<path style="fill:#231F20;" d="M814.413,119.042c-0.344-0.031-0.989,0.202-1.019-0.344c-0.026-0.545,0.199-0.917,0.443-1.221
		c0.246-0.305,0.438,0.396,0.716,0.606C814.835,118.292,814.413,119.042,814.413,119.042z"/>
	<path style="fill:#231F20;" d="M953.393,11.812c0.432,0.08-0.57-1.027-0.271-1.1c0.3-0.071,1.054-0.535,1.201-0.476
		c0.145,0.057,0.333,0.602,0.148,1.076C954.287,11.787,953.393,11.812,953.393,11.812z"/>
	<path style="fill:#231F20;" d="M882.651,64.468c-0.344-0.032-0.99,0.197-1.017-0.349c-0.025-0.544,0.201-0.916,0.449-1.22
		c0.248-0.303,0.436,0.399,0.713,0.61C883.075,63.72,882.651,64.468,882.651,64.468z"/>
	<path style="fill:#231F20;" d="M920.961,37.531c-0.162-0.158-0.234-0.965,0.061-1.006c0.293-0.042,1.235-0.153,1.168,0.216
		c-0.069,0.369-0.343,0.986-0.5,1.147C921.531,38.05,920.961,37.531,920.961,37.531z"/>
	<path style="fill:#231F20;" d="M921.675,35.75c-0.343-0.03-0.989,0.202-1.018-0.343c-0.028-0.545,0.196-0.917,0.443-1.222
		c0.246-0.305,0.438,0.396,0.716,0.606C922.098,35.001,921.675,35.75,921.675,35.75z"/>
	<path style="fill:#231F20;" d="M920.03,35.357c-0.431-0.078,0.577,1.025,0.278,1.098c-0.299,0.073-1.052,0.54-1.199,0.481
		c-0.146-0.057-0.335-0.601-0.154-1.076C919.138,35.385,920.03,35.357,920.03,35.357z"/>
	<path style="fill:#231F20;" d="M918.967,35.025c0.43,0.08-0.572-1.028-0.272-1.1c0.3-0.071,1.053-0.536,1.202-0.476
		c0.144,0.057,0.332,0.603,0.147,1.076C919.86,35.001,918.967,35.025,918.967,35.025z"/>
	<path style="fill:#231F20;" d="M845.273,97.695c0.164,0.156,0.239,0.964-0.055,1.005c-0.293,0.043-1.234,0.158-1.168-0.211
		c0.066-0.369,0.338-0.987,0.493-1.149C844.702,97.179,845.273,97.695,845.273,97.695z"/>
	<path style="fill:#231F20;" d="M843.757,97.134c-0.344-0.03-0.989,0.202-1.018-0.343s0.198-0.917,0.442-1.222
		c0.246-0.305,0.438,0.396,0.717,0.606C844.179,96.385,843.757,97.134,843.757,97.134z"/>
	<path style="fill:#231F20;" d="M842.289,96.646c-0.432-0.078,0.577,1.025,0.278,1.098c-0.3,0.073-1.052,0.541-1.199,0.481
		c-0.146-0.057-0.336-0.601-0.154-1.076C841.396,96.674,842.289,96.646,842.289,96.646z"/>
	<path style="fill:#231F20;" d="M979.265-11.07c-0.161-0.156-0.233-0.965,0.062-1.006c0.293-0.041,1.236-0.151,1.167,0.217
		c-0.068,0.369-0.343,0.986-0.499,1.147C979.836-10.55,979.265-11.07,979.265-11.07z"/>
	<path style="fill:#231F20;" d="M980.49-10.269c0.343,0.031,0.988-0.197,1.016,0.348c0.026,0.544-0.202,0.916-0.448,1.22
		c-0.247,0.304-0.436-0.399-0.714-0.609C980.064-9.521,980.49-10.269,980.49-10.269z"/>
	<path style="fill:#231F20;" d="M982.359-9.763c0.43,0.081-0.572-1.027-0.272-1.099c0.301-0.072,1.053-0.536,1.201-0.477
		c0.146,0.057,0.334,0.603,0.149,1.076C983.254-9.787,982.359-9.763,982.359-9.763z"/>
	<path style="fill:#231F20;" d="M978.867-10.574c0.163,0.156,0.238,0.964-0.055,1.006c-0.295,0.042-1.234,0.158-1.17-0.212
		c0.067-0.369,0.34-0.987,0.495-1.149C978.294-11.09,978.867-10.574,978.867-10.574z"/>
	<path style="fill:#231F20;" d="M977.699-11.484c-0.346-0.031-0.99,0.202-1.019-0.344c-0.027-0.545,0.198-0.917,0.444-1.221
		c0.245-0.305,0.436,0.397,0.716,0.606C978.12-12.234,977.699-11.484,977.699-11.484z"/>
	<path style="fill:#231F20;" d="M976.23-11.624c-0.431-0.078,0.576,1.025,0.277,1.098c-0.299,0.073-1.051,0.541-1.197,0.482
		c-0.146-0.057-0.338-0.601-0.154-1.076C975.338-11.595,976.23-11.624,976.23-11.624z"/>
	<path style="fill:#231F20;" d="M906.919,48.641c-0.161-0.157-0.233-0.965,0.062-1.006c0.293-0.042,1.235-0.152,1.168,0.216
		c-0.068,0.368-0.344,0.986-0.5,1.147C907.491,49.161,906.919,48.641,906.919,48.641z"/>
	<path style="fill:#231F20;" d="M908.696,46.048c0.345,0.032,0.991-0.197,1.017,0.348c0.026,0.544-0.203,0.917-0.449,1.22
		c-0.246,0.303-0.434-0.4-0.712-0.61C908.271,46.796,908.696,46.048,908.696,46.048z"/>
	<path style="fill:#231F20;" d="M907.635,46.861c-0.345-0.03-0.99,0.202-1.018-0.343c-0.028-0.545,0.197-0.917,0.443-1.222
		c0.245-0.305,0.437,0.397,0.715,0.606C908.056,46.112,907.635,46.861,907.635,46.861z"/>
	<path style="fill:#231F20;" d="M905.99,46.468c-0.43-0.078,0.576,1.025,0.276,1.098c-0.3,0.074-1.05,0.54-1.198,0.482
		c-0.146-0.057-0.334-0.601-0.153-1.076S905.99,46.468,905.99,46.468z"/>
	<path style="fill:#231F20;" d="M904.925,46.136c0.431,0.08-0.571-1.028-0.271-1.1c0.3-0.072,1.053-0.536,1.199-0.476
		c0.146,0.057,0.336,0.602,0.149,1.076C905.82,46.112,904.925,46.136,904.925,46.136z"/>
	<path style="fill:#231F20;" d="M907.712,43.563c-0.163-0.156-0.238-0.964,0.056-1.006c0.293-0.042,1.235-0.157,1.168,0.212
		c-0.066,0.369-0.339,0.987-0.493,1.149C908.285,44.081,907.712,43.563,907.712,43.563z"/>
	<path style="fill:#231F20;" d="M909.02,44.055c0.345,0.031,0.989-0.202,1.019,0.344c0.028,0.544-0.198,0.916-0.443,1.221
		c-0.245,0.305-0.437-0.397-0.716-0.606C908.598,44.804,909.02,44.055,909.02,44.055z"/>
	<path style="fill:#231F20;" d="M910.602,44.437c0.432,0.078-0.574-1.025-0.275-1.099c0.299-0.073,1.05-0.54,1.197-0.481
		c0.146,0.057,0.337,0.601,0.154,1.076C911.496,44.409,910.602,44.437,910.602,44.437z"/>
	<path style="fill:#231F20;" d="M981.545-13.786c0.16,0.157,0.233,0.965-0.061,1.006c-0.295,0.041-1.235,0.152-1.168-0.216
		c0.068-0.369,0.343-0.986,0.5-1.147C980.975-14.305,981.545-13.786,981.545-13.786z"/>
	<path style="fill:#231F20;" d="M960.486,5.497c-0.346-0.031-0.991,0.198-1.017-0.348c-0.025-0.545,0.201-0.916,0.448-1.22
		c0.246-0.303,0.436,0.399,0.713,0.61C960.909,4.75,960.486,5.497,960.486,5.497z"/>
	<path style="fill:#231F20;" d="M979.521-13.911c-0.432-0.08,0.571,1.028,0.271,1.099c-0.3,0.072-1.052,0.536-1.2,0.476
		c-0.146-0.057-0.333-0.603-0.148-1.076C978.627-13.887,979.521-13.911,979.521-13.911z"/>
	<path style="fill:#231F20;" d="M981.941-14.282c-0.162-0.156-0.238-0.963,0.055-1.006c0.293-0.042,1.236-0.157,1.169,0.212
		c-0.067,0.369-0.338,0.987-0.494,1.149C982.514-13.765,981.941-14.282,981.941-14.282z"/>
	<path style="fill:#231F20;" d="M983.109-13.371c0.344,0.03,0.988-0.202,1.018,0.343c0.028,0.545-0.197,0.917-0.443,1.222
		c-0.246,0.305-0.436-0.397-0.716-0.606S983.109-13.371,983.109-13.371z"/>
	<path style="fill:#231F20;" d="M984.577-13.232c0.431,0.079-0.576-1.025-0.277-1.098c0.3-0.073,1.052-0.54,1.198-0.481
		c0.146,0.057,0.336,0.601,0.154,1.076C985.473-13.26,984.577-13.232,984.577-13.232z"/>
	<path style="fill:#231F20;" d="M845.724,92.587c0.16,0.157,0.234,0.965-0.061,1.006c-0.294,0.041-1.235,0.152-1.168-0.217
		c0.069-0.369,0.343-0.986,0.5-1.147C845.153,92.067,845.724,92.587,845.724,92.587z"/>
	<path style="fill:#231F20;" d="M843.427,95.244c-0.345-0.032-0.991,0.197-1.017-0.348c-0.026-0.544,0.201-0.917,0.447-1.22
		c0.25-0.303,0.437,0.399,0.715,0.61C843.85,94.497,843.427,95.244,843.427,95.244z"/>
	<path style="fill:#231F20;" d="M845.009,94.366c0.343,0.031,0.988-0.201,1.019,0.344c0.027,0.545-0.198,0.917-0.443,1.222
		c-0.247,0.305-0.438-0.397-0.717-0.606C844.587,95.116,845.009,94.366,845.009,94.366z"/>
	<path style="fill:#231F20;" d="M846.651,94.76c0.432,0.078-0.575-1.025-0.276-1.099c0.299-0.073,1.051-0.54,1.199-0.481
		c0.145,0.058,0.336,0.601,0.154,1.076C847.546,94.731,846.651,94.76,846.651,94.76z"/>
	<path style="fill:#231F20;" d="M847.717,95.092c-0.43-0.08,0.573,1.027,0.273,1.099c-0.301,0.072-1.055,0.536-1.202,0.476
		c-0.146-0.057-0.332-0.603-0.149-1.076C846.822,95.116,847.717,95.092,847.717,95.092z"/>
	<path style="fill:#231F20;" d="M851.807,92.146c0.163,0.157,0.239,0.964-0.055,1.006c-0.293,0.042-1.234,0.157-1.169-0.212
		c0.067-0.369,0.339-0.986,0.494-1.149C851.234,91.63,851.807,92.146,851.807,92.146z"/>
	<path style="fill:#231F20;" d="M850.29,91.585c-0.345-0.031-0.989,0.202-1.019-0.343c-0.028-0.544,0.198-0.917,0.443-1.222
		c0.246-0.305,0.436,0.396,0.716,0.606S850.29,91.585,850.29,91.585z"/>
	<path style="fill:#231F20;" d="M848.822,91.098c-0.433-0.079,0.576,1.024,0.276,1.098c-0.3,0.073-1.051,0.54-1.198,0.481
		c-0.146-0.057-0.336-0.601-0.154-1.076C847.927,91.126,848.822,91.098,848.822,91.098z"/>
	<path style="fill:#231F20;" d="M985.797-16.618c-0.161-0.158-0.234-0.966,0.061-1.006c0.294-0.041,1.235-0.152,1.168,0.217
		c-0.068,0.368-0.343,0.985-0.5,1.147C986.367-16.099,985.797-16.618,985.797-16.618z"/>
	<path style="fill:#231F20;" d="M987.021-15.817c0.345,0.031,0.989-0.198,1.016,0.348c0.025,0.544-0.201,0.916-0.448,1.219
		c-0.247,0.304-0.435-0.398-0.714-0.609C986.598-15.07,987.021-15.817,987.021-15.817z"/>
	<path style="fill:#231F20;" d="M988.893-15.311c0.43,0.08-0.572-1.028-0.272-1.1c0.3-0.072,1.054-0.536,1.201-0.476
		c0.146,0.057,0.333,0.602,0.147,1.076C989.786-15.335,988.893-15.311,988.893-15.311z"/>
	<path style="fill:#231F20;" d="M985.4-16.123c0.162,0.157,0.236,0.964-0.057,1.006c-0.294,0.042-1.234,0.157-1.168-0.211
		c0.067-0.37,0.338-0.987,0.494-1.149C984.826-16.64,985.4-16.123,985.4-16.123z"/>
	<path style="fill:#231F20;" d="M985.98-17.949c-0.345-0.031-0.988,0.201-1.018-0.344s0.198-0.917,0.443-1.222
		c0.246-0.305,0.437,0.396,0.716,0.606C986.402-18.699,985.98-17.949,985.98-17.949z"/>
	<path style="fill:#231F20;" d="M984.097-17.589c-0.43-0.078,0.576,1.025,0.277,1.098c-0.3,0.073-1.05,0.54-1.198,0.481
		c-0.146-0.057-0.337-0.601-0.154-1.076C983.203-17.561,984.097-17.589,984.097-17.589z"/>
	<path style="fill:#231F20;" d="M913.452,43.093c-0.162-0.157-0.234-0.966,0.061-1.006c0.293-0.041,1.235-0.152,1.167,0.217
		c-0.067,0.369-0.343,0.985-0.499,1.147C914.021,43.612,913.452,43.093,913.452,43.093z"/>
	<path style="fill:#231F20;" d="M915.229,40.5c0.344,0.032,0.99-0.198,1.017,0.348c0.026,0.545-0.203,0.916-0.448,1.22
		c-0.248,0.304-0.436-0.399-0.714-0.609C914.805,41.248,915.229,40.5,915.229,40.5z"/>
	<path style="fill:#231F20;" d="M914.167,41.312c-0.345-0.031-0.989,0.203-1.019-0.343c-0.028-0.545,0.197-0.917,0.443-1.222
		c0.246-0.304,0.438,0.396,0.716,0.606C914.588,40.563,914.167,41.312,914.167,41.312z"/>
	<path style="fill:#231F20;" d="M912.523,40.919c-0.432-0.078,0.575,1.026,0.276,1.098c-0.299,0.073-1.052,0.541-1.198,0.481
		c-0.146-0.057-0.337-0.601-0.154-1.076C911.629,40.948,912.523,40.919,912.523,40.919z"/>
	<path style="fill:#231F20;" d="M911.854,40.501c0.432,0.08-0.57-1.028-0.271-1.1c0.3-0.072,1.054-0.536,1.201-0.477
		c0.145,0.058,0.334,0.603,0.147,1.077C912.749,40.476,911.854,40.501,911.854,40.501z"/>
	<path style="fill:#231F20;" d="M914.672,37.934c-0.163-0.156-0.238-0.964,0.055-1.006s1.235-0.157,1.168,0.212
		c-0.065,0.369-0.336,0.987-0.492,1.149C915.245,38.451,914.672,37.934,914.672,37.934z"/>
	<path style="fill:#231F20;" d="M915.552,38.506c0.345,0.031,0.989-0.202,1.019,0.343c0.027,0.546-0.198,0.917-0.444,1.222
		c-0.245,0.305-0.436-0.396-0.715-0.605C915.13,39.255,915.552,38.506,915.552,38.506z"/>
	<path style="fill:#231F20;" d="M917.134,38.888c0.431,0.078-0.576-1.025-0.276-1.098c0.3-0.073,1.052-0.54,1.198-0.481
		c0.146,0.057,0.337,0.6,0.154,1.075C918.028,38.86,917.134,38.888,917.134,38.888z"/>
	<path style="fill:#231F20;" d="M988.077-19.334c0.16,0.157,0.233,0.966-0.062,1.007c-0.293,0.041-1.234,0.152-1.167-0.217
		c0.069-0.368,0.344-0.986,0.499-1.147C987.506-19.854,988.077-19.334,988.077-19.334z"/>
	<path style="fill:#231F20;" d="M991.52-19.719c-0.346-0.031-0.99,0.198-1.018-0.348c-0.026-0.544,0.202-0.916,0.449-1.22
		c0.248-0.304,0.435,0.399,0.712,0.61C991.941-20.466,991.52-19.719,991.52-19.719z"/>
	<path style="fill:#231F20;" d="M990.803-23.043c-0.43-0.08,0.572,1.028,0.273,1.099c-0.3,0.072-1.053,0.536-1.201,0.477
		c-0.146-0.057-0.333-0.602-0.148-1.076C989.909-23.019,990.803-23.043,990.803-23.043z"/>
	<path style="fill:#231F20;" d="M988.474-19.83c-0.163-0.157-0.237-0.964,0.056-1.006c0.294-0.042,1.234-0.158,1.168,0.211
		s-0.337,0.987-0.493,1.149C989.047-19.313,988.474-19.83,988.474-19.83z"/>
	<path style="fill:#231F20;" d="M989.643-18.919c0.345,0.031,0.988-0.201,1.018,0.343c0.027,0.545-0.197,0.917-0.443,1.222
		s-0.438-0.396-0.717-0.606S989.643-18.919,989.643-18.919z"/>
	<path style="fill:#231F20;" d="M849.959,89.695c-0.344-0.032-0.991,0.198-1.018-0.348c-0.025-0.546,0.201-0.916,0.448-1.22
		c0.248-0.304,0.437,0.4,0.714,0.61C850.382,88.947,849.959,89.695,849.959,89.695z"/>
	<path style="fill:#231F20;" d="M848.843,93.072c0.345,0.031,0.989-0.201,1.019,0.344c0.027,0.544-0.197,0.917-0.444,1.221
		c-0.245,0.305-0.437-0.396-0.715-0.606C848.422,93.821,848.843,93.072,848.843,93.072z"/>
	<path style="fill:#231F20;" d="M917.837,36.717c-0.343-0.031-0.988,0.201-1.017-0.344s0.196-0.917,0.442-1.222
		c0.246-0.305,0.438,0.396,0.718,0.606C918.259,35.967,917.837,36.717,917.837,36.717z"/>
	<path style="fill:#231F20;" d="M910.526,41.413c0.159,0.157,0.232,0.965-0.062,1.006s-1.234,0.152-1.167-0.217
		c0.068-0.369,0.342-0.986,0.5-1.147C909.956,40.892,910.526,41.413,910.526,41.413z"/>
	<path style="fill:#231F20;" d="M840.155,96.098c-0.433-0.079,0.575,1.024,0.276,1.098c-0.3,0.073-1.051,0.54-1.198,0.481
		c-0.146-0.057-0.337-0.601-0.154-1.076C839.26,96.126,840.155,96.098,840.155,96.098z"/>
	<path style="fill:#231F20;" d="M824.732,107.502c0.346,0.031,0.989-0.202,1.019,0.344c0.028,0.544-0.198,0.917-0.444,1.221
		c-0.244,0.304-0.437-0.397-0.716-0.606C824.311,108.251,824.732,107.502,824.732,107.502z"/>
	<path style="fill:#231F20;" d="M826.377,107.896c0.432,0.078-0.577-1.025-0.278-1.098c0.3-0.073,1.053-0.541,1.199-0.481
		c0.146,0.057,0.336,0.601,0.154,1.076C827.271,107.867,826.377,107.896,826.377,107.896z"/>
	<path style="fill:#231F20;" d="M819.184,112.54c-0.43-0.08,0.572,1.027,0.272,1.1c-0.3,0.071-1.053,0.535-1.201,0.476
		c-0.146-0.057-0.334-0.602-0.149-1.077C818.289,112.564,819.184,112.54,819.184,112.54z"/>
	<path style="fill:#231F20;" d="M834.225,100.512c-0.43-0.08,0.571,1.028,0.271,1.1c-0.299,0.071-1.055,0.535-1.2,0.475
		c-0.146-0.057-0.334-0.602-0.149-1.076C833.329,100.537,834.225,100.512,834.225,100.512z"/>
	<path style="fill:#231F20;" d="M856.271,84.681c0.431,0.078-0.576-1.026-0.275-1.099c0.298-0.073,1.05-0.54,1.197-0.481
		c0.146,0.056,0.337,0.6,0.154,1.076C857.166,84.653,856.271,84.681,856.271,84.681z"/>
	<path style="fill:#231F20;" d="M924.745,35.219c-0.16-0.158-0.232-0.965,0.062-1.007c0.293-0.04,1.234-0.151,1.166,0.218
		c-0.068,0.369-0.342,0.986-0.499,1.146C925.316,35.737,924.745,35.219,924.745,35.219z"/>
	<path style="fill:#231F20;" d="M924.35,35.714c0.163,0.157,0.238,0.964-0.056,1.007c-0.293,0.042-1.235,0.157-1.168-0.212
		c0.067-0.37,0.338-0.987,0.494-1.149C923.776,35.198,924.35,35.714,924.35,35.714z"/>
	<path style="fill:#231F20;" d="M923.504,33.377c-0.432-0.08,0.569,1.029,0.271,1.099c-0.301,0.073-1.054,0.536-1.2,0.477
		c-0.146-0.058-0.334-0.602-0.149-1.077C922.607,33.402,923.504,33.377,923.504,33.377z"/>
	<path style="fill:#231F20;" d="M918.828,39.719c-0.16-0.158-0.232-0.965,0.062-1.007c0.294-0.04,1.234-0.151,1.166,0.218
		c-0.068,0.369-0.342,0.986-0.499,1.146C919.398,40.237,918.828,39.719,918.828,39.719z"/>
	<path style="fill:#231F20;" d="M918.433,40.214c0.163,0.157,0.238,0.964-0.056,1.007c-0.293,0.042-1.235,0.157-1.168-0.212
		c0.066-0.37,0.338-0.987,0.494-1.149C917.859,39.698,918.433,40.214,918.433,40.214z"/>
	<path style="fill:#231F20;" d="M912.161,44.969c-0.16-0.158-0.232-0.965,0.062-1.007c0.293-0.04,1.234-0.151,1.166,0.218
		c-0.068,0.369-0.342,0.986-0.499,1.146C912.732,45.487,912.161,44.969,912.161,44.969z"/>
	<path style="fill:#231F20;" d="M911.766,45.464c0.163,0.157,0.238,0.964-0.056,1.007c-0.293,0.042-1.235,0.157-1.168-0.212
		c0.067-0.37,0.338-0.987,0.494-1.149C911.192,44.948,911.766,45.464,911.766,45.464z"/>
	<path style="fill:#231F20;" d="M941.912,21.635c-0.16-0.158-0.232-0.965,0.062-1.007c0.294-0.04,1.234-0.151,1.166,0.218
		c-0.068,0.369-0.342,0.986-0.499,1.146C942.482,22.153,941.912,21.635,941.912,21.635z"/>
	<path style="fill:#231F20;" d="M941.518,22.131c0.162,0.157,0.237,0.964-0.057,1.007c-0.293,0.042-1.234,0.157-1.168-0.212
		c0.067-0.37,0.338-0.987,0.494-1.149C940.943,21.614,941.518,22.131,941.518,22.131z"/>
	<path style="fill:#231F20;" d="M946.92,13.229c-0.345-0.031-0.99,0.201-1.018-0.344c-0.028-0.544,0.196-0.917,0.443-1.222
		c0.245-0.305,0.438,0.397,0.717,0.606C947.341,12.478,946.92,13.229,946.92,13.229z"/>
	<path style="fill:#231F20;" d="M934.624,25.702c0.345,0.031,0.989-0.202,1.019,0.344c0.026,0.544-0.198,0.917-0.444,1.221
		c-0.245,0.305-0.437-0.396-0.716-0.606C934.201,26.451,934.624,25.702,934.624,25.702z"/>
	<path style="fill:#231F20;" d="M931.541,23.369c0.345,0.031,0.989-0.202,1.02,0.344c0.025,0.544-0.199,0.917-0.445,1.221
		c-0.245,0.305-0.437-0.396-0.717-0.606S931.541,23.369,931.541,23.369z"/>
	<path style="fill:#231F20;" d="M970.204-5.231c-0.343-0.031-0.988,0.202-1.017-0.343c-0.029-0.545,0.196-0.917,0.442-1.222
		c0.246-0.305,0.438,0.396,0.717,0.606C970.627-5.98,970.204-5.231,970.204-5.231z"/>
	<path style="fill:#231F20;" d="M964.847,3.941c0.431,0.08-0.573-1.028-0.272-1.099c0.301-0.072,1.054-0.536,1.202-0.477
		c0.145,0.058,0.333,0.603,0.148,1.077C965.74,3.917,964.847,3.941,964.847,3.941z"/>
	<path style="fill:#231F20;" d="M903.114,46.032c0.343,0.031,0.987-0.201,1.017,0.344s-0.197,0.917-0.443,1.221
		c-0.245,0.306-0.438-0.396-0.717-0.605C902.691,46.782,903.114,46.032,903.114,46.032z"/>
	<path style="fill:#231F20;" d="M963.097,5.441c0.431,0.08-0.573-1.028-0.272-1.099c0.301-0.072,1.054-0.536,1.202-0.477
		c0.145,0.058,0.333,0.603,0.148,1.077C963.99,5.417,963.097,5.441,963.097,5.441z"/>
	<path style="fill:#231F20;" d="M978.99-8.603c0.343,0.031,0.988-0.197,1.016,0.348c0.026,0.544-0.202,0.916-0.448,1.22
		c-0.247,0.304-0.436-0.399-0.714-0.609C978.564-7.854,978.99-8.603,978.99-8.603z"/>
	<path style="fill:#231F20;" d="M977.407-7.269c0.343,0.031,0.989-0.197,1.016,0.348c0.026,0.544-0.202,0.916-0.448,1.22
		c-0.248,0.304-0.436-0.399-0.714-0.609C976.982-6.521,977.407-7.269,977.407-7.269z"/>
	<path style="fill:#231F20;" d="M997.884-26.699c0.162,0.157,0.234,0.965-0.06,1.006c-0.293,0.042-1.236,0.152-1.168-0.217
		c0.067-0.368,0.343-0.986,0.5-1.147C997.312-27.218,997.884-26.699,997.884-26.699z"/>
	<path style="fill:#231F20;" d="M998.28-27.195c-0.162-0.157-0.237-0.964,0.056-1.006c0.294-0.042,1.235-0.157,1.169,0.212
		c-0.065,0.369-0.338,0.986-0.495,1.149C998.854-26.678,998.28-27.195,998.28-27.195z"/>
	<path style="fill:#231F20;" d="M999.449-26.284c0.345,0.031,0.99-0.202,1.018,0.343c0.029,0.545-0.197,0.917-0.443,1.221
		c-0.245,0.305-0.436-0.396-0.716-0.605C999.028-25.535,999.449-26.284,999.449-26.284z"/>
	<path style="fill:#231F20;" d="M1000.917-26.145c0.43,0.078-0.576-1.026-0.276-1.098c0.299-0.073,1.052-0.54,1.198-0.482
		s0.336,0.601,0.153,1.076C1001.812-26.173,1000.917-26.145,1000.917-26.145z"/>
	<path style="fill:#231F20;" d="M995.604-23.983c-0.16-0.158-0.232-0.965,0.062-1.006c0.292-0.041,1.235-0.152,1.168,0.216
		c-0.07,0.369-0.344,0.986-0.5,1.146C996.175-23.464,995.604-23.983,995.604-23.983z"/>
	<path style="fill:#231F20;" d="M996.829-23.182c0.345,0.031,0.991-0.198,1.017,0.348c0.026,0.545-0.203,0.916-0.449,1.22
		c-0.247,0.303-0.434-0.399-0.711-0.61C996.405-22.435,996.829-23.182,996.829-23.182z"/>
	<path style="fill:#231F20;" d="M998.462-22.941c0.43,0.08-0.573-1.028-0.272-1.099c0.301-0.072,1.054-0.536,1.201-0.476
		c0.146,0.057,0.332,0.602,0.149,1.076C999.355-22.965,998.462-22.941,998.462-22.941z"/>
	<path style="fill:#231F20;" d="M995.208-23.487c0.162,0.156,0.238,0.964-0.057,1.007c-0.294,0.042-1.234,0.156-1.167-0.212
		c0.065-0.369,0.337-0.987,0.492-1.149C994.635-24.004,995.208-23.487,995.208-23.487z"/>
	<path style="fill:#231F20;" d="M996.204-25.398c-0.343-0.031-0.988,0.202-1.017-0.343c-0.029-0.545,0.196-0.917,0.442-1.222
		c0.246-0.305,0.438,0.396,0.717,0.606C996.627-26.147,996.204-25.398,996.204-25.398z"/>
	<path style="fill:#231F20;" d="M991.748-21.646c-0.161-0.157-0.237-0.964,0.055-1.006c0.296-0.042,1.236-0.158,1.17,0.211
		c-0.066,0.369-0.338,0.987-0.494,1.149C992.321-21.129,991.748-21.646,991.748-21.646z"/>
	<path style="fill:#231F20;" d="M992.917-20.736c0.344,0.031,0.989-0.202,1.019,0.344c0.028,0.544-0.197,0.917-0.443,1.221
		c-0.247,0.305-0.438-0.396-0.717-0.606C992.495-19.986,992.917-20.736,992.917-20.736z"/>
	<path style="fill:#231F20;" d="M994.384-20.597c0.431,0.078-0.575-1.025-0.274-1.098c0.298-0.073,1.05-0.541,1.197-0.481
		c0.146,0.057,0.336,0.601,0.154,1.076S994.384-20.597,994.384-20.597z"/>
	<path style="fill:#231F20;" d="M991.93-17.393c0.431,0.08-0.572-1.028-0.272-1.099c0.301-0.072,1.054-0.536,1.202-0.477
		c0.145,0.058,0.333,0.603,0.148,1.077C992.823-17.417,991.93-17.393,991.93-17.393z"/>
	<path style="fill:#231F20;" d="M1003.098-29.654c-0.162-0.156-0.233-0.965,0.062-1.006c0.293-0.041,1.235-0.151,1.167,0.217
		c-0.068,0.369-0.344,0.986-0.499,1.147C1003.669-29.134,1003.098-29.654,1003.098-29.654z"/>
	<path style="fill:#231F20;" d="M1004.323-28.853c0.343,0.031,0.989-0.197,1.016,0.348c0.026,0.544-0.202,0.916-0.448,1.22
		c-0.248,0.304-0.436-0.399-0.714-0.609S1004.323-28.853,1004.323-28.853z"/>
	<path style="fill:#231F20;" d="M1006.192-28.346c0.43,0.081-0.572-1.027-0.272-1.099c0.301-0.072,1.053-0.536,1.201-0.477
		c0.146,0.057,0.334,0.603,0.148,1.076C1007.087-28.37,1006.192-28.346,1006.192-28.346z"/>
	<path style="fill:#231F20;" d="M1002.7-29.157c0.163,0.156,0.237,0.964-0.056,1.006s-1.233,0.158-1.168-0.212
		c0.066-0.369,0.338-0.987,0.494-1.149C1002.127-29.674,1002.7-29.157,1002.7-29.157z"/>
	<path style="fill:#231F20;" d="M1001.532-30.068c-0.345-0.031-0.99,0.202-1.019-0.344c-0.027-0.545,0.198-0.917,0.444-1.221
		c0.245-0.305,0.436,0.397,0.716,0.606C1001.953-30.817,1001.532-30.068,1001.532-30.068z"/>
	<path style="fill:#231F20;" d="M1000.064-30.207c-0.432-0.078,0.575,1.025,0.276,1.098c-0.299,0.073-1.051,0.541-1.198,0.482
		c-0.146-0.057-0.337-0.601-0.153-1.076C999.171-30.179,1000.064-30.207,1000.064-30.207z"/>
	<path style="fill:#231F20;" d="M1005.378-32.369c0.16,0.157,0.233,0.965-0.061,1.006c-0.296,0.041-1.235,0.152-1.169-0.216
		c0.069-0.369,0.344-0.986,0.5-1.147C1004.808-32.889,1005.378-32.369,1005.378-32.369z"/>
	<path style="fill:#231F20;" d="M1004.152-33.17c-0.346-0.031-0.991,0.198-1.017-0.348c-0.025-0.545,0.201-0.916,0.448-1.22
		c0.246-0.303,0.436,0.399,0.713,0.61C1004.575-33.917,1004.152-33.17,1004.152-33.17z"/>
	<path style="fill:#231F20;" d="M1003.354-32.495c-0.431-0.08,0.572,1.028,0.271,1.099c-0.3,0.072-1.052,0.536-1.2,0.476
		c-0.146-0.057-0.333-0.603-0.148-1.076C1002.46-32.47,1003.354-32.495,1003.354-32.495z"/>
	<path style="fill:#231F20;" d="M1005.773-32.865c-0.161-0.156-0.237-0.963,0.056-1.006c0.293-0.042,1.235-0.157,1.169,0.212
		c-0.067,0.369-0.338,0.987-0.494,1.149C1006.347-32.348,1005.773-32.865,1005.773-32.865z"/>
	<path style="fill:#231F20;" d="M1006.942-31.954c0.344,0.03,0.988-0.202,1.018,0.343c0.028,0.545-0.197,0.917-0.442,1.222
		c-0.246,0.305-0.437-0.397-0.717-0.606C1006.521-31.204,1006.942-31.954,1006.942-31.954z"/>
	<path style="fill:#231F20;" d="M1008.41-31.815c0.431,0.079-0.576-1.025-0.277-1.098c0.3-0.073,1.051-0.54,1.198-0.481
		c0.146,0.057,0.336,0.601,0.154,1.076C1009.306-31.844,1008.41-31.815,1008.41-31.815z"/>
	<path style="fill:#231F20;" d="M1009.63-35.202c-0.161-0.158-0.233-0.966,0.062-1.006c0.293-0.041,1.234-0.152,1.166,0.217
		c-0.067,0.368-0.342,0.985-0.498,1.147C1010.2-34.683,1009.63-35.202,1009.63-35.202z"/>
	<path style="fill:#231F20;" d="M1010.855-34.401c0.344,0.031,0.988-0.198,1.015,0.348c0.026,0.544-0.201,0.916-0.448,1.219
		c-0.247,0.304-0.435-0.398-0.714-0.609C1010.431-33.653,1010.855-34.401,1010.855-34.401z"/>
	<path style="fill:#231F20;" d="M1012.725-33.894c0.431,0.08-0.571-1.028-0.271-1.1c0.3-0.072,1.054-0.536,1.201-0.476
		c0.146,0.057,0.333,0.602,0.147,1.076C1013.619-33.918,1012.725-33.894,1012.725-33.894z"/>
	<path style="fill:#231F20;" d="M1009.232-34.706c0.162,0.157,0.237,0.964-0.056,1.006c-0.294,0.042-1.235,0.157-1.168-0.211
		c0.067-0.37,0.338-0.987,0.494-1.149C1008.659-35.223,1009.232-34.706,1009.232-34.706z"/>
	<path style="fill:#231F20;" d="M1008.064-35.616c-0.346-0.031-0.989,0.201-1.019-0.344c-0.028-0.545,0.198-0.917,0.443-1.222
		c0.246-0.305,0.437,0.396,0.716,0.606C1008.485-36.366,1008.064-35.616,1008.064-35.616z"/>
	<path style="fill:#231F20;" d="M1006.597-35.755c-0.43-0.078,0.576,1.025,0.277,1.098c-0.3,0.073-1.05,0.54-1.198,0.481
		c-0.146-0.057-0.337-0.601-0.154-1.076C1005.703-35.728,1006.597-35.755,1006.597-35.755z"/>
	<path style="fill:#231F20;" d="M1011.91-37.918c0.16,0.157,0.234,0.966-0.062,1.007c-0.293,0.041-1.234,0.152-1.167-0.217
		c0.069-0.368,0.343-0.986,0.499-1.147C1011.339-38.437,1011.91-37.918,1011.91-37.918z"/>
	<path style="fill:#231F20;" d="M1010.052-38.126c-0.43-0.08,0.572,1.028,0.273,1.099c-0.3,0.072-1.054,0.536-1.201,0.477
		c-0.146-0.057-0.333-0.602-0.149-1.076C1009.158-38.103,1010.052-38.126,1010.052-38.126z"/>
	<path style="fill:#231F20;" d="M1012.307-38.414c-0.162-0.157-0.237-0.964,0.056-1.006c0.294-0.042,1.234-0.158,1.168,0.211
		s-0.337,0.987-0.493,1.149C1012.88-37.896,1012.307-38.414,1012.307-38.414z"/>
	<path style="fill:#231F20;" d="M1013.477-37.503c0.344,0.031,0.987-0.201,1.017,0.343c0.028,0.545-0.197,0.917-0.443,1.222
		s-0.438-0.396-0.717-0.606C1013.054-36.753,1013.477-37.503,1013.477-37.503z"/>
	<path style="fill:#231F20;" d="M994.037-23.814c-0.343-0.031-0.988,0.202-1.018-0.343c-0.028-0.545,0.197-0.917,0.443-1.222
		c0.246-0.305,0.438,0.396,0.717,0.606C994.46-24.563,994.037-23.814,994.037-23.814z"/>
	<path style="fill:#231F20;" d="M1002.823-27.186c0.343,0.031,0.989-0.197,1.016,0.348c0.026,0.544-0.202,0.916-0.448,1.22
		c-0.248,0.304-0.436-0.399-0.714-0.609C1002.398-26.438,1002.823-27.186,1002.823-27.186z"/>
	<path style="fill:#231F20;" d="M1001.24-25.853c0.343,0.031,0.988-0.197,1.016,0.348c0.026,0.544-0.202,0.916-0.448,1.22
		c-0.247,0.304-0.436-0.399-0.714-0.609C1000.814-25.104,1001.24-25.853,1001.24-25.853z"/>
	<path style="fill:#231F20;" d="M1014.863-40.778c-0.162-0.157-0.237-0.964,0.056-1.006c0.294-0.042,1.235-0.157,1.169,0.212
		c-0.066,0.369-0.338,0.986-0.495,1.149C1015.438-40.262,1014.863-40.778,1014.863-40.778z"/>
	<path style="fill:#231F20;" d="M1016.032-39.868c0.345,0.031,0.989-0.202,1.018,0.343c0.029,0.545-0.198,0.917-0.442,1.221
		c-0.246,0.305-0.437-0.396-0.717-0.605C1015.611-39.118,1016.032-39.868,1016.032-39.868z"/>
	<path style="fill:#231F20;" d="M1017.5-39.729c0.43,0.078-0.576-1.026-0.276-1.098c0.3-0.073,1.052-0.54,1.198-0.482
		s0.336,0.601,0.153,1.076C1018.395-39.757,1017.5-39.729,1017.5-39.729z"/>
	<path style="fill:#231F20;" d="M1015.045-36.524c0.43,0.08-0.573-1.028-0.273-1.099c0.302-0.072,1.055-0.536,1.202-0.476
		c0.146,0.057,0.332,0.602,0.149,1.076C1015.939-36.549,1015.045-36.524,1015.045-36.524z"/>
	<path style="fill:#231F20;" d="M1019.681-43.237c-0.161-0.156-0.233-0.965,0.062-1.006c0.293-0.041,1.236-0.151,1.167,0.217
		c-0.068,0.369-0.343,0.986-0.499,1.147C1020.252-42.717,1019.681-43.237,1019.681-43.237z"/>
	<path style="fill:#231F20;" d="M1020.906-42.436c0.343,0.031,0.988-0.197,1.016,0.348c0.026,0.544-0.202,0.916-0.448,1.22
		c-0.247,0.304-0.436-0.399-0.714-0.609C1020.48-41.688,1020.906-42.436,1020.906-42.436z"/>
	<path style="fill:#231F20;" d="M1022.775-41.93c0.43,0.081-0.572-1.027-0.272-1.099c0.301-0.072,1.053-0.536,1.201-0.477
		c0.146,0.057,0.334,0.603,0.149,1.076C1023.67-41.954,1022.775-41.93,1022.775-41.93z"/>
	<path style="fill:#231F20;" d="M1019.283-42.741c0.163,0.156,0.238,0.964-0.055,1.006c-0.295,0.042-1.234,0.158-1.17-0.212
		c0.067-0.369,0.34-0.987,0.495-1.149C1018.71-43.257,1019.283-42.741,1019.283-42.741z"/>
	<path style="fill:#231F20;" d="M1018.115-43.651c-0.346-0.031-0.99,0.202-1.019-0.344c-0.027-0.545,0.198-0.917,0.444-1.221
		c0.245-0.305,0.436,0.397,0.716,0.606C1018.536-44.401,1018.115-43.651,1018.115-43.651z"/>
	<path style="fill:#231F20;" d="M1016.646-43.791c-0.431-0.078,0.576,1.025,0.277,1.098c-0.299,0.073-1.051,0.541-1.198,0.482
		c-0.146-0.057-0.337-0.601-0.153-1.076C1015.754-43.762,1016.646-43.791,1016.646-43.791z"/>
	<path style="fill:#231F20;" d="M1021.961-45.953c0.16,0.157,0.233,0.965-0.061,1.006c-0.295,0.041-1.235,0.152-1.168-0.216
		c0.068-0.369,0.343-0.986,0.5-1.147C1021.391-46.472,1021.961-45.953,1021.961-45.953z"/>
	<path style="fill:#231F20;" d="M1020.735-46.753c-0.346-0.031-0.991,0.198-1.017-0.348c-0.025-0.545,0.201-0.916,0.448-1.22
		c0.246-0.303,0.435,0.399,0.713,0.61S1020.735-46.753,1020.735-46.753z"/>
	<path style="fill:#231F20;" d="M1019.938-46.078c-0.431-0.08,0.572,1.028,0.271,1.099c-0.3,0.072-1.052,0.536-1.2,0.476
		c-0.146-0.057-0.333-0.603-0.148-1.076C1019.043-46.054,1019.938-46.078,1019.938-46.078z"/>
	<path style="fill:#231F20;" d="M1022.357-46.449c-0.162-0.156-0.238-0.963,0.055-1.006c0.293-0.042,1.236-0.157,1.169,0.212
		c-0.067,0.369-0.338,0.987-0.494,1.149C1022.93-45.932,1022.357-46.449,1022.357-46.449z"/>
	<path style="fill:#231F20;" d="M1023.525-45.538c0.344,0.03,0.988-0.202,1.018,0.343c0.028,0.545-0.197,0.917-0.443,1.222
		c-0.246,0.305-0.436-0.397-0.716-0.606S1023.525-45.538,1023.525-45.538z"/>
	<path style="fill:#231F20;" d="M1024.993-45.399c0.431,0.079-0.576-1.025-0.277-1.098c0.3-0.073,1.052-0.54,1.198-0.481
		c0.146,0.057,0.336,0.601,0.154,1.076C1025.889-45.427,1024.993-45.399,1024.993-45.399z"/>
	<path style="fill:#231F20;" d="M1026.213-48.785c-0.161-0.158-0.234-0.966,0.062-1.006c0.293-0.041,1.234-0.152,1.167,0.217
		c-0.068,0.368-0.343,0.985-0.499,1.147C1026.783-48.266,1026.213-48.785,1026.213-48.785z"/>
	<path style="fill:#231F20;" d="M1027.438-47.984c0.345,0.031,0.989-0.198,1.016,0.348c0.025,0.544-0.201,0.916-0.448,1.219
		c-0.247,0.304-0.435-0.398-0.714-0.609C1027.014-47.237,1027.438-47.984,1027.438-47.984z"/>
	<path style="fill:#231F20;" d="M1029.308-47.478c0.431,0.08-0.571-1.028-0.271-1.1c0.3-0.072,1.054-0.536,1.201-0.476
		c0.146,0.057,0.333,0.602,0.147,1.076C1030.202-47.502,1029.308-47.478,1029.308-47.478z"/>
	<path style="fill:#231F20;" d="M1025.816-48.29c0.162,0.157,0.236,0.964-0.057,1.006c-0.294,0.042-1.234,0.157-1.168-0.211
		c0.067-0.37,0.338-0.987,0.494-1.149C1025.242-48.807,1025.816-48.29,1025.816-48.29z"/>
	<path style="fill:#231F20;" d="M1024.646-49.2c-0.345-0.031-0.988,0.201-1.018-0.344s0.198-0.917,0.443-1.222
		c0.246-0.305,0.437,0.396,0.716,0.606C1025.068-49.95,1024.646-49.2,1024.646-49.2z"/>
	<path style="fill:#231F20;" d="M1023.18-49.339c-0.43-0.078,0.576,1.025,0.277,1.098c-0.3,0.073-1.05,0.54-1.198,0.481
		c-0.146-0.057-0.337-0.601-0.153-1.076C1022.286-49.311,1023.18-49.339,1023.18-49.339z"/>
	<path style="fill:#231F20;" d="M1028.493-51.501c0.16,0.157,0.233,0.966-0.062,1.007c-0.293,0.041-1.234,0.152-1.167-0.217
		c0.069-0.368,0.344-0.986,0.499-1.147C1027.922-52.021,1028.493-51.501,1028.493-51.501z"/>
	<path style="fill:#231F20;" d="M1015.018-38.886c-0.345-0.031-0.989,0.198-1.017-0.348c-0.026-0.544,0.202-0.916,0.449-1.22
		c0.248-0.304,0.435,0.399,0.712,0.61C1015.439-39.633,1015.018-38.886,1015.018-38.886z"/>
	<path style="fill:#231F20;" d="M1025.635-52.543c-0.43-0.08,0.572,1.028,0.273,1.099c-0.301,0.072-1.053,0.536-1.201,0.477
		c-0.146-0.057-0.333-0.602-0.149-1.076C1024.741-52.52,1025.635-52.543,1025.635-52.543z"/>
	<path style="fill:#231F20;" d="M1028.89-51.997c-0.163-0.157-0.237-0.964,0.056-1.006c0.294-0.042,1.234-0.158,1.168,0.211
		s-0.337,0.987-0.493,1.149C1029.463-51.48,1028.89-51.997,1028.89-51.997z"/>
	<path style="fill:#231F20;" d="M1030.059-51.086c0.345,0.031,0.988-0.201,1.018,0.343c0.027,0.545-0.197,0.917-0.443,1.222
		s-0.438-0.396-0.717-0.606S1030.059-51.086,1030.059-51.086z"/>
	<path style="fill:#231F20;" d="M1019.406-40.77c0.343,0.031,0.988-0.197,1.016,0.348c0.026,0.544-0.202,0.916-0.448,1.22
		c-0.247,0.304-0.436-0.399-0.714-0.609C1018.98-40.021,1019.406-40.77,1019.406-40.77z"/>
	<path style="fill:#231F20;" d="M1017.823-39.436c0.343,0.031,0.989-0.197,1.016,0.348c0.026,0.544-0.202,0.916-0.448,1.22
		c-0.248,0.304-0.436-0.399-0.714-0.609C1017.398-38.688,1017.823-39.436,1017.823-39.436z"/>
	<path style="fill:#231F20;" d="M790.569,143.318c0.161,0.156,0.237,0.963-0.057,1.005c-0.292,0.042-1.233,0.158-1.167-0.211
		c0.066-0.369,0.337-0.987,0.493-1.149C789.996,142.801,790.569,143.318,790.569,143.318z"/>
	<path style="fill:#231F20;" d="M788.834,141.956c-0.431-0.078,0.576,1.025,0.277,1.098c-0.299,0.072-1.052,0.541-1.198,0.481
		c-0.146-0.058-0.336-0.601-0.155-1.076C787.939,141.984,788.834,141.956,788.834,141.956z"/>
	<path style="fill:#231F20;" d="M786.427,144.757c-0.344-0.031-0.987,0.202-1.018-0.344c-0.028-0.544,0.196-0.917,0.442-1.222
		c0.247-0.305,0.438,0.397,0.718,0.606C786.849,144.008,786.427,144.757,786.427,144.757z"/>
	<path style="fill:#231F20;" d="M786.972,142.179c-0.344-0.033-0.991,0.197-1.016-0.349c-0.027-0.545,0.201-0.917,0.447-1.219
		c0.247-0.305,0.435,0.398,0.713,0.609C787.395,141.43,786.972,142.179,786.972,142.179z"/>
	<path style="fill:#231F20;" d="M783.989,147.757c-0.345-0.031-0.988,0.202-1.019-0.344c-0.027-0.544,0.197-0.917,0.443-1.222
		c0.247-0.305,0.438,0.397,0.717,0.606C784.411,147.008,783.989,147.757,783.989,147.757z"/>
	<path style="fill:#231F20;" d="M788.831,144.583c0.16,0.159,0.233,0.966-0.062,1.008c-0.293,0.04-1.234,0.151-1.168-0.218
		c0.069-0.369,0.344-0.986,0.5-1.146C788.26,144.065,788.831,144.583,788.831,144.583z"/>
	<path style="fill:#231F20;" d="M786.534,147.242c-0.345-0.033-0.992,0.197-1.017-0.349c-0.026-0.545,0.201-0.917,0.447-1.219
		c0.247-0.305,0.436,0.398,0.713,0.609C786.957,146.493,786.534,147.242,786.534,147.242z"/>
	<path style="fill:#231F20;" d="M788.49,145.988c0.345,0.031,0.988-0.201,1.018,0.343c0.028,0.545-0.197,0.917-0.443,1.222
		c-0.245,0.305-0.436-0.397-0.716-0.607C788.069,146.738,788.49,145.988,788.49,145.988z"/>
	<path style="fill:#231F20;" d="M783.803,143.738c0.346,0.031,0.989-0.201,1.019,0.343c0.027,0.545-0.198,0.917-0.443,1.222
		c-0.246,0.305-0.436-0.397-0.716-0.607C783.382,144.488,783.803,143.738,783.803,143.738z"/>
	<path style="fill:#231F20;" d="M785.146,141.019c-0.432-0.078,0.575,1.025,0.276,1.098c-0.299,0.072-1.051,0.541-1.198,0.481
		c-0.146-0.058-0.336-0.601-0.154-1.076S785.146,141.019,785.146,141.019z"/>
	<path style="fill:#231F20;" d="M787.802,148.319c-0.344-0.031-0.987,0.202-1.018-0.344c-0.028-0.544,0.196-0.917,0.442-1.222
		c0.247-0.305,0.438,0.397,0.718,0.606C788.224,147.57,787.802,148.319,787.802,148.319z"/>
</g>
<g id="Layer_1">
</g>
</svg>
