<?xml version="1.0" encoding="iso-8859-1"?>
<!-- Generator: Adobe Illustrator 16.0.4, SVG Export Plug-In . SVG Version: 6.00 Build 0)  -->
<!DOCTYPE svg PUBLIC "-//W3C//DTD SVG 1.1//EN" "http://www.w3.org/Graphics/SVG/1.1/DTD/svg11.dtd">
<svg version="1.1" xmlns="http://www.w3.org/2000/svg" xmlns:xlink="http://www.w3.org/1999/xlink" x="0px" y="0px" width="1366px"
	 height="700px" viewBox="0 0 1366 700" style="enable-background:new 0 0 1366 700;" xml:space="preserve">
<g id="Rockpile_from_headframe_2">
	<path style="fill:#231F20;" d="M729.972,210.283c-0.284-0.04-0.424-0.202-0.424-1.008c0-0.807,0.176-0.361,0.212-0.725
		c0.034-0.362-0.424-0.281-0.846-0.522c-0.423-0.242-0.212-0.161-0.459-0.807c-0.248-0.645,0.247-0.441,0.14-0.885
		c-0.104-0.445-0.21-0.524-0.668-0.524c-0.459,0-0.495,0.283-0.775,0.202c0,0-0.297,0.05-0.506,0.071s-0.271-0.312-0.438-0.312
		s-0.166,0.188-0.479,0.229c-0.312,0.041-0.688-0.208-0.792-0.229c-0.104-0.021-0.708,0.167-0.958,0.292s-0.75-0.125-0.875-0.188
		s-0.542-0.146-0.834-0.083s-0.229,0.312-0.458,0.375c-0.229,0.063-0.479-0.292-0.625-0.375c-0.146-0.083-0.604-0.062-0.792,0.042
		c-0.188,0.104-0.666,0.208-0.916,0.188s-0.334-0.167-0.542-0.167s-0.75,0.229-1,0.125s-0.333-0.042-0.708-0.021
		s-0.292,0.083-0.396,0.125c-0.104,0.042-0.188-0.104-0.354-0.188s-0.5,0.125-0.729,0.188c-0.229,0.063-0.667,0.083-0.729,0.083
		c-0.062,0-0.916-0.229-1.188-0.333c-0.272-0.104-0.396,0.062-0.688,0.167s-1-0.042-1.166-0.083s-0.396,0.042-0.709,0.062
		c-0.312,0.02-0.607-0.173-0.607-0.173c-0.143,0.284-0.914,0.24-1.27,0.605c-0.353,0.362-0.104,1.006-0.142,1.166
		c-0.035,0.161-0.634,0.122-1.058,0.242c-0.422,0.121-0.388,0.723-0.457,1.009c-0.068,0.282-0.177,0.485-0.564,0.522
		c-0.388,0.04-0.14,0.08-0.281,0.604c-0.141,0.523-0.037,0.482,0.104,0.806c0,0,0.356-0.177,0.689-0.198s0.457,0.083,0.916,0.125
		c0.46,0.042,0.584,0.167,0.896,0c0.312-0.167,0.541-0.25,0.646-0.167c0.105,0.083,0.292,0.229,0.667,0.229s0.354-0.25,0.688-0.271
		s0.583-0.084,0.771,0.021c0.188,0.105,0.646,0.25,0.833,0.208c0.188-0.042,0.293-0.208,0.459-0.229s0.354,0,0.541,0.104
		c0.188,0.104,0.48,0.146,0.771,0s0.333-0.333,0.708-0.146c0.512,0.256,0.562,0.375,0.896,0.396s0.5,0.021,0.667-0.083
		s0.583-0.229,0.771-0.208c0.188,0.021,0.25,0.187,0.604,0.208c0.354,0.021,0.583-0.083,0.896-0.188c0.312-0.105,1.25-0.021,1.312,0
		c0.062,0.021,0.25,0.167,0.417,0.167s0.374-0.188,0.521-0.229c0.146-0.041,0.75,0,1.062,0.125c0.312,0.125,0.626,0.292,0.896,0.062
		c0.27-0.23,0.354-0.396,0.771-0.229c0.622,0.249,0.089,0.193,0.708,0.375c0.354,0.104,0.729,0.083,0.875-0.083
		c0.146-0.166,0.396-0.5,0.896-0.292s0.959,0.312,1.062,0.229c0.104-0.083,0.374-0.396,0.729-0.292
		c0.354,0.104,0.376,0.292,0.709,0.208S729.972,210.283,729.972,210.283z"/>
</g>
<g id="Layer_1">
</g>
</svg>
