<svg xmlns="http://www.w3.org/2000/svg" width="1366" height="700" viewBox="0 0 1366 700"><path d="M731.028 212.98c-.108.685-.46.685 0 1.007.458.323.704.163.914.28.21.122.46.282.46.563 0 .283.07.483.28.483.212 0 .072-.24.423.042.353.28.527.323.493.603s.15.625.15.625H704s-.177-.345 0-.506c.178-.163.634-.364.425-.404-.212-.042-.67-.402-.602-.644.07-.243.073-.125.32-.324.245-.2.455-.16.49-.644.035-.483-.388-.282.035-.483.422-.203.742.162.777-.16.03-.324.033-.445.21-.565 0 0 .8.124.884.25s.457.103.81-.022c.355-.125.584-.23.94-.125.353.104.81.292 1.27.167s.938-.25 1.396-.104.333.313 1.062.126c.73-.187.562-.167 1.188-.167s.792.29 1.21.207.853-.125.874-.25a.238.238 0 0 1 .375-.146c.187.126.666.397.812.355.146-.042 1.23-.167 1.458-.208.23-.04.896-.02 1.042.125.146.146.666.125.77.042.105-.083.688-.23.96-.208.27.02.5.208.666.25s1.04-.02 1.27-.167c.23-.147.92-.23 1.022-.105.103.125.582.292.854.25.27-.042.31-.02 1-.146.687-.126.707.103.874.145s.667.125.875 0 .353-.375.75-.25c.395.125.478.292.833.25.355-.042.582-.458.854-.292.27.166.375.438.604.312.23-.126.377-.396.48-.354a.91.91 0 0 1 .238.19z" fill="#231f20"/></svg>