<svg xmlns="http://www.w3.org/2000/svg" width="1366" height="700" viewBox="0 0 1366 700"><g fill="#231f20"><path d="M755.72 602.938c.124-.188.905-.405 1-.125.093.28.374 1.188 0 1.188s-1.032-.155-1.22-.28.22-.782.22-.782zM755.438 604.53c.03.345.375.94-.155 1.063-.53.124-.938-.03-1.28-.22s.31-.5.468-.81c.157-.313.968-.032.968-.032zM755.22 606.062c0 .438.905-.75 1.03-.47s.72.938.688 1.095c-.03.152-.53.438-1.03.344s-.69-.968-.69-.968zM754.785 611.417c-.126.187-.908.402-1 .12-.094-.28-.37-1.188.004-1.188s1.03.16 1.217.286c.187.127-.222.78-.222.78zM755.354 610.068c-.03-.345-.37-.94.16-1.062s.94.035 1.28.225c.344.19-.313.5-.472.812-.158.31-.968.026-.968.026zM755.52 608.14c.002-.44-.908.745-1.032.463-.124-.28-.716-.94-.684-1.097.03-.153.533-.436 1.032-.34.5.097.684.973.684.973zM755.344 611.72c.125-.19.906-.407 1-.126s.375 1.188 0 1.188-1.03-.156-1.22-.28.22-.783.22-.783zM754.656 613.03c.03.345.375.94-.156 1.063s-.938-.03-1.28-.22c-.344-.187.31-.5.468-.81.157-.313.968-.032.968-.032zM754.78 614.5c0 .438.907-.75 1.032-.47s.72.94.688 1.095c-.03.153-.53.438-1.03.344s-.69-.97-.69-.97zM755.88 617.667c-.127.187-.91.402-1.002.12-.093-.28-.37-1.188.005-1.188s1.03.16 1.22.286c.185.127-.224.78-.224.78zM753.01 616.38c-.03-.343-.37-.937.162-1.06.53-.124.938.033 1.28.223.343.19-.315.5-.474.81-.157.313-.967.028-.967.028zM754 617.28c.03.345.375.94-.156 1.063s-.938-.03-1.28-.22c-.344-.187.31-.5.47-.81.155-.313.966-.032.966-.032zM753.906 618.97c0 .437.906-.75 1.03-.47s.72.938.69 1.094c-.03.153-.532.438-1.032.344-.5-.094-.688-.97-.688-.97zM753.77 620.076c.002-.438-.908.746-1.032.464s-.716-.94-.684-1.097c.03-.153.533-.437 1.032-.34.5.097.684.973.684.973zM750.74 617.794c-.124.188-.905.406-1 .125-.094-.282-.374-1.19 0-1.19s1.03.156 1.22.28-.22.784-.22.784zM750.99 616.42c-.03-.345-.374-.94.156-1.063.53-.124.938.03 1.28.22.345.187-.31.5-.468.81-.156.313-.967.032-.967.032zM751.085 614.794c0-.438-.906.75-1.03.47-.126-.28-.72-.94-.69-1.095.03-.154.53-.44 1.03-.345s.69.97.69.97zM751.706 609.658c.126-.188.908-.402 1-.12.094.28.37 1.188-.004 1.188-.375-.002-1.03-.16-1.218-.286-.187-.128.222-.782.222-.782zM751.137 611.007c.03.344.37.94-.16 1.062s-.938-.036-1.28-.226c-.343-.188.314-.5.473-.81.157-.312.967-.027.967-.027zM751.19 612.655c-.003.438.908-.746 1.032-.464s.715.94.684 1.098c-.03.153-.533.436-1.032.34-.5-.097-.685-.973-.685-.973zM751.146 609.356c-.125.188-.905.405-1 .125-.094-.28-.375-1.187 0-1.187s1.03.156 1.22.28c.188.126-.22.783-.22.783zM751.835 608.044c-.03-.344-.375-.938.156-1.062.53-.124.94.03 1.28.22.345.187-.31.5-.468.81-.156.313-.967.032-.967.032zM751.71 606.575c0-.438-.906.75-1.03.47s-.72-.94-.69-1.095c.03-.153.53-.438 1.03-.344.5.094.69.97.69.97zM750.612 603.408c.126-.188.907-.402 1-.12.094.28.37 1.188-.005 1.188-.375-.002-1.03-.16-1.218-.286-.187-.128.222-.782.222-.782zM753.637 605.194c.03.344.37.938-.16 1.062s-.938-.035-1.28-.224c-.343-.19.314-.5.473-.812.157-.31.967-.026.967-.026zM752.49 603.794c-.03-.344-.374-.938.156-1.062.53-.124.938.03 1.28.22.345.187-.31.5-.468.81-.156.313-.967.032-.967.032zM752.585 602.106c0-.438-.906.75-1.03.47s-.72-.94-.69-1.095c.03-.152.53-.437 1.03-.344.5.095.69.97.69.97zM752.722 601c-.002.437.91-.747 1.033-.465s.715.94.683 1.097c-.03.153-.532.437-1.03.34-.503-.097-.686-.973-.686-.973zM749.094 597.5c.125-.188.906-.406 1-.125s.375 1.188 0 1.188-1.03-.155-1.22-.28.22-.783.22-.783zM748.812 599.094c.03.344.375.938-.156 1.062s-.938-.03-1.28-.22c-.344-.187.31-.5.468-.81.157-.314.968-.032.968-.032zM748.594 600.625c0 .438.906-.75 1.03-.47s.72.94.69 1.095c-.03.153-.53.438-1.03.344s-.69-.97-.69-.97zM748.16 605.98c-.126.187-.908.4-1 .12-.094-.28-.37-1.19.004-1.19.375.003 1.03.162 1.218.288.187.127-.222.78-.222.78zM748.73 604.63c-.03-.343-.37-.937.16-1.06s.938.033 1.28.223c.343.19-.314.5-.473.81-.158.313-.968.028-.968.028zM748.895 602.7c.002-.437-.908.747-1.032.465s-.716-.94-.684-1.097c.03-.153.532-.437 1.03-.34.5.097.685.973.685.973zM748.72 606.28c.124-.187.905-.405 1-.124s.374 1.188 0 1.188-1.032-.156-1.22-.28.22-.783.22-.783zM748.03 607.594c.032.344.376.938-.155 1.062s-.938-.03-1.28-.22c-.344-.187.31-.5.468-.81.157-.314.968-.032.968-.032zM748.156 609.062c0 .438.906-.75 1.03-.47.126.28.72.938.69 1.095-.03.152-.532.438-1.032.344s-.688-.968-.688-.968zM749.254 612.23c-.126.187-.908.4-1 .12-.094-.28-.37-1.19.004-1.19.375.003 1.03.162 1.22.288.185.127-.224.78-.224.78zM746.386 610.943c-.03-.345-.37-.94.16-1.062.532-.122.94.036 1.28.226.344.188-.314.498-.473.81-.157.312-.967.027-.967.027zM747.375 611.844c.03.344.375.938-.156 1.062s-.94-.03-1.282-.22c-.343-.187.312-.5.47-.81s.967-.032.967-.032zM747.28 613.53c0 .44.907-.75 1.032-.468.125.28.72.938.688 1.094-.03.152-.53.438-1.03.344s-.69-.97-.69-.97zM746.988 614.264c.002-.438-.91.746-1.033.464-.124-.28-.715-.94-.684-1.097.03-.152.534-.435 1.033-.338.502.096.685.972.685.972zM743.96 611.95c-.125.188-.906.406-1 .125s-.375-1.188 0-1.188 1.03.156 1.22.28c.187.126-.22.783-.22.783zM744.366 610.98c-.03-.344-.375-.937.155-1.06.532-.125.94.03 1.282.218.344.188-.312.5-.47.812-.155.312-.966.03-.966.03zM744.502 609.106c0-.438-.906.75-1.03.47s-.72-.94-.69-1.095c.03-.152.532-.437 1.032-.344.5.095.688.97.688.97zM745.08 604.22c.127-.186.91-.4 1.002-.12s.37 1.19-.005 1.19c-.375-.003-1.03-.162-1.218-.288-.188-.127.22-.78.22-.78zM744.512 605.57c.03.343.37.937-.16 1.06s-.938-.034-1.28-.223c-.343-.19.314-.5.473-.812.157-.31.967-.026.967-.026zM744.564 607.218c-.002.438.91-.746 1.033-.464s.715.94.684 1.097c-.03.154-.532.438-1.03.34-.5-.096-.686-.972-.686-.972zM744.52 603.92c-.124.187-.904.405-1 .124-.093-.28-.374-1.188 0-1.188s1.032.155 1.22.28c.19.126-.22.783-.22.783zM745.21 602.606c-.03-.345-.375-.938.156-1.062.53-.124.938.03 1.28.22.344.187-.312.5-.47.81-.155.313-.966.032-.966.032zM745.085 601.138c0-.438-.906.75-1.03.47-.126-.28-.72-.938-.69-1.095.03-.152.53-.438 1.03-.344s.69.968.69.968zM743.987 597.97c.126-.186.907-.4 1-.12.094.282.37 1.19-.005 1.19-.375-.003-1.03-.162-1.218-.288-.186-.127.223-.78.223-.78zM747.012 599.757c.03.344.37.94-.16 1.062s-.938-.036-1.28-.226c-.343-.188.314-.5.473-.81.157-.312.967-.027.967-.027zM745.866 598.356c-.03-.345-.375-.938.155-1.062.532-.124.94.03 1.282.22.344.187-.312.5-.47.81-.155.313-.966.032-.966.032zM745.96 596.67c0-.44-.906.75-1.03.468-.126-.28-.72-.938-.69-1.094.03-.153.53-.438 1.03-.344s.69.97.69.97zM746.097 595.562c-.002.438.91-.746 1.033-.465.124.282.715.94.683 1.098-.03.152-.532.436-1.03.34-.503-.097-.686-.973-.686-.973zM750.533 600.252c-.03-.344-.375-.938.156-1.062.53-.124.937.03 1.28.22.342.187-.313.5-.47.81-.156.313-.967.032-.967.032zM730.71 600.867c-.125.188-.906.406-1 .125s-.375-1.188 0-1.188 1.03.156 1.22.28c.187.126-.22.783-.22.783zM730.99 599.273c-.03-.345-.374-.938.157-1.062.53-.123.938.032 1.28.22.344.188-.312.5-.47.812-.155.312-.966.03-.966.03zM731.21 597.742c0-.438-.906.75-1.03.47s-.72-.94-.69-1.095c.03-.153.532-.438 1.032-.344.5.094.688.97.688.97zM731.644 592.388c.126-.187.908-.4 1-.12.095.28.37 1.188-.004 1.188-.375-.002-1.03-.16-1.218-.287-.188-.128.222-.782.222-.782zM731.074 593.736c.03.344.37.938-.16 1.062-.532.123-.94-.035-1.28-.224-.344-.19.314-.5.472-.812.158-.31.968-.026.968-.026zM730.91 595.666c-.003.438.908-.746 1.032-.464s.715.94.683 1.097c-.03.152-.533.436-1.032.338-.5-.096-.684-.972-.684-.972zM731.085 592.086c-.125.188-.906.406-1 .125s-.375-1.187 0-1.187 1.03.155 1.22.28c.187.126-.22.783-.22.783zM731.77 590.773c-.03-.345-.374-.938.157-1.062s.938.032 1.28.22c.344.188-.31.5-.468.812-.157.312-.97.03-.97.03zM731.646 589.305c0-.438-.905.75-1.03.47s-.72-.938-.688-1.095c.03-.152.53-.438 1.03-.344s.688.97.688.97zM730.55 586.138c.126-.187.908-.4 1-.12s.37 1.188-.004 1.188c-.375-.002-1.03-.16-1.218-.287-.187-.128.222-.782.222-.782zM733.418 587.424c.03.344.37.94-.16 1.062-.532.123-.94-.035-1.28-.225-.344-.187.314-.498.473-.81.158-.31.968-.026.968-.026zM732.43 586.523c-.03-.345-.376-.938.155-1.062s.938.032 1.28.22c.344.188-.31.5-.468.812-.157.312-.968.03-.968.03zM732.52 584.836c0-.438-.904.75-1.03.47-.124-.28-.72-.94-.687-1.095.03-.152.53-.437 1.03-.343s.688.97.688.97zM732.66 583.73c-.003.437.908-.746 1.032-.465.124.282.715.94.683 1.098-.03.152-.533.436-1.032.34-.5-.1-.684-.974-.684-.974zM735.688 586.01c.125-.187.906-.404 1-.124.095.28.375 1.188 0 1.188s-1.03-.156-1.22-.28c-.187-.126.22-.783.22-.783zM735.438 587.386c.03.345.375.938-.155 1.062-.53.124-.938-.03-1.28-.22-.344-.188.31-.5.468-.812s.968-.03.968-.03zM735.344 589.01c0 .44.906-.75 1.03-.468s.72.938.69 1.094c-.03.153-.53.438-1.03.345-.502-.094-.69-.97-.69-.97zM734.723 594.146c-.126.187-.907.4-1 .12-.094-.28-.37-1.19.004-1.19.375.003 1.03.162 1.22.288.185.128-.224.782-.224.782zM735.292 592.798c-.03-.344-.37-.938.16-1.062.532-.123.94.034 1.28.224s-.314.5-.473.81c-.158.313-.968.028-.968.028zM735.238 591.15c.002-.44-.91.744-1.033.463-.124-.282-.715-.94-.684-1.098.03-.152.534-.436 1.033-.34.502.098.685.974.685.974zM735.28 594.448c.126-.188.907-.406 1-.125.095.28.376 1.188 0 1.188s-1.03-.154-1.218-.28c-.188-.125.22-.782.22-.782zM734.594 595.76c.03.346.375.94-.156 1.063-.53.124-.938-.03-1.28-.22-.343-.188.312-.5.47-.812s.966-.03.966-.03zM734.72 597.23c0 .437.905-.75 1.03-.47s.72.938.688 1.094c-.03.153-.53.438-1.03.345-.5-.096-.69-.97-.69-.97zM735.816 600.396c-.126.187-.908.4-1 .12-.095-.28-.37-1.19.004-1.19.375.003 1.03.162 1.218.288.188.128-.222.782-.222.782zM732.792 598.61c-.03-.345-.37-.94.16-1.062.532-.123.94.035 1.28.224.344.19-.314.5-.473.812s-.968.026-.968.026zM733.938 600.01c.03.346.375.94-.155 1.063-.53.124-.938-.03-1.28-.22-.344-.188.31-.5.468-.812s.968-.03.968-.03zM733.844 601.698c0 .438.906-.75 1.03-.47.126.28.72.938.69 1.095-.03.152-.53.438-1.03.344s-.69-.97-.69-.97zM733.707 602.806c.002-.438-.91.746-1.033.464-.124-.28-.715-.94-.683-1.097.03-.153.534-.436 1.033-.34.5.097.684.973.684.973zM737.335 606.305c-.125.188-.906.406-1 .125-.094-.28-.375-1.188 0-1.188s1.03.156 1.22.28c.187.126-.22.783-.22.783zM737.616 604.71c-.03-.343-.375-.937.155-1.06.532-.125.94.03 1.282.218.344.188-.312.5-.47.812-.155.312-.966.03-.966.03zM737.835 603.18c0-.438-.906.75-1.03.47-.126-.28-.72-.938-.69-1.095.03-.152.532-.438 1.03-.344.5.095.69.97.69.97zM738.27 597.825c.125-.188.907-.402 1-.12.094.28.37 1.188-.005 1.188-.375-.002-1.03-.16-1.218-.286-.188-.128.223-.782.223-.782zM737.7 599.174c.028.344.37.94-.162 1.062-.53.123-.938-.035-1.28-.225-.343-.187.315-.498.473-.81.16-.31.97-.026.97-.026zM737.534 601.104c-.002.438.91-.745 1.033-.464.124.282.715.94.683 1.098-.03.152-.533.436-1.032.34-.5-.1-.684-.974-.684-.974zM737.71 597.523c-.125.188-.906.405-1 .125-.094-.28-.375-1.188 0-1.188s1.03.156 1.22.28c.187.126-.22.783-.22.783zM738.396 596.21c-.03-.343-.375-.937.156-1.06s.938.03 1.28.218c.344.188-.31.5-.468.812-.156.312-.968.03-.968.03zM738.27 594.742c0-.438-.904.75-1.03.47s-.72-.94-.687-1.095c.03-.153.53-.438 1.03-.344.5.094.688.97.688.97zM737.175 591.575c.126-.188.908-.402 1-.12.095.28.37 1.188-.004 1.188-.374-.002-1.03-.16-1.217-.286-.187-.128.222-.782.222-.782zM740.043 592.86c.03.345.37.94-.16 1.063s-.94-.035-1.28-.224c-.344-.19.314-.5.473-.813.157-.31.967-.026.967-.026zM739.054 591.96c-.03-.343-.375-.937.156-1.06s.938.03 1.28.218c.344.188-.31.5-.47.812-.155.312-.966.03-.966.03zM739.146 590.273c0-.438-.905.75-1.03.47s-.72-.94-.688-1.095c.03-.153.53-.438 1.03-.345.5.095.688.97.688.97zM739.44 589.54c-.003.44.908-.745 1.032-.463s.715.94.684 1.097c-.03.153-.533.437-1.032.34-.5-.097-.685-.973-.685-.973zM742.47 591.854c.124-.188.905-.405 1-.125.093.28.374 1.187 0 1.187s-1.032-.156-1.22-.28.22-.783.22-.783zM742.062 592.823c.03.344.375.938-.156 1.062s-.938-.03-1.28-.22.31-.5.468-.81c.157-.313.968-.032.968-.032zM741.97 594.448c0 .438.905-.75 1.03-.47s.72.938.688 1.095c-.03.152-.53.438-1.03.344s-.69-.97-.69-.97zM741.348 599.584c-.126.188-.908.402-1 .12-.094-.28-.37-1.188.004-1.188.375.002 1.03.16 1.22.287.185.127-.224.78-.224.78zM741.917 598.235c-.03-.345-.37-.94.16-1.062.532-.123.94.035 1.28.224.344.19-.314.5-.473.812s-.967.025-.967.025zM741.863 596.587c.002-.438-.91.746-1.033.464s-.715-.938-.684-1.096c.03-.153.533-.437 1.032-.34.502.097.685.973.685.973zM741.906 599.886c.125-.188.906-.405 1-.125.094.282.375 1.19 0 1.19s-1.03-.157-1.22-.282c-.187-.125.22-.782.22-.782zM741.22 601.198c.03.344.374.938-.157 1.062-.53.124-.938-.03-1.28-.22s.312-.5.47-.81c.155-.313.966-.032.966-.032zM741.344 602.667c0 .438.906-.75 1.03-.47.126.28.72.94.69 1.095-.03.153-.53.438-1.03.344-.502-.094-.69-.97-.69-.97zM742.44 605.834c-.126.188-.907.402-1 .12-.094-.28-.37-1.188.005-1.188.375.002 1.03.16 1.218.287.19.127-.222.78-.222.78zM739.417 604.048c-.03-.344-.37-.938.16-1.062.532-.123.94.034 1.28.224s-.314.5-.473.81c-.157.313-.967.028-.967.028zM740.562 605.448c.03.344.375.938-.156 1.062s-.938-.03-1.28-.22.31-.5.468-.81c.157-.313.968-.032.968-.032zM740.47 607.136c0 .438.905-.75 1.03-.47s.72.94.688 1.095c-.03.154-.53.44-1.03.346-.5-.095-.69-.97-.69-.97zM740.332 608.243c.002-.438-.91.746-1.033.464s-.716-.94-.684-1.097c.03-.153.532-.437 1.032-.34.5.097.684.973.684.973zM735.896 603.553c.03.344.375.938-.156 1.062s-.938-.03-1.28-.22c-.344-.187.31-.5.468-.81.157-.314.968-.032.968-.032zM740.784 609.354c-.002.438.91-.745 1.033-.464.124.282.715.94.683 1.098-.03.152-.533.436-1.032.34-.5-.1-.684-.974-.684-.974zM744.23 594.753c-.03-.344-.375-.938.156-1.062s.938.03 1.28.22c.344.188-.31.5-.468.812-.156.312-.968.03-.968.03zM738.307 588.396c-.126.187-.908.4-1 .12-.094-.28-.37-1.19.004-1.19.376.003 1.032.162 1.22.288.186.128-.223.782-.223.782zM732.438 581.927c.03.345.375.938-.155 1.062-.53.123-.938-.032-1.28-.22-.344-.19.31-.5.468-.813s.968-.03.968-.03zM729.322 589.863c.03.344.375.938-.156 1.062s-.938-.03-1.28-.22c-.344-.187.31-.5.468-.81.157-.313.968-.032.968-.032zM727.928 593.797c-.03-.344-.37-.938.16-1.062.532-.123.94.034 1.28.224.344.188-.314.498-.472.81-.158.312-.968.027-.968.027zM729.083 595.364c.03.344.375.938-.156 1.062-.53.124-.938-.03-1.28-.22-.344-.187.312-.5.47-.81.154-.313.966-.032.966-.032zM728.77 598.742c.003-.438-.908.746-1.032.464s-.716-.94-.684-1.097c.03-.154.533-.438 1.032-.34.5.096.684.972.684.972zM725.74 596.46c-.124.188-.905.406-1 .125s-.374-1.188 0-1.188 1.032.155 1.22.28c.188.126-.22.783-.22.783zM725.99 595.085c-.03-.344-.374-.938.157-1.062.53-.124.938.03 1.28.22.344.187-.312.5-.47.81-.155.313-.966.032-.966.032zM726.085 593.46c0-.438-.906.75-1.03.47-.126-.28-.72-.94-.69-1.095.03-.153.532-.438 1.032-.344s.688.97.688.97zM726.706 588.324c.126-.188.908-.402 1-.12.094.28.37 1.188-.004 1.188-.375-.002-1.03-.16-1.218-.286-.187-.127.222-.782.222-.782zM726.137 589.673c.03.344.37.94-.16 1.062-.53.123-.94-.035-1.28-.225-.344-.188.314-.5.473-.81.157-.312.967-.027.967-.027zM726.19 591.32c-.003.44.908-.745 1.032-.463.124.28.716.94.684 1.097-.03.153-.533.436-1.032.34-.5-.097-.684-.973-.684-.973zM726.146 588.02c-.125.19-.905.407-1 .126-.094-.28-.375-1.188 0-1.188s1.03.156 1.22.28c.188.127-.22.783-.22.783zM726.835 586.71c-.03-.344-.375-.938.156-1.062s.94.03 1.282.22c.343.187-.312.5-.47.81-.156.313-.967.032-.967.032zM726.71 585.24c0-.437-.906.75-1.03.47s-.72-.938-.69-1.094c.03-.153.532-.438 1.032-.344.5.094.688.97.688.97zM725.612 582.074c.126-.188.907-.402 1-.12.094.28.37 1.188-.004 1.188-.375-.002-1.03-.16-1.22-.286-.185-.127.224-.782.224-.782zM728.637 583.86c.03.344.37.938-.16 1.062-.53.123-.94-.035-1.28-.224-.344-.19.314-.5.473-.812.157-.31.967-.026.967-.026zM727.49 582.46c-.03-.344-.374-.938.157-1.062.53-.124.938.03 1.28.22.344.187-.312.5-.47.81-.155.313-.966.032-.966.032zM727.585 580.77c0-.437-.906.75-1.03.47-.126-.28-.72-.937-.69-1.094.03-.152.532-.438 1.032-.344s.688.97.688.97zM727.722 579.665c-.002.438.91-.746 1.033-.464s.715.94.683 1.098c-.03.153-.532.437-1.03.34-.503-.097-.686-.973-.686-.973zM724.094 576.166c.125-.188.906-.406 1-.125s.375 1.19 0 1.19-1.03-.156-1.22-.28.22-.784.22-.784zM723.812 577.76c.03.344.375.938-.156 1.062s-.938-.03-1.28-.22c-.344-.187.31-.5.468-.81.157-.313.968-.032.968-.032zM723.594 579.29c0 .44.906-.75 1.03-.468s.72.938.69 1.094c-.03.153-.53.438-1.03.344s-.69-.97-.69-.97zM723.16 584.646c-.126.187-.908.4-1 .12-.094-.28-.37-1.19.004-1.19.375.003 1.03.162 1.218.288.187.127-.222.782-.222.782zM723.73 583.297c-.03-.344-.37-.938.16-1.062s.938.034 1.28.224c.343.188-.314.498-.473.81-.158.312-.968.027-.968.027zM723.895 581.367c.003-.438-.908.746-1.032.464s-.716-.94-.684-1.096c.03-.153.532-.437 1.03-.34.5.097.685.973.685.973zM723.72 584.947c.124-.188.905-.406 1-.125s.374 1.188 0 1.188-1.032-.156-1.22-.28.22-.783.22-.783zM723.03 586.26c.032.344.376.938-.155 1.062s-.938-.03-1.28-.22c-.344-.187.31-.5.468-.81.157-.313.968-.032.968-.032zM723.156 587.73c0 .437.906-.75 1.03-.47s.72.938.69 1.094c-.03.153-.532.438-1.032.345-.5-.096-.688-.97-.688-.97zM724.254 590.896c-.126.187-.908.4-1 .12-.094-.28-.37-1.19.004-1.19.375.003 1.03.162 1.22.288.185.127-.224.782-.224.782zM721.386 589.61c-.03-.346-.37-.94.16-1.063.532-.123.94.035 1.28.225.344.188-.314.498-.473.81-.157.312-.967.027-.967.027zM722.375 590.51c.03.344.375.938-.156 1.062s-.94-.03-1.282-.22c-.343-.187.312-.5.47-.81s.967-.032.967-.032zM722.28 592.197c0 .438.907-.75 1.032-.47s.72.94.688 1.095c-.03.152-.53.438-1.03.344s-.69-.97-.69-.97zM721.988 592.93c.002-.438-.91.746-1.033.464-.124-.28-.715-.94-.684-1.097.03-.153.534-.436 1.033-.34.502.097.685.973.685.973zM718.96 590.616c-.125.188-.906.406-1 .125s-.375-1.187 0-1.187 1.03.156 1.22.28c.187.126-.22.783-.22.783zM719.366 589.646c-.03-.344-.375-.938.156-1.062.53-.124.938.03 1.28.22.344.187-.312.5-.47.81-.155.314-.966.032-.966.032zM719.502 587.77c0-.437-.906.75-1.03.47-.126-.28-.72-.937-.69-1.094.03-.152.532-.438 1.032-.344s.688.97.688.97zM720.08 582.887c.127-.187.91-.4 1.002-.12s.37 1.188-.005 1.188c-.375-.002-1.03-.16-1.218-.287-.188-.127.22-.78.22-.78zM719.512 584.235c.03.344.37.938-.16 1.062-.53.123-.94-.035-1.28-.224-.344-.19.314-.5.473-.812.157-.31.967-.025.967-.025zM719.565 585.884c-.003.438.908-.746 1.032-.464s.716.94.684 1.097c-.03.153-.532.437-1.03.34-.5-.097-.685-.973-.685-.973zM719.52 582.585c-.124.188-.904.406-1 .125-.093-.28-.374-1.188 0-1.188s1.032.155 1.22.28c.19.126-.22.783-.22.783zM720.21 581.27c-.03-.343-.375-.937.156-1.06s.938.03 1.28.218c.344.188-.31.5-.47.812-.155.313-.966.03-.966.03zM720.085 579.804c0-.438-.906.75-1.03.47-.126-.28-.72-.938-.69-1.095.03-.153.532-.44 1.032-.345s.688.97.688.97zM718.987 576.637c.126-.187.907-.4 1-.12.094.28.37 1.188-.004 1.188-.375-.002-1.03-.16-1.22-.287-.185-.127.224-.78.224-.78zM722.012 578.423c.03.344.37.94-.16 1.062-.53.123-.94-.035-1.28-.225-.344-.188.314-.5.473-.81.157-.312.967-.027.967-.027zM720.866 577.02c-.03-.343-.375-.937.156-1.06.53-.125.938.03 1.28.218.344.188-.312.5-.47.812-.155.313-.966.03-.966.03zM720.96 575.335c0-.438-.906.75-1.03.47-.126-.28-.72-.94-.69-1.095.03-.153.532-.438 1.032-.344s.688.97.688.97zM721.097 574.23c-.002.437.91-.747 1.033-.466.124.282.715.94.683 1.098-.03.152-.532.436-1.03.34-.503-.098-.686-.973-.686-.973zM725.533 578.918c-.03-.344-.375-.938.156-1.062.53-.124.937.03 1.28.22.343.187-.313.5-.47.81-.156.313-.967.032-.967.032zM705.71 579.533c-.125.188-.906.406-1 .125s-.375-1.188 0-1.188 1.03.156 1.22.28c.187.126-.22.783-.22.783zM705.99 577.94c-.03-.346-.374-.94.157-1.063.53-.124.938.03 1.28.22.344.187-.312.5-.47.81-.155.313-.966.032-.966.032zM706.21 576.408c0-.438-.906.75-1.03.47s-.72-.94-.69-1.095c.03-.153.532-.438 1.032-.344.5.093.688.968.688.968zM706.644 571.054c.126-.187.908-.4 1-.12.095.28.37 1.188-.004 1.188-.375-.002-1.03-.16-1.218-.287-.188-.127.222-.78.222-.78zM706.074 572.402c.03.344.37.938-.16 1.062-.532.123-.94-.035-1.28-.224-.344-.19.314-.5.472-.812.158-.31.968-.026.968-.026zM705.91 574.332c-.003.438.908-.746 1.032-.464s.715.94.683 1.097c-.03.153-.533.437-1.032.34-.5-.097-.684-.973-.684-.973zM706.085 570.752c-.125.188-.906.406-1 .125s-.375-1.188 0-1.188 1.03.154 1.22.28c.187.125-.22.782-.22.782zM706.77 569.44c-.03-.346-.374-.94.157-1.063s.938.03 1.28.22c.344.187-.31.5-.468.81-.157.313-.97.032-.97.032zM706.646 567.97c0-.437-.905.75-1.03.47s-.72-.937-.688-1.094c.03-.152.53-.438 1.03-.344s.688.97.688.97zM705.55 564.804c.126-.187.908-.4 1-.12s.37 1.188-.004 1.188c-.375-.002-1.03-.16-1.218-.287-.187-.127.222-.78.222-.78zM708.418 566.09c.03.344.37.94-.16 1.062-.532.123-.94-.035-1.28-.225-.344-.188.314-.5.473-.81.158-.312.968-.027.968-.027zM707.43 565.19c-.03-.346-.376-.94.155-1.063s.938.03 1.28.22c.344.187-.31.5-.468.81-.157.313-.968.032-.968.032zM707.52 563.502c0-.438-.904.75-1.03.47-.124-.28-.72-.94-.687-1.095.03-.153.53-.438 1.03-.344s.688.97.688.97zM707.66 562.395c-.003.438.908-.745 1.032-.464.124.283.715.94.683 1.1-.03.15-.533.435-1.032.338-.5-.097-.684-.973-.684-.973zM710.688 564.677c.125-.188.906-.405 1-.125.095.28.375 1.188 0 1.188s-1.03-.156-1.22-.28c-.187-.126.22-.783.22-.783zM710.438 566.052c.03.345.375.938-.155 1.062-.53.124-.938-.03-1.28-.22-.344-.188.31-.5.468-.812s.968-.03.968-.03zM710.344 567.677c0 .438.906-.75 1.03-.47s.72.94.69 1.095c-.03.153-.53.438-1.03.345-.502-.095-.69-.97-.69-.97zM709.723 572.812c-.126.187-.907.4-1 .12-.094-.28-.37-1.19.004-1.19.375.003 1.03.162 1.22.288.185.128-.224.782-.224.782zM710.292 571.464c-.03-.344-.37-.938.16-1.062.532-.123.94.034 1.28.224s-.314.5-.473.81c-.158.313-.968.028-.968.028zM710.238 569.815c.002-.438-.91.745-1.033.464-.124-.283-.715-.94-.684-1.1.03-.15.534-.435 1.033-.338.502.097.685.973.685.973zM710.28 573.114c.126-.188.907-.406 1-.125.095.28.376 1.187 0 1.187s-1.03-.155-1.218-.28c-.188-.126.22-.783.22-.783zM709.594 574.427c.03.345.375.938-.156 1.062-.53.123-.938-.032-1.28-.22-.343-.19.312-.5.47-.813s.966-.03.966-.03zM709.72 575.896c0 .438.905-.75 1.03-.47s.72.938.688 1.095c-.03.153-.53.44-1.03.345s-.69-.97-.69-.97zM710.816 579.062c-.126.187-.908.4-1 .12-.095-.28-.37-1.19.004-1.19.375.003 1.03.162 1.218.288.188.128-.222.782-.222.782zM707.792 577.276c-.03-.345-.37-.94.16-1.062.532-.123.94.035 1.28.224.344.19-.314.5-.473.812s-.968.026-.968.026zM708.938 578.677c.03.345.375.938-.155 1.062-.53.123-.938-.032-1.28-.22-.344-.19.31-.5.468-.813s.968-.03.968-.03zM708.844 580.364c0 .438.906-.75 1.03-.47.126.28.72.938.69 1.095-.03.15-.53.437-1.03.343s-.69-.97-.69-.97zM708.707 581.472c.002-.438-.91.746-1.033.464-.124-.28-.715-.94-.683-1.097.03-.154.534-.437 1.033-.34.5.096.684.972.684.972zM712.335 584.97c-.125.19-.906.407-1 .126-.094-.28-.375-1.188 0-1.188s1.03.156 1.22.28c.187.126-.22.783-.22.783zM712.616 583.377c-.03-.344-.375-.938.156-1.062.53-.124.938.03 1.28.22.344.187-.312.5-.47.81-.155.313-.966.032-.966.032zM712.835 581.846c0-.438-.906.75-1.03.47-.126-.28-.72-.938-.69-1.095.03-.15.532-.437 1.032-.343s.688.97.688.97zM713.27 576.49c.125-.187.907-.4 1-.12.094.282.37 1.19-.005 1.19-.375-.003-1.03-.16-1.218-.287s.222-.782.222-.782zM712.7 577.84c.028.344.37.94-.162 1.062-.53.123-.938-.035-1.28-.225-.343-.188.315-.5.473-.81.16-.312.97-.027.97-.027zM712.534 579.77c-.002.438.91-.745 1.033-.464.124.282.715.94.683 1.098-.03.152-.533.436-1.032.34-.5-.098-.684-.974-.684-.974zM712.71 576.19c-.125.187-.906.404-1 .124-.094-.28-.375-1.188 0-1.188s1.03.156 1.22.28c.187.126-.22.783-.22.783zM713.396 574.877c-.03-.344-.375-.938.156-1.062s.938.03 1.28.22c.344.187-.31.5-.468.81-.156.313-.968.032-.968.032zM713.27 573.408c0-.438-.904.75-1.03.47s-.72-.94-.687-1.095c.03-.153.53-.438 1.03-.344.5.093.688.968.688.968zM712.175 570.24c.126-.187.908-.4 1-.12.094.282.37 1.19-.004 1.19-.374-.003-1.03-.16-1.217-.287-.187-.127.222-.782.222-.782zM715.043 571.527c.03.344.37.938-.16 1.062-.532.122-.94-.036-1.28-.225-.344-.19.314-.5.473-.812.157-.31.967-.026.967-.026zM714.054 570.627c-.03-.344-.375-.938.156-1.062s.938.03 1.28.22c.344.187-.31.5-.468.81-.157.313-.968.032-.968.032zM714.146 568.94c0-.44-.905.75-1.03.468s-.72-.938-.688-1.094c.03-.153.53-.438 1.03-.345.5.094.688.97.688.97zM714.44 568.207c-.003.438.908-.746 1.032-.464s.716.94.684 1.097c-.03.153-.533.437-1.032.34-.5-.097-.684-.973-.684-.973zM717.47 570.52c.124-.187.905-.405 1-.124.093.28.374 1.188 0 1.188s-1.032-.156-1.22-.28.22-.783.22-.783zM717.062 571.49c.03.343.375.937-.156 1.06s-.938-.03-1.28-.218.31-.5.468-.812c.157-.312.968-.03.968-.03zM716.97 573.114c0 .438.905-.75 1.03-.47s.72.938.688 1.095c-.03.15-.53.437-1.03.343s-.69-.97-.69-.97zM716.348 578.25c-.126.188-.907.402-1 .12-.094-.28-.37-1.188.004-1.188.375.002 1.03.16 1.22.287.185.126-.224.78-.224.78zM716.917 576.9c-.03-.344-.37-.938.16-1.06.532-.124.94.034 1.28.223.344.19-.314.5-.473.812s-.967.026-.967.026zM716.863 575.253c.002-.438-.91.746-1.033.464s-.715-.94-.684-1.097c.03-.153.533-.437 1.032-.34.502.097.685.973.685.973zM716.906 578.552c.125-.188.906-.405 1-.125.094.28.375 1.188 0 1.188s-1.03-.156-1.22-.28c-.187-.126.22-.783.22-.783zM716.22 579.864c.03.344.374.938-.157 1.062-.53.124-.938-.03-1.28-.22s.312-.5.47-.81c.155-.313.966-.032.966-.032zM716.344 581.333c0 .438.906-.75 1.03-.47.126.28.72.94.69 1.095-.03.153-.53.438-1.03.344-.502-.094-.69-.97-.69-.97zM717.44 584.5c-.125.188-.907.402-1 .12-.094-.28-.37-1.188.005-1.188.375.002 1.03.16 1.218.287.188.126-.222.78-.222.78zM714.417 582.714c-.03-.344-.37-.938.16-1.062.532-.123.94.034 1.28.224s-.314.5-.473.81c-.157.313-.967.028-.967.028zM715.562 584.114c.03.344.375.938-.156 1.062s-.938-.03-1.28-.22.31-.5.468-.81c.157-.313.968-.032.968-.032zM715.47 585.802c0 .438.905-.75 1.03-.47s.72.94.688 1.095c-.03.153-.53.438-1.03.345-.5-.095-.69-.97-.69-.97zM715.332 586.91c.002-.44-.91.745-1.033.463s-.716-.94-.684-1.097c.03-.153.533-.437 1.032-.34.5.097.684.973.684.973zM710.896 582.22c.03.343.375.937-.156 1.06s-.938-.03-1.28-.218c-.344-.188.31-.5.468-.812.157-.312.968-.03.968-.03zM715.784 588.02c-.002.438.91-.745 1.033-.464.124.282.715.94.683 1.098-.03.152-.533.436-1.032.34-.5-.098-.684-.974-.684-.974zM719.23 573.42c-.03-.345-.374-.94.156-1.063.53-.124.938.03 1.28.22.344.187-.31.5-.468.81-.156.313-.967.032-.967.032zM713.307 567.062c-.126.187-.907.4-1 .12-.094-.28-.37-1.19.004-1.19.376.003 1.032.162 1.22.288.186.128-.223.782-.223.782zM707.438 560.593c.03.345.375.938-.155 1.062-.53.124-.938-.03-1.28-.22-.344-.188.31-.5.468-.812s.968-.03.968-.03zM730.822 580.446c.03.344.375.938-.156 1.062s-.938-.03-1.28-.22c-.344-.187.31-.5.468-.81.157-.313.968-.032.968-.032zM728.928 583.63c-.03-.344-.37-.938.16-1.062.532-.123.94.034 1.28.224.344.19-.314.5-.472.81-.158.313-.968.028-.968.028zM730.25 584.53c.03.344.375.938-.156 1.062s-.938-.03-1.28-.22c-.344-.187.31-.5.47-.81.155-.313.966-.032.966-.032zM729.938 587.825c.002-.438-.91.746-1.033.464s-.715-.94-.684-1.098c.03-.153.534-.437 1.033-.34.5.097.685.973.685.973zM723.803 593.756c.03.344.37.94-.16 1.062-.53.123-.94-.035-1.28-.225-.344-.188.314-.5.473-.81.157-.312.967-.027.967-.027zM690.463 560.868c-.126.187-.908.4-1 .12s-.37-1.188.004-1.188c.375.002 1.03.16 1.22.287.185.127-.224.78-.224.78zM688.584 560.482c.03.344.375.938-.156 1.062s-.938-.03-1.28-.22c-.344-.187.31-.5.47-.81.155-.313.966-.032.966-.032zM688.49 562.17c0 .438.906-.75 1.03-.47s.72.94.69 1.095c-.03.153-.532.438-1.032.344-.5-.095-.688-.97-.688-.97zM688.354 563.277c.003-.438-.908.746-1.032.464s-.716-.94-.684-1.097c.03-.152.533-.436 1.032-.34.5.098.684.974.684.974zM703.74 557.972c.125-.188.906-.405 1-.125.094.28.375 1.188 0 1.188s-1.03-.156-1.22-.28c-.187-.126.22-.783.22-.783zM703.46 559.565c.03.344.374.938-.157 1.062s-.938-.03-1.28-.22c-.344-.187.31-.5.47-.81.155-.313.966-.032.966-.032zM703.24 561.097c0 .438.906-.75 1.03-.47s.72.94.69 1.095c-.03.153-.532.438-1.032.345-.5-.095-.688-.97-.688-.97zM702.807 566.45c-.126.188-.907.402-1 .12-.094-.28-.37-1.187.004-1.187.376.002 1.032.16 1.22.287.186.127-.223.78-.223.78zM703.376 565.104c-.03-.345-.37-.94.16-1.062.532-.123.94.035 1.28.224.344.19-.314.5-.473.812-.157.31-.967.026-.967.026zM703.54 563.173c.003-.438-.908.746-1.032.464-.124-.28-.715-.94-.683-1.097.03-.153.533-.437 1.032-.34.5.097.684.973.684.973zM703.365 566.753c.125-.188.906-.406 1-.125s.375 1.188 0 1.188-1.03-.156-1.22-.28c-.187-.126.22-.783.22-.783zM702.678 568.065c.03.344.375.938-.156 1.062-.53.124-.938-.03-1.28-.22-.343-.187.312-.5.47-.81.155-.313.966-.032.966-.032zM702.803 569.534c0 .438.906-.75 1.03-.47.126.28.72.94.69 1.095-.03.152-.53.437-1.03.343s-.69-.97-.69-.97zM703.9 572.7c-.126.188-.908.402-1 .12-.095-.28-.37-1.187.004-1.187.375.002 1.03.16 1.218.287.188.127-.222.78-.222.78zM701.032 571.415c-.03-.344-.37-.94.16-1.062.53-.122.94.035 1.28.225.344.188-.314.5-.473.81-.158.312-.968.027-.968.027zM702.02 572.315c.03.344.376.938-.155 1.062s-.938-.03-1.28-.22c-.344-.187.31-.5.468-.81.157-.313.968-.032.968-.032zM701.928 574.003c0 .438.906-.75 1.03-.47s.72.94.69 1.095c-.03.153-.53.438-1.03.344-.502-.094-.69-.97-.69-.97zM701.79 575.11c.003-.438-.908.745-1.032.464-.124-.282-.715-.94-.683-1.098.03-.152.533-.436 1.032-.34.5.098.684.974.684.974zM698.763 572.828c-.125.188-.905.406-1 .125-.094-.28-.375-1.188 0-1.188s1.03.156 1.22.28c.187.126-.22.783-.22.783zM699.013 571.453c-.03-.344-.375-.938.156-1.062s.937.032 1.28.22c.343.19-.312.5-.47.813-.156.31-.967.03-.967.03zM699.106 569.828c0-.438-.906.75-1.03.47s-.72-.94-.69-1.095c.03-.153.532-.438 1.032-.344.5.093.688.968.688.968zM699.73 564.692c.124-.188.906-.402 1-.12.093.28.37 1.188-.006 1.188-.375-.002-1.03-.16-1.218-.287s.223-.78.223-.78zM699.158 566.04c.03.345.37.94-.16 1.063-.532.122-.94-.035-1.28-.225-.344-.188.314-.5.473-.81.158-.312.968-.027.968-.027zM699.212 567.69c-.002.437.91-.747 1.033-.466.124.282.715.94.683 1.098-.03.152-.533.436-1.03.34-.502-.097-.686-.973-.686-.973zM699.17 564.39c-.126.19-.907.407-1 .126-.095-.28-.376-1.188 0-1.188s1.03.156 1.218.28c.188.126-.22.783-.22.783zM699.856 563.078c-.03-.344-.375-.938.155-1.062.532-.124.94.03 1.282.22.343.188-.312.5-.47.812-.155.31-.966.03-.966.03zM699.73 561.61c0-.44-.905.75-1.03.468s-.72-.938-.688-1.094c.03-.153.53-.438 1.03-.345.5.094.69.97.69.97zM698.634 558.442c.126-.188.908-.402 1-.12.094.28.37 1.188-.004 1.188-.375-.002-1.03-.16-1.218-.287-.187-.126.222-.78.222-.78zM701.658 560.23c.03.344.37.938-.16 1.06-.532.124-.94-.034-1.28-.223-.344-.19.314-.5.473-.812.158-.31.968-.026.968-.026zM700.513 558.828c-.03-.344-.375-.938.156-1.062s.937.03 1.28.22c.343.188-.312.5-.47.812-.156.31-.967.03-.967.03zM700.606 557.14c0-.437-.906.75-1.03.47-.126-.28-.72-.937-.69-1.094.03-.152.532-.438 1.032-.344s.688.97.688.97zM700.743 556.033c-.002.438.91-.746 1.033-.464.124.28.715.938.683 1.096-.03.153-.534.436-1.033.34-.5-.097-.684-.973-.684-.973zM697.115 552.534c.125-.188.906-.406 1-.125s.375 1.187 0 1.187-1.03-.155-1.22-.28c-.187-.126.22-.783.22-.783zM696.834 554.128c.03.344.375.938-.156 1.062s-.938-.03-1.28-.22c-.344-.188.31-.5.47-.812.155-.31.966-.03.966-.03zM696.615 555.66c0 .437.906-.75 1.03-.47.126.28.72.938.69 1.094-.03.153-.532.438-1.032.344s-.688-.97-.688-.97zM696.182 561.014c-.126.188-.907.402-1 .12-.094-.28-.37-1.188.004-1.188.375.002 1.03.16 1.22.287.185.126-.224.78-.224.78zM696.75 559.665c-.03-.344-.37-.94.162-1.062.53-.122.938.035 1.28.225.343.188-.315.5-.474.81-.157.312-.967.027-.967.027zM696.916 557.735c.002-.438-.91.745-1.033.464-.124-.283-.715-.94-.683-1.1.03-.15.533-.435 1.032-.338.5.097.684.973.684.973zM696.74 561.315c.125-.188.906-.406 1-.125.094.28.375 1.188 0 1.188s-1.03-.156-1.22-.28c-.187-.126.22-.783.22-.783zM696.053 562.628c.03.344.375.938-.156 1.062-.53.124-.938-.03-1.28-.22-.343-.188.312-.5.47-.812.155-.31.966-.03.966-.03zM696.178 564.097c0 .438.906-.75 1.03-.47s.72.94.69 1.095c-.03.153-.53.438-1.03.345-.502-.095-.69-.97-.69-.97zM697.275 567.264c-.126.188-.908.402-1 .12-.095-.28-.37-1.188.004-1.188.374.002 1.03.16 1.217.287.188.126-.222.78-.222.78zM694.407 565.98c-.03-.346-.37-.94.16-1.063s.94.035 1.28.224c.344.19-.314.5-.473.813-.157.31-.967.026-.967.026zM695.396 566.878c.03.344.375.938-.156 1.062s-.938-.03-1.28-.22c-.344-.188.31-.5.468-.812.157-.31.968-.03.968-.03zM695.303 568.565c0 .438.906-.75 1.03-.47.126.28.72.938.69 1.095-.03.152-.53.438-1.03.344s-.69-.97-.69-.97zM695.01 569.298c.002-.438-.91.746-1.033.464-.124-.28-.715-.94-.683-1.097.03-.153.533-.437 1.032-.34.5.097.684.973.684.973zM691.98 566.984c-.124.188-.905.405-1 .125-.094-.282-.374-1.19 0-1.19s1.03.157 1.22.282c.188.125-.22.782-.22.782zM692.388 566.016c-.03-.344-.375-.938.156-1.062s.938.03 1.28.22c.344.187-.31.5-.468.81-.157.313-.968.032-.968.032zM692.48 564.39c0-.437-.905.75-1.03.47s-.72-.937-.688-1.094c.03-.152.53-.438 1.03-.344s.69.97.69.97zM693.104 559.255c.125-.187.907-.4 1-.12.094.28.37 1.188-.005 1.188-.376-.002-1.03-.16-1.22-.287-.187-.127.224-.78.224-.78zM692.533 560.604c.03.345.37.94-.16 1.062-.532.123-.94-.035-1.28-.224-.344-.19.314-.5.473-.812.157-.31.967-.026.967-.026zM692.587 562.252c-.002.438.91-.746 1.033-.464s.715.94.683 1.097c-.03.153-.533.437-1.03.34-.502-.097-.686-.973-.686-.973zM692.544 558.953c-.125.188-.906.406-1 .125s-.375-1.188 0-1.188 1.03.156 1.22.28c.187.126-.22.783-.22.783zM693.23 557.64c-.03-.343-.374-.937.156-1.06.53-.125.938.03 1.28.218.344.188-.31.5-.468.812-.156.312-.967.03-.967.03zM695.033 554.79c.03.345.37.94-.16 1.063-.532.122-.94-.035-1.28-.225-.344-.188.314-.5.473-.81.157-.312.967-.027.967-.027zM698.555 555.286c-.03-.344-.375-.938.156-1.062s.94.03 1.282.22c.343.188-.312.5-.47.812-.156.31-.967.03-.967.03zM690.22 564.086c.03.344.374.938-.157 1.062-.53.124-.938-.03-1.28-.22-.343-.188.312-.5.47-.812.155-.31.966-.03.966-.03zM696.144 570.442c.126-.188.908-.402 1-.12.095.28.37 1.188-.004 1.188-.375-.002-1.03-.16-1.218-.287s.222-.78.222-.78zM702.013 576.912c-.03-.344-.375-.938.156-1.062s.937.03 1.28.22c.343.188-.312.5-.47.812-.156.31-.967.03-.967.03z"/></g></svg>