<svg xmlns="http://www.w3.org/2000/svg" width="1366" height="700" viewBox="0 0 1366 700"><g fill="#231f20"><path d="M791.757 140.818c.162.156.238.963-.056 1.005-.29.042-1.233.158-1.166-.21.065-.37.337-.988.493-1.15s.73.355.73.355zM790.24 140.257c-.346-.03-.99.202-1.02-.344-.027-.544.197-.917.443-1.222.247-.304.438.398.717.607.28.21-.14.96-.14.96zM788.77 139.77c-.43-.08.576 1.024.277 1.097-.3.072-1.05.54-1.198.48-.147-.057-.337-.6-.155-1.075s1.076-.503 1.076-.503zM925.745 32.053c-.16-.158-.232-.965.062-1.007.293-.04 1.234-.15 1.166.218-.068.37-.342.986-.5 1.146-.157.16-.728-.357-.728-.357zM926.973 32.853c.344.033.99-.198 1.015.35.026.544-.2.915-.447 1.218-.246.305-.436-.397-.713-.61-.28-.21.146-.957.146-.957zM786.675 139.694c.43.08-.57-1.028-.27-1.1.3-.072 1.053-.535 1.2-.476.147.058.333.602.15 1.077-.185.474-1.08.5-1.08.5zM925.35 32.548c.163.157.238.964-.056 1.007-.293.042-1.235.157-1.168-.212.067-.37.338-.987.494-1.15.156-.16.73.355.73.355zM924.18 31.638c-.343-.03-.987.202-1.017-.344-.027-.544.2-.917.444-1.222.244-.304.437.396.716.607.28.21-.142.958-.142.958zM922.713 31.5c-.43-.08.577 1.025.278 1.098-.298.073-1.05.54-1.198.482-.146-.058-.335-.602-.154-1.076.18-.476 1.075-.504 1.075-.504zM853.4 91.347c-.16-.158-.232-.965.062-1.007.293-.04 1.233-.15 1.166.218-.07.37-.342.986-.5 1.146-.156.16-.728-.357-.728-.357zM855.18 88.754c.344.032.99-.197 1.016.35.026.543-.202.915-.447 1.218-.25.304-.437-.398-.715-.61-.28-.21.144-.958.144-.958zM854.116 89.568c-.345-.03-.99.202-1.02-.344-.026-.545.2-.917.444-1.22.246-.306.438.395.717.604.28.21-.14.96-.14.96zM852.473 89.174c-.43-.078.576 1.025.277 1.098-.3.073-1.05.54-1.2.48-.145-.057-.334-.6-.15-1.075.178-.474 1.073-.503 1.073-.503zM851.407 88.842c.43.08-.57-1.028-.27-1.1.3-.072 1.05-.535 1.2-.477.146.058.333.602.148 1.077-.182.476-1.078.5-1.078.5zM854.193 86.27c-.162-.157-.237-.965.056-1.007s1.234-.157 1.166.212c-.066.37-.337.987-.493 1.15-.155.16-.73-.356-.73-.356zM855.5 86.76c.346.03.99-.202 1.02.343s-.197.917-.443 1.222c-.246.305-.436-.397-.715-.606-.28-.21.14-.96.14-.96zM857.084 87.143c.43.078-.576-1.026-.277-1.1.3-.072 1.052-.54 1.2-.48.145.06.335.6.153 1.076s-1.076.503-1.076.503zM928.027 29.336c.16.158.232.966-.062 1.008-.294.04-1.235.15-1.17-.218.07-.368.345-.986.5-1.146.16-.162.732.356.732.356zM927.633 28.62c-.343-.032-.988.197-1.015-.35-.026-.543.202-.915.448-1.217.248-.305.436.398.714.61.28.208-.147.957-.147.957zM925.92 28.877c-.43-.08.57 1.03.272 1.1-.3.072-1.054.535-1.2.476-.146-.058-.334-.602-.15-1.077.183-.474 1.08-.5 1.08-.5zM928.424 28.84c-.163-.157-.238-.964.057-1.007.292-.042 1.235-.157 1.167.213-.065.368-.338.986-.492 1.15-.158.16-.73-.356-.73-.356zM929.592 29.75c.344.03.99-.2 1.018.343.028.545-.197.917-.442 1.222s-.437-.396-.716-.606c-.28-.21.14-.96.14-.96zM931.06 29.89c.432.077-.575-1.026-.277-1.1.3-.07 1.05-.54 1.2-.48.145.058.335.6.152 1.076-.182.476-1.074.504-1.074.504zM792.206 135.708c.16.16.233.966-.062 1.008-.293.04-1.234.15-1.168-.218.07-.37.344-.986.5-1.146.16-.162.73.356.73.356zM789.91 138.367c-.346-.033-.993.197-1.018-.35-.026-.544.2-.916.447-1.218.246-.306.435.397.712.608.28.21-.143.96-.143.96zM791.49 137.488c.345.03.988-.2 1.018.343.028.546-.197.918-.443 1.223-.245.305-.436-.396-.716-.606-.28-.21.14-.96.14-.96zM793.134 137.882c.43.078-.575-1.026-.276-1.1.3-.072 1.05-.54 1.198-.48.146.06.336.6.154 1.076s-1.076.504-1.076.504zM794.2 138.213c-.43-.08.57 1.03.27 1.1-.3.073-1.052.536-1.2.477-.146-.058-.332-.603-.148-1.077.183-.474 1.078-.5 1.078-.5zM798.29 135.27c.16.156.237.963-.056 1.006-.293.042-1.236.156-1.17-.212.067-.37.34-.987.494-1.148.16-.164.73.353.73.353zM796.77 134.708c-.343-.03-.988.202-1.018-.343-.028-.546.2-.917.443-1.222.245-.305.437.396.716.605.283.21-.14.96-.14.96zM795.304 134.22c-.43-.08.577 1.025.278 1.098-.3.072-1.05.54-1.2.48-.146-.057-.335-.6-.153-1.075s1.074-.504 1.074-.504zM932.278 26.504c-.16-.158-.233-.966.06-1.007.295-.04 1.236-.15 1.17.217-.068.37-.344.986-.5 1.146-.158.163-.73-.356-.73-.356zM933.505 27.304c.343.033.99-.198 1.015.35.026.544-.2.916-.447 1.218-.247.305-.436-.398-.713-.61-.28-.21.145-.958.145-.958zM793.208 134.146c.43.08-.572-1.03-.272-1.1.3-.072 1.053-.535 1.2-.477.147.057.335.602.15 1.077-.182.474-1.078.5-1.078.5zM931.882 27c.16.157.238.965-.056 1.006-.293.042-1.235.157-1.17-.212.068-.37.34-.986.496-1.15.157-.16.73.356.73.356zM930.713 26.09c-.344-.03-.988.2-1.017-.344-.03-.546.196-.917.442-1.222s.437.397.717.606c.28.21-.142.96-.142.96zM929.245 25.95c-.43-.078.577 1.026.278 1.1-.3.07-1.052.54-1.2.48-.146-.058-.335-.6-.153-1.075.182-.476 1.075-.505 1.075-.505zM859.934 85.8c-.16-.16-.232-.967.06-1.01.296-.04 1.237-.15 1.17.22-.068.368-.343.985-.5 1.145-.16.162-.73-.356-.73-.356zM861.71 83.206c.346.032.992-.198 1.017.35.026.543-.2.915-.448 1.218-.248.304-.436-.398-.713-.61-.28-.21.144-.958.144-.958zM860.648 84.02c-.345-.032-.99.2-1.018-.344-.03-.545.198-.917.443-1.222.245-.304.436.397.715.607.282.21-.14.96-.14.96zM859.006 83.626c-.43-.078.575 1.025.275 1.098-.297.072-1.05.54-1.196.48-.146-.057-.338-.6-.155-1.075.18-.476 1.076-.504 1.076-.504zM858.336 83.207c.432.08-.57-1.028-.27-1.1.3-.072 1.052-.535 1.198-.477.146.058.333.603.15 1.077-.185.474-1.078.5-1.078.5zM861.153 80.64c-.163-.157-.237-.965.056-1.007s1.233-.157 1.166.212c-.065.37-.337.987-.493 1.15-.156.16-.73-.356-.73-.356zM862.034 81.21c.344.032.99-.2 1.017.345.03.544-.196.917-.44 1.222-.246.305-.44-.396-.717-.606-.28-.21.14-.96.14-.96zM863.854 81.68c.432.08-.575-1.025-.274-1.098.298-.073 1.05-.54 1.197-.48.146.055.337.6.154 1.075-.18.476-1.076.504-1.076.504zM934.56 23.788c.16.158.232.965-.062 1.007-.294.04-1.235.15-1.167-.218.07-.37.344-.986.5-1.146.156-.16.73.358.73.358zM867.333 82.32c-.343-.032-.99.198-1.015-.348-.027-.545.2-.917.446-1.22.247-.303.436.4.714.61.28.21-.145.96-.145.96zM865.7 82.08c-.43-.08.573 1.028.272 1.1-.3.072-1.052.535-1.2.476-.147-.058-.333-.604-.147-1.078.182-.475 1.076-.5 1.076-.5zM934.956 23.292c-.163-.156-.238-.964.055-1.006.295-.042 1.236-.157 1.17.21-.066.37-.338.988-.494 1.15-.16.163-.73-.354-.73-.354zM936.124 24.202c.345.03.99-.202 1.02.344.025.544-.2.917-.445 1.22-.246.306-.438-.395-.717-.605-.282-.21.14-.958.14-.958zM937.592 24.34c.432.08-.577-1.024-.277-1.097.3-.073 1.052-.54 1.198-.482.146.06.337.603.155 1.078-.182.474-1.076.503-1.076.503zM798.737 130.16c.16.158.233.965-.062 1.007-.294.04-1.234.15-1.167-.218.07-.37.343-.987.5-1.147.158-.16.73.357.73.357zM796.44 132.818c-.345-.032-.99.198-1.017-.348-.025-.545.2-.917.45-1.22.246-.304.433.4.71.61.282.21-.144.958-.144.958zM798.023 131.94c.343.03.988-.203 1.016.343.028.545-.198.917-.443 1.22-.245.306-.437-.395-.715-.605-.28-.21.14-.96.14-.96zM799.666 132.333c.43.078-.576-1.026-.276-1.098.3-.073 1.053-.54 1.198-.48.146.057.336.6.154 1.075-.18.475-1.076.503-1.076.503zM800.73 132.665c-.43-.08.572 1.03.27 1.1-.3.072-1.05.535-1.2.477-.144-.058-.333-.603-.146-1.077.183-.476 1.076-.5 1.076-.5zM795.325 136.195c.344.03.99-.202 1.018.343.027.545-.198.917-.443 1.22-.245.306-.438-.395-.716-.605-.28-.21.14-.958.14-.958zM874.422 69.996c-.162-.156-.236-.964.057-1.006s1.233-.157 1.167.212c-.065.37-.338.987-.494 1.15s-.73-.356-.73-.356zM875.94 70.557c.344.03.99-.202 1.018.344.028.545-.197.918-.443 1.223-.247.304-.437-.397-.717-.607-.278-.21.14-.96.14-.96zM877.407 71.045c.43.08-.576-1.025-.275-1.098.298-.072 1.05-.54 1.197-.48.145.056.336.6.152 1.075-.18.475-1.075.503-1.075.503zM948.6 12.677c.16.157.233.965-.06 1.006s-1.236.152-1.168-.217c.067-.37.34-.986.5-1.147.156-.162.728.357.728.357zM881.374 71.626c-.345-.032-.99.197-1.016-.348-.026-.544.202-.917.447-1.22.247-.303.436.4.714.61.278.21-.146.958-.146.958zM879.506 71.12c-.433-.08.57 1.028.27 1.1-.298.072-1.053.536-1.2.476-.146-.057-.333-.603-.15-1.076.184-.476 1.08-.5 1.08-.5zM948.995 12.182c-.16-.157-.236-.964.056-1.006.295-.042 1.237-.158 1.17.21-.066.37-.34.988-.495 1.15s-.73-.354-.73-.354zM950.164 13.092c.344.03.99-.2 1.02.344.027.544-.198.917-.444 1.22-.246.305-.437-.395-.716-.605-.282-.21.14-.958.14-.958zM951.632 13.23c.43.08-.576-1.024-.276-1.097.3-.073 1.052-.54 1.198-.48.146.056.335.6.154 1.075s-1.076.503-1.076.503zM812.778 119.05c.16.157.232.965-.062 1.006-.293.042-1.234.152-1.168-.216.07-.37.342-.986.5-1.147.16-.163.73.357.73.357zM811 121.642c-.343-.032-.99.198-1.015-.348-.026-.545.202-.917.447-1.22.247-.304.436.4.714.61.28.21-.146.958-.146.958zM812.062 120.83c.344.03.988-.202 1.02.344.027.544-.2.916-.444 1.22-.247.305-.438-.396-.717-.605-.277-.21.142-.96.142-.96zM813.708 121.223c.43.078-.577-1.025-.278-1.098s1.05-.54 1.2-.48c.144.056.334.6.153 1.075-.18.474-1.075.503-1.075.503zM814.77 121.555c-.43-.08.573 1.028.273 1.1-.3.07-1.054.536-1.202.476-.145-.056-.33-.602-.146-1.075.184-.476 1.077-.5 1.077-.5zM811.986 124.127c.162.156.237.964-.057 1.006-.294.042-1.234.157-1.17-.212.067-.368.338-.986.494-1.148.16-.16.732.355.732.355zM810.678 123.636c-.343-.03-.988.202-1.018-.343-.027-.545.197-.917.443-1.222.245-.304.438.397.717.607.282.21-.142.96-.142.96zM809.096 123.254c-.43-.078.577 1.025.277 1.098-.3.073-1.052.54-1.2.48-.144-.056-.334-.6-.153-1.075.18-.475 1.076-.503 1.076-.503zM946.32 15.393c-.162-.157-.234-.965.06-1.006.293-.04 1.236-.152 1.168.216-.07.37-.343.986-.5 1.147-.157.163-.728-.357-.728-.357zM947.545 16.194c.344.03.99-.198 1.016.348.028.544-.2.916-.446 1.22-.248.303-.436-.4-.713-.61-.28-.21.145-.958.145-.958zM807.01 122.768c.432.08-.57-1.027-.27-1.1.3-.07 1.054-.535 1.2-.476.146.057.332.603.148 1.077-.184.474-1.077.498-1.077.498zM945.923 15.89c.162.155.238.963-.056 1.005s-1.234.157-1.168-.212c.064-.37.336-.986.493-1.15.157-.16.73.356.73.356zM945.254 14.73c-.345-.032-.99.2-1.018-.345-.028-.544.197-.917.443-1.222.244-.305.437.397.716.606.28.208-.142.96-.142.96zM943.287 14.84c-.432-.08.575 1.024.275 1.097-.3.073-1.05.54-1.197.48-.146-.056-.337-.6-.154-1.075.183-.475 1.077-.503 1.077-.503zM873.977 75.104c-.164-.158-.234-.965.06-1.006.293-.04 1.235-.152 1.168.216-.07.37-.344.986-.5 1.147-.16.164-.728-.356-.728-.356zM876.27 72.447c.345.032.99-.197 1.017.348.025.544-.202.916-.448 1.22-.248.303-.437-.4-.715-.61-.278-.21.146-.958.146-.958zM874.69 73.324c-.347-.03-.99.202-1.02-.343-.028-.544.198-.917.444-1.222.245-.304.437.397.715.607.28.21-.14.96-.14.96zM873.046 72.515c-.43-.078.577 1.025.276 1.098-.298.073-1.05.54-1.198.48-.146-.056-.336-.6-.154-1.075.18-.476 1.076-.503 1.076-.503zM871.98 72.6c.43.08-.57-1.028-.272-1.1.3-.072 1.053-.536 1.2-.476.145.057.333.603.148 1.076-.182.474-1.077.5-1.077.5zM867.89 75.127c-.16-.156-.236-.964.057-1.006.295-.04 1.234-.156 1.17.213-.068.37-.34.987-.495 1.15-.16.162-.732-.356-.732-.356zM869.408 75.69c.345.03.988-.203 1.018.342.028.545-.197.917-.443 1.222-.245.305-.438-.396-.717-.606s.142-.96.142-.96zM870.876 76.177c.43.078-.576-1.025-.277-1.1.3-.07 1.05-.54 1.198-.48.146.057.335.6.153 1.076-.18.476-1.074.504-1.074.504zM942.066 18.226c.16.158.233.965-.06 1.006s-1.235.152-1.17-.217c.07-.368.344-.986.5-1.147.16-.16.73.358.73.358zM939.925 19.175c-.344-.03-.99.198-1.016-.348-.027-.545.2-.916.447-1.22.248-.303.434.4.713.61.28.21-.145.958-.145.958zM872.972 76.25c-.43-.08.573 1.03.272 1.1-.3.073-1.053.536-1.2.477-.146-.057-.334-.602-.15-1.076.184-.474 1.078-.5 1.078-.5zM942.464 17.73c-.162-.156-.24-.964.056-1.007.293-.042 1.234-.156 1.168.212-.065.37-.336.987-.493 1.15-.158.162-.73-.355-.73-.355zM943.632 18.64c.345.03.99-.2 1.02.344.026.545-.198.917-.443 1.22-.248.306-.44-.395-.718-.604-.28-.21.14-.96.14-.96zM945.1 18.78c.432.078-.576-1.025-.275-1.1.298-.072 1.05-.54 1.197-.48.146.057.336.6.154 1.076s-1.076.504-1.076.504zM806.245 124.598c.16.158.235.965-.06 1.006-.294.04-1.236.152-1.17-.217.07-.368.345-.986.5-1.146.16-.16.73.358.73.358zM804.47 127.19c-.344-.03-.99.198-1.017-.348-.025-.544.2-.916.448-1.22.248-.302.437.4.715.61.28.21-.146.96-.146.96zM805.53 126.378c.344.03.99-.202 1.02.343.026.546-.198.918-.444 1.222-.246.305-.437-.396-.717-.605-.283-.21.14-.96.14-.96zM807.175 126.77c.43.08-.576-1.024-.276-1.098.297-.072 1.05-.54 1.196-.48.146.056.337.6.154 1.075-.182.476-1.075.504-1.075.504zM807.844 127.19c-.43-.08.57 1.028.27 1.1-.3.07-1.052.534-1.2.476-.146-.058-.333-.603-.15-1.077.185-.476 1.08-.5 1.08-.5zM805.026 129.757c.16.157.237.965-.056 1.007-.294.042-1.234.157-1.17-.212.067-.368.338-.986.494-1.15.16-.16.732.355.732.355zM804.146 129.185c-.345-.03-.99.202-1.02-.343-.027-.544.198-.917.445-1.222.247-.305.437.396.717.606.28.21-.14.96-.14.96zM802.562 128.804c-.43-.08.576 1.025.278 1.098-.3.073-1.05.54-1.2.48-.146-.057-.335-.6-.152-1.075.18-.475 1.074-.503 1.074-.503zM939.787 20.942c-.16-.158-.233-.965.06-1.008.294-.04 1.236-.15 1.17.218-.07.368-.344.985-.5 1.146-.16.162-.73-.356-.73-.356zM798.847 128.076c.343.033.99-.198 1.017.35.024.543-.202.916-.448 1.218-.248.305-.437-.398-.714-.61-.28-.21.145-.958.145-.958zM800.48 128.318c.43.08-.572-1.03-.273-1.1.3-.072 1.054-.535 1.202-.477.144.06.332.603.147 1.078-.184.475-1.078.5-1.078.5zM939.39 21.438c.163.157.24.965-.055 1.007s-1.235.157-1.17-.212c.067-.37.34-.987.496-1.15.156-.16.73.355.73.355zM938.223 20.527c-.345-.03-.99.202-1.02-.343s.2-.917.445-1.22c.244-.306.436.395.715.604.282.21-.14.96-.14.96zM936.754 20.388c-.43-.078.577 1.025.277 1.1-.298.072-1.05.54-1.198.48-.145-.058-.335-.6-.154-1.076.18-.475 1.076-.504 1.076-.504zM867.44 80.237c-.16-.158-.23-.965.063-1.007.293-.04 1.234-.15 1.167.218-.068.368-.342.986-.5 1.146-.156.16-.73-.357-.73-.357zM869.74 77.58c.343.03.988-.198 1.014.348.027.545-.2.917-.447 1.22-.247.304-.435-.4-.713-.61-.28-.21.146-.96.146-.96zM868.156 78.457c-.344-.03-.99.202-1.018-.344-.027-.545.197-.917.443-1.222.246-.304.44.398.717.607.28.21-.14.96-.14.96zM866.513 78.063c-.43-.078.576 1.026.278 1.098-.3.074-1.05.542-1.198.482-.146-.058-.336-.6-.154-1.076.18-.474 1.075-.503 1.075-.503zM865.447 78.148c.43.08-.57-1.03-.27-1.1 2.013-.485-.66-1.234 1.2-.476.145.057.334.602.148 1.076-.182.476-1.078.5-1.078.5zM870.855 74.202c-.346-.03-.99.202-1.02-.343-.028-.546.198-.918.444-1.222.244-.304.435.396.715.606.28.21-.14.958-.14.958zM864.276 77.977c-.434-.08.57 1.03.27 1.1-.3.073-1.052.536-1.2.477-.145-.058-.333-.603-.148-1.077.183-.476 1.078-.5 1.078-.5zM801.86 130.975c.344.03.988-.202 1.017.343.03.545-.198.917-.443 1.222-.244.305-.436-.396-.715-.606-.282-.21.14-.96.14-.96zM809.172 126.28c-.162-.158-.234-.966.06-1.007.295-.04 1.237-.152 1.17.217-.07.37-.345.986-.5 1.147-.16.16-.73-.358-.73-.358zM816.585 121.658c-.345-.03-.99.202-1.02-.343-.027-.545.198-.917.444-1.222.245-.305.437.397.716.606.28.21-.14.958-.14.958zM951.497 10.844c-.345-.03-.99.2-1.02-.344-.025-.544.2-.917.445-1.222.246-.305.437.397.716.606.28.21-.14.96-.14.96zM881.875 68.52c.344.032.99-.198 1.016.348.028.544-.2.917-.446 1.22-.247.303-.435-.4-.713-.61-.28-.21.145-.958.145-.958zM880.127 69.376c-.344-.03-.99.202-1.018-.343-.028-.546.196-.917.442-1.222.245-.304.438.398.717.607.28.21-.143.96-.143.96zM876.86 68.465c.43.08-.573-1.028-.273-1.1.3-.07 1.053-.535 1.2-.475.147.057.335.603.15 1.076-.183.475-1.078.5-1.078.5zM879.646 65.893c-.164-.156-.24-.964.055-1.006.294-.042 1.235-.157 1.17.212-.067.368-.34.985-.494 1.148-.156.162-.73-.355-.73-.355zM880.954 66.384c.343.03.99-.202 1.017.343.03.544-.196.917-.44 1.222-.246.304-.438-.397-.717-.607-.28-.21.14-.96.14-.96zM882.535 66.766c.432.078-.575-1.025-.276-1.098s1.05-.54 1.197-.48c.146.056.336.6.155 1.075-.18.475-1.077.503-1.077.503zM953.48 8.544c.16.157.232.965-.06 1.006-.296.04-1.237.152-1.17-.217s.343-.986.5-1.147c.158-.16.73.358.73.358zM886.253 67.493c-.344-.032-.99.198-1.015-.348-.028-.544.2-.916.447-1.22.246-.303.435.4.713.61.28.21-.145.958-.145.958zM884.622 67.25c-.43-.08.57 1.03.27 1.1-.298.073-1.05.537-1.197.477-.146-.057-.334-.602-.15-1.075.182-.476 1.077-.5 1.077-.5zM953.875 8.048c-.16-.157-.238-.964.056-1.007.295-.04 1.236-.155 1.17.213-.067.37-.338.987-.494 1.15-.158.162-.73-.355-.73-.355zM955.044 8.958c.344.03.99-.202 1.02.344.025.544-.2.917-.444 1.222-.246.305-.438-.396-.717-.607-.28-.21.14-.96.14-.96zM956.512 9.097c.43.08-.576-1.025-.276-1.098.3-.074 1.05-.54 1.198-.483.146.057.336.602.153 1.076-.183.476-1.075.504-1.075.504zM817.657 114.917c.16.157.232.965-.06 1.006-.295.04-1.236.152-1.17-.217.07-.37.344-.986.5-1.147.16-.163.73.357.73.357zM815.36 117.573c-.345-.03-.99.197-1.017-.347-.025-.545.2-.917.448-1.22.25-.304.438.4.714.61.28.21-.143.957-.143.957zM816.942 116.696c.344.03.988-.202 1.02.344.026.545-.2.917-.444 1.22-.246.306-.438-.395-.717-.604-.28-.21.142-.96.142-.96zM818.585 117.09c.433.077-.575-1.026-.274-1.1.298-.072 1.052-.54 1.197-.48.146.057.338.6.155 1.076-.182.475-1.077.503-1.077.503zM819.65 117.422c-.43-.08.57 1.027.272 1.1-.3.07-1.054.535-1.2.476-.147-.057-.334-.602-.15-1.076.185-.477 1.08-.5 1.08-.5zM823.74 114.476c.163.156.238.964-.053 1.006-.295.042-1.236.157-1.172-.212.067-.37.34-.986.495-1.15.158-.16.73.356.73.356zM822.224 113.915c-.344-.03-.988.202-1.018-.344-.028-.543.2-.916.444-1.22.244-.304.436.397.715.606.28.21-.14.96-.14.96zM820.756 113.427c-.43-.078.576 1.025.278 1.098-.302.073-1.052.54-1.2.48-.147-.056-.335-.6-.153-1.075.18-.475 1.076-.503 1.076-.503zM957.73 5.71c-.16-.157-.234-.965.06-1.005.295-.042 1.236-.153 1.17.216-.07.37-.344.987-.5 1.148-.16.163-.73-.357-.73-.357zM958.957 6.512c.344.03.99-.198 1.015.348.026.544-.2.916-.448 1.22-.247.303-.435-.4-.713-.61-.28-.21.147-.958.147-.958zM960.826 7.02c.43.08-.572-1.03-.272-1.1.3-.072 1.052-.536 1.2-.476.146.057.334.602.148 1.076-.18.475-1.076.5-1.076.5zM957.334 6.207c.162.156.238.964-.055 1.006-.295.042-1.236.157-1.17-.212.065-.368.338-.986.493-1.148.157-.162.73.355.73.355zM956.665 5.38c-.344-.032-.99.2-1.017-.344-.03-.545.196-.917.44-1.222.248-.305.44.396.717.606.28.21-.14.96-.14.96zM954.698 5.157c-.432-.078.575 1.026.276 1.1-.3.072-1.052.54-1.198.48-.146-.057-.337-.6-.153-1.076.18-.474 1.075-.503 1.075-.503zM885.387 65.422c-.162-.158-.234-.965.06-1.006.295-.042 1.235-.153 1.17.216-.07.37-.345.986-.5 1.147-.16.162-.73-.358-.73-.358zM887.163 62.83c.344.032.99-.198 1.015.348.027.545-.2.917-.447 1.22s-.435-.4-.712-.61c-.28-.21.145-.958.145-.958zM886.102 63.642c-.345-.03-.99.202-1.02-.343-.027-.546.2-.918.445-1.223.246-.305.436.397.715.606.28.21-.14.96-.14.96zM884.457 63.25c-.432-.08.576 1.024.277 1.098-.3.072-1.052.54-1.2.48-.145-.056-.335-.6-.153-1.075.182-.476 1.077-.504 1.077-.504zM883.79 62.83c.43.08-.572-1.027-.272-1.1s1.052-.535 1.2-.476c.145.058.333.603.148 1.076-.182.476-1.077.5-1.077.5zM886.605 60.263c-.162-.157-.238-.964.056-1.006.294-.042 1.234-.157 1.17.21-.067.37-.34.988-.494 1.15-.157.163-.73-.354-.73-.354zM887.486 60.835c.344.03.987-.2 1.018.343.027.545-.198.917-.443 1.222-.245.305-.437-.396-.716-.606-.28-.21.142-.96.142-.96zM889.307 61.303c.432.078-.576-1.025-.276-1.098.3-.073 1.053-.54 1.2-.482.145.057.335.6.154 1.076-.183.475-1.077.503-1.077.503zM959.262 2.41c.16.16.232.967-.062 1.008-.292.04-1.234.152-1.166-.216.07-.37.342-.986.5-1.147.155-.163.728.356.728.356zM892.786 61.945c-.345-.032-.992.197-1.017-.348-.027-.545.2-.917.446-1.22.248-.304.436.4.713.61.28.21-.144.958-.144.958zM891.153 61.703c-.432-.08.57 1.027.272 1.1-.3.07-1.053.535-1.202.475-.146-.057-.333-.602-.147-1.076.182-.474 1.077-.5 1.077-.5zM960.407 2.5c-.163-.157-.237-.964.056-1.006.294-.042 1.235-.158 1.168.21-.065.37-.337.988-.493 1.15s-.73-.355-.73-.355zM961.576 3.41c.344.03.988-.202 1.018.343.027.545-.197.917-.443 1.222-.244.305-.437-.397-.716-.606s.142-.96.142-.96zM963.044 3.55c.43.077-.576-1.027-.276-1.1.3-.073 1.05-.54 1.197-.48.146.056.336.6.154 1.075-.182.476-1.076.504-1.076.504zM824.19 109.367c.16.158.232.966-.063 1.007-.292.04-1.233.152-1.166-.216.07-.37.343-.986.5-1.147.158-.162.73.357.73.357zM821.893 112.025c-.343-.032-.99.198-1.016-.348-.027-.545.2-.916.448-1.22.247-.304.435.4.714.61.277.21-.147.958-.147.958zM823.475 111.148c.345.03.99-.202 1.02.342.025.546-.198.917-.444 1.223-.245.304-.437-.397-.715-.606-.282-.21.14-.96.14-.96zM825.12 111.54c.43.08-.578-1.024-.28-1.097.3-.073 1.053-.54 1.2-.48.146.056.335.6.155 1.075-.182.475-1.076.503-1.076.503zM826.184 111.873c-.43-.08.572 1.027.272 1.1-.3.07-1.053.535-1.2.476-.147-.058-.335-.603-.15-1.078.183-.475 1.078-.5 1.078-.5zM820.777 115.4c.345.032.987-.2 1.018.345.027.545-.198.917-.443 1.22-.246.306-.438-.396-.718-.605-.28-.21.143-.96.143-.96zM899.875 49.203c-.163-.156-.24-.964.055-1.006.293-.042 1.234-.157 1.17.212-.066.368-.34.985-.494 1.148-.158.162-.73-.355-.73-.355zM901.393 49.764c.345.03.99-.2 1.02.343.025.546-.2.917-.444 1.222-.248.304-.438-.397-.718-.606-.28-.21.14-.96.14-.96zM902.86 50.252c.43.078-.577-1.025-.277-1.098.3-.073 1.05-.54 1.2-.48.144.056.334.6.152 1.075-.18.474-1.075.502-1.075.502zM974.05-8.116c.163.157.235.965-.06 1.006-.292.042-1.235.152-1.167-.217.067-.368.343-.986.5-1.147.157-.16.728.358.728.358zM906.825 50.833c-.342-.03-.99.197-1.017-.348-.025-.545.202-.917.45-1.22.246-.303.435.4.712.61.28.21-.145.958-.145.958zM904.957 50.328c-.432-.08.57 1.027.27 1.1-.3.07-1.053.535-1.2.476-.145-.058-.333-.603-.148-1.077.182-.476 1.077-.5 1.077-.5zM974.447-8.61c-.162-.158-.237-.965.056-1.007.294-.042 1.235-.157 1.17.212-.066.37-.34.986-.496 1.15-.156.16-.73-.356-.73-.356zM975.616-7.7c.345.03.99-.203 1.018.342.03.545-.198.917-.442 1.22-.246.306-.437-.395-.717-.604-.28-.21.14-.96.14-.96zM977.084-7.562c.43.078-.576-1.026-.276-1.098.3-.073 1.052-.54 1.198-.482s.336.6.153 1.076c-.18.476-1.076.504-1.076.504zM838.23 98.256c.16.158.233.966-.06 1.006-.294.042-1.237.153-1.17-.216.07-.368.344-.986.5-1.147.16-.163.73.356.73.356zM836.453 100.85c-.345-.032-.99.197-1.016-.348-.026-.544.2-.916.448-1.22.246-.303.435.4.712.61.28.21-.144.958-.144.958zM837.515 100.037c.346.03.99-.2 1.02.343.028.545-.2.917-.444 1.222-.245.305-.435-.396-.714-.606-.282-.21.14-.96.14-.96zM839.16 100.43c.43.078-.577-1.025-.28-1.1.3-.072 1.053-.54 1.2-.48.146.057.336.6.155 1.076-.18.476-1.076.504-1.076.504zM840.225 100.762c-.43-.08.57 1.028.27 1.1-.298.07-1.054.535-1.2.475-.145-.057-.333-.602-.148-1.076.182-.473 1.078-.498 1.078-.498zM837.438 103.335c.162.156.238.964-.057 1.006-.292.043-1.233.158-1.167-.21.067-.37.34-.987.494-1.15.158-.163.73.355.73.355zM836.13 102.844c-.344-.03-.99.2-1.018-.344-.027-.544.198-.917.443-1.222.245-.305.438.396.716.606.282.21-.14.96-.14.96zM834.548 102.46c-.43-.077.576 1.027.276 1.1-.3.073-1.05.54-1.198.48-.146-.057-.336-.6-.154-1.075.182-.475 1.076-.504 1.076-.504zM971.77-5.4c-.16-.157-.232-.964.062-1.005.292-.04 1.234-.152 1.168.216-.07.37-.344.987-.5 1.147-.158.163-.73-.356-.73-.356zM972.996-4.6c.345.032.99-.197 1.017.35.026.544-.202.915-.448 1.22-.248.302-.435-.4-.713-.61-.28-.21.144-.96.144-.96zM974.63-4.357c.43.08-.574-1.028-.274-1.1.302-.07 1.055-.535 1.203-.475.145.057.33.602.147 1.076-.184.474-1.078.5-1.078.5zM971.375-4.904c.162.156.238.964-.057 1.007-.293.042-1.234.156-1.167-.212.066-.368.338-.986.494-1.148.158-.162.73.354.73.354zM972.37-6.814c-.342-.03-.987.202-1.017-.343-.028-.545.197-.917.443-1.222.246-.304.438.397.717.607.28.21-.142.96-.142.96zM965.988-3.287c-.432-.078.574 1.025.276 1.1-.3.072-1.05.54-1.198.48-.146-.058-.336-.602-.153-1.076.18-.475 1.075-.504 1.075-.504zM899.427 54.312c-.16-.157-.233-.965.062-1.006.29-.04 1.233-.152 1.167.217-.07.368-.344.986-.5 1.147-.16.16-.73-.358-.73-.358zM901.724 51.654c.346.032.99-.198 1.017.348.026.545-.2.917-.447 1.22-.247.304-.437-.4-.714-.61-.28-.21.144-.958.144-.958zM900.143 52.532c-.346-.03-.99.2-1.02-.343-.026-.547.198-.918.444-1.223.245-.305.437.396.717.605.278.21-.14.96-.14.96zM898.497 52.138c-.43-.078.577 1.025.278 1.098-.3.073-1.053.54-1.2.48-.146-.056-.335-.6-.153-1.075.182-.473 1.075-.502 1.075-.502zM897.432 51.806c.432.08-.57-1.027-.27-1.1.298-.07 1.052-.535 1.2-.475.146.058.333.603.148 1.077-.184.475-1.078.5-1.078.5zM893.34 54.752c-.16-.157-.236-.965.057-1.007.296-.042 1.236-.157 1.17.212s-.338.987-.494 1.15c-.158.162-.732-.355-.732-.355zM894.86 55.312c.344.03.99-.2 1.017.344.03.544-.197.917-.443 1.222-.244.304-.436-.397-.716-.607-.28-.208.142-.958.142-.958zM896.327 55.8c.43.08-.576-1.025-.276-1.097.3-.073 1.052-.54 1.2-.482.145.058.336.602.153 1.077-.18.476-1.076.504-1.076.504zM967.52-2.567c.16.157.233.966-.06 1.006-.294.04-1.237.15-1.17-.218.07-.37.343-.986.5-1.147.158-.16.73.358.73.358zM900.294 56.382c-.344-.032-.99.198-1.016-.348-.027-.544.2-.916.448-1.22.247-.303.435.4.71.61.282.21-.142.958-.142.958zM898.425 55.875c-.43-.08.572 1.028.27 1.1-.3.072-1.053.536-1.2.476-.145-.056-.333-.602-.15-1.075.184-.475 1.08-.5 1.08-.5zM967.915-3.062c-.16-.157-.237-.964.055-1.006.296-.042 1.236-.158 1.17.21s-.338.988-.495 1.15c-.157.162-.73-.354-.73-.354zM969.084-2.152c.344.03.99-.202 1.02.344.027.544-.198.917-.444 1.22-.247.306-.438-.395-.717-.605-.28-.21.14-.96.14-.96zM970.55-2.013c.433.078-.573-1.025-.273-1.098.298-.074 1.05-.542 1.197-.482.146.057.337.6.154 1.076-.182.474-1.077.503-1.077.503zM831.697 103.806c.162.157.233.965-.062 1.006-.292.04-1.234.152-1.167-.217.068-.37.344-.986.5-1.146.16-.164.73.356.73.356zM829.92 106.398c-.343-.03-.99.197-1.016-.348s.2-.917.45-1.22c.246-.304.434.4.712.61.28.21-.146.958-.146.958zM830.982 105.585c.346.03.99-.202 1.02.344.027.543-.2.916-.445 1.22-.244.304-.437-.397-.716-.606-.28-.21.142-.96.142-.96zM832.627 105.98c.432.077-.577-1.026-.278-1.1.3-.072 1.052-.54 1.198-.48.146.057.336.6.154 1.076-.18.474-1.075.503-1.075.503zM833.296 106.397c-.43-.08.57 1.028.27 1.1-.3.072-1.054.536-1.2.476-.145-.057-.334-.603-.15-1.076.184-.475 1.08-.5 1.08-.5zM830.48 108.965c.16.156.238.963-.057 1.006-.293.043-1.235.158-1.168-.21.066-.37.337-.987.494-1.15.155-.162.73.355.73.355zM829.597 108.392c-.342-.03-.987.202-1.017-.343-.027-.546.197-.918.443-1.223.246-.305.438.396.717.606.28.21-.143.96-.143.96zM828.016 108.01c-.432-.078.576 1.026.277 1.098-.3.073-1.05.54-1.2.48-.145-.056-.334-.6-.15-1.075.178-.475 1.073-.503 1.073-.503zM965.24.15c-.16-.158-.235-.966.06-1.007.293-.04 1.235-.152 1.167.217-.068.37-.342.986-.5 1.147-.156.16-.728-.358-.728-.358zM966.464.95c.344.032.99-.198 1.017.348.027.544-.2.916-.446 1.22-.248.303-.437-.4-.714-.61-.28-.21.144-.958.144-.958zM968.097 1.19c.43.08-.573-1.027-.272-1.098.3-.072 1.054-.536 1.202-.477.145.058.333.603.148 1.077-.185.475-1.078.5-1.078.5zM964.843.645c.162.156.237.964-.055 1.006-.295.043-1.236.158-1.17-.21.067-.37.338-.988.495-1.15.157-.163.73.355.73.355zM963.842.067c-.345-.03-.99.202-1.02-.343-.027-.544.197-.917.444-1.222.246-.305.437.397.716.607.28.208-.14.957-.14.957zM962.207-.405c-.432-.078.576 1.025.275 1.098-.3.073-1.05.54-1.197.48-.146-.056-.336-.6-.155-1.075.182-.474 1.077-.503 1.077-.503zM892.895 59.86c-.16-.157-.232-.965.062-1.006.293-.04 1.235-.15 1.167.217-.068.37-.34.986-.5 1.148-.16.16-.73-.358-.73-.358zM895.19 57.203c.345.032.99-.197 1.017.348.025.545-.2.917-.448 1.22-.25.304-.437-.4-.715-.61-.277-.21.146-.957.146-.957zM893.607 58.08c-.343-.03-.988.202-1.017-.343-.028-.545.197-.917.443-1.222.245-.305.438.396.717.606.28.21-.143.96-.143.96zM891.965 57.687c-.43-.078.577 1.025.278 1.098-.3.073-1.05.54-1.2.48-.145-.056-.335-.6-.152-1.075.18-.475 1.075-.503 1.075-.503zM890.9 57.354c.43.08-.572-1.027-.272-1.1.3-.07 1.053-.535 1.2-.475.146.056.334.602.148 1.075-.182.475-1.076.5-1.076.5zM896.307 53.827c-.344-.03-.99.2-1.018-.344s.196-.917.442-1.222c.246-.304.438.397.716.607.28.21-.14.96-.14.96zM889.73 57.6c-.432-.08.57 1.03.27 1.1-.3.072-1.052.536-1.2.477-.145-.057-.333-.602-.147-1.076.18-.474 1.076-.5 1.076-.5zM827.312 110.182c.343.03.988-.2 1.017.344.028.544-.2.917-.443 1.222-.246.305-.438-.397-.717-.606s.142-.96.142-.96zM834.623 105.486c-.16-.157-.234-.965.062-1.006.29-.042 1.234-.153 1.166.216-.067.368-.342.986-.5 1.147-.156.163-.727-.357-.727-.357zM842.037 100.866c-.344-.03-.99.2-1.02-.344-.026-.545.2-.917.443-1.222.247-.304.438.397.717.606.282.21-.14.96-.14.96zM818.33 120.333c-.344-.03-.99.202-1.018-.344-.03-.545.196-.918.442-1.222s.437.397.715.606c.28.21-.14.96-.14.96zM815.535 117.9c.345.032.99-.197 1.016.348.026.545-.2.916-.448 1.22-.246.303-.435-.4-.713-.61-.28-.21.145-.958.145-.958zM814.413 119.042c-.344-.03-.99.202-1.02-.344-.025-.545.2-.917.444-1.22.246-.306.438.395.716.605.282.21-.14.96-.14.96zM953.393 11.812c.432.08-.57-1.027-.27-1.1.3-.07 1.053-.535 1.2-.476.145.057.333.602.148 1.076-.183.475-1.077.5-1.077.5zM882.65 64.468c-.343-.032-.99.197-1.016-.35-.025-.543.2-.915.45-1.22.247-.302.435.4.712.61.28.212-.145.96-.145.96zM920.96 37.53c-.16-.157-.233-.964.062-1.005.293-.042 1.235-.153 1.168.216-.07.37-.343.987-.5 1.148-.16.162-.73-.357-.73-.357zM921.675 35.75c-.343-.03-.99.202-1.018-.343-.028-.545.196-.917.443-1.222.246-.305.438.396.716.606.282.21-.14.96-.14.96zM920.03 35.357c-.43-.078.577 1.025.278 1.098-.3.073-1.052.54-1.2.48-.145-.056-.334-.6-.153-1.075.183-.475 1.075-.503 1.075-.503zM918.967 35.025c.43.08-.572-1.028-.272-1.1.3-.07 1.053-.536 1.202-.476.144.056.332.602.147 1.075-.184.476-1.077.5-1.077.5zM845.273 97.695c.164.156.24.964-.055 1.005-.293.043-1.234.158-1.168-.21.066-.37.338-.988.493-1.15.16-.16.73.355.73.355zM843.757 97.134c-.344-.03-.99.202-1.018-.343s.197-.916.44-1.22c.247-.306.44.395.718.605.28.21-.14.96-.14.96zM842.29 96.646c-.433-.078.576 1.025.277 1.098-.3.073-1.052.54-1.2.48-.145-.056-.335-.6-.153-1.075.182-.476 1.075-.504 1.075-.504zM979.265-11.07c-.16-.156-.233-.965.062-1.006.293-.04 1.236-.15 1.167.217-.068.37-.343.987-.5 1.148-.158.162-.73-.358-.73-.358zM980.49-10.27c.343.032.988-.196 1.016.35.026.543-.202.915-.448 1.22-.247.303-.436-.4-.714-.61-.28-.21.146-.96.146-.96zM982.36-9.763c.43.08-.573-1.027-.273-1.1.3-.07 1.053-.535 1.2-.476.147.058.335.604.15 1.077-.183.476-1.078.5-1.078.5zM978.867-10.574c.163.156.238.964-.055 1.006-.295.042-1.234.158-1.17-.212.067-.37.34-.987.495-1.15.157-.16.73.356.73.356zM977.7-11.484c-.347-.03-.99.202-1.02-.344-.027-.545.198-.917.444-1.22.245-.306.436.396.716.605.28.21-.14.96-.14.96zM976.23-11.624c-.43-.078.576 1.025.277 1.098-.3.073-1.05.54-1.197.482-.146-.057-.338-.6-.154-1.076.182-.475 1.074-.504 1.074-.504zM906.92 48.64c-.162-.156-.234-.964.06-1.005.294-.042 1.236-.152 1.17.216-.07.37-.345.987-.5 1.148-.16.163-.73-.357-.73-.357zM908.696 46.048c.345.032.99-.197 1.017.348.026.544-.203.917-.45 1.22-.245.303-.433-.4-.71-.61-.282-.21.143-.958.143-.958zM907.635 46.86c-.345-.03-.99.203-1.018-.342-.028-.545.197-.917.443-1.222.245-.305.437.397.715.606.28.21-.14.96-.14.96zM905.99 46.468c-.43-.078.576 1.025.276 1.098-.3.074-1.05.54-1.198.482-.146-.057-.334-.6-.153-1.076s1.075-.504 1.075-.504zM904.925 46.136c.43.08-.57-1.028-.27-1.1.3-.072 1.052-.536 1.198-.476.146.057.336.602.15 1.076-.183.476-1.078.5-1.078.5zM907.712 43.563c-.163-.156-.238-.964.056-1.006.293-.042 1.235-.157 1.168.212-.066.368-.34.986-.493 1.148-.158.163-.73-.355-.73-.355zM909.02 44.055c.345.03.99-.202 1.02.344.027.543-.2.915-.444 1.22-.245.305-.437-.397-.716-.606-.282-.21.14-.96.14-.96zM910.602 44.437c.432.078-.574-1.025-.275-1.1.3-.072 1.05-.54 1.197-.48.146.057.337.6.154 1.076-.182.476-1.076.504-1.076.504zM981.545-13.786c.16.157.233.965-.06 1.006-.296.04-1.236.152-1.17-.216.07-.37.344-.986.5-1.147.16-.162.73.357.73.357zM960.486 5.497c-.346-.03-.99.198-1.017-.348-.026-.546.2-.917.447-1.22.246-.304.436.398.713.61.28.21-.144.957-.144.957zM979.52-13.91c-.43-.08.572 1.027.272 1.098-.3.072-1.052.536-1.2.476-.146-.057-.333-.603-.148-1.076.183-.475 1.077-.5 1.077-.5zM981.94-14.282c-.16-.156-.237-.963.056-1.006.293-.042 1.236-.157 1.17.212-.068.37-.34.987-.495 1.15-.156.16-.73-.356-.73-.356zM983.11-13.37c.343.03.987-.203 1.017.342.028.545-.197.917-.443 1.222-.246.305-.436-.397-.716-.606s.14-.96.14-.96zM984.577-13.232c.43.08-.576-1.025-.277-1.098.3-.073 1.052-.54 1.198-.48.146.056.336.6.154 1.075-.18.475-1.075.503-1.075.503zM845.724 92.587c.16.157.234.965-.06 1.006-.295.04-1.236.152-1.17-.217.07-.37.344-.986.5-1.147.16-.163.73.357.73.357zM843.427 95.244c-.345-.032-.99.197-1.017-.348-.026-.544.2-.917.447-1.22.25-.303.437.4.715.61.278.21-.145.958-.145.958zM845.01 94.366c.342.03.987-.2 1.018.344.027.545-.198.917-.443 1.222-.247.305-.438-.397-.717-.606-.28-.21.14-.96.14-.96zM846.65 94.76c.433.078-.574-1.025-.275-1.1.3-.072 1.05-.54 1.2-.48.144.058.335.6.153 1.076-.182.475-1.077.504-1.077.504zM847.717 95.092c-.43-.08.573 1.027.273 1.1-.3.07-1.055.535-1.202.475-.146-.057-.332-.603-.15-1.076.184-.474 1.08-.498 1.08-.498zM851.807 92.146c.163.157.24.964-.055 1.006-.293.042-1.234.157-1.17-.212.068-.37.34-.986.495-1.15.157-.16.73.356.73.356zM850.29 91.585c-.345-.03-.99.202-1.02-.343-.027-.544.2-.917.444-1.222.246-.305.436.396.716.606s-.14.96-.14.96zM848.822 91.098c-.433-.08.576 1.024.276 1.098-.3.073-1.05.54-1.198.48-.146-.056-.336-.6-.154-1.075.18-.474 1.076-.502 1.076-.502zM985.797-16.618c-.16-.158-.234-.966.06-1.006.295-.04 1.236-.152 1.17.217-.07.368-.344.985-.5 1.147-.16.16-.73-.358-.73-.358zM987.02-15.817c.346.03.99-.198 1.017.348.025.545-.2.917-.448 1.22-.248.304-.436-.398-.715-.61-.277-.21.146-.957.146-.957zM988.893-15.31c.43.08-.572-1.03-.272-1.1.3-.073 1.055-.537 1.202-.477.146.057.333.602.147 1.076-.184.475-1.077.5-1.077.5zM985.4-16.123c.162.157.236.964-.057 1.006-.294.042-1.234.157-1.168-.21.067-.37.338-.988.494-1.15.156-.163.73.354.73.354zM985.98-17.95c-.345-.03-.988.202-1.018-.343s.198-.917.443-1.222c.246-.305.437.396.716.606.282.21-.14.96-.14.96zM984.097-17.59c-.43-.077.576 1.026.277 1.1-.3.072-1.05.54-1.198.48-.146-.057-.337-.6-.154-1.076.18-.475 1.075-.503 1.075-.503zM913.452 43.093c-.162-.157-.234-.966.06-1.006.294-.04 1.236-.152 1.168.217-.067.37-.343.985-.5 1.147-.16.162-.728-.357-.728-.357zM915.23 40.5c.343.032.99-.198 1.016.348.026.545-.203.916-.448 1.22-.248.304-.436-.4-.714-.61-.28-.21.145-.958.145-.958zM914.167 41.312c-.345-.03-.99.203-1.02-.343-.027-.546.198-.918.444-1.223.247-.304.44.396.717.606.28.21-.14.96-.14.96zM912.523 40.92c-.432-.08.575 1.025.276 1.097-.3.073-1.053.54-1.2.48-.145-.056-.336-.6-.153-1.075.182-.474 1.076-.503 1.076-.503zM911.854 40.5c.432.08-.57-1.027-.27-1.1.3-.07 1.053-.535 1.2-.476.145.058.334.603.147 1.077-.18.476-1.076.5-1.076.5zM914.672 37.934c-.163-.156-.238-.964.055-1.006s1.235-.157 1.168.212c-.065.37-.336.987-.492 1.15-.158.16-.73-.356-.73-.356zM915.552 38.506c.345.03.99-.202 1.02.343.026.545-.2.916-.445 1.22-.245.306-.436-.395-.715-.604-.282-.21.14-.96.14-.96zM917.134 38.888c.43.078-.576-1.025-.276-1.098.3-.073 1.052-.54 1.198-.48.146.056.337.6.154 1.074-.182.476-1.076.504-1.076.504zM988.077-19.334c.16.157.233.966-.062 1.007-.293.04-1.234.152-1.167-.217.07-.368.344-.986.5-1.147.158-.164.73.356.73.356zM991.52-19.72c-.346-.03-.99.2-1.018-.347-.026-.544.202-.916.45-1.22.247-.304.434.4.71.61.28.21-.142.958-.142.958zM990.803-23.043c-.43-.08.572 1.028.273 1.1-.3.07-1.053.535-1.2.476-.147-.057-.334-.602-.15-1.076.183-.476 1.077-.5 1.077-.5zM988.474-19.83c-.163-.157-.237-.964.056-1.006.294-.042 1.234-.158 1.168.21s-.337.988-.493 1.15c-.158.163-.73-.354-.73-.354zM989.643-18.92c.345.032.988-.2 1.018.344.028.545-.196.917-.442 1.222s-.438-.396-.717-.606.143-.96.143-.96zM849.96 89.695c-.345-.032-.992.198-1.02-.348-.024-.546.202-.916.45-1.22.247-.304.436.4.713.61.28.21-.144.958-.144.958zM848.843 93.072c.345.03.99-.2 1.02.344.026.544-.198.917-.445 1.22-.245.306-.437-.395-.715-.605-.28-.21.14-.958.14-.958zM917.837 36.717c-.343-.03-.988.2-1.017-.344s.196-.917.442-1.222c.246-.304.438.397.718.607.28.21-.143.96-.143.96zM910.526 41.413c.16.157.232.965-.062 1.006s-1.234.15-1.167-.218c.068-.37.342-.986.5-1.147.16-.163.73.358.73.358zM840.155 96.098c-.433-.08.575 1.024.276 1.098-.3.073-1.05.54-1.197.48-.146-.056-.337-.6-.154-1.075.18-.474 1.075-.502 1.075-.502zM824.732 107.502c.346.03.99-.202 1.02.344.027.544-.2.917-.445 1.22-.244.305-.437-.396-.716-.605-.28-.21.142-.958.142-.958zM826.377 107.896c.432.078-.577-1.025-.278-1.098.3-.073 1.052-.54 1.198-.48.146.056.336.6.154 1.075-.18.474-1.075.503-1.075.503zM819.184 112.54c-.43-.08.572 1.027.272 1.1-.3.07-1.053.535-1.2.476-.147-.057-.335-.602-.15-1.077.183-.476 1.078-.5 1.078-.5zM834.225 100.512c-.43-.08.57 1.028.27 1.1-.298.07-1.054.535-1.2.475-.145-.057-.333-.602-.148-1.076.182-.473 1.078-.498 1.078-.498zM856.27 84.68c.432.08-.575-1.025-.274-1.098.298-.073 1.05-.54 1.197-.48.146.055.337.6.154 1.075-.18.476-1.076.504-1.076.504zM924.745 35.22c-.16-.16-.232-.966.062-1.008.293-.04 1.234-.15 1.166.218-.068.37-.342.986-.5 1.146-.157.16-.728-.357-.728-.357zM924.35 35.714c.163.157.238.964-.056 1.007-.293.043-1.235.158-1.168-.21.067-.37.338-.988.494-1.15.156-.162.73.354.73.354zM923.504 33.377c-.432-.08.57 1.03.27 1.1-.3.072-1.053.535-1.2.476-.145-.058-.333-.602-.148-1.077.18-.474 1.078-.5 1.078-.5zM918.828 39.72c-.16-.16-.232-.966.062-1.008.294-.04 1.234-.15 1.166.218-.068.37-.342.986-.5 1.146-.158.16-.728-.357-.728-.357zM918.433 40.214c.163.157.238.964-.056 1.007-.293.043-1.235.158-1.168-.21.065-.37.337-.988.493-1.15.156-.162.73.354.73.354zM912.16 44.97c-.16-.16-.23-.966.063-1.008.293-.04 1.234-.15 1.166.218-.07.37-.343.986-.5 1.146-.158.16-.73-.357-.73-.357zM911.766 45.464c.163.157.238.964-.056 1.007-.293.043-1.235.158-1.168-.21.067-.37.338-.988.494-1.15.156-.162.73.354.73.354zM941.912 21.635c-.16-.158-.232-.965.062-1.007.294-.04 1.234-.15 1.166.218-.068.37-.342.986-.5 1.146-.158.16-.728-.357-.728-.357zM941.518 22.13c.162.158.237.965-.057 1.008-.292.042-1.233.157-1.167-.212.067-.37.338-.987.494-1.15.156-.162.73.355.73.355zM946.92 13.23c-.345-.032-.99.2-1.018-.345-.028-.544.196-.917.443-1.222.245-.305.438.397.717.606.28.208-.142.96-.142.96zM934.624 25.702c.345.03.99-.202 1.02.344.025.544-.2.917-.445 1.22-.246.306-.438-.395-.717-.605-.282-.21.14-.958.14-.958zM931.54 23.37c.346.03.99-.203 1.02.343.026.544-.198.917-.444 1.22-.245.306-.437-.395-.717-.605s.14-.96.14-.96zM970.204-5.23c-.343-.032-.988.2-1.017-.344-.03-.545.196-.917.442-1.222.245-.305.437.396.716.606.28.21-.142.96-.142.96zM964.847 3.94c.43.08-.573-1.027-.272-1.098.3-.072 1.054-.536 1.202-.477.145.058.333.603.148 1.077-.185.475-1.078.5-1.078.5zM903.114 46.032c.343.03.987-.2 1.017.344s-.196.917-.442 1.22c-.245.307-.438-.395-.717-.604-.28-.21.144-.96.144-.96zM963.097 5.44c.43.08-.573-1.027-.272-1.098.3-.072 1.054-.536 1.202-.477.145.058.333.603.148 1.077-.185.475-1.078.5-1.078.5zM978.99-8.603c.343.03.988-.197 1.016.348.026.544-.202.916-.448 1.22-.247.304-.436-.4-.714-.61-.28-.21.146-.958.146-.958zM977.407-7.27c.343.032.99-.196 1.016.35.026.543-.202.915-.448 1.22-.248.303-.436-.4-.714-.61-.278-.21.147-.96.147-.96zM997.884-26.7c.162.158.234.966-.06 1.007-.293.042-1.236.152-1.168-.217.067-.368.343-.986.5-1.147.156-.16.728.358.728.358zM998.28-27.195c-.162-.157-.237-.964.056-1.006.294-.043 1.235-.158 1.17.21-.066.37-.34.987-.496 1.15-.156.162-.73-.355-.73-.355zM999.45-26.284c.344.03.99-.202 1.017.343.03.544-.197.916-.443 1.22-.245.305-.436-.396-.716-.605-.28-.21.14-.96.14-.96zM1000.917-26.145c.43.078-.576-1.026-.276-1.098.3-.073 1.053-.54 1.2-.482s.335.6.152 1.076c-.18.477-1.075.505-1.075.505zM995.604-23.983c-.16-.158-.232-.965.062-1.006.292-.04 1.235-.15 1.168.217-.07.37-.344.986-.5 1.146-.16.163-.73-.356-.73-.356zM996.83-23.182c.344.03.99-.198 1.016.348.026.545-.203.916-.45 1.22-.246.303-.433-.4-.71-.61-.28-.21.143-.958.143-.958zM998.462-22.94c.43.08-.573-1.03-.272-1.1.3-.072 1.054-.536 1.2-.476.147.057.333.602.15 1.076-.185.475-1.078.5-1.078.5zM995.208-23.487c.162.156.238.964-.057 1.007-.293.042-1.233.156-1.166-.212.065-.37.337-.987.492-1.15.16-.162.732.355.732.355zM996.204-25.398c-.343-.03-.988.202-1.017-.343-.03-.546.196-.918.442-1.223.245-.305.437.396.716.606.28.21-.142.96-.142.96zM991.748-21.646c-.16-.157-.237-.964.055-1.006.296-.042 1.236-.158 1.17.21-.066.37-.338.988-.494 1.15-.16.163-.732-.354-.732-.354zM992.917-20.736c.344.03.99-.202 1.02.344.027.544-.198.917-.444 1.22-.247.306-.438-.395-.717-.605-.28-.21.14-.96.14-.96zM994.384-20.597c.43.078-.575-1.025-.274-1.098.298-.073 1.05-.54 1.197-.48.146.056.336.6.154 1.075s-1.076.503-1.076.503zM991.93-17.393c.43.08-.572-1.028-.272-1.1.3-.07 1.054-.535 1.202-.476.145.06.333.604.148 1.078-.185.475-1.078.5-1.078.5zM1003.098-29.654c-.162-.156-.233-.965.062-1.006.293-.04 1.235-.15 1.167.217-.068.37-.344.986-.5 1.147-.158.162-.73-.358-.73-.358zM1004.323-28.853c.343.03.99-.197 1.016.348.025.544-.203.916-.45 1.22-.247.304-.435-.4-.713-.61s.146-.958.146-.958zM1006.192-28.346c.43.08-.572-1.027-.272-1.1.3-.07 1.053-.535 1.2-.476.147.057.335.603.15 1.076-.183.476-1.078.5-1.078.5zM1002.7-29.157c.163.156.237.964-.056 1.006s-1.233.157-1.168-.213c.066-.37.338-.987.494-1.15.157-.16.73.356.73.356zM1001.532-30.068c-.345-.03-.99.202-1.02-.344-.026-.545.2-.917.445-1.22.245-.306.436.396.716.605.28.21-.14.96-.14.96zM1000.064-30.207c-.432-.078.575 1.025.276 1.098-.3.074-1.05.542-1.198.483-.146-.057-.337-.6-.153-1.076.18-.476 1.074-.504 1.074-.504zM1005.378-32.37c.16.158.233.966-.06 1.007-.297.04-1.236.152-1.17-.216.07-.368.344-.985.5-1.146.16-.163.73.357.73.357zM1004.152-33.17c-.346-.03-.99.198-1.017-.348-.025-.545.2-.916.448-1.22.246-.303.436.4.713.61.28.21-.144.958-.144.958zM1003.354-32.495c-.43-.08.572 1.028.27 1.1-.3.07-1.05.535-1.2.475-.145-.057-.332-.603-.147-1.076.183-.474 1.077-.5 1.077-.5zM1005.773-32.865c-.16-.156-.237-.963.056-1.006.292-.043 1.234-.158 1.168.21-.067.37-.338.988-.494 1.15-.157.162-.73-.355-.73-.355zM1006.942-31.954c.344.03.988-.202 1.018.343.028.544-.197.916-.442 1.22-.246.306-.437-.396-.717-.605-.28-.21.142-.96.142-.96zM1008.41-31.815c.43.08-.576-1.025-.277-1.098.3-.073 1.05-.54 1.198-.48.147.056.337.6.155 1.075-.18.474-1.075.503-1.075.503zM1009.63-35.202c-.16-.158-.233-.966.062-1.006.293-.04 1.234-.152 1.166.217-.067.367-.342.984-.498 1.146-.16.16-.73-.358-.73-.358zM1010.855-34.4c.344.03.988-.2 1.015.347.026.544-.2.916-.448 1.22-.247.303-.435-.4-.714-.61-.277-.21.147-.958.147-.958zM1012.725-33.894c.43.08-.57-1.028-.27-1.1.3-.072 1.053-.536 1.2-.476.146.057.333.602.147 1.076-.183.476-1.077.5-1.077.5zM1009.232-34.706c.162.157.237.964-.056 1.006-.294.042-1.235.157-1.168-.21.067-.37.338-.988.494-1.15.157-.163.73.354.73.354zM1008.064-35.616c-.346-.03-.99.2-1.02-.344-.027-.545.2-.917.444-1.222.246-.305.437.396.716.606.28.21-.14.96-.14.96zM1006.597-35.755c-.43-.078.576 1.025.277 1.098-.3.073-1.05.54-1.198.48-.146-.056-.337-.6-.154-1.075.18-.476 1.075-.503 1.075-.503zM1011.91-37.918c.16.157.234.966-.062 1.007-.293.04-1.234.15-1.167-.218.07-.368.344-.986.5-1.147.16-.162.73.357.73.357zM1010.052-38.126c-.43-.08.572 1.028.273 1.1-.3.07-1.054.535-1.2.476-.147-.057-.334-.602-.15-1.076.183-.477 1.077-.5 1.077-.5zM1012.307-38.414c-.162-.157-.237-.964.056-1.006.294-.042 1.234-.158 1.168.21s-.336.988-.492 1.15c-.158.164-.73-.354-.73-.354zM1013.477-37.503c.344.03.987-.2 1.017.343.028.545-.197.917-.443 1.222s-.437-.396-.716-.606c-.28-.21.143-.96.143-.96zM994.037-23.814c-.343-.03-.988.202-1.018-.343-.03-.545.196-.917.442-1.222.246-.304.438.397.717.607.28.21-.143.96-.143.96zM1002.823-27.186c.343.03.99-.197 1.016.348.025.544-.203.916-.45 1.22-.247.304-.435-.4-.713-.61-.28-.21.146-.958.146-.958zM1001.24-25.853c.343.03.988-.197 1.016.348.026.544-.202.916-.448 1.22-.247.304-.436-.4-.714-.61-.28-.21.146-.958.146-.958zM1014.863-40.778c-.162-.157-.237-.964.056-1.006.293-.042 1.234-.157 1.168.212-.066.37-.338.986-.495 1.15-.155.16-.73-.356-.73-.356zM1016.032-39.868c.345.03.99-.202 1.018.343.03.545-.198.917-.442 1.22-.246.306-.437-.395-.717-.604-.28-.208.142-.958.142-.958zM1017.5-39.73c.43.08-.576-1.025-.276-1.097.3-.073 1.052-.54 1.198-.482s.336.602.153 1.077c-.18.476-1.075.504-1.075.504zM1015.045-36.524c.43.08-.573-1.028-.273-1.1.302-.07 1.055-.535 1.202-.475.146.058.332.603.15 1.077-.185.474-1.08.5-1.08.5zM1019.68-43.237c-.16-.156-.232-.965.063-1.006.293-.04 1.236-.15 1.167.217-.068.37-.343.986-.5 1.147-.158.163-.73-.357-.73-.357zM1020.906-42.436c.343.03.988-.197 1.016.348.026.544-.202.916-.448 1.22-.247.304-.436-.4-.714-.61-.28-.21.146-.958.146-.958zM1022.775-41.93c.43.08-.572-1.027-.272-1.1.3-.07 1.053-.535 1.2-.476.147.057.335.603.15 1.076-.183.476-1.078.5-1.078.5zM1019.283-42.74c.163.155.238.963-.055 1.005-.295.042-1.234.158-1.17-.212.067-.37.34-.987.495-1.15.157-.16.73.356.73.356zM1018.115-43.65c-.346-.032-.99.2-1.02-.345-.026-.545.2-.917.445-1.22.245-.306.436.396.716.605.28.21-.14.96-.14.96zM1016.646-43.79c-.43-.08.576 1.024.277 1.097-.3.073-1.05.54-1.198.482-.146-.058-.337-.602-.153-1.077.182-.475 1.074-.504 1.074-.504zM1021.96-45.953c.16.157.234.965-.06 1.006-.295.04-1.235.152-1.168-.216.068-.37.343-.986.5-1.147.16-.162.73.357.73.357zM1020.735-46.753c-.346-.03-.99.198-1.017-.348-.025-.546.2-.917.448-1.22.246-.304.435.398.713.61s-.145.957-.145.957zM1019.938-46.078c-.43-.08.572 1.028.27 1.1-.3.07-1.05.535-1.2.475-.145-.057-.332-.603-.147-1.076.183-.474 1.078-.498 1.078-.498zM1022.357-46.45c-.162-.155-.238-.962.055-1.005.293-.042 1.236-.157 1.17.212-.068.37-.34.987-.495 1.15-.157.16-.73-.356-.73-.356zM1023.525-45.538c.344.03.988-.202 1.018.343.028.545-.197.917-.443 1.222-.246.305-.436-.397-.716-.606s.14-.958.14-.958zM1024.993-45.4c.43.08-.576-1.024-.277-1.097.3-.073 1.052-.54 1.198-.48.146.056.336.6.154 1.075-.18.475-1.075.503-1.075.503zM1026.213-48.785c-.16-.158-.234-.966.062-1.006.293-.042 1.234-.153 1.167.216-.068.368-.343.985-.5 1.147-.16.16-.73-.358-.73-.358zM1027.438-47.984c.345.03.99-.198 1.016.348.025.544-.2.916-.448 1.22-.247.303-.435-.4-.714-.61-.278-.21.146-.958.146-.958zM1029.308-47.478c.43.08-.57-1.028-.27-1.1.3-.072 1.053-.536 1.2-.476.146.057.333.602.147 1.076-.183.476-1.077.5-1.077.5zM1025.816-48.29c.162.157.236.964-.057 1.006-.295.042-1.235.157-1.17-.21.068-.37.34-.988.495-1.15.157-.163.73.354.73.354zM1024.646-49.2c-.345-.03-.988.2-1.018-.344s.198-.917.443-1.222c.247-.305.438.396.717.606.28.21-.14.96-.14.96zM1023.18-49.34c-.43-.077.576 1.026.277 1.1-.3.072-1.05.54-1.198.48-.147-.057-.338-.6-.154-1.076.18-.475 1.074-.503 1.074-.503zM1028.493-51.5c.16.156.233.965-.062 1.006-.292.04-1.233.152-1.166-.217.07-.37.344-.987.5-1.148.158-.163.73.357.73.357zM1015.018-38.886c-.345-.03-.99.198-1.017-.348-.025-.544.203-.916.45-1.22.248-.304.435.4.712.61.277.21-.144.958-.144.958zM1025.635-52.543c-.43-.08.572 1.028.273 1.1-.3.07-1.053.535-1.2.476-.147-.057-.334-.602-.15-1.076.183-.477 1.077-.5 1.077-.5zM1028.89-51.997c-.163-.157-.237-.964.056-1.006.294-.042 1.234-.158 1.168.21s-.337.988-.493 1.15c-.157.163-.73-.354-.73-.354zM1030.06-51.086c.344.03.987-.2 1.017.343.027.545-.197.917-.443 1.222s-.438-.397-.717-.607.142-.96.142-.96zM1019.406-40.77c.343.03.988-.197 1.016.348.026.544-.202.916-.448 1.22-.247.304-.436-.4-.714-.61-.28-.21.146-.958.146-.958zM1017.823-39.436c.343.03.99-.197 1.016.348.025.544-.203.916-.45 1.22-.247.304-.435-.4-.713-.61-.28-.21.146-.958.146-.958zM790.57 143.318c.16.156.236.963-.058 1.005-.292.042-1.233.158-1.167-.21.066-.37.337-.988.493-1.15.158-.162.73.355.73.355zM788.834 141.956c-.43-.078.576 1.025.277 1.098-.298.072-1.05.54-1.197.48-.146-.057-.336-.6-.155-1.075.18-.476 1.076-.504 1.076-.504zM786.427 144.757c-.344-.03-.987.202-1.018-.344-.03-.544.195-.917.44-1.222.248-.304.44.398.72.607.28.21-.143.96-.143.96zM786.972 142.18c-.344-.034-.99.196-1.016-.35-.027-.545.2-.917.447-1.22.247-.304.435.4.713.61.28.21-.144.96-.144.96zM783.99 147.757c-.346-.03-.99.202-1.02-.344-.027-.544.197-.917.443-1.222.247-.304.438.398.717.607.28.21-.14.96-.14.96zM788.83 144.583c.16.16.234.966-.06 1.008-.294.04-1.235.152-1.17-.217.07-.37.345-.986.5-1.146.16-.162.73.356.73.356zM786.534 147.242c-.345-.033-.992.197-1.017-.35-.026-.544.2-.916.447-1.218.247-.305.436.398.713.61.28.21-.143.958-.143.958zM788.49 145.988c.345.03.988-.2 1.018.343.028.546-.197.918-.443 1.223-.245.305-.436-.397-.716-.607-.28-.208.14-.958.14-.958zM783.803 143.738c.346.03.99-.2 1.02.343.026.546-.2.918-.444 1.223-.247.305-.437-.397-.717-.607-.28-.208.14-.958.14-.958zM785.146 141.02c-.432-.08.575 1.024.276 1.097-.3.072-1.05.54-1.198.48-.146-.057-.336-.6-.154-1.075s1.076-.503 1.076-.503zM787.802 148.32c-.344-.032-.987.2-1.018-.345-.028-.544.196-.917.442-1.222.247-.305.438.397.718.606.28.21-.142.96-.142.96z"/></g></svg>