<?xml version="1.0" encoding="iso-8859-1"?>
<!-- Generator: Adobe Illustrator 16.0.4, SVG Export Plug-In . SVG Version: 6.00 Build 0)  -->
<!DOCTYPE svg PUBLIC "-//W3C//DTD SVG 1.1//EN" "http://www.w3.org/Graphics/SVG/1.1/DTD/svg11.dtd">
<svg version="1.1" xmlns="http://www.w3.org/2000/svg" xmlns:xlink="http://www.w3.org/1999/xlink" x="0px" y="0px" width="1366px"
	 height="700px" viewBox="0 0 1366 700" style="enable-background:new 0 0 1366 700;" xml:space="preserve">
<g id="Rock_Breaker_Rocks">
	<path style="fill:#231F20;" d="M762.844,554.488c-0.238,0.25-0.462,0.897-0.904,0.579c-0.442-0.319-0.592-0.729-0.676-1.11
		s0.582-0.092,0.92-0.18C762.521,553.69,762.844,554.488,762.844,554.488z"/>
	<path style="fill:#231F20;" d="M761.508,555.524c-0.33,0.286,1.161,0.191,1.031,0.471c-0.131,0.279-0.236,1.157-0.375,1.237
		c-0.135,0.076-0.678-0.114-0.936-0.554C760.971,556.24,761.508,555.524,761.508,555.524z"/>
	<path style="fill:#231F20;" d="M760.582,556.148c0.332-0.286-1.158-0.197-1.027-0.478c0.133-0.278,0.241-1.156,0.381-1.233
		c0.136-0.077,0.679,0.116,0.933,0.558C761.123,555.435,760.582,556.148,760.582,556.148z"/>
	<path style="fill:#231F20;" d="M760.318,552.365c-0.224,0.028-0.9-0.417-0.75-0.672c0.149-0.256,0.649-1.062,0.896-0.779
		c0.246,0.282,0.56,0.881,0.587,1.104C761.08,552.241,760.318,552.365,760.318,552.365z"/>
	<path style="fill:#231F20;" d="M761.52,551.652c0.24-0.25,0.464-0.898,0.905-0.58c0.442,0.318,0.591,0.729,0.675,1.11
		c0.086,0.383-0.582,0.093-0.92,0.18S761.52,551.652,761.52,551.652z"/>
	<path style="fill:#231F20;" d="M762.809,550.656c0.33-0.287-1.159-0.191-1.03-0.472c0.131-0.277,0.235-1.156,0.375-1.235
		c0.136-0.078,0.679,0.112,0.936,0.553C763.346,549.941,762.809,550.656,762.809,550.656z"/>
	<path style="fill:#231F20;" d="M762.602,545.921c-0.238,0.249-0.463,0.898-0.903,0.579c-0.443-0.318-0.593-0.729-0.677-1.109
		c-0.084-0.383,0.582-0.093,0.92-0.18C762.28,545.123,762.602,545.921,762.602,545.921z"/>
	<path style="fill:#231F20;" d="M761.266,546.957c-0.33,0.287,1.16,0.192,1.03,0.471c-0.13,0.279-0.235,1.158-0.374,1.236
		c-0.136,0.078-0.68-0.113-0.937-0.553C760.729,547.673,761.266,546.957,761.266,546.957z"/>
	<path style="fill:#231F20;" d="M760.521,547.217c0.33-0.285-1.16-0.197-1.028-0.475c0.132-0.279,0.239-1.157,0.38-1.235
		c0.135-0.078,0.678,0.116,0.933,0.558C761.061,546.505,760.521,547.217,760.521,547.217z"/>
	<path style="fill:#231F20;" d="M760.279,543.414c-0.224,0.028-0.9-0.418-0.75-0.674c0.15-0.255,0.649-1.062,0.896-0.779
		s0.56,0.881,0.588,1.105C761.042,543.289,760.279,543.414,760.279,543.414z"/>
	<path style="fill:#231F20;" d="M761.277,543.084c0.238-0.248,0.462-0.896,0.903-0.578c0.443,0.318,0.593,0.729,0.677,1.11
		s-0.582,0.092-0.92,0.179C761.599,543.883,761.277,543.084,761.277,543.084z"/>
	<path style="fill:#231F20;" d="M762.781,541.957c0.33-0.287-1.16-0.191-1.029-0.471c0.13-0.279,0.235-1.158,0.374-1.236
		c0.136-0.078,0.679,0.113,0.937,0.553C763.318,541.241,762.781,541.957,762.781,541.957z"/>
	<path style="fill:#231F20;" d="M759.951,526.143c-0.223,0.029-0.9-0.418-0.75-0.672c0.15-0.256,0.65-1.062,0.896-0.778
		c0.246,0.281,0.56,0.88,0.587,1.104C760.712,526.02,759.951,526.143,759.951,526.143z"/>
	<path style="fill:#231F20;" d="M761.339,525.309c0.239-0.248,0.462-0.896,0.904-0.577c0.442,0.317,0.592,0.728,0.676,1.109
		s-0.583,0.093-0.921,0.179C761.66,526.107,761.339,525.309,761.339,525.309z"/>
	<path style="fill:#231F20;" d="M762.639,524.47c0.33-0.287-1.16-0.191-1.031-0.471c0.132-0.278,0.236-1.157,0.375-1.237
		c0.136-0.077,0.68,0.115,0.937,0.553C763.176,523.754,762.639,524.47,762.639,524.47z"/>
	<path style="fill:#231F20;" d="M762.716,528.017c-0.239,0.249-0.462,0.897-0.905,0.579c-0.441-0.317-0.591-0.729-0.676-1.109
		c-0.083-0.383,0.583-0.094,0.922-0.181C762.395,527.219,762.716,528.017,762.716,528.017z"/>
	<path style="fill:#231F20;" d="M761.381,529.053c-0.33,0.287,1.16,0.192,1.03,0.472c-0.131,0.278-0.236,1.157-0.375,1.235
		c-0.136,0.078-0.679-0.112-0.937-0.553C760.844,529.769,761.381,529.053,761.381,529.053z"/>
	<path style="fill:#231F20;" d="M760.455,529.676c0.332-0.285-1.16-0.195-1.027-0.475c0.131-0.279,0.24-1.156,0.379-1.234
		c0.138-0.078,0.68,0.116,0.935,0.558C760.996,528.963,760.455,529.676,760.455,529.676z"/>
	<path style="fill:#231F20;" d="M760.194,534.71c-0.225,0.028-0.901-0.418-0.751-0.673s0.649-1.062,0.896-0.779
		s0.56,0.881,0.588,1.104C760.956,534.585,760.194,534.71,760.194,534.71z"/>
	<path style="fill:#231F20;" d="M761.582,533.877c0.238-0.25,0.461-0.898,0.904-0.58c0.441,0.319,0.592,0.729,0.676,1.111
		s-0.583,0.092-0.922,0.179C761.902,534.674,761.582,533.877,761.582,533.877z"/>
	<path style="fill:#231F20;" d="M762.881,533.037c0.33-0.287-1.16-0.191-1.03-0.471c0.13-0.28,0.235-1.158,0.374-1.236
		c0.137-0.078,0.681,0.113,0.938,0.553C763.418,532.321,762.881,533.037,762.881,533.037z"/>
	<path style="fill:#231F20;" d="M762.958,536.584c-0.239,0.249-0.462,0.898-0.904,0.578c-0.441-0.318-0.591-0.729-0.675-1.109
		c-0.084-0.383,0.582-0.092,0.92-0.18C762.638,535.786,762.958,536.584,762.958,536.584z"/>
	<path style="fill:#231F20;" d="M761.623,537.62c-0.33,0.287,1.16,0.192,1.03,0.471c-0.13,0.279-0.235,1.157-0.374,1.236
		c-0.137,0.078-0.68-0.114-0.938-0.553C761.086,538.336,761.623,537.62,761.623,537.62z"/>
	<path style="fill:#231F20;" d="M760.697,538.243c0.332-0.285-1.159-0.196-1.027-0.477c0.131-0.277,0.24-1.155,0.379-1.233
		c0.137-0.078,0.68,0.117,0.935,0.557C761.238,537.53,760.697,538.243,760.697,538.243z"/>
	<path style="fill:#231F20;" d="M761.327,531.818c-0.239,0.248-0.462,0.897-0.904,0.578c-0.442-0.318-0.592-0.728-0.676-1.109
		s0.583-0.093,0.921-0.18C761.006,531.02,761.327,531.818,761.327,531.818z"/>
	<path style="fill:#231F20;" d="M760.156,539.312c-0.331,0.285,1.16,0.196,1.026,0.477c-0.131,0.278-0.239,1.156-0.379,1.234
		c-0.136,0.077-0.679-0.117-0.934-0.558C759.615,540.026,760.156,539.312,760.156,539.312z"/>
	<path style="fill:#231F20;" d="M763.037,521.305c-0.238,0.249-0.461,0.898-0.904,0.579c-0.441-0.318-0.592-0.728-0.676-1.109
		c-0.084-0.383,0.583-0.093,0.922-0.181C762.717,520.507,763.037,521.305,763.037,521.305z"/>
	<path style="fill:#231F20;" d="M760.282,523.284c0.331-0.286-1.159-0.196-1.028-0.477c0.133-0.278,0.241-1.155,0.381-1.233
		c0.135-0.078,0.678,0.116,0.934,0.557C760.822,522.57,760.282,523.284,760.282,523.284z"/>
	<path style="fill:#231F20;" d="M760.018,519.501c-0.223,0.028-0.899-0.417-0.75-0.673c0.15-0.255,0.65-1.062,0.896-0.778
		c0.246,0.282,0.559,0.881,0.587,1.104C760.779,519.377,760.018,519.501,760.018,519.501z"/>
	<path style="fill:#231F20;" d="M761.22,518.788c0.239-0.249,0.462-0.898,0.904-0.579c0.442,0.318,0.592,0.729,0.676,1.11
		c0.083,0.382-0.583,0.093-0.921,0.179C761.541,519.586,761.22,518.788,761.22,518.788z"/>
	<path style="fill:#231F20;" d="M762.508,517.793c0.33-0.287-1.16-0.192-1.029-0.471c0.129-0.279,0.234-1.158,0.373-1.236
		c0.137-0.078,0.681,0.113,0.937,0.553C763.045,517.077,762.508,517.793,762.508,517.793z"/>
	<path style="fill:#231F20;" d="M762.301,513.057c-0.24,0.25-0.462,0.898-0.904,0.58s-0.592-0.729-0.676-1.11
		c-0.084-0.383,0.582-0.093,0.92-0.181C761.979,512.26,762.301,513.057,762.301,513.057z"/>
	<path style="fill:#231F20;" d="M760.965,514.094c-0.33,0.287,1.161,0.191,1.031,0.472c-0.131,0.278-0.236,1.156-0.375,1.235
		c-0.136,0.078-0.679-0.113-0.936-0.553C760.428,514.809,760.965,514.094,760.965,514.094z"/>
	<path style="fill:#231F20;" d="M760.221,514.354c0.331-0.285-1.16-0.196-1.027-0.477c0.132-0.278,0.24-1.156,0.38-1.234
		c0.135-0.077,0.679,0.117,0.933,0.558C760.761,513.64,760.221,514.354,760.221,514.354z"/>
	<path style="fill:#231F20;" d="M759.979,510.549c-0.224,0.029-0.9-0.417-0.75-0.672c0.15-0.256,0.649-1.062,0.896-0.779
		c0.246,0.283,0.56,0.882,0.588,1.104C760.741,510.426,759.979,510.549,759.979,510.549z"/>
	<path style="fill:#231F20;" d="M760.977,510.221c0.24-0.25,0.463-0.897,0.905-0.58c0.442,0.319,0.591,0.729,0.675,1.111
		s-0.582,0.092-0.92,0.18C761.298,511.019,760.977,510.221,760.977,510.221z"/>
	<path style="fill:#231F20;" d="M762.48,509.094c0.33-0.287-1.16-0.192-1.029-0.472s0.236-1.157,0.375-1.236
		c0.135-0.077,0.678,0.114,0.936,0.554C763.02,508.377,762.48,509.094,762.48,509.094z"/>
	<path style="fill:#231F20;" d="M759.651,493.278c-0.225,0.027-0.901-0.417-0.751-0.673c0.15-0.257,0.649-1.062,0.896-0.779
		s0.56,0.881,0.588,1.104C760.413,493.154,759.651,493.278,759.651,493.278z"/>
	<path style="fill:#231F20;" d="M761.039,492.445c0.238-0.25,0.461-0.898,0.904-0.58c0.441,0.318,0.592,0.729,0.675,1.11
		c0.084,0.384-0.582,0.093-0.921,0.181C761.359,493.243,761.039,492.445,761.039,492.445z"/>
	<path style="fill:#231F20;" d="M762.338,491.605c0.33-0.287-1.161-0.191-1.031-0.472c0.131-0.278,0.236-1.157,0.375-1.235
		c0.137-0.078,0.68,0.112,0.937,0.553C762.875,490.891,762.338,491.605,762.338,491.605z"/>
	<path style="fill:#231F20;" d="M762.415,495.152c-0.239,0.249-0.462,0.897-0.904,0.579c-0.441-0.319-0.592-0.729-0.676-1.11
		s0.583-0.092,0.921-0.18C762.094,494.355,762.415,495.152,762.415,495.152z"/>
	<path style="fill:#231F20;" d="M761.08,496.189c-0.33,0.286,1.16,0.19,1.03,0.471c-0.13,0.278-0.236,1.157-0.374,1.236
		c-0.138,0.077-0.681-0.115-0.938-0.555C760.542,496.903,761.08,496.189,761.08,496.189z"/>
	<path style="fill:#231F20;" d="M760.154,496.812c0.332-0.286-1.16-0.197-1.027-0.478c0.131-0.277,0.24-1.156,0.379-1.234
		c0.137-0.076,0.68,0.117,0.935,0.558C760.695,496.1,760.154,496.812,760.154,496.812z"/>
	<path style="fill:#231F20;" d="M759.895,501.846c-0.225,0.029-0.901-0.418-0.75-0.673c0.15-0.255,0.648-1.062,0.896-0.778
		c0.247,0.284,0.56,0.881,0.588,1.104S759.895,501.846,759.895,501.846z"/>
	<path style="fill:#231F20;" d="M761.281,501.013c0.238-0.249,0.462-0.897,0.904-0.579s0.592,0.729,0.676,1.11
		s-0.582,0.093-0.922,0.179C761.602,501.811,761.281,501.013,761.281,501.013z"/>
	<path style="fill:#231F20;" d="M762.58,500.173c0.33-0.287-1.16-0.191-1.029-0.471c0.129-0.278,0.235-1.157,0.373-1.236
		c0.137-0.077,0.68,0.114,0.938,0.553C763.117,499.457,762.58,500.173,762.58,500.173z"/>
	<path style="fill:#231F20;" d="M762.658,503.72c-0.239,0.249-0.462,0.897-0.904,0.579c-0.443-0.317-0.592-0.729-0.676-1.109
		c-0.084-0.384,0.582-0.094,0.92-0.181C762.337,502.922,762.658,503.72,762.658,503.72z"/>
	<path style="fill:#231F20;" d="M761.322,504.756c-0.33,0.287,1.161,0.191,1.031,0.471c-0.132,0.279-0.236,1.158-0.375,1.236
		c-0.136,0.078-0.68-0.113-0.937-0.553S761.322,504.756,761.322,504.756z"/>
	<path style="fill:#231F20;" d="M760.396,505.379c0.332-0.285-1.158-0.196-1.027-0.475c0.132-0.279,0.24-1.157,0.38-1.235
		c0.136-0.077,0.679,0.116,0.933,0.558C760.938,504.666,760.396,505.379,760.396,505.379z"/>
	<path style="fill:#231F20;" d="M761.026,498.954c-0.239,0.249-0.462,0.896-0.904,0.579c-0.442-0.319-0.591-0.729-0.676-1.111
		c-0.084-0.382,0.583-0.092,0.921-0.178C760.705,498.156,761.026,498.954,761.026,498.954z"/>
	<path style="fill:#231F20;" d="M759.855,506.449c-0.332,0.285,1.159,0.195,1.027,0.475s-0.241,1.157-0.38,1.235
		c-0.135,0.077-0.679-0.116-0.934-0.558C759.314,507.161,759.855,506.449,759.855,506.449z"/>
	<path style="fill:#231F20;" d="M760.787,516.264c-0.24,0.249-0.466,0.896-0.906,0.575c-0.441-0.32-0.589-0.729-0.672-1.112
		c-0.082-0.384,0.584-0.09,0.922-0.176S760.787,516.264,760.787,516.264z"/>
	<path style="fill:#231F20;" d="M762.793,467.854c-0.238,0.249-0.461,0.898-0.904,0.579c-0.441-0.317-0.592-0.728-0.676-1.109
		s0.583-0.092,0.922-0.179C762.473,467.058,762.793,467.854,762.793,467.854z"/>
	<path style="fill:#231F20;" d="M761.459,468.891c-0.33,0.287,1.16,0.192,1.029,0.472c-0.131,0.278-0.236,1.157-0.374,1.236
		c-0.136,0.077-0.68-0.113-0.938-0.554C760.921,469.606,761.459,468.891,761.459,468.891z"/>
	<path style="fill:#231F20;" d="M760.533,469.515c0.331-0.286-1.16-0.195-1.028-0.476s0.241-1.156,0.38-1.234
		c0.135-0.078,0.68,0.116,0.934,0.558C761.073,468.801,760.533,469.515,760.533,469.515z"/>
	<path style="fill:#231F20;" d="M762.679,485.76c-0.239,0.248-0.462,0.898-0.905,0.578c-0.44-0.318-0.59-0.728-0.674-1.109
		c-0.085-0.383,0.582-0.093,0.92-0.18C762.357,484.961,762.679,485.76,762.679,485.76z"/>
	<path style="fill:#231F20;" d="M761.344,486.796c-0.33,0.287,1.16,0.192,1.03,0.471c-0.13,0.279-0.235,1.157-0.374,1.236
		c-0.137,0.077-0.68-0.114-0.938-0.553C760.806,487.511,761.344,486.796,761.344,486.796z"/>
	<path style="fill:#231F20;" d="M760.418,487.42c0.332-0.286-1.16-0.197-1.027-0.477c0.131-0.278,0.24-1.156,0.379-1.234
		c0.138-0.078,0.681,0.117,0.935,0.557C760.959,486.706,760.418,487.42,760.418,487.42z"/>
	<path style="fill:#231F20;" d="M760.154,483.637c-0.226,0.028-0.902-0.418-0.751-0.674c0.15-0.255,0.648-1.061,0.896-0.778
		c0.246,0.283,0.561,0.882,0.588,1.104C760.916,483.512,760.154,483.637,760.154,483.637z"/>
	<path style="fill:#231F20;" d="M761.355,482.923c0.238-0.249,0.461-0.896,0.903-0.579c0.443,0.318,0.592,0.729,0.677,1.11
		c0.084,0.383-0.582,0.093-0.922,0.18C761.675,483.721,761.355,482.923,761.355,482.923z"/>
	<path style="fill:#231F20;" d="M762.645,481.928c0.329-0.287-1.162-0.19-1.03-0.471c0.13-0.279,0.235-1.158,0.374-1.236
		c0.136-0.078,0.679,0.113,0.937,0.554C763.183,481.214,762.645,481.928,762.645,481.928z"/>
	<path style="fill:#231F20;" d="M762.436,477.191c-0.237,0.25-0.461,0.897-0.903,0.58c-0.442-0.319-0.593-0.729-0.677-1.111
		c-0.082-0.382,0.584-0.092,0.923-0.179C762.115,476.395,762.436,477.191,762.436,477.191z"/>
	<path style="fill:#231F20;" d="M761.102,478.229c-0.33,0.287,1.16,0.191,1.029,0.472c-0.13,0.278-0.236,1.158-0.374,1.235
		c-0.136,0.078-0.679-0.112-0.937-0.553C760.562,478.943,761.102,478.229,761.102,478.229z"/>
	<path style="fill:#231F20;" d="M760.355,478.488c0.332-0.286-1.158-0.197-1.027-0.478c0.131-0.276,0.24-1.155,0.38-1.233
		c0.136-0.077,0.679,0.116,0.933,0.557C760.896,477.775,760.355,478.488,760.355,478.488z"/>
	<path style="fill:#231F20;" d="M760.115,474.685c-0.225,0.028-0.9-0.417-0.75-0.673c0.149-0.255,0.649-1.062,0.896-0.778
		c0.246,0.282,0.559,0.881,0.586,1.104C760.877,474.561,760.115,474.685,760.115,474.685z"/>
	<path style="fill:#231F20;" d="M761.113,474.355c0.237-0.249,0.461-0.898,0.903-0.579c0.442,0.318,0.593,0.728,0.677,1.109
		s-0.583,0.092-0.922,0.181C761.434,475.153,761.113,474.355,761.113,474.355z"/>
	<path style="fill:#231F20;" d="M762.4,473.36c0.33-0.287-1.16-0.192-1.029-0.472c0.13-0.278,0.234-1.156,0.374-1.235
		c0.136-0.077,0.679,0.113,0.936,0.553C762.938,472.645,762.4,473.36,762.4,473.36z"/>
	<path style="fill:#231F20;" d="M761.146,471.453c-0.239,0.248-0.463,0.897-0.904,0.579c-0.443-0.319-0.592-0.729-0.676-1.11
		s0.582-0.093,0.92-0.18C760.825,470.654,761.146,471.453,761.146,471.453z"/>
	<path style="fill:#231F20;" d="M760.236,480.095c0.223-0.027,0.898,0.421,0.747,0.678c-0.151,0.254-0.654,1.059-0.899,0.774
		c-0.244-0.285-0.555-0.885-0.582-1.106C759.474,480.215,760.236,480.095,760.236,480.095z"/>
	<path style="fill:#231F20;" d="M759.203,488.768c0.239-0.248,0.463-0.896,0.904-0.577c0.442,0.317,0.592,0.729,0.676,1.109
		c0.084,0.383-0.582,0.093-0.92,0.179C759.523,489.566,759.203,488.768,759.203,488.768z"/>
</g>
<g id="Layer_1">
</g>
</svg>
