<svg xmlns="http://www.w3.org/2000/svg" width="1366" height="700" viewBox="0 0 1366 700"><path d="M979.347 594.832h-4.313s-.66.107-1.293-.287c-.632-.396-.66-.46-.66-.46l-1.278-.106s.7-1.534-.396-2.76c-.95-1.06-2.783-1.343-3.85-.142-.92 1.04-.802 1.87-.713 2.236l-.254.41-.147.188h-2.532v.21h-2.822s.26-1.76-.42-2.584c-.82-.992-2.86-1.72-4.253-.162-1.207 1.35-.554 2.8-.554 2.8l-3.505.055-3.48-.937v-.25l.09-.08v-.66l-.145-.024v-.212l.158-.104v-2.03h2.98l.225.132h3.377l.146-.173h1.57l.736.316h.738l.146-.08h1.676l.013-1.146-.224-.344h-.316l-.13-.157h4.325l-.213.157-.065 1.74.204.206h.325l.446-.77h.346v-.557h.195v.54h.226v-.37h1.095l.856.356H969v-.29l.305-.33h.382v.08h.29v.515h.635l1.175 1.64s.118-.042.698-.41c.58-.37 1.01-.497 1.175-.556.305-.105 1.096-.25 1.396-.225.304.023.422.235.54.328.12.094.41.37.41.37s.41-.08.462.024c.053.104.053.29.146.464.093.17.408.948.964 1.556.555.607 1.24 1.12 1.52 1.383.275.265.594.447.594.447l-.014.054-.33-.004z" fill="#ba8e2d"/><path d="M970.904 593.03h-.438c0 .29-.114.546-.306.736a1.04 1.04 0 0 1-1.472 0 1.035 1.035 0 0 1 0-1.472c.188-.19.446-.307.734-.307.29 0 .548.114.738.307.188.188.306.446.306.735h.878c0-.528-.216-1.014-.562-1.357a1.914 1.914 0 0 0-1.358-.562 1.91 1.91 0 0 0-1.355.563 1.916 1.916 0 0 0 1.355 3.275 1.917 1.917 0 0 0 1.92-1.92h-.44"/><path d="M970.254 593.253l.02-.07v-.027l.01-.045v-.124l.18-.01a1.134 1.134 0 0 0-.062-.305l-.17.063-.072-.15-.045-.072-.054-.06.135-.125-.24-.197-.09.15-.082-.034-.08-.026-.08-.026-.09-.02.02-.18a.824.824 0 0 0-.313.01l.025.18-.232.08-.08.045-.1-.15a.86.86 0 0 0-.232.205l.136.116a.773.773 0 0 0-.16.305l-.172-.062a1.387 1.387 0 0 0-.043.313h.18l.01.09.035.17.026.082-.16.07c.045.1.1.19.16.27l.136-.115.062.062.062.054.145.09-.08.16c.09.046.197.08.296.1l.027-.18.07.01h.08l.1-.01h.01l.09-.018.036.18c.1-.026.196-.063.286-.117l-.09-.15.07-.045.062-.054.062-.06.055-.063.144.107c.062-.08.114-.18.15-.277l-.16-.055.01-.08z" fill="#ba8e2d"/><path d="M959.904 592.987h-.438c0 .29-.114.548-.306.737a1.04 1.04 0 0 1-.738.307 1.02 1.02 0 0 1-.734-.306 1.035 1.035 0 0 1 0-1.472 1.03 1.03 0 0 1 .734-.307c.29 0 .548.114.738.307.188.188.306.445.306.735h.878c0-.527-.216-1.013-.562-1.356a1.914 1.914 0 0 0-1.358-.56 1.91 1.91 0 0 0-1.355.56 1.916 1.916 0 0 0 1.355 3.275 1.92 1.92 0 0 0 1.92-1.918h-.44"/><path d="M959.254 593.21l.02-.07v-.026l.01-.045v-.126l.18-.01a1.134 1.134 0 0 0-.062-.305l-.17.06-.072-.15-.045-.07-.054-.063.135-.124-.24-.197-.09.15-.082-.034-.08-.026-.08-.026-.09-.02.02-.178a.804.804 0 0 0-.313.01l.025.178-.232.08-.08.045-.1-.15a.86.86 0 0 0-.232.205l.136.116a.773.773 0 0 0-.16.305l-.172-.06a1.387 1.387 0 0 0-.043.31h.18l.01.09.035.172.026.08-.16.072c.045.1.1.188.16.27l.136-.116.062.062.062.054.145.09-.08.16c.09.046.197.08.296.1l.027-.18.07.01h.08l.1-.01h.01l.09-.02.036.18c.1-.025.196-.06.286-.115l-.09-.152.07-.045.062-.054.062-.063.055-.062.144.107c.062-.08.114-.182.15-.277l-.16-.055.01-.08z" fill="#ba8e2d"/></svg>