<?xml version="1.0" encoding="iso-8859-1"?>
<!-- Generator: Adobe Illustrator 16.0.4, SVG Export Plug-In . SVG Version: 6.00 Build 0)  -->
<!DOCTYPE svg PUBLIC "-//W3C//DTD SVG 1.1//EN" "http://www.w3.org/Graphics/SVG/1.1/DTD/svg11.dtd">
<svg version="1.1" xmlns="http://www.w3.org/2000/svg" xmlns:xlink="http://www.w3.org/1999/xlink" x="0px" y="0px" width="1366px"
	 height="700px" viewBox="0 0 1366 700" style="enable-background:new 0 0 1366 700;" xml:space="preserve">
<g id="Scooptram_Development_Parts">
	<path style="fill:#BA8E2D;" d="M979.347,594.832h-4.313c0,0-0.66,0.107-1.293-0.287c-0.633-0.396-0.66-0.461-0.66-0.461
		l-1.279-0.105c0,0,0.699-1.533-0.396-2.758c-0.949-1.062-2.783-1.344-3.85-0.143c-0.92,1.039-0.802,1.869-0.713,2.236l-0.254,0.411
		l-0.146,0.187h-2.532v0.211h-2.823c0,0,0.259-1.761-0.421-2.585c-0.818-0.992-2.859-1.719-4.252-0.162
		c-1.207,1.35-0.554,2.8-0.554,2.8l-3.506,0.055l-3.481-0.938v-0.251l0.092-0.079v-0.659l-0.146-0.025v-0.211l0.158-0.104v-2.031
		h2.979l0.226,0.133h3.377l0.146-0.173h1.569l0.737,0.316h0.738l0.146-0.079h1.676l0.013-1.146l-0.224-0.344h-0.317l-0.131-0.157
		h4.326l-0.212,0.157l-0.065,1.74l0.204,0.206h0.325l0.445-0.771h0.346v-0.556h0.195v0.542h0.226v-0.37h1.095l0.856,0.355h1.347
		v-0.289l0.304-0.33h0.382v0.078h0.291v0.516h0.634l1.175,1.638c0,0,0.118-0.041,0.698-0.41c0.579-0.369,1.009-0.496,1.175-0.555
		c0.305-0.105,1.096-0.251,1.396-0.225c0.304,0.024,0.422,0.236,0.541,0.329c0.119,0.094,0.409,0.369,0.409,0.369
		s0.409-0.078,0.462,0.025c0.053,0.104,0.053,0.29,0.146,0.464c0.093,0.171,0.408,0.948,0.964,1.556
		c0.555,0.607,1.241,1.119,1.52,1.383c0.275,0.265,0.594,0.447,0.594,0.447l-0.014,0.054L979.347,594.832L979.347,594.832z"/>
	<path d="M970.904,593.029h-0.438c0,0.29-0.114,0.547-0.306,0.737c-0.188,0.188-0.448,0.306-0.738,0.306
		c-0.288,0-0.547-0.115-0.734-0.306c-0.189-0.188-0.308-0.447-0.308-0.737s0.116-0.547,0.308-0.735
		c0.188-0.19,0.446-0.307,0.734-0.307c0.29,0,0.548,0.114,0.738,0.307c0.188,0.188,0.306,0.446,0.306,0.735h0.878
		c0-0.527-0.216-1.013-0.562-1.356c-0.347-0.348-0.829-0.562-1.358-0.562c-0.527,0-1.012,0.216-1.355,0.562
		c-0.348,0.346-0.562,0.829-0.562,1.356c0,0.528,0.216,1.013,0.562,1.357c0.346,0.348,0.828,0.562,1.355,0.562
		c0.529,0,1.014-0.216,1.358-0.562c0.347-0.347,0.562-0.829,0.562-1.357H970.904"/>
	<path style="fill:#BA8E2D;" d="M970.254,593.253l0.021-0.071v-0.026l0.009-0.045v-0.125l0.18-0.011
		c-0.009-0.104-0.025-0.205-0.062-0.304l-0.171,0.062l-0.071-0.15l-0.045-0.072l-0.054-0.062l0.134-0.124l-0.241-0.197l-0.089,0.151
		l-0.082-0.035l-0.08-0.026l-0.08-0.026l-0.09-0.019l0.019-0.18c-0.099-0.02-0.206-0.01-0.312,0.01l0.025,0.179l-0.232,0.081
		l-0.08,0.044l-0.099-0.151c-0.091,0.056-0.172,0.126-0.233,0.206l0.135,0.116c-0.071,0.091-0.135,0.188-0.161,0.305l-0.171-0.062
		c-0.024,0.105-0.043,0.206-0.043,0.312h0.179l0.01,0.091l0.035,0.17l0.026,0.081l-0.161,0.071c0.045,0.099,0.1,0.188,0.161,0.27
		l0.135-0.116l0.062,0.062l0.062,0.054l0.145,0.09l-0.08,0.16c0.091,0.046,0.197,0.081,0.296,0.101l0.026-0.18l0.07,0.009h0.081
		l0.099-0.009h0.011l0.09-0.019l0.035,0.179c0.1-0.025,0.196-0.062,0.286-0.116l-0.09-0.151l0.071-0.045l0.062-0.054l0.062-0.062
		l0.055-0.062l0.145,0.107c0.062-0.081,0.114-0.181,0.151-0.277l-0.16-0.055L970.254,593.253z"/>
	<path d="M959.904,592.987h-0.438c0,0.29-0.114,0.548-0.306,0.737c-0.188,0.188-0.448,0.307-0.738,0.307
		c-0.288,0-0.547-0.116-0.734-0.307c-0.189-0.188-0.308-0.447-0.308-0.737s0.116-0.547,0.308-0.735
		c0.188-0.189,0.446-0.307,0.734-0.307c0.29,0,0.548,0.114,0.738,0.307c0.188,0.188,0.306,0.445,0.306,0.735h0.878
		c0-0.527-0.216-1.013-0.562-1.356c-0.347-0.348-0.829-0.562-1.358-0.562c-0.527,0-1.012,0.216-1.355,0.562
		c-0.348,0.346-0.562,0.829-0.562,1.356c0,0.528,0.216,1.013,0.562,1.357c0.346,0.348,0.828,0.562,1.355,0.562
		c0.529,0,1.014-0.217,1.358-0.562c0.347-0.347,0.562-0.829,0.562-1.357H959.904"/>
	<path style="fill:#BA8E2D;" d="M959.254,593.211l0.021-0.071v-0.026l0.009-0.045v-0.125l0.18-0.011
		c-0.009-0.105-0.025-0.204-0.062-0.304l-0.171,0.062l-0.071-0.15l-0.045-0.072l-0.054-0.062l0.134-0.124l-0.241-0.197l-0.089,0.151
		l-0.082-0.035l-0.08-0.026l-0.08-0.026l-0.09-0.019l0.019-0.179c-0.099-0.021-0.206-0.011-0.312,0.009l0.025,0.179l-0.232,0.081
		l-0.08,0.044l-0.099-0.151c-0.091,0.056-0.172,0.126-0.233,0.206l0.135,0.116c-0.071,0.091-0.135,0.188-0.161,0.305l-0.171-0.062
		c-0.024,0.105-0.043,0.206-0.043,0.312h0.179l0.01,0.09l0.035,0.171l0.026,0.081l-0.161,0.071c0.045,0.099,0.1,0.188,0.161,0.27
		l0.135-0.116l0.062,0.062l0.062,0.054l0.145,0.09l-0.08,0.16c0.091,0.046,0.197,0.081,0.296,0.101l0.026-0.18l0.07,0.009h0.081
		l0.099-0.009h0.011l0.09-0.02l0.035,0.18c0.1-0.026,0.196-0.062,0.286-0.116l-0.09-0.151l0.071-0.045l0.062-0.054l0.062-0.062
		l0.055-0.062l0.145,0.107c0.062-0.081,0.114-0.182,0.151-0.277l-0.16-0.055L959.254,593.211z"/>
</g>
<g id="Layer_1">
</g>
</svg>
