<?xml version="1.0" encoding="iso-8859-1"?>
<!-- Generator: Adobe Illustrator 16.0.4, SVG Export Plug-In . SVG Version: 6.00 Build 0)  -->
<!DOCTYPE svg PUBLIC "-//W3C//DTD SVG 1.1//EN" "http://www.w3.org/Graphics/SVG/1.1/DTD/svg11.dtd">
<svg version="1.1" xmlns="http://www.w3.org/2000/svg" xmlns:xlink="http://www.w3.org/1999/xlink" x="0px" y="0px" width="1366px"
	 height="700px" viewBox="0 0 1366 700" style="enable-background:new 0 0 1366 700;" xml:space="preserve">
<g id="Scooptram_Development_Pile">
	<path style="fill:#231F20;" d="M976.485,591.926c0,0,0.064-0.206,0.196-0.297c0.131-0.092,0.269-0.209,0.196-0.344
		c-0.116-0.218,0.228-0.108,0.384-0.327c0.058-0.079-0.108-0.219,0.172-0.344c0.2-0.089,0.597,0.047,0.734,0.047
		c0.229,0,0.547-0.267,0.734,0.078c0.109,0.201,0.043,0.386,0.306,0.432s0.394,0.16,0.459,0.298s0.099,0.344,0.065,0.479
		c-0.032,0.139-0.263,0.299-0.032,0.436c0.229,0.138,0.523,0.185,0.394,0.436c-0.132,0.252-0.229,0.413-0.197,0.665
		c0.033,0.251,0.229,0.457,0.229,0.457s0.164,0.184,0.132,0.273c-0.033,0.093-0.296,0.093-0.229,0.275
		c0.064,0.184-0.033,0.365-0.033,0.365l-0.787-0.067c0,0-1.247-0.779-1.838-1.305c-0.591-0.527-1.05-1.421-1.05-1.421
		L976.485,591.926z"/>
</g>
<g id="Layer_1">
</g>
</svg>
