<svg xmlns="http://www.w3.org/2000/svg" width="1366" height="700" viewBox="0 0 1366 700"><path d="M976.485 591.926s.064-.206.196-.297c.132-.093.27-.21.197-.345-.116-.218.228-.108.384-.327.06-.08-.107-.22.173-.344.2-.09.597.047.734.047.23 0 .547-.266.734.08.11.2.044.385.307.43s.394.16.46.3.098.343.064.478c-.03.14-.262.3-.03.436.228.138.522.185.393.436-.132.252-.23.413-.197.665.033.25.23.457.23.457s.163.184.13.273c-.032.093-.295.093-.228.275.064.184-.033.365-.033.365l-.787-.067s-1.247-.78-1.838-1.305c-.59-.527-1.05-1.42-1.05-1.42l.165-.137z" fill="#231f20"/></svg>