<?xml version="1.0" encoding="iso-8859-1"?>
<!-- Generator: Adobe Illustrator 16.0.4, SVG Export Plug-In . SVG Version: 6.00 Build 0)  -->
<!DOCTYPE svg PUBLIC "-//W3C//DTD SVG 1.1//EN" "http://www.w3.org/Graphics/SVG/1.1/DTD/svg11.dtd">
<svg version="1.1" xmlns="http://www.w3.org/2000/svg" xmlns:xlink="http://www.w3.org/1999/xlink" x="0px" y="0px" width="1366px"
	 height="700px" viewBox="0 0 1366 700" style="enable-background:new 0 0 1366 700;" xml:space="preserve">
<g id="Skip_Rocks_1">
	<path style="fill:#231F20;" d="M786.148,660.636c0,0-1.247,0.172-1.322-0.259c-0.075-0.433-0.248-1.381-0.06-1.511
		c0.189-0.128,0.983-0.69,0.189-0.69c-0.305,0-0.417-0.688-0.267-0.86c0.151-0.173,0.341-0.259,0.188-0.734
		c-0.151-0.475-0.522-1.034-0.113-1.034c1.062,0,0.037-0.775,0.113-1.164c0.076-0.39,0.151-0.906,0.681-0.303
		c0.17,0.193,0.418-0.129,0.759-0.216c0.342-0.086,0.683-0.52,0.758-0.345c0.073,0.173-0.001,0.433,0.416,0.476
		c0.417,0.042,0.832-0.173,1.061-0.173c0.228,0,0.644,0.345,0.793,0.519c0.152,0.172,0.038,0.521,0.53,0.302
		c0.492-0.217,1.021-0.732,1.399-0.776c0.379-0.043,0.72,0.647,0.982,0.647c0.268,0,0.455-0.562,1.099-0.69
		c0.645-0.128,0.796-0.214,0.945,0.173c0.151,0.39,0.38,0.689,0.303,0.949c-0.074,0.258-0.566,0.818-0.074,0.99
		c0.49,0.174,0.981-0.129,1.021,0.216c0.038,0.346,0.229,0.775,0,0.993c-0.227,0.215-0.869-0.174-0.188,0.731
		c0.297,0.396,0.416,0.906,0.341,1.034c-0.075,0.13,0.136,1.424-0.204,1.642c-0.342,0.214-0.795,0.043-1.211-0.389
		c-0.368-0.384-0.53,0.56-1.022,0.688c-0.49,0.131-0.832-1.381-1.323-0.561c-0.15,0.25-0.528-0.26-0.907,0.128
		c-0.379,0.389-0.907,0.389-1.172,0.389c-0.268,0-0.316-1.304-0.646-0.732c-0.644,1.123-1.099-0.474-1.552,0.345
		c-0.157,0.285-0.565-0.222-0.719-0.257C786.227,659.988,786.148,660.636,786.148,660.636z"/>
</g>
<g id="Layer_1">
</g>
</svg>
