<svg xmlns="http://www.w3.org/2000/svg" width="1366" height="700" viewBox="149.496 666.643 1366 700"><path fill="#231F20" d="M940.508 1298.65h3.238l1.864 2.845 3.004.023-.166 44.728h-12.91l.022-44.776 3.21.01"/><path fill="#FFF" d="M941.075 1299.35h2.153l1.423 2.145h-4.945M935.397 1305.004h12.15v14.207h-12.15z"/><path fill="none" stroke="#231F20" stroke-width=".983" stroke-miterlimit="10" d="M941.936 1304.243v16.163"/><g fill="#231F20"><path d="M941.68 1033.707v-.593l.757-.825v.648M941.7 1031.142v-.593l.757-.828v.65M941.68 1032.445v-.592l.757-.824v.646M941.7 1029.854v-.59l.757-.825v.647M941.68 1028.64v-.59l.757-.827v.65M941.68 1027.356v-.59l.757-.826v.65M941.7 1026.03v-.59l.757-.827v.65M941.7 1024.745v-.59l.757-.824v.65M941.68 1023.53v-.59l.757-.827v.648M941.68 1022.246v-.59l.757-.824v.647M941.714 1019.65v-.59l.755-.826v.65M941.693 1020.958v-.593l.757-.825v.648M941.714 1018.368v-.592l.755-.825v.65M941.693 1017.15v-.59l.757-.825v.65M941.693 1015.87v-.592l.757-.825v.648M941.714 1014.54v-.59l.755-.824v.646M941.714 1013.258v-.59l.755-.826v.65M941.693 1012.042v-.59l.757-.827v.648M941.693 1010.76v-.592l.757-.825v.65M941.72 1008.178v-.59l.757-.826v.648M941.7 1009.483v-.59l.757-.826v.65M941.72 1006.896v-.59l.757-.827v.647M941.7 1005.68v-.59l.757-.827v.648M941.7 1004.395v-.59l.757-.825v.648M941.72 1003.068v-.59l.757-.827v.652M941.72 1001.785v-.59l.757-.826v.65M941.7 1000.57v-.59l.757-.827v.648M941.7 999.286v-.59l.757-.826v.65M941.72 996.698v-.59l.757-.826v.648M941.7 998.004v-.59l.757-.826v.645M941.72 995.415v-.59l.757-.826v.647M941.7 994.197v-.59l.757-.824v.648M941.7 992.916v-.59l.757-.828v.65M941.72 991.588v-.59l.757-.826v.65M941.72 990.306v-.59l.757-.827v.647M941.7 989.09v-.592l.757-.825v.648M941.7 987.805v-.59l.757-.824v.648M941.7 985.24v-.59l.757-.825v.646M941.68 986.547v-.593l.757-.823v.646M941.7 983.956v-.59l.757-.824v.648M941.68 982.74v-.59l.757-.826v.65M941.68 981.457v-.59l.757-.826v.65M941.7 980.13v-.59l.757-.825v.647M941.7 978.847v-.59l.757-.825v.648M941.68 977.63v-.59l.757-.826v.648M941.68 976.348v-.59l.757-.826v.647M941.7 973.738v-.59l.757-.826v.648M941.68 975.044v-.593l.757-.822v.645M941.7 972.455v-.59l.757-.826v.648M941.68 971.237v-.59l.757-.826v.65M941.68 969.955v-.592l.757-.825v.65M941.7 968.628v-.59l.757-.826v.647M941.7 967.346v-.592l.757-.825v.647M941.68 966.127v-.59l.757-.824v.648M941.68 964.845v-.59l.757-.826v.648M941.72 962.258v-.593l.757-.823v.646M941.7 963.563v-.592l.757-.823v.647M941.72 960.974v-.59l.757-.824v.645M941.7 959.758v-.592l.757-.823v.648M941.7 958.475v-.59l.757-.826v.646M941.72 957.148v-.59l.757-.827v.65M941.72 955.865v-.59l.757-.828v.65M941.7 954.65v-.593l.757-.824v.648M941.7 953.364v-.59l.757-.826v.65M941.72 950.755v-.593l.757-.823v.647M941.7 952.06v-.592l.757-.823v.648M941.72 949.473v-.593l.757-.823v.647M941.7 948.255v-.59l.757-.825v.648M941.7 946.974v-.593l.757-.822v.647M941.72 945.646v-.59l.757-.827v.647M941.72 944.362v-.59l.757-.824v.646M941.7 943.146v-.59l.757-.826v.648M941.7 941.863v-.59l.757-.826v.65M941.7 939.298v-.593l.757-.823v.646M941.68 940.602v-.59l.757-.826v.648M941.7 938.014v-.59l.757-.826v.647M941.68 936.797v-.59l.757-.826v.65M941.68 935.515v-.59l.757-.826v.646M941.7 934.188v-.59l.757-.827v.65M941.7 932.903v-.59l.757-.824v.645M941.68 931.688v-.59l.757-.825v.648M941.68 930.404v-.59l.757-.826v.65M941.72 927.818v-.592l.757-.826v.648M941.7 929.122v-.59l.757-.827v.65M941.72 926.533v-.59l.757-.826v.648M941.7 925.317v-.59l.757-.826v.65M941.7 924.033v-.59l.757-.825v.65M941.72 922.708v-.593l.757-.823v.648M941.72 921.423v-.59l.757-.825v.648M941.7 920.208v-.59l.757-.826v.648M941.7 918.924v-.59l.757-.825v.647M941.7 916.38v-.59l.757-.825v.648M941.68 917.686v-.592l.757-.823v.647M941.7 915.097v-.59l.757-.825v.648M941.68 913.882v-.59l.757-.827v.65M941.68 912.598v-.59l.757-.826v.65M941.7 911.27v-.59l.757-.825v.65M941.7 909.988v-.59l.757-.826v.65M941.68 908.77v-.59l.757-.825v.65M941.68 907.49v-.592l.757-.825v.648M941.72 904.9v-.59l.757-.825v.647M941.7 906.206v-.592l.757-.823v.648M941.72 903.617v-.59l.757-.826v.65M941.7 902.4v-.59l.757-.825v.65M941.7 901.118v-.59l.757-.826v.65M941.72 899.79v-.59l.757-.825v.65M941.72 898.508v-.59l.757-.826v.648M941.7 897.29v-.59l.757-.825v.648M941.7 896.008v-.59l.757-.825v.648M941.72 893.443v-.59l.757-.826v.647M941.7 894.748v-.592l.757-.824v.647M941.72 892.16v-.59l.757-.827v.65M941.7 890.942v-.59l.757-.825v.648M941.7 889.66v-.59l.757-.826v.65M941.72 888.333v-.59l.757-.826v.648M941.72 887.05v-.59l.757-.826v.648M941.7 885.833v-.59l.757-.826v.65M941.7 884.55v-.59l.757-.825v.648M941.64 1184.167v-.593l.756-.823v.647M941.66 1181.6v-.59l.757-.828v.65M941.64 1182.903v-.59l.756-.824v.646M941.66 1180.315v-.588l.757-.828v.65M941.64 1179.098v-.587l.756-.827v.65M941.64 1177.814v-.586l.756-.826v.65M941.66 1176.49v-.59l.757-.826v.648M941.66 1175.205v-.59l.757-.824v.65M941.64 1173.99v-.59l.756-.825v.648M941.64 1172.706v-.59l.756-.824v.648M941.672 1170.112v-.59l.757-.826v.648M941.653 1171.418v-.593l.757-.825v.648M941.672 1168.83v-.594l.757-.823v.647M941.653 1167.61v-.588l.757-.825v.647M941.653 1166.33v-.592l.757-.823v.646M941.672 1165.002v-.59l.757-.826v.648M941.672 1163.72v-.59l.757-.826v.647M941.653 1162.502v-.59l.757-.825v.648M941.653 1161.22v-.59l.757-.825v.647M941.68 1158.64v-.59l.757-.826v.648M941.66 1159.945v-.592l.757-.824v.646M941.68 1157.355v-.588l.757-.828v.65M941.66 1156.14v-.59l.757-.825v.646M941.66 1154.854v-.588l.757-.826v.648M941.68 1153.528v-.59l.757-.825v.65M941.68 1152.245v-.59l.757-.824v.65M941.66 1151.03v-.59l.757-.825v.648M941.66 1149.746v-.59l.757-.824v.647M941.68 1147.16v-.593l.757-.825v.648M941.66 1148.464v-.59l.757-.824v.645M941.68 1145.875v-.59l.757-.826v.65M941.66 1144.657v-.59l.757-.824v.648M941.66 1143.375v-.59l.757-.825v.648M941.68 1142.05v-.59l.757-.828v.65M941.68 1140.766v-.59l.757-.825v.65M941.66 1139.55v-.59l.757-.827v.65M941.66 1138.267v-.59l.757-.826v.648M941.66 1135.7v-.59l.757-.825v.648M941.64 1137.01v-.594l.756-.826v.648M941.66 1134.418v-.59l.757-.824v.648M941.64 1133.2v-.59l.756-.826v.65M941.64 1131.92v-.594l.756-.825v.65M941.66 1130.59V1130l.757-.827v.647M941.66 1129.308v-.59l.757-.826v.65M941.64 1128.09v-.59l.756-.824v.648M941.64 1126.81v-.593l.756-.825v.65M941.66 1124.198v-.59l.757-.824v.648M941.64 1125.506v-.593l.756-.825v.647M941.66 1122.913v-.59l.757-.824v.647M941.64 1121.7v-.592l.756-.825v.648M941.64 1120.414v-.59l.756-.824v.648M941.66 1119.088v-.59l.757-.824v.647M941.66 1117.806v-.59l.757-.827v.65M941.64 1116.59v-.594l.756-.823v.648M941.64 1115.307v-.59l.756-.826v.648M941.68 1112.72v-.593l.757-.825v.648M941.66 1114.023v-.59l.757-.826v.65M941.68 1111.436v-.59l.757-.826v.647M941.66 1110.217v-.59l.757-.824v.648M941.66 1108.935v-.59l.757-.824v.648M941.68 1107.61v-.59l.757-.83v.652M941.68 1106.325v-.59l.757-.826v.647M941.66 1105.11v-.59l.757-.827v.65M941.66 1103.824v-.59l.757-.824v.65M941.68 1101.217v-.59l.757-.826v.65M941.66 1102.522v-.592l.757-.824v.647M941.68 1099.933v-.59l.757-.826v.65M941.66 1098.717v-.592l.757-.825v.648M941.66 1097.434v-.59l.757-.826v.65M941.68 1096.107v-.59l.757-.827v.65M941.68 1094.824v-.593l.757-.822v.648M941.66 1093.606v-.59l.757-.826v.65M941.66 1092.323v-.59l.757-.824v.648M941.66 1089.758v-.59l.757-.826v.65M941.64 1091.063v-.59l.756-.826v.65M941.66 1088.474v-.59l.757-.825v.647M941.64 1087.257v-.59l.756-.826v.65M941.64 1085.975v-.59l.756-.826v.646M941.66 1084.647v-.588l.757-.827v.65M941.66 1083.363v-.59l.757-.824v.647M941.64 1082.15v-.593l.756-.824v.648M941.64 1080.864v-.59l.756-.826v.65M941.68 1078.278v-.59l.757-.827v.65M941.66 1079.584v-.59l.757-.827v.648M941.68 1076.995v-.59l.757-.826v.648M941.66 1075.777v-.59l.757-.824v.648M941.66 1074.494v-.59l.757-.824v.65M941.68 1073.168v-.59l.757-.826v.647M941.68 1071.885v-.59l.757-.826v.647M941.66 1070.667v-.59l.757-.824v.648M941.66 1069.385v-.59l.757-.825v.648M941.66 1066.844v-.593l.757-.824v.647M941.64 1068.147v-.592l.756-.824v.647M941.66 1065.56v-.592l.757-.825v.65M941.64 1064.34v-.588l.756-.825v.646M941.64 1063.06v-.592l.756-.825v.647M941.66 1061.73v-.587l.757-.828v.65M941.66 1060.447v-.59l.757-.824v.648M941.64 1059.23v-.587l.756-.827v.65M941.64 1057.948v-.59l.756-.824v.646M941.68 1055.36v-.59l.757-.827v.65M941.66 1056.667v-.593l.757-.82v.643M941.68 1054.08v-.592l.757-.825v.648M941.66 1052.86v-.588l.757-.827v.65M941.66 1051.578v-.59l.757-.824v.648M941.68 1050.252v-.59l.757-.826v.647M941.68 1048.967v-.59l.757-.824v.648M941.66 1047.75v-.588l.757-.825v.647M941.66 1046.47v-.59l.757-.826v.648M941.68 1043.904v-.592l.757-.824v.65M941.66 1045.21v-.593l.757-.823v.648M941.68 1042.62v-.59l.757-.824v.648M941.66 1041.404v-.59l.757-.826v.648M941.66 1040.12v-.592l.757-.823v.65M941.68 1038.793v-.59l.757-.826v.647M941.68 1037.51v-.59l.757-.824v.648M941.66 1036.292v-.59l.757-.824v.647M941.66 1035.01v-.59l.757-.827v.65M941.68 1297.75v-.59l.757-.825v.648M941.66 1299.057v-.59l.757-.826v.65M941.68 1296.47v-.592l.757-.825v.647M941.66 1295.25v-.59l.757-.824v.648M941.66 1293.968v-.59l.757-.824v.648M941.68 1292.642v-.59l.757-.826v.65M941.68 1291.358v-.59l.757-.826v.65M941.66 1290.143v-.59l.757-.826v.65M941.66 1288.857v-.588l.757-.827v.65M941.66 1286.294v-.59l.757-.826v.646M941.64 1287.6v-.593l.756-.823v.646M941.66 1285.01v-.59l.757-.824v.645M941.64 1283.794v-.59l.756-.827v.648M941.64 1282.51v-.59l.756-.827v.65M941.66 1281.183v-.59l.757-.825v.648M941.66 1279.9v-.59l.757-.825v.647M941.64 1278.684v-.59l.756-.826v.647M941.64 1277.4v-.59l.756-.826v.65M941.66 1274.79v-.59l.757-.825v.648M941.64 1276.097v-.593l.756-.823v.65M941.66 1273.507v-.59l.757-.824v.645M941.64 1272.29v-.59l.756-.825v.65M941.64 1271.008v-.59l.756-.826v.648M941.66 1269.682v-.59l.757-.826v.65M941.66 1268.396v-.588l.757-.826v.65M941.64 1267.18v-.59l.756-.823v.647M941.64 1265.897v-.59l.756-.826v.65M941.68 1263.312v-.593l.757-.824v.647M941.66 1264.617v-.593l.757-.823v.65M941.68 1262.026v-.588l.757-.826v.65M941.66 1260.81v-.59l.757-.824v.65M941.66 1259.528v-.59l.757-.825v.647M941.68 1258.2v-.59l.757-.825v.65M941.68 1256.92v-.592l.757-.826v.648M941.66 1255.7v-.59l.757-.824v.65M941.66 1254.418v-.59l.757-.824v.647M941.68 1251.81v-.592l.757-.825v.647M941.66 1253.114v-.593l.757-.82v.646M941.68 1250.525v-.592l.757-.824v.648M941.66 1249.308v-.59l.757-.824v.648M941.66 1248.025v-.59l.757-.825v.647M941.68 1246.696v-.59l.757-.824v.65M941.68 1245.416v-.59l.757-.826v.65M941.66 1244.197v-.59l.757-.824v.65M941.66 1242.917v-.59l.757-.828v.648M941.66 1240.352v-.593l.757-.824v.645M941.64 1241.657v-.593l.756-.823v.647M941.66 1239.066v-.59l.757-.826v.65M941.64 1237.85v-.592l.756-.823v.647M941.64 1236.568v-.59l.756-.827v.65M941.66 1235.24v-.59l.757-.825v.65M941.66 1233.957v-.59l.757-.825v.646M941.64 1232.74v-.59l.756-.826v.65M941.64 1231.458v-.59l.756-.826v.647M941.68 1228.87v-.592l.757-.825v.65M941.66 1230.175v-.593l.757-.82v.645M941.68 1227.587v-.59l.757-.824v.647M941.66 1226.37v-.59l.757-.826v.65M941.66 1225.086v-.59l.757-.824v.647M941.68 1223.762v-.593l.757-.825v.648M941.68 1222.477v-.59l.757-.825v.65M941.66 1221.26v-.59l.757-.825v.647M941.66 1219.978v-.59l.757-.826v.648M941.66 1217.434v-.59l.757-.824v.647M941.64 1218.74v-.592l.756-.824v.647M941.66 1216.148v-.588l.757-.826v.65M941.64 1214.935v-.59l.756-.826v.646M941.64 1213.65v-.59l.756-.827v.65M941.66 1212.323v-.59l.757-.824v.647M941.66 1211.04v-.59l.757-.824v.648M941.64 1209.824v-.593l.756-.822v.65M941.64 1208.542v-.59l.756-.827v.648M941.68 1205.955v-.593l.757-.825v.65M941.66 1207.26v-.592l.757-.825v.648M941.68 1204.67v-.59l.757-.826v.648M941.66 1203.452v-.59l.757-.824v.65M941.66 1202.17v-.59l.757-.824v.647M941.68 1200.843v-.59l.757-.826v.65M941.68 1199.56v-.588l.757-.827v.647M941.66 1198.345v-.59l.757-.827v.65M941.66 1197.06v-.59l.757-.824v.648M941.68 1194.496v-.59l.757-.826v.65M941.66 1195.802v-.59l.757-.826v.647M941.68 1193.213v-.592l.757-.825v.648M941.66 1191.995v-.59l.757-.826v.648M941.66 1190.713v-.59l.757-.826v.647M941.68 1189.384v-.59l.757-.824v.648M941.68 1188.102v-.59l.757-.824v.647M941.66 1186.886v-.59l.757-.827v.647M941.66 1185.603v-.59l.757-.826v.65"/></g></svg>