<svg xmlns="http://www.w3.org/2000/svg" width="1366" height="700" viewBox="0 0 1366 700"><path d="M786.148 660.636s-1.247.172-1.322-.26c-.075-.432-.248-1.38-.06-1.51.19-.128.983-.69.19-.69-.306 0-.418-.688-.268-.86.15-.173.34-.26.188-.734-.15-.475-.522-1.034-.113-1.034 1.062 0 .037-.775.113-1.164.076-.39.15-.906.68-.303.17.194.42-.128.76-.215.342-.086.683-.52.758-.345.073.173 0 .433.416.476.417.042.832-.173 1.06-.173.23 0 .645.345.794.52.152.17.038.52.53.3.492-.216 1.02-.73 1.4-.775.378-.043.72.647.98.647.27 0 .456-.562 1.1-.69.645-.128.796-.214.945.173.15.39.38.69.302.95-.074.257-.566.817-.074.99.49.173.98-.13 1.02.215.04.346.23.775 0 .993-.226.215-.868-.174-.187.73.298.397.417.907.342 1.035-.075.13.136 1.425-.204 1.643-.342.214-.795.043-1.21-.39-.37-.383-.53.56-1.023.69-.49.13-.832-1.382-1.323-.562-.15.25-.528-.26-.907.13-.38.388-.907.388-1.172.388-.268 0-.316-1.304-.646-.732-.644 1.123-1.1-.474-1.552.345-.157.286-.565-.22-.72-.256-.718-.176-.797.472-.797.472z" fill="#231f20"/></svg>