<svg xmlns="http://www.w3.org/2000/svg" width="1366" height="700" viewBox="0 0 1366 700"><path d="M786.118 672.417s-1.248.172-1.323-.26c-.075-.433-.248-1.38-.06-1.51.19-.128.983-.69.19-.69-.306 0-.418-.69-.268-.86.15-.173.34-.26.188-.734-.15-.476-.522-1.034-.112-1.034 1.06 0-.073-.784.003-1.172.075-.39.157-.76.688-.156-.04-.046 2.515-.45.875-.03.34-.087.7-.156.774.02.073.172-.032-.256.385-.213.416.04.83-.175 1.06-.175.228 0 .644.346.794.52.15.172.037.52.53.302.49-.217 1.02-.732 1.398-.776.38-.042.72.648.983.648.267 0 .522-.32 1.166-.45.69.062 1.282-.188 1.596.062.15.39.38.688.303.95-.076.257-.568.817-.076.988.49.175.266-.26.305.085.036.347.228.776 0 .993-.23.215-.87-.173-.19.732.298.395.417.905.342 1.034-.075.13.136 1.424-.204 1.642-.342.214-.795.043-1.21-.39-.37-.383-.53.56-1.022.69-.49.13-.832-1.38-1.324-.56-.15.25-.528-.26-.907.127-.38.39-.906.39-1.172.39-.267 0-.316-1.304-.646-.732-.644 1.122-1.1-.475-1.552.345-.157.285-.565-.223-.72-.257-.72-.176-.797.47-.797.47z" fill="#231f20"/></svg>