<?xml version="1.0" encoding="utf-8"?>
<!-- Generator: Adobe Illustrator 16.0.4, SVG Export Plug-In . SVG Version: 6.00 Build 0)  -->
<!DOCTYPE svg PUBLIC "-//W3C//DTD SVG 1.1//EN" "http://www.w3.org/Graphics/SVG/1.1/DTD/svg11.dtd">
<svg version="1.1" xmlns="http://www.w3.org/2000/svg" xmlns:xlink="http://www.w3.org/1999/xlink" x="0px" y="0px" width="1366px"
	 height="700px" viewBox="149.496 666.643 1366 700" enable-background="new 149.496 666.643 1366 700" xml:space="preserve">
<g id="Skip_1_">
	<g>
		<polygon fill="#231F20" points="938.506,1298.651 941.744,1298.651 943.608,1301.495 946.612,1301.518 946.446,1346.246 
			933.535,1346.246 933.558,1301.47 936.77,1301.481 		"/>
		<polygon fill="#FFFFFF" points="939.073,1299.351 941.226,1299.351 942.649,1301.495 937.703,1301.495 		"/>
		<rect x="933.396" y="1305.004" fill="#FFFFFF" width="12.151" height="14.207"/>
		<polyline fill="#231F20" points="939.442,1304.243 939.442,1320.406 940.425,1320.406 940.425,1304.243 		"/>
	</g>
</g>
<g id="Skip_chain_1_">
	<g>
		<polygon fill="#231F20" points="939.678,1033.707 939.678,1033.114 940.435,1032.289 940.435,1032.938 		"/>
		<polygon fill="#231F20" points="939.699,1031.142 939.699,1030.549 940.455,1029.722 940.455,1030.372 		"/>
		<polygon fill="#231F20" points="939.678,1032.445 939.678,1031.853 940.435,1031.029 940.435,1031.676 		"/>
		<polygon fill="#231F20" points="939.699,1029.854 939.699,1029.265 940.455,1028.439 940.455,1029.087 		"/>
		<polygon fill="#231F20" points="939.678,1028.64 939.678,1028.049 940.435,1027.223 940.435,1027.873 		"/>
		<polygon fill="#231F20" points="939.678,1027.356 939.678,1026.766 940.435,1025.94 940.435,1026.59 		"/>
		<polygon fill="#231F20" points="939.699,1026.03 939.699,1025.439 940.455,1024.613 940.455,1025.262 		"/>
		<polygon fill="#231F20" points="939.699,1024.745 939.699,1024.154 940.455,1023.331 940.455,1023.979 		"/>
		<polygon fill="#231F20" points="939.678,1023.529 939.678,1022.94 940.435,1022.113 940.435,1022.761 		"/>
		<polygon fill="#231F20" points="939.678,1022.246 939.678,1021.655 940.435,1020.832 940.435,1021.479 		"/>
		<polygon fill="#231F20" points="939.712,1019.65 939.712,1019.06 940.467,1018.234 940.467,1018.884 		"/>
		<polygon fill="#231F20" points="939.691,1020.958 939.691,1020.365 940.448,1019.54 940.448,1020.188 		"/>
		<polygon fill="#231F20" points="939.712,1018.368 939.712,1017.776 940.467,1016.951 940.467,1017.6 		"/>
		<polygon fill="#231F20" points="939.691,1017.151 939.691,1016.561 940.448,1015.735 940.448,1016.384 		"/>
		<polygon fill="#231F20" points="939.691,1015.869 939.691,1015.278 940.448,1014.453 940.448,1015.101 		"/>
		<polygon fill="#231F20" points="939.712,1014.54 939.712,1013.951 940.467,1013.126 940.467,1013.772 		"/>
		<polygon fill="#231F20" points="939.712,1013.258 939.712,1012.667 940.467,1011.842 940.467,1012.491 		"/>
		<polygon fill="#231F20" points="939.691,1012.042 939.691,1011.451 940.448,1010.625 940.448,1011.273 		"/>
		<polygon fill="#231F20" points="939.691,1010.759 939.691,1010.168 940.448,1009.343 940.448,1009.992 		"/>
		<polygon fill="#231F20" points="939.718,1008.178 939.718,1007.587 940.475,1006.762 940.475,1007.41 		"/>
		<polygon fill="#231F20" points="939.699,1009.483 939.699,1008.893 940.455,1008.067 940.455,1008.716 		"/>
		<polygon fill="#231F20" points="939.718,1006.896 939.718,1006.305 940.475,1005.479 940.475,1006.127 		"/>
		<polygon fill="#231F20" points="939.699,1005.68 939.699,1005.089 940.455,1004.263 940.455,1004.911 		"/>
		<polygon fill="#231F20" points="939.699,1004.395 939.699,1003.806 940.455,1002.98 940.455,1003.628 		"/>
		<polygon fill="#231F20" points="939.718,1003.068 939.718,1002.478 940.475,1001.651 940.475,1002.302 		"/>
		<polygon fill="#231F20" points="939.718,1001.785 939.718,1001.196 940.475,1000.369 940.475,1001.02 		"/>
		<polygon fill="#231F20" points="939.699,1000.569 939.699,999.979 940.455,999.153 940.455,999.801 		"/>
		<polygon fill="#231F20" points="939.699,999.286 939.699,998.695 940.455,997.87 940.455,998.519 		"/>
		<polygon fill="#231F20" points="939.718,996.698 939.718,996.107 940.475,995.282 940.475,995.93 		"/>
		<polygon fill="#231F20" points="939.699,998.004 939.699,997.413 940.455,996.588 940.455,997.233 		"/>
		<polygon fill="#231F20" points="939.718,995.415 939.718,994.824 940.475,993.999 940.475,994.647 		"/>
		<polygon fill="#231F20" points="939.699,994.197 939.699,993.606 940.455,992.783 940.455,993.431 		"/>
		<polygon fill="#231F20" points="939.699,992.916 939.699,992.325 940.455,991.498 940.455,992.148 		"/>
		<polygon fill="#231F20" points="939.718,991.588 939.718,990.999 940.475,990.172 940.475,990.822 		"/>
		<polygon fill="#231F20" points="939.718,990.306 939.718,989.715 940.475,988.889 940.475,989.537 		"/>
		<polygon fill="#231F20" points="939.699,989.089 939.699,988.498 940.455,987.673 940.455,988.321 		"/>
		<polygon fill="#231F20" points="939.699,987.805 939.699,987.216 940.455,986.391 940.455,987.038 		"/>
		<polygon fill="#231F20" points="939.699,985.241 939.699,984.65 940.455,983.825 940.455,984.471 		"/>
		<polygon fill="#231F20" points="939.678,986.547 939.678,985.954 940.435,985.131 940.435,985.776 		"/>
		<polygon fill="#231F20" points="939.699,983.956 939.699,983.367 940.455,982.542 940.455,983.19 		"/>
		<polygon fill="#231F20" points="939.678,982.74 939.678,982.149 940.435,981.324 940.435,981.974 		"/>
		<polygon fill="#231F20" points="939.678,981.457 939.678,980.866 940.435,980.041 940.435,980.689 		"/>
		<polygon fill="#231F20" points="939.699,980.131 939.699,979.54 940.455,978.715 940.455,979.362 		"/>
		<polygon fill="#231F20" points="939.699,978.847 939.699,978.257 940.455,977.432 940.455,978.08 		"/>
		<polygon fill="#231F20" points="939.678,977.63 939.678,977.039 940.435,976.214 940.435,976.862 		"/>
		<polygon fill="#231F20" points="939.678,976.348 939.678,975.757 940.435,974.932 940.435,975.579 		"/>
		<polygon fill="#231F20" points="939.699,973.738 939.699,973.147 940.455,972.322 940.455,972.97 		"/>
		<polygon fill="#231F20" points="939.678,975.044 939.678,974.451 940.435,973.628 940.435,974.273 		"/>
		<polygon fill="#231F20" points="939.699,972.455 939.699,971.864 940.455,971.039 940.455,971.688 		"/>
		<polygon fill="#231F20" points="939.678,971.237 939.678,970.646 940.435,969.821 940.435,970.471 		"/>
		<polygon fill="#231F20" points="939.678,969.955 939.678,969.363 940.435,968.538 940.435,969.187 		"/>
		<polygon fill="#231F20" points="939.699,968.628 939.699,968.037 940.455,967.212 940.455,967.859 		"/>
		<polygon fill="#231F20" points="939.699,967.346 939.699,966.754 940.455,965.929 940.455,966.577 		"/>
		<polygon fill="#231F20" points="939.678,966.127 939.678,965.538 940.435,964.713 940.435,965.361 		"/>
		<polygon fill="#231F20" points="939.678,964.845 939.678,964.256 940.435,963.429 940.435,964.078 		"/>
		<polygon fill="#231F20" points="939.718,962.258 939.718,961.665 940.475,960.842 940.475,961.488 		"/>
		<polygon fill="#231F20" points="939.699,963.563 939.699,962.971 940.455,962.147 940.455,962.794 		"/>
		<polygon fill="#231F20" points="939.718,960.974 939.718,960.383 940.475,959.56 940.475,960.205 		"/>
		<polygon fill="#231F20" points="939.699,959.758 939.699,959.166 940.455,958.343 940.455,958.991 		"/>
		<polygon fill="#231F20" points="939.699,958.475 939.699,957.884 940.455,957.059 940.455,957.706 		"/>
		<polygon fill="#231F20" points="939.718,957.148 939.718,956.557 940.475,955.731 940.475,956.38 		"/>
		<polygon fill="#231F20" points="939.718,955.865 939.718,955.274 940.475,954.447 940.475,955.097 		"/>
		<polygon fill="#231F20" points="939.699,954.649 939.699,954.057 940.455,953.233 940.455,953.881 		"/>
		<polygon fill="#231F20" points="939.699,953.364 939.699,952.775 940.455,951.948 940.455,952.599 		"/>
		<polygon fill="#231F20" points="939.718,950.755 939.718,950.162 940.475,949.339 940.475,949.987 		"/>
		<polygon fill="#231F20" points="939.699,952.061 939.699,951.468 940.455,950.645 940.455,951.293 		"/>
		<polygon fill="#231F20" points="939.718,949.473 939.718,948.88 940.475,948.057 940.475,948.704 		"/>
		<polygon fill="#231F20" points="939.699,948.255 939.699,947.665 940.455,946.84 940.455,947.488 		"/>
		<polygon fill="#231F20" points="939.699,946.974 939.699,946.381 940.455,945.558 940.455,946.205 		"/>
		<polygon fill="#231F20" points="939.718,945.646 939.718,945.057 940.475,944.229 940.475,944.877 		"/>
		<polygon fill="#231F20" points="939.718,944.362 939.718,943.771 940.475,942.948 940.475,943.594 		"/>
		<polygon fill="#231F20" points="939.699,943.146 939.699,942.556 940.455,941.73 940.455,942.378 		"/>
		<polygon fill="#231F20" points="939.699,941.863 939.699,941.272 940.455,940.447 940.455,941.096 		"/>
		<polygon fill="#231F20" points="939.699,939.298 939.699,938.705 940.455,937.882 940.455,938.528 		"/>
		<polygon fill="#231F20" points="939.678,940.602 939.678,940.011 940.435,939.186 940.435,939.834 		"/>
		<polygon fill="#231F20" points="939.699,938.014 939.699,937.423 940.455,936.598 940.455,937.245 		"/>
		<polygon fill="#231F20" points="939.678,936.797 939.678,936.206 940.435,935.381 940.435,936.031 		"/>
		<polygon fill="#231F20" points="939.678,935.515 939.678,934.924 940.435,934.099 940.435,934.746 		"/>
		<polygon fill="#231F20" points="939.699,934.188 939.699,933.597 940.455,932.771 940.455,933.42 		"/>
		<polygon fill="#231F20" points="939.699,932.903 939.699,932.314 940.455,931.489 940.455,932.135 		"/>
		<polygon fill="#231F20" points="939.678,931.688 939.678,931.097 940.435,930.273 940.435,930.921 		"/>
		<polygon fill="#231F20" points="939.678,930.404 939.678,929.813 940.435,928.988 940.435,929.637 		"/>
		<polygon fill="#231F20" points="939.718,927.818 939.718,927.226 940.475,926.4 940.475,927.048 		"/>
		<polygon fill="#231F20" points="939.699,929.122 939.699,928.531 940.455,927.705 940.455,928.354 		"/>
		<polygon fill="#231F20" points="939.718,926.533 939.718,925.942 940.475,925.117 940.475,925.765 		"/>
		<polygon fill="#231F20" points="939.699,925.317 939.699,924.727 940.455,923.901 940.455,924.549 		"/>
		<polygon fill="#231F20" points="939.699,924.033 939.699,923.442 940.455,922.618 940.455,923.267 		"/>
		<polygon fill="#231F20" points="939.718,922.708 939.718,922.115 940.475,921.292 940.475,921.94 		"/>
		<polygon fill="#231F20" points="939.718,921.423 939.718,920.833 940.475,920.008 940.475,920.656 		"/>
		<polygon fill="#231F20" points="939.699,920.208 939.699,919.617 940.455,918.792 940.455,919.44 		"/>
		<polygon fill="#231F20" points="939.699,918.924 939.699,918.334 940.455,917.509 940.455,918.157 		"/>
		<polygon fill="#231F20" points="939.699,916.381 939.699,915.79 940.455,914.965 940.455,915.613 		"/>
		<polygon fill="#231F20" points="939.678,917.686 939.678,917.094 940.435,916.271 940.435,916.917 		"/>
		<polygon fill="#231F20" points="939.699,915.097 939.699,914.507 940.455,913.682 940.455,914.33 		"/>
		<polygon fill="#231F20" points="939.678,913.882 939.678,913.291 940.435,912.465 940.435,913.114 		"/>
		<polygon fill="#231F20" points="939.678,912.598 939.678,912.007 940.435,911.182 940.435,911.831 		"/>
		<polygon fill="#231F20" points="939.699,911.271 939.699,910.681 940.455,909.855 940.455,910.504 		"/>
		<polygon fill="#231F20" points="939.699,909.988 939.699,909.397 940.455,908.572 940.455,909.221 		"/>
		<polygon fill="#231F20" points="939.678,908.771 939.678,908.181 940.435,907.355 940.435,908.004 		"/>
		<polygon fill="#231F20" points="939.678,907.489 939.678,906.898 940.435,906.073 940.435,906.721 		"/>
		<polygon fill="#231F20" points="939.718,904.901 939.718,904.309 940.475,903.485 940.475,904.132 		"/>
		<polygon fill="#231F20" points="939.699,906.206 939.699,905.614 940.455,904.791 940.455,905.438 		"/>
		<polygon fill="#231F20" points="939.718,903.617 939.718,903.027 940.475,902.201 940.475,902.85 		"/>
		<polygon fill="#231F20" points="939.699,902.401 939.699,901.81 940.455,900.985 940.455,901.634 		"/>
		<polygon fill="#231F20" points="939.699,901.118 939.699,900.527 940.455,899.702 940.455,900.351 		"/>
		<polygon fill="#231F20" points="939.718,899.791 939.718,899.201 940.475,898.375 940.475,899.024 		"/>
		<polygon fill="#231F20" points="939.718,898.508 939.718,897.917 940.475,897.092 940.475,897.74 		"/>
		<polygon fill="#231F20" points="939.699,897.291 939.699,896.701 940.455,895.875 940.455,896.523 		"/>
		<polygon fill="#231F20" points="939.699,896.008 939.699,895.418 940.455,894.593 940.455,895.241 		"/>
		<polygon fill="#231F20" points="939.718,893.443 939.718,892.852 940.475,892.027 940.475,892.674 		"/>
		<polygon fill="#231F20" points="939.699,894.748 939.699,894.156 940.455,893.332 940.455,893.979 		"/>
		<polygon fill="#231F20" points="939.718,892.16 939.718,891.569 940.475,890.743 940.475,891.392 		"/>
		<polygon fill="#231F20" points="939.699,890.942 939.699,890.352 940.455,889.527 940.455,890.175 		"/>
		<polygon fill="#231F20" points="939.699,889.66 939.699,889.069 940.455,888.244 940.455,888.893 		"/>
		<polygon fill="#231F20" points="939.718,888.333 939.718,887.742 940.475,886.917 940.475,887.565 		"/>
		<polygon fill="#231F20" points="939.718,887.049 939.718,886.459 940.475,885.634 940.475,886.282 		"/>
		<polygon fill="#231F20" points="939.699,885.833 939.699,885.243 940.455,884.417 940.455,885.066 		"/>
		<polygon fill="#231F20" points="939.699,884.55 939.699,883.959 940.455,883.135 940.455,883.783 		"/>
		<polygon fill="#231F20" points="939.638,1184.167 939.638,1183.574 940.395,1182.751 940.395,1183.397 		"/>
		<polygon fill="#231F20" points="939.659,1181.6 939.659,1181.009 940.415,1180.182 940.415,1180.832 		"/>
		<polygon fill="#231F20" points="939.638,1182.903 939.638,1182.314 940.395,1181.489 940.395,1182.136 		"/>
		<polygon fill="#231F20" points="939.659,1180.315 939.659,1179.727 940.415,1178.899 940.415,1179.549 		"/>
		<polygon fill="#231F20" points="939.638,1179.098 939.638,1178.511 940.395,1177.683 940.395,1178.333 		"/>
		<polygon fill="#231F20" points="939.638,1177.814 939.638,1177.228 940.395,1176.402 940.395,1177.051 		"/>
		<polygon fill="#231F20" points="939.659,1176.49 939.659,1175.899 940.415,1175.074 940.415,1175.722 		"/>
		<polygon fill="#231F20" points="939.659,1175.205 939.659,1174.616 940.415,1173.791 940.415,1174.439 		"/>
		<polygon fill="#231F20" points="939.638,1173.991 939.638,1173.4 940.395,1172.575 940.395,1173.223 		"/>
		<polygon fill="#231F20" points="939.638,1172.706 939.638,1172.117 940.395,1171.292 940.395,1171.94 		"/>
		<polygon fill="#231F20" points="939.67,1170.112 939.67,1169.521 940.427,1168.696 940.427,1169.344 		"/>
		<polygon fill="#231F20" points="939.651,1171.418 939.651,1170.825 940.408,1170 940.408,1170.648 		"/>
		<polygon fill="#231F20" points="939.67,1168.83 939.67,1168.236 940.427,1167.413 940.427,1168.06 		"/>
		<polygon fill="#231F20" points="939.651,1167.611 939.651,1167.022 940.408,1166.197 940.408,1166.844 		"/>
		<polygon fill="#231F20" points="939.651,1166.329 939.651,1165.738 940.408,1164.915 940.408,1165.561 		"/>
		<polygon fill="#231F20" points="939.67,1165.002 939.67,1164.411 940.427,1163.586 940.427,1164.234 		"/>
		<polygon fill="#231F20" points="939.67,1163.72 939.67,1163.129 940.427,1162.304 940.427,1162.951 		"/>
		<polygon fill="#231F20" points="939.651,1162.502 939.651,1161.911 940.408,1161.087 940.408,1161.735 		"/>
		<polygon fill="#231F20" points="939.651,1161.219 939.651,1160.63 940.408,1159.805 940.408,1160.452 		"/>
		<polygon fill="#231F20" points="939.678,1158.64 939.678,1158.049 940.435,1157.224 940.435,1157.872 		"/>
		<polygon fill="#231F20" points="939.659,1159.945 939.659,1159.353 940.415,1158.529 940.415,1159.176 		"/>
		<polygon fill="#231F20" points="939.678,1157.355 939.678,1156.767 940.435,1155.939 940.435,1156.589 		"/>
		<polygon fill="#231F20" points="939.659,1156.14 939.659,1155.549 940.415,1154.725 940.415,1155.371 		"/>
		<polygon fill="#231F20" points="939.659,1154.854 939.659,1154.266 940.415,1153.44 940.415,1154.088 		"/>
		<polygon fill="#231F20" points="939.678,1153.528 939.678,1152.939 940.435,1152.113 940.435,1152.762 		"/>
		<polygon fill="#231F20" points="939.678,1152.245 939.678,1151.656 940.435,1150.831 940.435,1151.479 		"/>
		<polygon fill="#231F20" points="939.659,1151.029 939.659,1150.44 940.415,1149.615 940.415,1150.263 		"/>
		<polygon fill="#231F20" points="939.659,1149.746 939.659,1149.155 940.415,1148.332 940.415,1148.979 		"/>
		<polygon fill="#231F20" points="939.678,1147.16 939.678,1146.567 940.435,1145.742 940.435,1146.39 		"/>
		<polygon fill="#231F20" points="939.659,1148.464 939.659,1147.873 940.415,1147.05 940.415,1147.695 		"/>
		<polygon fill="#231F20" points="939.678,1145.875 939.678,1145.286 940.435,1144.459 940.435,1145.109 		"/>
		<polygon fill="#231F20" points="939.659,1144.657 939.659,1144.068 940.415,1143.243 940.415,1143.891 		"/>
		<polygon fill="#231F20" points="939.659,1143.375 939.659,1142.785 940.415,1141.96 940.415,1142.608 		"/>
		<polygon fill="#231F20" points="939.678,1142.05 939.678,1141.459 940.435,1140.632 940.435,1141.281 		"/>
		<polygon fill="#231F20" points="939.678,1140.766 939.678,1140.176 940.435,1139.351 940.435,1139.999 		"/>
		<polygon fill="#231F20" points="939.659,1139.549 939.659,1138.96 940.415,1138.133 940.415,1138.783 		"/>
		<polygon fill="#231F20" points="939.659,1138.267 939.659,1137.678 940.415,1136.851 940.415,1137.498 		"/>
		<polygon fill="#231F20" points="939.659,1135.701 939.659,1135.11 940.415,1134.285 940.415,1134.933 		"/>
		<polygon fill="#231F20" points="939.638,1137.009 939.638,1136.416 940.395,1135.59 940.395,1136.238 		"/>
		<polygon fill="#231F20" points="939.659,1134.418 939.659,1133.827 940.415,1133.004 940.415,1133.652 		"/>
		<polygon fill="#231F20" points="939.638,1133.2 939.638,1132.611 940.395,1131.784 940.395,1132.434 		"/>
		<polygon fill="#231F20" points="939.638,1131.919 939.638,1131.326 940.395,1130.501 940.395,1131.149 		"/>
		<polygon fill="#231F20" points="939.659,1130.589 939.659,1130.002 940.415,1129.175 940.415,1129.822 		"/>
		<polygon fill="#231F20" points="939.659,1129.308 939.659,1128.717 940.415,1127.892 940.415,1128.542 		"/>
		<polygon fill="#231F20" points="939.638,1128.09 939.638,1127.501 940.395,1126.676 940.395,1127.324 		"/>
		<polygon fill="#231F20" points="939.638,1126.81 939.638,1126.217 940.395,1125.392 940.395,1126.041 		"/>
		<polygon fill="#231F20" points="939.659,1124.198 939.659,1123.609 940.415,1122.784 940.415,1123.432 		"/>
		<polygon fill="#231F20" points="939.638,1125.506 939.638,1124.913 940.395,1124.088 940.395,1124.735 		"/>
		<polygon fill="#231F20" points="939.659,1122.913 939.659,1122.324 940.415,1121.499 940.415,1122.147 		"/>
		<polygon fill="#231F20" points="939.638,1121.699 939.638,1121.108 940.395,1120.283 940.395,1120.931 		"/>
		<polygon fill="#231F20" points="939.638,1120.414 939.638,1119.825 940.395,1119 940.395,1119.648 		"/>
		<polygon fill="#231F20" points="939.659,1119.088 939.659,1118.499 940.415,1117.674 940.415,1118.321 		"/>
		<polygon fill="#231F20" points="939.659,1117.806 939.659,1117.216 940.415,1116.389 940.415,1117.039 		"/>
		<polygon fill="#231F20" points="939.638,1116.589 939.638,1115.996 940.395,1115.173 940.395,1115.821 		"/>
		<polygon fill="#231F20" points="939.638,1115.307 939.638,1114.716 940.395,1113.891 940.395,1114.538 		"/>
		<polygon fill="#231F20" points="939.678,1112.72 939.678,1112.127 940.435,1111.302 940.435,1111.95 		"/>
		<polygon fill="#231F20" points="939.659,1114.023 939.659,1113.433 940.415,1112.607 940.415,1113.256 		"/>
		<polygon fill="#231F20" points="939.678,1111.436 939.678,1110.845 940.435,1110.02 940.435,1110.667 		"/>
		<polygon fill="#231F20" points="939.659,1110.217 939.659,1109.628 940.415,1108.803 940.415,1109.451 		"/>
		<polygon fill="#231F20" points="939.659,1108.935 939.659,1108.346 940.415,1107.521 940.415,1108.168 		"/>
		<polygon fill="#231F20" points="939.678,1107.609 939.678,1107.019 940.435,1106.191 940.435,1106.842 		"/>
		<polygon fill="#231F20" points="939.678,1106.325 939.678,1105.736 940.435,1104.909 940.435,1105.557 		"/>
		<polygon fill="#231F20" points="939.659,1105.109 939.659,1104.519 940.415,1103.693 940.415,1104.343 		"/>
		<polygon fill="#231F20" points="939.659,1103.824 939.659,1103.235 940.415,1102.41 940.415,1103.059 		"/>
		<polygon fill="#231F20" points="939.678,1101.217 939.678,1100.626 940.435,1099.801 940.435,1100.449 		"/>
		<polygon fill="#231F20" points="939.659,1102.522 939.659,1101.93 940.415,1101.106 940.415,1101.753 		"/>
		<polygon fill="#231F20" points="939.678,1099.933 939.678,1099.344 940.435,1098.517 940.435,1099.166 		"/>
		<polygon fill="#231F20" points="939.659,1098.717 939.659,1098.125 940.415,1097.3 940.415,1097.948 		"/>
		<polygon fill="#231F20" points="939.659,1097.434 939.659,1096.845 940.415,1096.018 940.415,1096.667 		"/>
		<polygon fill="#231F20" points="939.678,1096.107 939.678,1095.516 940.435,1094.69 940.435,1095.339 		"/>
		<polygon fill="#231F20" points="939.678,1094.824 939.678,1094.231 940.435,1093.408 940.435,1094.056 		"/>
		<polygon fill="#231F20" points="939.659,1093.606 939.659,1093.016 940.415,1092.19 940.415,1092.84 		"/>
		<polygon fill="#231F20" points="939.659,1092.323 939.659,1091.732 940.415,1090.909 940.415,1091.558 		"/>
		<polygon fill="#231F20" points="939.659,1089.758 939.659,1089.169 940.415,1088.342 940.415,1088.992 		"/>
		<polygon fill="#231F20" points="939.638,1091.063 939.638,1090.473 940.395,1089.647 940.395,1090.296 		"/>
		<polygon fill="#231F20" points="939.659,1088.474 939.659,1087.885 940.415,1087.059 940.415,1087.707 		"/>
		<polygon fill="#231F20" points="939.638,1087.257 939.638,1086.668 940.395,1085.841 940.395,1086.491 		"/>
		<polygon fill="#231F20" points="939.638,1085.975 939.638,1085.386 940.395,1084.559 940.395,1085.206 		"/>
		<polygon fill="#231F20" points="939.659,1084.647 939.659,1084.059 940.415,1083.233 940.415,1083.882 		"/>
		<polygon fill="#231F20" points="939.659,1083.363 939.659,1082.774 940.415,1081.949 940.415,1082.597 		"/>
		<polygon fill="#231F20" points="939.638,1082.149 939.638,1081.557 940.395,1080.733 940.395,1081.381 		"/>
		<polygon fill="#231F20" points="939.638,1080.864 939.638,1080.275 940.395,1079.448 940.395,1080.099 		"/>
		<polygon fill="#231F20" points="939.678,1078.278 939.678,1077.688 940.435,1076.861 940.435,1077.51 		"/>
		<polygon fill="#231F20" points="939.659,1079.584 939.659,1078.993 940.415,1078.167 940.415,1078.815 		"/>
		<polygon fill="#231F20" points="939.678,1076.995 939.678,1076.404 940.435,1075.579 940.435,1076.228 		"/>
		<polygon fill="#231F20" points="939.659,1075.777 939.659,1075.188 940.415,1074.363 940.415,1075.011 		"/>
		<polygon fill="#231F20" points="939.659,1074.494 939.659,1073.905 940.415,1073.08 940.415,1073.729 		"/>
		<polygon fill="#231F20" points="939.678,1073.168 939.678,1072.577 940.435,1071.752 940.435,1072.399 		"/>
		<polygon fill="#231F20" points="939.678,1071.885 939.678,1071.294 940.435,1070.469 940.435,1071.117 		"/>
		<polygon fill="#231F20" points="939.659,1070.667 939.659,1070.078 940.415,1069.253 940.415,1069.901 		"/>
		<polygon fill="#231F20" points="939.659,1069.385 939.659,1068.796 940.415,1067.97 940.415,1068.618 		"/>
		<polygon fill="#231F20" points="939.659,1066.844 939.659,1066.251 940.415,1065.426 940.415,1066.073 		"/>
		<polygon fill="#231F20" points="939.638,1068.147 939.638,1067.555 940.395,1066.731 940.395,1067.377 		"/>
		<polygon fill="#231F20" points="939.659,1065.559 939.659,1064.968 940.415,1064.143 940.415,1064.793 		"/>
		<polygon fill="#231F20" points="939.638,1064.341 939.638,1063.752 940.395,1062.927 940.395,1063.573 		"/>
		<polygon fill="#231F20" points="939.638,1063.061 939.638,1062.468 940.395,1061.643 940.395,1062.29 		"/>
		<polygon fill="#231F20" points="939.659,1061.729 939.659,1061.143 940.415,1060.315 940.415,1060.964 		"/>
		<polygon fill="#231F20" points="939.659,1060.447 939.659,1059.858 940.415,1059.033 940.415,1059.681 		"/>
		<polygon fill="#231F20" points="939.638,1059.231 939.638,1058.643 940.395,1057.816 940.395,1058.465 		"/>
		<polygon fill="#231F20" points="939.638,1057.948 939.638,1057.357 940.395,1056.534 940.395,1057.18 		"/>
		<polygon fill="#231F20" points="939.678,1055.361 939.678,1054.771 940.435,1053.943 940.435,1054.594 		"/>
		<polygon fill="#231F20" points="939.659,1056.667 939.659,1056.074 940.415,1055.253 940.415,1055.897 		"/>
		<polygon fill="#231F20" points="939.678,1054.079 939.678,1053.488 940.435,1052.663 940.435,1053.311 		"/>
		<polygon fill="#231F20" points="939.659,1052.861 939.659,1052.272 940.415,1051.445 940.415,1052.095 		"/>
		<polygon fill="#231F20" points="939.659,1051.578 939.659,1050.989 940.415,1050.164 940.415,1050.812 		"/>
		<polygon fill="#231F20" points="939.678,1050.252 939.678,1049.661 940.435,1048.836 940.435,1049.483 		"/>
		<polygon fill="#231F20" points="939.678,1048.967 939.678,1048.378 940.435,1047.553 940.435,1048.201 		"/>
		<polygon fill="#231F20" points="939.659,1047.751 939.659,1047.162 940.415,1046.337 940.415,1046.984 		"/>
		<polygon fill="#231F20" points="939.659,1046.469 939.659,1045.879 940.415,1045.054 940.415,1045.702 		"/>
		<polygon fill="#231F20" points="939.678,1043.904 939.678,1043.312 940.435,1042.488 940.435,1043.137 		"/>
		<polygon fill="#231F20" points="939.659,1045.21 939.659,1044.617 940.415,1043.794 940.415,1044.442 		"/>
		<polygon fill="#231F20" points="939.678,1042.62 939.678,1042.029 940.435,1041.206 940.435,1041.854 		"/>
		<polygon fill="#231F20" points="939.659,1041.404 939.659,1040.813 940.415,1039.988 940.415,1040.636 		"/>
		<polygon fill="#231F20" points="939.659,1040.121 939.659,1039.528 940.415,1038.705 940.415,1039.354 		"/>
		<polygon fill="#231F20" points="939.678,1038.793 939.678,1038.204 940.435,1037.377 940.435,1038.024 		"/>
		<polygon fill="#231F20" points="939.678,1037.51 939.678,1036.921 940.435,1036.096 940.435,1036.744 		"/>
		<polygon fill="#231F20" points="939.659,1036.292 939.659,1035.703 940.415,1034.878 940.415,1035.525 		"/>
		<polygon fill="#231F20" points="939.659,1035.011 939.659,1034.42 940.415,1033.593 940.415,1034.243 		"/>
		<polygon fill="#231F20" points="939.678,1297.751 939.678,1297.16 940.435,1296.335 940.435,1296.983 		"/>
		<polygon fill="#231F20" points="939.659,1299.057 939.659,1298.466 940.415,1297.641 940.415,1298.289 		"/>
		<polygon fill="#231F20" points="939.678,1296.469 939.678,1295.878 940.435,1295.053 940.435,1295.7 		"/>
		<polygon fill="#231F20" points="939.659,1295.251 939.659,1294.66 940.415,1293.836 940.415,1294.484 		"/>
		<polygon fill="#231F20" points="939.659,1293.968 939.659,1293.379 940.415,1292.554 940.415,1293.202 		"/>
		<polygon fill="#231F20" points="939.678,1292.642 939.678,1292.051 940.435,1291.226 940.435,1291.875 		"/>
		<polygon fill="#231F20" points="939.678,1291.358 939.678,1290.768 940.435,1289.942 940.435,1290.591 		"/>
		<polygon fill="#231F20" points="939.659,1290.143 939.659,1289.552 940.415,1288.727 940.415,1289.376 		"/>
		<polygon fill="#231F20" points="939.659,1288.857 939.659,1288.269 940.415,1287.443 940.415,1288.092 		"/>
		<polygon fill="#231F20" points="939.659,1286.294 939.659,1285.703 940.415,1284.878 940.415,1285.524 		"/>
		<polygon fill="#231F20" points="939.638,1287.6 939.638,1287.007 940.395,1286.184 940.395,1286.83 		"/>
		<polygon fill="#231F20" points="939.659,1285.01 939.659,1284.421 940.415,1283.596 940.415,1284.241 		"/>
		<polygon fill="#231F20" points="939.638,1283.794 939.638,1283.203 940.395,1282.377 940.395,1283.025 		"/>
		<polygon fill="#231F20" points="939.638,1282.511 939.638,1281.92 940.395,1281.093 940.395,1281.742 		"/>
		<polygon fill="#231F20" points="939.659,1281.183 939.659,1280.594 940.415,1279.768 940.415,1280.416 		"/>
		<polygon fill="#231F20" points="939.659,1279.899 939.659,1279.311 940.415,1278.485 940.415,1279.132 		"/>
		<polygon fill="#231F20" points="939.638,1278.684 939.638,1278.093 940.395,1277.268 940.395,1277.915 		"/>
		<polygon fill="#231F20" points="939.638,1277.4 939.638,1276.81 940.395,1275.984 940.395,1276.633 		"/>
		<polygon fill="#231F20" points="939.659,1274.791 939.659,1274.2 940.415,1273.375 940.415,1274.023 		"/>
		<polygon fill="#231F20" points="939.638,1276.097 939.638,1275.504 940.395,1274.681 940.395,1275.329 		"/>
		<polygon fill="#231F20" points="939.659,1273.507 939.659,1272.918 940.415,1272.093 940.415,1272.738 		"/>
		<polygon fill="#231F20" points="939.638,1272.291 939.638,1271.7 940.395,1270.875 940.395,1271.524 		"/>
		<polygon fill="#231F20" points="939.638,1271.008 939.638,1270.417 940.395,1269.592 940.395,1270.24 		"/>
		<polygon fill="#231F20" points="939.659,1269.682 939.659,1269.091 940.415,1268.266 940.415,1268.915 		"/>
		<polygon fill="#231F20" points="939.659,1268.396 939.659,1267.808 940.415,1266.982 940.415,1267.631 		"/>
		<polygon fill="#231F20" points="939.638,1267.181 939.638,1266.59 940.395,1265.767 940.395,1266.414 		"/>
		<polygon fill="#231F20" points="939.638,1265.897 939.638,1265.307 940.395,1264.481 940.395,1265.13 		"/>
		<polygon fill="#231F20" points="939.678,1263.312 939.678,1262.719 940.435,1261.896 940.435,1262.543 		"/>
		<polygon fill="#231F20" points="939.659,1264.617 939.659,1264.024 940.415,1263.201 940.415,1263.849 		"/>
		<polygon fill="#231F20" points="939.678,1262.026 939.678,1261.438 940.435,1260.612 940.435,1261.261 		"/>
		<polygon fill="#231F20" points="939.659,1260.811 939.659,1260.22 940.415,1259.396 940.415,1260.045 		"/>
		<polygon fill="#231F20" points="939.659,1259.528 939.659,1258.938 940.415,1258.113 940.415,1258.76 		"/>
		<polygon fill="#231F20" points="939.678,1258.201 939.678,1257.61 940.435,1256.785 940.435,1257.434 		"/>
		<polygon fill="#231F20" points="939.678,1256.919 939.678,1256.328 940.435,1255.502 940.435,1256.15 		"/>
		<polygon fill="#231F20" points="939.659,1255.7 939.659,1255.109 940.415,1254.286 940.415,1254.935 		"/>
		<polygon fill="#231F20" points="939.659,1254.418 939.659,1253.829 940.415,1253.004 940.415,1253.651 		"/>
		<polygon fill="#231F20" points="939.678,1251.811 939.678,1251.218 940.435,1250.393 940.435,1251.04 		"/>
		<polygon fill="#231F20" points="939.659,1253.114 939.659,1252.521 940.415,1251.7 940.415,1252.346 		"/>
		<polygon fill="#231F20" points="939.678,1250.525 939.678,1249.933 940.435,1249.109 940.435,1249.758 		"/>
		<polygon fill="#231F20" points="939.659,1249.308 939.659,1248.719 940.415,1247.894 940.415,1248.542 		"/>
		<polygon fill="#231F20" points="939.659,1248.025 939.659,1247.435 940.415,1246.61 940.415,1247.257 		"/>
		<polygon fill="#231F20" points="939.678,1246.696 939.678,1246.107 940.435,1245.282 940.435,1245.931 		"/>
		<polygon fill="#231F20" points="939.678,1245.416 939.678,1244.825 940.435,1244 940.435,1244.649 		"/>
		<polygon fill="#231F20" points="939.659,1244.197 939.659,1243.608 940.415,1242.783 940.415,1243.432 		"/>
		<polygon fill="#231F20" points="939.659,1242.917 939.659,1242.326 940.415,1241.499 940.415,1242.148 		"/>
		<polygon fill="#231F20" points="939.659,1240.352 939.659,1239.759 940.415,1238.936 940.415,1239.581 		"/>
		<polygon fill="#231F20" points="939.638,1241.657 939.638,1241.064 940.395,1240.241 940.395,1240.887 		"/>
		<polygon fill="#231F20" points="939.659,1239.066 939.659,1238.476 940.415,1237.65 940.415,1238.299 		"/>
		<polygon fill="#231F20" points="939.638,1237.851 939.638,1237.258 940.395,1236.435 940.395,1237.082 		"/>
		<polygon fill="#231F20" points="939.638,1236.568 939.638,1235.977 940.395,1235.151 940.395,1235.8 		"/>
		<polygon fill="#231F20" points="939.659,1235.239 939.659,1234.65 940.415,1233.825 940.415,1234.474 		"/>
		<polygon fill="#231F20" points="939.659,1233.957 939.659,1233.367 940.415,1232.542 940.415,1233.188 		"/>
		<polygon fill="#231F20" points="939.638,1232.74 939.638,1232.149 940.395,1231.324 940.395,1231.973 		"/>
		<polygon fill="#231F20" points="939.638,1231.458 939.638,1230.867 940.395,1230.042 940.395,1230.689 		"/>
		<polygon fill="#231F20" points="939.678,1228.871 939.678,1228.278 940.435,1227.453 940.435,1228.104 		"/>
		<polygon fill="#231F20" points="939.659,1230.175 939.659,1229.582 940.415,1228.761 940.415,1229.407 		"/>
		<polygon fill="#231F20" points="939.678,1227.587 939.678,1226.998 940.435,1226.173 940.435,1226.82 		"/>
		<polygon fill="#231F20" points="939.659,1226.371 939.659,1225.779 940.415,1224.954 940.415,1225.603 		"/>
		<polygon fill="#231F20" points="939.659,1225.086 939.659,1224.495 940.415,1223.672 940.415,1224.319 		"/>
		<polygon fill="#231F20" points="939.678,1223.762 939.678,1223.169 940.435,1222.345 940.435,1222.993 		"/>
		<polygon fill="#231F20" points="939.678,1222.477 939.678,1221.886 940.435,1221.062 940.435,1221.711 		"/>
		<polygon fill="#231F20" points="939.659,1221.261 939.659,1220.67 940.415,1219.845 940.415,1220.492 		"/>
		<polygon fill="#231F20" points="939.659,1219.978 939.659,1219.387 940.415,1218.562 940.415,1219.21 		"/>
		<polygon fill="#231F20" points="939.659,1217.434 939.659,1216.845 940.415,1216.02 940.415,1216.667 		"/>
		<polygon fill="#231F20" points="939.638,1218.741 939.638,1218.148 940.395,1217.324 940.395,1217.971 		"/>
		<polygon fill="#231F20" points="939.659,1216.148 939.659,1215.56 940.415,1214.734 940.415,1215.385 		"/>
		<polygon fill="#231F20" points="939.638,1214.935 939.638,1214.344 940.395,1213.519 940.395,1214.166 		"/>
		<polygon fill="#231F20" points="939.638,1213.649 939.638,1213.061 940.395,1212.233 940.395,1212.882 		"/>
		<polygon fill="#231F20" points="939.659,1212.323 939.659,1211.734 940.415,1210.909 940.415,1211.557 		"/>
		<polygon fill="#231F20" points="939.659,1211.04 939.659,1210.451 940.415,1209.626 940.415,1210.274 		"/>
		<polygon fill="#231F20" points="939.638,1209.824 939.638,1209.231 940.395,1208.408 940.395,1209.057 		"/>
		<polygon fill="#231F20" points="939.638,1208.542 939.638,1207.951 940.395,1207.125 940.395,1207.773 		"/>
		<polygon fill="#231F20" points="939.678,1205.955 939.678,1205.362 940.435,1204.537 940.435,1205.186 		"/>
		<polygon fill="#231F20" points="939.659,1207.259 939.659,1206.668 940.415,1205.843 940.415,1206.491 		"/>
		<polygon fill="#231F20" points="939.678,1204.671 939.678,1204.08 940.435,1203.254 940.435,1203.902 		"/>
		<polygon fill="#231F20" points="939.659,1203.452 939.659,1202.863 940.415,1202.038 940.415,1202.687 		"/>
		<polygon fill="#231F20" points="939.659,1202.17 939.659,1201.581 940.415,1200.756 940.415,1201.403 		"/>
		<polygon fill="#231F20" points="939.678,1200.843 939.678,1200.254 940.435,1199.427 940.435,1200.077 		"/>
		<polygon fill="#231F20" points="939.678,1199.561 939.678,1198.972 940.435,1198.145 940.435,1198.792 		"/>
		<polygon fill="#231F20" points="939.659,1198.345 939.659,1197.754 940.415,1196.928 940.415,1197.578 		"/>
		<polygon fill="#231F20" points="939.659,1197.06 939.659,1196.471 940.415,1195.646 940.415,1196.294 		"/>
		<polygon fill="#231F20" points="939.678,1194.496 939.678,1193.905 940.435,1193.08 940.435,1193.729 		"/>
		<polygon fill="#231F20" points="939.659,1195.802 939.659,1195.211 940.415,1194.386 940.415,1195.033 		"/>
		<polygon fill="#231F20" points="939.678,1193.213 939.678,1192.621 940.435,1191.795 940.435,1192.443 		"/>
		<polygon fill="#231F20" points="939.659,1191.995 939.659,1191.404 940.415,1190.579 940.415,1191.228 		"/>
		<polygon fill="#231F20" points="939.659,1190.713 939.659,1190.122 940.415,1189.297 940.415,1189.944 		"/>
		<polygon fill="#231F20" points="939.678,1189.384 939.678,1188.795 940.435,1187.97 940.435,1188.618 		"/>
		<polygon fill="#231F20" points="939.678,1188.102 939.678,1187.513 940.435,1186.688 940.435,1187.335 		"/>
		<polygon fill="#231F20" points="939.659,1186.886 939.659,1186.297 940.415,1185.469 940.415,1186.117 		"/>
		<polygon fill="#231F20" points="939.659,1185.603 939.659,1185.012 940.415,1184.187 940.415,1184.836 		"/>
	</g>
</g>
</svg>
