<?xml version="1.0" encoding="utf-8"?>
<!-- Generator: Adobe Illustrator 16.0.4, SVG Export Plug-In . SVG Version: 6.00 Build 0)  -->
<!DOCTYPE svg PUBLIC "-//W3C//DTD SVG 1.1//EN" "http://www.w3.org/Graphics/SVG/1.1/DTD/svg11.dtd">
<svg version="1.1" id="Layer_1_copy" xmlns="http://www.w3.org/2000/svg" xmlns:xlink="http://www.w3.org/1999/xlink" x="0px"
	 y="0px" width="1366px" height="700px" viewBox="149.496 666.643 1366 700" enable-background="new 149.496 666.643 1366 700"
	 xml:space="preserve">
<g id="Skip">
	<g>
		<polygon fill="#231F20" points="940.508,1298.651 943.746,1298.651 945.61,1301.495 948.614,1301.518 948.448,1346.246 
			935.537,1346.246 935.56,1301.47 938.771,1301.481 		"/>
		<polygon fill="#FFFFFF" points="941.075,1299.351 943.228,1299.351 944.651,1301.495 939.705,1301.495 		"/>
	</g>
	<rect x="935.397" y="1305.004" fill="#FFFFFF" width="12.151" height="14.207"/>
	
		<line fill="none" stroke="#231F20" stroke-width="0.9829" stroke-miterlimit="10" x1="941.936" y1="1304.243" x2="941.936" y2="1320.406"/>
</g>
<g id="Skip_chain">
	<polygon fill="#231F20" points="941.68,1033.707 941.68,1033.114 942.437,1032.289 942.437,1032.938 	"/>
	<polygon fill="#231F20" points="941.701,1031.142 941.701,1030.549 942.457,1029.722 942.457,1030.372 	"/>
	<polygon fill="#231F20" points="941.68,1032.445 941.68,1031.853 942.437,1031.029 942.437,1031.676 	"/>
	<polygon fill="#231F20" points="941.701,1029.854 941.701,1029.265 942.457,1028.439 942.457,1029.087 	"/>
	<polygon fill="#231F20" points="941.68,1028.64 941.68,1028.049 942.437,1027.223 942.437,1027.873 	"/>
	<polygon fill="#231F20" points="941.68,1027.356 941.68,1026.766 942.437,1025.94 942.437,1026.59 	"/>
	<polygon fill="#231F20" points="941.701,1026.03 941.701,1025.439 942.457,1024.613 942.457,1025.262 	"/>
	<polygon fill="#231F20" points="941.701,1024.745 941.701,1024.154 942.457,1023.331 942.457,1023.979 	"/>
	<polygon fill="#231F20" points="941.68,1023.529 941.68,1022.94 942.437,1022.113 942.437,1022.761 	"/>
	<polygon fill="#231F20" points="941.68,1022.246 941.68,1021.655 942.437,1020.832 942.437,1021.479 	"/>
	<polygon fill="#231F20" points="941.714,1019.65 941.714,1019.06 942.469,1018.234 942.469,1018.884 	"/>
	<polygon fill="#231F20" points="941.693,1020.958 941.693,1020.365 942.45,1019.54 942.45,1020.188 	"/>
	<polygon fill="#231F20" points="941.714,1018.368 941.714,1017.776 942.469,1016.951 942.469,1017.6 	"/>
	<polygon fill="#231F20" points="941.693,1017.151 941.693,1016.561 942.45,1015.735 942.45,1016.384 	"/>
	<polygon fill="#231F20" points="941.693,1015.869 941.693,1015.278 942.45,1014.453 942.45,1015.101 	"/>
	<polygon fill="#231F20" points="941.714,1014.54 941.714,1013.951 942.469,1013.126 942.469,1013.772 	"/>
	<polygon fill="#231F20" points="941.714,1013.258 941.714,1012.667 942.469,1011.842 942.469,1012.491 	"/>
	<polygon fill="#231F20" points="941.693,1012.042 941.693,1011.451 942.45,1010.625 942.45,1011.273 	"/>
	<polygon fill="#231F20" points="941.693,1010.759 941.693,1010.168 942.45,1009.343 942.45,1009.992 	"/>
	<polygon fill="#231F20" points="941.72,1008.178 941.72,1007.587 942.477,1006.762 942.477,1007.41 	"/>
	<polygon fill="#231F20" points="941.701,1009.483 941.701,1008.893 942.457,1008.067 942.457,1008.716 	"/>
	<polygon fill="#231F20" points="941.72,1006.896 941.72,1006.305 942.477,1005.479 942.477,1006.127 	"/>
	<polygon fill="#231F20" points="941.701,1005.68 941.701,1005.089 942.457,1004.263 942.457,1004.911 	"/>
	<polygon fill="#231F20" points="941.701,1004.395 941.701,1003.806 942.457,1002.98 942.457,1003.628 	"/>
	<polygon fill="#231F20" points="941.72,1003.068 941.72,1002.478 942.477,1001.651 942.477,1002.302 	"/>
	<polygon fill="#231F20" points="941.72,1001.785 941.72,1001.196 942.477,1000.369 942.477,1001.02 	"/>
	<polygon fill="#231F20" points="941.701,1000.569 941.701,999.979 942.457,999.153 942.457,999.801 	"/>
	<polygon fill="#231F20" points="941.701,999.286 941.701,998.695 942.457,997.87 942.457,998.519 	"/>
	<polygon fill="#231F20" points="941.72,996.698 941.72,996.107 942.477,995.282 942.477,995.93 	"/>
	<polygon fill="#231F20" points="941.701,998.004 941.701,997.413 942.457,996.588 942.457,997.233 	"/>
	<polygon fill="#231F20" points="941.72,995.415 941.72,994.824 942.477,993.999 942.477,994.647 	"/>
	<polygon fill="#231F20" points="941.701,994.197 941.701,993.606 942.457,992.783 942.457,993.431 	"/>
	<polygon fill="#231F20" points="941.701,992.916 941.701,992.325 942.457,991.498 942.457,992.148 	"/>
	<polygon fill="#231F20" points="941.72,991.588 941.72,990.999 942.477,990.172 942.477,990.822 	"/>
	<polygon fill="#231F20" points="941.72,990.306 941.72,989.715 942.477,988.889 942.477,989.537 	"/>
	<polygon fill="#231F20" points="941.701,989.089 941.701,988.498 942.457,987.673 942.457,988.321 	"/>
	<polygon fill="#231F20" points="941.701,987.805 941.701,987.216 942.457,986.391 942.457,987.038 	"/>
	<polygon fill="#231F20" points="941.701,985.241 941.701,984.65 942.457,983.825 942.457,984.471 	"/>
	<polygon fill="#231F20" points="941.68,986.547 941.68,985.954 942.437,985.131 942.437,985.776 	"/>
	<polygon fill="#231F20" points="941.701,983.956 941.701,983.367 942.457,982.542 942.457,983.19 	"/>
	<polygon fill="#231F20" points="941.68,982.74 941.68,982.149 942.437,981.324 942.437,981.974 	"/>
	<polygon fill="#231F20" points="941.68,981.457 941.68,980.866 942.437,980.041 942.437,980.689 	"/>
	<polygon fill="#231F20" points="941.701,980.131 941.701,979.54 942.457,978.715 942.457,979.362 	"/>
	<polygon fill="#231F20" points="941.701,978.847 941.701,978.257 942.457,977.432 942.457,978.08 	"/>
	<polygon fill="#231F20" points="941.68,977.63 941.68,977.039 942.437,976.214 942.437,976.862 	"/>
	<polygon fill="#231F20" points="941.68,976.348 941.68,975.757 942.437,974.932 942.437,975.579 	"/>
	<polygon fill="#231F20" points="941.701,973.738 941.701,973.147 942.457,972.322 942.457,972.97 	"/>
	<polygon fill="#231F20" points="941.68,975.044 941.68,974.451 942.437,973.628 942.437,974.273 	"/>
	<polygon fill="#231F20" points="941.701,972.455 941.701,971.864 942.457,971.039 942.457,971.688 	"/>
	<polygon fill="#231F20" points="941.68,971.237 941.68,970.646 942.437,969.821 942.437,970.471 	"/>
	<polygon fill="#231F20" points="941.68,969.955 941.68,969.363 942.437,968.538 942.437,969.187 	"/>
	<polygon fill="#231F20" points="941.701,968.628 941.701,968.037 942.457,967.212 942.457,967.859 	"/>
	<polygon fill="#231F20" points="941.701,967.346 941.701,966.754 942.457,965.929 942.457,966.577 	"/>
	<polygon fill="#231F20" points="941.68,966.127 941.68,965.538 942.437,964.713 942.437,965.361 	"/>
	<polygon fill="#231F20" points="941.68,964.845 941.68,964.256 942.437,963.429 942.437,964.078 	"/>
	<polygon fill="#231F20" points="941.72,962.258 941.72,961.665 942.477,960.842 942.477,961.488 	"/>
	<polygon fill="#231F20" points="941.701,963.563 941.701,962.971 942.457,962.147 942.457,962.794 	"/>
	<polygon fill="#231F20" points="941.72,960.974 941.72,960.383 942.477,959.56 942.477,960.205 	"/>
	<polygon fill="#231F20" points="941.701,959.758 941.701,959.166 942.457,958.343 942.457,958.991 	"/>
	<polygon fill="#231F20" points="941.701,958.475 941.701,957.884 942.457,957.059 942.457,957.706 	"/>
	<polygon fill="#231F20" points="941.72,957.148 941.72,956.557 942.477,955.731 942.477,956.38 	"/>
	<polygon fill="#231F20" points="941.72,955.865 941.72,955.274 942.477,954.447 942.477,955.097 	"/>
	<polygon fill="#231F20" points="941.701,954.649 941.701,954.057 942.457,953.233 942.457,953.881 	"/>
	<polygon fill="#231F20" points="941.701,953.364 941.701,952.775 942.457,951.948 942.457,952.599 	"/>
	<polygon fill="#231F20" points="941.72,950.755 941.72,950.162 942.477,949.339 942.477,949.987 	"/>
	<polygon fill="#231F20" points="941.701,952.061 941.701,951.468 942.457,950.645 942.457,951.293 	"/>
	<polygon fill="#231F20" points="941.72,949.473 941.72,948.88 942.477,948.057 942.477,948.704 	"/>
	<polygon fill="#231F20" points="941.701,948.255 941.701,947.665 942.457,946.84 942.457,947.488 	"/>
	<polygon fill="#231F20" points="941.701,946.974 941.701,946.381 942.457,945.558 942.457,946.205 	"/>
	<polygon fill="#231F20" points="941.72,945.646 941.72,945.057 942.477,944.229 942.477,944.877 	"/>
	<polygon fill="#231F20" points="941.72,944.362 941.72,943.771 942.477,942.948 942.477,943.594 	"/>
	<polygon fill="#231F20" points="941.701,943.146 941.701,942.556 942.457,941.73 942.457,942.378 	"/>
	<polygon fill="#231F20" points="941.701,941.863 941.701,941.272 942.457,940.447 942.457,941.096 	"/>
	<polygon fill="#231F20" points="941.701,939.298 941.701,938.705 942.457,937.882 942.457,938.528 	"/>
	<polygon fill="#231F20" points="941.68,940.602 941.68,940.011 942.437,939.186 942.437,939.834 	"/>
	<polygon fill="#231F20" points="941.701,938.014 941.701,937.423 942.457,936.598 942.457,937.245 	"/>
	<polygon fill="#231F20" points="941.68,936.797 941.68,936.206 942.437,935.381 942.437,936.031 	"/>
	<polygon fill="#231F20" points="941.68,935.515 941.68,934.924 942.437,934.099 942.437,934.746 	"/>
	<polygon fill="#231F20" points="941.701,934.188 941.701,933.597 942.457,932.771 942.457,933.42 	"/>
	<polygon fill="#231F20" points="941.701,932.903 941.701,932.314 942.457,931.489 942.457,932.135 	"/>
	<polygon fill="#231F20" points="941.68,931.688 941.68,931.097 942.437,930.273 942.437,930.921 	"/>
	<polygon fill="#231F20" points="941.68,930.404 941.68,929.813 942.437,928.988 942.437,929.637 	"/>
	<polygon fill="#231F20" points="941.72,927.818 941.72,927.226 942.477,926.4 942.477,927.048 	"/>
	<polygon fill="#231F20" points="941.701,929.122 941.701,928.531 942.457,927.705 942.457,928.354 	"/>
	<polygon fill="#231F20" points="941.72,926.533 941.72,925.942 942.477,925.117 942.477,925.765 	"/>
	<polygon fill="#231F20" points="941.701,925.317 941.701,924.727 942.457,923.901 942.457,924.549 	"/>
	<polygon fill="#231F20" points="941.701,924.033 941.701,923.442 942.457,922.618 942.457,923.267 	"/>
	<polygon fill="#231F20" points="941.72,922.708 941.72,922.115 942.477,921.292 942.477,921.94 	"/>
	<polygon fill="#231F20" points="941.72,921.423 941.72,920.833 942.477,920.008 942.477,920.656 	"/>
	<polygon fill="#231F20" points="941.701,920.208 941.701,919.617 942.457,918.792 942.457,919.44 	"/>
	<polygon fill="#231F20" points="941.701,918.924 941.701,918.334 942.457,917.509 942.457,918.157 	"/>
	<polygon fill="#231F20" points="941.701,916.381 941.701,915.79 942.457,914.965 942.457,915.613 	"/>
	<polygon fill="#231F20" points="941.68,917.686 941.68,917.094 942.437,916.271 942.437,916.917 	"/>
	<polygon fill="#231F20" points="941.701,915.097 941.701,914.507 942.457,913.682 942.457,914.33 	"/>
	<polygon fill="#231F20" points="941.68,913.882 941.68,913.291 942.437,912.465 942.437,913.114 	"/>
	<polygon fill="#231F20" points="941.68,912.598 941.68,912.007 942.437,911.182 942.437,911.831 	"/>
	<polygon fill="#231F20" points="941.701,911.271 941.701,910.681 942.457,909.855 942.457,910.504 	"/>
	<polygon fill="#231F20" points="941.701,909.988 941.701,909.397 942.457,908.572 942.457,909.221 	"/>
	<polygon fill="#231F20" points="941.68,908.771 941.68,908.181 942.437,907.355 942.437,908.004 	"/>
	<polygon fill="#231F20" points="941.68,907.489 941.68,906.898 942.437,906.073 942.437,906.721 	"/>
	<polygon fill="#231F20" points="941.72,904.901 941.72,904.309 942.477,903.485 942.477,904.132 	"/>
	<polygon fill="#231F20" points="941.701,906.206 941.701,905.614 942.457,904.791 942.457,905.438 	"/>
	<polygon fill="#231F20" points="941.72,903.617 941.72,903.027 942.477,902.201 942.477,902.85 	"/>
	<polygon fill="#231F20" points="941.701,902.401 941.701,901.81 942.457,900.985 942.457,901.634 	"/>
	<polygon fill="#231F20" points="941.701,901.118 941.701,900.527 942.457,899.702 942.457,900.351 	"/>
	<polygon fill="#231F20" points="941.72,899.791 941.72,899.201 942.477,898.375 942.477,899.024 	"/>
	<polygon fill="#231F20" points="941.72,898.508 941.72,897.917 942.477,897.092 942.477,897.74 	"/>
	<polygon fill="#231F20" points="941.701,897.291 941.701,896.701 942.457,895.875 942.457,896.523 	"/>
	<polygon fill="#231F20" points="941.701,896.008 941.701,895.418 942.457,894.593 942.457,895.241 	"/>
	<polygon fill="#231F20" points="941.72,893.443 941.72,892.852 942.477,892.027 942.477,892.674 	"/>
	<polygon fill="#231F20" points="941.701,894.748 941.701,894.156 942.457,893.332 942.457,893.979 	"/>
	<polygon fill="#231F20" points="941.72,892.16 941.72,891.569 942.477,890.743 942.477,891.392 	"/>
	<polygon fill="#231F20" points="941.701,890.942 941.701,890.352 942.457,889.527 942.457,890.175 	"/>
	<polygon fill="#231F20" points="941.701,889.66 941.701,889.069 942.457,888.244 942.457,888.893 	"/>
	<polygon fill="#231F20" points="941.72,888.333 941.72,887.742 942.477,886.917 942.477,887.565 	"/>
	<polygon fill="#231F20" points="941.72,887.049 941.72,886.459 942.477,885.634 942.477,886.282 	"/>
	<polygon fill="#231F20" points="941.701,885.833 941.701,885.243 942.457,884.417 942.457,885.066 	"/>
	<polygon fill="#231F20" points="941.701,884.55 941.701,883.959 942.457,883.135 942.457,883.783 	"/>
	<polygon fill="#231F20" points="941.64,1184.167 941.64,1183.574 942.396,1182.751 942.396,1183.397 	"/>
	<polygon fill="#231F20" points="941.661,1181.6 941.661,1181.009 942.417,1180.182 942.417,1180.832 	"/>
	<polygon fill="#231F20" points="941.64,1182.903 941.64,1182.314 942.396,1181.489 942.396,1182.136 	"/>
	<polygon fill="#231F20" points="941.661,1180.315 941.661,1179.727 942.417,1178.899 942.417,1179.549 	"/>
	<polygon fill="#231F20" points="941.64,1179.098 941.64,1178.511 942.396,1177.683 942.396,1178.333 	"/>
	<polygon fill="#231F20" points="941.64,1177.814 941.64,1177.228 942.396,1176.402 942.396,1177.051 	"/>
	<polygon fill="#231F20" points="941.661,1176.49 941.661,1175.899 942.417,1175.074 942.417,1175.722 	"/>
	<polygon fill="#231F20" points="941.661,1175.205 941.661,1174.616 942.417,1173.791 942.417,1174.439 	"/>
	<polygon fill="#231F20" points="941.64,1173.991 941.64,1173.4 942.396,1172.575 942.396,1173.223 	"/>
	<polygon fill="#231F20" points="941.64,1172.706 941.64,1172.117 942.396,1171.292 942.396,1171.94 	"/>
	<polygon fill="#231F20" points="941.672,1170.112 941.672,1169.521 942.429,1168.696 942.429,1169.344 	"/>
	<polygon fill="#231F20" points="941.653,1171.418 941.653,1170.825 942.41,1170 942.41,1170.648 	"/>
	<polygon fill="#231F20" points="941.672,1168.83 941.672,1168.236 942.429,1167.413 942.429,1168.06 	"/>
	<polygon fill="#231F20" points="941.653,1167.611 941.653,1167.022 942.41,1166.197 942.41,1166.844 	"/>
	<polygon fill="#231F20" points="941.653,1166.329 941.653,1165.738 942.41,1164.915 942.41,1165.561 	"/>
	<polygon fill="#231F20" points="941.672,1165.002 941.672,1164.411 942.429,1163.586 942.429,1164.234 	"/>
	<polygon fill="#231F20" points="941.672,1163.72 941.672,1163.129 942.429,1162.304 942.429,1162.951 	"/>
	<polygon fill="#231F20" points="941.653,1162.502 941.653,1161.911 942.41,1161.087 942.41,1161.735 	"/>
	<polygon fill="#231F20" points="941.653,1161.219 941.653,1160.63 942.41,1159.805 942.41,1160.452 	"/>
	<polygon fill="#231F20" points="941.68,1158.64 941.68,1158.049 942.437,1157.224 942.437,1157.872 	"/>
	<polygon fill="#231F20" points="941.661,1159.945 941.661,1159.353 942.417,1158.529 942.417,1159.176 	"/>
	<polygon fill="#231F20" points="941.68,1157.355 941.68,1156.767 942.437,1155.939 942.437,1156.589 	"/>
	<polygon fill="#231F20" points="941.661,1156.14 941.661,1155.549 942.417,1154.725 942.417,1155.371 	"/>
	<polygon fill="#231F20" points="941.661,1154.854 941.661,1154.266 942.417,1153.44 942.417,1154.088 	"/>
	<polygon fill="#231F20" points="941.68,1153.528 941.68,1152.939 942.437,1152.113 942.437,1152.762 	"/>
	<polygon fill="#231F20" points="941.68,1152.245 941.68,1151.656 942.437,1150.831 942.437,1151.479 	"/>
	<polygon fill="#231F20" points="941.661,1151.029 941.661,1150.44 942.417,1149.615 942.417,1150.263 	"/>
	<polygon fill="#231F20" points="941.661,1149.746 941.661,1149.155 942.417,1148.332 942.417,1148.979 	"/>
	<polygon fill="#231F20" points="941.68,1147.16 941.68,1146.567 942.437,1145.742 942.437,1146.39 	"/>
	<polygon fill="#231F20" points="941.661,1148.464 941.661,1147.873 942.417,1147.05 942.417,1147.695 	"/>
	<polygon fill="#231F20" points="941.68,1145.875 941.68,1145.286 942.437,1144.459 942.437,1145.109 	"/>
	<polygon fill="#231F20" points="941.661,1144.657 941.661,1144.068 942.417,1143.243 942.417,1143.891 	"/>
	<polygon fill="#231F20" points="941.661,1143.375 941.661,1142.785 942.417,1141.96 942.417,1142.608 	"/>
	<polygon fill="#231F20" points="941.68,1142.05 941.68,1141.459 942.437,1140.632 942.437,1141.281 	"/>
	<polygon fill="#231F20" points="941.68,1140.766 941.68,1140.176 942.437,1139.351 942.437,1139.999 	"/>
	<polygon fill="#231F20" points="941.661,1139.549 941.661,1138.96 942.417,1138.133 942.417,1138.783 	"/>
	<polygon fill="#231F20" points="941.661,1138.267 941.661,1137.678 942.417,1136.851 942.417,1137.498 	"/>
	<polygon fill="#231F20" points="941.661,1135.701 941.661,1135.11 942.417,1134.285 942.417,1134.933 	"/>
	<polygon fill="#231F20" points="941.64,1137.009 941.64,1136.416 942.396,1135.59 942.396,1136.238 	"/>
	<polygon fill="#231F20" points="941.661,1134.418 941.661,1133.827 942.417,1133.004 942.417,1133.652 	"/>
	<polygon fill="#231F20" points="941.64,1133.2 941.64,1132.611 942.396,1131.784 942.396,1132.434 	"/>
	<polygon fill="#231F20" points="941.64,1131.919 941.64,1131.326 942.396,1130.501 942.396,1131.149 	"/>
	<polygon fill="#231F20" points="941.661,1130.589 941.661,1130.002 942.417,1129.175 942.417,1129.822 	"/>
	<polygon fill="#231F20" points="941.661,1129.308 941.661,1128.717 942.417,1127.892 942.417,1128.542 	"/>
	<polygon fill="#231F20" points="941.64,1128.09 941.64,1127.501 942.396,1126.676 942.396,1127.324 	"/>
	<polygon fill="#231F20" points="941.64,1126.81 941.64,1126.217 942.396,1125.392 942.396,1126.041 	"/>
	<polygon fill="#231F20" points="941.661,1124.198 941.661,1123.609 942.417,1122.784 942.417,1123.432 	"/>
	<polygon fill="#231F20" points="941.64,1125.506 941.64,1124.913 942.396,1124.088 942.396,1124.735 	"/>
	<polygon fill="#231F20" points="941.661,1122.913 941.661,1122.324 942.417,1121.499 942.417,1122.147 	"/>
	<polygon fill="#231F20" points="941.64,1121.699 941.64,1121.108 942.396,1120.283 942.396,1120.931 	"/>
	<polygon fill="#231F20" points="941.64,1120.414 941.64,1119.825 942.396,1119 942.396,1119.648 	"/>
	<polygon fill="#231F20" points="941.661,1119.088 941.661,1118.499 942.417,1117.674 942.417,1118.321 	"/>
	<polygon fill="#231F20" points="941.661,1117.806 941.661,1117.216 942.417,1116.389 942.417,1117.039 	"/>
	<polygon fill="#231F20" points="941.64,1116.589 941.64,1115.996 942.396,1115.173 942.396,1115.821 	"/>
	<polygon fill="#231F20" points="941.64,1115.307 941.64,1114.716 942.396,1113.891 942.396,1114.538 	"/>
	<polygon fill="#231F20" points="941.68,1112.72 941.68,1112.127 942.437,1111.302 942.437,1111.95 	"/>
	<polygon fill="#231F20" points="941.661,1114.023 941.661,1113.433 942.417,1112.607 942.417,1113.256 	"/>
	<polygon fill="#231F20" points="941.68,1111.436 941.68,1110.845 942.437,1110.02 942.437,1110.667 	"/>
	<polygon fill="#231F20" points="941.661,1110.217 941.661,1109.628 942.417,1108.803 942.417,1109.451 	"/>
	<polygon fill="#231F20" points="941.661,1108.935 941.661,1108.346 942.417,1107.521 942.417,1108.168 	"/>
	<polygon fill="#231F20" points="941.68,1107.609 941.68,1107.019 942.437,1106.191 942.437,1106.842 	"/>
	<polygon fill="#231F20" points="941.68,1106.325 941.68,1105.736 942.437,1104.909 942.437,1105.557 	"/>
	<polygon fill="#231F20" points="941.661,1105.109 941.661,1104.519 942.417,1103.693 942.417,1104.343 	"/>
	<polygon fill="#231F20" points="941.661,1103.824 941.661,1103.235 942.417,1102.41 942.417,1103.059 	"/>
	<polygon fill="#231F20" points="941.68,1101.217 941.68,1100.626 942.437,1099.801 942.437,1100.449 	"/>
	<polygon fill="#231F20" points="941.661,1102.522 941.661,1101.93 942.417,1101.106 942.417,1101.753 	"/>
	<polygon fill="#231F20" points="941.68,1099.933 941.68,1099.344 942.437,1098.517 942.437,1099.166 	"/>
	<polygon fill="#231F20" points="941.661,1098.717 941.661,1098.125 942.417,1097.3 942.417,1097.948 	"/>
	<polygon fill="#231F20" points="941.661,1097.434 941.661,1096.845 942.417,1096.018 942.417,1096.667 	"/>
	<polygon fill="#231F20" points="941.68,1096.107 941.68,1095.516 942.437,1094.69 942.437,1095.339 	"/>
	<polygon fill="#231F20" points="941.68,1094.824 941.68,1094.231 942.437,1093.408 942.437,1094.056 	"/>
	<polygon fill="#231F20" points="941.661,1093.606 941.661,1093.016 942.417,1092.19 942.417,1092.84 	"/>
	<polygon fill="#231F20" points="941.661,1092.323 941.661,1091.732 942.417,1090.909 942.417,1091.558 	"/>
	<polygon fill="#231F20" points="941.661,1089.758 941.661,1089.169 942.417,1088.342 942.417,1088.992 	"/>
	<polygon fill="#231F20" points="941.64,1091.063 941.64,1090.473 942.396,1089.647 942.396,1090.296 	"/>
	<polygon fill="#231F20" points="941.661,1088.474 941.661,1087.885 942.417,1087.059 942.417,1087.707 	"/>
	<polygon fill="#231F20" points="941.64,1087.257 941.64,1086.668 942.396,1085.841 942.396,1086.491 	"/>
	<polygon fill="#231F20" points="941.64,1085.975 941.64,1085.386 942.396,1084.559 942.396,1085.206 	"/>
	<polygon fill="#231F20" points="941.661,1084.647 941.661,1084.059 942.417,1083.233 942.417,1083.882 	"/>
	<polygon fill="#231F20" points="941.661,1083.363 941.661,1082.774 942.417,1081.949 942.417,1082.597 	"/>
	<polygon fill="#231F20" points="941.64,1082.149 941.64,1081.557 942.396,1080.733 942.396,1081.381 	"/>
	<polygon fill="#231F20" points="941.64,1080.864 941.64,1080.275 942.396,1079.448 942.396,1080.099 	"/>
	<polygon fill="#231F20" points="941.68,1078.278 941.68,1077.688 942.437,1076.861 942.437,1077.51 	"/>
	<polygon fill="#231F20" points="941.661,1079.584 941.661,1078.993 942.417,1078.167 942.417,1078.815 	"/>
	<polygon fill="#231F20" points="941.68,1076.995 941.68,1076.404 942.437,1075.579 942.437,1076.228 	"/>
	<polygon fill="#231F20" points="941.661,1075.777 941.661,1075.188 942.417,1074.363 942.417,1075.011 	"/>
	<polygon fill="#231F20" points="941.661,1074.494 941.661,1073.905 942.417,1073.08 942.417,1073.729 	"/>
	<polygon fill="#231F20" points="941.68,1073.168 941.68,1072.577 942.437,1071.752 942.437,1072.399 	"/>
	<polygon fill="#231F20" points="941.68,1071.885 941.68,1071.294 942.437,1070.469 942.437,1071.117 	"/>
	<polygon fill="#231F20" points="941.661,1070.667 941.661,1070.078 942.417,1069.253 942.417,1069.901 	"/>
	<polygon fill="#231F20" points="941.661,1069.385 941.661,1068.796 942.417,1067.97 942.417,1068.618 	"/>
	<polygon fill="#231F20" points="941.661,1066.844 941.661,1066.251 942.417,1065.426 942.417,1066.073 	"/>
	<polygon fill="#231F20" points="941.64,1068.147 941.64,1067.555 942.396,1066.731 942.396,1067.377 	"/>
	<polygon fill="#231F20" points="941.661,1065.559 941.661,1064.968 942.417,1064.143 942.417,1064.793 	"/>
	<polygon fill="#231F20" points="941.64,1064.341 941.64,1063.752 942.396,1062.927 942.396,1063.573 	"/>
	<polygon fill="#231F20" points="941.64,1063.061 941.64,1062.468 942.396,1061.643 942.396,1062.29 	"/>
	<polygon fill="#231F20" points="941.661,1061.729 941.661,1061.143 942.417,1060.315 942.417,1060.964 	"/>
	<polygon fill="#231F20" points="941.661,1060.447 941.661,1059.858 942.417,1059.033 942.417,1059.681 	"/>
	<polygon fill="#231F20" points="941.64,1059.231 941.64,1058.643 942.396,1057.816 942.396,1058.465 	"/>
	<polygon fill="#231F20" points="941.64,1057.948 941.64,1057.357 942.396,1056.534 942.396,1057.18 	"/>
	<polygon fill="#231F20" points="941.68,1055.361 941.68,1054.771 942.437,1053.943 942.437,1054.594 	"/>
	<polygon fill="#231F20" points="941.661,1056.667 941.661,1056.074 942.417,1055.253 942.417,1055.897 	"/>
	<polygon fill="#231F20" points="941.68,1054.079 941.68,1053.488 942.437,1052.663 942.437,1053.311 	"/>
	<polygon fill="#231F20" points="941.661,1052.861 941.661,1052.272 942.417,1051.445 942.417,1052.095 	"/>
	<polygon fill="#231F20" points="941.661,1051.578 941.661,1050.989 942.417,1050.164 942.417,1050.812 	"/>
	<polygon fill="#231F20" points="941.68,1050.252 941.68,1049.661 942.437,1048.836 942.437,1049.483 	"/>
	<polygon fill="#231F20" points="941.68,1048.967 941.68,1048.378 942.437,1047.553 942.437,1048.201 	"/>
	<polygon fill="#231F20" points="941.661,1047.751 941.661,1047.162 942.417,1046.337 942.417,1046.984 	"/>
	<polygon fill="#231F20" points="941.661,1046.469 941.661,1045.879 942.417,1045.054 942.417,1045.702 	"/>
	<polygon fill="#231F20" points="941.68,1043.904 941.68,1043.312 942.437,1042.488 942.437,1043.137 	"/>
	<polygon fill="#231F20" points="941.661,1045.21 941.661,1044.617 942.417,1043.794 942.417,1044.442 	"/>
	<polygon fill="#231F20" points="941.68,1042.62 941.68,1042.029 942.437,1041.206 942.437,1041.854 	"/>
	<polygon fill="#231F20" points="941.661,1041.404 941.661,1040.813 942.417,1039.988 942.417,1040.636 	"/>
	<polygon fill="#231F20" points="941.661,1040.121 941.661,1039.528 942.417,1038.705 942.417,1039.354 	"/>
	<polygon fill="#231F20" points="941.68,1038.793 941.68,1038.204 942.437,1037.377 942.437,1038.024 	"/>
	<polygon fill="#231F20" points="941.68,1037.51 941.68,1036.921 942.437,1036.096 942.437,1036.744 	"/>
	<polygon fill="#231F20" points="941.661,1036.292 941.661,1035.703 942.417,1034.878 942.417,1035.525 	"/>
	<polygon fill="#231F20" points="941.661,1035.011 941.661,1034.42 942.417,1033.593 942.417,1034.243 	"/>
	<polygon fill="#231F20" points="941.68,1297.751 941.68,1297.16 942.437,1296.335 942.437,1296.983 	"/>
	<polygon fill="#231F20" points="941.661,1299.057 941.661,1298.466 942.417,1297.641 942.417,1298.289 	"/>
	<polygon fill="#231F20" points="941.68,1296.469 941.68,1295.878 942.437,1295.053 942.437,1295.7 	"/>
	<polygon fill="#231F20" points="941.661,1295.251 941.661,1294.66 942.417,1293.836 942.417,1294.484 	"/>
	<polygon fill="#231F20" points="941.661,1293.968 941.661,1293.379 942.417,1292.554 942.417,1293.202 	"/>
	<polygon fill="#231F20" points="941.68,1292.642 941.68,1292.051 942.437,1291.226 942.437,1291.875 	"/>
	<polygon fill="#231F20" points="941.68,1291.358 941.68,1290.768 942.437,1289.942 942.437,1290.591 	"/>
	<polygon fill="#231F20" points="941.661,1290.143 941.661,1289.552 942.417,1288.727 942.417,1289.376 	"/>
	<polygon fill="#231F20" points="941.661,1288.857 941.661,1288.269 942.417,1287.443 942.417,1288.092 	"/>
	<polygon fill="#231F20" points="941.661,1286.294 941.661,1285.703 942.417,1284.878 942.417,1285.524 	"/>
	<polygon fill="#231F20" points="941.64,1287.6 941.64,1287.007 942.396,1286.184 942.396,1286.83 	"/>
	<polygon fill="#231F20" points="941.661,1285.01 941.661,1284.421 942.417,1283.596 942.417,1284.241 	"/>
	<polygon fill="#231F20" points="941.64,1283.794 941.64,1283.203 942.396,1282.377 942.396,1283.025 	"/>
	<polygon fill="#231F20" points="941.64,1282.511 941.64,1281.92 942.396,1281.093 942.396,1281.742 	"/>
	<polygon fill="#231F20" points="941.661,1281.183 941.661,1280.594 942.417,1279.768 942.417,1280.416 	"/>
	<polygon fill="#231F20" points="941.661,1279.899 941.661,1279.311 942.417,1278.485 942.417,1279.132 	"/>
	<polygon fill="#231F20" points="941.64,1278.684 941.64,1278.093 942.396,1277.268 942.396,1277.915 	"/>
	<polygon fill="#231F20" points="941.64,1277.4 941.64,1276.81 942.396,1275.984 942.396,1276.633 	"/>
	<polygon fill="#231F20" points="941.661,1274.791 941.661,1274.2 942.417,1273.375 942.417,1274.023 	"/>
	<polygon fill="#231F20" points="941.64,1276.097 941.64,1275.504 942.396,1274.681 942.396,1275.329 	"/>
	<polygon fill="#231F20" points="941.661,1273.507 941.661,1272.918 942.417,1272.093 942.417,1272.738 	"/>
	<polygon fill="#231F20" points="941.64,1272.291 941.64,1271.7 942.396,1270.875 942.396,1271.524 	"/>
	<polygon fill="#231F20" points="941.64,1271.008 941.64,1270.417 942.396,1269.592 942.396,1270.24 	"/>
	<polygon fill="#231F20" points="941.661,1269.682 941.661,1269.091 942.417,1268.266 942.417,1268.915 	"/>
	<polygon fill="#231F20" points="941.661,1268.396 941.661,1267.808 942.417,1266.982 942.417,1267.631 	"/>
	<polygon fill="#231F20" points="941.64,1267.181 941.64,1266.59 942.396,1265.767 942.396,1266.414 	"/>
	<polygon fill="#231F20" points="941.64,1265.897 941.64,1265.307 942.396,1264.481 942.396,1265.13 	"/>
	<polygon fill="#231F20" points="941.68,1263.312 941.68,1262.719 942.437,1261.896 942.437,1262.543 	"/>
	<polygon fill="#231F20" points="941.661,1264.617 941.661,1264.024 942.417,1263.201 942.417,1263.849 	"/>
	<polygon fill="#231F20" points="941.68,1262.026 941.68,1261.438 942.437,1260.612 942.437,1261.261 	"/>
	<polygon fill="#231F20" points="941.661,1260.811 941.661,1260.22 942.417,1259.396 942.417,1260.045 	"/>
	<polygon fill="#231F20" points="941.661,1259.528 941.661,1258.938 942.417,1258.113 942.417,1258.76 	"/>
	<polygon fill="#231F20" points="941.68,1258.201 941.68,1257.61 942.437,1256.785 942.437,1257.434 	"/>
	<polygon fill="#231F20" points="941.68,1256.919 941.68,1256.328 942.437,1255.502 942.437,1256.15 	"/>
	<polygon fill="#231F20" points="941.661,1255.7 941.661,1255.109 942.417,1254.286 942.417,1254.935 	"/>
	<polygon fill="#231F20" points="941.661,1254.418 941.661,1253.829 942.417,1253.004 942.417,1253.651 	"/>
	<polygon fill="#231F20" points="941.68,1251.811 941.68,1251.218 942.437,1250.393 942.437,1251.04 	"/>
	<polygon fill="#231F20" points="941.661,1253.114 941.661,1252.521 942.417,1251.7 942.417,1252.346 	"/>
	<polygon fill="#231F20" points="941.68,1250.525 941.68,1249.933 942.437,1249.109 942.437,1249.758 	"/>
	<polygon fill="#231F20" points="941.661,1249.308 941.661,1248.719 942.417,1247.894 942.417,1248.542 	"/>
	<polygon fill="#231F20" points="941.661,1248.025 941.661,1247.435 942.417,1246.61 942.417,1247.257 	"/>
	<polygon fill="#231F20" points="941.68,1246.696 941.68,1246.107 942.437,1245.282 942.437,1245.931 	"/>
	<polygon fill="#231F20" points="941.68,1245.416 941.68,1244.825 942.437,1244 942.437,1244.649 	"/>
	<polygon fill="#231F20" points="941.661,1244.197 941.661,1243.608 942.417,1242.783 942.417,1243.432 	"/>
	<polygon fill="#231F20" points="941.661,1242.917 941.661,1242.326 942.417,1241.499 942.417,1242.148 	"/>
	<polygon fill="#231F20" points="941.661,1240.352 941.661,1239.759 942.417,1238.936 942.417,1239.581 	"/>
	<polygon fill="#231F20" points="941.64,1241.657 941.64,1241.064 942.396,1240.241 942.396,1240.887 	"/>
	<polygon fill="#231F20" points="941.661,1239.066 941.661,1238.476 942.417,1237.65 942.417,1238.299 	"/>
	<polygon fill="#231F20" points="941.64,1237.851 941.64,1237.258 942.396,1236.435 942.396,1237.082 	"/>
	<polygon fill="#231F20" points="941.64,1236.568 941.64,1235.977 942.396,1235.151 942.396,1235.8 	"/>
	<polygon fill="#231F20" points="941.661,1235.239 941.661,1234.65 942.417,1233.825 942.417,1234.474 	"/>
	<polygon fill="#231F20" points="941.661,1233.957 941.661,1233.367 942.417,1232.542 942.417,1233.188 	"/>
	<polygon fill="#231F20" points="941.64,1232.74 941.64,1232.149 942.396,1231.324 942.396,1231.973 	"/>
	<polygon fill="#231F20" points="941.64,1231.458 941.64,1230.867 942.396,1230.042 942.396,1230.689 	"/>
	<polygon fill="#231F20" points="941.68,1228.871 941.68,1228.278 942.437,1227.453 942.437,1228.104 	"/>
	<polygon fill="#231F20" points="941.661,1230.175 941.661,1229.582 942.417,1228.761 942.417,1229.407 	"/>
	<polygon fill="#231F20" points="941.68,1227.587 941.68,1226.998 942.437,1226.173 942.437,1226.82 	"/>
	<polygon fill="#231F20" points="941.661,1226.371 941.661,1225.779 942.417,1224.954 942.417,1225.603 	"/>
	<polygon fill="#231F20" points="941.661,1225.086 941.661,1224.495 942.417,1223.672 942.417,1224.319 	"/>
	<polygon fill="#231F20" points="941.68,1223.762 941.68,1223.169 942.437,1222.345 942.437,1222.993 	"/>
	<polygon fill="#231F20" points="941.68,1222.477 941.68,1221.886 942.437,1221.062 942.437,1221.711 	"/>
	<polygon fill="#231F20" points="941.661,1221.261 941.661,1220.67 942.417,1219.845 942.417,1220.492 	"/>
	<polygon fill="#231F20" points="941.661,1219.978 941.661,1219.387 942.417,1218.562 942.417,1219.21 	"/>
	<polygon fill="#231F20" points="941.661,1217.434 941.661,1216.845 942.417,1216.02 942.417,1216.667 	"/>
	<polygon fill="#231F20" points="941.64,1218.741 941.64,1218.148 942.396,1217.324 942.396,1217.971 	"/>
	<polygon fill="#231F20" points="941.661,1216.148 941.661,1215.56 942.417,1214.734 942.417,1215.385 	"/>
	<polygon fill="#231F20" points="941.64,1214.935 941.64,1214.344 942.396,1213.519 942.396,1214.166 	"/>
	<polygon fill="#231F20" points="941.64,1213.649 941.64,1213.061 942.396,1212.233 942.396,1212.882 	"/>
	<polygon fill="#231F20" points="941.661,1212.323 941.661,1211.734 942.417,1210.909 942.417,1211.557 	"/>
	<polygon fill="#231F20" points="941.661,1211.04 941.661,1210.451 942.417,1209.626 942.417,1210.274 	"/>
	<polygon fill="#231F20" points="941.64,1209.824 941.64,1209.231 942.396,1208.408 942.396,1209.057 	"/>
	<polygon fill="#231F20" points="941.64,1208.542 941.64,1207.951 942.396,1207.125 942.396,1207.773 	"/>
	<polygon fill="#231F20" points="941.68,1205.955 941.68,1205.362 942.437,1204.537 942.437,1205.186 	"/>
	<polygon fill="#231F20" points="941.661,1207.259 941.661,1206.668 942.417,1205.843 942.417,1206.491 	"/>
	<polygon fill="#231F20" points="941.68,1204.671 941.68,1204.08 942.437,1203.254 942.437,1203.902 	"/>
	<polygon fill="#231F20" points="941.661,1203.452 941.661,1202.863 942.417,1202.038 942.417,1202.687 	"/>
	<polygon fill="#231F20" points="941.661,1202.17 941.661,1201.581 942.417,1200.756 942.417,1201.403 	"/>
	<polygon fill="#231F20" points="941.68,1200.843 941.68,1200.254 942.437,1199.427 942.437,1200.077 	"/>
	<polygon fill="#231F20" points="941.68,1199.561 941.68,1198.972 942.437,1198.145 942.437,1198.792 	"/>
	<polygon fill="#231F20" points="941.661,1198.345 941.661,1197.754 942.417,1196.928 942.417,1197.578 	"/>
	<polygon fill="#231F20" points="941.661,1197.06 941.661,1196.471 942.417,1195.646 942.417,1196.294 	"/>
	<polygon fill="#231F20" points="941.68,1194.496 941.68,1193.905 942.437,1193.08 942.437,1193.729 	"/>
	<polygon fill="#231F20" points="941.661,1195.802 941.661,1195.211 942.417,1194.386 942.417,1195.033 	"/>
	<polygon fill="#231F20" points="941.68,1193.213 941.68,1192.621 942.437,1191.795 942.437,1192.443 	"/>
	<polygon fill="#231F20" points="941.661,1191.995 941.661,1191.404 942.417,1190.579 942.417,1191.228 	"/>
	<polygon fill="#231F20" points="941.661,1190.713 941.661,1190.122 942.417,1189.297 942.417,1189.944 	"/>
	<polygon fill="#231F20" points="941.68,1189.384 941.68,1188.795 942.437,1187.97 942.437,1188.618 	"/>
	<polygon fill="#231F20" points="941.68,1188.102 941.68,1187.513 942.437,1186.688 942.437,1187.335 	"/>
	<polygon fill="#231F20" points="941.661,1186.886 941.661,1186.297 942.417,1185.469 942.417,1186.117 	"/>
	<polygon fill="#231F20" points="941.661,1185.603 941.661,1185.012 942.417,1184.187 942.417,1184.836 	"/>
</g>
</svg>
