<svg xmlns="http://www.w3.org/2000/svg" width="1366" height="700" viewBox="0 0 1366 700"><path d="M794.126 659.526s1.248-.183 1.323.275c.073.458.247 1.462.058 1.6-.188.137-.982.73-.188.73.305 0 .417.73.267.914-.152.182-.34.272-.19.777.152.504.524 1.096.114 1.096-1.06 0-.036.822-.112 1.234-.075.41-.15.96-.68.32-.17-.206-.418-.003-.76.09-.34.092-.486.37-.56.187-.075-.185-.195-.142-.612-.188-.417-.046-.66 0-.89 0-.227 0-.817.03-.97-.155-.15-.183-.163-.323-.654-.094-.492.23-.84.142-1.22.19-.38.044-.77-.487-1.034-.487-.267 0-.54.193-1.185.33s-.795.228-.945-.184c-.15-.414-.476-.575-.397-.85.075-.273.368-.316-.124-.5-.49-.184-.602-.17-.64-.532-.038-.365-.23-.82 0-1.054.228-.23.87.185.188-.775-.297-.418-.416-.96-.34-1.096.074-.14-.137-1.51.203-1.737.342-.23.795-.045 1.21.41.368.406.53-.593 1.022-.73.49-.136.83 1.464 1.323.595.15-.265.527.275.907-.137.38-.41.906-.41 1.172-.41.267 0 .315 1.382.646.775.645-1.19 1.1.503 1.553-.365.157-.302.566.235.72.273.72.185.796-.502.796-.502z" fill="#231f20"/></svg>