<?xml version="1.0" encoding="iso-8859-1"?>
<!-- Generator: Adobe Illustrator 16.0.4, SVG Export Plug-In . SVG Version: 6.00 Build 0)  -->
<!DOCTYPE svg PUBLIC "-//W3C//DTD SVG 1.1//EN" "http://www.w3.org/Graphics/SVG/1.1/DTD/svg11.dtd">
<svg version="1.1" xmlns="http://www.w3.org/2000/svg" xmlns:xlink="http://www.w3.org/1999/xlink" x="0px" y="0px" width="1366px"
	 height="700px" viewBox="0 0 1366 700" style="enable-background:new 0 0 1366 700;" xml:space="preserve">
<g id="Skip">
	<polygon style="fill:#231F20;" points="788.641,632.038 791.879,632.038 793.742,634.882 796.747,634.904 796.581,679.633 
		783.67,679.633 783.692,634.856 786.904,634.867 	"/>
	<polygon style="fill:#FFFFFF;" points="789.208,632.737 791.361,632.737 792.783,634.882 787.838,634.882 	"/>
	<rect x="783.531" y="638.391" style="fill:#FFFFFF;" width="12.149" height="14.207"/>
	<polyline style="fill:#231F20;" points="789.577,637.63 789.577,653.793 790.561,653.793 790.561,637.63 	"/>
	<rect id="Inside_Skip" x="784.429" y="653.128" style="fill:#929497;" width="11.5" height="25.625"/>
	<g id="Skip_chain_1_">
		<polygon style="fill:#231F20;" points="789.812,367.094 789.812,366.501 790.57,365.676 790.57,366.324 		"/>
		<polygon style="fill:#231F20;" points="789.834,364.528 789.834,363.936 790.59,363.108 790.59,363.759 		"/>
		<polygon style="fill:#231F20;" points="789.812,365.832 789.812,365.24 790.57,364.416 790.57,365.062 		"/>
		<polygon style="fill:#231F20;" points="789.834,363.24 789.834,362.651 790.59,361.826 790.59,362.474 		"/>
		<polygon style="fill:#231F20;" points="789.812,362.026 789.812,361.436 790.57,360.609 790.57,361.26 		"/>
		<polygon style="fill:#231F20;" points="789.812,360.742 789.812,360.152 790.57,359.326 790.57,359.977 		"/>
		<polygon style="fill:#231F20;" points="789.834,359.417 789.834,358.826 790.59,358 790.59,358.648 		"/>
		<polygon style="fill:#231F20;" points="789.834,358.132 789.834,357.541 790.59,356.718 790.59,357.365 		"/>
		<polygon style="fill:#231F20;" points="789.812,356.916 789.812,356.327 790.57,355.5 790.57,356.147 		"/>
		<polygon style="fill:#231F20;" points="789.812,355.633 789.812,355.042 790.57,354.219 790.57,354.865 		"/>
		<polygon style="fill:#231F20;" points="789.847,353.037 789.847,352.446 790.602,351.621 790.602,352.271 		"/>
		<polygon style="fill:#231F20;" points="789.826,354.345 789.826,353.752 790.583,352.927 790.583,353.574 		"/>
		<polygon style="fill:#231F20;" points="789.847,351.755 789.847,351.163 790.602,350.338 790.602,350.986 		"/>
		<polygon style="fill:#231F20;" points="789.826,350.538 789.826,349.947 790.583,349.122 790.583,349.771 		"/>
		<polygon style="fill:#231F20;" points="789.826,349.256 789.826,348.665 790.583,347.84 790.583,348.487 		"/>
		<polygon style="fill:#231F20;" points="789.847,347.927 789.847,347.338 790.602,346.513 790.602,347.158 		"/>
		<polygon style="fill:#231F20;" points="789.847,346.645 789.847,346.054 790.602,345.229 790.602,345.878 		"/>
		<polygon style="fill:#231F20;" points="789.826,345.429 789.826,344.838 790.583,344.012 790.583,344.66 		"/>
		<polygon style="fill:#231F20;" points="789.826,344.146 789.826,343.555 790.583,342.729 790.583,343.379 		"/>
		<polygon style="fill:#231F20;" points="789.854,341.564 789.854,340.974 790.609,340.148 790.609,340.797 		"/>
		<polygon style="fill:#231F20;" points="789.834,342.87 789.834,342.279 790.59,341.454 790.59,342.103 		"/>
		<polygon style="fill:#231F20;" points="789.854,340.283 789.854,339.691 790.609,338.865 790.609,339.514 		"/>
		<polygon style="fill:#231F20;" points="789.834,339.066 789.834,338.476 790.59,337.649 790.59,338.298 		"/>
		<polygon style="fill:#231F20;" points="789.834,337.781 789.834,337.192 790.59,336.367 790.59,337.015 		"/>
		<polygon style="fill:#231F20;" points="789.854,336.455 789.854,335.865 790.609,335.038 790.609,335.688 		"/>
		<polygon style="fill:#231F20;" points="789.854,335.172 789.854,334.583 790.609,333.756 790.609,334.406 		"/>
		<polygon style="fill:#231F20;" points="789.834,333.956 789.834,333.365 790.59,332.54 790.59,333.188 		"/>
		<polygon style="fill:#231F20;" points="789.834,332.673 789.834,332.082 790.59,331.257 790.59,331.905 		"/>
		<polygon style="fill:#231F20;" points="789.854,330.085 789.854,329.494 790.609,328.669 790.609,329.316 		"/>
		<polygon style="fill:#231F20;" points="789.834,331.391 789.834,330.8 790.59,329.975 790.59,330.62 		"/>
		<polygon style="fill:#231F20;" points="789.854,328.802 789.854,328.211 790.609,327.386 790.609,328.033 		"/>
		<polygon style="fill:#231F20;" points="789.834,327.584 789.834,326.993 790.59,326.17 790.59,326.817 		"/>
		<polygon style="fill:#231F20;" points="789.834,326.303 789.834,325.712 790.59,324.885 790.59,325.535 		"/>
		<polygon style="fill:#231F20;" points="789.854,324.975 789.854,324.386 790.609,323.559 790.609,324.209 		"/>
		<polygon style="fill:#231F20;" points="789.854,323.692 789.854,323.102 790.609,322.275 790.609,322.924 		"/>
		<polygon style="fill:#231F20;" points="789.834,322.476 789.834,321.885 790.59,321.06 790.59,321.708 		"/>
		<polygon style="fill:#231F20;" points="789.834,321.191 789.834,320.603 790.59,319.777 790.59,320.425 		"/>
		<polygon style="fill:#231F20;" points="789.834,318.628 789.834,318.037 790.59,317.212 790.59,317.857 		"/>
		<polygon style="fill:#231F20;" points="789.812,319.934 789.812,319.341 790.57,318.518 790.57,319.163 		"/>
		<polygon style="fill:#231F20;" points="789.834,317.343 789.834,316.754 790.59,315.929 790.59,316.577 		"/>
		<polygon style="fill:#231F20;" points="789.812,316.127 789.812,315.536 790.57,314.711 790.57,315.36 		"/>
		<polygon style="fill:#231F20;" points="789.812,314.844 789.812,314.253 790.57,313.428 790.57,314.076 		"/>
		<polygon style="fill:#231F20;" points="789.834,313.518 789.834,312.927 790.59,312.102 790.59,312.749 		"/>
		<polygon style="fill:#231F20;" points="789.834,312.233 789.834,311.644 790.59,310.818 790.59,311.467 		"/>
		<polygon style="fill:#231F20;" points="789.812,311.017 789.812,310.426 790.57,309.601 790.57,310.249 		"/>
		<polygon style="fill:#231F20;" points="789.812,309.734 789.812,309.144 790.57,308.318 790.57,308.966 		"/>
		<polygon style="fill:#231F20;" points="789.834,307.125 789.834,306.533 790.59,305.709 790.59,306.356 		"/>
		<polygon style="fill:#231F20;" points="789.812,308.431 789.812,307.838 790.57,307.015 790.57,307.66 		"/>
		<polygon style="fill:#231F20;" points="789.834,305.842 789.834,305.251 790.59,304.426 790.59,305.074 		"/>
		<polygon style="fill:#231F20;" points="789.812,304.624 789.812,304.033 790.57,303.208 790.57,303.857 		"/>
		<polygon style="fill:#231F20;" points="789.812,303.342 789.812,302.75 790.57,301.925 790.57,302.574 		"/>
		<polygon style="fill:#231F20;" points="789.834,302.015 789.834,301.424 790.59,300.599 790.59,301.246 		"/>
		<polygon style="fill:#231F20;" points="789.834,300.732 789.834,300.141 790.59,299.315 790.59,299.964 		"/>
		<polygon style="fill:#231F20;" points="789.812,299.514 789.812,298.925 790.57,298.1 790.57,298.748 		"/>
		<polygon style="fill:#231F20;" points="789.812,298.231 789.812,297.643 790.57,296.815 790.57,297.465 		"/>
		<polygon style="fill:#231F20;" points="789.854,295.645 789.854,295.052 790.609,294.229 790.609,294.875 		"/>
		<polygon style="fill:#231F20;" points="789.834,296.949 789.834,296.357 790.59,295.533 790.59,296.181 		"/>
		<polygon style="fill:#231F20;" points="789.854,294.36 789.854,293.77 790.609,292.946 790.609,293.592 		"/>
		<polygon style="fill:#231F20;" points="789.834,293.145 789.834,292.553 790.59,291.729 790.59,292.378 		"/>
		<polygon style="fill:#231F20;" points="789.834,291.861 789.834,291.271 790.59,290.445 790.59,291.093 		"/>
		<polygon style="fill:#231F20;" points="789.854,290.535 789.854,289.943 790.609,289.118 790.609,289.767 		"/>
		<polygon style="fill:#231F20;" points="789.854,289.252 789.854,288.661 790.609,287.834 790.609,288.483 		"/>
		<polygon style="fill:#231F20;" points="789.834,288.036 789.834,287.443 790.59,286.62 790.59,287.268 		"/>
		<polygon style="fill:#231F20;" points="789.834,286.751 789.834,286.162 790.59,285.335 790.59,285.985 		"/>
		<polygon style="fill:#231F20;" points="789.854,284.142 789.854,283.549 790.609,282.726 790.609,283.374 		"/>
		<polygon style="fill:#231F20;" points="789.834,285.447 789.834,284.854 790.59,284.031 790.59,284.68 		"/>
		<polygon style="fill:#231F20;" points="789.854,282.859 789.854,282.267 790.609,281.443 790.609,282.091 		"/>
		<polygon style="fill:#231F20;" points="789.834,281.642 789.834,281.052 790.59,280.227 790.59,280.875 		"/>
		<polygon style="fill:#231F20;" points="789.834,280.36 789.834,279.768 790.59,278.944 790.59,279.592 		"/>
		<polygon style="fill:#231F20;" points="789.854,279.033 789.854,278.443 790.609,277.615 790.609,278.264 		"/>
		<polygon style="fill:#231F20;" points="789.854,277.749 789.854,277.158 790.609,276.335 790.609,276.98 		"/>
		<polygon style="fill:#231F20;" points="789.834,276.533 789.834,275.942 790.59,275.117 790.59,275.765 		"/>
		<polygon style="fill:#231F20;" points="789.834,275.25 789.834,274.658 790.59,273.834 790.59,274.482 		"/>
		<polygon style="fill:#231F20;" points="789.834,272.685 789.834,272.092 790.59,271.269 790.59,271.915 		"/>
		<polygon style="fill:#231F20;" points="789.812,273.988 789.812,273.397 790.57,272.572 790.57,273.221 		"/>
		<polygon style="fill:#231F20;" points="789.834,271.4 789.834,270.81 790.59,269.984 790.59,270.632 		"/>
		<polygon style="fill:#231F20;" points="789.812,270.184 789.812,269.593 790.57,268.768 790.57,269.418 		"/>
		<polygon style="fill:#231F20;" points="789.812,268.901 789.812,268.311 790.57,267.485 790.57,268.133 		"/>
		<polygon style="fill:#231F20;" points="789.834,267.574 789.834,266.983 790.59,266.158 790.59,266.807 		"/>
		<polygon style="fill:#231F20;" points="789.834,266.29 789.834,265.701 790.59,264.876 790.59,265.521 		"/>
		<polygon style="fill:#231F20;" points="789.812,265.074 789.812,264.483 790.57,263.66 790.57,264.308 		"/>
		<polygon style="fill:#231F20;" points="789.812,263.791 789.812,263.199 790.57,262.375 790.57,263.023 		"/>
		<polygon style="fill:#231F20;" points="789.854,261.205 789.854,260.612 790.609,259.787 790.609,260.435 		"/>
		<polygon style="fill:#231F20;" points="789.834,262.509 789.834,261.918 790.59,261.092 790.59,261.74 		"/>
		<polygon style="fill:#231F20;" points="789.854,259.92 789.854,259.329 790.609,258.504 790.609,259.151 		"/>
		<polygon style="fill:#231F20;" points="789.834,258.704 789.834,258.113 790.59,257.288 790.59,257.936 		"/>
		<polygon style="fill:#231F20;" points="789.834,257.42 789.834,256.829 790.59,256.005 790.59,256.653 		"/>
		<polygon style="fill:#231F20;" points="789.854,256.095 789.854,255.502 790.609,254.679 790.609,255.327 		"/>
		<polygon style="fill:#231F20;" points="789.854,254.81 789.854,254.22 790.609,253.395 790.609,254.043 		"/>
		<polygon style="fill:#231F20;" points="789.834,253.595 789.834,253.004 790.59,252.179 790.59,252.827 		"/>
		<polygon style="fill:#231F20;" points="789.834,252.311 789.834,251.721 790.59,250.896 790.59,251.544 		"/>
		<polygon style="fill:#231F20;" points="789.834,249.768 789.834,249.177 790.59,248.352 790.59,249 		"/>
		<polygon style="fill:#231F20;" points="789.812,251.072 789.812,250.48 790.57,249.658 790.57,250.304 		"/>
		<polygon style="fill:#231F20;" points="789.834,248.483 789.834,247.894 790.59,247.068 790.59,247.717 		"/>
		<polygon style="fill:#231F20;" points="789.812,247.269 789.812,246.678 790.57,245.852 790.57,246.501 		"/>
		<polygon style="fill:#231F20;" points="789.812,245.984 789.812,245.394 790.57,244.568 790.57,245.218 		"/>
		<polygon style="fill:#231F20;" points="789.834,244.658 789.834,244.067 790.59,243.242 790.59,243.891 		"/>
		<polygon style="fill:#231F20;" points="789.834,243.375 789.834,242.783 790.59,241.959 790.59,242.607 		"/>
		<polygon style="fill:#231F20;" points="789.812,242.158 789.812,241.567 790.57,240.742 790.57,241.391 		"/>
		<polygon style="fill:#231F20;" points="789.812,240.876 789.812,240.285 790.57,239.46 790.57,240.107 		"/>
		<polygon style="fill:#231F20;" points="789.854,238.288 789.854,237.695 790.609,236.872 790.609,237.519 		"/>
		<polygon style="fill:#231F20;" points="789.834,239.593 789.834,239.001 790.59,238.178 790.59,238.824 		"/>
		<polygon style="fill:#231F20;" points="789.854,237.004 789.854,236.414 790.609,235.588 790.609,236.236 		"/>
		<polygon style="fill:#231F20;" points="789.834,235.788 789.834,235.196 790.59,234.372 790.59,235.021 		"/>
		<polygon style="fill:#231F20;" points="789.834,234.505 789.834,233.914 790.59,233.089 790.59,233.737 		"/>
		<polygon style="fill:#231F20;" points="789.854,233.178 789.854,232.588 790.609,231.762 790.609,232.411 		"/>
		<polygon style="fill:#231F20;" points="789.854,231.895 789.854,231.304 790.609,230.479 790.609,231.127 		"/>
		<polygon style="fill:#231F20;" points="789.834,230.678 789.834,230.088 790.59,229.262 790.59,229.91 		"/>
		<polygon style="fill:#231F20;" points="789.834,229.395 789.834,228.805 790.59,227.979 790.59,228.628 		"/>
		<polygon style="fill:#231F20;" points="789.854,226.83 789.854,226.238 790.609,225.414 790.609,226.061 		"/>
		<polygon style="fill:#231F20;" points="789.834,228.135 789.834,227.543 790.59,226.719 790.59,227.365 		"/>
		<polygon style="fill:#231F20;" points="789.854,225.547 789.854,224.956 790.609,224.13 790.609,224.778 		"/>
		<polygon style="fill:#231F20;" points="789.834,224.329 789.834,223.738 790.59,222.914 790.59,223.562 		"/>
		<polygon style="fill:#231F20;" points="789.834,223.047 789.834,222.456 790.59,221.631 790.59,222.279 		"/>
		<polygon style="fill:#231F20;" points="789.854,221.72 789.854,221.129 790.609,220.304 790.609,220.952 		"/>
		<polygon style="fill:#231F20;" points="789.854,220.436 789.854,219.846 790.609,219.021 790.609,219.669 		"/>
		<polygon style="fill:#231F20;" points="789.834,219.22 789.834,218.63 790.59,217.804 790.59,218.453 		"/>
		<polygon style="fill:#231F20;" points="789.834,217.937 789.834,217.346 790.59,216.521 790.59,217.17 		"/>
		<polygon style="fill:#231F20;" points="789.771,517.554 789.771,516.961 790.529,516.138 790.529,516.783 		"/>
		<polygon style="fill:#231F20;" points="789.794,514.986 789.794,514.396 790.55,513.568 790.55,514.219 		"/>
		<polygon style="fill:#231F20;" points="789.771,516.29 789.771,515.701 790.529,514.876 790.529,515.521 		"/>
		<polygon style="fill:#231F20;" points="789.794,513.701 789.794,513.113 790.55,512.286 790.55,512.936 		"/>
		<polygon style="fill:#231F20;" points="789.771,512.484 789.771,511.897 790.529,511.069 790.529,511.72 		"/>
		<polygon style="fill:#231F20;" points="789.771,511.201 789.771,510.615 790.529,509.789 790.529,510.438 		"/>
		<polygon style="fill:#231F20;" points="789.794,509.877 789.794,509.286 790.55,508.461 790.55,509.108 		"/>
		<polygon style="fill:#231F20;" points="789.794,508.592 789.794,508.003 790.55,507.178 790.55,507.826 		"/>
		<polygon style="fill:#231F20;" points="789.771,507.378 789.771,506.787 790.529,505.962 790.529,506.609 		"/>
		<polygon style="fill:#231F20;" points="789.771,506.093 789.771,505.504 790.529,504.679 790.529,505.326 		"/>
		<polygon style="fill:#231F20;" points="789.805,503.499 789.805,502.908 790.562,502.083 790.562,502.73 		"/>
		<polygon style="fill:#231F20;" points="789.786,504.805 789.786,504.212 790.543,503.387 790.543,504.035 		"/>
		<polygon style="fill:#231F20;" points="789.805,502.217 789.805,501.623 790.562,500.8 790.562,501.447 		"/>
		<polygon style="fill:#231F20;" points="789.786,500.998 789.786,500.408 790.543,499.584 790.543,500.23 		"/>
		<polygon style="fill:#231F20;" points="789.786,499.716 789.786,499.125 790.543,498.302 790.543,498.947 		"/>
		<polygon style="fill:#231F20;" points="789.805,498.389 789.805,497.798 790.562,496.973 790.562,497.621 		"/>
		<polygon style="fill:#231F20;" points="789.805,497.106 789.805,496.516 790.562,495.69 790.562,496.338 		"/>
		<polygon style="fill:#231F20;" points="789.786,495.889 789.786,495.298 790.543,494.474 790.543,495.122 		"/>
		<polygon style="fill:#231F20;" points="789.786,494.605 789.786,494.017 790.543,493.191 790.543,493.839 		"/>
		<polygon style="fill:#231F20;" points="789.812,492.026 789.812,491.436 790.57,490.61 790.57,491.259 		"/>
		<polygon style="fill:#231F20;" points="789.794,493.332 789.794,492.74 790.55,491.916 790.55,492.562 		"/>
		<polygon style="fill:#231F20;" points="789.812,490.742 789.812,490.153 790.57,489.326 790.57,489.976 		"/>
		<polygon style="fill:#231F20;" points="789.794,489.526 789.794,488.936 790.55,488.111 790.55,488.758 		"/>
		<polygon style="fill:#231F20;" points="789.794,488.24 789.794,487.652 790.55,486.826 790.55,487.475 		"/>
		<polygon style="fill:#231F20;" points="789.812,486.915 789.812,486.326 790.57,485.5 790.57,486.148 		"/>
		<polygon style="fill:#231F20;" points="789.812,485.632 789.812,485.043 790.57,484.218 790.57,484.865 		"/>
		<polygon style="fill:#231F20;" points="789.794,484.416 789.794,483.826 790.55,483.002 790.55,483.649 		"/>
		<polygon style="fill:#231F20;" points="789.794,483.133 789.794,482.542 790.55,481.719 790.55,482.365 		"/>
		<polygon style="fill:#231F20;" points="789.812,480.547 789.812,479.954 790.57,479.129 790.57,479.776 		"/>
		<polygon style="fill:#231F20;" points="789.794,481.851 789.794,481.26 790.55,480.438 790.55,481.082 		"/>
		<polygon style="fill:#231F20;" points="789.812,479.262 789.812,478.673 790.57,477.846 790.57,478.496 		"/>
		<polygon style="fill:#231F20;" points="789.794,478.044 789.794,477.455 790.55,476.63 790.55,477.277 		"/>
		<polygon style="fill:#231F20;" points="789.794,476.762 789.794,476.172 790.55,475.347 790.55,475.995 		"/>
		<polygon style="fill:#231F20;" points="789.812,475.438 789.812,474.846 790.57,474.019 790.57,474.668 		"/>
		<polygon style="fill:#231F20;" points="789.812,474.152 789.812,473.562 790.57,472.737 790.57,473.386 		"/>
		<polygon style="fill:#231F20;" points="789.794,472.936 789.794,472.347 790.55,471.52 790.55,472.17 		"/>
		<polygon style="fill:#231F20;" points="789.794,471.653 789.794,471.064 790.55,470.237 790.55,470.885 		"/>
		<polygon style="fill:#231F20;" points="789.794,469.088 789.794,468.497 790.55,467.672 790.55,468.319 		"/>
		<polygon style="fill:#231F20;" points="789.771,470.396 789.771,469.803 790.529,468.977 790.529,469.625 		"/>
		<polygon style="fill:#231F20;" points="789.794,467.805 789.794,467.214 790.55,466.391 790.55,467.039 		"/>
		<polygon style="fill:#231F20;" points="789.771,466.587 789.771,465.998 790.529,465.171 790.529,465.82 		"/>
		<polygon style="fill:#231F20;" points="789.771,465.306 789.771,464.713 790.529,463.888 790.529,464.536 		"/>
		<polygon style="fill:#231F20;" points="789.794,463.976 789.794,463.389 790.55,462.562 790.55,463.209 		"/>
		<polygon style="fill:#231F20;" points="789.794,462.694 789.794,462.104 790.55,461.278 790.55,461.929 		"/>
		<polygon style="fill:#231F20;" points="789.771,461.477 789.771,460.888 790.529,460.062 790.529,460.711 		"/>
		<polygon style="fill:#231F20;" points="789.771,460.197 789.771,459.604 790.529,458.778 790.529,459.428 		"/>
		<polygon style="fill:#231F20;" points="789.794,457.585 789.794,456.996 790.55,456.171 790.55,456.818 		"/>
		<polygon style="fill:#231F20;" points="789.771,458.893 789.771,458.3 790.529,457.475 790.529,458.122 		"/>
		<polygon style="fill:#231F20;" points="789.794,456.3 789.794,455.711 790.55,454.886 790.55,455.533 		"/>
		<polygon style="fill:#231F20;" points="789.771,455.086 789.771,454.495 790.529,453.67 790.529,454.317 		"/>
		<polygon style="fill:#231F20;" points="789.771,453.801 789.771,453.212 790.529,452.387 790.529,453.035 		"/>
		<polygon style="fill:#231F20;" points="789.794,452.475 789.794,451.886 790.55,451.061 790.55,451.708 		"/>
		<polygon style="fill:#231F20;" points="789.794,451.192 789.794,450.603 790.55,449.775 790.55,450.426 		"/>
		<polygon style="fill:#231F20;" points="789.771,449.976 789.771,449.383 790.529,448.56 790.529,449.208 		"/>
		<polygon style="fill:#231F20;" points="789.771,448.693 789.771,448.103 790.529,447.277 790.529,447.925 		"/>
		<polygon style="fill:#231F20;" points="789.812,446.106 789.812,445.514 790.57,444.688 790.57,445.337 		"/>
		<polygon style="fill:#231F20;" points="789.794,447.41 789.794,446.819 790.55,445.994 790.55,446.643 		"/>
		<polygon style="fill:#231F20;" points="789.812,444.822 789.812,444.231 790.57,443.406 790.57,444.054 		"/>
		<polygon style="fill:#231F20;" points="789.794,443.604 789.794,443.015 790.55,442.189 790.55,442.838 		"/>
		<polygon style="fill:#231F20;" points="789.794,442.322 789.794,441.732 790.55,440.908 790.55,441.555 		"/>
		<polygon style="fill:#231F20;" points="789.812,440.996 789.812,440.406 790.57,439.578 790.57,440.229 		"/>
		<polygon style="fill:#231F20;" points="789.812,439.712 789.812,439.123 790.57,438.296 790.57,438.943 		"/>
		<polygon style="fill:#231F20;" points="789.794,438.496 789.794,437.906 790.55,437.08 790.55,437.729 		"/>
		<polygon style="fill:#231F20;" points="789.794,437.211 789.794,436.622 790.55,435.797 790.55,436.445 		"/>
		<polygon style="fill:#231F20;" points="789.812,434.604 789.812,434.013 790.57,433.188 790.57,433.836 		"/>
		<polygon style="fill:#231F20;" points="789.794,435.908 789.794,435.316 790.55,434.492 790.55,435.14 		"/>
		<polygon style="fill:#231F20;" points="789.812,433.319 789.812,432.73 790.57,431.903 790.57,432.553 		"/>
		<polygon style="fill:#231F20;" points="789.794,432.104 789.794,431.512 790.55,430.688 790.55,431.335 		"/>
		<polygon style="fill:#231F20;" points="789.794,430.82 789.794,430.231 790.55,429.404 790.55,430.054 		"/>
		<polygon style="fill:#231F20;" points="789.812,429.494 789.812,428.902 790.57,428.076 790.57,428.726 		"/>
		<polygon style="fill:#231F20;" points="789.812,428.211 789.812,427.617 790.57,426.795 790.57,427.442 		"/>
		<polygon style="fill:#231F20;" points="789.794,426.992 789.794,426.402 790.55,425.576 790.55,426.227 		"/>
		<polygon style="fill:#231F20;" points="789.794,425.71 789.794,425.119 790.55,424.296 790.55,424.944 		"/>
		<polygon style="fill:#231F20;" points="789.794,423.145 789.794,422.556 790.55,421.729 790.55,422.379 		"/>
		<polygon style="fill:#231F20;" points="789.771,424.449 789.771,423.859 790.529,423.033 790.529,423.683 		"/>
		<polygon style="fill:#231F20;" points="789.794,421.86 789.794,421.271 790.55,420.445 790.55,421.094 		"/>
		<polygon style="fill:#231F20;" points="789.771,420.644 789.771,420.055 790.529,419.228 790.529,419.878 		"/>
		<polygon style="fill:#231F20;" points="789.771,419.361 789.771,418.772 790.529,417.945 790.529,418.593 		"/>
		<polygon style="fill:#231F20;" points="789.794,418.033 789.794,417.445 790.55,416.62 790.55,417.269 		"/>
		<polygon style="fill:#231F20;" points="789.794,416.75 789.794,416.161 790.55,415.336 790.55,415.983 		"/>
		<polygon style="fill:#231F20;" points="789.771,415.536 789.771,414.943 790.529,414.12 790.529,414.768 		"/>
		<polygon style="fill:#231F20;" points="789.771,414.251 789.771,413.662 790.529,412.835 790.529,413.485 		"/>
		<polygon style="fill:#231F20;" points="789.812,411.665 789.812,411.074 790.57,410.248 790.57,410.896 		"/>
		<polygon style="fill:#231F20;" points="789.794,412.971 789.794,412.38 790.55,411.554 790.55,412.201 		"/>
		<polygon style="fill:#231F20;" points="789.812,410.382 789.812,409.791 790.57,408.966 790.57,409.615 		"/>
		<polygon style="fill:#231F20;" points="789.794,409.164 789.794,408.574 790.55,407.75 790.55,408.397 		"/>
		<polygon style="fill:#231F20;" points="789.794,407.881 789.794,407.292 790.55,406.467 790.55,407.115 		"/>
		<polygon style="fill:#231F20;" points="789.812,406.555 789.812,405.964 790.57,405.139 790.57,405.786 		"/>
		<polygon style="fill:#231F20;" points="789.812,405.271 789.812,404.681 790.57,403.855 790.57,404.504 		"/>
		<polygon style="fill:#231F20;" points="789.794,404.054 789.794,403.465 790.55,402.64 790.55,403.288 		"/>
		<polygon style="fill:#231F20;" points="789.794,402.771 789.794,402.183 790.55,401.356 790.55,402.005 		"/>
		<polygon style="fill:#231F20;" points="789.794,400.23 789.794,399.638 790.55,398.812 790.55,399.46 		"/>
		<polygon style="fill:#231F20;" points="789.771,401.533 789.771,400.941 790.529,400.117 790.529,400.764 		"/>
		<polygon style="fill:#231F20;" points="789.794,398.945 789.794,398.354 790.55,397.529 790.55,398.18 		"/>
		<polygon style="fill:#231F20;" points="789.771,397.728 789.771,397.139 790.529,396.312 790.529,396.96 		"/>
		<polygon style="fill:#231F20;" points="789.771,396.447 789.771,395.854 790.529,395.029 790.529,395.677 		"/>
		<polygon style="fill:#231F20;" points="789.794,395.115 789.794,394.529 790.55,393.701 790.55,394.351 		"/>
		<polygon style="fill:#231F20;" points="789.794,393.834 789.794,393.245 790.55,392.42 790.55,393.067 		"/>
		<polygon style="fill:#231F20;" points="789.771,392.617 789.771,392.029 790.529,391.203 790.529,391.852 		"/>
		<polygon style="fill:#231F20;" points="789.771,391.335 789.771,390.744 790.529,389.921 790.529,390.566 		"/>
		<polygon style="fill:#231F20;" points="789.812,388.748 789.812,388.158 790.57,387.33 790.57,387.98 		"/>
		<polygon style="fill:#231F20;" points="789.794,390.054 789.794,389.461 790.55,388.64 790.55,389.283 		"/>
		<polygon style="fill:#231F20;" points="789.812,387.466 789.812,386.875 790.57,386.05 790.57,386.697 		"/>
		<polygon style="fill:#231F20;" points="789.794,386.248 789.794,385.658 790.55,384.832 790.55,385.481 		"/>
		<polygon style="fill:#231F20;" points="789.794,384.965 789.794,384.376 790.55,383.551 790.55,384.199 		"/>
		<polygon style="fill:#231F20;" points="789.812,383.639 789.812,383.048 790.57,382.223 790.57,382.87 		"/>
		<polygon style="fill:#231F20;" points="789.812,382.354 789.812,381.765 790.57,380.939 790.57,381.588 		"/>
		<polygon style="fill:#231F20;" points="789.794,381.138 789.794,380.549 790.55,379.724 790.55,380.371 		"/>
		<polygon style="fill:#231F20;" points="789.794,379.855 789.794,379.266 790.55,378.44 790.55,379.089 		"/>
		<polygon style="fill:#231F20;" points="789.812,377.291 789.812,376.699 790.57,375.875 790.57,376.523 		"/>
		<polygon style="fill:#231F20;" points="789.794,378.597 789.794,378.004 790.55,377.181 790.55,377.829 		"/>
		<polygon style="fill:#231F20;" points="789.812,376.007 789.812,375.416 790.57,374.593 790.57,375.24 		"/>
		<polygon style="fill:#231F20;" points="789.794,374.791 789.794,374.199 790.55,373.375 790.55,374.022 		"/>
		<polygon style="fill:#231F20;" points="789.794,373.508 789.794,372.915 790.55,372.092 790.55,372.74 		"/>
		<polygon style="fill:#231F20;" points="789.812,372.18 789.812,371.591 790.57,370.764 790.57,371.411 		"/>
		<polygon style="fill:#231F20;" points="789.812,370.896 789.812,370.308 790.57,369.482 790.57,370.131 		"/>
		<polygon style="fill:#231F20;" points="789.794,369.679 789.794,369.09 790.55,368.265 790.55,368.912 		"/>
		<polygon style="fill:#231F20;" points="789.794,368.397 789.794,367.807 790.55,366.979 790.55,367.63 		"/>
		<polygon style="fill:#231F20;" points="789.812,631.138 789.812,630.547 790.57,629.722 790.57,630.37 		"/>
		<polygon style="fill:#231F20;" points="789.794,632.443 789.794,631.854 790.55,631.027 790.55,631.676 		"/>
		<polygon style="fill:#231F20;" points="789.812,629.855 789.812,629.265 790.57,628.439 790.57,629.087 		"/>
		<polygon style="fill:#231F20;" points="789.794,628.638 789.794,628.047 790.55,627.223 790.55,627.871 		"/>
		<polygon style="fill:#231F20;" points="789.794,627.354 789.794,626.766 790.55,625.94 790.55,626.589 		"/>
		<polygon style="fill:#231F20;" points="789.812,626.028 789.812,625.438 790.57,624.612 790.57,625.262 		"/>
		<polygon style="fill:#231F20;" points="789.812,624.745 789.812,624.154 790.57,623.329 790.57,623.979 		"/>
		<polygon style="fill:#231F20;" points="789.794,623.529 789.794,622.938 790.55,622.113 790.55,622.763 		"/>
		<polygon style="fill:#231F20;" points="789.794,622.244 789.794,621.656 790.55,620.83 790.55,621.479 		"/>
		<polygon style="fill:#231F20;" points="789.794,619.681 789.794,619.09 790.55,618.265 790.55,618.911 		"/>
		<polygon style="fill:#231F20;" points="789.771,620.986 789.771,620.394 790.529,619.57 790.529,620.217 		"/>
		<polygon style="fill:#231F20;" points="789.794,618.396 789.794,617.808 790.55,616.982 790.55,617.628 		"/>
		<polygon style="fill:#231F20;" points="789.771,617.181 789.771,616.59 790.529,615.764 790.529,616.412 		"/>
		<polygon style="fill:#231F20;" points="789.771,615.896 789.771,615.307 790.529,614.479 790.529,615.129 		"/>
		<polygon style="fill:#231F20;" points="789.794,614.569 789.794,613.98 790.55,613.154 790.55,613.803 		"/>
		<polygon style="fill:#231F20;" points="789.794,613.286 789.794,612.697 790.55,611.872 790.55,612.519 		"/>
		<polygon style="fill:#231F20;" points="789.771,612.07 789.771,611.479 790.529,610.654 790.529,611.302 		"/>
		<polygon style="fill:#231F20;" points="789.771,610.787 789.771,610.197 790.529,609.371 790.529,610.02 		"/>
		<polygon style="fill:#231F20;" points="789.794,608.178 789.794,607.587 790.55,606.762 790.55,607.41 		"/>
		<polygon style="fill:#231F20;" points="789.771,609.483 789.771,608.891 790.529,608.067 790.529,608.716 		"/>
		<polygon style="fill:#231F20;" points="789.794,606.894 789.794,606.305 790.55,605.479 790.55,606.125 		"/>
		<polygon style="fill:#231F20;" points="789.771,605.678 789.771,605.087 790.529,604.262 790.529,604.911 		"/>
		<polygon style="fill:#231F20;" points="789.771,604.395 789.771,603.804 790.529,602.979 790.529,603.627 		"/>
		<polygon style="fill:#231F20;" points="789.794,603.068 789.794,602.479 790.55,601.652 790.55,602.302 		"/>
		<polygon style="fill:#231F20;" points="789.794,601.783 789.794,601.194 790.55,600.369 790.55,601.018 		"/>
		<polygon style="fill:#231F20;" points="789.771,600.567 789.771,599.977 790.529,599.153 790.529,599.801 		"/>
		<polygon style="fill:#231F20;" points="789.771,599.283 789.771,598.693 790.529,597.867 790.529,598.517 		"/>
		<polygon style="fill:#231F20;" points="789.812,596.699 789.812,596.105 790.57,595.283 790.57,595.93 		"/>
		<polygon style="fill:#231F20;" points="789.794,598.004 789.794,597.411 790.55,596.588 790.55,597.235 		"/>
		<polygon style="fill:#231F20;" points="789.812,595.413 789.812,594.824 790.57,593.999 790.57,594.646 		"/>
		<polygon style="fill:#231F20;" points="789.794,594.197 789.794,593.606 790.55,592.783 790.55,593.432 		"/>
		<polygon style="fill:#231F20;" points="789.794,592.915 789.794,592.324 790.55,591.5 790.55,592.146 		"/>
		<polygon style="fill:#231F20;" points="789.812,591.588 789.812,590.997 790.57,590.172 790.57,590.82 		"/>
		<polygon style="fill:#231F20;" points="789.812,590.306 789.812,589.715 790.57,588.889 790.57,589.537 		"/>
		<polygon style="fill:#231F20;" points="789.794,589.087 789.794,588.496 790.55,587.673 790.55,588.322 		"/>
		<polygon style="fill:#231F20;" points="789.794,587.805 789.794,587.216 790.55,586.391 790.55,587.038 		"/>
		<polygon style="fill:#231F20;" points="789.812,585.197 789.812,584.604 790.57,583.779 790.57,584.427 		"/>
		<polygon style="fill:#231F20;" points="789.794,586.501 789.794,585.908 790.55,585.087 790.55,585.732 		"/>
		<polygon style="fill:#231F20;" points="789.812,583.912 789.812,583.319 790.57,582.496 790.57,583.145 		"/>
		<polygon style="fill:#231F20;" points="789.794,582.694 789.794,582.105 790.55,581.281 790.55,581.929 		"/>
		<polygon style="fill:#231F20;" points="789.794,581.412 789.794,580.822 790.55,579.997 790.55,580.644 		"/>
		<polygon style="fill:#231F20;" points="789.812,580.083 789.812,579.494 790.57,578.669 790.57,579.317 		"/>
		<polygon style="fill:#231F20;" points="789.812,578.803 789.812,578.212 790.57,577.387 790.57,578.036 		"/>
		<polygon style="fill:#231F20;" points="789.794,577.584 789.794,576.995 790.55,576.17 790.55,576.818 		"/>
		<polygon style="fill:#231F20;" points="789.794,576.304 789.794,575.713 790.55,574.886 790.55,575.535 		"/>
		<polygon style="fill:#231F20;" points="789.794,573.738 789.794,573.146 790.55,572.322 790.55,572.968 		"/>
		<polygon style="fill:#231F20;" points="789.771,575.044 789.771,574.451 790.529,573.628 790.529,574.273 		"/>
		<polygon style="fill:#231F20;" points="789.794,572.453 789.794,571.862 790.55,571.037 790.55,571.686 		"/>
		<polygon style="fill:#231F20;" points="789.771,571.237 789.771,570.645 790.529,569.822 790.529,570.469 		"/>
		<polygon style="fill:#231F20;" points="789.771,569.955 789.771,569.363 790.529,568.538 790.529,569.188 		"/>
		<polygon style="fill:#231F20;" points="789.794,568.626 789.794,568.037 790.55,567.212 790.55,567.86 		"/>
		<polygon style="fill:#231F20;" points="789.794,567.344 789.794,566.754 790.55,565.929 790.55,566.574 		"/>
		<polygon style="fill:#231F20;" points="789.771,566.127 789.771,565.536 790.529,564.711 790.529,565.359 		"/>
		<polygon style="fill:#231F20;" points="789.771,564.845 789.771,564.254 790.529,563.429 790.529,564.076 		"/>
		<polygon style="fill:#231F20;" points="789.812,562.258 789.812,561.665 790.57,560.84 790.57,561.49 		"/>
		<polygon style="fill:#231F20;" points="789.794,563.562 789.794,562.969 790.55,562.146 790.55,562.794 		"/>
		<polygon style="fill:#231F20;" points="789.812,560.974 789.812,560.385 790.57,559.56 790.57,560.207 		"/>
		<polygon style="fill:#231F20;" points="789.794,559.758 789.794,559.166 790.55,558.341 790.55,558.99 		"/>
		<polygon style="fill:#231F20;" points="789.794,558.473 789.794,557.882 790.55,557.059 790.55,557.706 		"/>
		<polygon style="fill:#231F20;" points="789.812,557.148 789.812,556.556 790.57,555.731 790.57,556.38 		"/>
		<polygon style="fill:#231F20;" points="789.812,555.863 789.812,555.271 790.57,554.449 790.57,555.098 		"/>
		<polygon style="fill:#231F20;" points="789.794,554.646 789.794,554.057 790.55,553.231 790.55,553.879 		"/>
		<polygon style="fill:#231F20;" points="789.794,553.365 789.794,552.773 790.55,551.949 790.55,552.597 		"/>
		<polygon style="fill:#231F20;" points="789.794,550.82 789.794,550.231 790.55,549.406 790.55,550.054 		"/>
		<polygon style="fill:#231F20;" points="789.771,552.128 789.771,551.535 790.529,550.711 790.529,551.357 		"/>
		<polygon style="fill:#231F20;" points="789.794,549.535 789.794,548.947 790.55,548.121 790.55,548.771 		"/>
		<polygon style="fill:#231F20;" points="789.771,548.322 789.771,547.73 790.529,546.906 790.529,547.553 		"/>
		<polygon style="fill:#231F20;" points="789.771,547.036 789.771,546.447 790.529,545.62 790.529,546.269 		"/>
		<polygon style="fill:#231F20;" points="789.794,545.71 789.794,545.121 790.55,544.296 790.55,544.943 		"/>
		<polygon style="fill:#231F20;" points="789.794,544.427 789.794,543.838 790.55,543.013 790.55,543.661 		"/>
		<polygon style="fill:#231F20;" points="789.771,543.211 789.771,542.617 790.529,541.795 790.529,542.443 		"/>
		<polygon style="fill:#231F20;" points="789.771,541.929 789.771,541.338 790.529,540.512 790.529,541.16 		"/>
		<polygon style="fill:#231F20;" points="789.812,539.342 789.812,538.749 790.57,537.924 790.57,538.572 		"/>
		<polygon style="fill:#231F20;" points="789.794,540.646 789.794,540.055 790.55,539.229 790.55,539.878 		"/>
		<polygon style="fill:#231F20;" points="789.812,538.058 789.812,537.467 790.57,536.641 790.57,537.289 		"/>
		<polygon style="fill:#231F20;" points="789.794,536.839 789.794,536.25 790.55,535.425 790.55,536.074 		"/>
		<polygon style="fill:#231F20;" points="789.794,535.557 789.794,534.968 790.55,534.143 790.55,534.79 		"/>
		<polygon style="fill:#231F20;" points="789.812,534.229 789.812,533.641 790.57,532.812 790.57,533.464 		"/>
		<polygon style="fill:#231F20;" points="789.812,532.947 789.812,532.358 790.57,531.531 790.57,532.179 		"/>
		<polygon style="fill:#231F20;" points="789.794,531.731 789.794,531.141 790.55,530.314 790.55,530.965 		"/>
		<polygon style="fill:#231F20;" points="789.794,530.447 789.794,529.857 790.55,529.033 790.55,529.681 		"/>
		<polygon style="fill:#231F20;" points="789.812,527.883 789.812,527.292 790.57,526.467 790.57,527.115 		"/>
		<polygon style="fill:#231F20;" points="789.794,529.188 789.794,528.598 790.55,527.771 790.55,528.42 		"/>
		<polygon style="fill:#231F20;" points="789.812,526.6 789.812,526.008 790.57,525.182 790.57,525.83 		"/>
		<polygon style="fill:#231F20;" points="789.794,525.382 789.794,524.791 790.55,523.966 790.55,524.615 		"/>
		<polygon style="fill:#231F20;" points="789.794,524.1 789.794,523.509 790.55,522.684 790.55,523.331 		"/>
		<polygon style="fill:#231F20;" points="789.812,522.771 789.812,522.182 790.57,521.356 790.57,522.005 		"/>
		<polygon style="fill:#231F20;" points="789.812,521.488 789.812,520.899 790.57,520.074 790.57,520.722 		"/>
		<polygon style="fill:#231F20;" points="789.794,520.271 789.794,519.684 790.55,518.855 790.55,519.504 		"/>
		<polygon style="fill:#231F20;" points="789.794,518.99 789.794,518.398 790.55,517.574 790.55,518.223 		"/>
	</g>
</g>
<g id="Layer_1">
</g>
</svg>
