<svg xmlns="http://www.w3.org/2000/svg" width="1366" height="700" viewBox="0 0 1366 700"><path fill="#231f20" d="M788.64 632.038h3.24l1.862 2.844 3.005.022-.166 44.73h-12.91l.022-44.778 3.212.01z"/><path fill="#FFF" d="M789.208 632.737h2.153l1.423 2.145h-4.945zM783.53 638.39h12.15V652.6h-12.15z"/><path fill="#231f20" d="M789.577 637.63v16.163h.984V637.63"/><path fill="#929497" d="M784.43 653.128h11.5v25.625h-11.5z"/><g fill="#231f20"><path d="M789.812 367.094v-.593l.758-.824v.648zM789.834 364.528v-.592l.756-.828v.65zM789.812 365.832v-.592l.758-.824v.646zM789.834 363.24v-.59l.756-.824v.648zM789.812 362.026v-.59l.758-.827v.65zM789.812 360.742v-.59l.758-.826v.65zM789.834 359.417v-.59l.756-.827v.648zM789.834 358.132v-.59l.756-.824v.647zM789.812 356.916v-.59l.758-.826v.647zM789.812 355.633v-.59l.758-.824v.645zM789.847 353.037v-.59l.755-.826v.65zM789.826 354.345v-.593l.757-.825v.647zM789.847 351.755v-.592l.755-.825v.648zM789.826 350.538v-.59l.757-.826v.65zM789.826 349.256v-.59l.757-.826v.647zM789.847 347.927v-.59l.755-.824v.645zM789.847 346.645v-.59l.755-.826v.648zM789.826 345.43v-.592l.757-.826v.648zM789.826 344.146v-.59l.757-.827v.65zM789.854 341.564v-.59l.755-.826v.65zM789.834 342.87v-.59l.756-.826v.65zM789.854 340.283v-.592l.755-.825v.65zM789.834 339.066v-.59l.756-.827v.648zM789.834 337.78v-.588l.756-.825v.648zM789.854 336.455v-.59l.755-.827v.65zM789.854 335.172v-.59l.755-.826v.65zM789.834 333.956v-.59l.756-.826v.648zM789.834 332.673v-.59l.756-.826v.648zM789.854 330.085v-.59l.755-.826v.646zM789.834 331.39v-.59l.756-.825v.645zM789.854 328.802v-.59l.755-.826v.647zM789.834 327.584v-.59l.756-.824v.647zM789.834 326.303v-.59l.756-.828v.65zM789.854 324.975v-.59l.755-.826v.65zM789.854 323.692v-.59l.755-.827v.65zM789.834 322.476v-.59l.756-.826v.648zM789.834 321.19v-.587l.756-.826v.648zM789.834 318.628v-.59l.756-.826v.645zM789.812 319.934v-.593l.758-.822v.645zM789.834 317.343v-.59l.756-.824v.647zM789.812 316.127v-.59l.758-.826v.65zM789.812 314.844v-.59l.758-.826v.648zM789.834 313.518v-.59l.756-.826v.647zM789.834 312.233v-.59l.756-.825v.65zM789.812 311.017v-.59l.758-.826v.65zM789.812 309.734v-.59l.758-.826v.648zM789.834 307.125v-.592l.756-.824v.646zM789.812 308.43v-.592l.758-.823v.645zM789.834 305.842v-.59l.756-.826v.648zM789.812 304.624v-.59l.758-.826v.65zM789.812 303.342v-.592l.758-.825v.65zM789.834 302.015v-.59l.756-.826v.646zM789.834 300.732v-.59l.756-.827v.65zM789.812 299.514v-.59l.758-.824v.648zM789.812 298.23v-.587l.758-.828v.65zM789.854 295.645v-.593l.755-.823v.645zM789.834 296.95v-.593l.756-.824v.648zM789.854 294.36v-.59l.755-.824v.646zM789.834 293.145v-.592l.756-.824v.648zM789.834 291.86v-.59l.756-.825v.648zM789.854 290.535v-.592l.755-.825v.65zM789.854 289.252v-.59l.755-.828v.65zM789.834 288.036v-.593l.756-.823v.648zM789.834 286.75v-.588l.756-.827v.65zM789.854 284.142v-.593l.755-.824v.648zM789.834 285.447v-.593l.756-.823v.65zM789.854 282.86v-.593l.755-.824v.648zM789.834 281.642v-.59l.756-.825v.648zM789.834 280.36v-.592l.756-.824v.648zM789.854 279.033v-.59l.755-.828v.65zM789.854 277.75v-.592l.755-.823v.645zM789.834 276.533v-.59l.756-.826v.648zM789.834 275.25v-.592l.756-.824v.648zM789.834 272.685v-.593l.756-.823v.645zM789.812 273.988v-.59l.758-.826v.65zM789.834 271.4v-.59l.756-.826v.648zM789.812 270.184v-.59l.758-.826v.65zM789.812 268.9v-.59l.758-.825v.648zM789.834 267.574v-.59l.756-.826v.65zM789.834 266.29v-.59l.756-.824v.645zM789.812 265.074v-.59l.758-.824v.648zM789.812 263.79v-.59l.758-.825v.648zM789.854 261.205v-.593l.755-.825v.648zM789.834 262.51v-.592l.756-.826v.648zM789.854 259.92v-.59l.755-.826v.647zM789.834 258.704v-.59l.756-.826v.648zM789.834 257.42v-.59l.756-.825v.648zM789.854 256.095v-.593l.755-.823v.647zM789.854 254.81v-.59l.755-.825v.648zM789.834 253.595v-.59l.756-.826v.647zM789.834 252.31v-.59l.756-.824v.648zM789.834 249.768v-.59l.756-.826V249zM789.812 251.072v-.592l.758-.822v.646zM789.834 248.483v-.59l.756-.825v.65zM789.812 247.27v-.592l.758-.826v.65zM789.812 245.984v-.59l.758-.826v.65zM789.834 244.658v-.59l.756-.826v.65zM789.834 243.375v-.592l.756-.824v.647zM789.812 242.158v-.59l.758-.826v.65zM789.812 240.876v-.59l.758-.826v.647zM789.854 238.288v-.593l.755-.823v.647zM789.834 239.593V239l.756-.822v.646zM789.854 237.004v-.59l.755-.826v.648zM789.834 235.788v-.592l.756-.824v.65zM789.834 234.505v-.59l.756-.826v.647zM789.854 233.178v-.59l.755-.826v.65zM789.854 231.895v-.59l.755-.826v.647zM789.834 230.678v-.59l.756-.826v.648zM789.834 229.395v-.59l.756-.826v.648zM789.854 226.83v-.592l.755-.824v.647zM789.834 228.135v-.592l.756-.824v.645zM789.854 225.547v-.59l.755-.827v.648zM789.834 224.33v-.592l.756-.824v.648zM789.834 223.047v-.59l.756-.826v.65zM789.854 221.72v-.59l.755-.826v.648zM789.854 220.436v-.59l.755-.825v.65zM789.834 219.22v-.59l.756-.826v.65zM789.834 217.937v-.59l.756-.826v.65zM789.77 517.554v-.593l.76-.822v.645zM789.794 514.986v-.59l.756-.828v.65zM789.77 516.29v-.59l.76-.824v.645zM789.794 513.7v-.587l.756-.827v.65zM789.77 512.484v-.587l.76-.828v.65zM789.77 511.2v-.585l.76-.826v.648zM789.794 509.877v-.59l.756-.826v.648zM789.794 508.592v-.59l.756-.824v.648zM789.77 507.378v-.59l.76-.826v.647zM789.77 506.093v-.59l.76-.824v.646zM789.805 503.5v-.592l.757-.825v.647zM789.786 504.805v-.593l.757-.825v.648zM789.805 502.217v-.594l.757-.823v.647zM789.786 500.998v-.59l.757-.824v.646zM789.786 499.716v-.59l.757-.824v.645zM789.805 498.39v-.592l.757-.825v.648zM789.805 497.106v-.59l.757-.826v.648zM789.786 495.89v-.592l.757-.824v.648zM789.786 494.605v-.588l.757-.826v.65zM789.812 492.026v-.59l.758-.826v.65zM789.794 493.332v-.592l.756-.824v.646zM789.812 490.742v-.59l.758-.826v.65zM789.794 489.526v-.59l.756-.825v.648zM789.794 488.24v-.588l.756-.826v.65zM789.812 486.915v-.59l.758-.825v.648zM789.812 485.632v-.59l.758-.824v.647zM789.794 484.416v-.59l.756-.824v.647zM789.794 483.133v-.59l.756-.824v.645zM789.812 480.547v-.593l.758-.825v.646zM789.794 481.85v-.59l.756-.822v.644zM789.812 479.262v-.59l.758-.826v.65zM789.794 478.044v-.59l.756-.824v.647zM789.794 476.762v-.59l.756-.825v.648zM789.812 475.438v-.592l.758-.827v.648zM789.812 474.152v-.59l.758-.825v.65zM789.794 472.936v-.59l.756-.826v.65zM789.794 471.653v-.59l.756-.826v.648zM789.794 469.088v-.59l.756-.826v.647zM789.77 470.396v-.593l.76-.826v.648zM789.794 467.805v-.59l.756-.824v.65zM789.77 466.587v-.59l.76-.826v.65zM789.77 465.306v-.593l.76-.825v.648zM789.794 463.976v-.587l.756-.828v.647zM789.794 462.694v-.59l.756-.826v.65zM789.77 461.477v-.59l.76-.825v.65zM789.77 460.197v-.593l.76-.826v.65zM789.794 457.585v-.59l.756-.824v.648zM789.77 458.893v-.593l.76-.825v.647zM789.794 456.3v-.59l.756-.824v.647zM789.77 455.086v-.59l.76-.826v.647zM789.77 453.8v-.588l.76-.825v.648zM789.794 452.475v-.59l.756-.824v.648zM789.794 451.192v-.59l.756-.827v.65zM789.77 449.976v-.593l.76-.823v.648zM789.77 448.693v-.59l.76-.826v.648zM789.812 446.106v-.592l.758-.826v.65zM789.794 447.41v-.59l.756-.826v.65zM789.812 444.822v-.59l.758-.826v.648zM789.794 443.604v-.59l.756-.825v.648zM789.794 442.322v-.59l.756-.824v.647zM789.812 440.996v-.59l.758-.828v.65zM789.812 439.712v-.59l.758-.826v.647zM789.794 438.496v-.59l.756-.826v.65zM789.794 437.21v-.588l.756-.825v.648zM789.812 434.604v-.59l.758-.826v.648zM789.794 435.908v-.592l.756-.824v.648zM789.812 433.32v-.59l.758-.827v.65zM789.794 432.104v-.592l.756-.824v.647zM789.794 430.82v-.59l.756-.826v.65zM789.812 429.494v-.592l.758-.826v.65zM789.812 428.21v-.593l.758-.822v.647zM789.794 426.992v-.59l.756-.826v.65zM789.794 425.71v-.59l.756-.824v.648zM789.794 423.145v-.59l.756-.826v.65zM789.77 424.45v-.59l.76-.827v.65zM789.794 421.86v-.59l.756-.825v.65zM789.77 420.644v-.59l.76-.826v.65zM789.77 419.36v-.588l.76-.827v.648zM789.794 418.033v-.588l.756-.825v.65zM789.794 416.75v-.59l.756-.824v.647zM789.77 415.536v-.593l.76-.823v.648zM789.77 414.25v-.588l.76-.827v.65zM789.812 411.665v-.59l.758-.827v.648zM789.794 412.97v-.59l.756-.826v.647zM789.812 410.382v-.59l.758-.826v.65zM789.794 409.164v-.59l.756-.824v.647zM789.794 407.88v-.588l.756-.825v.648zM789.812 406.555v-.59l.758-.826v.646zM789.812 405.27v-.59l.758-.825v.65zM789.794 404.054v-.59l.756-.824v.648zM789.794 402.77v-.587l.756-.827v.65zM789.794 400.23v-.592l.756-.826v.648zM789.77 401.533v-.592l.76-.823v.647zM789.794 398.945v-.59l.756-.826v.65zM789.77 397.728v-.59l.76-.826v.648zM789.77 396.447v-.593l.76-.825v.647zM789.794 395.115v-.586l.756-.83v.65zM789.794 393.834v-.59l.756-.824v.647zM789.77 392.617v-.588l.76-.827v.65zM789.77 391.335v-.59l.76-.824v.646zM789.812 388.748v-.59l.758-.828v.65zM789.794 390.054v-.593l.756-.82v.643zM789.812 387.466v-.59l.758-.826v.647zM789.794 386.248v-.59l.756-.826v.65zM789.794 384.965v-.59l.756-.824v.65zM789.812 383.64v-.592l.758-.825v.647zM789.812 382.354v-.59l.758-.825v.648zM789.794 381.138v-.59l.756-.824v.647zM789.794 379.855v-.59l.756-.825v.65zM789.812 377.29v-.59l.758-.825v.648zM789.794 378.597v-.593l.756-.823v.65zM789.812 376.007v-.59l.758-.824v.647zM789.794 374.79v-.59l.756-.825v.647zM789.794 373.508v-.593l.756-.823v.648zM789.812 372.18v-.59l.758-.826v.647zM789.812 370.896v-.588l.758-.826v.65zM789.794 369.68v-.59l.756-.825v.647zM789.794 368.397v-.59l.756-.828v.65zM789.812 631.138v-.59l.758-.826v.648zM789.794 632.443v-.59l.756-.826v.65zM789.812 629.855v-.59l.758-.826v.647zM789.794 628.638v-.59l.756-.825v.648zM789.794 627.354v-.588l.756-.826v.65zM789.812 626.028v-.59l.758-.826v.65zM789.812 624.745v-.59l.758-.826v.65zM789.794 623.53v-.592l.756-.825v.65zM789.794 622.244v-.588l.756-.826v.65zM789.794 619.68v-.59l.756-.825v.646zM789.77 620.986v-.592l.76-.824v.647zM789.794 618.396v-.588l.756-.826v.646zM789.77 617.18v-.59l.76-.826v.648zM789.77 615.896v-.59l.76-.827v.65zM789.794 614.57v-.59l.756-.826v.65zM789.794 613.286v-.59l.756-.824v.647zM789.77 612.07v-.59l.76-.826v.648zM789.77 610.787v-.59l.76-.826v.65zM789.794 608.178v-.59l.756-.826v.648zM789.77 609.483v-.592l.76-.823v.65zM789.794 606.894v-.59l.756-.825v.645zM789.77 605.678v-.59l.76-.826v.65zM789.77 604.395v-.59l.76-.826v.647zM789.794 603.068v-.59l.756-.826v.65zM789.794 601.783v-.59l.756-.824v.648zM789.77 600.567v-.59l.76-.824v.648zM789.77 599.283v-.59l.76-.826v.65zM789.812 596.7v-.595l.758-.822v.647zM789.794 598.004v-.593l.756-.822v.647zM789.812 595.413v-.59l.758-.824v.646zM789.794 594.197v-.59l.756-.824v.65zM789.794 592.915v-.59l.756-.825v.646zM789.812 591.588v-.59l.758-.826v.648zM789.812 590.306v-.59l.758-.827v.647zM789.794 589.087v-.59l.756-.824v.65zM789.794 587.805v-.59l.756-.824v.648zM789.812 585.197v-.593l.758-.825v.647zM789.794 586.5v-.592l.756-.82v.644zM789.812 583.912v-.593l.758-.824v.65zM789.794 582.694v-.59l.756-.823v.65zM789.794 581.412v-.59l.756-.825v.647zM789.812 580.083v-.59l.758-.824v.647zM789.812 578.803v-.59l.758-.826v.65zM789.794 577.584v-.59l.756-.824v.648zM789.794 576.304v-.59l.756-.828v.65zM789.794 573.738v-.592l.756-.824v.646zM789.77 575.044v-.593l.76-.822v.645zM789.794 572.453v-.59l.756-.826v.65zM789.77 571.237v-.592l.76-.823v.647zM789.77 569.955v-.592l.76-.825v.65zM789.794 568.626v-.59l.756-.824v.648zM789.794 567.344v-.59l.756-.825v.644zM789.77 566.127v-.59l.76-.826v.65zM789.77 564.845v-.59l.76-.826v.646zM789.812 562.258v-.593l.758-.825v.65zM789.794 563.562v-.593l.756-.824v.648zM789.812 560.974v-.59l.758-.824v.647zM789.794 559.758v-.592l.756-.825v.65zM789.794 558.473v-.59l.756-.824v.646zM789.812 557.148v-.592l.758-.825v.65zM789.812 555.863v-.592l.758-.82v.648zM789.794 554.646v-.59l.756-.825v.65zM789.794 553.365v-.592l.756-.824v.647zM789.794 550.82v-.59l.756-.824v.648zM789.77 552.128v-.593l.76-.824v.647zM789.794 549.535v-.588l.756-.826v.65zM789.77 548.322v-.592l.76-.824v.647zM789.77 547.036v-.59l.76-.826v.65zM789.794 545.71v-.59l.756-.824v.647zM789.794 544.427v-.59l.756-.824v.648zM789.77 543.21v-.593l.76-.822v.648zM789.77 541.93v-.592l.76-.826v.648zM789.812 539.342v-.593l.758-.826v.648zM789.794 540.646v-.59l.756-.827v.648zM789.812 538.058v-.59l.758-.827v.65zM789.794 536.84v-.59l.756-.825v.65zM789.794 535.557v-.59l.756-.824v.647zM789.812 534.23v-.59l.758-.828v.652zM789.812 532.947v-.59l.758-.826v.65zM789.794 531.73v-.59l.756-.826v.65zM789.794 530.447v-.59l.756-.824v.648zM789.812 527.883v-.59l.758-.826v.648zM789.794 529.188v-.59l.756-.827v.65zM789.812 526.6v-.592l.758-.826v.648zM789.794 525.382v-.59l.756-.826v.65zM789.794 524.1v-.59l.756-.826v.647zM789.812 522.77v-.588l.758-.826v.65zM789.812 521.488v-.59l.758-.824v.648zM789.794 520.27v-.586l.756-.83v.65zM789.794 518.99v-.592l.756-.824v.65z"/></g></svg>