<?xml version="1.0" encoding="iso-8859-1"?>
<!-- Generator: Adobe Illustrator 16.0.4, SVG Export Plug-In . SVG Version: 6.00 Build 0)  -->
<!DOCTYPE svg PUBLIC "-//W3C//DTD SVG 1.1//EN" "http://www.w3.org/Graphics/SVG/1.1/DTD/svg11.dtd">
<svg version="1.1" xmlns="http://www.w3.org/2000/svg" xmlns:xlink="http://www.w3.org/1999/xlink" x="0px" y="0px" width="1366px"
	 height="700px" viewBox="0 0 1366 700" style="enable-background:new 0 0 1366 700;" xml:space="preserve">
<g id="TC_Loading_Longholes_Parts">
	<circle cx="323.758" cy="485.354" r="0.638"/>
	<path d="M324.312,488.146c-0.145,0.151-0.15,0.383-0.008,0.515l1.057,0.999c0.139,0.133,0.367,0.116,0.513-0.036
		c0.145-0.151,0.151-0.381,0.01-0.514l-1.057-1C324.687,487.979,324.457,487.996,324.312,488.146z"/>
	<path d="M323.625,486.175c-0.195,0.079-0.296,0.286-0.222,0.465l0.771,1.865c0.071,0.18,0.287,0.258,0.482,0.181
		c0.195-0.078,0.296-0.285,0.222-0.464l-0.771-1.865C324.034,486.178,323.819,486.098,323.625,486.175z"/>
	<path style="fill:none;stroke:#231F20;stroke-width:0.2;stroke-miterlimit:10;" d="M326.518,493.387c0,0,0.022-1.774-0.149-2.541
		c-0.179-0.795-0.734-1.396-0.996-1.625c-0.444-0.386-1.474-0.183-1.71-0.058c-0.266,0.141-0.906,0.703-1.672,1.5
		c-0.766,0.797-2.531,2.594-3.828,2.609"/>
	
		<line style="fill:none;stroke:#231F20;stroke-width:0.2;stroke-miterlimit:10;" x1="318.188" y1="493.272" x2="273.25" y2="493.266"/>
	<path d="M323.687,486.088c-0.297-0.051-0.577,0.128-0.625,0.399l-0.393,2.349c-0.047,0.271,0.153,0.533,0.454,0.587
		c0.298,0.051,0.577-0.128,0.623-0.399l0.394-2.349C324.187,486.404,323.984,486.14,323.687,486.088z"/>
</g>
<g id="Layer_1">
</g>
</svg>
