<svg xmlns="http://www.w3.org/2000/svg" width="1366" height="700" viewBox="0 0 1366 700"><circle cx="323.758" cy="485.354" r=".638"/><path d="M324.312 488.146c-.145.15-.15.383-.008.515l1.057 1c.14.133.368.116.514-.036.145-.15.15-.38.01-.514l-1.057-1c-.14-.13-.37-.114-.515.036z"/><path d="M323.625 486.175c-.195.08-.296.286-.222.465l.77 1.865c.072.18.288.258.483.18.195-.077.296-.284.222-.463l-.77-1.865c-.074-.18-.29-.26-.483-.182z"/><path d="M326.518 493.387s.022-1.774-.15-2.54c-.178-.796-.733-1.397-.995-1.626-.444-.385-1.474-.182-1.71-.057-.266.14-.906.703-1.672 1.5-.765.797-2.53 2.594-3.827 2.61M318.188 493.272l-44.938-.006" fill="none" stroke="#231f20" stroke-width=".2" stroke-miterlimit="10"/><path d="M323.687 486.088c-.297-.05-.577.128-.625.4l-.393 2.348c-.048.27.152.533.453.587.298.05.577-.128.623-.4l.394-2.348c.047-.27-.156-.535-.453-.587z"/></svg>