<?xml version="1.0" encoding="iso-8859-1"?>
<!-- Generator: Adobe Illustrator 16.0.4, SVG Export Plug-In . SVG Version: 6.00 Build 0)  -->
<!DOCTYPE svg PUBLIC "-//W3C//DTD SVG 1.1//EN" "http://www.w3.org/Graphics/SVG/1.1/DTD/svg11.dtd">
<svg version="1.1" xmlns="http://www.w3.org/2000/svg" xmlns:xlink="http://www.w3.org/1999/xlink" x="0px" y="0px" width="1366px"
	 height="700px" viewBox="0 0 1366 700" style="enable-background:new 0 0 1366 700;" xml:space="preserve">
<g id="TC_Zimba_Longhole_Parts">
	<line style="fill:none;" x1="262.432" y1="434.231" x2="262.216" y2="434.224"/>
	<path style="fill:#BA8E2D;" d="M262.216,434.224l-0.277-0.06l0.051-0.242l0.14,0.029l0.078-0.363l-0.591-0.125l-0.036,0.173
		l-0.47-0.1l-0.441-0.818l0.129-0.606l0.624-0.12l0.433,0.093l-0.065,0.312l0.642,0.137l0.122-0.571l-0.191-0.04l-0.025,0.121
		l-0.901-0.191l0.062-0.295l-0.398-0.085l1.21-5.703l-0.381-0.081l0.026-0.12l1.317,0.277l0.449-0.065l0.277,0.06l0.048-0.227
		l-0.191-0.04l0.045-0.208l1.108,0.234l-0.044,0.209l-0.227-0.05l-0.46,2.168l0.191,0.039l-0.647,3.052l0.122,0.025l0.044-0.208
		l0.525-0.596l0.062-0.294l0.364,0.076l-0.065,0.312l0.914,0.303l9.335-1.917l0.654,0.177h0.408l-0.035-0.319h0.62v0.284
		l0.815,0.373l0.638-2.129h-0.585v-0.461h5.175v0.532h-0.318v3.562h0.39v-2.355h2.321v0.391h-0.23v0.53h4.909
		c0,0,0.673-0.392,1.347-0.302c0.674,0.09,1.631,0.814,1.631,0.814h0.62v2.182l0.355,0.123v0.229l-0.267,0.107l-3.083,0.902h-1.134
		l-0.266,0.213h-0.213l-0.355-0.213v-0.214h-0.317c0,0,0.301-2.604-2.021-2.604c-2.321,0-2.003,2.568-2.003,2.568v0.283h-2.056
		v-0.248h-0.532v0.23h-3.633c0,0,0.779-2.553-1.967-2.766l-0.654-0.005l-3.507,1.511l-0.036,0.104h-0.354l-0.213-0.354l-0.39-0.02
		l-0.267-0.229l-5.074-0.289l-0.318,0.387l-0.221-0.064l0.041-0.189l-0.323-0.104l-1.258,2.938l-0.231,0.15l-0.412-0.088"/>
	<polyline style="fill:#C4A161;" points="278.401,427.259 277.918,428.979 278.93,428.988 278.93,427.268 278.401,427.259 	"/>
	<polyline style="fill:#C4A161;" points="280.668,427.262 279.304,427.279 279.304,428.971 280.668,428.964 280.668,427.262 	"/>
	<polyline style="fill:#C4A161;" points="282.493,427.262 281.164,427.279 281.161,428.971 282.477,428.971 282.493,427.262 	"/>
	<path d="M287.611,432.692h-0.422c0,0.277-0.11,0.525-0.293,0.709c-0.183,0.183-0.431,0.294-0.709,0.294
		c-0.277,0-0.524-0.111-0.709-0.294c-0.182-0.183-0.293-0.432-0.293-0.709c0-0.276,0.111-0.524,0.293-0.709
		c0.184-0.183,0.432-0.293,0.709-0.294c0.279,0.001,0.527,0.111,0.709,0.294c0.183,0.184,0.293,0.433,0.293,0.709h0.845
		c0-0.509-0.207-0.974-0.541-1.307c-0.333-0.334-0.799-0.541-1.307-0.541c-0.508,0-0.973,0.207-1.305,0.541
		c-0.333,0.333-0.541,0.797-0.541,1.307s0.208,0.974,0.541,1.307c0.333,0.334,0.797,0.541,1.305,0.541
		c0.508,0,0.974-0.207,1.307-0.541c0.333-0.333,0.541-0.797,0.541-1.307H287.611"/>
	<path style="fill:#BA8E2D;" d="M286.989,432.908l0.017-0.068v-0.025l0.008-0.043v-0.12l0.173-0.01
		c-0.008-0.104-0.025-0.197-0.061-0.293l-0.164,0.062l-0.069-0.146l-0.042-0.067l-0.052-0.062l0.129-0.12l-0.231-0.188l-0.086,0.146
		l-0.077-0.033l-0.077-0.024l-0.078-0.026l-0.086-0.018l0.017-0.173c-0.095-0.019-0.198-0.009-0.301,0.01l0.025,0.172l-0.224,0.078
		l-0.078,0.043l-0.095-0.146l-0.224,0.197l0.129,0.112c-0.068,0.087-0.129,0.181-0.154,0.293l-0.164-0.062
		c-0.026,0.104-0.043,0.198-0.043,0.302h0.172l0.008,0.087l0.035,0.163l0.026,0.077l-0.155,0.069
		c0.042,0.096,0.094,0.182,0.155,0.258l0.129-0.111l0.061,0.062l0.062,0.051l0.138,0.088l-0.078,0.153
		c0.085,0.044,0.189,0.077,0.284,0.096l0.026-0.173l0.068,0.011h0.078l0.096-0.011h0.009l0.086-0.018l0.034,0.172
		c0.095-0.025,0.188-0.061,0.275-0.111l-0.086-0.146l0.07-0.043l0.06-0.052l0.062-0.062l0.052-0.062l0.138,0.104
		c0.062-0.078,0.112-0.174,0.146-0.268l-0.155-0.053L286.989,432.908L286.989,432.908z"/>
	<path d="M277.384,432.656h-0.439c0,0.289-0.115,0.547-0.305,0.736c-0.189,0.188-0.448,0.307-0.738,0.307s-0.547-0.116-0.736-0.307
		c-0.189-0.189-0.306-0.447-0.306-0.736c0-0.291,0.117-0.548,0.306-0.736c0.189-0.189,0.447-0.307,0.736-0.307
		c0.289,0,0.547,0.114,0.738,0.307c0.189,0.188,0.305,0.446,0.305,0.736h0.879c0-0.528-0.217-1.014-0.562-1.357
		c-0.346-0.348-0.83-0.562-1.358-0.562c-0.528,0-1.012,0.217-1.357,0.562c-0.347,0.346-0.562,0.829-0.562,1.357
		c0,0.527,0.216,1.012,0.562,1.356c0.346,0.349,0.829,0.562,1.357,0.562c0.528,0,1.013-0.217,1.358-0.562
		c0.347-0.347,0.562-0.829,0.562-1.356H277.384"/>
	<path style="fill:#BA8E2D;" d="M276.733,432.879l0.019-0.071v-0.026l0.009-0.045v-0.125l0.179-0.011
		c-0.008-0.105-0.025-0.205-0.062-0.304l-0.17,0.062l-0.072-0.15l-0.044-0.072l-0.054-0.062l0.134-0.124l-0.242-0.197l-0.089,0.151
		l-0.081-0.035l-0.08-0.026l-0.081-0.026l-0.089-0.019l0.019-0.179c-0.099-0.021-0.206-0.011-0.312,0.009l0.027,0.179l-0.233,0.081
		l-0.08,0.044l-0.098-0.151c-0.09,0.056-0.171,0.126-0.233,0.206l0.134,0.116c-0.071,0.091-0.134,0.188-0.162,0.305l-0.17-0.062
		c-0.026,0.105-0.044,0.206-0.044,0.312h0.18l0.009,0.09l0.036,0.171l0.026,0.081l-0.16,0.071c0.044,0.099,0.098,0.188,0.16,0.27
		l0.135-0.116l0.062,0.062l0.062,0.054l0.144,0.09l-0.08,0.16c0.089,0.046,0.197,0.081,0.295,0.101l0.027-0.18l0.071,0.009h0.081
		l0.098-0.009h0.009l0.089-0.02l0.036,0.18c0.1-0.026,0.197-0.062,0.286-0.116l-0.089-0.151l0.072-0.045l0.062-0.054l0.063-0.062
		l0.054-0.062l0.144,0.107c0.062-0.081,0.116-0.182,0.152-0.277l-0.161-0.055L276.733,432.879z"/>
</g>
<g id="Layer_1">
</g>
</svg>
