<svg xmlns="http://www.w3.org/2000/svg" width="1366" height="700" viewBox="0 0 1366 700"><path fill="none" d="M262.432 434.23l-.216-.006"/><path d="M262.216 434.224l-.277-.06.05-.242.14.03.078-.364-.59-.125-.037.173-.47-.1-.44-.818.13-.606.623-.12.433.093-.065.312.643.137.122-.57-.19-.04-.026.12-.902-.19.062-.296-.398-.085 1.21-5.703-.38-.08.025-.12 1.317.276.45-.065.276.06.048-.226-.19-.04.044-.208 1.108.234-.044.21-.227-.05-.46 2.167.19.04-.647 3.05.122.026.044-.208.524-.596.062-.295.364.076-.065.313.914.303 9.334-1.917.654.176h.408l-.035-.32h.62v.285l.816.374.638-2.13h-.585v-.46h5.174v.532h-.318v3.562h.39v-2.355h2.32v.39h-.23v.53h4.91s.673-.39 1.347-.3c.674.09 1.63.813 1.63.813h.62v2.182l.356.123v.23l-.268.107-3.083.902h-1.135l-.266.212h-.214l-.355-.213v-.215h-.316s.3-2.604-2.02-2.604c-2.322 0-2.004 2.57-2.004 2.57v.282h-2.056v-.248h-.532v.23h-3.633s.778-2.553-1.968-2.766l-.654-.005-3.507 1.51-.035.105h-.354l-.212-.354-.39-.02-.267-.23-5.073-.288-.318.387-.222-.064.04-.19-.322-.104-1.258 2.938-.23.15-.413-.088" fill="#ba8e2d"/><path fill="#c4a161" d="M278.4 427.26l-.482 1.72 1.012.008v-1.72l-.53-.01M280.668 427.262l-1.364.017v1.69l1.364-.006v-1.702M282.493 427.262l-1.33.017-.002 1.69h1.317l.016-1.708"/><path d="M287.61 432.692h-.42c0 .277-.11.525-.294.71a1 1 0 0 1-1.71-.71 1.004 1.004 0 0 1 1-1.003 1 1 0 0 1 1.002 1.003h.846a1.844 1.844 0 0 0-1.848-1.85A1.847 1.847 0 0 0 284.88 434a1.846 1.846 0 0 0 3.153-1.307h-.422"/><path d="M286.99 432.908l.016-.068v-.025l.008-.043v-.12l.173-.01a1.033 1.033 0 0 0-.06-.293l-.165.06-.07-.145-.04-.067-.053-.062.128-.12-.23-.188-.087.146-.076-.033-.077-.023-.078-.026-.087-.017.017-.173a.808.808 0 0 0-.3.01l.024.172-.224.078-.078.043-.095-.146-.224.197.13.112a.744.744 0 0 0-.155.293l-.164-.063a1.21 1.21 0 0 0-.043.302h.173l.008.086.036.163.026.076-.155.07c.042.095.094.18.155.257l.13-.11.06.06.062.052.138.088-.078.153c.085.044.19.077.284.096l.026-.173.068.01h.078l.096-.01h.01l.085-.02.035.173c.095-.025.188-.06.275-.11l-.086-.147.07-.043.06-.052.062-.06.052-.063.138.104a.97.97 0 0 0 .146-.267l-.155-.053.012-.072z" fill="#ba8e2d"/><path d="M277.384 432.656h-.44a1.042 1.042 0 1 1-1.043-1.043c.29 0 .548.114.74.307.19.188.305.446.305.736h.88a1.918 1.918 0 1 0-.563 1.356c.347-.347.562-.83.562-1.356h-.44"/><path d="M276.733 432.88l.02-.072v-.026l.008-.045v-.125l.18-.01a1.09 1.09 0 0 0-.062-.305l-.17.062-.072-.15-.044-.073-.054-.062.134-.124-.242-.196-.09.15-.08-.034-.08-.026-.08-.026-.09-.02.02-.178a.804.804 0 0 0-.313.01l.027.178-.233.08-.08.045-.097-.15a.89.89 0 0 0-.233.205l.134.116a.802.802 0 0 0-.162.305l-.17-.063a1.283 1.283 0 0 0-.044.312h.18l.01.09.035.17.026.08-.16.072c.043.1.097.188.16.27l.134-.116.062.062.062.054.144.09-.08.16c.09.046.197.08.295.1l.027-.18.07.01h.082l.098-.01h.01l.088-.02.036.18c.1-.025.197-.06.286-.115l-.09-.15.073-.046.062-.053.062-.062.054-.062.144.107c.062-.08.116-.182.152-.277l-.16-.055.01-.08z" fill="#ba8e2d"/></svg>