<svg xmlns="http://www.w3.org/2000/svg" width="1366" height="700" viewBox="149.496 666.643 1366 700"><path d="M890.483 1223.266c-.028.23-.043.274-.04.448 0 .156.004.236.03.437l-3.98.176a2.5 2.5 0 0 0-.097-.878l4.087-.182z"/><path fill="#BA8E2D" d="M885.63 1219.016l.148 3.375a2.538 2.538 0 0 0-1.938-.77 2.55 2.55 0 0 0-2.36 1.94l-.868.038-.107-2.44 1.82-.74.545-1.28 2.76-.122z"/><path fill="#BA8E2D" d="M896.87 1220.574l.088 2.04-1.274.056c-.025-.133 0-.006-.05-.135-.58-1.204-1.7-1.576-2.637-1.534-1.243.056-2.202 1.21-2.42 1.9l-4.4.185-.192-4.448-1.56.07-.042-.88 9.207-.408 3.28 3.154z"/><path d="M894.92 1223.68l-.51.024c.014.335-.106.642-.318.872a1.21 1.21 0 0 1-2.105-.765 1.198 1.198 0 0 1 .316-.872c.21-.23.505-.378.84-.392a1.208 1.208 0 0 1 1.266 1.158l1.02-.045a2.225 2.225 0 0 0-.725-1.55 2.23 2.23 0 0 0-3.74 1.746 2.23 2.23 0 0 0 .723 1.548 2.232 2.232 0 0 0 3.742-1.745l-.51.02"/><path fill="#BA8E2D" d="M894.183 1223.983l.02-.084-.003-.033.01-.05-.008-.148.207-.02a1.318 1.318 0 0 0-.088-.35l-.196.08-.09-.173-.056-.082-.067-.07.15-.15a1.23 1.23 0 0 0-.29-.22l-.1.184-.093-.04-.095-.026-.096-.027-.105-.016.012-.21c-.117-.014-.24.002-.364.028l.04.207a.653.653 0 0 0-.267.105l-.09.057-.124-.172a.946.946 0 0 0-.26.252l.16.127a.89.89 0 0 0-.17.363l-.202-.065a1.6 1.6 0 0 0-.035.368l.208-.01.016.103.05.196.035.09-.185.093c.057.112.125.214.2.305l.15-.143.076.07.076.06.172.096-.086.19c.107.048.233.085.35.102l.02-.21.085.007.094-.005.114-.016h.01l.104-.026.052.207c.113-.035.225-.082.328-.15l-.114-.173.082-.056.07-.064.07-.076.06-.076.172.12c.067-.1.127-.216.163-.332l-.19-.055.016-.084z"/><path d="M885.658 1224.075l-.512.022c.016.337-.106.643-.317.872-.21.23-.505.377-.842.393a1.2 1.2 0 0 1-.87-.317 1.208 1.208 0 0 1-.078-1.714 1.207 1.207 0 0 1 1.714-.076c.23.21.377.504.392.84l1.02-.045a2.235 2.235 0 1 0-.583 1.608c.387-.42.61-.99.584-1.607l-.51.025"/><path fill="#BA8E2D" d="M884.92 1224.378l.02-.084-.004-.03.01-.054-.006-.146.206-.02a1.25 1.25 0 0 0-.088-.35l-.193.08-.093-.173-.056-.08-.065-.07.15-.152a1.148 1.148 0 0 0-.292-.218l-.096.182-.095-.037-.096-.027-.093-.026-.106-.018.014-.208c-.116-.016-.24 0-.365.026l.04.206a.704.704 0 0 0-.267.105l-.09.057-.123-.17a.96.96 0 0 0-.26.25l.16.13a.897.897 0 0 0-.172.36l-.2-.062a1.51 1.51 0 0 0-.036.364l.208-.008.016.104.05.195.035.093-.184.09c.058.114.126.216.202.307l.15-.143.077.068.076.062.17.096-.084.19c.105.048.232.085.35.1l.02-.21.084.01.093-.006.115-.017h.01l.104-.024.05.205c.114-.036.227-.083.328-.15l-.112-.173.082-.054.07-.066.07-.076.058-.076.172.117c.068-.097.127-.214.163-.33l-.19-.054.018-.085z"/></svg>