<svg xmlns="http://www.w3.org/2000/svg" width="1366" height="700" viewBox="149.496 666.643 1366 700"><path fill="#BA8E2D" d="M472.747 1100.837l-.277-.06.05-.242.14.03.078-.364-.59-.124-.037.173-.468-.1-.442-.82.13-.606.623-.12.433.092-.066.312.642.136.122-.57-.19-.04-.027.12-.9-.19.06-.296-.397-.085 1.21-5.703-.38-.08.025-.122 1.318.278.45-.066.276.06.047-.227-.19-.04.044-.208 1.11.235-.045.21-.226-.05-.46 2.167.19.04-.648 3.05.122.027.044-.208.525-.596.062-.294.364.077-.067.312.914.303 9.335-1.917.655.178h.408l-.035-.32h.62v.284l.815.373.638-2.128h-.585v-.46h5.175v.53h-.32v3.563h.39v-2.356h2.322v.39h-.23v.53h4.91s.672-.39 1.346-.3c.675.09 1.632.814 1.632.814h.62v2.18l.355.125v.23l-.266.106-3.082.902h-1.134l-.266.213h-.213l-.355-.213v-.213h-.318s.3-2.606-2.02-2.606c-2.322 0-2.004 2.57-2.004 2.57v.283h-2.056v-.248h-.532v.23h-3.633s.78-2.553-1.967-2.766l-.654-.005-3.507 1.51-.037.105h-.354l-.214-.354-.39-.018-.266-.23-5.075-.288-.318.386-.22-.065.04-.19-.323-.104-1.258 2.94-.23.15-.413-.088 1.642-7.73-.35-.076-1.63 7.68-.218-.01"/><path fill="#C4A161" d="M488.933 1093.872l-.484 1.72 1.01.01v-1.72l-.527-.01M491.2 1093.875l-1.365.018v1.69l1.364-.006v-1.702M493.024 1093.875l-1.33.018-.002 1.69h1.316l.016-1.708"/><path d="M471.352 1109.95l-.574-.124 3.61-16.827.573.122zM498.143 1099.306h-.422a.998.998 0 0 1-1.71.71 1 1 0 1 1 1.71-.71h.845a1.844 1.844 0 0 0-1.847-1.847 1.846 1.846 0 1 0 1.847 1.847h-.422"/><path fill="#BA8E2D" d="M497.52 1099.52l.017-.067v-.026l.008-.043v-.12l.173-.01a1.06 1.06 0 0 0-.06-.292l-.165.06-.07-.145-.04-.07-.053-.06.13-.12-.233-.19-.086.147-.077-.034-.077-.025-.078-.026-.086-.02.017-.172a.877.877 0 0 0-.302.01l.026.172-.224.078-.078.043-.095-.146-.224.198.13.112a.744.744 0 0 0-.155.293l-.164-.06a1.21 1.21 0 0 0-.043.3h.173l.008.086.036.164.026.077-.155.07c.042.095.094.18.155.258l.13-.112.06.062.06.05.14.088-.08.154c.086.044.19.077.285.095l.026-.173.07.01h.077l.095-.01h.01l.085-.018.034.17c.095-.024.19-.06.276-.11l-.086-.146.07-.043.06-.05.06-.06.053-.063.138.104a.996.996 0 0 0 .146-.267l-.154-.052.014-.07z"/><path d="M487.915 1099.27h-.44a1.04 1.04 0 0 1-1.042 1.042 1.038 1.038 0 0 1-1.042-1.043c0-.29.117-.547.305-.736.19-.19.448-.306.737-.306s.547.115.738.306c.19.19.306.446.306.736h.878a1.918 1.918 0 0 0-1.92-1.92 1.92 1.92 0 1 0 1.92 1.92h-.44"/><path fill="#BA8E2D" d="M487.265 1099.492l.018-.07v-.028l.01-.045v-.126l.178-.01a1.118 1.118 0 0 0-.06-.304l-.17.062-.073-.15-.044-.073-.054-.064.133-.124-.242-.198-.088.152-.08-.035-.08-.026-.082-.027-.09-.018.02-.18a.872.872 0 0 0-.314.01l.027.178-.233.08-.08.045-.098-.152a.872.872 0 0 0-.233.207l.133.117a.784.784 0 0 0-.162.304l-.17-.062a1.243 1.243 0 0 0-.043.312h.18l.008.09.036.17.028.08-.16.073c.043.1.097.19.16.27l.134-.116.063.062.062.054.144.09-.08.16c.09.046.198.08.296.1l.027-.18.07.01h.082l.098-.01h.01l.088-.018.037.18c.1-.027.197-.063.286-.117l-.09-.152.073-.045.062-.053.063-.063.055-.062.144.107c.06-.08.115-.18.15-.277l-.16-.055.015-.073z"/></svg>